<?xml version="1.0" encoding="UTF-8" standalone="no"?>
<svg
   sodipodi:docname="suspend_primary.svg"
   inkscape:version="1.1.1 (3bf5ae0d25, 2021-09-20)"
   id="svg2343"
   version="1.1"
   viewBox="0 0 8.4666662 8.4666662"
   height="8.4666662mm"
   width="8.4666662mm"
   xmlns:inkscape="http://www.inkscape.org/namespaces/inkscape"
   xmlns:sodipodi="http://sodipodi.sourceforge.net/DTD/sodipodi-0.dtd"
   xmlns="http://www.w3.org/2000/svg"
   xmlns:svg="http://www.w3.org/2000/svg"
   xmlns:rdf="http://www.w3.org/1999/02/22-rdf-syntax-ns#"
   xmlns:cc="http://creativecommons.org/ns#"
   xmlns:dc="http://purl.org/dc/elements/1.1/">
  <defs
     id="defs2337">
    <linearGradient
       id="a-3"
       x1="16"
       x2="16"
       y1="1"
       y2="31"
       gradientUnits="userSpaceOnUse">
      <stop
         stop-color="#4d83f3"
         offset="0"
         id="stop969" />
      <stop
         stop-color="#46cafa"
         offset="1"
         id="stop971" />
    </linearGradient>
  </defs>
  <sodipodi:namedview
     inkscape:document-rotation="0"
     inkscape:window-maximized="1"
     inkscape:window-y="0"
     inkscape:window-x="0"
     inkscape:window-height="1007"
     inkscape:window-width="1920"
     showgrid="true"
     inkscape:current-layer="layer1"
     inkscape:document-units="mm"
     inkscape:cy="12.366071"
     inkscape:cx="16.160714"
     inkscape:zoom="11.2"
     inkscape:pageshadow="2"
     inkscape:pageopacity="0.0"
     borderopacity="1.0"
     bordercolor="#666666"
     pagecolor="#ffffff"
     id="base"
     inkscape:pagecheckerboard="0">
    <inkscape:grid
       type="xygrid"
       id="grid842" />
  </sodipodi:namedview>
  <metadata
     id="metadata2340">
    <rdf:RDF>
      <cc:Work
         rdf:about="">
        <dc:format>image/svg+xml</dc:format>
        <dc:type
           rdf:resource="http://purl.org/dc/dcmitype/StillImage" />
      </cc:Work>
    </rdf:RDF>
  </metadata>
  <g
     transform="translate(-95.662116,-128.16315)"
     id="layer1"
     inkscape:groupmode="layer"
     inkscape:label="Layer 1">
    <g
       id="system-suspend"
       transform="matrix(0.26458333,0,0,0.26458333,58.355866,128.16315)">
      <g
         id="g1680">
        <circle
           style="opacity:0;fill:#000000;fill-opacity:1;stroke-width:1.06667"
           id="circle949"
           r="16"
           cy="16"
           cx="157" />
      </g>
    </g>
    <path
       d="m 102.00366,130.02206 c -0.58272,-0.52158 -1.33451,-0.80891 -2.116544,-0.80891 -1.750785,0 -3.175,1.42434 -3.175,3.175 0,1.75066 1.424215,3.175 3.175,3.175 0.724114,0 1.406574,-0.2381 1.973414,-0.68862 0.061,-0.0484 0.0804,-0.13263 0.0467,-0.20291 -0.0337,-0.0703 -0.11157,-0.10788 -0.18741,-0.091 -0.16108,0.0363 -0.32497,0.0546 -0.48704,0.0546 -1.06744,0 -1.980847,-0.76093 -2.171598,-1.80925 -0.01648,-0.0908 -0.103601,-0.15085 -0.194305,-0.13446 -0.09095,0.0166 -0.151141,0.10365 -0.134559,0.19446 0.211037,1.15853 1.187962,2.01222 2.352652,2.07925 -0.37134,0.17363 -0.77668,0.26365 -1.197759,0.26365 -1.566333,0 -2.840744,-1.27441 -2.840744,-2.84075 5e-5,-1.56645 1.274284,-2.84074 2.840744,-2.84074 0.473559,0 0.934709,0.11778 1.344969,0.33861 -0.72524,1.9e-4 -1.417666,0.31128 -1.899837,0.85379 -0.06118,0.069 -0.05498,0.17462 0.01402,0.23595 0.06885,0.0615 0.174475,0.055 0.235895,-0.0139 0.418872,-0.47129 1.020532,-0.74168 1.650622,-0.74168 0.20652,0 0.41288,0.0293 0.61313,0.0871 0.075,0.0217 0.15478,-0.0114 0.19253,-0.0797 0.0377,-0.0683 0.0234,-0.15341 -0.0348,-0.20543 z"
       id="path70"
       style="fill:#eff0f1;fill-opacity:1;stroke-width:0.0125992" />
    <path
       d="m 99.465548,133.02983 c 0.02582,0.0625 0.08662,0.10316 0.154239,0.10316 h 0.935833 c 0.0924,0 0.16714,-0.0748 0.16714,-0.16709 0,-0.0923 -0.0749,-0.16699 -0.16714,-0.16699 h -0.53237 l 0.58355,-0.5837 c 0.0479,-0.0478 0.0622,-0.11974 0.0363,-0.1822 -0.0259,-0.0624 -0.0868,-0.10305 -0.15439,-0.10305 h -0.86906 c -0.09223,0 -0.166989,0.0748 -0.166989,0.16709 0,0.0922 0.07486,0.16709 0.166989,0.16709 h 0.46553 l -0.583648,0.58364 c -0.04779,0.0478 -0.06206,0.1196 -0.03603,0.18205 z"
       id="path72"
       style="fill:#eff0f1;fill-opacity:1;stroke-width:0.0125992" />
    <path
       d="m 101.82551,133.30953 h -0.39855 l 0.45953,-0.45948 c 0.0478,-0.0478 0.062,-0.11974 0.0362,-0.18219 -0.0258,-0.0625 -0.0868,-0.10306 -0.1544,-0.10306 l -0.74482,5e-5 c -0.0924,0 -0.16714,0.0749 -0.16714,0.16709 0,0.0922 0.0749,0.16709 0.16714,0.16709 h 0.34136 l -0.45953,0.45958 c -0.0478,0.0477 -0.0621,0.1196 -0.0363,0.18205 0.0258,0.0625 0.0868,0.1032 0.15439,0.1032 h 0.80207 c 0.0924,0 0.16714,-0.0749 0.16714,-0.16714 0,-0.0923 -0.0747,-0.16719 -0.16709,-0.16719 z"
       id="path74"
       style="fill:#eff0f1;fill-opacity:1;stroke-width:0.0125992" />
    <path
       d="m 97.794262,132.42822 c 0.02585,0.0624 0.08677,0.10315 0.15439,0.10315 h 1.27 c 0.09243,0 0.16723,-0.0748 0.16723,-0.16709 0,-0.0924 -0.07486,-0.16714 -0.16723,-0.16714 h -0.866447 l 0.894003,-0.894 c 0.04779,-0.0478 0.06201,-0.11964 0.03617,-0.1821 -0.02585,-0.0624 -0.08677,-0.10315 -0.154392,-0.10315 h -1.179312 c -0.09223,0 -0.166989,0.0749 -0.166989,0.16709 0,0.0924 0.07486,0.16714 0.166989,0.16714 h 0.775735 l -0.893763,0.894 c -0.04798,0.0478 -0.06221,0.1196 -0.03642,0.1821 z"
       id="path76"
       style="fill:#eff0f1;fill-opacity:1;stroke-width:0.0125992" />
    <path
       sodipodi:nodetypes="cccccccccccccscscscccc"
       inkscape:connector-curvature="0"
       style="clip-rule:evenodd;fill:#eff0f1;fill-opacity:1;fill-rule:evenodd;stroke-width:0.000647824;stroke-linejoin:round;stroke-miterlimit:1.41421"
       id="path4-3-3-36"
       d="m 99.645041,129.22223 c -1.342829,0.10241 -2.491916,1.05912 -2.831252,2.35976 -0.132832,0.51194 -0.136073,1.08146 -0.0064,1.5886 0.334476,1.32467 1.499631,2.29576 2.86164,2.3854 0.773011,0.0512 1.523671,-0.1728 2.143061,-0.64154 0.16808,-0.12637 0.47372,-0.43195 0.6002,-0.59996 0.94589,-1.25109 0.84986,-2.98692 -0.22724,-4.1132 -0.66422,-0.69264 -1.59093,-1.05101 -2.539995,-0.97906 z m 0.425709,0.39177 c 0.33426,0.0187 0.81084,0.12187 1.24035,0.3728 0.45362,0.2639 0.80335,0.64916 1.06098,1.15955 0.38049,0.69591 0.38466,1.69586 0.0921,2.36662 -0.24043,0.48936 -0.6402,1.00563 -1.15073,1.32443 -0.34103,0.21296 -0.99612,0.34877 -1.462541,0.3429 -0.441039,-0.006 -0.98204,-0.11827 -1.304414,-0.3198 -0.605338,-0.37843 -1.083559,-0.91208 -1.32027,-1.59312 -0.172887,-0.66571 -0.135183,-1.37996 0.12303,-2.0102 0.164643,-0.40186 0.44186,-0.72754 0.880798,-1.10732 0.40308,-0.30635 0.928592,-0.48251 1.371923,-0.51681 0.08799,-0.008 0.23994,-0.0259 0.25277,-0.0259 0.01275,-0.002 0.110414,-10e-4 0.216034,0.007 z" />
  </g>
</svg>
