<?xml version="1.0" encoding="UTF-8" standalone="no"?>
<svg
   width="32"
   version="1.1"
   height="32"
   viewBox="0 0 32 32"
   id="svg15"
   sodipodi:docname="folder.svg"
   inkscape:version="1.1.1 (3bf5ae0d25, 2021-09-20)"
   xmlns:inkscape="http://www.inkscape.org/namespaces/inkscape"
   xmlns:sodipodi="http://sodipodi.sourceforge.net/DTD/sodipodi-0.dtd"
   xmlns:xlink="http://www.w3.org/1999/xlink"
   xmlns="http://www.w3.org/2000/svg"
   xmlns:svg="http://www.w3.org/2000/svg"
   xmlns:rdf="http://www.w3.org/1999/02/22-rdf-syntax-ns#"
   xmlns:cc="http://creativecommons.org/ns#"
   xmlns:dc="http://purl.org/dc/elements/1.1/">
  <sodipodi:namedview
     pagecolor="#ffffff"
     bordercolor="#666666"
     borderopacity="1"
     objecttolerance="10"
     gridtolerance="10"
     guidetolerance="10"
     inkscape:pageopacity="0"
     inkscape:pageshadow="2"
     inkscape:window-width="1920"
     inkscape:window-height="1007"
     id="namedview17"
     showgrid="true"
     inkscape:zoom="9.8125"
     inkscape:cx="-9.5796178"
     inkscape:cy="18.089172"
     inkscape:window-x="0"
     inkscape:window-y="0"
     inkscape:window-maximized="1"
     inkscape:current-layer="layer1"
     inkscape:pagecheckerboard="0">
    <inkscape:grid
       type="xygrid"
       id="grid862" />
  </sodipodi:namedview>
  <defs
     id="defs5455">
    <linearGradient
       inkscape:collect="always"
       xlink:href="#linearGradient847"
       id="linearGradient858"
       x1="210.75999"
       y1="89.093002"
       x2="362.40799"
       y2="89.093002"
       gradientUnits="userSpaceOnUse"
       gradientTransform="matrix(0.05859377,0,0,0.06195508,385.57143,515.91903)" />
    <linearGradient
       inkscape:collect="always"
       id="linearGradient847">
      <stop
         style="stop-color:#7192c1;stop-opacity:1"
         offset="0"
         id="stop843" />
      <stop
         style="stop-color:#3b5a87;stop-opacity:1"
         offset="1"
         id="stop845" />
    </linearGradient>
    <linearGradient
       inkscape:collect="always"
       xlink:href="#linearGradient847"
       id="linearGradient859"
       x1="0"
       y1="256.82327"
       x2="512"
       y2="256.82327"
       gradientUnits="userSpaceOnUse"
       gradientTransform="matrix(0.05859377,0,0,0.06195508,385.57143,515.91903)" />
    <linearGradient
       inkscape:collect="always"
       xlink:href="#linearGradient847"
       id="linearGradient862"
       x1="476.689"
       y1="163.60085"
       x2="319.6994"
       y2="162.04736"
       gradientUnits="userSpaceOnUse"
       gradientTransform="matrix(0.05859377,0,0,0.06195508,385.57143,515.91903)" />
  </defs>
  <metadata
     id="metadata5458">
    <rdf:RDF>
      <cc:Work
         rdf:about="">
        <dc:format>image/svg+xml</dc:format>
        <dc:type
           rdf:resource="http://purl.org/dc/dcmitype/StillImage" />
      </cc:Work>
    </rdf:RDF>
  </metadata>
  <g
     inkscape:label="Capa 1"
     inkscape:groupmode="layer"
     id="layer1"
     transform="translate(-384.57143,-515.798)">
    <path
       style="fill:url(#linearGradient858);fill-opacity:1;stroke-width:0.0602513"
       d="m 401.36761,522.28989 c 0.48407,0.50593 1.13728,0.78962 1.81795,0.78962 h 1.00659 2.61413 c -0.68066,0 -1.33386,-0.28369 -1.81794,-0.78962 l -1.629,-1.70226 c -0.48422,-0.50594 -1.13735,-0.78963 -1.81792,-0.78963 h -3.62074 c 0.68057,0 1.33378,0.28369 1.81794,0.78963 z"
       id="path2" />
    <path
       style="fill:#3b5a87;fill-opacity:1;stroke-width:0.0602513"
       d="m 396.11781,520.58763 1.62908,1.70226 c 0.48407,0.50593 1.13726,0.78962 1.81792,0.78962 h 1.00662 2.61413 c -0.68067,0 -1.33388,-0.28369 -1.81795,-0.78962 l -1.62899,-1.70226 c -0.48422,-0.50594 -1.13737,-0.78963 -1.81794,-0.78963 h -3.55616 -0.0646 c 0.68066,0 1.33379,0.28375 1.81788,0.78963 z"
       id="path4" />
    <path
       style="fill:url(#linearGradient859);fill-opacity:1;stroke-width:0.0565219"
       d="m 414.01968,522.68582 h -6.20691 -1.00662 -2.61412 -1.00659 -2.61401 -1.00662 c -0.68066,0 -1.33385,-0.24967 -1.81792,-0.6949 l -1.62908,-1.49804 c -0.48415,-0.44521 -1.13728,-0.69488 -1.81793,-0.69488 h -3.55604 -3.62066 c -0.85698,0 -1.55175,0.64647 -1.55175,1.44391 v 2.88781 0.48132 17.80805 c 0,0.79744 0.69477,1.44391 1.55175,1.44391 h 26.8965 c 0.85698,0 1.55175,-0.64647 1.55175,-1.44391 v -18.28937 c 0,-0.79749 -0.69477,-1.4439 -1.55175,-1.4439 z m -9.82759,2.88776 z m 9.31043,0.48131 c 0,0.53159 -0.46314,0.96259 -1.03452,0.96259 h -7.24139 c -0.57138,0 -1.03452,-0.431 -1.03452,-0.96259 v -0.48131 c 0,-0.53159 0.46314,-0.96259 1.03452,-0.96259 h 7.24132 c 0.57139,0 1.03452,0.431 1.03452,0.96259 v 0.48131 z"
       id="path6"
       sodipodi:nodetypes="scccccsccscssccssssssccccccccccssssssscc" />
    <path
       style="fill:url(#linearGradient862);fill-opacity:1;stroke-width:0.0602513"
       d="m 412.46793,524.44313 h -7.24132 c -0.57138,0 -1.04623,0.48976 -1.04623,1.09381 v 0.54696 c 0,0.60406 0.47485,1.09381 1.04623,1.09381 h 7.24132 c 0.57139,0 1.10944,-0.4899 1.12241,-1.09381 l 0.0117,-0.54696 c 6e-5,-0.60405 -0.56268,-1.09381 -1.13412,-1.09381 z"
       id="path8"
       sodipodi:nodetypes="ssssssscs" />
  </g>
</svg>
