<?xml version="1.0" encoding="UTF-8" standalone="no"?>
<svg
   width="32"
   version="1.1"
   height="32"
   viewBox="0 0 32 32"
   id="svg15"
   sodipodi:docname="folder-sign.svg"
   inkscape:version="1.1.1 (3bf5ae0d25, 2021-09-20)"
   xmlns:inkscape="http://www.inkscape.org/namespaces/inkscape"
   xmlns:sodipodi="http://sodipodi.sourceforge.net/DTD/sodipodi-0.dtd"
   xmlns:xlink="http://www.w3.org/1999/xlink"
   xmlns="http://www.w3.org/2000/svg"
   xmlns:svg="http://www.w3.org/2000/svg"
   xmlns:rdf="http://www.w3.org/1999/02/22-rdf-syntax-ns#"
   xmlns:cc="http://creativecommons.org/ns#"
   xmlns:dc="http://purl.org/dc/elements/1.1/">
  <sodipodi:namedview
     pagecolor="#ffffff"
     bordercolor="#666666"
     borderopacity="1"
     objecttolerance="10"
     gridtolerance="10"
     guidetolerance="10"
     inkscape:pageopacity="0"
     inkscape:pageshadow="2"
     inkscape:window-width="1920"
     inkscape:window-height="1007"
     id="namedview17"
     showgrid="true"
     inkscape:zoom="9.8125"
     inkscape:cx="-9.477707"
     inkscape:cy="1.7834395"
     inkscape:window-x="0"
     inkscape:window-y="0"
     inkscape:window-maximized="1"
     inkscape:current-layer="layer1"
     inkscape:pagecheckerboard="0">
    <inkscape:grid
       type="xygrid"
       id="grid862" />
  </sodipodi:namedview>
  <defs
     id="defs5455">
    <linearGradient
       inkscape:collect="always"
       id="linearGradient994">
      <stop
         style="stop-color:#263740;stop-opacity:1"
         offset="0"
         id="stop990" />
      <stop
         style="stop-color:#263740;stop-opacity:1"
         offset="0.73382789"
         id="stop1610" />
      <stop
         style="stop-color:#f0f0f0;stop-opacity:1"
         offset="0.77272815"
         id="stop1224" />
      <stop
         style="stop-color:#f0f0f0;stop-opacity:1"
         offset="1"
         id="stop992" />
    </linearGradient>
    <linearGradient
       inkscape:collect="always"
       xlink:href="#linearGradient847"
       id="linearGradient858"
       x1="210.75999"
       y1="89.093002"
       x2="362.40799"
       y2="89.093002"
       gradientUnits="userSpaceOnUse"
       gradientTransform="matrix(0.05859377,0,0,0.06178774,385.57143,515.9295)" />
    <linearGradient
       inkscape:collect="always"
       id="linearGradient847">
      <stop
         style="stop-color:#7192c1;stop-opacity:1"
         offset="0"
         id="stop843" />
      <stop
         style="stop-color:#3b5a87;stop-opacity:1"
         offset="1"
         id="stop845" />
    </linearGradient>
    <linearGradient
       inkscape:collect="always"
       xlink:href="#linearGradient847"
       id="linearGradient859"
       x1="0"
       y1="256.82327"
       x2="512"
       y2="256.82327"
       gradientUnits="userSpaceOnUse"
       gradientTransform="matrix(0.05859377,0,0,0.06178774,385.57143,515.9295)" />
    <linearGradient
       inkscape:collect="always"
       xlink:href="#linearGradient847"
       id="linearGradient862"
       x1="476.689"
       y1="163.60085"
       x2="319.6994"
       y2="162.04736"
       gradientUnits="userSpaceOnUse"
       gradientTransform="matrix(0.05859377,0,0,0.06178774,385.57143,515.9295)" />
    <linearGradient
       inkscape:collect="always"
       xlink:href="#linearGradient994"
       id="linearGradient996-3"
       x1="416.57144"
       y1="510.798"
       x2="428.57144"
       y2="532.79797"
       gradientUnits="userSpaceOnUse"
       gradientTransform="matrix(0.48293843,0,0,0.50034415,185.64441,274.57988)" />
  </defs>
  <metadata
     id="metadata5458">
    <rdf:RDF>
      <cc:Work
         rdf:about="">
        <dc:format>image/svg+xml</dc:format>
        <dc:type
           rdf:resource="http://purl.org/dc/dcmitype/StillImage" />
      </cc:Work>
    </rdf:RDF>
  </metadata>
  <g
     inkscape:label="Capa 1"
     inkscape:groupmode="layer"
     id="layer1"
     transform="translate(-384.57143,-515.798)">
    <path
       style="fill:url(#linearGradient858);fill-opacity:1;stroke-width:0.0601699"
       d="m 401.36761,522.28316 c 0.48407,0.50456 1.13728,0.78749 1.81795,0.78749 h 1.00659 2.61413 c -0.68066,0 -1.33386,-0.28293 -1.81794,-0.78749 l -1.629,-1.69766 c -0.48422,-0.50458 -1.13735,-0.7875 -1.81792,-0.7875 h -3.62074 c 0.68057,0 1.33378,0.28292 1.81794,0.7875 z"
       id="path2" />
    <path
       style="fill:#3b5a87;fill-opacity:1;stroke-width:0.0601699"
       d="m 396.11781,520.5855 1.62908,1.69766 c 0.48407,0.50456 1.13726,0.78749 1.81792,0.78749 h 1.00662 2.61413 c -0.68067,0 -1.33388,-0.28293 -1.81795,-0.78749 l -1.62899,-1.69766 c -0.48422,-0.50458 -1.13737,-0.7875 -1.81794,-0.7875 h -3.55616 -0.0646 c 0.68066,0 1.33379,0.28298 1.81788,0.7875 z"
       id="path4" />
    <path
       style="fill:url(#linearGradient859);fill-opacity:1;stroke-width:0.0564455"
       d="m 414.01968,522.67802 h -6.20691 -1.00662 -2.61412 -1.00659 -2.61401 -1.00662 c -0.68066,0 -1.33385,-0.249 -1.81792,-0.69302 l -1.62908,-1.494 c -0.48415,-0.444 -1.13728,-0.693 -1.81793,-0.693 h -3.55604 -3.62066 c -0.85698,0 -1.55175,0.64472 -1.55175,1.44001 v 2.88001 0.48002 17.75995 c 0,0.79529 0.69477,1.44001 1.55175,1.44001 h 26.8965 c 0.85698,0 1.55175,-0.64472 1.55175,-1.44001 v -18.23997 c 0,-0.79534 -0.69477,-1.44 -1.55175,-1.44 z m -9.82759,2.87996 z m 9.31043,0.48001 c 0,0.53015 -0.46314,0.95999 -1.03452,0.95999 h -7.24139 c -0.57138,0 -1.03452,-0.42984 -1.03452,-0.95999 v -0.48001 c 0,-0.53015 0.46314,-0.95999 1.03452,-0.95999 h 7.24132 c 0.57139,0 1.03452,0.42984 1.03452,0.95999 v 0.48001 z"
       id="path6"
       sodipodi:nodetypes="scccccsccscssccssssssccccccccccssssssscc" />
    <path
       style="fill:url(#linearGradient862);fill-opacity:1;stroke-width:0.0601699"
       d="m 412.46793,524.43058 h -7.24132 c -0.57138,0 -1.04623,0.48844 -1.04623,1.09086 v 0.54548 c 0,0.60243 0.47485,1.09086 1.04623,1.09086 h 7.24132 c 0.57139,0 1.10944,-0.48858 1.12241,-1.09086 l 0.0117,-0.54548 c 6e-5,-0.60242 -0.56268,-1.09086 -1.13412,-1.09086 z"
       id="path8"
       sodipodi:nodetypes="ssssssscs" />
    <path
       style="color:#232629;fill:url(#linearGradient996-3);fill-opacity:1;stroke:none;stroke-width:0.419805"
       d="m 397.65808,530.35532 c -0.072,-10e-4 -0.14598,0.0129 -0.21568,0.0422 -0.0374,0.0172 -0.19892,0.14537 -0.3578,0.28556 l -0.28927,0.25751 -0.10481,-0.0475 c -0.1467,-0.0642 -0.28826,-0.0779 -0.42028,-0.0388 -0.0913,0.0271 -0.30513,0.20984 -1.70837,1.44475 -0.88557,0.77844 -1.60568,1.42148 -1.60355,1.43143 10e-4,0.008 0.36137,0.1941 0.79624,0.41021 l 0.79521,0.39559 1.0462,-0.92248 c 0.57578,-0.50755 1.05485,-0.91825 1.06633,-0.91258 0.0375,0.0181 0.10506,0.41688 0.0917,0.54499 -0.006,0.07 -0.0449,0.19551 -0.0857,0.27884 -0.0728,0.14899 -0.0807,0.15768 -1.37779,1.30471 -0.71734,0.63408 -1.31463,1.1727 -1.32536,1.19401 -0.0307,0.0583 0.004,0.16847 0.0706,0.23142 0.1122,0.10612 0.38972,0.13968 0.54728,0.0643 0.10885,-0.0523 2.6779,-2.34137 2.75959,-2.46064 0.23862,-0.34046 0.28804,-0.77646 0.13708,-1.20542 -0.0596,-0.17026 -0.13765,-0.33389 -0.21367,-0.45019 -0.0221,-0.0313 0.0149,-0.0724 0.25498,-0.28617 0.22707,-0.20403 0.27913,-0.2613 0.28322,-0.31416 0.009,-0.11247 -0.0429,-0.17504 -0.20964,-0.26084 l -0.15521,-0.0798 0.30842,-0.27413 c 0.25281,-0.22681 0.30746,-0.28602 0.31142,-0.3389 0.0115,-0.16845 -0.18495,-0.29186 -0.40114,-0.29345 z m -5.19565,3.80207 c -0.007,0.001 -0.95116,0.83051 -2.09841,1.84163 -1.84517,1.62833 -2.10764,1.86935 -2.27783,2.07656 -0.33807,0.41234 -0.70601,1.04106 -0.95043,1.61552 -0.15839,0.36839 -0.16636,0.33504 0.0544,0.2568 0.68106,-0.24348 1.57071,-0.63861 2.08832,-0.92916 0.50617,-0.2845 0.59236,-0.3568 2.73643,-2.24652 l 2.06213,-1.81976 -0.80128,-0.39824 c -0.44068,-0.21895 -0.80579,-0.39751 -0.81337,-0.39683 z m 0.23182,4.21429 c -0.10126,-0.004 -0.20553,-0.002 -0.27312,0.007 v 9.7e-4 c -0.32046,0.0449 -0.6773,0.2286 -0.84967,0.44032 -0.0466,0.0546 -0.12038,0.17954 -0.16628,0.27345 -0.0433,0.0956 -0.0836,0.1754 -0.0867,0.17747 -0.0249,0.0205 -0.63761,0.11777 -0.99781,0.15871 -0.84682,0.0979 -1.07798,0.13457 -1.16108,0.1854 -0.16305,0.0996 -0.0369,0.20024 0.19454,0.15548 0.0614,-0.0122 0.32315,-0.0468 0.5755,-0.0753 0.25285,-0.0279 0.63739,-0.0813 0.85568,-0.11409 0.21879,-0.0344 0.40395,-0.0571 0.41324,-0.0513 0.009,0.006 -0.0274,0.12221 -0.0856,0.25872 l -0.10483,0.24483 -0.23181,0.0675 c -0.12645,0.0369 -0.30772,0.0996 -0.40316,0.14274 -0.28951,0.12639 -0.34542,0.2851 -0.14212,0.38685 0.11094,0.0548 0.41883,0.0529 0.60976,-0.002 0.16928,-0.0508 0.26451,-0.12206 0.39711,-0.30747 0.0707,-0.0959 0.12651,-0.14662 0.16933,-0.1527 0.0341,-0.006 0.33978,-0.047 0.67832,-0.0941 0.33903,-0.0449 0.64663,-0.0883 0.68636,-0.0942 0.0645,-0.01 0.071,-0.006 0.0523,0.0323 -0.0125,0.025 -0.0682,0.0962 -0.12699,0.1594 -0.0583,0.0635 -0.10482,0.13839 -0.10482,0.16874 0,0.0635 0.0806,0.1265 0.14513,0.11009 0.0249,-0.006 0.0581,-0.0122 0.0736,-0.0122 0.0156,0 0.0836,-0.0324 0.15119,-0.0733 0.12644,-0.0754 0.43139,-0.44483 0.43139,-0.52233 0,-0.0389 0.0464,-0.0484 0.0736,-0.0177 0.009,0.01 0.0793,0.028 0.15622,0.041 0.10786,0.0181 0.13909,0.0319 0.13909,0.0649 0,0.0635 0.15752,0.15532 0.29631,0.1734 0.10786,0.0122 0.24651,-0.002 0.39409,-0.0429 0.052,-0.0153 0.0554,-0.01 0.0375,0.0429 -0.0125,0.0324 -0.10206,0.13685 -0.19755,0.23282 -0.20331,0.19977 -0.44951,0.51769 -0.51399,0.65834 -0.052,0.12021 -0.0309,0.21015 0.0645,0.25286 0.0862,0.0367 0.22756,0.0197 0.30136,-0.0331 0.0645,-0.0468 0.41626,-0.53771 0.54526,-0.76178 0.0924,-0.15707 0.13519,-0.2 0.34471,-0.34683 0.17235,-0.1202 0.22864,-0.14884 0.19149,-0.10201 -0.0614,0.0881 -0.0585,0.15482 0.009,0.19548 0.14449,0.0881 0.35404,0.002 0.5362,-0.21812 0.10784,-0.13045 0.18815,-0.16881 0.5886,-0.29345 l 0.20863,-0.0637 -0.0211,0.0753 c -0.0125,0.0409 -0.0834,0.15704 -0.15723,0.25678 -0.14501,0.20184 -0.17185,0.33024 -0.0857,0.4402 0.0583,0.0753 0.11985,0.0777 0.40315,0.0127 0.39426,-0.0881 0.9085,-0.29008 1.04216,-0.40619 0.18164,-0.16327 0.23743,-0.31991 0.127,-0.37287 -0.11405,-0.0547 -0.17853,-0.0323 -0.32354,0.10805 -0.19403,0.19164 -0.43402,0.34077 -0.6652,0.41623 -0.10785,0.0372 -0.20338,0.0611 -0.21267,0.0544 -0.0125,-0.007 0.23376,-0.44641 0.36587,-0.65239 0.028,-0.0429 0.0503,-0.0958 0.0503,-0.11802 0,-0.0566 -0.1082,-0.1221 -0.20057,-0.1221 -0.0433,0 -0.24721,0.0544 -0.45053,0.1241 -0.42212,0.13865 -0.39409,0.15085 -0.28624,-0.11006 0.0645,-0.16088 0.0432,-0.2039 -0.10481,-0.21409 -0.14192,-0.0105 -0.19704,0.0207 -0.32656,0.17339 -0.0831,0.1038 -0.19357,0.18969 -0.40618,0.32014 -0.2802,0.17117 -0.29277,0.17713 -0.35779,0.14676 -0.0986,-0.0469 -0.15414,-0.0409 -0.39409,0.0391 -0.23428,0.0773 -0.31158,0.0881 -0.36989,0.0409 -0.0497,-0.0389 0.0281,-0.0592 0.45656,-0.11408 0.41593,-0.0528 0.46767,-0.0678 0.46767,-0.12475 0,-0.0921 -0.11417,-0.17901 -0.31749,-0.23813 -0.35142,-0.10378 -0.39047,-0.11032 -0.54426,-0.0842 -0.16615,0.0279 -0.41295,0.18545 -0.44649,0.28351 -0.0341,0.10198 -0.13908,0.0713 -0.13908,-0.041 0,-0.0469 -0.0865,-0.16498 -0.13607,-0.18542 -0.10475,-0.0469 -0.27362,0.0551 -0.40316,0.24275 l -0.1018,0.14476 -0.22777,0.0323 c -0.29569,0.0429 -1.15487,0.15668 -1.26893,0.17138 -0.0738,0.007 -0.086,0.004 -0.0706,-0.0251 0.0125,-0.0205 0.0492,-0.10958 0.0857,-0.20144 0.0955,-0.25274 0.12375,-0.28571 0.26206,-0.31821 0.16617,-0.0388 0.72732,-0.19792 0.87181,-0.24676 0.0676,-0.0227 0.20576,-0.0917 0.30742,-0.15273 0.31117,-0.19165 0.35998,-0.36917 0.13808,-0.49965 -0.0614,-0.0346 -0.14177,-0.0711 -0.17841,-0.081 -0.0567,-0.0153 -0.15473,-0.0246 -0.256,-0.0275 z m -0.31042,0.23811 c 0.0427,-0.002 0.0934,-9.7e-4 0.15723,0.002 0.16306,0.006 0.22821,0.0167 0.27415,0.0487 0.0614,0.0409 0.0613,0.0427 0.006,0.12007 -0.0374,0.0488 -0.12294,0.10629 -0.2308,0.15541 -0.18783,0.0862 -0.77663,0.24248 -0.79521,0.21412 -0.0249,-0.0469 0.16397,-0.32642 0.2842,-0.41619 0.11999,-0.0904 0.17609,-0.11932 0.3044,-0.1241 z m -1.58137,1.70693 c 0.0236,10e-4 0.024,0.0155 0.004,0.0403 -0.04,0.0508 -0.14526,0.088 -0.20359,0.0733 -0.0676,-0.0181 -0.0496,-0.0427 0.0585,-0.0791 0.0709,-0.0236 0.11763,-0.0352 0.14112,-0.0339 z"
       class="ColorScheme-Text"
       id="path12-5" />
  </g>
</svg>
