<?xml version="1.0" encoding="UTF-8" standalone="no"?>
<svg
   height="32"
   viewBox="0 0 32 32"
   width="32"
   version="1.1"
   id="svg25"
   sodipodi:docname="folder-recent.svg"
   inkscape:version="1.1.1 (3bf5ae0d25, 2021-09-20)"
   xmlns:inkscape="http://www.inkscape.org/namespaces/inkscape"
   xmlns:sodipodi="http://sodipodi.sourceforge.net/DTD/sodipodi-0.dtd"
   xmlns:xlink="http://www.w3.org/1999/xlink"
   xmlns="http://www.w3.org/2000/svg"
   xmlns:svg="http://www.w3.org/2000/svg"
   xmlns:rdf="http://www.w3.org/1999/02/22-rdf-syntax-ns#"
   xmlns:cc="http://creativecommons.org/ns#"
   xmlns:dc="http://purl.org/dc/elements/1.1/">
  <metadata
     id="metadata31">
    <rdf:RDF>
      <cc:Work
         rdf:about="">
        <dc:format>image/svg+xml</dc:format>
        <dc:type
           rdf:resource="http://purl.org/dc/dcmitype/StillImage" />
      </cc:Work>
    </rdf:RDF>
  </metadata>
  <defs
     id="defs29">
    <linearGradient
       inkscape:collect="always"
       xlink:href="#linearGradient847"
       id="linearGradient858"
       x1="210.75999"
       y1="89.093002"
       x2="362.40799"
       y2="89.093002"
       gradientUnits="userSpaceOnUse"
       gradientTransform="matrix(0.05859377,0,0,0.06178775,1,0.13148362)" />
    <linearGradient
       inkscape:collect="always"
       id="linearGradient847">
      <stop
         style="stop-color:#7192c1;stop-opacity:1"
         offset="0"
         id="stop843" />
      <stop
         style="stop-color:#3b5a87;stop-opacity:1"
         offset="1"
         id="stop845" />
    </linearGradient>
    <linearGradient
       inkscape:collect="always"
       xlink:href="#linearGradient847"
       id="linearGradient859"
       x1="0"
       y1="256.82327"
       x2="512"
       y2="256.82327"
       gradientUnits="userSpaceOnUse"
       gradientTransform="matrix(0.05859377,0,0,0.06178775,1,0.13148362)" />
    <linearGradient
       inkscape:collect="always"
       xlink:href="#linearGradient847"
       id="linearGradient862"
       x1="476.689"
       y1="163.60085"
       x2="319.6994"
       y2="162.04736"
       gradientUnits="userSpaceOnUse"
       gradientTransform="matrix(0.05859377,0,0,0.06178775,1,0.13148362)" />
  </defs>
  <sodipodi:namedview
     pagecolor="#ffffff"
     bordercolor="#666666"
     borderopacity="1"
     objecttolerance="10"
     gridtolerance="10"
     guidetolerance="10"
     inkscape:pageopacity="0"
     inkscape:pageshadow="2"
     inkscape:window-width="1920"
     inkscape:window-height="1007"
     id="namedview27"
     showgrid="false"
     inkscape:zoom="6.9384853"
     inkscape:cx="-21.474428"
     inkscape:cy="14.9168"
     inkscape:window-x="0"
     inkscape:window-y="0"
     inkscape:window-maximized="1"
     inkscape:current-layer="svg25"
     inkscape:pagecheckerboard="0" />
  <linearGradient
     id="a"
     gradientUnits="userSpaceOnUse"
     x2="0"
     y1="29"
     y2="8">
    <stop
       offset="0"
       stop-color="#3daee9"
       id="stop2" />
    <stop
       offset="1"
       stop-color="#6cc1ef"
       id="stop4" />
  </linearGradient>
  <path
     style="fill:url(#linearGradient858);fill-opacity:1;stroke-width:0.0601699"
     d="m 16.796182,6.4851996 c 0.484068,0.504507 1.137281,0.7874216 1.817944,0.7874216 h 1.006594 2.614131 c -0.680663,0 -1.333857,-0.2829146 -1.817944,-0.7874216 L 18.787912,4.7875021 C 18.303694,4.2829097 17.650563,4 16.969991,4 h -3.620743 c 0.680571,0 1.333784,0.2829097 1.817944,0.7875021 z"
     id="path2" />
  <path
     style="fill:#3b5a87;fill-opacity:1;stroke-width:0.0601699"
     d="m 11.54638,4.7875021 1.629082,1.6976975 c 0.484064,0.504507 1.137257,0.7874216 1.81792,0.7874216 H 16 18.614126 c -0.680663,0 -1.333876,-0.2829146 -1.817944,-0.7874216 L 15.167192,4.7875021 C 14.682974,4.2829097 14.029819,4 13.349248,4 H 9.793092 9.728502 c 0.680663,0 1.333789,0.282975 1.817881,0.7875021 z"
     id="path4" />
  <path
     style="fill:url(#linearGradient859);fill-opacity:1;stroke-width:0.0564455"
     d="M 29.448251,6.8800163 H 23.241343 22.234721 19.620599 18.614006 16 14.993382 c -0.680663,0 -1.333856,-0.2489713 -1.81792,-0.6929968 L 11.54638,4.6929864 C 11.06223,4.2489715 10.409099,4 9.728446,4 H 6.172406 2.551749 C 1.694775,4 1,4.6446981 1,5.4400106 V 8.3200219 8.8000423 26.55999 C 1,27.355303 1.694775,28 2.551749,28 H 29.448251 C 30.305225,28 31,27.355303 31,26.55999 V 8.3200219 C 31,7.524655 30.305225,6.8800163 29.448251,6.8800163 Z m -9.827594,2.8799611 z m 9.31043,0.4800146 c 0,0.530145 -0.463138,0.959986 -1.034522,0.959986 h -7.241381 c -0.571384,0 -1.034527,-0.429841 -1.034527,-0.959986 V 9.7599774 c 0,-0.5301445 0.463143,-0.9599851 1.034527,-0.9599851 h 7.241318 c 0.571389,0 1.034522,0.4298406 1.034522,0.9599851 v 0.4800146 z"
     id="path6"
     sodipodi:nodetypes="scccccsccscssccssssssccccccccccssssssscc" />
  <path
     style="fill:url(#linearGradient862);fill-opacity:1;stroke-width:0.0601699"
     d="m 27.896502,8.6326114 h -7.241318 c -0.571384,0 -1.046233,0.4883816 -1.046233,1.0908157 v 0.5455059 c 0,0.602429 0.474849,1.090819 1.046233,1.090819 h 7.241318 c 0.571389,0 1.109435,-0.488551 1.122412,-1.090819 l 0.01169,-0.5455059 c 5.5e-5,-0.6024341 -0.56268,-1.0908157 -1.134121,-1.0908157 z"
     id="path8"
     sodipodi:nodetypes="ssssssscs" />
  <path
     id="Stopwatch-7-3"
     class="st0"
     d="m 7.804825,22.741714 c 1.962845,0 3.568808,-1.66384 3.568808,-3.697426 0,-2.033594 -1.605963,-3.697438 -3.568808,-3.697438 -1.962841,0 -3.568809,1.663844 -3.568809,3.697438 0,2.033586 1.605968,3.697426 3.568809,3.697426 z m 0.446104,-9.220469 v 0 c 1.226775,0.115544 2.408946,0.64705 3.345754,1.594517 2.096677,2.172242 2.096677,5.684797 0,7.833934 -2.096672,2.149135 -5.48704,2.172244 -7.583717,0.02315 -2.096672,-2.149127 -2.074366,-5.684795 0,-7.857041 0.936814,-0.970573 2.118979,-1.502079 3.345759,-1.594517 v 0 l 0.417751,-0.01471 z"
     sodipodi:nodetypes="ssssscccssccccc"
     style="clip-rule:evenodd;fill:#f0f0f0;fill-opacity:1;fill-rule:evenodd;stroke-width:0.227035" />
  <path
     id="Stopwatch-s-5-6"
     class="st1"
     d="m 8.250929,13.521245 v 0 0 0 0 0 0 l 0.981418,0.184872 v 0 z M 7.804825,24.59043 v 0.924361 c 2.966574,0 5.353213,-2.472658 5.353213,-5.54615 v -0.924353 h -0.8922 v 0.924353 c 0,2.541991 -2.007454,4.621789 -4.461013,4.621789 z M 6.868016,20.685018 7.581775,19.945537 c 0.289966,0.09242 0.62454,0 0.869897,-0.23109 0.22305,-0.231095 0.312273,-0.577726 0.22305,-0.901249 l 2.609693,-2.703752 -0.62454,-0.647051 -2.631996,2.680637 c -0.28997,-0.09244 -0.624545,0 -0.869897,0.231089 -0.22305,0.23109 -0.312273,0.577721 -0.22305,0.901249 l -0.713764,0.73949 z"
     sodipodi:nodetypes="cccccccccccccccccccccccccscc"
     style="fill:#263740;fill-opacity:1;stroke-width:0.227035" />
</svg>
