<?xml version="1.0" encoding="UTF-8" standalone="no"?>
<svg
   width="32"
   version="1.1"
   height="32"
   viewBox="0 0 32 32"
   id="svg15"
   sodipodi:docname="folder-Github.svg"
   inkscape:version="1.1.1 (3bf5ae0d25, 2021-09-20)"
   xmlns:inkscape="http://www.inkscape.org/namespaces/inkscape"
   xmlns:sodipodi="http://sodipodi.sourceforge.net/DTD/sodipodi-0.dtd"
   xmlns:xlink="http://www.w3.org/1999/xlink"
   xmlns="http://www.w3.org/2000/svg"
   xmlns:svg="http://www.w3.org/2000/svg"
   xmlns:rdf="http://www.w3.org/1999/02/22-rdf-syntax-ns#"
   xmlns:cc="http://creativecommons.org/ns#"
   xmlns:dc="http://purl.org/dc/elements/1.1/">
  <sodipodi:namedview
     pagecolor="#ffffff"
     bordercolor="#666666"
     borderopacity="1"
     objecttolerance="10"
     gridtolerance="10"
     guidetolerance="10"
     inkscape:pageopacity="0"
     inkscape:pageshadow="2"
     inkscape:window-width="1920"
     inkscape:window-height="1007"
     id="namedview17"
     showgrid="true"
     inkscape:zoom="9.8125"
     inkscape:cx="-26.292994"
     inkscape:cy="8.7133758"
     inkscape:window-x="0"
     inkscape:window-y="0"
     inkscape:window-maximized="1"
     inkscape:current-layer="layer1"
     inkscape:document-rotation="0"
     inkscape:pagecheckerboard="0">
    <inkscape:grid
       type="xygrid"
       id="grid847" />
  </sodipodi:namedview>
  <defs
     id="defs5455">
    <linearGradient
       inkscape:collect="always"
       xlink:href="#linearGradient847"
       id="linearGradient858"
       x1="210.75999"
       y1="89.093002"
       x2="362.40799"
       y2="89.093002"
       gradientUnits="userSpaceOnUse"
       gradientTransform="matrix(0.05859377,0,0,0.06178774,385.57143,515.92951)" />
    <linearGradient
       inkscape:collect="always"
       id="linearGradient847">
      <stop
         style="stop-color:#7192c1;stop-opacity:1"
         offset="0"
         id="stop843" />
      <stop
         style="stop-color:#3b5a87;stop-opacity:1"
         offset="1"
         id="stop845" />
    </linearGradient>
    <linearGradient
       inkscape:collect="always"
       xlink:href="#linearGradient847"
       id="linearGradient859"
       x1="0"
       y1="256.82327"
       x2="512"
       y2="256.82327"
       gradientUnits="userSpaceOnUse"
       gradientTransform="matrix(0.05859377,0,0,0.06178774,385.57143,515.92951)" />
    <linearGradient
       inkscape:collect="always"
       xlink:href="#linearGradient847"
       id="linearGradient862"
       x1="476.689"
       y1="163.60085"
       x2="319.6994"
       y2="162.04736"
       gradientUnits="userSpaceOnUse"
       gradientTransform="matrix(0.05859377,0,0,0.06178774,385.57143,515.92951)" />
  </defs>
  <metadata
     id="metadata5458">
    <rdf:RDF>
      <cc:Work
         rdf:about="">
        <dc:format>image/svg+xml</dc:format>
        <dc:type
           rdf:resource="http://purl.org/dc/dcmitype/StillImage" />
      </cc:Work>
    </rdf:RDF>
  </metadata>
  <g
     inkscape:label="Capa 1"
     inkscape:groupmode="layer"
     id="layer1"
     transform="translate(-384.57143,-515.798)">
    <path
       style="fill:url(#linearGradient858);fill-opacity:1;stroke-width:0.0601699"
       d="m 401.36761,522.28316 c 0.48407,0.50456 1.13728,0.78749 1.81795,0.78749 h 1.00659 2.61413 c -0.68066,0 -1.33386,-0.28293 -1.81794,-0.78749 l -1.629,-1.69766 c -0.48422,-0.50458 -1.13735,-0.7875 -1.81792,-0.7875 h -3.62074 c 0.68057,0 1.33378,0.28292 1.81794,0.7875 z"
       id="path2" />
    <path
       style="fill:#3b5a87;fill-opacity:1;stroke-width:0.0601699"
       d="m 396.11781,520.5855 1.62908,1.69766 c 0.48407,0.50456 1.13726,0.78749 1.81792,0.78749 h 1.00662 2.61413 c -0.68067,0 -1.33388,-0.28293 -1.81795,-0.78749 l -1.62899,-1.69766 c -0.48422,-0.50458 -1.13737,-0.7875 -1.81794,-0.7875 h -3.55616 -0.0646 c 0.68066,0 1.33379,0.28298 1.81788,0.7875 z"
       id="path4" />
    <path
       style="fill:url(#linearGradient859);fill-opacity:1;stroke-width:0.0564455"
       d="m 414.01968,522.67802 h -6.20691 -1.00662 -2.61412 -1.00659 -2.61401 -1.00662 c -0.68066,0 -1.33385,-0.249 -1.81792,-0.69302 l -1.62908,-1.494 c -0.48415,-0.444 -1.13728,-0.693 -1.81793,-0.693 h -3.55604 -3.62066 c -0.85698,0 -1.55175,0.64472 -1.55175,1.44001 v 2.88001 0.48002 17.75995 c 0,0.79529 0.69477,1.44001 1.55175,1.44001 h 26.8965 c 0.85698,0 1.55175,-0.64472 1.55175,-1.44001 v -18.23997 c 0,-0.79534 -0.69477,-1.44 -1.55175,-1.44 z m -9.82759,2.87996 z m 9.31043,0.48001 c 0,0.53015 -0.46314,0.95999 -1.03452,0.95999 h -7.24139 c -0.57138,0 -1.03452,-0.42984 -1.03452,-0.95999 v -0.48001 c 0,-0.53015 0.46314,-0.95999 1.03452,-0.95999 h 7.24132 c 0.57139,0 1.03452,0.42984 1.03452,0.95999 v 0.48001 z"
       id="path6"
       sodipodi:nodetypes="scccccsccscssccssssssccccccccccssssssscc" />
    <path
       style="fill:url(#linearGradient862);fill-opacity:1;stroke-width:0.0601699"
       d="m 412.46793,524.43058 h -7.24132 c -0.57138,0 -1.04623,0.48844 -1.04623,1.09086 v 0.54548 c 0,0.60243 0.47485,1.09086 1.04623,1.09086 h 7.24132 c 0.57139,0 1.10944,-0.48858 1.12241,-1.09086 l 0.0117,-0.54548 c 6e-5,-0.60242 -0.56268,-1.09086 -1.13412,-1.09086 z"
       id="path8"
       sodipodi:nodetypes="ssssssscs" />
    <path
       class="st0"
       d="m 398.60624,535.30634 c 0,2.66332 -1.66548,4.91393 -3.98268,5.70173 h -3.62063 c -2.3172,-0.7878 -3.98268,-3.03841 -3.98268,-5.70173 0,-3.31971 2.58874,-6.00181 5.79299,-6.00181 3.20425,0 5.793,2.6821 5.793,6.00181 z"
       id="path4-3"
       style="fill:#1f222d;fill-opacity:1;stroke-width:0.184265" />
    <path
       class="st2"
       d="m 394.98562,537.74456 c 0.54309,-0.18754 1.44825,-0.75024 1.44825,-2.43822 0,-0.65648 -0.16293,-1.25666 -0.52499,-1.74429 0.39827,-0.99403 -0.0362,-1.63174 -0.19914,-1.63174 -0.14482,0 -0.76033,0.11254 -1.32153,0.58141 -0.45257,-0.13125 -0.97756,-0.20632 -1.57497,-0.20632 -0.5974,0 -1.12239,0.0749 -1.57497,0.20632 -0.5612,-0.46887 -1.1767,-0.58141 -1.32152,-0.58141 -0.16293,0 -0.59741,0.63771 -0.19914,1.63174 -0.36206,0.48763 -0.52499,1.08781 -0.52499,1.74429 0,1.68798 0.90516,2.25068 1.44825,2.43822 0.43447,0.15002 0.90516,0.24378 1.08618,0.28132 -0.10861,0.11255 -0.28964,0.41264 -0.34395,0.82527 -0.14483,0.11254 -0.36207,0.20631 -0.65171,0.20631 -0.5431,0 -0.81464,-0.37516 -1.08619,-0.75026 -0.27155,-0.37509 -0.63361,-0.56264 -0.81464,-0.56264 -0.18103,0 -0.36206,0.0938 -0.18103,0.28132 0.18103,0.18754 0.41637,0.0379 0.90515,0.93781 0.36207,0.67517 0.81464,0.65641 1.17671,0.65641 0.32585,0 0.63361,-0.18756 0.63361,-0.18756 h 2.71546 l 0.18103,-0.37508 c 0,-0.52517 -0.23534,-0.90026 -0.36206,-1.03158 0.18103,-0.0379 0.65171,-0.1313 1.08619,-0.28132 z"
       id="path8-6"
       style="fill:#f2f2f2;fill-opacity:1;stroke-width:0.184265" />
    <path
       class="st3"
       d="m 388.64953,538.02588 c -0.10862,-0.11253 -0.0905,-0.18754 -0.0181,-0.22508 0.32586,0.33763 0.74223,0.60017 1.23101,0.78772 0.21725,0.26263 0.47069,0.46894 0.86896,0.46894 0.18103,0 0.34395,-0.0559 0.48878,-0.11255 0.50689,0.0749 1.04998,0.11255 1.59307,0.11255 0.50689,0 0.99568,-0.019 1.44825,-0.0938 0,0.0375 0,0.0559 0,0.0938 v 1.50043 l 0.41638,0.4314 c -1.21291,0.43132 -2.51634,0.43132 -3.72925,0 l 0.41638,-0.4314 v -0.90026 c -0.14483,0.0559 -0.39827,0.15001 -0.63361,0.15001 -0.36207,0 -0.90516,-0.0749 -1.26722,-0.75018 -0.36206,-0.69394 -0.5431,-0.82526 -0.68792,-0.91903 -0.0362,-0.0378 -0.0905,-0.0749 -0.12672,-0.11255 z"
       id="path10"
       style="clip-rule:evenodd;fill:#f2f2f2;fill-opacity:1;fill-rule:evenodd;stroke-width:0.184265" />
  </g>
</svg>
