<?xml version="1.0" encoding="UTF-8" standalone="no"?>
<svg
   width="32"
   version="1.1"
   height="32"
   viewBox="0 0 32 32"
   id="svg15"
   sodipodi:docname="folder-godot.svg"
   inkscape:version="1.1.1 (3bf5ae0d25, 2021-09-20)"
   xmlns:inkscape="http://www.inkscape.org/namespaces/inkscape"
   xmlns:sodipodi="http://sodipodi.sourceforge.net/DTD/sodipodi-0.dtd"
   xmlns:xlink="http://www.w3.org/1999/xlink"
   xmlns="http://www.w3.org/2000/svg"
   xmlns:svg="http://www.w3.org/2000/svg"
   xmlns:rdf="http://www.w3.org/1999/02/22-rdf-syntax-ns#"
   xmlns:cc="http://creativecommons.org/ns#"
   xmlns:dc="http://purl.org/dc/elements/1.1/">
  <sodipodi:namedview
     pagecolor="#ffffff"
     bordercolor="#666666"
     borderopacity="1"
     objecttolerance="10"
     gridtolerance="10"
     guidetolerance="10"
     inkscape:pageopacity="0"
     inkscape:pageshadow="2"
     inkscape:window-width="1920"
     inkscape:window-height="1007"
     id="namedview17"
     showgrid="true"
     inkscape:zoom="9.8125"
     inkscape:cx="-9.477707"
     inkscape:cy="18.089172"
     inkscape:window-x="0"
     inkscape:window-y="0"
     inkscape:window-maximized="1"
     inkscape:current-layer="layer1"
     inkscape:pagecheckerboard="0">
    <inkscape:grid
       type="xygrid"
       id="grid862" />
  </sodipodi:namedview>
  <defs
     id="defs5455">
    <linearGradient
       inkscape:collect="always"
       id="linearGradient869">
      <stop
         style="stop-color:#263740;stop-opacity:1"
         offset="0"
         id="stop865" />
      <stop
         style="stop-color:#263740;stop-opacity:1"
         offset="0.23224133"
         id="stop1611" />
      <stop
         style="stop-color:#f0f0f0;stop-opacity:1"
         offset="0.34640488"
         id="stop2238" />
      <stop
         style="stop-color:#f0f0f0;stop-opacity:1"
         offset="1"
         id="stop867" />
    </linearGradient>
    <linearGradient
       inkscape:collect="always"
       xlink:href="#linearGradient847"
       id="linearGradient858"
       x1="210.75999"
       y1="89.093002"
       x2="362.40799"
       y2="89.093002"
       gradientUnits="userSpaceOnUse"
       gradientTransform="matrix(0.05859377,0,0,0.06178774,385.57143,515.9295)" />
    <linearGradient
       inkscape:collect="always"
       id="linearGradient847">
      <stop
         style="stop-color:#7192c1;stop-opacity:1"
         offset="0"
         id="stop843" />
      <stop
         style="stop-color:#3b5a87;stop-opacity:1"
         offset="1"
         id="stop845" />
    </linearGradient>
    <linearGradient
       inkscape:collect="always"
       xlink:href="#linearGradient847"
       id="linearGradient859"
       x1="0"
       y1="256.82327"
       x2="512"
       y2="256.82327"
       gradientUnits="userSpaceOnUse"
       gradientTransform="matrix(0.05859377,0,0,0.06178774,385.57143,515.9295)" />
    <linearGradient
       inkscape:collect="always"
       xlink:href="#linearGradient847"
       id="linearGradient862"
       x1="476.689"
       y1="163.60085"
       x2="319.6994"
       y2="162.04736"
       gradientUnits="userSpaceOnUse"
       gradientTransform="matrix(0.05859377,0,0,0.06178774,385.57143,515.9295)" />
    <linearGradient
       inkscape:collect="always"
       xlink:href="#linearGradient869"
       id="linearGradient871-3"
       x1="427.69644"
       y1="533.74799"
       x2="427.57144"
       y2="512.79797"
       gradientUnits="userSpaceOnUse"
       gradientTransform="matrix(0.48293843,0,0,0.50034415,185.90226,274.2551)" />
  </defs>
  <metadata
     id="metadata5458">
    <rdf:RDF>
      <cc:Work
         rdf:about="">
        <dc:format>image/svg+xml</dc:format>
        <dc:type
           rdf:resource="http://purl.org/dc/dcmitype/StillImage" />
      </cc:Work>
    </rdf:RDF>
  </metadata>
  <g
     inkscape:label="Capa 1"
     inkscape:groupmode="layer"
     id="layer1"
     transform="translate(-384.57143,-515.798)">
    <path
       style="fill:url(#linearGradient858);fill-opacity:1;stroke-width:0.0601699"
       d="m 401.36761,522.28316 c 0.48407,0.50456 1.13728,0.78749 1.81795,0.78749 h 1.00659 2.61413 c -0.68066,0 -1.33386,-0.28293 -1.81794,-0.78749 l -1.629,-1.69766 c -0.48422,-0.50458 -1.13735,-0.7875 -1.81792,-0.7875 h -3.62074 c 0.68057,0 1.33378,0.28292 1.81794,0.7875 z"
       id="path2" />
    <path
       style="fill:#3b5a87;fill-opacity:1;stroke-width:0.0601699"
       d="m 396.11781,520.5855 1.62908,1.69766 c 0.48407,0.50456 1.13726,0.78749 1.81792,0.78749 h 1.00662 2.61413 c -0.68067,0 -1.33388,-0.28293 -1.81795,-0.78749 l -1.62899,-1.69766 c -0.48422,-0.50458 -1.13737,-0.7875 -1.81794,-0.7875 h -3.55616 -0.0646 c 0.68066,0 1.33379,0.28298 1.81788,0.7875 z"
       id="path4" />
    <path
       style="fill:url(#linearGradient859);fill-opacity:1;stroke-width:0.0564455"
       d="m 414.01968,522.67802 h -6.20691 -1.00662 -2.61412 -1.00659 -2.61401 -1.00662 c -0.68066,0 -1.33385,-0.249 -1.81792,-0.69302 l -1.62908,-1.494 c -0.48415,-0.444 -1.13728,-0.693 -1.81793,-0.693 h -3.55604 -3.62066 c -0.85698,0 -1.55175,0.64472 -1.55175,1.44001 v 2.88001 0.48002 17.75995 c 0,0.79529 0.69477,1.44001 1.55175,1.44001 h 26.8965 c 0.85698,0 1.55175,-0.64472 1.55175,-1.44001 v -18.23997 c 0,-0.79534 -0.69477,-1.44 -1.55175,-1.44 z m -9.82759,2.87996 z m 9.31043,0.48001 c 0,0.53015 -0.46314,0.95999 -1.03452,0.95999 h -7.24139 c -0.57138,0 -1.03452,-0.42984 -1.03452,-0.95999 v -0.48001 c 0,-0.53015 0.46314,-0.95999 1.03452,-0.95999 h 7.24132 c 0.57139,0 1.03452,0.42984 1.03452,0.95999 v 0.48001 z"
       id="path6"
       sodipodi:nodetypes="scccccsccscssccssssssccccccccccssssssscc" />
    <path
       style="fill:url(#linearGradient862);fill-opacity:1;stroke-width:0.0601699"
       d="m 412.46793,524.43058 h -7.24132 c -0.57138,0 -1.04623,0.48844 -1.04623,1.09086 v 0.54548 c 0,0.60243 0.47485,1.09086 1.04623,1.09086 h 7.24132 c 0.57139,0 1.10944,-0.48858 1.12241,-1.09086 l 0.0117,-0.54548 c 6e-5,-0.60242 -0.56268,-1.09086 -1.13412,-1.09086 z"
       id="path8"
       sodipodi:nodetypes="ssssssscs" />
    <path
       style="color:#232629;fill:url(#linearGradient871-3);fill-opacity:1;stroke:none;stroke-width:0.55301"
       d="m 391.36669,530.05508 -1.62992,0.56284 v 1.40727 l -0.81495,0.84427 -0.92362,-0.73169 -0.97795,1.2946 0.5433,1.12577 v 3.37732 h 2.17322 v 1.12576 h 1.62992 v -1.12576 h 2.17322 v 1.12576 h 1.62992 v -1.12576 h 2.17322 v -3.37732 l 0.54331,-1.12577 -0.97795,-1.2946 -0.92362,0.73169 -0.81496,-0.84427 v -1.40727 c 0,0 -1.14094,-0.45026 -1.62992,-0.56284 -0.21732,0.33767 -0.38031,0.73176 -0.5433,1.12576 H 391.91 c -0.16299,-0.394 -0.54331,-1.12576 -0.54331,-1.12576 z m -1.35826,4.50306 a 1.3582643,1.4072178 0 0 1 1.35826,1.4072 1.3582643,1.4072178 0 0 1 -1.35826,1.40726 1.3582643,1.4072178 0 0 1 -1.35827,-1.40726 1.3582643,1.4072178 0 0 1 1.35827,-1.4072 z m 4.88975,0 a 1.3582643,1.4072178 0 0 1 1.35826,1.4072 1.3582643,1.4072178 0 0 1 -1.35826,1.40726 1.3582643,1.4072178 0 0 1 -1.35827,-1.40726 1.3582643,1.4072178 0 0 1 1.35827,-1.4072 z m -4.88975,0.56293 a 0.8149586,0.84433072 0 0 0 -0.81496,0.84427 0.8149586,0.84433072 0 0 0 0.81496,0.84435 0.8149586,0.84433072 0 0 0 0.81496,-0.84435 0.8149586,0.84433072 0 0 0 -0.81496,-0.84427 z m 2.44487,0 c 0.27166,0 0.54331,0.28142 0.54331,0.56286 v 1.12576 c 0,0.28141 -0.27165,0.56291 -0.54331,0.56291 -0.27165,0 -0.5433,-0.2815 -0.5433,-0.56291 v -1.12576 c 0,-0.28144 0.24231,-0.56286 0.5433,-0.56286 z m 2.44488,0 a 0.8149586,0.84433072 0 0 0 -0.81496,0.84427 0.8149586,0.84433072 0 0 0 0.81496,0.84435 0.8149586,0.84433072 0 0 0 0.81496,-0.84435 0.8149586,0.84433072 0 0 0 -0.81496,-0.84427 z m -7.33463,3.3773 v 0.28143 c 0,1.85753 2.22755,2.53304 4.88975,2.53304 v 0 0 c 2.6622,0 4.88975,-0.84435 4.88975,-2.70188 0,-0.0559 0,0.056 0,-0.11259 h -1.62991 v 1.12578 h -2.71653 v -1.12578 H 391.91 v 1.12578 h -2.71653 v -1.12578 z"
       class="ColorScheme-Text"
       id="path12-5" />
  </g>
</svg>
