<?xml version="1.0" encoding="UTF-8" standalone="no"?>
<svg
   width="32"
   version="1.1"
   height="32"
   viewBox="0 0 32 32"
   id="svg18"
   sodipodi:docname="folder-image-people.svg"
   inkscape:version="1.1.1 (3bf5ae0d25, 2021-09-20)"
   xmlns:inkscape="http://www.inkscape.org/namespaces/inkscape"
   xmlns:sodipodi="http://sodipodi.sourceforge.net/DTD/sodipodi-0.dtd"
   xmlns:xlink="http://www.w3.org/1999/xlink"
   xmlns="http://www.w3.org/2000/svg"
   xmlns:svg="http://www.w3.org/2000/svg"
   xmlns:rdf="http://www.w3.org/1999/02/22-rdf-syntax-ns#"
   xmlns:cc="http://creativecommons.org/ns#"
   xmlns:dc="http://purl.org/dc/elements/1.1/">
  <sodipodi:namedview
     pagecolor="#ffffff"
     bordercolor="#666666"
     borderopacity="1"
     objecttolerance="10"
     gridtolerance="10"
     guidetolerance="10"
     inkscape:pageopacity="0"
     inkscape:pageshadow="2"
     inkscape:window-width="1920"
     inkscape:window-height="1007"
     id="namedview20"
     showgrid="false"
     inkscape:zoom="9.8125"
     inkscape:cx="-20.280255"
     inkscape:cy="6.1656051"
     inkscape:window-x="0"
     inkscape:window-y="0"
     inkscape:window-maximized="1"
     inkscape:current-layer="layer1"
     inkscape:pagecheckerboard="0" />
  <defs
     id="defs5455">
    <linearGradient
       inkscape:collect="always"
       xlink:href="#linearGradient847"
       id="linearGradient858"
       x1="210.75999"
       y1="89.093002"
       x2="362.40799"
       y2="89.093002"
       gradientUnits="userSpaceOnUse"
       gradientTransform="matrix(0.05859377,0,0,0.06178774,385.57143,515.9295)" />
    <linearGradient
       inkscape:collect="always"
       id="linearGradient847">
      <stop
         style="stop-color:#7192c1;stop-opacity:1"
         offset="0"
         id="stop843" />
      <stop
         style="stop-color:#3b5a87;stop-opacity:1"
         offset="1"
         id="stop845" />
    </linearGradient>
    <linearGradient
       inkscape:collect="always"
       xlink:href="#linearGradient847"
       id="linearGradient859"
       x1="0"
       y1="256.82327"
       x2="512"
       y2="256.82327"
       gradientUnits="userSpaceOnUse"
       gradientTransform="matrix(0.05859377,0,0,0.06178774,385.57143,515.9295)" />
    <linearGradient
       inkscape:collect="always"
       xlink:href="#linearGradient847"
       id="linearGradient862"
       x1="476.689"
       y1="163.60085"
       x2="319.6994"
       y2="162.04736"
       gradientUnits="userSpaceOnUse"
       gradientTransform="matrix(0.05859377,0,0,0.06178774,385.57143,515.9295)" />
  </defs>
  <metadata
     id="metadata5458">
    <rdf:RDF>
      <cc:Work
         rdf:about="">
        <dc:format>image/svg+xml</dc:format>
        <dc:type
           rdf:resource="http://purl.org/dc/dcmitype/StillImage" />
      </cc:Work>
    </rdf:RDF>
  </metadata>
  <g
     inkscape:label="Capa 1"
     inkscape:groupmode="layer"
     id="layer1"
     transform="translate(-384.57143,-515.798)">
    <path
       style="fill:url(#linearGradient858);fill-opacity:1;stroke-width:0.0601699"
       d="m 401.36761,522.28316 c 0.48407,0.50456 1.13728,0.78749 1.81795,0.78749 h 1.00659 2.61413 c -0.68066,0 -1.33386,-0.28293 -1.81794,-0.78749 l -1.629,-1.69766 c -0.48422,-0.50458 -1.13735,-0.7875 -1.81792,-0.7875 h -3.62074 c 0.68057,0 1.33378,0.28292 1.81794,0.7875 z"
       id="path2" />
    <path
       style="fill:#3b5a87;fill-opacity:1;stroke-width:0.0601699"
       d="m 396.11781,520.5855 1.62908,1.69766 c 0.48407,0.50456 1.13726,0.78749 1.81792,0.78749 h 1.00662 2.61413 c -0.68067,0 -1.33388,-0.28293 -1.81795,-0.78749 l -1.62899,-1.69766 c -0.48422,-0.50458 -1.13737,-0.7875 -1.81794,-0.7875 h -3.55616 -0.0646 c 0.68066,0 1.33379,0.28298 1.81788,0.7875 z"
       id="path4" />
    <path
       style="fill:url(#linearGradient859);fill-opacity:1;stroke-width:0.0564455"
       d="m 414.01968,522.67802 h -6.20691 -1.00662 -2.61412 -1.00659 -2.61401 -1.00662 c -0.68066,0 -1.33385,-0.249 -1.81792,-0.69302 l -1.62908,-1.494 c -0.48415,-0.444 -1.13728,-0.693 -1.81793,-0.693 h -3.55604 -3.62066 c -0.85698,0 -1.55175,0.64472 -1.55175,1.44001 v 2.88001 0.48002 17.75995 c 0,0.79529 0.69477,1.44001 1.55175,1.44001 h 26.8965 c 0.85698,0 1.55175,-0.64472 1.55175,-1.44001 v -18.23997 c 0,-0.79534 -0.69477,-1.44 -1.55175,-1.44 z m -9.82759,2.87996 z m 9.31043,0.48001 c 0,0.53015 -0.46314,0.95999 -1.03452,0.95999 h -7.24139 c -0.57138,0 -1.03452,-0.42984 -1.03452,-0.95999 v -0.48001 c 0,-0.53015 0.46314,-0.95999 1.03452,-0.95999 h 7.24132 c 0.57139,0 1.03452,0.42984 1.03452,0.95999 v 0.48001 z"
       id="path6"
       sodipodi:nodetypes="scccccsccscssccssssssccccccccccssssssscc" />
    <path
       style="fill:url(#linearGradient862);fill-opacity:1;stroke-width:0.0601699"
       d="m 412.46793,524.43058 h -7.24132 c -0.57138,0 -1.04623,0.48844 -1.04623,1.09086 v 0.54548 c 0,0.60243 0.47485,1.09086 1.04623,1.09086 h 7.24132 c 0.57139,0 1.10944,-0.48858 1.12241,-1.09086 l 0.0117,-0.54548 c 6e-5,-0.60242 -0.56268,-1.09086 -1.13412,-1.09086 z"
       id="path8"
       sodipodi:nodetypes="ssssssscs" />
    <path
       id="User-7-3"
       class="st0"
       d="m 392.0911,535.30868 c 1.5937,0 2.89763,-1.35093 2.89763,-3.00207 0,-1.65115 -1.30393,-3.00208 -2.89763,-3.00208 -1.5937,0 -2.89763,1.35093 -2.89763,3.00208 0,1.65114 1.30393,3.00207 2.89763,3.00207 z m 0,-0.75054 c 1.19527,0 2.17322,-1.01318 2.17322,-2.25153 0,-0.13136 -0.0181,-0.24395 -0.0362,-0.37522 h -2.29999 c -0.43465,0 -0.81496,-0.30029 -0.92362,-0.75055 -0.10866,0.45026 -0.48898,0.75055 -0.92362,0.75055 h -0.12677 c -0.0181,0.13127 -0.0362,0.24386 -0.0362,0.37522 0,1.23835 0.97795,2.25153 2.17322,2.25153 z m 2.17322,1.50101 c 1.5937,0 2.89763,1.35093 2.89763,3.00207 0,0.82557 -0.65196,1.50107 -1.44881,1.50107 h -8.69289 v -1.50107 c 0,-1.65114 1.30393,-3.00207 2.89763,-3.00207 z"
       style="clip-rule:evenodd;fill:#f0f0f0;fill-opacity:1;fill-rule:evenodd;stroke-width:0.184338" />
    <path
       id="User-s-5-6"
       class="st1"
       d="m 394.97062,531.93139 h -0.72441 c -0.1811,-1.06952 -1.08661,-1.87631 -2.15511,-1.87631 -1.0685,0 -1.97401,0.80679 -2.137,1.87631 h -0.72441 c 0.1811,-1.48231 1.39448,-2.62686 2.87952,-2.62686 1.48503,0 2.68031,1.14455 2.86141,2.62686 z m 1.46692,7.12983 c 0,0.82557 -0.65196,1.50107 -1.44881,1.50107 h -7.24408 v 0.75055 h 7.24408 c 1.19527,0 2.17322,-1.01327 2.17322,-2.25162 z"
       style="fill:#263740;fill-opacity:1;stroke-width:0.184338" />
  </g>
</svg>
