<?xml version="1.0" encoding="UTF-8" standalone="no"?>
<svg
   width="32"
   version="1.1"
   height="32"
   viewBox="0 0 32 32"
   id="svg15"
   sodipodi:docname="folder-openSUSE.svg"
   inkscape:version="1.1.1 (3bf5ae0d25, 2021-09-20)"
   xmlns:inkscape="http://www.inkscape.org/namespaces/inkscape"
   xmlns:sodipodi="http://sodipodi.sourceforge.net/DTD/sodipodi-0.dtd"
   xmlns:xlink="http://www.w3.org/1999/xlink"
   xmlns="http://www.w3.org/2000/svg"
   xmlns:svg="http://www.w3.org/2000/svg"
   xmlns:rdf="http://www.w3.org/1999/02/22-rdf-syntax-ns#"
   xmlns:cc="http://creativecommons.org/ns#"
   xmlns:dc="http://purl.org/dc/elements/1.1/">
  <sodipodi:namedview
     pagecolor="#ffffff"
     bordercolor="#666666"
     borderopacity="1"
     objecttolerance="10"
     gridtolerance="10"
     guidetolerance="10"
     inkscape:pageopacity="0"
     inkscape:pageshadow="2"
     inkscape:window-width="1920"
     inkscape:window-height="1007"
     id="namedview17"
     showgrid="false"
     inkscape:zoom="9.8125"
     inkscape:cx="-0.50955414"
     inkscape:cy="0.45859873"
     inkscape:window-x="0"
     inkscape:window-y="0"
     inkscape:window-maximized="1"
     inkscape:current-layer="layer1"
     inkscape:document-rotation="0"
     inkscape:pagecheckerboard="0" />
  <defs
     id="defs5455">
    <linearGradient
       inkscape:collect="always"
       xlink:href="#linearGradient847"
       id="linearGradient858"
       x1="210.75999"
       y1="89.093002"
       x2="362.40799"
       y2="89.093002"
       gradientUnits="userSpaceOnUse"
       gradientTransform="matrix(0.05859377,0,0,0.06178774,385.57143,515.92952)" />
    <linearGradient
       inkscape:collect="always"
       id="linearGradient847">
      <stop
         style="stop-color:#7192c1;stop-opacity:1"
         offset="0"
         id="stop843" />
      <stop
         style="stop-color:#3b5a87;stop-opacity:1"
         offset="1"
         id="stop845" />
    </linearGradient>
    <linearGradient
       inkscape:collect="always"
       xlink:href="#linearGradient847"
       id="linearGradient859"
       x1="0"
       y1="256.82327"
       x2="512"
       y2="256.82327"
       gradientUnits="userSpaceOnUse"
       gradientTransform="matrix(0.05859377,0,0,0.06178774,385.57143,515.92952)" />
    <linearGradient
       inkscape:collect="always"
       xlink:href="#linearGradient847"
       id="linearGradient862"
       x1="476.689"
       y1="163.60085"
       x2="319.6994"
       y2="162.04736"
       gradientUnits="userSpaceOnUse"
       gradientTransform="matrix(0.05859377,0,0,0.06178774,385.57143,515.92952)" />
  </defs>
  <metadata
     id="metadata5458">
    <rdf:RDF>
      <cc:Work
         rdf:about="">
        <dc:format>image/svg+xml</dc:format>
        <dc:type
           rdf:resource="http://purl.org/dc/dcmitype/StillImage" />
      </cc:Work>
    </rdf:RDF>
  </metadata>
  <g
     inkscape:label="Capa 1"
     inkscape:groupmode="layer"
     id="layer1"
     transform="translate(-384.57143,-515.798)">
    <path
       style="fill:url(#linearGradient858);fill-opacity:1;stroke-width:0.0601699"
       d="m 401.36761,522.28316 c 0.48407,0.50456 1.13728,0.78749 1.81795,0.78749 h 1.00659 2.61413 c -0.68066,0 -1.33386,-0.28293 -1.81794,-0.78749 l -1.629,-1.69766 c -0.48422,-0.50458 -1.13735,-0.7875 -1.81792,-0.7875 h -3.62074 c 0.68057,0 1.33378,0.28292 1.81794,0.7875 z"
       id="path2" />
    <path
       style="fill:#3b5a87;fill-opacity:1;stroke-width:0.0601699"
       d="m 396.11781,520.5855 1.62908,1.69766 c 0.48407,0.50456 1.13726,0.78749 1.81792,0.78749 h 1.00662 2.61413 c -0.68067,0 -1.33388,-0.28293 -1.81795,-0.78749 l -1.62899,-1.69766 c -0.48422,-0.50458 -1.13737,-0.7875 -1.81794,-0.7875 h -3.55616 -0.0646 c 0.68066,0 1.33379,0.28298 1.81788,0.7875 z"
       id="path4" />
    <path
       style="fill:url(#linearGradient859);fill-opacity:1;stroke-width:0.0564455"
       d="m 414.01968,522.67802 h -6.20691 -1.00662 -2.61412 -1.00659 -2.61401 -1.00662 c -0.68066,0 -1.33385,-0.249 -1.81792,-0.69302 l -1.62908,-1.494 c -0.48415,-0.444 -1.13728,-0.693 -1.81793,-0.693 h -3.55604 -3.62066 c -0.85698,0 -1.55175,0.64472 -1.55175,1.44001 v 2.88001 0.48002 17.75995 c 0,0.79529 0.69477,1.44001 1.55175,1.44001 h 26.8965 c 0.85698,0 1.55175,-0.64472 1.55175,-1.44001 v -18.23997 c 0,-0.79534 -0.69477,-1.44 -1.55175,-1.44 z m -9.82759,2.87996 z m 9.31043,0.48001 c 0,0.53015 -0.46314,0.95999 -1.03452,0.95999 h -7.24139 c -0.57138,0 -1.03452,-0.42984 -1.03452,-0.95999 v -0.48001 c 0,-0.53015 0.46314,-0.95999 1.03452,-0.95999 h 7.24132 c 0.57139,0 1.03452,0.42984 1.03452,0.95999 v 0.48001 z"
       id="path6"
       sodipodi:nodetypes="scccccsccscssccssssssccccccccccssssssscc" />
    <path
       style="fill:url(#linearGradient862);fill-opacity:1;stroke-width:0.0601699"
       d="m 412.46793,524.43058 h -7.24132 c -0.57138,0 -1.04623,0.48844 -1.04623,1.09086 v 0.54548 c 0,0.60243 0.47485,1.09086 1.04623,1.09086 h 7.24132 c 0.57139,0 1.10944,-0.48858 1.12241,-1.09086 l 0.0117,-0.54548 c 6e-5,-0.60242 -0.56268,-1.09086 -1.13412,-1.09086 z"
       id="path8"
       sodipodi:nodetypes="ssssssscs" />
    <path
       style="color:#4d4d4d;font-size:20.4884px;font-family:TrebuchetMS-Bold;fill:#f2f2f2;fill-opacity:1;fill-rule:evenodd;stroke:none;stroke-width:0.08446;stroke-miterlimit:4"
       d="m 392.81551,529.30453 c -3.20035,0 -5.79526,2.68817 -5.79526,6.00415 0,3.31591 2.59491,6.00416 5.79526,6.00416 3.20035,0 5.79526,-2.68825 5.79526,-6.00416 0,-3.31598 -2.59491,-6.00415 -5.79526,-6.00415 z m 0.027,0.83138 c 2.75758,0 4.99481,2.31615 4.99481,5.17277 0,2.85686 -2.23757,5.17269 -4.99481,5.17269 -1.48896,0 -2.82507,-0.67612 -3.73972,-1.74709 0.3761,-0.30244 1.0053,-0.22872 1.78021,-0.13725 0.37135,0.0446 0.79471,0.094 1.23164,0.10399 1.22074,0.008 2.53415,-0.22345 3.34481,-0.59051 0.52409,-0.23805 0.85962,-0.39493 1.06938,-0.59257 0.0756,-0.0646 0.11537,-0.17163 0.15585,-0.28312 l 0.027,-0.0752 c 0.0341,-0.0903 0.0827,-0.28357 0.10457,-0.38918 0.01,-0.0466 0.0141,-0.0959 -0.0173,-0.12161 l -0.11313,0.0224 c -0.35569,0.22104 -1.24437,0.64184 -2.0769,0.65892 -1.03164,0.0227 -3.11089,-1.07595 -3.32774,-1.19188 l -0.0216,-0.026 c -0.0517,-0.12861 -0.36315,-0.89397 -0.42905,-1.05498 1.49664,1.0211 2.7375,1.58624 3.68848,1.67414 1.05736,0.0972 1.88212,-0.50078 2.23486,-0.75636 0.0688,-0.0486 0.12144,-0.0873 0.14302,-0.0951 l 0.0234,-0.0395 c -0.0585,-0.38503 -0.61324,-2.24823 -1.03097,-2.69576 -0.11581,-0.12272 -0.20791,-0.2422 -0.3949,-0.35602 -1.51202,-0.91308 -5.10207,-1.46295 -5.27017,-1.4883 l -0.027,0.009 -0.0108,0.0242 c 0,0 -0.0132,0.77226 -0.0144,0.85799 -0.12326,-0.0429 -0.5052,-0.17179 -1.05234,-0.32725 0.7139,-0.91521 1.80793,-1.72718 3.72257,-1.72718 z m 1.31918,2.73785 c 0.0251,-3.2e-4 0.0506,-4.8e-4 0.0768,0 0.84704,0.032 1.51247,0.77067 1.48351,1.64757 -0.0145,0.42438 -0.18771,0.81624 -0.48669,1.10572 -0.29986,0.29125 -0.6896,0.44288 -1.10136,0.42899 -0.84558,-0.0329 -1.51105,-0.77166 -1.48352,-1.6475 0.014,-0.42468 0.18801,-0.81931 0.48879,-1.10786 0.28085,-0.27285 0.64027,-0.42094 1.02247,-0.42692 z m -0.0407,0.46899 c -0.24669,0.0153 -0.47949,0.11918 -0.66171,0.29633 -0.20769,0.20196 -0.33023,0.47552 -0.3394,0.7717 -0.0201,0.61219 0.44282,1.1273 1.0331,1.15001 0.28688,0.009 0.55899,-0.0949 0.76844,-0.29641 0.20888,-0.20289 0.33055,-0.47894 0.33937,-0.77386 0.0203,-0.6132 -0.44467,-1.12631 -1.03522,-1.14777 -0.0356,-10e-4 -0.0694,-10e-4 -0.10458,0 z m 0.28175,0.555 c 0.26231,0 0.47387,0.14765 0.47387,0.32941 0,0.18101 -0.21156,0.32959 -0.47387,0.32959 -0.26322,0 -0.47604,-0.14891 -0.47604,-0.32959 0,-0.18176 0.21282,-0.32941 0.47604,-0.32941 z"
       id="path2445"
       class="ColorScheme-Text"
       inkscape:connector-curvature="0" />
    <path
       class="st2"
       d="m 389.91788,530.10511 c 1.32196,-0.80681 2.91557,-1.01322 4.40052,-0.60047 1.48495,0.41276 2.8011,1.47587 3.56168,2.84551 0.76059,1.36965 0.92938,3.02068 0.53098,4.55916 -0.3984,1.53846 -1.37629,2.85177 -2.69826,3.63974 l -0.45894,-0.70675 c 1.15899,-0.69417 2.01025,-1.78851 2.35433,-3.13937 0.34407,-1.35088 0.22935,-2.77676 -0.45879,-3.97757 -0.67004,-1.20073 -1.72635,-2.03268 -3.03021,-2.3891 -1.28574,-0.37522 -2.68015,-0.23752 -3.83913,0.47542 z"
       id="path8-3"
       style="clip-rule:evenodd;fill:#1f222d;fill-opacity:1;fill-rule:evenodd;stroke-width:0.184327"
       sodipodi:nodetypes="cccsccscccc" />
  </g>
</svg>
