<?xml version="1.0" encoding="UTF-8" standalone="no"?>
<svg
   width="32"
   version="1.1"
   height="32"
   viewBox="0 0 32 32"
   id="svg15"
   sodipodi:docname="folder-extension.svg"
   inkscape:version="1.1.1 (3bf5ae0d25, 2021-09-20)"
   xmlns:inkscape="http://www.inkscape.org/namespaces/inkscape"
   xmlns:sodipodi="http://sodipodi.sourceforge.net/DTD/sodipodi-0.dtd"
   xmlns:xlink="http://www.w3.org/1999/xlink"
   xmlns="http://www.w3.org/2000/svg"
   xmlns:svg="http://www.w3.org/2000/svg"
   xmlns:rdf="http://www.w3.org/1999/02/22-rdf-syntax-ns#"
   xmlns:cc="http://creativecommons.org/ns#"
   xmlns:dc="http://purl.org/dc/elements/1.1/">
  <sodipodi:namedview
     pagecolor="#ffffff"
     bordercolor="#666666"
     borderopacity="1"
     objecttolerance="10"
     gridtolerance="10"
     guidetolerance="10"
     inkscape:pageopacity="0"
     inkscape:pageshadow="2"
     inkscape:window-width="1920"
     inkscape:window-height="1007"
     id="namedview17"
     showgrid="true"
     inkscape:zoom="6.9384853"
     inkscape:cx="-28.968859"
     inkscape:cy="28.464426"
     inkscape:window-x="0"
     inkscape:window-y="0"
     inkscape:window-maximized="1"
     inkscape:current-layer="layer1"
     inkscape:pagecheckerboard="0">
    <inkscape:grid
       type="xygrid"
       id="grid862" />
  </sodipodi:namedview>
  <defs
     id="defs5455">
    <linearGradient
       inkscape:collect="always"
       xlink:href="#linearGradient847"
       id="linearGradient858"
       x1="210.75999"
       y1="89.093002"
       x2="362.40799"
       y2="89.093002"
       gradientUnits="userSpaceOnUse"
       gradientTransform="matrix(0.05859377,0,0,0.06178774,385.57143,515.92951)" />
    <linearGradient
       inkscape:collect="always"
       id="linearGradient847">
      <stop
         style="stop-color:#7192c1;stop-opacity:1"
         offset="0"
         id="stop843" />
      <stop
         style="stop-color:#3b5a87;stop-opacity:1"
         offset="1"
         id="stop845" />
    </linearGradient>
    <linearGradient
       inkscape:collect="always"
       xlink:href="#linearGradient847"
       id="linearGradient859"
       x1="0"
       y1="256.82327"
       x2="512"
       y2="256.82327"
       gradientUnits="userSpaceOnUse"
       gradientTransform="matrix(0.05859377,0,0,0.06178774,385.57143,515.92951)" />
    <linearGradient
       inkscape:collect="always"
       xlink:href="#linearGradient847"
       id="linearGradient862"
       x1="476.689"
       y1="163.60085"
       x2="319.6994"
       y2="162.04736"
       gradientUnits="userSpaceOnUse"
       gradientTransform="matrix(0.05859377,0,0,0.06178774,385.57143,515.92951)" />
  </defs>
  <metadata
     id="metadata5458">
    <rdf:RDF>
      <cc:Work
         rdf:about="">
        <dc:format>image/svg+xml</dc:format>
        <dc:type
           rdf:resource="http://purl.org/dc/dcmitype/StillImage" />
      </cc:Work>
    </rdf:RDF>
  </metadata>
  <g
     inkscape:label="Capa 1"
     inkscape:groupmode="layer"
     id="layer1"
     transform="translate(-384.57143,-515.798)">
    <path
       style="fill:url(#linearGradient858);fill-opacity:1;stroke-width:0.0601699"
       d="m 401.36761,522.28316 c 0.48407,0.50457 1.13728,0.78749 1.81795,0.78749 h 1.00659 2.61413 c -0.68066,0 -1.33386,-0.28293 -1.81794,-0.78749 l -1.629,-1.69766 c -0.48422,-0.50458 -1.13735,-0.7875 -1.81792,-0.7875 h -3.62074 c 0.68057,0 1.33378,0.28292 1.81794,0.7875 z"
       id="path2" />
    <path
       style="fill:#3b5a87;fill-opacity:1;stroke-width:0.0601699"
       d="m 396.11781,520.5855 1.62908,1.69766 c 0.48407,0.50457 1.13726,0.78749 1.81792,0.78749 h 1.00662 2.61413 c -0.68067,0 -1.33388,-0.28293 -1.81795,-0.78749 l -1.62899,-1.69766 c -0.48422,-0.50458 -1.13737,-0.7875 -1.81794,-0.7875 h -3.55616 -0.0646 c 0.68066,0 1.33379,0.28298 1.81788,0.7875 z"
       id="path4" />
    <path
       style="fill:url(#linearGradient859);fill-opacity:1;stroke-width:0.0564455"
       d="m 414.01968,522.67802 h -6.20691 -1.00662 -2.61412 -1.00659 -2.61401 -1.00662 c -0.68066,0 -1.33385,-0.249 -1.81792,-0.69302 l -1.62908,-1.494 c -0.48415,-0.444 -1.13728,-0.693 -1.81793,-0.693 h -3.55604 -3.62066 c -0.85698,0 -1.55175,0.64472 -1.55175,1.44001 v 2.88001 0.48002 17.75995 c 0,0.79529 0.69477,1.44001 1.55175,1.44001 h 26.8965 c 0.85698,0 1.55175,-0.64472 1.55175,-1.44001 v -18.23997 c 0,-0.79533 -0.69477,-1.44 -1.55175,-1.44 z m -9.82759,2.87997 z m 9.31043,0.48 c 0,0.53015 -0.46314,0.95999 -1.03452,0.95999 h -7.24139 c -0.57138,0 -1.03452,-0.42984 -1.03452,-0.95999 v -0.48 c 0,-0.53016 0.46314,-0.96 1.03452,-0.96 h 7.24132 c 0.57139,0 1.03452,0.42984 1.03452,0.96 v 0.48 z"
       id="path6-36"
       sodipodi:nodetypes="scccccsccscssccssssssccccccccccssssssscc" />
    <path
       style="fill:url(#linearGradient862);fill-opacity:1;stroke-width:0.0601699"
       d="m 412.46793,524.43058 h -7.24132 c -0.57138,0 -1.04623,0.48844 -1.04623,1.09086 v 0.54549 c 0,0.60243 0.47485,1.09085 1.04623,1.09085 h 7.24132 c 0.57139,0 1.10944,-0.48858 1.12241,-1.09085 l 0.0117,-0.54549 c 6e-5,-0.60242 -0.56268,-1.09086 -1.13412,-1.09086 z"
       id="path8-7"
       sodipodi:nodetypes="ssssssscs" />
    <rect
       class="st0"
       height="9.9756107"
       width="9.6285849"
       x="387.51825"
       y="530.82147"
       id="rect4-5"
       style="fill:#f0f0f0;fill-opacity:1;stroke-width:0.168975" />
    <path
       class="st1"
       d="m 388.34833,530.30523 c -0.73045,0 -1.32808,0.61917 -1.32808,1.37592 v 8.25569 c 0,0.75683 0.59763,1.376 1.32808,1.376 h 7.30444 l 1.49409,-0.51598 v -7.05179 h -0.16601 c 0,2.09837 -1.27828,3.92146 -3.15419,4.85021 -0.58103,0.3956 -1.6269,0.65363 -2.82217,0.65363 -1.82611,0 -3.3202,-0.61916 -3.3202,-1.37599 v -6.19177 c 0,-0.37833 0.29881,-0.68792 0.66404,-0.68792 h 1.99212 v -0.688 z"
       id="path6-3"
       style="fill:#f0f0f0;fill-opacity:1;stroke-width:0.168975" />
    <path
       class="st2"
       d="m 389.67641,530.30523 h 6.6404 c 0.73044,0 1.32808,0.61917 1.32808,1.37592 v 8.25569 c 0,0.75683 -0.59764,1.376 -1.32808,1.376 h -1.32808 v -0.68801 h 1.32808 c 0.36522,0 0.66404,-0.30959 0.66404,-0.68799 v -8.25569 c 0,-0.37833 -0.29882,-0.68792 -0.66404,-0.68792 h -6.6404 z"
       id="path8-6"
       style="clip-rule:evenodd;fill:#263740;fill-opacity:1;fill-rule:evenodd;stroke-width:0.168975" />
    <path
       style="color:#232629;fill:#263740;fill-opacity:1;stroke:none;stroke-width:0.300406"
       d="m 389.88292,533.05106 v 0.61153 h -0.88543 v 4.89224 h 6.49282 v -4.89224 h -0.88532 v -0.61153 h -1.47567 v 0.61153 h -1.77085 v -0.61153 z m 0.29507,0.30586 h 0.88542 v 0.8175 h 2.36098 v -0.8175 h 0.88542 v 0.8175 h 0.68615 v 3.86851 h -5.50431 v -3.86851 h 0.68634 z"
       class="ColorScheme-Text"
       id="path12-3"
       sodipodi:nodetypes="cccccccccccccccccccccccccc" />
  </g>
</svg>
