<?xml version="1.0" encoding="UTF-8" standalone="no"?>
<svg
   width="32"
   version="1.1"
   height="32"
   viewBox="0 0 32 32"
   id="svg15"
   sodipodi:docname="folder-git.svg"
   inkscape:version="1.1.1 (3bf5ae0d25, 2021-09-20)"
   xmlns:inkscape="http://www.inkscape.org/namespaces/inkscape"
   xmlns:sodipodi="http://sodipodi.sourceforge.net/DTD/sodipodi-0.dtd"
   xmlns:xlink="http://www.w3.org/1999/xlink"
   xmlns="http://www.w3.org/2000/svg"
   xmlns:svg="http://www.w3.org/2000/svg"
   xmlns:rdf="http://www.w3.org/1999/02/22-rdf-syntax-ns#"
   xmlns:cc="http://creativecommons.org/ns#"
   xmlns:dc="http://purl.org/dc/elements/1.1/">
  <sodipodi:namedview
     pagecolor="#ffffff"
     bordercolor="#666666"
     borderopacity="1"
     objecttolerance="10"
     gridtolerance="10"
     guidetolerance="10"
     inkscape:pageopacity="0"
     inkscape:pageshadow="2"
     inkscape:window-width="1920"
     inkscape:window-height="1007"
     id="namedview17"
     showgrid="true"
     inkscape:zoom="9.8125"
     inkscape:cx="-9.477707"
     inkscape:cy="18.089172"
     inkscape:window-x="0"
     inkscape:window-y="0"
     inkscape:window-maximized="1"
     inkscape:current-layer="layer1"
     inkscape:pagecheckerboard="0">
    <inkscape:grid
       type="xygrid"
       id="grid862" />
  </sodipodi:namedview>
  <defs
     id="defs5455">
    <linearGradient
       inkscape:collect="always"
       id="linearGradient994">
      <stop
         style="stop-color:#263740;stop-opacity:1"
         offset="0"
         id="stop990" />
      <stop
         style="stop-color:#263740;stop-opacity:1"
         offset="0.22242592"
         id="stop1290" />
      <stop
         style="stop-color:#f0f0f0;stop-opacity:1"
         offset="0.27937472"
         id="stop1032" />
      <stop
         style="stop-color:#f0f0f0;stop-opacity:1"
         offset="1"
         id="stop992" />
    </linearGradient>
    <linearGradient
       inkscape:collect="always"
       xlink:href="#linearGradient847"
       id="linearGradient858"
       x1="210.75999"
       y1="89.093002"
       x2="362.40799"
       y2="89.093002"
       gradientUnits="userSpaceOnUse"
       gradientTransform="matrix(0.05859377,0,0,0.06178774,385.57143,515.92951)" />
    <linearGradient
       inkscape:collect="always"
       id="linearGradient847">
      <stop
         style="stop-color:#7192c1;stop-opacity:1"
         offset="0"
         id="stop843" />
      <stop
         style="stop-color:#3b5a87;stop-opacity:1"
         offset="1"
         id="stop845" />
    </linearGradient>
    <linearGradient
       inkscape:collect="always"
       xlink:href="#linearGradient847"
       id="linearGradient859"
       x1="0"
       y1="256.82327"
       x2="512"
       y2="256.82327"
       gradientUnits="userSpaceOnUse"
       gradientTransform="matrix(0.05859377,0,0,0.06178774,385.57143,515.92951)" />
    <linearGradient
       inkscape:collect="always"
       xlink:href="#linearGradient847"
       id="linearGradient862"
       x1="476.689"
       y1="163.60085"
       x2="319.6994"
       y2="162.04736"
       gradientUnits="userSpaceOnUse"
       gradientTransform="matrix(0.05859377,0,0,0.06178774,385.57143,515.92951)" />
    <linearGradient
       inkscape:collect="always"
       xlink:href="#linearGradient994"
       id="linearGradient996-3"
       x1="421.57034"
       y1="522.34802"
       x2="439.47134"
       y2="522.34802"
       gradientUnits="userSpaceOnUse"
       gradientTransform="matrix(0.48293843,0,0,0.50034415,183.42771,274.25509)" />
  </defs>
  <metadata
     id="metadata5458">
    <rdf:RDF>
      <cc:Work
         rdf:about="">
        <dc:format>image/svg+xml</dc:format>
        <dc:type
           rdf:resource="http://purl.org/dc/dcmitype/StillImage" />
      </cc:Work>
    </rdf:RDF>
  </metadata>
  <g
     inkscape:label="Capa 1"
     inkscape:groupmode="layer"
     id="layer1"
     transform="translate(-384.57143,-515.798)">
    <path
       style="fill:url(#linearGradient858);fill-opacity:1;stroke-width:0.0601699"
       d="m 401.36761,522.28316 c 0.48407,0.50456 1.13728,0.78749 1.81795,0.78749 h 1.00659 2.61413 c -0.68066,0 -1.33386,-0.28293 -1.81794,-0.78749 l -1.629,-1.69766 c -0.48422,-0.50458 -1.13735,-0.7875 -1.81792,-0.7875 h -3.62074 c 0.68057,0 1.33378,0.28292 1.81794,0.7875 z"
       id="path2" />
    <path
       style="fill:#3b5a87;fill-opacity:1;stroke-width:0.0601699"
       d="m 396.11781,520.5855 1.62908,1.69766 c 0.48407,0.50456 1.13726,0.78749 1.81792,0.78749 h 1.00662 2.61413 c -0.68067,0 -1.33388,-0.28293 -1.81795,-0.78749 l -1.62899,-1.69766 c -0.48422,-0.50458 -1.13737,-0.7875 -1.81794,-0.7875 h -3.55616 -0.0646 c 0.68066,0 1.33379,0.28298 1.81788,0.7875 z"
       id="path4" />
    <path
       style="fill:url(#linearGradient859);fill-opacity:1;stroke-width:0.0564455"
       d="m 414.01968,522.67802 h -6.20691 -1.00662 -2.61412 -1.00659 -2.61401 -1.00662 c -0.68066,0 -1.33385,-0.249 -1.81792,-0.69302 l -1.62908,-1.494 c -0.48415,-0.444 -1.13728,-0.693 -1.81793,-0.693 h -3.55604 -3.62066 c -0.85698,0 -1.55175,0.64472 -1.55175,1.44001 v 2.88001 0.48002 17.75995 c 0,0.79529 0.69477,1.44001 1.55175,1.44001 h 26.8965 c 0.85698,0 1.55175,-0.64472 1.55175,-1.44001 v -18.23997 c 0,-0.79534 -0.69477,-1.44 -1.55175,-1.44 z m -9.82759,2.87996 z m 9.31043,0.48001 c 0,0.53015 -0.46314,0.95999 -1.03452,0.95999 h -7.24139 c -0.57138,0 -1.03452,-0.42984 -1.03452,-0.95999 v -0.48001 c 0,-0.53015 0.46314,-0.95999 1.03452,-0.95999 h 7.24132 c 0.57139,0 1.03452,0.42984 1.03452,0.95999 v 0.48001 z"
       id="path6"
       sodipodi:nodetypes="scccccsccscssccssssssccccccccccssssssscc" />
    <path
       style="fill:url(#linearGradient862);fill-opacity:1;stroke-width:0.0601699"
       d="m 412.46793,524.43058 h -7.24132 c -0.57138,0 -1.04623,0.48844 -1.04623,1.09086 v 0.54548 c 0,0.60243 0.47485,1.09086 1.04623,1.09086 h 7.24132 c 0.57139,0 1.10944,-0.48858 1.12241,-1.09086 l 0.0117,-0.54548 c 6e-5,-0.60242 -0.56268,-1.09086 -1.13412,-1.09086 z"
       id="path8"
       sodipodi:nodetypes="ssssssscs" />
    <path
       style="color:#232629;fill:url(#linearGradient996-3);fill-opacity:1;stroke:none;stroke-width:0.528123"
       d="m 388.10142,529.92999 a 1.080562,1.0325284 0 0 0 -1.08056,1.03251 1.080562,1.0325284 0 0 0 0.54028,0.8777 v 7.48582 a 1.080562,1.0325284 0 0 0 -0.54028,0.92924 1.080562,1.0325284 0 0 0 1.08056,1.03252 1.080562,1.0325284 0 0 0 1.08056,-1.03252 1.080562,1.0325284 0 0 0 -0.54027,-0.87768 v -7.52197 a 1.080562,1.0325284 0 0 0 0.54027,-0.89311 1.080562,1.0325284 0 0 0 -1.08056,-1.03251 m 1.08056,1.03251 1.62082,1.0842 v -0.56793 h 2.16112 c 0.59864,0 1.08056,0.46468 1.08056,1.03252 v 6.85086 a 1.080562,1.0325284 0 0 0 -0.54028,0.89311 1.080562,1.0325284 0 0 0 1.08056,1.03252 1.080562,1.0325284 0 0 0 1.08057,-1.03252 1.080562,1.0325284 0 0 0 -0.54029,-0.87768 v -7.38256 c 0,-0.87769 -0.75639,-1.53173 -1.62084,-1.54876 h -2.7014 v -0.51627 z m -1.08056,-0.51624 a 0.54028099,0.51626434 0 0 1 0.54029,0.51624 0.54028099,0.51626434 0 0 1 -0.54029,0.51627 0.54028099,0.51626434 0 0 1 -0.54028,-0.51627 0.54028099,0.51626434 0 0 1 0.54028,-0.51624 m 0,9.29273 a 0.54028099,0.51626434 0 0 1 0.54029,0.51627 0.54028099,0.51626434 0 0 1 -0.54029,0.51625 0.54028099,0.51626434 0 0 1 -0.54028,-0.51625 0.54028099,0.51626434 0 0 1 0.54028,-0.51627 m 6.48334,0 a 0.54028099,0.51626434 0 0 1 0.54028,0.51627 0.54028099,0.51626434 0 0 1 -0.54028,0.51625 0.54028099,0.51626434 0 0 1 -0.54028,-0.51625 0.54028099,0.51626434 0 0 1 0.54028,-0.51627"
       class="ColorScheme-Text"
       id="path12-5" />
  </g>
</svg>
