<?xml version="1.0" encoding="UTF-8" standalone="no"?>
<svg
   width="32"
   version="1.1"
   height="32"
   viewBox="0 0 32 32"
   id="svg17"
   sodipodi:docname="folder-tar.svg"
   inkscape:version="1.1.1 (3bf5ae0d25, 2021-09-20)"
   xmlns:inkscape="http://www.inkscape.org/namespaces/inkscape"
   xmlns:sodipodi="http://sodipodi.sourceforge.net/DTD/sodipodi-0.dtd"
   xmlns:xlink="http://www.w3.org/1999/xlink"
   xmlns="http://www.w3.org/2000/svg"
   xmlns:svg="http://www.w3.org/2000/svg"
   xmlns:rdf="http://www.w3.org/1999/02/22-rdf-syntax-ns#"
   xmlns:cc="http://creativecommons.org/ns#"
   xmlns:dc="http://purl.org/dc/elements/1.1/">
  <sodipodi:namedview
     pagecolor="#ffffff"
     bordercolor="#666666"
     borderopacity="1"
     objecttolerance="10"
     gridtolerance="10"
     guidetolerance="10"
     inkscape:pageopacity="0"
     inkscape:pageshadow="2"
     inkscape:window-width="1920"
     inkscape:window-height="1007"
     id="namedview19"
     showgrid="true"
     inkscape:zoom="5.6568545"
     inkscape:cx="-31.819804"
     inkscape:cy="-3.093592"
     inkscape:window-x="0"
     inkscape:window-y="0"
     inkscape:window-maximized="1"
     inkscape:current-layer="layer1"
     inkscape:pagecheckerboard="0">
    <inkscape:grid
       type="xygrid"
       id="grid841" />
  </sodipodi:namedview>
  <defs
     id="defs5455">
    <linearGradient
       inkscape:collect="always"
       xlink:href="#linearGradient847"
       id="linearGradient858"
       x1="210.75999"
       y1="89.093002"
       x2="362.40799"
       y2="89.093002"
       gradientUnits="userSpaceOnUse"
       gradientTransform="matrix(0.05859377,0,0,0.06178774,385.57143,515.9295)" />
    <linearGradient
       inkscape:collect="always"
       id="linearGradient847">
      <stop
         style="stop-color:#7192c1;stop-opacity:1"
         offset="0"
         id="stop843" />
      <stop
         style="stop-color:#3b5a87;stop-opacity:1"
         offset="1"
         id="stop845" />
    </linearGradient>
    <linearGradient
       inkscape:collect="always"
       xlink:href="#linearGradient847"
       id="linearGradient859"
       x1="0"
       y1="256.82327"
       x2="512"
       y2="256.82327"
       gradientUnits="userSpaceOnUse"
       gradientTransform="matrix(0.05859377,0,0,0.06178774,385.57143,515.9295)" />
    <linearGradient
       inkscape:collect="always"
       xlink:href="#linearGradient847"
       id="linearGradient862"
       x1="476.689"
       y1="163.60085"
       x2="319.6994"
       y2="162.04736"
       gradientUnits="userSpaceOnUse"
       gradientTransform="matrix(0.05859377,0,0,0.06178774,385.57143,515.9295)" />
  </defs>
  <metadata
     id="metadata5458">
    <rdf:RDF>
      <cc:Work
         rdf:about="">
        <dc:format>image/svg+xml</dc:format>
        <dc:type
           rdf:resource="http://purl.org/dc/dcmitype/StillImage" />
      </cc:Work>
    </rdf:RDF>
  </metadata>
  <g
     inkscape:label="Capa 1"
     inkscape:groupmode="layer"
     id="layer1"
     transform="translate(-384.57143,-515.798)">
    <path
       style="fill:url(#linearGradient858);fill-opacity:1;stroke-width:0.0601699"
       d="m 401.36761,522.28316 c 0.48407,0.50456 1.13728,0.78749 1.81795,0.78749 h 1.00659 2.61413 c -0.68066,0 -1.33386,-0.28293 -1.81794,-0.78749 l -1.629,-1.69766 c -0.48422,-0.50458 -1.13735,-0.7875 -1.81792,-0.7875 h -3.62074 c 0.68057,0 1.33378,0.28292 1.81794,0.7875 z"
       id="path2" />
    <path
       style="fill:#3b5a87;fill-opacity:1;stroke-width:0.0601699"
       d="m 396.11781,520.5855 1.62908,1.69766 c 0.48407,0.50456 1.13726,0.78749 1.81792,0.78749 h 1.00662 2.61413 c -0.68067,0 -1.33388,-0.28293 -1.81795,-0.78749 l -1.62899,-1.69766 c -0.48422,-0.50458 -1.13737,-0.7875 -1.81794,-0.7875 h -3.55616 -0.0646 c 0.68066,0 1.33379,0.28298 1.81788,0.7875 z"
       id="path4" />
    <path
       style="fill:url(#linearGradient859);fill-opacity:1;stroke-width:0.0564455"
       d="m 414.01968,522.67802 h -6.20691 -1.00662 -2.61412 -1.00659 -2.61401 -1.00662 c -0.68066,0 -1.33385,-0.249 -1.81792,-0.69302 l -1.62908,-1.494 c -0.48415,-0.444 -1.13728,-0.693 -1.81793,-0.693 h -3.55604 -3.62066 c -0.85698,0 -1.55175,0.64472 -1.55175,1.44001 v 2.88001 0.48002 17.75995 c 0,0.79529 0.69477,1.44001 1.55175,1.44001 h 26.8965 c 0.85698,0 1.55175,-0.64472 1.55175,-1.44001 v -18.23997 c 0,-0.79534 -0.69477,-1.44 -1.55175,-1.44 z m -9.82759,2.87996 z m 9.31043,0.48001 c 0,0.53015 -0.46314,0.95999 -1.03452,0.95999 h -7.24139 c -0.57138,0 -1.03452,-0.42984 -1.03452,-0.95999 v -0.48001 c 0,-0.53015 0.46314,-0.95999 1.03452,-0.95999 h 7.24132 c 0.57139,0 1.03452,0.42984 1.03452,0.95999 v 0.48001 z"
       id="path6"
       sodipodi:nodetypes="scccccsccscssccssssssccccccccccssssssscc" />
    <path
       style="fill:url(#linearGradient862);fill-opacity:1;stroke-width:0.0601699"
       d="m 412.46793,524.43058 h -7.24132 c -0.57138,0 -1.04623,0.48844 -1.04623,1.09086 v 0.54548 c 0,0.60243 0.47485,1.09086 1.04623,1.09086 h 7.24132 c 0.57139,0 1.10944,-0.48858 1.12241,-1.09086 l 0.0117,-0.54548 c 6e-5,-0.60242 -0.56268,-1.09086 -1.13412,-1.09086 z"
       id="path8"
       sodipodi:nodetypes="ssssssscs" />
    <path
       id="Book-7-3"
       class="st0"
       d="m 393.53991,533.05715 z m -5.79526,-1.50108 c -0.39842,0 -0.7244,-0.33775 -0.7244,-0.75053 v 9.75675 h 6.88187 c 0.99606,0 1.81102,-0.84433 1.81102,-1.87629 v -8.63092 h -0.72441 v 1.50099 z"
       sodipodi:nodetypes="cccccsccsscccs"
       style="clip-rule:evenodd;fill:#f0f0f0;fill-opacity:1;fill-rule:evenodd;stroke-width:0.184338" />
    <path
       id="Book-s-5-6"
       class="st1"
       d="m 388.46906,530.05508 c -0.39842,0 -0.72441,0.33767 -0.72441,0.75046 0,0.41278 0.32599,0.75053 0.72441,0.75053 h -0.72441 c -0.39842,0 -0.7244,-0.33775 -0.7244,-0.75053 0,-0.8255 0.65196,-1.50101 1.44881,-1.50101 h 7.24408 v 0.75055 z m 6.51967,1.50099 v 7.50515 c 0,0.82557 -0.65197,1.50107 -1.44882,1.50107 h -5.79526 v 0.75055 h 5.79526 c 1.19528,0 2.17323,-1.01327 2.17323,-2.25162 v -7.50515 z"
       style="fill:#263740;fill-opacity:1;stroke-width:0.184338" />
    <g
       id="g10-3-3-7"
       transform="matrix(0.29073104,0,0,0.26141689,387.86044,532.70685)"
       style="fill:#263740;fill-opacity:1">
      <path
         d="M 2.56,0.383 C 1.928,-0.162 0.956,-0.107 0.391,0.504 -0.174,1.117 -0.119,2.057 0.512,2.606 0.574,2.66 5.356,6.906 7.918,14.217 8.792,13.709 9.809,13.41 10.894,13.395 8.116,5.279 2.846,0.629 2.56,0.383 Z"
         id="path2-3-6-5-5"
         style="fill:#263740;fill-opacity:1" />
      <path
         d="m 21.585,0.504 c -0.563,-0.611 -1.539,-0.67 -2.173,-0.121 -0.286,0.246 -5.555,4.896 -8.332,13.012 1.085,0.016 2.1,0.316 2.973,0.822 C 16.615,6.906 21.399,2.66 21.46,2.605 22.093,2.059 22.15,1.119 21.585,0.504 Z"
         id="path4-7-6-3"
         style="fill:#263740;fill-opacity:1" />
      <path
         d="m 10.399,17.904 h 1.175 c 1.336,0 2.445,1.225 2.584,2.51 l 0.637,5.732 C 15.48,25.91 16,25.41 16,24.664 V 19.182 C 16,16.532 13.74,14.381 10.998,14.381 8.262,14.381 6,16.531 6,19.182 v 5.482 c 0,0.746 0.508,1.375 1.194,1.613 l 0.613,-5.863 c 0.142,-1.285 1.258,-2.51 2.592,-2.51 z"
         id="path6-5-2-5"
         style="fill:#263740;fill-opacity:1" />
      <path
         d="m 13.805,26.908 -0.668,-6.391 c -0.082,-0.773 -0.758,-1.613 -1.563,-1.613 h -1.175 c -0.805,0 -1.479,0.84 -1.563,1.613 l -0.668,6.266 c -0.084,0.771 0.175,1.606 0.711,2.183 0.538,0.578 1.302,0.94 2.104,0.94 0.808,0 1.567,-0.314 2.106,-0.893 0.541,-0.575 0.799,-1.333 0.716,-2.105 z m -2.821,1.262 c -0.974,0 -1.764,-0.766 -1.764,-1.709 0,-0.943 0.79,-1.707 1.764,-1.707 0.977,0 1.766,0.764 1.766,1.707 0,0.943 -0.789,1.709 -1.766,1.709 z"
         id="path8-3-9-6"
         style="fill:#263740;fill-opacity:1" />
    </g>
  </g>
</svg>
