<?xml version="1.0" encoding="UTF-8" standalone="no"?>
<svg
   width="32"
   version="1.1"
   height="32"
   viewBox="0 0 32 32"
   id="svg17"
   sodipodi:docname="folder-script.svg"
   inkscape:version="1.1.1 (3bf5ae0d25, 2021-09-20)"
   xmlns:inkscape="http://www.inkscape.org/namespaces/inkscape"
   xmlns:sodipodi="http://sodipodi.sourceforge.net/DTD/sodipodi-0.dtd"
   xmlns:xlink="http://www.w3.org/1999/xlink"
   xmlns="http://www.w3.org/2000/svg"
   xmlns:svg="http://www.w3.org/2000/svg"
   xmlns:rdf="http://www.w3.org/1999/02/22-rdf-syntax-ns#"
   xmlns:cc="http://creativecommons.org/ns#"
   xmlns:dc="http://purl.org/dc/elements/1.1/">
  <sodipodi:namedview
     pagecolor="#ffffff"
     bordercolor="#666666"
     borderopacity="1"
     objecttolerance="10"
     gridtolerance="10"
     guidetolerance="10"
     inkscape:pageopacity="0"
     inkscape:pageshadow="2"
     inkscape:window-width="1920"
     inkscape:window-height="1007"
     id="namedview19"
     showgrid="false"
     inkscape:zoom="8.9988849"
     inkscape:cx="-17.002107"
     inkscape:cy="2.9448093"
     inkscape:window-x="0"
     inkscape:window-y="0"
     inkscape:window-maximized="1"
     inkscape:current-layer="layer1"
     inkscape:pagecheckerboard="0" />
  <defs
     id="defs5455">
    <linearGradient
       inkscape:collect="always"
       xlink:href="#linearGradient847"
       id="linearGradient858"
       x1="210.75999"
       y1="89.093002"
       x2="362.40799"
       y2="89.093002"
       gradientUnits="userSpaceOnUse"
       gradientTransform="matrix(0.05859377,0,0,0.06178774,385.57143,515.92951)" />
    <linearGradient
       inkscape:collect="always"
       id="linearGradient847">
      <stop
         style="stop-color:#7192c1;stop-opacity:1"
         offset="0"
         id="stop843" />
      <stop
         style="stop-color:#3b5a87;stop-opacity:1"
         offset="1"
         id="stop845" />
    </linearGradient>
    <linearGradient
       inkscape:collect="always"
       xlink:href="#linearGradient847"
       id="linearGradient859"
       x1="0"
       y1="256.82327"
       x2="512"
       y2="256.82327"
       gradientUnits="userSpaceOnUse"
       gradientTransform="matrix(0.05859377,0,0,0.06178774,385.57143,515.92951)" />
    <linearGradient
       inkscape:collect="always"
       xlink:href="#linearGradient847"
       id="linearGradient862"
       x1="476.689"
       y1="163.60085"
       x2="319.6994"
       y2="162.04736"
       gradientUnits="userSpaceOnUse"
       gradientTransform="matrix(0.05859377,0,0,0.06178774,385.57143,515.92951)" />
  </defs>
  <metadata
     id="metadata5458">
    <rdf:RDF>
      <cc:Work
         rdf:about="">
        <dc:format>image/svg+xml</dc:format>
        <dc:type
           rdf:resource="http://purl.org/dc/dcmitype/StillImage" />
      </cc:Work>
    </rdf:RDF>
  </metadata>
  <g
     inkscape:label="Capa 1"
     inkscape:groupmode="layer"
     id="layer1"
     transform="translate(-384.57143,-515.798)">
    <path
       style="fill:url(#linearGradient858);fill-opacity:1;stroke-width:0.0601699"
       d="m 401.36761,522.28316 c 0.48407,0.50457 1.13728,0.78749 1.81795,0.78749 h 1.00659 2.61413 c -0.68066,0 -1.33386,-0.28293 -1.81794,-0.78749 l -1.629,-1.69766 c -0.48422,-0.50458 -1.13735,-0.7875 -1.81792,-0.7875 h -3.62074 c 0.68057,0 1.33378,0.28292 1.81794,0.7875 z"
       id="path2" />
    <path
       style="fill:#3b5a87;fill-opacity:1;stroke-width:0.0601699"
       d="m 396.11781,520.5855 1.62908,1.69766 c 0.48407,0.50457 1.13726,0.78749 1.81792,0.78749 h 1.00662 2.61413 c -0.68067,0 -1.33388,-0.28293 -1.81795,-0.78749 l -1.62899,-1.69766 c -0.48422,-0.50458 -1.13737,-0.7875 -1.81794,-0.7875 h -3.55616 -0.0646 c 0.68066,0 1.33379,0.28298 1.81788,0.7875 z"
       id="path4" />
    <path
       style="fill:url(#linearGradient859);fill-opacity:1;stroke-width:0.0564455"
       d="m 414.01968,522.67802 h -6.20691 -1.00662 -2.61412 -1.00659 -2.61401 -1.00662 c -0.68066,0 -1.33385,-0.249 -1.81792,-0.69302 l -1.62908,-1.494 c -0.48415,-0.444 -1.13728,-0.693 -1.81793,-0.693 h -3.55604 -3.62066 c -0.85698,0 -1.55175,0.64472 -1.55175,1.44001 v 2.88001 0.48002 17.75995 c 0,0.79529 0.69477,1.44001 1.55175,1.44001 h 26.8965 c 0.85698,0 1.55175,-0.64472 1.55175,-1.44001 v -18.23997 c 0,-0.79533 -0.69477,-1.44 -1.55175,-1.44 z m -9.82759,2.87997 z m 9.31043,0.48 c 0,0.53016 -0.46314,0.95999 -1.03452,0.95999 h -7.24139 c -0.57138,0 -1.03452,-0.42983 -1.03452,-0.95999 v -0.48 c 0,-0.53016 0.46314,-0.96 1.03452,-0.96 h 7.24132 c 0.57139,0 1.03452,0.42984 1.03452,0.96 v 0.48 z"
       id="path6"
       sodipodi:nodetypes="scccccsccscssccssssssccccccccccssssssscc" />
    <path
       style="fill:url(#linearGradient862);fill-opacity:1;stroke-width:0.0601699"
       d="m 412.46793,524.43059 h -7.24132 c -0.57138,0 -1.04623,0.48843 -1.04623,1.09085 v 0.54549 c 0,0.60243 0.47485,1.09085 1.04623,1.09085 h 7.24132 c 0.57139,0 1.10944,-0.48858 1.12241,-1.09085 l 0.0117,-0.54549 c 6e-5,-0.60242 -0.56268,-1.09085 -1.13412,-1.09085 z"
       id="path8"
       sodipodi:nodetypes="ssssssscs" />
    <path
       id="Read-7-3"
       class="st0"
       d="m 389.38706,536.69423 h 1.57804 v 0.92373 h -1.57804 z m 2.76137,-1.84745 h -2.76137 v 0.92373 h 2.76137 z m 2.36698,1.84745 h 1.57788 v 0.92373 h -1.57788 z m 2.7613,-1.84745 h -2.7613 v 0.92373 h 2.7613 z m -2.7613,-1.84735 h 2.7613 v 0.92363 h -2.7613 z m -2.36698,0 h -2.76137 v 0.92363 h 2.76137 z m 2.36698,-1.84745 h 2.7613 v 0.92373 h -2.7613 z m -5.12835,0 h 2.76137 v 0.92373 h -2.76137 z m -1.57788,-1.84745 h 4.24062 c 0.53265,0 1.0257,0.34637 1.28212,0.92373 0.23664,-0.57736 0.72979,-0.92373 1.28204,-0.92373 h 4.2407 v 9.23715 c 0,0.50806 -0.35506,0.92371 -0.78894,0.92371 h -3.45176 c -0.53259,0 -1.02561,0.34638 -1.28204,0.92373 -0.23676,-0.57735 -0.72979,-0.92373 -1.28212,-0.92373 h -4.24062 z"
       style="clip-rule:evenodd;fill:#f0f0f0;fill-opacity:1;fill-rule:evenodd;stroke-width:0.213418" />
    <path
       id="Read-s-5-6"
       class="st1"
       d="m 387.02025,539.46539 v -9.23713 h 0.78893 v 9.23713 z m 11.83441,-9.23713 v 8.31342 c 0,0.50807 -0.35506,0.92371 -0.78894,0.92371 h -3.55031 c -0.49318,0 -0.92706,0.32325 -1.144,0.83132 l -0.0396,0.0926 -0.0396,-0.0926 c -0.21693,-0.50807 -0.65081,-0.83132 -1.14399,-0.83132 h -3.5503 v 0.92373 h 3.55031 c 0,0.508 0.35506,0.92372 0.78903,0.92372 h 0.789 c 0.43388,0 0.78894,-0.41573 0.78894,-0.92372 h 3.55031 c 0.86776,0 1.57788,-0.83139 1.57788,-1.84744 v -8.31342 z"
       style="fill:#263740;fill-opacity:1;stroke-width:0.213418" />
  </g>
</svg>
