<?xml version="1.0" encoding="UTF-8" standalone="no"?>
<svg
   width="32"
   version="1.1"
   height="32"
   viewBox="0 0 32 32"
   id="svg15"
   sodipodi:docname="folder-appimage.svg"
   inkscape:version="1.1.1 (3bf5ae0d25, 2021-09-20)"
   xmlns:inkscape="http://www.inkscape.org/namespaces/inkscape"
   xmlns:sodipodi="http://sodipodi.sourceforge.net/DTD/sodipodi-0.dtd"
   xmlns:xlink="http://www.w3.org/1999/xlink"
   xmlns="http://www.w3.org/2000/svg"
   xmlns:svg="http://www.w3.org/2000/svg"
   xmlns:rdf="http://www.w3.org/1999/02/22-rdf-syntax-ns#"
   xmlns:cc="http://creativecommons.org/ns#"
   xmlns:dc="http://purl.org/dc/elements/1.1/">
  <sodipodi:namedview
     pagecolor="#ffffff"
     bordercolor="#666666"
     borderopacity="1"
     objecttolerance="10"
     gridtolerance="10"
     guidetolerance="10"
     inkscape:pageopacity="0"
     inkscape:pageshadow="2"
     inkscape:window-width="1920"
     inkscape:window-height="1007"
     id="namedview17"
     showgrid="true"
     inkscape:zoom="9.8125"
     inkscape:cx="-1.8343949"
     inkscape:cy="18.089172"
     inkscape:window-x="0"
     inkscape:window-y="0"
     inkscape:window-maximized="1"
     inkscape:current-layer="g4"
     inkscape:pagecheckerboard="0">
    <inkscape:grid
       type="xygrid"
       id="grid862" />
  </sodipodi:namedview>
  <defs
     id="defs5455">
    <linearGradient
       inkscape:collect="always"
       xlink:href="#linearGradient847"
       id="linearGradient858"
       x1="210.75999"
       y1="89.093002"
       x2="362.40799"
       y2="89.093002"
       gradientUnits="userSpaceOnUse"
       gradientTransform="matrix(0.1626979,0,0,0.16635286,71.507633,981.74963)" />
    <linearGradient
       inkscape:collect="always"
       id="linearGradient847">
      <stop
         style="stop-color:#7192c1;stop-opacity:1"
         offset="0"
         id="stop843" />
      <stop
         style="stop-color:#3b5a87;stop-opacity:1"
         offset="1"
         id="stop845" />
    </linearGradient>
    <linearGradient
       inkscape:collect="always"
       xlink:href="#linearGradient847"
       id="linearGradient859"
       x1="0"
       y1="256.82327"
       x2="512"
       y2="256.82327"
       gradientUnits="userSpaceOnUse"
       gradientTransform="matrix(0.1626979,0,0,0.16635286,71.507633,981.74963)" />
    <linearGradient
       inkscape:collect="always"
       xlink:href="#linearGradient847"
       id="linearGradient862"
       x1="476.689"
       y1="163.60085"
       x2="319.6994"
       y2="162.04736"
       gradientUnits="userSpaceOnUse"
       gradientTransform="matrix(0.1626979,0,0,0.16635286,71.507633,981.74963)" />
    <linearGradient
       inkscape:collect="always"
       xlink:href="#linearGradient994-6"
       id="linearGradient996-3"
       x1="431.57144"
       y1="509.798"
       x2="431.57144"
       y2="533.79797"
       gradientUnits="userSpaceOnUse"
       gradientTransform="matrix(1.3409798,0,0,1.3470908,-494.17696,330.96699)" />
    <linearGradient
       inkscape:collect="always"
       id="linearGradient994-6">
      <stop
         style="stop-color:#263740;stop-opacity:1"
         offset="0"
         id="stop990-7" />
      <stop
         style="stop-color:#263740;stop-opacity:1"
         offset="0.37289742"
         id="stop1224-5" />
      <stop
         style="stop-color:#f0f0f0;stop-opacity:1"
         offset="0.45780349"
         id="stop1290-3" />
      <stop
         style="stop-color:#f0f0f0;stop-opacity:1"
         offset="1"
         id="stop992-5" />
    </linearGradient>
  </defs>
  <metadata
     id="metadata5458">
    <rdf:RDF>
      <cc:Work
         rdf:about="">
        <dc:format>image/svg+xml</dc:format>
        <dc:type
           rdf:resource="http://purl.org/dc/dcmitype/StillImage" />
      </cc:Work>
    </rdf:RDF>
  </metadata>
  <g
     inkscape:label="Capa 1"
     inkscape:groupmode="layer"
     id="layer1"
     transform="translate(-384.57143,-515.798)">
    <g
       transform="matrix(0.36013848,0,0,0.37142583,359.81878,151.2823)"
       id="g4">
      <path
         style="fill:url(#linearGradient858);fill-opacity:1;stroke-width:0.164516"
         d="m 115.36904,998.85595 c 1.34412,1.35835 3.1579,2.11995 5.04791,2.11995 h 2.79501 7.25869 c -1.89001,0 -3.70373,-0.7616 -5.04791,-2.11995 l -4.52324,-4.57077 c -1.34454,-1.35854 -3.15809,-2.1202 -5.04784,-2.1202 h -10.05375 c 1.88975,0 3.70353,0.76166 5.0479,2.1202 z"
         id="path2" />
      <path
         style="fill:#3b5a87;fill-opacity:1;stroke-width:0.164516"
         d="m 100.79187,994.28518 4.52348,4.57077 c 1.34411,1.35835 3.15784,2.11995 5.04784,2.11995 h 2.79509 7.25867 c -1.89001,0 -3.70379,-0.7616 -5.04791,-2.11995 l -4.52323,-4.57077 c -1.34453,-1.35854 -3.15815,-2.1202 -5.0479,-2.1202 H 95.923496 95.74414 c 1.890003,0 3.703541,0.76183 5.04773,2.1202 z"
         id="path4" />
      <path
         style="fill:url(#linearGradient859);fill-opacity:1;stroke-width:0.154331"
         d="m 150.50017,999.91893 h -17.23479 -2.79509 -7.25866 -2.79502 -7.25833 -2.79509 c -1.89,0 -3.70373,-0.67032 -5.04784,-1.86577 l -4.52348,-4.02244 c -1.344349,-1.19546 -3.157901,-1.86574 -5.047878,-1.86574 h -9.87409 -10.053514 c -2.379569,0 -4.308756,1.73572 -4.308756,3.87698 v 7.75374 1.2924 47.8155 c 0,2.1412 1.929187,3.877 4.308756,3.877 h 74.683782 c 2.37956,0 4.30875,-1.7358 4.30875,-3.877 v -49.1079 c 0,-2.1414 -1.92919,-3.87677 -4.30875,-3.87677 z m -27.28838,7.75357 z m 25.85236,1.2924 c 0,1.4273 -1.286,2.5846 -2.87257,2.5846 h -20.10721 c -1.58657,0 -2.87258,-1.1573 -2.87258,-2.5846 v -1.2924 c 0,-1.4273 1.28601,-2.5846 2.87258,-2.5846 h 20.10704 c 1.58658,0 2.87257,1.1573 2.87257,2.5846 v 1.2924 z"
         id="path6"
         sodipodi:nodetypes="scccccsccscssccssssssccccccccccssssssscc" />
      <path
         style="fill:url(#linearGradient862);fill-opacity:1;stroke-width:0.164516"
         d="m 146.19141,1004.6373 h -20.10704 c -1.58657,0 -2.90509,1.3149 -2.90509,2.9368 v 1.4687 c 0,1.622 1.31852,2.9369 2.90509,2.9369 h 20.10704 c 1.58658,0 3.08058,-1.3153 3.11661,-2.9369 l 0.0325,-1.4687 c 1.6e-4,-1.6219 -1.56239,-2.9368 -3.14911,-2.9368 z"
         id="path8"
         sodipodi:nodetypes="ssssssscs" />
      <path
         style="color:#232629;fill:url(#linearGradient996-3);fill-opacity:1;stroke:none;stroke-width:1.46634"
         d="m 81.382072,1017.7595 v 5.8782 h -2.92575 l 5.851499,6.4178 5.8515,-6.4178 h -2.92575 v -5.8782 z m 1.463009,14.6954 v 1.6188 c -0.915889,0.1896 -1.786065,0.5548 -2.565978,1.0735 l -1.142851,-1.1482 -2.068408,2.0785 1.142851,1.1479 c -0.514936,0.783 -0.875607,1.6575 -1.063076,2.5774 h -1.617048 v 2.939 h 1.611536 c 0.188542,0.9201 0.552043,1.7943 1.068588,2.5777 l -1.142851,1.1479 2.068408,2.078 1.142851,-1.1482 c 0.779913,0.5173 1.650089,0.8797 2.565978,1.0679 v 1.6245 h 2.92575 v -1.6187 c 0.91562,-0.1895 1.786064,-0.5546 2.565709,-1.0737 l 1.142851,1.1482 2.068675,-2.078 -1.14285,-1.1479 c 0.514937,-0.7834 0.875607,-1.6576 1.062807,-2.5777 h 1.617316 v -2.939 h -1.611536 c -0.18881,-0.9199 -0.55231,-1.7944 -1.068587,-2.5774 l 1.14285,-1.1479 -2.068675,-2.0785 -1.142851,1.1482 c -0.779645,-0.5173 -1.650089,-0.8796 -2.565709,-1.0676 v -1.6247 z m 1.46274,4.4088 c 2.423754,0 4.388759,1.974 4.388759,4.4088 0,2.4345 -1.965005,4.4085 -4.388759,4.4085 -2.423753,0 -4.38849,-1.974 -4.38849,-4.4085 0,-2.4348 1.964737,-4.4088 4.38849,-4.4088 z"
         class="ColorScheme-Text"
         id="path12-6" />
    </g>
  </g>
</svg>
