<?xml version="1.0" encoding="UTF-8" standalone="no"?>
<svg
   width="32"
   version="1.1"
   height="32"
   viewBox="0 0 32 32"
   id="svg15"
   sodipodi:docname="folder-mac.svg"
   inkscape:version="1.1.1 (3bf5ae0d25, 2021-09-20)"
   xmlns:inkscape="http://www.inkscape.org/namespaces/inkscape"
   xmlns:sodipodi="http://sodipodi.sourceforge.net/DTD/sodipodi-0.dtd"
   xmlns:xlink="http://www.w3.org/1999/xlink"
   xmlns="http://www.w3.org/2000/svg"
   xmlns:svg="http://www.w3.org/2000/svg"
   xmlns:rdf="http://www.w3.org/1999/02/22-rdf-syntax-ns#"
   xmlns:cc="http://creativecommons.org/ns#"
   xmlns:dc="http://purl.org/dc/elements/1.1/">
  <sodipodi:namedview
     pagecolor="#ffffff"
     bordercolor="#666666"
     borderopacity="1"
     objecttolerance="10"
     gridtolerance="10"
     guidetolerance="10"
     inkscape:pageopacity="0"
     inkscape:pageshadow="2"
     inkscape:window-width="1920"
     inkscape:window-height="1007"
     id="namedview17"
     showgrid="true"
     inkscape:zoom="9.8125"
     inkscape:cx="-9.477707"
     inkscape:cy="-6.3694268"
     inkscape:window-x="0"
     inkscape:window-y="0"
     inkscape:window-maximized="1"
     inkscape:current-layer="layer1"
     inkscape:pagecheckerboard="0">
    <inkscape:grid
       type="xygrid"
       id="grid862" />
  </sodipodi:namedview>
  <defs
     id="defs5455">
    <linearGradient
       inkscape:collect="always"
       id="linearGradient1581">
      <stop
         style="stop-color:#263740;stop-opacity:1"
         offset="0"
         id="stop1577" />
      <stop
         style="stop-color:#263740;stop-opacity:1"
         offset="0.25000015"
         id="stop1898" />
      <stop
         style="stop-color:#ffffff;stop-opacity:1"
         offset="0.25000015"
         id="stop2412" />
      <stop
         style="stop-color:#f0f0f0;stop-opacity:1"
         offset="1"
         id="stop1579" />
    </linearGradient>
    <linearGradient
       inkscape:collect="always"
       xlink:href="#linearGradient847"
       id="linearGradient858"
       x1="210.75999"
       y1="89.093002"
       x2="362.40799"
       y2="89.093002"
       gradientUnits="userSpaceOnUse"
       gradientTransform="matrix(0.05859377,0,0,0.06178774,385.57143,515.9295)" />
    <linearGradient
       inkscape:collect="always"
       id="linearGradient847">
      <stop
         style="stop-color:#7192c1;stop-opacity:1"
         offset="0"
         id="stop843" />
      <stop
         style="stop-color:#3b5a87;stop-opacity:1"
         offset="1"
         id="stop845" />
    </linearGradient>
    <linearGradient
       inkscape:collect="always"
       xlink:href="#linearGradient847"
       id="linearGradient859"
       x1="0"
       y1="256.82327"
       x2="512"
       y2="256.82327"
       gradientUnits="userSpaceOnUse"
       gradientTransform="matrix(0.05859377,0,0,0.06178774,385.57143,515.9295)" />
    <linearGradient
       inkscape:collect="always"
       xlink:href="#linearGradient847"
       id="linearGradient862"
       x1="476.689"
       y1="163.60085"
       x2="319.6994"
       y2="162.04736"
       gradientUnits="userSpaceOnUse"
       gradientTransform="matrix(0.05859377,0,0,0.06178774,385.57143,515.9295)" />
    <linearGradient
       inkscape:collect="always"
       xlink:href="#linearGradient1581"
       id="linearGradient1583-3"
       x1="429.57144"
       y1="509.798"
       x2="429.57144"
       y2="533.79797"
       gradientUnits="userSpaceOnUse"
       gradientTransform="matrix(0.48293843,0,0,0.50034415,184.79778,274.20507)" />
  </defs>
  <metadata
     id="metadata5458">
    <rdf:RDF>
      <cc:Work
         rdf:about="">
        <dc:format>image/svg+xml</dc:format>
        <dc:type
           rdf:resource="http://purl.org/dc/dcmitype/StillImage" />
      </cc:Work>
    </rdf:RDF>
  </metadata>
  <g
     inkscape:label="Capa 1"
     inkscape:groupmode="layer"
     id="layer1"
     transform="translate(-384.57143,-515.798)">
    <path
       style="fill:url(#linearGradient858);fill-opacity:1;stroke-width:0.0601699"
       d="m 401.36761,522.28316 c 0.48407,0.50456 1.13728,0.78749 1.81795,0.78749 h 1.00659 2.61413 c -0.68066,0 -1.33386,-0.28293 -1.81794,-0.78749 l -1.629,-1.69766 c -0.48422,-0.50458 -1.13735,-0.7875 -1.81792,-0.7875 h -3.62074 c 0.68057,0 1.33378,0.28292 1.81794,0.7875 z"
       id="path2" />
    <path
       style="fill:#3b5a87;fill-opacity:1;stroke-width:0.0601699"
       d="m 396.11781,520.5855 1.62908,1.69766 c 0.48407,0.50456 1.13726,0.78749 1.81792,0.78749 h 1.00662 2.61413 c -0.68067,0 -1.33388,-0.28293 -1.81795,-0.78749 l -1.62899,-1.69766 c -0.48422,-0.50458 -1.13737,-0.7875 -1.81794,-0.7875 h -3.55616 -0.0646 c 0.68066,0 1.33379,0.28298 1.81788,0.7875 z"
       id="path4" />
    <path
       style="fill:url(#linearGradient859);fill-opacity:1;stroke-width:0.0564455"
       d="m 414.01968,522.67802 h -6.20691 -1.00662 -2.61412 -1.00659 -2.61401 -1.00662 c -0.68066,0 -1.33385,-0.249 -1.81792,-0.69302 l -1.62908,-1.494 c -0.48415,-0.444 -1.13728,-0.693 -1.81793,-0.693 h -3.55604 -3.62066 c -0.85698,0 -1.55175,0.64472 -1.55175,1.44001 v 2.88001 0.48002 17.75995 c 0,0.79529 0.69477,1.44001 1.55175,1.44001 h 26.8965 c 0.85698,0 1.55175,-0.64472 1.55175,-1.44001 v -18.23997 c 0,-0.79534 -0.69477,-1.44 -1.55175,-1.44 z m -9.82759,2.87996 z m 9.31043,0.48001 c 0,0.53015 -0.46314,0.95999 -1.03452,0.95999 h -7.24139 c -0.57138,0 -1.03452,-0.42984 -1.03452,-0.95999 v -0.48001 c 0,-0.53015 0.46314,-0.95999 1.03452,-0.95999 h 7.24132 c 0.57139,0 1.03452,0.42984 1.03452,0.95999 v 0.48001 z"
       id="path6-5"
       sodipodi:nodetypes="scccccsccscssccssssssccccccccccssssssscc" />
    <path
       style="fill:url(#linearGradient862);fill-opacity:1;stroke-width:0.0601699"
       d="m 412.46793,524.43058 h -7.24132 c -0.57138,0 -1.04623,0.48844 -1.04623,1.09086 v 0.54548 c 0,0.60243 0.47485,1.09086 1.04623,1.09086 h 7.24132 c 0.57139,0 1.10944,-0.48858 1.12241,-1.09086 l 0.0117,-0.54548 c 6e-5,-0.60242 -0.56268,-1.09086 -1.13412,-1.09086 z"
       id="path8"
       sodipodi:nodetypes="ssssssscs" />
    <polygon
       class="st0"
       points="5,36 12,19.5 54,19.5 48,49 10,49 "
       id="polygon4-6"
       transform="matrix(0.18110191,0,0,0.18762908,386.29584,529.30453)"
       style="fill:#fcfcfc;fill-opacity:1" />
    <path
       class="st1"
       d="m 396.25644,532.86946 c -0.68818,-0.48782 -1.41259,-0.56285 -1.70236,-0.56285 -0.56141,0 -1.01417,0.18761 -1.41259,0.33775 -0.32598,0.11259 -0.59764,0.2251 -0.86929,0.2251 -0.27165,0 -0.52519,-0.11251 -0.81496,-0.24388 -0.3622,-0.15013 -0.76063,-0.31897 -1.2496,-0.31897 -0.57953,0 -3.18739,0.28142 -3.18739,3.64003 0,2.68311 2.15511,5.3662 3.15117,5.3662 0.39842,0 0.74252,-0.11258 1.08661,-0.24395 0.34409,-0.11258 0.68819,-0.24395 1.08661,-0.24395 0.39843,0 0.74252,0.11259 1.08661,0.24395 0.3441,0.13137 0.68819,0.24395 1.08661,0.24395 0.61575,0 1.66614,-1.05074 2.37244,-2.51426 0.0543,-0.13136 0.12677,-0.26273 0.1811,-0.39401 0.0362,-0.094 0.0724,-0.18761 0.10866,-0.3002 -0.95984,-0.41278 -1.44881,-1.33215 -1.44881,-2.43923 0,-0.6942 0.16299,-1.31339 0.5433,-1.8012 0.14488,-0.18762 0.32599,-0.35653 0.54331,-0.48781 -0.1811,-0.1877 -0.38032,-0.37531 -0.56142,-0.50667 z m -1.26771,2.81447 c 0,1.03195 -0.97795,1.91384 -2.40866,2.34533 -0.48897,0.16892 -1.17716,0.2815 -1.93779,0.2815 -1.28582,0 -2.37243,-0.3002 -2.60786,-0.69429 -0.18111,-0.54406 -0.28977,-1.10699 -0.28977,-1.66983 0,-1.44475 0.54331,-2.10147 1.05039,-2.45801 0.56142,-0.37522 1.19528,-0.43148 1.43071,-0.43148 0.28976,0 0.5433,0.094 0.86929,0.22509 0.0362,0.019 0.0543,0.019 0.0906,0.0378 0.25354,0.11258 0.67008,0.30019 1.08661,0.30019 0.25354,0 0.48898,-0.0559 0.68819,-0.13133 0.14488,-0.0376 0.28976,-0.11252 0.43464,-0.16886 0.0362,-0.019 0.0906,-0.0378 0.12677,-0.0378 0.3441,-0.13128 0.67008,-0.24387 1.03228,-0.24387 0.19922,0 0.68819,0.0559 1.15906,0.33776 -0.5252,0.67543 -0.72441,1.501 -0.72441,2.3078 z m -2.89763,-3.75254 c 0,-1.44476 1.12283,-2.60808 2.51732,-2.62686 0.0181,0.13137 0.0181,0.24395 0.0181,0.37523 0,1.44475 -1.12284,2.60807 -2.51732,2.62685 -0.0181,-0.13136 -0.0181,-0.24395 -0.0181,-0.37522 z"
       id="path6-3"
       style="clip-rule:evenodd;fill:url(#linearGradient1583-3);fill-opacity:1;fill-rule:evenodd;stroke-width:0.184338" />
  </g>
</svg>
