<?xml version="1.0" encoding="UTF-8" standalone="no"?>
<svg
   width="32"
   version="1.1"
   height="32"
   viewBox="0 0 32 32"
   id="svg15"
   sodipodi:docname="folder-deb.svg"
   inkscape:version="1.1.1 (3bf5ae0d25, 2021-09-20)"
   xmlns:inkscape="http://www.inkscape.org/namespaces/inkscape"
   xmlns:sodipodi="http://sodipodi.sourceforge.net/DTD/sodipodi-0.dtd"
   xmlns:xlink="http://www.w3.org/1999/xlink"
   xmlns="http://www.w3.org/2000/svg"
   xmlns:svg="http://www.w3.org/2000/svg"
   xmlns:rdf="http://www.w3.org/1999/02/22-rdf-syntax-ns#"
   xmlns:cc="http://creativecommons.org/ns#"
   xmlns:dc="http://purl.org/dc/elements/1.1/">
  <sodipodi:namedview
     pagecolor="#ffffff"
     bordercolor="#666666"
     borderopacity="1"
     objecttolerance="10"
     gridtolerance="10"
     guidetolerance="10"
     inkscape:pageopacity="0"
     inkscape:pageshadow="2"
     inkscape:window-width="1920"
     inkscape:window-height="1007"
     id="namedview17"
     showgrid="false"
     inkscape:zoom="9.8125"
     inkscape:cx="-12.127389"
     inkscape:cy="3.5159236"
     inkscape:window-x="0"
     inkscape:window-y="0"
     inkscape:window-maximized="1"
     inkscape:current-layer="layer1"
     inkscape:pagecheckerboard="0" />
  <defs
     id="defs5455">
    <linearGradient
       id="linearGradient4194">
      <stop
         style="stop-color:#b5006a"
         id="stop4196" />
      <stop
         offset="1"
         style="stop-color:#c70073"
         id="stop4198" />
    </linearGradient>
    <linearGradient
       inkscape:collect="always"
       xlink:href="#linearGradient847"
       id="linearGradient858"
       x1="210.75999"
       y1="89.093002"
       x2="362.40799"
       y2="89.093002"
       gradientUnits="userSpaceOnUse"
       gradientTransform="matrix(0.05859377,0,0,0.06178774,385.57143,515.92951)" />
    <linearGradient
       inkscape:collect="always"
       id="linearGradient847">
      <stop
         style="stop-color:#7192c1;stop-opacity:1"
         offset="0"
         id="stop843" />
      <stop
         style="stop-color:#3b5a87;stop-opacity:1"
         offset="1"
         id="stop845" />
    </linearGradient>
    <linearGradient
       inkscape:collect="always"
       xlink:href="#linearGradient847"
       id="linearGradient859"
       x1="0"
       y1="256.82327"
       x2="512"
       y2="256.82327"
       gradientUnits="userSpaceOnUse"
       gradientTransform="matrix(0.05859377,0,0,0.06178774,385.57143,515.92951)" />
    <linearGradient
       inkscape:collect="always"
       xlink:href="#linearGradient847"
       id="linearGradient862"
       x1="476.689"
       y1="163.60085"
       x2="319.6994"
       y2="162.04736"
       gradientUnits="userSpaceOnUse"
       gradientTransform="matrix(0.05859377,0,0,0.06178774,385.57143,515.92951)" />
  </defs>
  <metadata
     id="metadata5458">
    <rdf:RDF>
      <cc:Work
         rdf:about="">
        <dc:format>image/svg+xml</dc:format>
        <dc:type
           rdf:resource="http://purl.org/dc/dcmitype/StillImage" />
      </cc:Work>
    </rdf:RDF>
  </metadata>
  <g
     inkscape:label="Capa 1"
     inkscape:groupmode="layer"
     id="layer1"
     transform="translate(-384.57143,-515.798)">
    <path
       style="fill:url(#linearGradient858);fill-opacity:1;stroke-width:0.0601699"
       d="m 401.36761,522.28316 c 0.48407,0.50456 1.13728,0.78749 1.81795,0.78749 h 1.00659 2.61413 c -0.68066,0 -1.33386,-0.28293 -1.81794,-0.78749 l -1.629,-1.69766 c -0.48422,-0.50458 -1.13735,-0.7875 -1.81792,-0.7875 h -3.62074 c 0.68057,0 1.33378,0.28292 1.81794,0.7875 z"
       id="path2" />
    <path
       style="fill:#3b5a87;fill-opacity:1;stroke-width:0.0601699"
       d="m 396.11781,520.5855 1.62908,1.69766 c 0.48407,0.50456 1.13726,0.78749 1.81792,0.78749 h 1.00662 2.61413 c -0.68067,0 -1.33388,-0.28293 -1.81795,-0.78749 l -1.62899,-1.69766 c -0.48422,-0.50458 -1.13737,-0.7875 -1.81794,-0.7875 h -3.55616 -0.0646 c 0.68066,0 1.33379,0.28298 1.81788,0.7875 z"
       id="path4" />
    <path
       style="fill:url(#linearGradient859);fill-opacity:1;stroke-width:0.0564455"
       d="m 414.01968,522.67802 h -6.20691 -1.00662 -2.61412 -1.00659 -2.61401 -1.00662 c -0.68066,0 -1.33385,-0.249 -1.81792,-0.69302 l -1.62908,-1.494 c -0.48415,-0.444 -1.13728,-0.693 -1.81793,-0.693 h -3.55604 -3.62066 c -0.85698,0 -1.55175,0.64472 -1.55175,1.44001 v 2.88001 0.48002 17.75995 c 0,0.79529 0.69477,1.44001 1.55175,1.44001 h 26.8965 c 0.85698,0 1.55175,-0.64472 1.55175,-1.44001 v -18.23997 c 0,-0.79534 -0.69477,-1.44 -1.55175,-1.44 z m -9.82759,2.87996 z m 9.31043,0.48001 c 0,0.53015 -0.46314,0.95999 -1.03452,0.95999 h -7.24139 c -0.57138,0 -1.03452,-0.42984 -1.03452,-0.95999 v -0.48001 c 0,-0.53015 0.46314,-0.95999 1.03452,-0.95999 h 7.24132 c 0.57139,0 1.03452,0.42984 1.03452,0.95999 v 0.48001 z"
       id="path6"
       sodipodi:nodetypes="scccccsccscssccssssssccccccccccssssssscc" />
    <path
       style="fill:url(#linearGradient862);fill-opacity:1;stroke-width:0.0601699"
       d="m 412.46793,524.43058 h -7.24132 c -0.57138,0 -1.04623,0.48844 -1.04623,1.09086 v 0.54548 c 0,0.60243 0.47485,1.09086 1.04623,1.09086 h 7.24132 c 0.57139,0 1.10944,-0.48858 1.12241,-1.09086 l 0.0117,-0.54548 c 6e-5,-0.60242 -0.56268,-1.09086 -1.13412,-1.09086 z"
       id="path8"
       sodipodi:nodetypes="ssssssscs" />
    <path
       style="color:#232629;fill:#ff0000;fill-opacity:0.6;stroke:none;stroke-width:0.491564"
       d="m 392.0911,541.2628 c -0.57953,-0.1 -1.40052,-0.45035 -1.88346,-0.77553 -1.11076,-0.75054 -1.83779,-1.5854 -2.28713,-2.62735 -0.14488,-0.35025 -0.23085,-0.6004 -0.48294,-1.50108 -0.0483,-0.22508 -0.13021,-0.47745 -0.16044,-0.55602 -0.051,-0.13268 -0.0532,-0.17737 -0.031,-0.61977 0.0211,-0.40021 0.0966,-1.00061 0.14488,-1.04872 0.007,-0.0113 0.024,-0.0148 0.0374,-0.006 0.0454,0.0277 0.0874,-0.10101 0.12862,-0.39561 0.0226,-0.16129 0.0581,-0.33049 0.0789,-0.37596 0.0208,-0.0456 0.056,-0.14568 0.0783,-0.22281 0.0512,-0.17756 0.12112,-0.31405 0.33713,-0.65852 0.095,-0.15147 0.19375,-0.3165 0.21944,-0.36669 0.0302,-0.0585 0.0633,-0.0883 0.0936,-0.0816 0.0292,0.006 0.0774,-0.0322 0.12794,-0.10142 0.21963,-0.3003 1.25404,-1.18632 1.34976,-1.15615 0.0261,0.008 0.13528,-0.0288 0.24256,-0.0825 0.19405,-0.0971 0.27956,-0.11965 0.27956,-0.0734 0,0.0137 -0.0281,0.0437 -0.0623,0.0673 -0.0602,0.0417 -0.0589,0.0424 0.0346,0.0198 0.0533,-0.0132 0.14313,-0.0308 0.19957,-0.0409 0.0697,-0.0113 0.0981,-0.0289 0.0885,-0.0537 -0.008,-0.0219 0.0116,-0.0437 0.0497,-0.0535 0.0954,-0.0253 0.24396,-0.0213 0.24396,0.007 0,0.0333 -0.085,0.0678 -0.15236,0.0609 -0.046,-0.004 -0.0483,-5e-4 -0.0139,0.0229 0.0343,0.0234 0.0347,0.0282 0.002,0.0286 -0.0216,2.2e-4 -0.0321,0.007 -0.0235,0.0164 0.009,0.008 0.0664,-0.0102 0.12836,-0.0417 0.0619,-0.0311 0.17531,-0.0705 0.25199,-0.0872 0.0944,-0.0202 0.13943,-0.0437 0.13943,-0.0723 0,-0.0374 0.0438,-0.0405 0.33934,-0.0244 0.18664,0.01 0.46828,0.0394 0.62586,0.0649 0.28651,0.0466 0.28654,0.0466 0.39331,-0.015 0.12806,-0.0732 0.33405,-0.0825 0.38818,-0.0181 0.0198,0.0237 0.0743,0.0631 0.12113,0.0873 0.0764,0.0396 0.0814,0.0397 0.0491,5e-4 -0.0613,-0.0734 -4.2e-4,-0.0716 0.23634,0.007 0.76332,0.25419 1.3856,0.7069 1.84736,1.34386 0.1095,0.15107 0.11613,0.21909 0.0124,0.12708 l -0.0594,-0.0525 0.0453,0.0885 c 0.0249,0.0485 0.0454,0.10297 0.0454,0.12112 0,0.0183 0.0734,0.15195 0.16312,0.29744 0.20219,0.32787 0.25876,0.43834 0.24519,0.47881 -0.006,0.0177 -0.0954,-0.098 -0.19906,-0.25663 -0.10367,-0.1585 -0.25707,-0.37206 -0.3409,-0.47457 -0.12519,-0.15304 -0.15797,-0.17923 -0.18352,-0.14655 -0.0171,0.022 -0.0589,0.044 -0.0928,0.0487 l -0.0617,0.009 0.0611,0.11903 c 0.0336,0.0657 0.0655,0.10574 0.071,0.0898 0.0292,-0.0873 0.16489,0.0272 0.22662,0.19084 0.02,0.0529 0.0732,0.1622 0.11826,0.24262 0.045,0.0801 0.0762,0.15184 0.0693,0.15875 -0.007,0.007 -0.048,-0.0155 -0.0912,-0.049 l -0.0786,-0.0618 0.0536,0.0917 c 0.0295,0.0503 0.0789,0.11196 0.10975,0.13686 0.0385,0.0308 0.0569,0.0799 0.0586,0.15664 0.003,0.141 0.0844,0.30765 0.1286,0.26366 0.0688,-0.0686 0.083,-0.0256 0.0657,0.19848 -0.0128,0.16515 -0.006,0.27396 0.0243,0.38948 0.046,0.17545 0.0361,0.21875 -0.0312,0.13672 -0.0427,-0.052 -0.0432,-0.052 -0.024,0.002 0.041,0.11599 0.0717,0.28953 0.0632,0.35761 -0.0159,0.12709 -0.0639,0.0742 -0.0804,-0.0889 l -0.0161,-0.15888 -0.005,0.16908 c -0.002,0.0932 -0.0245,0.27273 -0.0488,0.3994 -0.0245,0.1279 -0.037,0.28293 -0.028,0.34873 0.0169,0.12384 0.005,0.12864 -0.0992,0.0402 -0.0423,-0.0362 -0.0497,-0.0286 -0.0788,0.0784 -0.0245,0.0907 -0.0243,0.14187 9.7e-4,0.21755 0.0181,0.0543 0.0286,0.12857 0.0234,0.16444 -0.0121,0.0825 -0.0788,0.10858 -0.0788,0.0303 0,-0.0981 -0.0376,-0.0635 -0.15235,0.14173 -0.30999,0.55346 -0.80048,0.98183 -1.35562,1.18385 -0.32728,0.11906 -0.5468,0.16327 -0.91588,0.18429 l -0.33242,0.0192 0.16424,0.0503 c 0.13244,0.0409 0.21021,0.0467 0.40167,0.031 0.25083,-0.0204 0.54534,-0.0742 0.67888,-0.12476 0.0533,-0.0203 0.0893,-0.0211 0.10771,-0.003 0.0434,0.0434 -0.34236,0.21298 -0.57136,0.25144 -0.38967,0.0657 -0.91127,-0.005 -1.37171,-0.18607 -0.3124,-0.12263 -0.77598,-0.44201 -0.70494,-0.48565 0.0135,-0.008 0.10166,0.0331 0.19599,0.0929 0.12059,0.0757 0.17152,0.0957 0.17152,0.0674 0,-0.0538 0.0178,-0.0513 0.11364,0.0168 0.0865,0.0609 0.35262,0.175 0.54427,0.23263 0.20892,0.0631 0.12792,-0.0137 -0.15236,-0.14326 -0.88617,-0.41075 -1.25406,-0.82159 -1.4374,-1.60529 -0.0672,-0.28738 0.005,-0.91733 0.12742,-1.11462 0.0311,-0.0499 0.0565,-0.11152 0.0565,-0.13663 0,-0.1092 0.18306,-0.39757 0.3709,-0.58434 0.33099,-0.32909 0.67512,-0.46571 1.12184,-0.44535 0.21595,0.01 0.30818,0.0285 0.4879,0.0997 0.20385,0.0804 0.46053,0.24968 0.38192,0.25144 -0.0185,3.9e-4 -0.0995,-0.0264 -0.18006,-0.06 -0.12244,-0.0507 -0.20095,-0.0608 -0.47887,-0.0623 -0.39026,-9.9e-4 -0.581,0.0534 -0.85874,0.24782 -0.39376,0.27548 -0.61272,0.59275 -0.69027,1.00024 -0.052,0.27343 -0.0536,0.34922 -0.013,0.62042 0.0234,0.15627 0.04,0.20213 0.0693,0.19095 0.0246,-0.009 0.0385,0.004 0.0385,0.0383 0,0.0968 0.21197,0.48977 0.35898,0.66538 0.35383,0.4228 0.92619,0.69261 1.46927,0.69261 0.28187,0 0.50972,-0.0536 0.71946,-0.16988 0.0842,-0.0467 0.19053,-0.10359 0.23624,-0.12664 0.16126,-0.0809 0.26131,-0.17407 0.37829,-0.35099 0.065,-0.0982 0.13572,-0.17876 0.15709,-0.17876 0.0316,0 0.0302,0.0146 -0.007,0.0756 -0.12365,0.20293 0.16654,-0.166 0.31681,-0.40276 l 0.16831,-0.26512 -0.0183,-0.17422 c -0.0176,-0.16732 -0.0151,-0.1776 0.0655,-0.26165 0.0776,-0.0806 0.0845,-0.10486 0.0935,-0.32133 0.008,-0.19362 0.002,-0.23386 -0.0319,-0.23407 -0.032,-1.8e-4 -0.0457,-0.0511 -0.0594,-0.22061 -0.0182,-0.22415 -0.20181,-0.97861 -0.24456,-1.00488 -0.0129,-0.008 -0.0487,-0.0802 -0.0795,-0.1612 -0.10412,-0.27241 -0.28675,-0.53445 -0.5715,-0.81988 -0.40974,-0.41067 -0.92587,-0.72777 -1.41341,-0.86833 -0.4147,-0.11963 -1.11892,-0.0761 -1.62052,0.0997 -0.24481,0.0864 -0.48601,0.19973 -0.52671,0.24856 -0.0185,0.0221 -0.0453,0.0327 -0.0595,0.0243 -0.015,-0.009 -0.0109,-0.0335 0.01,-0.0587 0.0924,-0.1107 -0.21423,0.0921 -0.41164,0.27206 -0.11934,0.10884 -0.22134,0.20127 -0.22665,0.20527 -0.005,0.004 0.0179,1.8e-4 0.0516,-0.008 0.0561,-0.0149 0.0585,-0.0104 0.0281,0.0459 -0.0195,0.0363 -0.12106,0.1012 -0.24553,0.15754 -0.20915,0.0943 -0.34442,0.19794 -0.45189,0.34629 -0.0429,0.0591 -0.0454,0.072 -0.0115,0.0589 0.0238,-0.009 0.0433,-0.003 0.0433,0.0128 0,0.0784 -0.0719,0.16644 -0.17835,0.21793 -0.2359,0.11391 -0.65031,0.72262 -0.87229,1.28118 -0.0989,0.24891 -0.0974,0.24031 -0.0436,0.24031 0.0567,0 0.0527,0.0643 -0.0251,0.40785 -0.11343,0.50091 -0.11357,0.48493 0.01,1.18958 0.15052,0.85864 0.23845,1.14544 0.40565,1.32316 0.0392,0.0419 0.0773,0.1304 0.0943,0.21948 0.0203,0.10636 0.0544,0.17657 0.11812,0.24339 0.0581,0.0612 0.0775,0.0982 0.0552,0.10642 -0.0438,0.0162 0.0933,0.21918 0.21847,0.3239 0.063,0.0525 0.10961,0.0704 0.16014,0.0604 0.11076,-0.0211 0.22353,0.0426 0.39682,0.22319 0.18008,0.18786 0.19812,0.23836 0.079,0.221 -0.0769,-0.0111 -0.0786,-0.009 -0.0408,0.0483 0.0218,0.0327 0.10201,0.11239 0.17835,0.17641 0.10722,0.0902 0.13483,0.12873 0.12137,0.17094 -0.0194,0.0605 0.0358,0.1172 0.16074,0.16462 0.0774,0.0292 0.10239,0.0931 0.0441,0.11225 -0.0176,0.006 0.0914,0.11748 0.24238,0.24809 0.17007,0.14711 0.28447,0.22772 0.30077,0.212 0.0431,-0.0418 0.0983,-0.0287 0.0993,0.0228 9.7e-4,0.0561 0.05,0.11572 0.22586,0.27371 0.11115,0.0997 0.13889,0.11245 0.20702,0.0938 0.0624,-0.0173 0.10162,-0.006 0.18948,0.0528 0.17529,0.11783 0.28158,0.16483 0.37259,0.16483 0.0896,0 0.1023,0.0255 0.0558,0.11199 -0.0246,0.0458 -0.0194,0.0531 0.0372,0.0531 0.0362,0 0.13835,0.0247 0.22692,0.0548 0.20138,0.069 0.28538,0.0735 0.23491,0.0131 -0.0746,-0.0895 0.004,-0.0651 0.27089,0.0836 0.37222,0.20758 0.56051,0.2313 1.30171,0.1639 0.10974,-0.0104 0.14543,-0.004 0.14543,0.0237 0,0.0239 -0.0952,0.0601 -0.27009,0.10177 -0.22987,0.0551 -0.35257,0.0662 -0.82411,0.0719 -0.37157,0.004 -0.62537,-0.005 -0.77068,-0.0303 z m -0.37892,-4.12893 c 0,-0.006 -0.0343,-0.0311 -0.0762,-0.0565 l -0.0762,-0.0462 0.0654,0.0564 c 0.0638,0.055 0.087,0.0678 0.087,0.0462 z m 3.81399,-2.88647 c -0.009,-0.022 -0.0154,-0.0158 -0.0168,0.017 -10e-4,0.0288 0.005,0.0454 0.0145,0.0364 0.009,-0.009 0.0102,-0.0326 0.002,-0.0527 z m -6.2863,-2.88867 c 0.0345,-0.0439 0.0335,-0.0448 -0.0105,-0.01 -0.0266,0.0209 -0.0485,0.0427 -0.0485,0.0482 0,0.0227 0.0227,0.008 0.0589,-0.0382 z m 0.31503,-0.25475 c 0.0276,-0.0301 0.0439,-0.0548 0.0363,-0.0548 -0.008,0 -0.0364,0.0247 -0.064,0.0548 -0.0276,0.0301 -0.0439,0.0548 -0.0363,0.0548 0.008,0 0.0364,-0.0247 0.064,-0.0548 z m 0.3487,-0.19364 c 0.0913,-0.0305 0.1432,-0.0364 0.16245,-0.0172 0.0193,0.0194 0.0907,0.008 0.2237,-0.0355 0.10748,-0.0347 0.19047,-0.0687 0.18443,-0.0745 -0.006,-0.006 -0.0945,0.017 -0.19664,0.0506 -0.14025,0.0467 -0.19072,0.0533 -0.20636,0.0281 -0.0264,-0.0427 -0.2785,0.0416 -0.38684,0.12868 l -0.074,0.0595 0.0796,-0.0475 c 0.0437,-0.026 0.13993,-0.068 0.21373,-0.0927 z m 0.79861,-0.07 c 0.0804,-0.0237 0.14147,-0.048 0.13561,-0.0536 -0.0129,-0.0133 -0.29952,0.0688 -0.29952,0.0855 0,0.017 0.002,0.0165 0.16391,-0.0312 z m 0.45937,-0.15018 0.11081,-0.0202 -0.097,-0.002 c -0.0533,-10e-4 -0.12812,0.0169 -0.16621,0.0401 -0.0448,0.0272 -0.0497,0.0349 -0.0139,0.0226 0.0305,-0.0104 0.10527,-0.0285 0.16621,-0.0401 z m 0.22001,-0.0519 c 0.009,-0.014 -0.009,-0.0186 -0.0399,-0.0104 -0.0647,0.0171 -0.0729,0.0355 -0.0155,0.0355 0.022,0 0.0469,-0.011 0.0554,-0.0249 z m 0.89439,0.008 c -0.009,-0.009 -0.0331,-0.01 -0.0531,-0.002 -0.0221,0.009 -0.0156,0.0157 0.0168,0.017 0.0292,9.7e-4 0.0455,-0.005 0.0364,-0.0149 z m -0.16563,-0.0296 c -0.0267,-0.007 -0.0703,-0.007 -0.097,0 -0.0266,0.007 -0.005,0.0127 0.0485,0.0127 0.0533,0 0.0751,-0.005 0.0485,-0.0127 z m -0.27628,-0.0284 c -0.0567,-0.006 -0.15646,-0.006 -0.22161,-1.8e-4 -0.0652,0.006 -0.0187,0.0104 0.10314,0.0104 0.12189,9e-5 0.1752,-0.004 0.11847,-0.0102 z m -0.36143,-0.0241 c -0.009,-0.009 -0.0331,-0.01 -0.0531,-0.002 -0.0221,0.009 -0.0155,0.0156 0.0168,0.017 0.0292,9.7e-4 0.0455,-0.005 0.0364,-0.0148 z m -0.18751,6.62 c -0.28216,-0.20103 -0.38671,-0.30497 -0.38671,-0.38458 0,-0.0425 0.01,-0.0766 0.0213,-0.0766 0.0399,0 0.51166,0.48957 0.50134,0.52034 -0.006,0.0181 -0.0629,-0.007 -0.13599,-0.0588 z m -0.14519,-0.51035 c -0.14655,-0.14728 -0.1935,-0.22647 -0.13427,-0.22647 0.0356,0 0.30826,0.31047 0.30826,0.35091 0,0.0192 -0.003,0.0345 -0.008,0.0345 -0.004,0 -0.0791,-0.0716 -0.16621,-0.15912 z m 1.62139,-0.60277 c -0.0774,-0.0307 -0.0291,-0.0889 0.097,-0.11543 0.0724,-0.0158 0.18737,-0.0528 0.25556,-0.083 0.0682,-0.0301 0.12891,-0.0503 0.13493,-0.0445 0.006,0.006 -0.0249,0.0674 -0.0686,0.13606 -0.079,0.12441 -0.0805,0.12513 -0.23189,0.123 -0.0838,-9.5e-4 -0.16794,-0.008 -0.18698,-0.0164 z m 0.83104,-0.61605 c -0.0748,-0.0296 -0.0779,-0.0804 -0.0155,-0.25394 0.0536,-0.14873 0.10924,-0.17807 0.0783,-0.0416 -0.0112,0.0492 -0.026,0.12048 -0.033,0.15837 l -0.0128,0.069 0.0554,-0.063 c 0.0327,-0.0368 0.0631,-0.12417 0.0743,-0.21316 0.0104,-0.0824 0.0299,-0.14365 0.0435,-0.13534 0.0343,0.0212 0.0306,0.2388 -0.006,0.3852 -0.0324,0.12794 -0.0615,0.14281 -0.18369,0.094 z m -6.55532,-0.34568 c -0.009,-0.0239 -0.0168,-0.11796 -0.0168,-0.20886 0,-0.11995 0.01,-0.1622 0.0346,-0.15396 0.0411,0.0137 0.0653,0.40637 0.025,0.40637 -0.0143,0 -0.0335,-0.0197 -0.0428,-0.0438 z m 6.66414,-0.64427 c -0.043,-0.0575 -0.0563,-0.10359 -0.0441,-0.15192 0.0251,-0.0992 0.0907,-0.0856 0.13903,0.0297 0.0753,0.17914 0.01,0.26309 -0.0949,0.12201 z m -6.66984,-0.43727 c -0.002,-0.15617 -10e-6,-0.16099 0.0695,-0.15837 0.059,0.002 0.0732,0.0179 0.08,0.0872 0.008,0.0778 -0.0776,0.23266 -0.12828,0.23266 -0.0105,0 -0.02,-0.0725 -0.0212,-0.16108 z m 7.18048,-3.38588 c 0.004,-0.24643 0.0456,-0.32996 0.0782,-0.15737 0.0227,0.12024 -0.006,0.33255 -0.0501,0.36881 -0.0239,0.0198 -0.0311,-0.0336 -0.0281,-0.21144 z m -3.63988,-0.14767 c 0.0112,-0.0329 0.39326,-0.18885 0.46375,-0.18885 0.0828,0 -0.0657,0.10079 -0.23708,0.16101 -0.19104,0.0672 -0.24191,0.0732 -0.22667,0.0276 z"
       class="ColorScheme-Text"
       id="path12" />
  </g>
</svg>
