<?xml version="1.0" encoding="UTF-8" standalone="no"?>
<svg
   width="32"
   version="1.1"
   height="32"
   viewBox="0 0 32 32"
   id="svg17"
   sodipodi:docname="folder-chart.svg"
   inkscape:version="1.1.1 (3bf5ae0d25, 2021-09-20)"
   xmlns:inkscape="http://www.inkscape.org/namespaces/inkscape"
   xmlns:sodipodi="http://sodipodi.sourceforge.net/DTD/sodipodi-0.dtd"
   xmlns:xlink="http://www.w3.org/1999/xlink"
   xmlns="http://www.w3.org/2000/svg"
   xmlns:svg="http://www.w3.org/2000/svg"
   xmlns:rdf="http://www.w3.org/1999/02/22-rdf-syntax-ns#"
   xmlns:cc="http://creativecommons.org/ns#"
   xmlns:dc="http://purl.org/dc/elements/1.1/">
  <sodipodi:namedview
     pagecolor="#ffffff"
     bordercolor="#666666"
     borderopacity="1"
     objecttolerance="10"
     gridtolerance="10"
     guidetolerance="10"
     inkscape:pageopacity="0"
     inkscape:pageshadow="2"
     inkscape:window-width="1920"
     inkscape:window-height="1007"
     id="namedview19"
     showgrid="false"
     inkscape:zoom="9.8125"
     inkscape:cx="13.55414"
     inkscape:cy="-0.15286624"
     inkscape:window-x="0"
     inkscape:window-y="0"
     inkscape:window-maximized="1"
     inkscape:current-layer="layer1"
     inkscape:document-rotation="0"
     inkscape:pagecheckerboard="0"
     inkscape:lockguides="false" />
  <defs
     id="defs5455">
    <linearGradient
       inkscape:collect="always"
       xlink:href="#linearGradient847"
       id="linearGradient858"
       x1="210.75999"
       y1="89.093002"
       x2="362.40799"
       y2="89.093002"
       gradientUnits="userSpaceOnUse"
       gradientTransform="matrix(0.05859377,0,0,0.06178774,385.57143,515.9295)" />
    <linearGradient
       inkscape:collect="always"
       id="linearGradient847">
      <stop
         style="stop-color:#7192c1;stop-opacity:1"
         offset="0"
         id="stop843" />
      <stop
         style="stop-color:#3b5a87;stop-opacity:1"
         offset="1"
         id="stop845" />
    </linearGradient>
    <linearGradient
       inkscape:collect="always"
       xlink:href="#linearGradient847"
       id="linearGradient859"
       x1="0"
       y1="256.82327"
       x2="512"
       y2="256.82327"
       gradientUnits="userSpaceOnUse"
       gradientTransform="matrix(0.05859377,0,0,0.06178774,385.57143,515.9295)" />
    <linearGradient
       inkscape:collect="always"
       xlink:href="#linearGradient847"
       id="linearGradient862"
       x1="476.689"
       y1="163.60085"
       x2="319.6994"
       y2="162.04736"
       gradientUnits="userSpaceOnUse"
       gradientTransform="matrix(0.05859377,0,0,0.06178774,385.57143,515.9295)" />
  </defs>
  <metadata
     id="metadata5458">
    <rdf:RDF>
      <cc:Work
         rdf:about="">
        <dc:format>image/svg+xml</dc:format>
        <dc:type
           rdf:resource="http://purl.org/dc/dcmitype/StillImage" />
      </cc:Work>
    </rdf:RDF>
  </metadata>
  <g
     inkscape:label="Capa 1"
     inkscape:groupmode="layer"
     id="layer1"
     transform="translate(-384.57143,-515.798)">
    <path
       style="fill:url(#linearGradient858);fill-opacity:1;stroke-width:0.0601699"
       d="m 401.36761,522.28316 c 0.48407,0.50456 1.13728,0.78749 1.81795,0.78749 h 1.00659 2.61413 c -0.68066,0 -1.33386,-0.28293 -1.81794,-0.78749 l -1.629,-1.69766 c -0.48422,-0.50458 -1.13735,-0.7875 -1.81792,-0.7875 h -3.62074 c 0.68057,0 1.33378,0.28292 1.81794,0.7875 z"
       id="path2" />
    <path
       style="fill:#3b5a87;fill-opacity:1;stroke-width:0.0601699"
       d="m 396.11781,520.5855 1.62908,1.69766 c 0.48407,0.50456 1.13726,0.78749 1.81792,0.78749 h 1.00662 2.61413 c -0.68067,0 -1.33388,-0.28293 -1.81795,-0.78749 l -1.62899,-1.69766 c -0.48422,-0.50458 -1.13737,-0.7875 -1.81794,-0.7875 h -3.55616 -0.0646 c 0.68066,0 1.33379,0.28298 1.81788,0.7875 z"
       id="path4" />
    <path
       style="fill:url(#linearGradient859);fill-opacity:1;stroke-width:0.0564455"
       d="m 414.01968,522.67802 h -6.20691 -1.00662 -2.61412 -1.00659 -2.61401 -1.00662 c -0.68066,0 -1.33385,-0.249 -1.81792,-0.69302 l -1.62908,-1.494 c -0.48415,-0.444 -1.13728,-0.693 -1.81793,-0.693 h -3.55604 -3.62066 c -0.85698,0 -1.55175,0.64472 -1.55175,1.44001 v 2.88001 0.48002 17.75995 c 0,0.79529 0.69477,1.44001 1.55175,1.44001 h 26.8965 c 0.85698,0 1.55175,-0.64472 1.55175,-1.44001 v -18.23997 c 0,-0.79534 -0.69477,-1.44 -1.55175,-1.44 z m -9.82759,2.87996 z m 9.31043,0.48001 c 0,0.53015 -0.46314,0.95999 -1.03452,0.95999 h -7.24139 c -0.57138,0 -1.03452,-0.42984 -1.03452,-0.95999 v -0.48001 c 0,-0.53015 0.46314,-0.95999 1.03452,-0.95999 h 7.24132 c 0.57139,0 1.03452,0.42984 1.03452,0.95999 v 0.48001 z"
       id="path6"
       sodipodi:nodetypes="scccccsccscssccssssssccccccccccssssssscc" />
    <path
       style="fill:url(#linearGradient862);fill-opacity:1;stroke-width:0.0601699"
       d="m 412.46793,524.43058 h -7.24132 c -0.57138,0 -1.04623,0.48844 -1.04623,1.09086 v 0.54548 c 0,0.60243 0.47485,1.09086 1.04623,1.09086 h 7.24132 c 0.57139,0 1.10944,-0.48858 1.12241,-1.09086 l 0.0117,-0.54548 c 6e-5,-0.60242 -0.56268,-1.09086 -1.13412,-1.09086 z"
       id="path8"
       sodipodi:nodetypes="ssssssscs" />
    <path
       id="Chart-3"
       class="st0"
       d="m 397.36893,540.45506 h -9.52079 v -1.28659 h 0.82789 l 0.41395,-1.71549 2.06974,-3.00208 h 1.24184 l 0.41395,-0.4288 1.65578,0.8577 v 1.28659 h 1.65579 v -1.92989 l 2.27671,-3.00208 1.03487,0.21449 v 6.86185 c 0,1.17936 -0.93138,2.1443 -2.06973,2.1443 z"
       style="fill:#f0f0f0;fill-opacity:1;stroke-width:0.21067" />
    <path
       id="Chart-s-6"
       class="st1"
       d="m 399.02471,531.87771 c 0.68302,0 1.24185,-0.57895 1.24185,-1.28658 0,-0.70764 -0.55883,-1.2866 -1.24185,-1.2866 -0.68301,0 -1.24184,0.57896 -1.24184,1.2866 0,0.23585 0.0621,0.47179 0.18628,0.66474 l -2.25601,2.85193 c -0.12419,-0.0431 -0.26907,-0.0856 -0.41395,-0.0856 -0.33116,0 -0.64162,0.1286 -0.86929,0.36454 l -1.20045,-0.6433 c 0,-0.0431 0,-0.10724 0,-0.15014 0,-0.70764 -0.55883,-1.28659 -1.24184,-1.28659 -0.68301,0 -1.24184,0.57895 -1.24184,1.28659 0,0.23585 0.0621,0.4718 0.18628,0.66475 l -2.25602,2.85193 c -0.12418,-0.0646 -0.26906,-0.0859 -0.41394,-0.0859 -0.68302,0 -1.24184,0.57895 -1.24184,1.28659 0,0.70761 0.55882,1.28659 1.24184,1.28659 0.68301,0 1.24184,-0.57898 1.24184,-1.28659 0,-0.23593 -0.0621,-0.47178 -0.18628,-0.66475 l 2.25601,-2.852 c 0.12419,0.0431 0.26907,0.0862 0.41395,0.0862 0.33116,0 0.64162,-0.12864 0.86929,-0.36455 l 1.22115,0.62185 c 0,0.0431 0,0.10725 0,0.15013 0,0.70765 0.55882,1.28659 1.24184,1.28659 0.68301,0 1.24184,-0.57894 1.24184,-1.28659 0,-0.23585 -0.0621,-0.47178 -0.18628,-0.66473 l 2.23532,-2.83052 c 0.12418,0.0646 0.26906,0.0859 0.41394,0.0859 z m 0,-0.85769 c 0.22768,0 0.41395,-0.19304 0.41395,-0.42889 0,-0.23586 -0.18627,-0.42889 -0.41395,-0.42889 -0.22767,0 -0.41394,0.19303 -0.41394,0.42889 0,0.23585 0.18627,0.42889 0.41394,0.42889 z m -3.31157,4.28866 c 0,0.23585 -0.18628,0.42882 -0.41395,0.42882 -0.22767,0 -0.41395,-0.19297 -0.41395,-0.42882 0,-0.23593 0.18628,-0.42888 0.41395,-0.42888 0.22767,0 0.41395,0.19295 0.41395,0.42888 z m -3.72553,-1.28658 c 0.22767,0 0.41395,-0.19305 0.41395,-0.4289 0,-0.23585 -0.18628,-0.42888 -0.41395,-0.42888 -0.22767,0 -0.41395,0.19303 -0.41395,0.42888 0,0.23585 0.18628,0.4289 0.41395,0.4289 z m -3.31158,4.28866 c 0,0.23585 -0.18627,0.42881 -0.41394,0.42881 -0.22767,0 -0.41395,-0.19296 -0.41395,-0.42881 0,-0.23593 0.18628,-0.42889 0.41395,-0.42889 0.22767,0 0.41394,0.19296 0.41394,0.42889 z m 9.93474,-0.42889 h 0.82789 v 0.8577 c 0,1.41529 -1.11766,2.57327 -2.48368,2.57327 h -8.27895 v -0.85778 h 8.27895 c 0.91068,0 1.65579,-0.772 1.65579,-1.71549 z"
       style="clip-rule:evenodd;fill:#263740;fill-opacity:1;fill-rule:evenodd;stroke-width:0.21067" />
  </g>
</svg>
