<?xml version="1.0" encoding="UTF-8" standalone="no"?>
<svg
   width="32"
   version="1.1"
   height="32"
   viewBox="0 0 32 32"
   id="svg15"
   sodipodi:docname="folder-android.svg"
   inkscape:version="1.1.1 (3bf5ae0d25, 2021-09-20)"
   xmlns:inkscape="http://www.inkscape.org/namespaces/inkscape"
   xmlns:sodipodi="http://sodipodi.sourceforge.net/DTD/sodipodi-0.dtd"
   xmlns:xlink="http://www.w3.org/1999/xlink"
   xmlns="http://www.w3.org/2000/svg"
   xmlns:svg="http://www.w3.org/2000/svg"
   xmlns:rdf="http://www.w3.org/1999/02/22-rdf-syntax-ns#"
   xmlns:cc="http://creativecommons.org/ns#"
   xmlns:dc="http://purl.org/dc/elements/1.1/">
  <sodipodi:namedview
     pagecolor="#ffffff"
     bordercolor="#666666"
     borderopacity="1"
     objecttolerance="10"
     gridtolerance="10"
     guidetolerance="10"
     inkscape:pageopacity="0"
     inkscape:pageshadow="2"
     inkscape:window-width="1920"
     inkscape:window-height="1007"
     id="namedview17"
     showgrid="true"
     inkscape:zoom="9.8125"
     inkscape:cx="-9.477707"
     inkscape:cy="18.089172"
     inkscape:window-x="0"
     inkscape:window-y="0"
     inkscape:window-maximized="1"
     inkscape:current-layer="layer1"
     inkscape:pagecheckerboard="0">
    <inkscape:grid
       type="xygrid"
       id="grid862" />
  </sodipodi:namedview>
  <defs
     id="defs5455">
    <linearGradient
       inkscape:collect="always"
       xlink:href="#linearGradient847"
       id="linearGradient858"
       x1="210.75999"
       y1="89.093002"
       x2="362.40799"
       y2="89.093002"
       gradientUnits="userSpaceOnUse"
       gradientTransform="matrix(0.05859377,0,0,0.06178774,385.57143,515.9295)" />
    <linearGradient
       inkscape:collect="always"
       id="linearGradient847">
      <stop
         style="stop-color:#7192c1;stop-opacity:1"
         offset="0"
         id="stop843" />
      <stop
         style="stop-color:#3b5a87;stop-opacity:1"
         offset="1"
         id="stop845" />
    </linearGradient>
    <linearGradient
       inkscape:collect="always"
       xlink:href="#linearGradient847"
       id="linearGradient859"
       x1="0"
       y1="256.82327"
       x2="512"
       y2="256.82327"
       gradientUnits="userSpaceOnUse"
       gradientTransform="matrix(0.05859377,0,0,0.06178774,385.57143,515.9295)" />
    <linearGradient
       inkscape:collect="always"
       xlink:href="#linearGradient847"
       id="linearGradient862"
       x1="476.689"
       y1="163.60085"
       x2="319.6994"
       y2="162.04736"
       gradientUnits="userSpaceOnUse"
       gradientTransform="matrix(0.05859377,0,0,0.06178774,385.57143,515.9295)" />
  </defs>
  <metadata
     id="metadata5458">
    <rdf:RDF>
      <cc:Work
         rdf:about="">
        <dc:format>image/svg+xml</dc:format>
        <dc:type
           rdf:resource="http://purl.org/dc/dcmitype/StillImage" />
      </cc:Work>
    </rdf:RDF>
  </metadata>
  <g
     inkscape:label="Capa 1"
     inkscape:groupmode="layer"
     id="layer1"
     transform="translate(-384.57143,-515.798)">
    <path
       style="fill:url(#linearGradient858);fill-opacity:1;stroke-width:0.0601699"
       d="m 401.36761,522.28316 c 0.48407,0.50456 1.13728,0.78749 1.81795,0.78749 h 1.00659 2.61413 c -0.68066,0 -1.33386,-0.28293 -1.81794,-0.78749 l -1.629,-1.69766 c -0.48422,-0.50458 -1.13735,-0.7875 -1.81792,-0.7875 h -3.62074 c 0.68057,0 1.33378,0.28292 1.81794,0.7875 z"
       id="path2" />
    <path
       style="fill:#3b5a87;fill-opacity:1;stroke-width:0.0601699"
       d="m 396.11781,520.5855 1.62908,1.69766 c 0.48407,0.50456 1.13726,0.78749 1.81792,0.78749 h 1.00662 2.61413 c -0.68067,0 -1.33388,-0.28293 -1.81795,-0.78749 l -1.62899,-1.69766 c -0.48422,-0.50458 -1.13737,-0.7875 -1.81794,-0.7875 h -3.55616 -0.0646 c 0.68066,0 1.33379,0.28298 1.81788,0.7875 z"
       id="path4-36" />
    <path
       style="fill:url(#linearGradient859);fill-opacity:1;stroke-width:0.0564455"
       d="m 414.01968,522.67802 h -6.20691 -1.00662 -2.61412 -1.00659 -2.61401 -1.00662 c -0.68066,0 -1.33385,-0.249 -1.81792,-0.69302 l -1.62908,-1.494 c -0.48415,-0.444 -1.13728,-0.693 -1.81793,-0.693 h -3.55604 -3.62066 c -0.85698,0 -1.55175,0.64472 -1.55175,1.44001 v 2.88001 0.48002 17.75995 c 0,0.79529 0.69477,1.44001 1.55175,1.44001 h 26.8965 c 0.85698,0 1.55175,-0.64472 1.55175,-1.44001 v -18.23997 c 0,-0.79534 -0.69477,-1.44 -1.55175,-1.44 z m -9.82759,2.87996 z m 9.31043,0.48001 c 0,0.53015 -0.46314,0.95999 -1.03452,0.95999 h -7.24139 c -0.57138,0 -1.03452,-0.42984 -1.03452,-0.95999 v -0.48001 c 0,-0.53015 0.46314,-0.95999 1.03452,-0.95999 h 7.24132 c 0.57139,0 1.03452,0.42984 1.03452,0.95999 v 0.48001 z"
       id="path6-7"
       sodipodi:nodetypes="scccccsccscssccssssssccccccccccssssssscc" />
    <path
       style="fill:url(#linearGradient862);fill-opacity:1;stroke-width:0.0601699"
       d="m 412.46793,524.43058 h -7.24132 c -0.57138,0 -1.04623,0.48844 -1.04623,1.09086 v 0.54548 c 0,0.60243 0.47485,1.09086 1.04623,1.09086 h 7.24132 c 0.57139,0 1.10944,-0.48858 1.12241,-1.09086 l 0.0117,-0.54548 c 6e-5,-0.60242 -0.56268,-1.09086 -1.13412,-1.09086 z"
       id="path8-5"
       sodipodi:nodetypes="ssssssscs" />
    <path
       class="st0"
       d="m 395.16983,538.60995 c 0.30787,0 0.54331,-0.29281 0.54331,-0.67569 0,-0.38294 -0.23544,-0.67576 -0.54331,-0.67576 -0.30787,0 -0.5433,0.29282 -0.5433,0.67576 0,0.38288 0.23543,0.67569 0.5433,0.67569 z m -4.70865,0 c 0.30787,0 0.54331,-0.29281 0.54331,-0.67569 0,-0.38294 -0.23544,-0.67576 -0.54331,-0.67576 -0.30787,0 -0.5433,0.29282 -0.5433,0.67576 0,0.38288 0.23543,0.67569 0.5433,0.67569 z m 7.78738,2.25241 c -0.1811,-3.51373 -2.55353,-6.30668 -5.43305,-6.30668 -2.87952,0 -5.25196,2.79295 -5.43306,6.30668 z"
       id="path4-3"
       style="clip-rule:evenodd;fill:#a1cd32;fill-opacity:1;fill-rule:evenodd;stroke-width:0.201967" />
    <path
       class="st1"
       d="m 388.66827,532.37088 c 0.1811,-0.13519 0.39843,-0.0452 0.48898,0.1576 l 1.12283,2.31999 0.39842,0.74337 -0.34409,0.24777 c -0.68819,0.49546 -1.26771,1.17117 -1.72047,1.98203 -0.0362,0.0903 -0.0543,0.1802 -0.0543,0.27025 0,0.7884 1.26771,1.41905 2.8433,1.41905 2.80708,0 5.07086,-0.99105 5.07086,-2.22987 0,-0.33784 -0.163,-0.65321 -0.47087,-0.92343 h 0.65197 l 1.81102,4.27945 h -2.35433 v 0.67575 h -9.09131 l 0.0181,-0.47305 c 0.12677,-2.3199 1.12283,-4.32447 2.58975,-5.5408 l -1.08661,-2.31988 c -0.0906,-0.20265 -0.0362,-0.49562 0.12677,-0.60823 z"
       id="path6-6"
       style="fill:#f0f0f0;fill-opacity:1;stroke-width:0.201967" />
    <path
       class="st2"
       d="m 395.69503,541.31284 h 2.91574 l -0.0181,-0.47305 c -0.12677,-2.3199 -1.12283,-4.32447 -2.58976,-5.5408 l 1.08661,-2.31988 c 0.10866,-0.22522 0.0362,-0.49562 -0.12677,-0.60823 -0.16298,-0.11262 -0.39842,-0.0677 -0.50708,0.1576 l -1.10473,2.31999 c -0.76062,-0.47296 -1.62991,-0.74327 -2.55353,-0.74327 -0.92362,0 -1.79291,0.27031 -2.57165,0.74327 l 0.3622,0.76585 v 0.0229 c 0.67008,-0.4054 1.4126,-0.63065 2.20945,-0.63065 2.55353,0 4.67243,2.34245 5.01652,5.40562 h -2.1189 z"
       id="path8-7"
       style="fill:#263740;fill-opacity:1;stroke-width:0.201967" />
    <path
       class="fil1"
       d="m 390.51229,536.82572 c 0.51047,0 0.90082,0.43549 0.90082,0.9333 0,0.52882 -0.39035,0.9333 -0.90082,0.9333 -0.51046,0 -0.90081,-0.43559 -0.90081,-0.9333 0,-0.52892 0.39035,-0.9333 0.90081,-0.9333 z m 0.54049,0.6844 c 0.12011,0 0.24022,0.0934 0.24022,0.2489 0,0.12445 -0.0901,0.24882 -0.24022,0.24882 -0.12011,0 -0.24021,-0.0934 -0.24021,-0.24882 0,-0.12446 0.0901,-0.2489 0.24021,-0.2489 z"
       id="path12-35"
       style="fill:#263740;fill-opacity:1;stroke-width:0.0305637;image-rendering:optimizeQuality;shape-rendering:geometricPrecision;text-rendering:geometricPrecision" />
    <path
       class="fil1"
       d="m 394.85874,536.77568 c 0.51046,0 0.90082,0.43557 0.90082,0.93328 0,0.52885 -0.39036,0.9333 -0.90082,0.9333 -0.51046,0 -0.90082,-0.43557 -0.90082,-0.9333 0,-0.52883 0.39036,-0.93328 0.90082,-0.93328 z m 0.54049,0.6844 c 0.12011,0 0.24022,0.0934 0.24022,0.24888 0,0.12445 -0.0901,0.24892 -0.24022,0.24892 -0.12011,0 -0.24022,-0.0935 -0.24022,-0.24892 0,-0.12443 0.0901,-0.24888 0.24022,-0.24888 z"
       id="path12-3-6"
       style="fill:#263740;fill-opacity:1;stroke-width:0.0305637;image-rendering:optimizeQuality;shape-rendering:geometricPrecision;text-rendering:geometricPrecision" />
  </g>
</svg>
