<?xml version="1.0" encoding="UTF-8" standalone="no"?>
<svg
   width="32"
   version="1.1"
   height="32"
   viewBox="0 0 32 32"
   id="svg17"
   sodipodi:docname="folder-development.svg"
   inkscape:version="1.1.1 (3bf5ae0d25, 2021-09-20)"
   xmlns:inkscape="http://www.inkscape.org/namespaces/inkscape"
   xmlns:sodipodi="http://sodipodi.sourceforge.net/DTD/sodipodi-0.dtd"
   xmlns:xlink="http://www.w3.org/1999/xlink"
   xmlns="http://www.w3.org/2000/svg"
   xmlns:svg="http://www.w3.org/2000/svg"
   xmlns:rdf="http://www.w3.org/1999/02/22-rdf-syntax-ns#"
   xmlns:cc="http://creativecommons.org/ns#"
   xmlns:dc="http://purl.org/dc/elements/1.1/">
  <sodipodi:namedview
     pagecolor="#ffffff"
     bordercolor="#666666"
     borderopacity="1"
     objecttolerance="10"
     gridtolerance="10"
     guidetolerance="10"
     inkscape:pageopacity="0"
     inkscape:pageshadow="2"
     inkscape:window-width="1920"
     inkscape:window-height="1007"
     id="namedview19"
     showgrid="false"
     inkscape:zoom="9.8125"
     inkscape:cx="-19.464968"
     inkscape:cy="8.611465"
     inkscape:window-x="0"
     inkscape:window-y="0"
     inkscape:window-maximized="1"
     inkscape:current-layer="layer1"
     inkscape:pagecheckerboard="0" />
  <defs
     id="defs5455">
    <linearGradient
       inkscape:collect="always"
       xlink:href="#linearGradient847"
       id="linearGradient858"
       x1="210.75999"
       y1="89.093002"
       x2="362.40799"
       y2="89.093002"
       gradientUnits="userSpaceOnUse"
       gradientTransform="matrix(0.05859377,0,0,0.06178774,385.57143,515.9295)" />
    <linearGradient
       inkscape:collect="always"
       id="linearGradient847">
      <stop
         style="stop-color:#7192c1;stop-opacity:1"
         offset="0"
         id="stop843" />
      <stop
         style="stop-color:#3b5a87;stop-opacity:1"
         offset="1"
         id="stop845" />
    </linearGradient>
    <linearGradient
       inkscape:collect="always"
       xlink:href="#linearGradient847"
       id="linearGradient859"
       x1="0"
       y1="256.82327"
       x2="512"
       y2="256.82327"
       gradientUnits="userSpaceOnUse"
       gradientTransform="matrix(0.05859377,0,0,0.06178774,385.57143,515.9295)" />
    <linearGradient
       inkscape:collect="always"
       xlink:href="#linearGradient847"
       id="linearGradient862"
       x1="476.689"
       y1="163.60085"
       x2="319.6994"
       y2="162.04736"
       gradientUnits="userSpaceOnUse"
       gradientTransform="matrix(0.05859377,0,0,0.06178774,385.57143,515.9295)" />
  </defs>
  <metadata
     id="metadata5458">
    <rdf:RDF>
      <cc:Work
         rdf:about="">
        <dc:format>image/svg+xml</dc:format>
        <dc:type
           rdf:resource="http://purl.org/dc/dcmitype/StillImage" />
      </cc:Work>
    </rdf:RDF>
  </metadata>
  <g
     inkscape:label="Capa 1"
     inkscape:groupmode="layer"
     id="layer1"
     transform="translate(-384.57143,-515.798)">
    <path
       style="fill:url(#linearGradient858);fill-opacity:1;stroke-width:0.0601699"
       d="m 401.36761,522.28316 c 0.48407,0.50456 1.13728,0.78749 1.81795,0.78749 h 1.00659 2.61413 c -0.68066,0 -1.33386,-0.28293 -1.81794,-0.78749 l -1.629,-1.69766 c -0.48422,-0.50458 -1.13735,-0.7875 -1.81792,-0.7875 h -3.62074 c 0.68057,0 1.33378,0.28292 1.81794,0.7875 z"
       id="path2" />
    <path
       style="fill:#3b5a87;fill-opacity:1;stroke-width:0.0601699"
       d="m 396.11781,520.5855 1.62908,1.69766 c 0.48407,0.50456 1.13726,0.78749 1.81792,0.78749 h 1.00662 2.61413 c -0.68067,0 -1.33388,-0.28293 -1.81795,-0.78749 l -1.62899,-1.69766 c -0.48422,-0.50458 -1.13737,-0.7875 -1.81794,-0.7875 h -3.55616 -0.0646 c 0.68066,0 1.33379,0.28298 1.81788,0.7875 z"
       id="path4" />
    <path
       style="fill:url(#linearGradient859);fill-opacity:1;stroke-width:0.0564455"
       d="m 414.01968,522.67802 h -6.20691 -1.00662 -2.61412 -1.00659 -2.61401 -1.00662 c -0.68066,0 -1.33385,-0.249 -1.81792,-0.69302 l -1.62908,-1.494 c -0.48415,-0.444 -1.13728,-0.693 -1.81793,-0.693 h -3.55604 -3.62066 c -0.85698,0 -1.55175,0.64472 -1.55175,1.44001 v 2.88001 0.48002 17.75995 c 0,0.79529 0.69477,1.44001 1.55175,1.44001 h 26.8965 c 0.85698,0 1.55175,-0.64472 1.55175,-1.44001 v -18.23997 c 0,-0.79534 -0.69477,-1.44 -1.55175,-1.44 z m -9.82759,2.87996 z m 9.31043,0.48001 c 0,0.53015 -0.46314,0.95999 -1.03452,0.95999 h -7.24139 c -0.57138,0 -1.03452,-0.42984 -1.03452,-0.95999 v -0.48001 c 0,-0.53015 0.46314,-0.95999 1.03452,-0.95999 h 7.24132 c 0.57139,0 1.03452,0.42984 1.03452,0.95999 v 0.48001 z"
       id="path6"
       sodipodi:nodetypes="scccccsccscssccssssssccccccccccssssssscc" />
    <path
       style="fill:url(#linearGradient862);fill-opacity:1;stroke-width:0.0601699"
       d="m 412.46793,524.43058 h -7.24132 c -0.57138,0 -1.04623,0.48844 -1.04623,1.09086 v 0.54548 c 0,0.60243 0.47485,1.09086 1.04623,1.09086 h 7.24132 c 0.57139,0 1.10944,-0.48858 1.12241,-1.09086 l 0.0117,-0.54548 c 6e-5,-0.60242 -0.56268,-1.09086 -1.13412,-1.09086 z"
       id="path8"
       sodipodi:nodetypes="ssssssscs" />
    <g
       id="Computer_1_"
       transform="matrix(0.20697361,0,0,0.21443319,387.02025,530.19798)">
      <path
         id="Computer"
         class="st0"
         d="m 60,4 h 4 v 36 c 0,4.4 -3.6,8 -8,8 H 0 V 40 H 60 Z M 32,52 Z"
         style="fill:#f2f2f2;fill-opacity:1"
         sodipodi:nodetypes="ccssccccccccc" />
      <path
         id="Computer-s"
         class="st1"
         d="M 4,40 H 0 V 12 C 0,7.6 3.6,4 8,4 H 64 V 8 H 8 C 5.8,8 4,9.8 4,12 Z m 56,0 c 0,4.4 -3.6,8 -8,8 H 32 v 4 h 4 v 0 0 0 0 h 16 c 6.6,0 12,-5.4 12,-12 z"
         style="fill:#1f222d;fill-opacity:1"
         sodipodi:nodetypes="ccssccssccscccccccscc" />
    </g>
    <g
       id="g8"
       style="image-rendering:optimizeQuality;shape-rendering:geometricPrecision;text-rendering:geometricPrecision"
       transform="matrix(0.48293843,0,0,0.50034417,390.69058,532.35666)">
      <path
         class="fil0"
         d="M 7.3777778,1.7333333 C 7.6,1.8222222 7.8222222,1.9111111 8.0444444,2 L 9.1111111,1.2 C 9.3333333,1.0666667 9.6,1.1111111 9.7333333,1.2444444 L 10.711111,2.2222222 C 10.888889,2.4 10.888889,2.6666667 10.755556,2.8444444 L 10,3.9555556 C 10.088889,4.1777778 10.177778,4.4 10.266667,4.6222222 L 11.6,4.8444444 c 0.222222,0 0.4,0.2222223 0.4,0.4444445 v 1.3777778 c 0,0.2222222 -0.177778,0.4444444 -0.4,0.4888889 L 10.266667,7.3777778 C 10.177778,7.6 10.088889,7.8222222 10,8.0444444 l 0.8,1.0666667 C 10.933333,9.3333333 10.888889,9.6 10.755556,9.7333333 L 9.7777778,10.711111 C 9.6,10.888889 9.3333333,10.888889 9.1555556,10.755556 L 8.0444444,10 C 7.8222222,10.088889 7.6,10.177778 7.3777778,10.266667 L 7.1555556,11.6 C 7.1111111,11.822222 6.8888889,12 6.6666667,12 H 5.2888889 C 5.0666667,12 4.8444444,11.822222 4.8444444,11.6 L 4.6222222,10.266667 C 4.4,10.177778 4.1777778,10.088889 3.9555556,10 L 2.8444444,10.755556 C 2.6666667,10.888889 2.4,10.888889 2.2222222,10.711111 L 1.2444444,9.7333333 C 1.1111111,9.6 1.0666667,9.3333333 1.2,9.1555556 L 2,8.0444444 C 1.8666667,7.8222222 1.7777778,7.6 1.7333333,7.3777778 L 0.4,7.1555556 C 0.17777778,7.1111111 0,6.8888889 0,6.6666667 V 5.2888889 C 0,5.0666667 0.17777778,4.8444444 0.4,4.8444444 L 1.7333333,4.6222222 C 1.7777778,4.3555556 1.8666667,4.1777778 2,3.9555556 L 1.2,2.8444444 C 1.0666667,2.6666667 1.1111111,2.4 1.2888889,2.2222222 L 2.2666667,1.2444444 C 2.4,1.1111111 2.6666667,1.0666667 2.8444444,1.2 L 3.9555556,2 C 4.1777778,1.9111111 4.4,1.8222222 4.6222222,1.7333333 L 4.8444444,0.4 c 0,-0.22222222 0.2222223,-0.4 0.4444445,-0.4 H 6.6666667 C 6.8888889,0 7.1111111,0.17777778 7.1555556,0.4 Z M 6,3.4666667 C 4.6222222,3.4666667 3.4666667,4.6222222 3.4666667,6 3.4666667,7.3777778 4.6222222,8.5333333 6,8.5333333 7.3777778,8.5333333 8.5333333,7.3777778 8.5333333,6 8.5333333,4.6222222 7.3777778,3.4666667 6,3.4666667 Z"
         id="path6-6"
         style="fill:#f2f2f2;fill-opacity:1;stroke-width:0.0444444" />
    </g>
  </g>
</svg>
