<?xml version="1.0" encoding="UTF-8" standalone="no"?>
<svg
   width="32"
   version="1.1"
   height="32"
   viewBox="0 0 32 32"
   id="svg15"
   sodipodi:docname="folder-notes.svg"
   inkscape:version="1.1.1 (3bf5ae0d25, 2021-09-20)"
   xmlns:inkscape="http://www.inkscape.org/namespaces/inkscape"
   xmlns:sodipodi="http://sodipodi.sourceforge.net/DTD/sodipodi-0.dtd"
   xmlns:xlink="http://www.w3.org/1999/xlink"
   xmlns="http://www.w3.org/2000/svg"
   xmlns:svg="http://www.w3.org/2000/svg"
   xmlns:rdf="http://www.w3.org/1999/02/22-rdf-syntax-ns#"
   xmlns:cc="http://creativecommons.org/ns#"
   xmlns:dc="http://purl.org/dc/elements/1.1/">
  <sodipodi:namedview
     pagecolor="#ffffff"
     bordercolor="#666666"
     borderopacity="1"
     objecttolerance="10"
     gridtolerance="10"
     guidetolerance="10"
     inkscape:pageopacity="0"
     inkscape:pageshadow="2"
     inkscape:window-width="1920"
     inkscape:window-height="1007"
     id="namedview17"
     showgrid="true"
     inkscape:zoom="9.8125"
     inkscape:cx="-9.477707"
     inkscape:cy="1.7834395"
     inkscape:window-x="0"
     inkscape:window-y="0"
     inkscape:window-maximized="1"
     inkscape:current-layer="layer1"
     inkscape:pagecheckerboard="0">
    <inkscape:grid
       type="xygrid"
       id="grid862" />
  </sodipodi:namedview>
  <defs
     id="defs5455">
    <linearGradient
       inkscape:collect="always"
       xlink:href="#linearGradient847"
       id="linearGradient858"
       x1="210.75999"
       y1="89.093002"
       x2="362.40799"
       y2="89.093002"
       gradientUnits="userSpaceOnUse"
       gradientTransform="matrix(0.05859377,0,0,0.06178774,385.57143,515.9295)" />
    <linearGradient
       inkscape:collect="always"
       id="linearGradient847">
      <stop
         style="stop-color:#7192c1;stop-opacity:1"
         offset="0"
         id="stop843" />
      <stop
         style="stop-color:#3b5a87;stop-opacity:1"
         offset="1"
         id="stop845" />
    </linearGradient>
    <linearGradient
       inkscape:collect="always"
       xlink:href="#linearGradient847"
       id="linearGradient859"
       x1="0"
       y1="256.82327"
       x2="512"
       y2="256.82327"
       gradientUnits="userSpaceOnUse"
       gradientTransform="matrix(0.05859377,0,0,0.06178774,385.57143,515.9295)" />
    <linearGradient
       inkscape:collect="always"
       xlink:href="#linearGradient847"
       id="linearGradient862"
       x1="476.689"
       y1="163.60085"
       x2="319.6994"
       y2="162.04736"
       gradientUnits="userSpaceOnUse"
       gradientTransform="matrix(0.05859377,0,0,0.06178774,385.57143,515.9295)" />
  </defs>
  <metadata
     id="metadata5458">
    <rdf:RDF>
      <cc:Work
         rdf:about="">
        <dc:format>image/svg+xml</dc:format>
        <dc:type
           rdf:resource="http://purl.org/dc/dcmitype/StillImage" />
      </cc:Work>
    </rdf:RDF>
  </metadata>
  <g
     inkscape:label="Capa 1"
     inkscape:groupmode="layer"
     id="layer1"
     transform="translate(-384.57143,-515.798)">
    <path
       style="fill:url(#linearGradient858);fill-opacity:1;stroke-width:0.0601699"
       d="m 401.36761,522.28316 c 0.48407,0.50456 1.13728,0.78749 1.81795,0.78749 h 1.00659 2.61413 c -0.68066,0 -1.33386,-0.28293 -1.81794,-0.78749 l -1.629,-1.69766 c -0.48422,-0.50458 -1.13735,-0.7875 -1.81792,-0.7875 h -3.62074 c 0.68057,0 1.33378,0.28292 1.81794,0.7875 z"
       id="path2" />
    <path
       style="fill:#3b5a87;fill-opacity:1;stroke-width:0.0601699"
       d="m 396.11781,520.5855 1.62908,1.69766 c 0.48407,0.50456 1.13726,0.78749 1.81792,0.78749 h 1.00662 2.61413 c -0.68067,0 -1.33388,-0.28293 -1.81795,-0.78749 l -1.62899,-1.69766 c -0.48422,-0.50458 -1.13737,-0.7875 -1.81794,-0.7875 h -3.55616 -0.0646 c 0.68066,0 1.33379,0.28298 1.81788,0.7875 z"
       id="path4" />
    <path
       style="fill:url(#linearGradient859);fill-opacity:1;stroke-width:0.0564455"
       d="m 414.01968,522.67802 h -6.20691 -1.00662 -2.61412 -1.00659 -2.61401 -1.00662 c -0.68066,0 -1.33385,-0.249 -1.81792,-0.69302 l -1.62908,-1.494 c -0.48415,-0.444 -1.13728,-0.693 -1.81793,-0.693 h -3.55604 -3.62066 c -0.85698,0 -1.55175,0.64472 -1.55175,1.44001 v 2.88001 0.48002 17.75995 c 0,0.79529 0.69477,1.44001 1.55175,1.44001 h 26.8965 c 0.85698,0 1.55175,-0.64472 1.55175,-1.44001 v -18.23997 c 0,-0.79534 -0.69477,-1.44 -1.55175,-1.44 z m -9.82759,2.87996 z m 9.31043,0.48001 c 0,0.53015 -0.46314,0.95999 -1.03452,0.95999 h -7.24139 c -0.57138,0 -1.03452,-0.42984 -1.03452,-0.95999 v -0.48001 c 0,-0.53015 0.46314,-0.95999 1.03452,-0.95999 h 7.24132 c 0.57139,0 1.03452,0.42984 1.03452,0.95999 v 0.48001 z"
       id="path6"
       sodipodi:nodetypes="scccccsccscssccssssssccccccccccssssssscc" />
    <path
       style="fill:url(#linearGradient862);fill-opacity:1;stroke-width:0.0601699"
       d="m 412.46793,524.43058 h -7.24132 c -0.57138,0 -1.04623,0.48844 -1.04623,1.09086 v 0.54548 c 0,0.60243 0.47485,1.09086 1.04623,1.09086 h 7.24132 c 0.57139,0 1.10944,-0.48858 1.12241,-1.09086 l 0.0117,-0.54548 c 6e-5,-0.60242 -0.56268,-1.09086 -1.13412,-1.09086 z"
       id="path8"
       sodipodi:nodetypes="ssssssscs" />
    <path
       id="Edit-3"
       class="st0"
       d="m 397.16195,531.91261 -1.79291,-1.85753 -4.72676,4.89708 -0.7244,2.60806 2.51731,-0.75053 3.27795,-3.3961 v 1.14455 l -0.72441,0.75054 v 3.75254 h -6.51967 v -6.75461 h 3.62204 l 1.44881,-1.50107 h -6.51966 v 9.75675 h 7.60628 c 0.99606,0 1.81101,-0.84433 1.81101,-1.87629 v -6.02294 z"
       style="fill:#f0f0f0;fill-opacity:1;stroke-width:0.184338" />
    <path
       id="Edit-s-6"
       class="st1"
       d="m 397.46983,529.47337 c 0.56141,0.58171 0.56141,1.53856 0,2.12025 l -1.75669,1.81997 v -1.06943 l 1.23149,-1.2759 c 0.28976,-0.3002 0.28976,-0.76932 0,-1.06952 l -0.16299,-0.16883 0.50708,-0.52538 z m -3.20551,11.08892 h -6.51967 v 0.75055 h 6.51967 c 1.19527,0 2.17322,-1.01327 2.17322,-2.25162 v -5.2536 l -0.7244,0.75052 v 4.50308 c 0,0.82557 -0.65197,1.50107 -1.44882,1.50107 z m -3.25983,-3.32104 -0.77874,-0.8068 -0.30787,1.12577 z"
       style="fill:#263740;fill-opacity:1;stroke-width:0.184338" />
  </g>
</svg>
