<?xml version="1.0" encoding="UTF-8" standalone="no"?>
<svg
   width="32"
   version="1.1"
   height="32"
   viewBox="0 0 32 32"
   id="svg15"
   sodipodi:docname="folder-Pop_OS.svg"
   inkscape:version="1.1.1 (3bf5ae0d25, 2021-09-20)"
   xmlns:inkscape="http://www.inkscape.org/namespaces/inkscape"
   xmlns:sodipodi="http://sodipodi.sourceforge.net/DTD/sodipodi-0.dtd"
   xmlns:xlink="http://www.w3.org/1999/xlink"
   xmlns="http://www.w3.org/2000/svg"
   xmlns:svg="http://www.w3.org/2000/svg"
   xmlns:rdf="http://www.w3.org/1999/02/22-rdf-syntax-ns#"
   xmlns:cc="http://creativecommons.org/ns#"
   xmlns:dc="http://purl.org/dc/elements/1.1/">
  <sodipodi:namedview
     pagecolor="#ffffff"
     bordercolor="#666666"
     borderopacity="1"
     objecttolerance="10"
     gridtolerance="10"
     guidetolerance="10"
     inkscape:pageopacity="0"
     inkscape:pageshadow="2"
     inkscape:window-width="1920"
     inkscape:window-height="1007"
     id="namedview17"
     showgrid="false"
     inkscape:zoom="9.8125"
     inkscape:cx="-16"
     inkscape:cy="8.7133758"
     inkscape:window-x="0"
     inkscape:window-y="0"
     inkscape:window-maximized="1"
     inkscape:current-layer="layer1"
     inkscape:document-rotation="0"
     inkscape:pagecheckerboard="0" />
  <defs
     id="defs5455">
    <linearGradient
       inkscape:collect="always"
       xlink:href="#linearGradient847"
       id="linearGradient858"
       x1="210.75999"
       y1="89.093002"
       x2="362.40799"
       y2="89.093002"
       gradientUnits="userSpaceOnUse"
       gradientTransform="matrix(0.05859377,0,0,0.06178774,385.57143,515.92951)" />
    <linearGradient
       inkscape:collect="always"
       id="linearGradient847">
      <stop
         style="stop-color:#7192c1;stop-opacity:1"
         offset="0"
         id="stop843" />
      <stop
         style="stop-color:#3b5a87;stop-opacity:1"
         offset="1"
         id="stop845" />
    </linearGradient>
    <linearGradient
       inkscape:collect="always"
       xlink:href="#linearGradient847"
       id="linearGradient859"
       x1="0"
       y1="256.82327"
       x2="512"
       y2="256.82327"
       gradientUnits="userSpaceOnUse"
       gradientTransform="matrix(0.05859377,0,0,0.06178774,385.57143,515.92951)" />
    <linearGradient
       inkscape:collect="always"
       xlink:href="#linearGradient847"
       id="linearGradient862"
       x1="476.689"
       y1="163.60085"
       x2="319.6994"
       y2="162.04736"
       gradientUnits="userSpaceOnUse"
       gradientTransform="matrix(0.05859377,0,0,0.06178774,385.57143,515.92951)" />
  </defs>
  <metadata
     id="metadata5458">
    <rdf:RDF>
      <cc:Work
         rdf:about="">
        <dc:format>image/svg+xml</dc:format>
        <dc:type
           rdf:resource="http://purl.org/dc/dcmitype/StillImage" />
      </cc:Work>
    </rdf:RDF>
  </metadata>
  <g
     inkscape:label="Capa 1"
     inkscape:groupmode="layer"
     id="layer1"
     transform="translate(-384.57143,-515.798)">
    <path
       style="fill:url(#linearGradient858);fill-opacity:1;stroke-width:0.0601699"
       d="m 401.36761,522.28316 c 0.48407,0.50456 1.13728,0.78749 1.81795,0.78749 h 1.00659 2.61413 c -0.68066,0 -1.33386,-0.28293 -1.81794,-0.78749 l -1.629,-1.69766 c -0.48422,-0.50458 -1.13735,-0.7875 -1.81792,-0.7875 h -3.62074 c 0.68057,0 1.33378,0.28292 1.81794,0.7875 z"
       id="path2" />
    <path
       style="fill:#3b5a87;fill-opacity:1;stroke-width:0.0601699"
       d="m 396.11781,520.5855 1.62908,1.69766 c 0.48407,0.50456 1.13726,0.78749 1.81792,0.78749 h 1.00662 2.61413 c -0.68067,0 -1.33388,-0.28293 -1.81795,-0.78749 l -1.62899,-1.69766 c -0.48422,-0.50458 -1.13737,-0.7875 -1.81794,-0.7875 h -3.55616 -0.0646 c 0.68066,0 1.33379,0.28298 1.81788,0.7875 z"
       id="path4" />
    <path
       style="fill:url(#linearGradient859);fill-opacity:1;stroke-width:0.0564455"
       d="m 414.01968,522.67802 h -6.20691 -1.00662 -2.61412 -1.00659 -2.61401 -1.00662 c -0.68066,0 -1.33385,-0.249 -1.81792,-0.69302 l -1.62908,-1.494 c -0.48415,-0.444 -1.13728,-0.693 -1.81793,-0.693 h -3.55604 -3.62066 c -0.85698,0 -1.55175,0.64472 -1.55175,1.44001 v 2.88001 0.48002 17.75995 c 0,0.79529 0.69477,1.44001 1.55175,1.44001 h 26.8965 c 0.85698,0 1.55175,-0.64472 1.55175,-1.44001 v -18.23997 c 0,-0.79534 -0.69477,-1.44 -1.55175,-1.44 z m -9.82759,2.87996 z m 9.31043,0.48001 c 0,0.53015 -0.46314,0.95999 -1.03452,0.95999 h -7.24139 c -0.57138,0 -1.03452,-0.42984 -1.03452,-0.95999 v -0.48001 c 0,-0.53015 0.46314,-0.95999 1.03452,-0.95999 h 7.24132 c 0.57139,0 1.03452,0.42984 1.03452,0.95999 v 0.48001 z"
       id="path6"
       sodipodi:nodetypes="scccccsccscssccssssssccccccccccssssssscc" />
    <path
       style="fill:url(#linearGradient862);fill-opacity:1;stroke-width:0.0601699"
       d="m 412.46793,524.43058 h -7.24132 c -0.57138,0 -1.04623,0.48844 -1.04623,1.09086 v 0.54548 c 0,0.60243 0.47485,1.09086 1.04623,1.09086 h 7.24132 c 0.57139,0 1.10944,-0.48858 1.12241,-1.09086 l 0.0117,-0.54548 c 6e-5,-0.60242 -0.56268,-1.09086 -1.13412,-1.09086 z"
       id="path8"
       sodipodi:nodetypes="ssssssscs" />
    <path
       style="fill:#1f222d;fill-opacity:1;stroke-width:0.0138817"
       id="path2-3-3"
       d="m 399.51845,536.97574 c -0.0267,0.11284 -0.0809,0.21276 -0.17534,0.2756 -0.14848,0.0985 -0.32926,0.07 -0.45744,-0.05 -0.12007,-0.11135 -0.16057,-0.29979 -0.12281,-0.46262 0.0389,-0.17003 0.16327,-0.32002 0.32249,-0.36713 0.35485,-0.10423 0.50196,0.30414 0.4331,0.60417 z m -0.21721,-1.15971 c -0.21989,-0.093 -0.14439,-1.31389 0.0568,-2.79624 0.0568,-0.41426 0.15386,-0.61003 0.26316,-0.71007 0.1565,-0.14129 0.4412,-0.14708 0.63407,-0.11712 0.22131,0.0326 0.43318,0.14296 0.59372,0.30713 0.14168,0.14583 0.15785,0.29424 0.10924,0.48712 -0.0795,0.30712 -0.21582,0.60135 -0.34676,0.88821 -0.0303,0.07 -0.30225,0.61411 -0.33861,0.68122 -0.65438,1.2198 -0.78528,1.33828 -0.97142,1.25975 z" />
    <path
       style="fill:#f2f2f2;fill-opacity:1;stroke-width:0.0138817"
       id="path4-3"
       d="m 394.86223,535.26615 c 0.1295,0.58568 0.116,1.22832 0.003,1.69102 -0.10384,0.43702 -0.38583,0.82831 -0.83379,0.95973 -0.39272,0.1157 -0.85002,0.0306 -1.13074,-0.2542 -0.46142,-0.46853 -0.73126,-1.56824 -0.6112,-2.36653 0.0972,-0.64119 0.42369,-1.4625 1.14018,-1.49832 0.0467,-0.002 0.0917,-9.5e-4 0.13753,0.002 0.73001,0.0701 1.12802,0.72136 1.29267,1.46548 z m -1.31951,1.33248 c 0.0398,0.008 0.0809,0.008 0.12135,-0.003 0.13629,-0.0412 0.21456,-0.19145 0.25096,-0.337 0.0557,-0.22145 0.0476,-0.45994 -0.0257,-0.67708 -0.0371,-0.10993 -0.0903,-0.21706 -0.17272,-0.29703 -0.29001,-0.28138 -0.58001,0.0106 -0.63002,0.34416 -0.0389,0.25996 0.0182,0.56131 0.17131,0.77126 0.0715,0.097 0.17417,0.18137 0.28346,0.20134 z" />
    <path
       style="fill:#f2f2f2;fill-opacity:1;stroke-width:0.0138817"
       id="path6-6"
       d="m 396.44221,536.50735 c -9.7e-4,1.08105 0.10114,1.90795 -0.34816,2.00652 -0.36426,0.0783 -0.35209,-0.25991 -0.3805,-0.54411 -0.10787,-1.10107 -0.20636,-2.9305 -0.24826,-4.03758 0.0294,-0.4756 0.33063,-0.76689 0.64365,-0.83819 0.48303,-0.11002 0.99839,-0.0785 1.42614,0.20129 0.846,0.55424 0.91347,1.571 0.40075,2.40074 -0.28067,0.45278 -1.12933,0.78137 -1.49362,0.75267 z m 0.10789,-2.42368 c -0.0523,0.009 -0.13894,0.0325 -0.16326,0.0887 -0.058,0.12711 -0.0546,0.93426 0.0476,1.27266 0.0172,0.0561 0.0517,0.1085 0.10523,0.12846 0.1916,0.0742 0.36433,-0.1743 0.44258,-0.32419 0.10928,-0.20849 0.1443,-0.45409 0.0755,-0.68271 -0.0649,-0.21272 -0.26579,-0.52133 -0.50729,-0.48263 z" />
    <path
       style="fill:#f2f2f2;fill-opacity:1;stroke-width:0.0138817"
       id="path8-7"
       d="m 391.60374,534.6206 c -0.31708,0.70995 -0.8433,1.27396 -1.57183,1.55255 0.20924,0.57841 0.42224,1.14974 0.63005,1.72658 0.11611,0.31132 0.2267,0.65268 0.12545,0.95973 -0.10524,0.31422 -0.51523,0.40129 -0.8135,0.0674 -0.57352,-0.64559 -2.51227,-4.73583 -2.65527,-5.04296 -0.12154,-0.26419 -0.30349,-0.54704 -0.29828,-0.85259 0.01,-0.45995 0.68155,-0.92556 1.00375,-1.16391 0.45078,-0.33295 0.97151,-0.56 1.52878,-0.56134 0.43452,0 0.80551,0.12579 1.13478,0.34838 0.50456,0.34295 0.85545,0.88975 0.98504,1.50819 0.11322,0.54415 0.089,1.10128 -0.0689,1.45827 m -1.47733,-0.77702 c -0.11339,-0.43545 -0.36978,-0.83674 -0.69229,-1.11804 -0.07,-0.0616 -0.14576,-0.11876 -0.23322,-0.15004 -0.60451,-0.20998 -0.34275,0.85971 -0.24425,1.12974 0.13624,0.37836 0.34276,0.85682 0.61924,1.1424 0.0605,0.063 0.13226,0.11859 0.21449,0.13567 0.12551,0.0279 0.2415,-0.0662 0.30504,-0.17415 0.0517,-0.0902 0.0727,-0.19709 0.085,-0.30132 0.0218,-0.22129 0.002,-0.4471 -0.0547,-0.66426 z" />
    <path
       style="fill:#f0f0f0;fill-opacity:1;stroke-width:0.0138817"
       id="path10"
       d="m 398.8322,540.05729 c -0.002,0.6271 -0.36429,1.25401 -1.16175,1.25401 -0.79736,0 -1.1684,-0.61691 -1.1684,-1.24685 0,-0.78547 0.51674,-1.27103 1.18463,-1.27103 0.77449,0.008 1.15228,0.61551 1.14552,1.26387 z m -1.14552,-0.86822 c -0.50056,0 -0.78127,0.36846 -0.78392,0.87119 0,0.43703 0.23069,0.84685 0.77442,0.84685 0.54376,0 0.75155,-0.44413 0.75155,-0.85115 0.008,-0.42277 -0.20504,-0.85689 -0.74205,-0.86689 z m 1.4801,1.80089 c 0,0.0929 0.002,-0.44133 0,-0.5227 h 0.367 l 0.0268,0.32705 c 0.12013,0.0728 0.30629,0.12713 0.45876,0.12713 0.28338,0 0.57886,-0.0756 0.57886,-0.36849 -0.01,-0.26566 -0.33867,-0.31987 -0.60446,-0.3485 -0.45201,-0.049 -0.81629,-0.16557 -0.81629,-0.70263 0,-0.47844 0.51133,-0.71691 0.89182,-0.71691 0.30629,-0.008 0.52351,0.043 0.80009,0.27839 0,0.19295 -0.002,0.30713 -0.002,0.49986 h -0.35477 l -0.0218,-0.31698 c -0.14302,-0.0729 -0.29011,-0.0931 -0.40341,-0.0902 -0.24423,0.002 -0.50464,0.12422 -0.50464,0.34128 0,0.21279 0.16866,0.27132 0.46818,0.31708 0.48847,0.0687 0.95932,0.18566 0.95932,0.73691 -0.002,0.60264 -0.53701,0.76124 -0.99574,0.76124 -0.34944,10e-4 -0.56803,-0.0675 -0.84461,-0.3228 z"
       inkscape:connector-curvature="0" />
    <path
       style="fill:#1f222d;fill-opacity:1;stroke-width:0.0138817"
       id="path12"
       d="m 396.00686,541.10566 c 0,0.11 -0.0837,0.1985 -0.18751,0.1985 h -2.16829 c -0.10391,0 -0.18749,-0.0888 -0.18749,-0.1985 v -0.0182 c 0,-0.11002 0.0836,-0.19845 0.18749,-0.19845 h 2.16829 c 0.10381,0 0.18751,0.0887 0.18751,0.19845 z"
       inkscape:connector-curvature="0" />
  </g>
</svg>
