<?xml version="1.0" encoding="UTF-8" standalone="no"?>
<svg
   width="32"
   version="1.1"
   height="32"
   viewBox="0 0 32 32"
   id="svg17"
   sodipodi:docname="folder_html.svg"
   inkscape:version="1.1.1 (3bf5ae0d25, 2021-09-20)"
   xmlns:inkscape="http://www.inkscape.org/namespaces/inkscape"
   xmlns:sodipodi="http://sodipodi.sourceforge.net/DTD/sodipodi-0.dtd"
   xmlns:xlink="http://www.w3.org/1999/xlink"
   xmlns="http://www.w3.org/2000/svg"
   xmlns:svg="http://www.w3.org/2000/svg"
   xmlns:rdf="http://www.w3.org/1999/02/22-rdf-syntax-ns#"
   xmlns:cc="http://creativecommons.org/ns#"
   xmlns:dc="http://purl.org/dc/elements/1.1/">
  <sodipodi:namedview
     pagecolor="#ffffff"
     bordercolor="#666666"
     borderopacity="1"
     objecttolerance="10"
     gridtolerance="10"
     guidetolerance="10"
     inkscape:pageopacity="0"
     inkscape:pageshadow="2"
     inkscape:window-width="1920"
     inkscape:window-height="1007"
     id="namedview19"
     showgrid="true"
     inkscape:zoom="9.8125"
     inkscape:cx="-18.140127"
     inkscape:cy="7.6942675"
     inkscape:window-x="0"
     inkscape:window-y="0"
     inkscape:window-maximized="1"
     inkscape:current-layer="layer1"
     inkscape:document-rotation="0"
     inkscape:pagecheckerboard="0"
     inkscape:lockguides="true">
    <inkscape:grid
       type="xygrid"
       id="grid838" />
  </sodipodi:namedview>
  <defs
     id="defs5455">
    <linearGradient
       inkscape:collect="always"
       xlink:href="#linearGradient847"
       id="linearGradient858"
       x1="210.75999"
       y1="89.093002"
       x2="362.40799"
       y2="89.093002"
       gradientUnits="userSpaceOnUse"
       gradientTransform="matrix(0.05859377,0,0,0.06178774,385.57143,515.9295)" />
    <linearGradient
       inkscape:collect="always"
       id="linearGradient847">
      <stop
         style="stop-color:#7192c1;stop-opacity:1"
         offset="0"
         id="stop843" />
      <stop
         style="stop-color:#3b5a87;stop-opacity:1"
         offset="1"
         id="stop845" />
    </linearGradient>
    <linearGradient
       inkscape:collect="always"
       xlink:href="#linearGradient847"
       id="linearGradient859"
       x1="0"
       y1="256.82327"
       x2="512"
       y2="256.82327"
       gradientUnits="userSpaceOnUse"
       gradientTransform="matrix(0.05859377,0,0,0.06178774,385.57143,515.9295)" />
    <linearGradient
       inkscape:collect="always"
       xlink:href="#linearGradient847"
       id="linearGradient862"
       x1="476.689"
       y1="163.60085"
       x2="319.6994"
       y2="162.04736"
       gradientUnits="userSpaceOnUse"
       gradientTransform="matrix(0.05859377,0,0,0.06178774,385.57143,515.9295)" />
  </defs>
  <metadata
     id="metadata5458">
    <rdf:RDF>
      <cc:Work
         rdf:about="">
        <dc:format>image/svg+xml</dc:format>
        <dc:type
           rdf:resource="http://purl.org/dc/dcmitype/StillImage" />
      </cc:Work>
    </rdf:RDF>
  </metadata>
  <g
     inkscape:label="Capa 1"
     inkscape:groupmode="layer"
     id="layer1"
     transform="translate(-384.57143,-515.798)">
    <path
       style="fill:url(#linearGradient858);fill-opacity:1;stroke-width:0.0601699"
       d="m 401.36761,522.28316 c 0.48407,0.50456 1.13728,0.78749 1.81795,0.78749 h 1.00659 2.61413 c -0.68066,0 -1.33386,-0.28293 -1.81794,-0.78749 l -1.629,-1.69766 c -0.48422,-0.50458 -1.13735,-0.7875 -1.81792,-0.7875 h -3.62074 c 0.68057,0 1.33378,0.28292 1.81794,0.7875 z"
       id="path2" />
    <path
       style="fill:#3b5a87;fill-opacity:1;stroke-width:0.0601699"
       d="m 396.11781,520.5855 1.62908,1.69766 c 0.48407,0.50456 1.13726,0.78749 1.81792,0.78749 h 1.00662 2.61413 c -0.68067,0 -1.33388,-0.28293 -1.81795,-0.78749 l -1.62899,-1.69766 c -0.48422,-0.50458 -1.13737,-0.7875 -1.81794,-0.7875 h -3.55616 -0.0646 c 0.68066,0 1.33379,0.28298 1.81788,0.7875 z"
       id="path4" />
    <path
       style="fill:url(#linearGradient859);fill-opacity:1;stroke-width:0.0564455"
       d="m 414.01968,522.67802 h -6.20691 -1.00662 -2.61412 -1.00659 -2.61401 -1.00662 c -0.68066,0 -1.33385,-0.249 -1.81792,-0.69302 l -1.62908,-1.494 c -0.48415,-0.444 -1.13728,-0.693 -1.81793,-0.693 h -3.55604 -3.62066 c -0.85698,0 -1.55175,0.64472 -1.55175,1.44001 v 2.88001 0.48002 17.75995 c 0,0.79529 0.69477,1.44001 1.55175,1.44001 h 26.8965 c 0.85698,0 1.55175,-0.64472 1.55175,-1.44001 v -18.23997 c 0,-0.79534 -0.69477,-1.44 -1.55175,-1.44 z m -9.82759,2.87996 z m 9.31043,0.48001 c 0,0.53015 -0.46314,0.95999 -1.03452,0.95999 h -7.24139 c -0.57138,0 -1.03452,-0.42984 -1.03452,-0.95999 v -0.48001 c 0,-0.53015 0.46314,-0.95999 1.03452,-0.95999 h 7.24132 c 0.57139,0 1.03452,0.42984 1.03452,0.95999 v 0.48001 z"
       id="path6"
       sodipodi:nodetypes="scccccsccscssccssssssccccccccccssssssscc" />
    <path
       style="fill:url(#linearGradient862);fill-opacity:1;stroke-width:0.0601699"
       d="m 412.46793,524.43058 h -7.24132 c -0.57138,0 -1.04623,0.48844 -1.04623,1.09086 v 0.54548 c 0,0.60243 0.47485,1.09086 1.04623,1.09086 h 7.24132 c 0.57139,0 1.10944,-0.48858 1.12241,-1.09086 l 0.0117,-0.54548 c 6e-5,-0.60242 -0.56268,-1.09086 -1.13412,-1.09086 z"
       id="path8"
       sodipodi:nodetypes="ssssssscs" />
    <path
       d="m 394.81923,530.51907 c 0,0 10e-4,0 10e-4,10e-4 0,0 0.003,0 0.004,0 -0.003,-10e-4 -0.004,-10e-4 -0.006,-10e-4 z"
       id="path6-39-3"
       style="fill:#f0f0f0;fill-opacity:1;stroke-width:0.0153973" />
    <path
       d="m 394.7451,538.27533 c -0.0106,0.022 -0.0106,0.0766 -0.0242,0.0941 -0.0529,0.0531 -0.15581,0.17241 -0.22842,0.22097 -0.0953,0.0561 -0.2027,0.0561 -0.21481,0.20375 -0.003,0.0501 0.0378,0.11755 0.0363,0.15048 0.001,0.006 -0.0711,0.13477 -0.0711,0.13477 -0.004,0.001 -0.0635,0.0531 -0.0666,0.063 -0.003,0.0426 -0.006,0.0881 0.0287,0.11126 10e-4,0.0174 -0.0106,0.0326 -0.0106,0.0706 -0.004,0.0736 0.0514,0.14257 0.12707,0.13947 0.18304,-0.0205 0.2269,-0.19904 0.29195,-0.33382 0.0817,-0.1693 0.16035,-0.31348 0.18002,-0.53756 0.004,0 0.0363,0.008 0.0499,0.0106 0.001,-0.0122 0.004,-0.0311 0.004,-0.0441 -0.0212,-0.0812 0,-0.27584 -0.10287,-0.28365 z"
       id="path8-0-6"
       style="fill:#f0f0f0;fill-opacity:1;stroke-width:0.0153973" />
    <path
       d="m 397.15032,536.36177 c -0.001,0.0455 0.0211,0.0881 0.0499,0.0881 0.0424,-0.004 0.0711,-0.0781 0.0741,-0.13947 0.006,-0.10503 -0.0575,-0.14258 -0.0847,-0.22097 -0.004,0.10172 -0.0363,0.17396 -0.0393,0.27273 z"
       id="path10-8-7"
       style="fill:#f0f0f0;fill-opacity:1;stroke-width:0.0153973" />
    <path
       d="m 397.96264,536.52788 c -0.0106,-10e-4 -0.0106,0.003 -0.0106,-0.0106 -0.006,-0.0395 -0.0106,-0.0781 -0.0318,-0.0942 -0.0272,0.006 -0.009,-9.9e-4 -0.0348,0.006 -0.0106,-0.022 0.003,-0.025 -0.0212,-0.022 -0.006,0 -0.008,-0.003 -0.008,9.9e-4 -0.001,0.008 -0.001,0.016 -0.001,0.022 0.004,0.028 0.004,0.0971 0.0257,0.10339 0.0212,0.011 0.0212,-0.004 0.0227,0.0206 0,0.0265 0.006,0.0501 0.0106,0.0766 0.003,0.036 0.0242,0.0206 0.0302,0.0781 0,0.022 -0.003,0.0736 0.004,0.0881 0.006,0.008 0.0136,0.003 0.0136,0.009 0.003,0.008 -0.003,0.022 -10e-4,0.022 0.0121,-0.0706 0.0242,-0.14107 0.0333,-0.21316 -0.001,-0.008 -0.001,-0.0122 -0.006,-0.022 -0.009,-0.025 -0.0136,-0.0547 -0.0257,-0.066 z"
       id="path12-8-5"
       style="fill:#f0f0f0;fill-opacity:1;stroke-width:0.0153973" />
    <path
       d="m 397.93087,536.88673 c -0.006,0.004 -0.001,0.003 -0.008,0.003 0,0.003 -10e-4,0.008 -10e-4,0.0106 -0.003,0.019 -0.003,0.0531 0.0106,0.0547 0.004,-0.0265 0,-0.041 -0.001,-0.0547 -10e-4,-0.004 -10e-4,-0.009 0,-0.0145 z"
       id="path14-5-3"
       style="fill:#f0f0f0;fill-opacity:1;stroke-width:0.0153973" />
    <path
       d="m 397.90818,536.73784 c 0,0.006 -0.001,0.004 -0.006,0.006 0.001,0 0.001,0 0.001,0 -0.001,0.0159 0.003,0.0501 0.0121,0.053 0.0166,-0.0106 10e-4,-0.0426 -0.008,-0.0594 z"
       id="path16-0-5"
       style="fill:#f0f0f0;fill-opacity:1;stroke-width:0.0153973" />
    <path
       d="m 394.77233,530.94068 c 0.0438,0.0145 0.0242,0.025 0.0469,0.041 0.004,0.008 0.0454,0.009 0.0635,0.0145 0.009,0 0.0136,0.006 0.0197,0.0106 0.0651,0.0144 0.12858,0.0295 0.19514,0.0455 -0.003,-10e-4 -0.004,-0.003 -0.009,-0.006 -0.0605,-0.0326 -0.1422,-0.0615 -0.1543,-0.0942 -0.0151,-0.063 0.13312,-0.0766 0.24808,-0.0531 0.0409,0.008 0.0438,-0.008 0.10136,0.009 0.0242,0.008 0.0257,-0.003 0.0424,-0.003 0.0696,0.0126 0.12555,0.0341 0.19514,0.0486 0.0151,0.003 0.0408,0.0106 0.0681,0.0205 -0.0302,-0.022 -0.0605,-0.0426 -0.0892,-0.063 -0.053,-0.0106 -0.10741,-0.019 -0.17699,-0.0395 -0.0257,-0.008 -0.0454,-0.0235 -0.0726,-0.0311 -0.0423,-0.0145 -0.0378,-0.003 -0.0681,-0.0124 -0.0862,-0.025 -0.13766,-0.004 -0.19666,-0.0204 -0.0393,-0.009 -0.056,-0.009 -0.0938,-0.019 -0.0151,-0.008 -0.0272,0 -0.0227,0.003 0,0.008 0.0182,0.009 0.0227,0.019 0.008,0.022 -0.11497,0.006 -0.11497,0.022 0.006,0.009 0.0333,0.016 0.0438,0.028 -0.0393,-0.003 -0.11648,-0.0174 -0.11497,0 0.003,0.006 0.004,0.006 0.004,0.0145 0.006,0.0235 -0.0726,-10e-4 -0.0681,0.022 0.008,0.0138 0.0514,0.028 0.0514,0.028 0,0 0.0726,0.0144 0.0787,0.016 z"
       id="path18-9-6"
       style="fill:#f0f0f0;fill-opacity:1;stroke-width:0.0153973" />
    <polygon
       points="675.4,197.6 675.5,197.7 675.6,197.7 "
       id="polygon20-6-2"
       style="fill:#f0f0f0;fill-opacity:1"
       transform="matrix(0.01512713,0,0,0.01567232,384.87162,527.9488)" />
    <path
       d="m 396.161,531.47355 c 0.0136,0.008 0.0393,0.0125 0.0666,0.025 -0.0318,-0.031 -0.065,-0.063 -0.0968,-0.091 -0.001,0.004 -0.004,0.009 -0.0151,0.0106 -0.004,0.003 0.0212,0.041 0.0454,0.0546 z"
       id="path22-3-9"
       style="fill:#f0f0f0;fill-opacity:1;stroke-width:0.0153973" />
    <path
       d="m 396.25025,531.519 c -0.0318,-0.016 -0.0605,-0.0295 -0.062,-0.0265 0.0166,0.0326 0.0545,0.0827 0.0166,0.0691 -0.001,-10e-4 -0.0106,0.008 -0.0257,0.0145 -0.0424,0.0145 -0.0681,0 -0.0847,-0.003 -0.0242,0 -0.0121,-0.0395 -0.0167,-0.044 -0.0121,-10e-4 0.056,-0.009 0.0514,-0.0206 -0.003,-0.0106 0.0121,-0.0145 0.004,-0.025 -0.0121,-0.0123 -0.0484,-0.0341 -0.059,-0.0486 -0.0167,-0.0326 -0.0167,-0.0545 -0.0318,-0.0797 -0.0212,-0.0341 -0.0439,-0.044 -0.053,-0.056 -10e-4,-0.004 0,-0.009 0.004,-0.0106 -0.0333,-0.028 -0.0681,-0.056 -0.10135,-0.0848 0,0 -10e-4,0 -10e-4,0 h 10e-4 c -0.0121,-0.0106 -0.0272,-0.022 -0.0393,-0.031 -0.009,-9.9e-4 -0.0106,0 -0.008,0.008 0,10e-4 -10e-4,0.004 0,0.006 -0.0151,-0.006 -0.0302,-0.009 -0.0378,-0.0106 -0.0303,-0.003 -0.0287,0.028 -0.0529,0.0295 -0.0287,10e-4 -0.0499,-0.009 -0.0651,-9.9e-4 -0.0227,0.0106 0.0363,0.028 0.0424,0.041 0.0167,0.028 -0.0167,0.0235 0.009,0.0395 0.0287,0.0145 0.0635,0.031 0.0968,0.0516 0.056,0.0531 0.0545,0.066 0.009,0.0486 -0.0287,-0.009 -0.0756,-0.044 -0.118,-0.066 -0.0787,-0.0395 -0.16035,-0.0766 -0.20724,-0.10016 -0.33431,-0.13321 -0.17245,-0.0125 -0.18153,-0.009 -0.14673,10e-4 -0.0802,-0.044 -0.12555,-0.0596 -0.0787,-0.0145 -0.24203,0.006 -0.37213,-0.0455 -0.008,-0.009 0.065,-0.0145 0.0499,-0.0206 -0.062,-0.0176 -0.18152,-0.0145 -0.30859,0 -0.0499,0.004 -0.0923,-0.0128 -0.13766,-0.008 -0.0696,0.0106 -0.0106,0.0645 -0.15127,0.0342 -0.0333,-0.008 -0.11799,-0.0426 -0.10589,-0.0594 0.008,-0.0106 0.13312,0.022 0.13161,0.006 -0.0106,-0.0426 -0.18909,-0.1191 -0.24203,-0.0751 -0.0167,0.0127 0.056,0.022 0.006,0.0706 -0.0121,0.008 0.0545,0.028 0.0575,0.0516 0,0.0175 -0.0968,0.009 -0.12253,0.003 -0.0121,-0.004 0.003,-0.031 -0.0272,-0.031 -0.065,10e-4 -0.17548,0.0426 -0.21179,0.041 -0.0408,0.008 0.0409,0.0486 0.0212,0.0645 -0.0212,0.0106 -0.13766,-0.016 -0.32221,-0.0615 0.0121,0.0189 0.0287,0.0395 0.0454,0.0561 0.0378,0.009 0.0711,0.019 0.10891,0.0295 -0.0711,-0.003 -0.10891,0.016 -0.16337,-0.008 -0.0287,-0.0106 -0.0681,-0.0144 -0.0892,-0.0326 -0.0197,-0.0106 0.001,-0.0295 -0.0136,-0.0486 -0.0303,-0.0343 -0.0877,-0.0706 -0.10438,-0.0832 0.1301,0.009 0.19817,0.0106 0.32826,0.0342 0.17094,0.028 0.49768,-0.0342 -0.0227,-0.15045 -0.15127,-0.031 -0.24657,-0.063 -0.36002,-0.0721 -0.009,0 -0.0772,-0.025 -0.15884,-0.025 -0.008,-10e-4 -0.0787,-0.004 -0.11345,-0.009 10e-4,-0.008 -0.0242,-0.006 -0.0575,-0.0175 0.0787,-0.008 0.1059,0.003 0.13464,-0.0205 -0.0272,-0.008 -0.10589,-0.0206 -0.11951,-0.022 -0.0287,-0.003 -0.0393,0.004 -0.0499,0.0125 -0.0378,-0.003 -0.0302,-0.006 -0.0348,-0.0235 -0.053,0.006 -0.0787,0.0106 -0.12707,0.025 -0.004,-0.006 -0.004,-0.0128 -0.0182,-0.019 -0.0575,0.006 -0.0771,0.0295 -0.14674,0.0295 0.0151,-0.0145 0.0696,-0.0128 0.0711,-0.0326 0,-0.0176 -0.13009,0.0106 -0.18152,0.0106 -0.0318,0 -0.0499,-0.009 -0.0711,-0.0144 -0.0106,0.003 -0.0696,0.009 -0.0726,0.0159 0,0.009 0.0227,0.009 0.0499,0.0106 -0.062,0.009 -0.11648,0.004 -0.16489,0.0311 0,-0.008 10e-4,-0.009 0,-0.0176 -0.0711,10e-4 -0.0832,0.0265 -0.12707,0.0326 0,-0.006 0,-0.008 0,-0.0122 -0.0529,0.004 -0.11042,0.008 -0.14824,0.019 0.008,0.004 0.0197,0.006 0.0272,0.006 -0.0212,0.006 -0.0893,0.0106 -0.11194,0.0106 -0.0318,0 -0.0545,0.0159 -0.0711,0.0235 0.0227,0 0.0257,-9.9e-4 0.0469,0 -0.004,0 -0.0438,0.019 -0.0575,0.022 -0.0393,10e-4 -0.0121,0 -0.062,0 0.0106,-0.006 -0.006,0 -0.0227,-0.004 -0.008,0.006 -0.0212,0.0106 -0.0272,0.0175 -0.008,-10e-4 -0.0166,-0.003 -0.0242,-10e-4 -0.0212,0 -0.0393,0.008 -0.0469,0.022 0,0 -0.0197,0.0145 -0.006,0.0106 -0.0106,10e-4 -0.0438,0.016 -0.0605,0.0235 0.0726,0 0.16489,-0.0174 0.24204,-0.028 -0.0166,0.0235 -0.10438,0.0736 -0.16943,0.0896 -0.0651,0.0125 -0.1074,0.0342 -0.14673,0.063 -10e-4,0 -0.0333,0.0326 -0.0333,0.0326 -0.0212,10e-4 -0.0227,0.041 -0.059,0.0561 -0.0953,0.0395 -0.15279,0.0736 -0.28893,0.10339 0.0257,0 0.0378,10e-4 0.0711,10e-4 -0.10741,0.008 -0.11194,0.0395 -0.16942,0.0501 -0.0666,0.0122 -0.10136,0.0341 -0.13918,0.063 -0.0182,0.0106 -0.0499,0.0265 -0.0529,0.0486 -0.006,0.041 0.0227,0.0956 0.065,0.11915 -0.0136,0.009 -0.0499,0.031 -0.0529,0.0426 0.0227,-0.004 0.0529,-0.009 0.0802,-0.016 0,0.008 0,0.0145 -0.003,0.022 -0.0106,0.004 -0.0514,0.016 -0.053,0.028 -10e-4,0.006 0.11345,0.0295 0.13312,0.028 0.12858,-0.0126 0.25262,-0.0691 0.32069,-0.1191 0.0197,0.0106 0.0257,0.022 0.059,0.031 -0.006,0.004 -0.0166,0.0145 -0.0166,0.022 -0.003,0.0265 0.0439,0.028 0.0605,0.0501 0.0197,0.031 0.0106,0.053 0.0635,0.0766 0,0.004 -0.004,0.0106 -0.008,0.016 0,0.008 0.0227,0.083 0.0499,0.0866 0.0802,-0.008 0.0968,-0.0766 0.15127,-0.0812 0.0211,-10e-4 0.0726,0 0.11799,-10e-4 0.0136,-0.0295 0.0847,-0.038 0.0998,-0.0766 -0.0151,-0.003 -0.0469,-0.008 -0.0469,-0.025 0,-0.031 -0.008,-0.0896 0.0575,-0.0925 0.0318,-10e-4 0.12858,-0.0395 0.12858,-0.0645 10e-4,-0.028 -0.0106,-0.066 -0.0696,-0.0675 0.001,-0.0106 -0.009,-0.022 -0.0242,-0.025 -0.0136,-0.0145 -0.0302,-0.025 -0.0484,-0.038 0.0499,-0.0122 0.0212,-0.038 0.0439,-0.0576 0.0333,-0.025 0.0802,-0.0341 0.13462,-0.0516 0.0666,-0.016 0.2133,-0.0645 0.21632,-0.0971 0.009,-0.008 0,-0.0127 10e-4,-0.0295 0.001,-0.0395 0.0771,-0.0691 0.18303,-0.0706 0.0772,-10e-4 0.17851,0.004 0.18002,0.0395 -10e-4,0.025 -0.13312,0.0736 -0.17699,0.0849 -0.0817,0.025 -0.0605,0.066 -0.19363,0.0675 0.006,0.0106 -0.009,0.0614 -0.0106,0.0706 0.001,0.0174 0.006,0.0363 0.0378,0.041 -0.009,0.006 -0.0438,0.0174 -0.0454,0.0326 0,0.031 0.0696,0.0471 0.13614,0.0471 0.001,0.016 0.0136,0.0174 0.056,0.0205 0.0575,-9.9e-4 0.0923,0.006 0.15732,0 0.062,0.004 0.12404,-0.009 0.15581,-0.0395 0.0257,0.016 0.16186,0.019 0.18757,0.0441 -0.0393,0.0124 -0.0726,0.0501 -0.11496,0.0501 -0.056,0 -0.16791,-0.025 -0.24052,-0.0265 -0.0711,0.003 -0.26775,0.0721 -0.21934,0.0971 0.0575,0.025 0.10135,-0.022 0.15883,0.025 0.0423,0.0341 -0.0212,0.0706 -0.0454,0.0721 -0.065,0.001 -0.0741,-0.0342 -0.13009,-0.038 -0.056,0.004 -0.11194,0.10016 -0.11496,0.13947 0,0.0594 -0.11497,0.0426 -0.12405,0.0986 -0.0393,0.004 -0.0772,0.006 -0.11799,0.006 0.006,-0.006 0.0106,-0.0125 0.0136,-0.0176 -0.0196,-0.004 -0.0666,-0.003 -0.11043,-0.003 -0.0393,0.004 -0.0893,0.028 -0.12102,0.0343 -0.0469,0.0145 -0.0802,-10e-4 -0.13614,0.016 -0.0136,0.004 -0.0197,0.0176 -0.056,0.019 0,0 -0.0514,-0.019 -0.053,-0.022 0,-0.004 0.0166,-0.0127 0.0197,-0.0205 -0.0741,9.9e-4 -0.13463,0.0395 -0.22237,0.0471 -0.009,-0.001 -0.0817,-0.0675 -0.0877,-0.0751 -0.0242,0.003 0.0242,0.0486 -0.0106,0.0531 0,-0.006 0.001,-0.0127 0.001,-0.0189 -0.0151,0 -0.0333,-0.0106 -0.0318,-0.028 0.003,-0.0343 0.0423,-0.0455 0.0741,-0.0675 0.008,-10e-4 0.0378,-0.0106 0.0378,-0.019 0,-0.004 0,-0.009 0.001,-0.0143 -0.0212,0.003 -0.0605,0.003 -0.059,-0.0145 0.001,-0.0175 0.006,-0.025 0.0227,-0.0455 0.001,-0.006 0.001,-0.0128 0.001,-0.0205 -0.0802,0.0362 -0.19968,0.0486 -0.20876,0.12069 -0.003,0.0395 0.0438,0.0501 0.0545,0.0956 0,0.001 0.0197,0.0326 0.0182,0.0426 -0.006,0.0106 -0.0529,0.031 -0.0726,0.0341 -0.0272,10e-4 -0.0529,-9.9e-4 -0.0771,0.0106 -0.006,9.9e-4 -0.0197,0.0122 -0.0272,0.009 -0.0182,0.004 -0.003,-10e-4 -0.0439,0.003 -0.0711,0.004 -0.18909,0.0896 -0.23598,0.12382 -0.003,10e-4 -0.0333,0.0175 -0.0333,0.0265 -0.003,0.0235 0.003,0.0501 -0.0212,0.0691 -0.0106,0.008 -0.13917,0.0545 -0.15883,0.0615 -0.0121,0.003 -0.0272,0.006 -0.0424,0.009 -0.0227,0.0531 0.003,0.0675 -0.0892,0.0781 -0.009,0.0145 -0.0318,0.0326 -0.0545,0.038 -0.0378,0.004 -0.065,-0.003 -0.0877,-0.0175 -0.009,10e-4 -0.0227,0.003 -0.0302,0.004 -0.003,0.003 -10e-4,0.0106 -10e-4,0.0174 0.004,0.004 -0.0106,0.0378 0.0106,0.041 0,0.004 -0.001,0.0106 -0.001,0.016 -0.0106,10e-4 -0.0454,0.0145 -0.0711,0.019 -0.0212,0 -0.0711,0 -0.0772,-0.0122 -0.0318,0.0106 -0.11345,0.0326 -0.11648,0.0516 0,10e-4 10e-4,0.004 10e-4,0.008 0,0.0326 0.12252,0.0341 0.17093,0.0395 0.0136,0.003 0.0151,0.009 0.0348,0.0107 -0.003,0.0326 0.0272,0.11285 0.0893,0.10814 0,0.016 0.0151,0.0106 0.0151,0.0326 -10e-4,0.006 -0.009,0.0265 -0.0151,0.0343 0.001,-10e-4 0.004,-0.003 0.006,-0.004 0,0.0123 -0.003,0.0546 -0.003,0.063 -0.003,0.0441 -0.0575,0.0456 -0.062,0.0926 -0.008,10e-4 -0.0545,0.016 -0.0772,0.019 -0.0303,0.003 -0.0484,-0.0106 -0.0832,-10e-4 -0.0484,0.006 -0.0953,0.0106 -0.14371,0.0145 -0.0136,0 -0.0378,0 -0.0484,-0.008 -0.0469,0.004 -0.0862,0.0106 -0.1316,0.0145 -0.0151,0.008 -0.0333,-0.004 -0.0424,-0.003 -0.0151,10e-4 -0.11648,0.063 -0.12101,0.0751 -0.001,0.0176 0.0257,0.0471 0.0227,0.0812 -0.008,0.0576 -0.0378,0.12065 -0.0424,0.17863 -0.003,0.0145 -0.0333,0.0265 -0.0363,0.0562 -0.003,0.016 0.0197,0.0295 0.0423,0.028 -0.004,0.0456 -0.008,0.0941 -0.0121,0.14266 -0.001,0.008 0.003,0.022 0.0212,0.022 0.0484,-0.003 0.0741,-0.028 0.12707,-0.0326 0.065,-0.006 0.062,0.10339 0.1074,0.10177 0.065,-0.008 0.10891,-0.0691 0.18153,-0.0766 0.0136,0 0.0711,-0.0175 0.0968,-0.0145 10e-4,0 0,-10e-4 0,-0.003 0.062,0.0138 0.0711,-0.0615 0.11043,-0.085 0.0666,-0.0379 0.0923,-0.0986 0.13463,-0.1536 -0.0121,-9.9e-4 -0.0287,-0.0125 -0.0287,-0.028 0.006,-0.0501 0.0998,-0.15358 0.15883,-0.16926 0.0681,-0.0145 0.13614,-0.038 0.16035,-0.0866 -0.006,-0.0145 -0.0106,-0.0342 -0.0151,-0.0501 0.004,-0.0311 0.053,-0.0594 0.10438,-0.0645 0.0605,-0.006 0.0439,0.022 0.11496,0.0175 0.0741,-0.003 0.11497,-0.0455 0.17851,-0.0736 0.0302,-0.009 0.0333,-0.0395 0.0938,-0.0441 0.12405,-0.006 0.19817,0.0501 0.19666,0.1395 0.004,0.0122 0.0545,0.025 0.0772,0.0395 0.056,0.038 0.0756,0.0596 0.18152,0.0706 0,0.0109 0.053,0.025 0.0635,0.0235 0.004,0.0106 0.15884,0.12696 0.16641,0.13006 0.006,0.0176 0.0333,0.031 0.0333,0.0676 0,0.0235 -0.0167,0.0675 -0.0605,0.0675 0,0.008 0.0136,0.019 0.0363,0.0159 0.0484,-9.9e-4 0.0484,-0.0546 0.0817,-0.0766 0,0 0.0318,-0.0265 0.0318,-0.0373 0.003,-0.0295 -0.0318,-0.016 -0.0302,-0.0471 0,-0.0206 0.004,-0.063 0.0469,-0.063 0.0423,0 0.059,0.0295 0.10891,0.0342 0.0106,-0.0516 -0.0862,-0.0896 -0.15429,-0.11284 -0.0167,-0.003 -0.0998,-0.016 -0.0862,-0.0455 10e-4,-0.004 0.006,-0.0122 0.006,-0.019 -0.0499,0 -0.0832,0.013 -0.13463,0 -0.0212,-0.006 -0.0545,-0.0675 -0.0666,-0.0986 -0.009,-0.0176 -0.0333,-0.0561 -0.0847,-0.0706 -0.0393,-0.008 -0.0681,-0.0206 -0.0666,-0.0547 -10e-4,-0.0107 0.009,-0.031 0.0151,-0.0425 -0.004,0 -0.0151,-0.009 -0.0167,-0.0122 10e-4,-0.0219 0.0726,-0.028 0.11194,-0.0456 0.0151,0.0122 -0.003,0.063 0.0409,0.0596 0.0348,0 0.0666,-0.003 0.10135,-0.003 0.001,0.0562 0.0998,0.14574 0.17547,0.14729 0.0121,0 0.0348,-9.9e-4 0.0469,-9.9e-4 0,0.0326 0.053,0.0342 0.10135,0.0501 0.0469,0.0174 0.12101,0.0645 0.12101,0.0986 0,0.0176 -10e-4,0.0426 -10e-4,0.063 -0.001,0.0486 -0.0166,0.0546 0.0257,0.0866 0.0318,0.022 0.056,0.0456 0.0711,0.0766 0,0.004 0.009,0.0265 0.0196,0.028 0.0136,-0.003 0.0439,-9.9e-4 0.059,-9.9e-4 -0.006,0.009 -0.0454,0.0546 -0.0454,0.0751 0,0.0562 0.0741,0.1254 0.1301,0.1254 0.0121,10e-4 0.0363,0 0.0484,0 -0.0363,-0.0129 0,-0.0561 0,-0.0736 0.001,-0.0205 -0.0121,-0.0751 -0.0197,-0.0866 0,-0.004 0,-0.0144 0,-0.0205 0.0136,0.009 0.0499,0.066 0.0893,0.0751 10e-4,0 0.004,0 0.008,0 0.004,-0.0175 0.0454,-0.0471 0.059,-0.0531 -10e-4,-0.006 -0.009,-0.0176 -0.0136,-0.022 -0.0212,-9.9e-4 -0.11951,-0.063 -0.12102,-0.0691 0,-0.006 0.0106,-0.0174 0.0136,-0.0295 -0.0151,-0.0144 -0.0423,-0.0342 -0.065,-0.0531 0,-0.009 0.0257,-0.028 0.0378,-0.0265 0.0333,9.9e-4 0.0363,0.038 0.0892,0.0361 0.004,-0.016 0.006,-0.0361 0,-0.0531 0.0438,-0.0106 0.0575,-0.0295 0.11345,-0.0326 0.0635,0 0.0635,0.025 0.11799,0.028 0.0439,0.003 0.0696,0.004 0.11346,-0.0106 0.0318,-0.008 0.0953,-0.008 0.12555,-0.0145 0.0121,-0.004 0.0333,-10e-4 0.0439,-0.009 -0.0212,-0.0235 -0.11194,-0.0562 -0.11345,-0.10339 0,-0.0326 0.062,-0.0832 0.0953,-0.10352 0,-0.0175 0,-0.044 -10e-4,-0.0614 0.008,-0.0106 0.009,0.006 0.0212,-0.0342 0,-0.019 0.0348,-0.0326 0.0696,-0.038 -0.001,-0.0106 -0.001,-0.025 -0.004,-0.0359 0.0741,-0.0106 0.0817,-0.0986 0.15733,-0.0986 0.0197,0.001 0.10135,0.0395 0.19816,0.0486 0.0106,0 -0.0696,0.0295 -0.062,0.038 0.0545,0.044 0.1074,0.091 0.13161,0.0926 0.0469,-10e-4 0.2027,-0.0426 0.22993,-0.063 -0.004,10e-4 -0.0938,-0.0126 -0.0938,-0.0126 -0.0106,0 -0.056,-0.008 -0.059,-0.036 0.003,-0.016 0.23749,-0.0721 0.32674,-0.0881 0,0 -0.0439,0.0326 -0.0575,0.0361 0.006,0.0106 0.0998,0.0766 -0.0953,0.10501 0.0953,0.13792 0.45532,0.15988 0.47347,0.35262 0.004,0 0.0106,0 0.0136,-10e-4 v 0 c -0.053,0.0145 -0.0923,0.0486 -0.15884,0.0456 -0.0635,0.001 -0.12404,-0.006 -0.18909,-0.009 -0.0393,-0.001 -0.16488,-0.025 -0.16942,-0.0531 -0.0771,-0.004 -0.0726,-0.0379 -0.16488,-0.0425 -0.059,-9.9e-4 -0.15128,-9.9e-4 -0.19514,0.016 -0.0378,0.0127 -0.0968,0.0455 -0.13917,0.0455 -0.0333,0 -0.0696,-0.003 -0.10589,-10e-4 -0.0121,0 -0.0802,-0.0145 -0.0817,0.0106 -10e-4,0.0145 0.0197,0.008 0.0287,0.0295 -0.0635,0.0191 -0.35701,-0.022 -0.36457,0.0531 10e-4,0.0106 0.0348,0.0122 0.059,0.0122 -0.004,0.0106 0,0.016 0,0.0295 -10e-4,0.0486 -0.0363,0.044 -0.0726,0.066 0.0499,0.022 0.0862,0.0426 0.11799,0.0849 -0.0318,0.0326 0.0651,0.0796 0.0877,0.0986 -0.003,0.004 -0.0212,0.016 -0.0287,0.0191 0.009,9.9e-4 0.0302,9.9e-4 0.0378,0 0.0681,-0.0265 0.0998,0.0562 0.16791,0.0593 0.062,9.9e-4 0.0469,-0.0721 0.1195,-0.0721 0.0741,0.004 0.1422,0.0881 0.21481,0.0927 0.10135,0.001 0.11648,-0.038 0.17094,-0.0751 0.0106,0.0106 0.0348,0.025 0.0696,0.0265 0.0212,0 0.0378,-0.0205 0.0635,-0.0265 10e-4,0.009 10e-4,0.0235 10e-4,0.0326 -0.006,0.004 -0.0227,0.0159 -0.0227,0.031 0.003,0.038 0.0181,0.0829 0.0211,0.13947 0,0.0751 -0.065,0.0866 -0.0847,0.15204 -0.0197,0.066 -0.0287,0.0986 -0.0514,0.17237 -0.003,0.009 -0.0272,0.0106 -0.0287,0.0345 0.008,0.0124 0.0167,0.0395 0.0242,0.0516 -0.003,-0.008 -0.0136,-0.0235 -0.0151,-0.031 -0.0484,0.0129 -0.0514,0.003 -0.10589,0.004 -0.0772,-10e-4 -0.14673,-0.0363 -0.21632,-0.0344 -0.10891,-0.003 -0.0484,0.028 -0.16186,0.031 -0.12404,-0.004 -0.27834,-0.0516 -0.39482,-0.0911 -0.0575,-0.022 -0.13614,0.004 -0.16791,-0.0326 -0.0106,-0.016 -0.053,-0.028 -0.053,-0.0751 -0.0181,-9.9e-4 -0.0499,10e-4 -0.0771,0 -0.003,0 -0.008,-0.004 -0.0106,-0.006 -0.11043,0.0343 -0.1906,0.031 -0.19363,0.13947 0,0.0176 0,0.0456 0,0.0676 0,0.0124 -0.0378,0.0471 -0.0711,0.0501 -0.2617,0 -0.39784,-0.20842 -0.62626,-0.21155 -0.0318,0.003 -0.0635,9.9e-4 -0.0953,0.003 -0.0666,-10e-4 -0.14976,-0.0675 -0.14976,-0.14728 0.003,-0.0501 0.0454,-0.0751 0.0469,-0.12382 0,-0.0235 -0.0393,-0.0377 -0.0409,-0.0691 0.004,-0.041 0.0469,-0.0345 0.0529,-0.085 -0.0151,0.003 -0.0348,0.0205 -0.0499,0.0205 -0.0545,10e-4 -0.0333,-0.0516 -0.0983,-0.0516 -0.0635,0.004 -0.0681,0.0501 -0.13614,0.0516 -0.0363,0.004 -0.0545,-0.0174 -0.0983,-0.0174 -0.0499,0.006 -0.10287,0.0516 -0.14068,0.0546 -0.0212,10e-4 -0.0681,-0.028 -0.11346,-0.0265 -0.14824,0.009 -0.35246,0.091 -0.48104,0.15677 -0.0408,0.0206 -0.10437,0.0591 -0.16942,0.063 -0.10892,0.006 -0.13917,-0.006 -0.21178,-0.0576 -0.0333,0.028 -0.0469,0.10497 -0.0741,0.13947 -0.0151,0.006 -0.0333,0.0235 -0.0529,0.0341 -0.0802,0.10176 -0.15883,0.11914 -0.24355,0.22728 -0.0378,0.0531 -0.0529,0.15199 -0.0469,0.19588 -0.0333,0.0501 -0.0847,0.12693 -0.12707,0.15676 -0.0545,0.036 -0.14976,0.0797 -0.19211,0.14101 -0.0741,0.10817 -0.12556,0.22725 -0.16489,0.35263 -0.0212,0.0516 -0.0787,0.0896 -0.0817,0.15359 -0.003,0.12852 0.0499,0.22255 0.0484,0.36361 0,0.0812 -0.0484,0.23197 -0.10437,0.26954 0.0212,0.0456 0.0635,0.10502 0.0635,0.15048 0,0.022 0.0106,0.0531 0.0136,0.10172 -0.003,0 -0.006,0 -0.008,0 0.009,0.0175 0.0197,0.025 0.0333,0.0441 10e-4,0.0106 0.13917,0.1645 0.15732,0.18175 0.0651,0.0675 0.0832,0.14105 0.13766,0.23666 0.062,0.10339 0.1785,0.0866 0.30254,0.29151 0.008,0.009 0.0514,0.0265 0.0847,0.0295 0.11346,0.003 0.18758,-0.0576 0.31162,-0.0546 0.062,10e-4 0.1422,0.0516 0.18909,0.0546 0.0514,0 0.0605,-0.041 0.11043,-0.0562 0.12101,-0.0358 0.30103,-0.12221 0.46894,-0.12065 0.14068,0.004 0.0287,0.21003 0.12858,0.21942 0.0318,0 0.14522,-0.0142 0.20724,-0.0126 0.11951,10e-4 0.17699,0.0706 0.21783,0.14419 -0.0348,0.0295 -0.0318,0.12695 -0.0318,0.16929 0,0.009 -0.0136,0.022 10e-4,0.0501 -0.0181,0.0106 -0.0756,0.0956 -0.0756,0.13165 0.004,0.15981 0.18909,0.31969 0.2859,0.4294 0.0454,0.0592 0.0348,0.1285 0.0635,0.19747 0.0378,0.0781 0.065,0.12696 0.0923,0.26954 0.0136,0.0691 0.0454,0.10177 0.0484,0.1834 10e-4,0.16453 -0.1785,0.24293 -0.17245,0.45448 0.009,0.19746 0.11042,0.30559 0.21178,0.44826 0.0287,0.0377 0.0666,0.0562 0.0696,0.0971 0,0.0235 0.003,0.0501 0.003,0.0751 0.0106,0.25077 0.0983,0.34168 0.21178,0.431 0.0242,0.0204 0.0892,0.14732 0.15732,0.23349 0.0167,0.0265 0.0197,0.0562 -0.006,0.0781 0.0272,0.0204 0.0272,0.0561 0.0272,0.10813 0.006,0 0.0121,-0.009 0.0318,-0.0107 0.0182,0.0295 0.0484,0.0486 0.10286,0.0501 0.12102,0.003 0.14976,-0.0706 0.28742,-0.0721 0.0348,0 0.053,0.0235 0.0877,0.0235 0.0303,0 0.0545,-0.0122 0.0968,-0.0176 0.0106,-0.0441 0.11799,-0.0205 0.17548,-0.0379 0.13463,-0.0516 0.17547,-0.12225 0.26018,-0.20846 0.0545,-0.0501 0.0968,-0.0531 0.17245,-0.11124 0.0378,-0.0342 0.10136,-0.0971 0.10438,-0.17397 0.001,-0.022 -0.0166,-0.0426 -0.0454,-0.0547 0.0409,-0.0706 -0.0151,-0.0596 0.11043,-0.10502 0.0378,-0.0145 0.10136,-0.011 0.13312,-0.0426 0.0318,-0.0311 0.0484,-0.14575 0.0499,-0.20215 0.003,-0.10974 -0.0772,-0.0831 -0.0756,-0.16141 10e-4,-0.041 0.053,-0.0866 0.10136,-0.0941 0.0499,-0.19751 0.45986,-0.17709 0.48255,-0.41688 -10e-4,-0.0206 -0.006,-0.0426 -0.0242,-0.0596 0.003,-0.0645 0.006,-0.12853 0.009,-0.19904 0.003,-0.0204 0.009,-0.0471 0.0136,-0.0736 0.004,-0.003 0.0257,-0.0326 0.0257,-0.0471 0.001,-0.0595 -0.12253,-0.12856 -0.12253,-0.24139 0.004,-0.0942 -0.0529,-0.17864 -0.0514,-0.28207 0.006,-0.0896 0.0892,-0.11602 0.11799,-0.20063 0.0409,-0.12851 0.1301,-0.11754 0.21329,-0.19123 0.0318,-0.0295 0.0409,-0.1536 0.0756,-0.18174 0.0862,-0.063 0.1785,-0.11914 0.26926,-0.19282 0.12707,-0.10016 0.16186,-0.18804 0.26624,-0.32752 0.0817,-0.11754 0.23447,-0.39649 0.24052,-0.59083 0,-0.016 -0.0121,-0.0295 -0.0227,-0.0501 -0.11648,0.0326 -0.20725,0.0881 -0.33431,0.11124 -0.0499,0.006 -0.0832,-0.016 -0.13312,0.001 -0.0438,0.0142 -0.0469,0.056 -0.0998,0.0578 -0.0575,-10e-4 -0.10287,-0.10813 -0.14522,-0.14419 0.0333,-0.0426 0.003,-0.0486 0.003,-0.10813 -0.11345,-0.001 -0.14219,-0.13951 -0.19665,-0.1834 -0.0635,-0.044 -0.0968,-0.0486 -0.1543,-0.10339 -0.062,-0.0645 -0.0272,-0.14729 -0.0877,-0.2335 -0.0545,-0.0691 -0.1301,-0.14737 -0.1664,-0.24138 -0.001,-0.0611 -0.001,-0.11909 -0.001,-0.18179 -0.053,-0.041 -0.14976,-0.11128 -0.13312,-0.18496 -0.10892,-0.20056 -0.21178,-0.39179 -0.32221,-0.58768 0,-0.0144 -10e-4,-0.041 -10e-4,-0.0562 0.059,0.063 0.1195,0.20535 0.19514,0.22098 0.0106,-0.0341 0.0438,-0.11285 0.0605,-0.16452 -0.008,0.0425 -0.0166,0.0812 -0.0166,0.10495 0,0.008 0.0499,0.0706 0.0605,0.0812 0.0378,0.0615 0.0726,0.0926 0.11648,0.15206 0.0106,0.0142 0.0378,0.0486 0.0499,0.0812 0.004,0.0159 0.003,0.0691 0.0227,0.091 0.009,0.006 0.059,0.009 0.0711,0.0175 0.006,0.009 0.0272,0.0295 0.0439,0.0441 0.0167,0.0645 0.0666,0.0797 0.0696,0.15986 0.004,0.13009 0.0287,0.19748 0.15127,0.22882 10e-4,0.0827 0.0787,0.18964 0.11799,0.23195 0.0363,0.0395 0.11346,0.0781 0.0983,0.15513 -0.004,0.0235 -0.0348,0.0956 0.004,0.10017 0.003,0.066 -0.004,0.13637 0.0272,0.19124 0.0227,0.0341 -10e-4,0.0341 0.003,0.0377 0.008,0.004 0.0983,0.0455 0.10589,0.0471 0.006,-9.9e-4 0.0151,-0.009 0.0212,-0.0122 0.0681,0 0.0817,-0.0547 0.13766,-0.0971 0.0454,0.003 0.0832,0.006 0.12555,0.011 0.0393,-0.022 0.16187,-0.11914 0.20422,-0.13166 0.0741,-0.0205 0.15127,-0.0456 0.22388,-0.0812 -0.004,-0.006 -0.0136,-0.022 -0.0121,-0.031 10e-4,-0.0736 0.17094,-0.0812 0.25867,-0.0986 0,-0.0395 0.056,-0.0925 0.0832,-0.0942 0.0469,10e-4 0.0409,-0.0925 0.0862,-0.0941 0.0333,0 0.0302,-0.0531 0.0423,-0.0926 0.008,-0.038 0.0393,-0.0501 0.0847,-0.0486 0,-0.0796 0.11648,-0.10661 0.11497,-0.18181 -0.003,-0.0235 -0.0424,-0.0235 -0.0575,-0.053 0.001,0 0.001,9.9e-4 0,9.9e-4 -0.0181,-0.0106 -0.0272,-0.0675 -0.0575,-0.0796 -0.0877,-0.0326 -0.14219,-0.0486 -0.18909,-0.1473 -10e-4,-0.0395 -0.004,-0.0766 -0.004,-0.11913 -0.10892,0.083 -0.10892,0.21156 -0.32221,0.20685 -0.0499,-0.003 -0.12707,-0.0265 -0.1316,-0.0736 0,-0.041 0.0197,-0.066 0.0181,-0.10499 -0.001,-0.008 -0.004,-0.0265 -0.004,-0.0363 -0.0348,0.006 -0.0242,0.0471 -0.062,0.0561 -0.003,-0.0235 -0.0212,-0.0395 -0.0242,-0.0766 -0.0726,-0.022 -0.16943,-0.163 -0.19212,-0.24132 -0.006,-0.0205 -0.006,-0.0456 -0.009,-0.0751 0,-0.0501 0.0136,-0.10172 0.0605,-0.10172 0.0923,0.004 0.16337,0.10814 0.20119,0.18182 0.006,0.009 0,0.038 0.0166,0.0577 0.0378,0.038 0.0847,0.022 0.12556,0.063 0.0333,0.0341 0.059,0.0751 0.10892,0.0956 0.0514,0.003 0.10135,0.003 0.15278,0.008 0.0136,-0.0176 0.0257,-0.0456 0.062,-0.0456 0.0635,0.004 0.0681,0.0986 0.0968,0.13326 10e-4,0.003 0.0908,0.0326 0.10437,0.0341 0.0802,0.004 0.20422,0.0486 0.26019,0.0531 0.004,-10e-4 0.009,0 0.0136,0 0.0167,0.003 0.0378,0.008 0.0575,0.013 0.003,-0.006 0.0136,-0.013 0.0242,-0.0205 0.0212,0.008 0.0454,0.0174 0.0711,0.0265 0.0272,0 0.059,-0.0122 0.0938,-0.0106 0.0287,0.003 0.0499,-9.9e-4 0.0787,0.009 0.0348,0.016 0.0514,0.0866 0.0741,0.12854 0.0302,0.0486 0.10437,0.11442 0.15429,0.11755 0.0212,0.001 0.0363,0.004 0.0575,0.0106 -0.009,0.0129 -0.0106,0.0379 -0.0303,0.0441 -0.0227,0.008 -0.0393,-0.009 -0.062,0.008 0.0393,0.0516 0.0726,0.14418 0.14824,0.15049 0.0635,9.9e-4 0.0681,-0.0691 0.0983,-0.10662 0.008,-9.9e-4 0.0121,0 0.0181,10e-4 0.001,0.009 -0.0136,0.0341 -0.0121,0.041 0.003,0.0426 0.0272,0.0781 0.0287,0.12695 0,0.0395 -0.0106,0.044 -0.0106,0.0866 0,0 -10e-4,-10e-4 -10e-4,-10e-4 0,0.008 0.004,0.0358 0.004,0.044 -10e-4,0.0576 0.0272,0.11595 0.0423,0.17863 0.0151,0.0691 0.0393,0.1614 0.0499,0.20686 0.0121,0.0395 0.0106,0.0594 0.0287,0.0986 0.0167,0.0358 0.008,0.0751 0.0242,0.12384 0.0106,0.0205 0.0409,0.0531 0.0484,0.0971 0.0151,0.066 0.0393,0.12069 0.0529,0.19277 0.001,0.008 0.006,0.028 0.0182,0.0295 0.003,0.0176 0.0136,0.0326 0.0318,0.028 0.0212,10e-4 0.0227,-0.0363 0.0287,-0.063 0.0136,-0.0311 0.0136,-0.0175 0.0409,-0.036 0.0197,-0.0128 0.0121,-0.0881 0.0409,-0.10178 0.008,-0.003 0.0212,-0.004 0.0212,-0.0125 0.003,-10e-4 0.006,0 0.0106,-0.003 -0.003,-0.022 -0.008,-0.0501 -0.0106,-0.0766 0.003,-0.0546 0.0257,-0.10175 0.0257,-0.1787 0,-0.0455 -0.0151,-0.11437 -0.0151,-0.16613 0,-0.063 0.0423,-0.0456 0.0771,-0.066 0.0182,-0.004 0.0333,-0.041 0.0499,-0.0675 0.0333,-0.0561 0.0666,-0.11755 0.0998,-0.17712 0.0257,-0.0471 0.0771,-0.0596 0.10589,-0.10973 0.0151,-0.028 0.009,-0.0576 0.0136,-0.10017 0.009,-0.0265 0.0378,0.009 0.0484,-0.0326 0.0121,0.022 0.0121,0.0295 0.0393,0.0342 0.0378,0.003 0.0771,-0.008 0.0741,-0.0941 0.0197,0.0106 0.0469,0.031 0.0545,0.0736 0.0106,0.031 0.006,0.0781 0.0197,0.11597 0.0106,0.0361 0.0302,0.063 0.0469,0.0971 0.0197,0.0471 0.0212,0.0531 0.0348,0.11132 0.001,0.0125 0.009,0.022 0.009,0.0341 -10e-4,0.0295 -0.006,0.0441 -0.003,0.0781 10e-4,0.0375 -0.001,0.0593 0.0167,0.0611 0.0333,-0.001 0.0438,-0.066 0.062,-0.11126 0.009,0.0205 0.006,0.025 0.0106,0.0426 0.006,0.003 0.0121,-9.9e-4 0.0136,0.0145 0.0121,0.041 -0.0242,0.11132 0.009,0.11755 10e-4,0.0831 0.0212,0.20063 0.0212,0.31817 -0.001,0.0265 -0.0151,0.0766 -0.003,0.0986 0.003,0 0,0 -0.003,0 0,0 0,0 -0.003,0 -0.006,0.0342 -0.0106,0.0691 -0.0136,0.10502 0,0.006 0.004,0.016 0,0.016 0,10e-4 10e-4,0.003 0.003,0.004 10e-4,-0.003 0.004,-0.004 0.0106,-0.006 0.0423,0.003 0.0212,0.0866 0.0242,0.1222 0.006,0.0546 0.008,0.10974 0.008,0.18027 10e-4,0.0106 10e-4,0.022 0.003,0.0295 0.009,-0.0751 0.0167,-0.15359 0.0227,-0.23039 -0.004,-0.008 -0.0106,-0.0174 -0.0136,-0.0265 -0.003,-0.025 -0.003,-0.0615 -0.006,-0.0796 10e-4,0 0,0 10e-4,0 0,-0.0751 -0.0242,-0.0471 -0.0227,-0.12543 0.003,-0.0736 0.0167,-0.10016 0.0197,-0.18333 0.001,-0.022 0.0106,-0.0547 0.0106,-0.0781 0,-0.0127 -0.0136,-0.0295 0.006,-0.0295 0.0272,0 0.0197,0.004 0.0227,0.0341 0,0 0,0.0345 0.004,0.0345 0.001,10e-4 0.001,10e-4 0.001,10e-4 0,-0.0205 10e-4,-0.038 10e-4,-0.0562 0.003,-1.68479 -0.6898,-3.20191 -1.7956,-4.26446 z m -1.13151,1.6252 c -0.0227,-9.9e-4 -0.0454,0.044 -0.0484,0.0781 0.0635,0.016 0.0968,0.044 0.10136,0.0896 0,0.016 0.003,0.041 0.003,0.0562 0.001,0.0176 0.003,0.0645 0.006,0.0691 10e-4,0.0145 10e-4,0.0395 0.003,0.0546 -0.0408,0.008 -0.0847,0.009 -0.13917,0.008 -0.0378,-0.004 -0.11648,-0.003 -0.14219,-0.0295 -0.0151,-0.016 -0.0287,-0.0486 -0.056,-0.0594 -0.0363,-0.006 -0.0741,-0.0341 -0.0938,-0.063 -0.0182,-0.031 0.006,-0.0471 -0.0212,-0.0766 -0.0136,-0.0144 -0.0408,-0.0205 -0.0423,-0.0441 0.0121,0 0.0318,0.006 0.0439,0.008 0.0363,-0.0395 0.0318,-0.0911 0.0771,-0.10657 -0.0862,-0.0441 -0.21783,-0.1912 -0.22842,-0.27113 0,-0.0205 -0.0726,-0.0615 -0.0741,-0.0971 -10e-4,-0.0106 0.0499,-0.0895 0.065,-0.10339 0.0106,0.008 0.10438,-0.022 0.11345,-0.0235 0.0772,-0.0175 0.11194,-0.0326 0.2133,-0.0265 0.15883,0.022 0.19363,0.0896 0.26321,0.163 -0.0438,0.0205 -0.0998,-0.009 -0.1543,-0.016 -0.0756,-0.008 -0.19514,0.0359 -0.2027,0.0359 0.008,0.0471 0.0529,0.0486 0.0741,0.0751 0.065,0.0812 0.15278,0.10654 0.16337,0.19902 0.0212,-0.006 0.0741,-0.0235 0.0983,-0.025 0.004,0.0395 0.062,0.0751 0.0635,0.11284 -0.0257,-0.003 -0.0545,-0.004 -0.0862,-0.008 z"
       id="path24-8-1"
       style="fill:#f0f0f0;fill-opacity:1;stroke-width:0.0153973" />
    <path
       d="m 394.42743,530.44539 c -0.006,10e-4 -0.009,0 -0.0151,0 0,10e-4 0,10e-4 10e-4,0.003 0.003,-0.004 0.008,9.9e-4 0.0136,-0.003 z"
       id="path26-5-2"
       style="fill:#f0f0f0;fill-opacity:1;stroke-width:0.0153973" />
    <path
       d="m 394.15968,530.3796 c 0.0227,0.004 0.0348,0.0106 0.0605,0.0176 -0.0121,-9.9e-4 -0.0227,-9.9e-4 -0.0348,-9.9e-4 0.0136,0.004 0.0303,0.008 0.0454,0.009 -0.0167,10e-4 -0.0333,-0.003 -0.0514,-0.003 0.0106,0.008 0.0318,0.0145 0.0711,0.022 0.009,0.004 0.0166,0.0106 0.0302,0.0125 0.0227,0.004 0.0227,-0.006 0.0454,-0.006 0.0333,10e-4 0.0545,0.0106 0.0862,0.016 0.003,0 10e-4,-0.004 -0.003,-0.004 0.009,-0.001 0.0167,10e-4 0.0257,0.004 0.0272,-0.001 0.062,0.0265 0.062,10e-4 -0.0167,-0.003 -0.0454,-0.016 -0.0771,-0.0235 -0.0348,-0.009 -0.0499,-0.003 -0.0877,-0.009 -0.0469,-0.009 -0.0817,-0.025 -0.14976,-0.038 -0.0529,-0.0106 -0.17396,-0.0265 -0.19362,-0.022 0.0212,0.006 0.0363,0.009 0.059,0.0122 0.0378,0.006 0.0817,0.008 0.11194,0.0122 z"
       id="path28-6-7"
       style="fill:#f0f0f0;fill-opacity:1;stroke-width:0.0153973" />
    <path
       d="m 394.81923,530.55352 c 0.004,0 0.0121,0.008 0.0257,0.0106 0.0227,0.008 0.0272,0.016 0.0318,0.003 0.0151,0.008 0.0363,0.016 0.0499,0.0206 0.0242,0.006 0.0272,0.003 0.0438,0.004 -0.0121,-0.006 -0.0287,-0.014 -0.0409,-0.022 -0.0257,-0.006 -0.11497,-0.0341 -0.11043,-0.0176 z"
       id="path30-1-0"
       style="fill:#f0f0f0;fill-opacity:1;stroke-width:0.0153973" />
    <path
       d="m 394.88275,530.54889 c -0.0197,-0.0106 -0.0408,-0.0205 -0.0605,-0.0295 -0.0318,-0.008 -0.062,-0.019 -0.0938,-0.0265 -0.0121,-9.9e-4 -0.0151,-9.9e-4 -0.0287,0 0.004,-9.9e-4 0.10741,0.0395 0.12254,0.044 0.0211,0.006 0.0408,0.009 0.0605,0.0129 z"
       id="path32-1-9"
       style="fill:#f0f0f0;fill-opacity:1;stroke-width:0.0153973" />
    <path
       d="m 394.79653,530.50814 c -0.006,-0.003 -0.0106,-0.004 -0.0136,-0.008 0,0.003 10e-4,10e-4 0.003,0.008 0.004,0 0.008,0 0.0106,0 z"
       id="path34-5-3"
       style="fill:#f0f0f0;fill-opacity:1;stroke-width:0.0153973" />
    <path
       d="m 391.46252,530.36237 c -0.0167,0.0159 0.0257,0.0174 0.0741,0.0205 -0.008,10e-4 -0.0151,10e-4 -0.0227,0.003 0.0151,0.008 0.0409,0.0106 0.0862,0.004 0.0575,-0.006 0.062,-0.022 0.0847,-0.028 0.006,0.003 0.0166,0 0.0227,-10e-4 0.0106,0.003 0.0363,0.006 0.0409,0.004 0.0212,-0.003 0.0469,-0.004 0.0726,-0.004 -0.0333,0.0106 -0.10741,0.0235 -0.14522,0.0295 -0.0136,-10e-4 -0.0771,0.003 -0.0802,0.014 0,0.031 0.0711,0.006 0.10589,10e-4 0.0182,-10e-4 0.10892,-0.006 0.12556,-0.003 -0.0333,0.003 -0.0635,0.004 -0.0938,0.0125 0,0 -0.062,9.9e-4 -0.10286,0.006 0.001,0.028 0.14673,0.0295 0.2148,0.0395 0.0423,-0.0145 0.0363,-0.038 0.0862,-0.0501 0.0136,-10e-4 0.0348,-0.004 0.0439,-0.009 0.0318,-0.0235 0.0605,-0.0546 0.15883,-0.063 0,0 0.0212,0.009 0.0681,0.009 -0.0121,0 -0.0272,10e-4 -0.0393,0.003 0.0136,0.004 0.0348,0.0206 0.056,0.022 -0.0106,0.0174 -0.0348,0.008 -0.0439,0.025 0.0378,10e-4 0.0953,0 0.13009,0 -0.009,0.003 -0.009,0.004 -0.003,0.0143 0.0741,-0.006 0.10287,-0.0175 0.18002,-0.028 -0.0272,-0.008 -0.10438,-0.003 -0.10741,-0.0295 -0.0302,0 -0.059,0 -0.0892,0 0.008,-0.003 0.006,-0.006 0,-0.0127 -0.0182,0.003 -0.0287,0 -0.0514,0 0.008,0 0.0197,0 0.0287,-10e-4 -0.0272,-0.009 -0.17699,-0.028 -0.22388,-0.0265 -0.008,0 -0.0197,0 -0.0272,0 0.009,-0.006 0.0121,-0.019 -0.0318,-0.0176 -0.0197,9.9e-4 -0.0287,0.006 -0.0499,0.0106 -0.001,-0.009 0.004,-0.008 0.009,-0.016 -10e-4,-0.0122 -0.0726,-0.008 -0.10892,-0.009 -0.0378,9.9e-4 -0.0544,-0.004 -0.0575,0.0144 -0.003,0.025 0.0136,0.022 0.0303,0.0326 -0.0711,-0.003 -0.0454,-0.028 -0.12102,-0.0265 -0.0227,0 -0.0454,0.004 -0.0484,0.016 0.004,0.003 0.006,0.003 0.009,0.008 -0.0166,-0.004 -0.0409,-10e-4 -0.0651,-0.004 0.009,-0.006 0.0212,-0.009 0.0348,-0.0145 -0.062,0.003 -0.0908,0.006 -0.13614,0.008 -0.0272,10e-4 -0.0862,0.0235 -0.0983,0.028 0.0196,0.004 0.0438,0.0124 0.065,0.0106 0.006,0.004 0.0121,0.006 0.0197,0.008 z"
       id="path36-9-6"
       style="fill:#f0f0f0;fill-opacity:1;stroke-width:0.0153973" />
    <path
       d="m 392.09029,530.28558 c 0.004,0 0.12101,-10e-4 0.1316,-10e-4 -0.0121,0.003 -0.0423,10e-4 -0.0696,0.006 -0.004,0 -0.0363,10e-4 -0.056,10e-4 0.008,0.008 0.0106,0.0106 0.0363,0.0106 0.0545,0 0.10437,-0.004 0.15883,-0.003 0.0212,0.0106 0.0484,0.0145 0.0983,0.0125 0.0817,-10e-4 0.21934,-0.025 0.28741,-0.038 -0.0212,-0.004 -0.0681,-0.0235 -0.12555,-0.022 -0.0302,0 -0.059,0 -0.0908,0 -0.0423,0 -0.059,0.008 -0.0832,0.008 -0.009,-0.004 -0.003,-10e-4 0,-0.019 -0.0106,0 -0.0242,0 -0.0333,0 -0.0136,0.004 -0.0348,0.0176 -0.0696,0.019 -0.0121,0 -0.0953,-0.008 -0.11043,-0.0122 -0.0272,10e-4 -0.0499,0.003 -0.0787,0.003 0.006,10e-4 0.009,0.004 0.0136,0.008 -0.0151,0 -0.0333,0 -0.0484,0.001 0.003,0 0.003,0.004 0,0.004 -0.0151,0 -0.0393,0 -0.0545,0 -0.0121,0 -0.0287,0 -0.0409,9.9e-4 10e-4,0.0145 0.0182,0.0106 0.0409,0.016 -0.0136,0.0265 0.0439,0.004 0.0938,0.003 z"
       id="path38-8-0"
       style="fill:#f0f0f0;fill-opacity:1;stroke-width:0.0153973" />
    <path
       d="m 391.3778,530.37801 c 0,-10e-4 0.001,-10e-4 0,-10e-4 0,0 -0.003,0 -0.004,0 10e-4,10e-4 0.003,10e-4 0.004,10e-4 -10e-4,0 -0.003,0 -0.004,-10e-4 -0.0439,0.0106 0.0318,0.025 0.0862,0.025 -0.0211,-0.022 -0.0499,-0.016 -0.0817,-0.0235 z"
       id="path40-4-6"
       style="fill:#f0f0f0;fill-opacity:1;stroke-width:0.0153973" />
    <path
       d="m 389.47027,532.3245 c 0.0151,0 0.0409,-0.009 0.0545,-0.0159 0.0212,-0.0145 0.062,-0.0516 0.10891,-0.0594 0.0257,-0.006 0.059,-0.006 0.0756,-0.022 0.0272,-0.0176 0.009,-0.0395 0.0106,-0.0546 0.001,-0.022 0.006,-0.0426 0.0106,-0.066 0.004,-0.0145 0.0499,-0.022 0.0545,-0.038 0,-0.0341 -0.0182,-0.0721 -0.0847,-0.063 -0.0151,0.003 -0.0333,0.004 -0.0469,0.008 -0.0272,0.003 -0.0862,0.036 -0.0892,0.0501 0,0.009 10e-4,0.0106 0.0121,0.0219 -0.0167,0.0106 -0.0696,0.0326 -0.0847,0.0363 -0.008,0.003 -0.0287,0 -0.0333,0.0265 -10e-4,0.0206 0.0197,0.028 0.0454,0.031 -0.0212,0.0486 -0.0877,0.063 -0.0968,0.11283 -10e-4,0.0206 0.0302,0.038 0.0635,0.031 z"
       id="path42-8-2"
       style="fill:#f0f0f0;fill-opacity:1;stroke-width:0.0153973" />
    <path
       d="m 389.79096,531.7619 c -0.0196,0.006 -0.0681,0.022 -0.0726,0.031 0,0.008 0.004,0.0206 0.0121,0.019 0.0302,-0.006 0.0575,-0.028 0.0605,-0.0501 z"
       id="path44-1-6"
       style="fill:#f0f0f0;fill-opacity:1;stroke-width:0.0153973" />
    <path
       d="m 389.81215,531.85122 c 0,0.006 0,0.0106 -0.003,0.0145 0.001,0 -0.0227,0.0174 -0.0242,0.0265 -10e-4,0.008 0.0242,0.009 0.0409,0.008 0,0.006 -10e-4,0.0106 -0.003,0.0175 -0.003,0.004 -0.009,0.0106 -0.0136,0.0145 0,0.009 -0.003,0.0205 -0.004,0.031 0.008,0 0.0151,-9.9e-4 0.0227,-0.004 -0.006,-0.008 -0.0121,-0.009 0.004,-0.028 0.008,0.006 0.0227,0.004 0.0469,10e-4 -0.0106,0.0122 -0.004,0.016 -0.004,0.0361 -0.006,0.0144 -0.0302,0.0295 -0.0333,0.0441 0,0.016 0.0167,0.0122 0.0438,0.008 0.0212,-0.004 0.0393,-0.0143 0.0681,-0.0206 0.009,0 0.0197,0 0.0257,-9.9e-4 -0.004,0.008 -0.0227,0.016 -0.0242,0.0295 -0.003,0.0205 0.0378,0.0176 0.0681,0.0106 -0.001,0.009 -0.003,0.0205 -0.004,0.0295 -0.0166,0.022 -0.0832,0.0486 -0.13766,0.0546 -0.001,0.0205 0.0212,0.0265 0.0151,0.0546 -0.003,0.031 -0.0832,0.041 -0.0892,0.0736 0,0.003 0.008,0.006 0.0121,0.006 0.0136,0 0.0106,-0.0106 0.0318,-0.0129 0.0318,-0.006 0.0378,0.016 0.0787,0.0129 0.0182,-0.006 0.0424,-0.0106 0.056,-0.0265 0,0.004 0.001,0.009 0.004,0.0142 -10e-4,0.0311 -0.062,0.025 -0.10438,0.0395 -0.008,0.003 -0.10589,0.0812 -0.11194,0.0881 -0.003,0.003 -0.003,0.009 -0.001,0.013 0.006,-10e-4 0.0151,-10e-4 0.0212,-10e-4 0.0106,-0.009 0.0227,-0.022 0.0439,-0.022 0.0106,-0.006 0.0287,-0.003 0.0409,-0.006 10e-4,-0.016 0.0227,-0.0359 0.0529,-0.041 0.0182,-0.003 0.0318,0.008 0.0514,0.004 0.0454,-0.008 0.12857,-0.0326 0.16034,-0.0377 0.0438,-0.003 0.0787,-0.008 0.12253,-0.0129 0.0348,-0.006 0.059,-0.0206 0.0908,-0.0395 0,-0.004 10e-4,-0.0111 10e-4,-0.0145 -0.0151,10e-4 -0.0302,0.003 -0.062,-10e-4 0.0303,-0.028 0.0998,-0.0561 0.10741,-0.091 0,-0.0205 -0.0242,-0.0326 -0.062,-0.031 -0.0212,0.003 -0.0166,0 -0.0393,0.0124 0.003,-0.003 0.0121,-0.006 0.0151,-0.009 -0.0106,0.003 -0.0167,0.0106 -0.0378,0.0176 0,-0.004 10e-4,-0.009 10e-4,-0.0125 0.008,-10e-4 0.0167,-0.009 0.0167,-0.016 0.003,-0.0159 -0.0303,-0.022 -0.0287,-0.0395 0.006,-0.0501 -0.0711,-0.0501 -0.11496,-0.0751 -0.0348,-0.0206 -0.0167,-0.066 -0.0726,-0.0691 -0.0212,-9.9e-4 -0.0409,0.008 -0.0681,0.008 0.004,-0.008 0.0151,-0.0175 0.0272,-0.019 0.006,-0.0425 0.0998,-0.0721 0.0953,-0.12538 -0.0575,0.008 -0.11194,0.016 -0.17245,0.025 -0.003,-0.004 -0.006,-0.006 -0.006,-0.0127 0.0106,-0.028 0.0756,-0.0326 0.0787,-0.0593 0,-0.003 -0.0151,-0.0125 -0.0257,-0.0106 -0.0287,0.004 -0.056,0.0106 -0.0832,0.0144 -0.0151,0.003 -0.0454,0.022 -0.0484,0.0295 -0.001,0.0106 -0.0136,0.0176 -0.0167,0.0326 -0.0182,0.004 -0.0393,0.0145 -0.0423,0.028 0,0.004 0.006,0.009 0.0121,0.009 0,0.003 -0.009,0.0106 -0.0136,0.0128 -0.004,-10e-4 -0.0182,-10e-4 -0.0166,-0.0128 -0.0136,10e-4 -0.0318,0.003 -0.0454,0.008 -0.008,0.0235 0.0151,0.0265 0.0575,0.0235 z"
       id="path46-0-1"
       style="fill:#f0f0f0;fill-opacity:1;stroke-width:0.0153973" />
    <path
       d="m 389.8908,532.04716 c -0.004,-10e-4 -0.0106,9.9e-4 -0.0136,0.003 -0.0136,0.006 -0.0242,0.016 -0.0242,0.0265 0.009,-10e-4 0.0227,-0.004 0.0318,-0.004 0.003,-0.009 0.004,-0.0176 0.006,-0.025 z"
       id="path48-3-8"
       style="fill:#f0f0f0;fill-opacity:1;stroke-width:0.0153973" />
    <path
       d="m 389.25697,531.41868 c -0.0242,0.009 -0.0409,0.0106 -0.0378,-0.004 -0.0106,0.004 -0.008,0.009 -0.0272,0.008 -0.004,0.008 -0.0106,0.0106 -0.0167,0.0235 -0.0272,-0.009 -0.0514,0.0175 -0.0817,0.0295 -0.0227,0.006 -0.0363,0.009 -0.0726,0.0205 0,0.004 -0.004,0.008 -0.004,0.0145 -0.0106,10e-4 -0.0106,-0.004 -0.0287,10e-4 -0.0212,0.008 -0.0363,0.0176 -0.0575,0.0265 -0.0151,0.006 -0.0121,0 -0.0257,-9.9e-4 -0.008,0.008 -0.006,0.003 -0.006,0.0175 -0.0121,0.004 -0.0272,0.0191 -0.0424,0.022 -0.0167,0.009 -0.0287,-10e-4 -0.0227,-0.0145 0,-0.0106 -0.006,-0.004 -0.006,-0.016 -0.006,10e-4 -0.0106,0.004 -0.0166,0.006 -0.0212,0.008 -0.0257,0.0235 -0.0439,0.0295 0,0.004 -0.003,0.006 -0.003,0.0109 -0.0167,0.003 -0.0197,0.004 -0.0409,0.0145 0,0.0205 0.0711,-10e-4 0.0968,-0.013 0,0.004 -0.003,0.008 0.004,0.008 -0.0257,0.0145 -0.0832,0.044 -0.11497,0.0546 0.0287,0.0145 0.0545,-0.0204 0.0893,-0.0295 -0.009,0.0205 -0.0212,0.0265 -0.0257,0.0456 -0.008,0.003 -0.0136,0.009 -0.0227,0.0145 0.0484,-0.0174 0.059,-0.003 0.0877,-0.0106 0.062,-0.006 0.11043,-0.016 0.19968,-0.041 0.0847,-0.025 0.13009,-0.063 0.19665,-0.091 0.0318,-0.016 0.10135,-0.0546 0.12707,-0.0812 0.003,0 0.004,-0.003 0.006,-0.003 0.0106,-0.0395 -0.0832,-0.004 -0.0711,-0.0455 0,-0.004 0.0121,-0.0106 0.0197,-0.0176 -0.0212,0.004 -0.0363,0.016 -0.059,0.022 z"
       id="path50-0-7"
       style="fill:#f0f0f0;fill-opacity:1;stroke-width:0.0153973" />
    <path
       d="m 389.04217,531.15066 c -0.0197,0.016 -0.0378,0.0295 -0.0575,0.0456 0.0272,-0.0144 0.0545,-0.028 0.0711,-0.0456 -0.008,10e-4 -0.0121,10e-4 -0.0136,0 z"
       id="path54-4-9"
       style="fill:#f0f0f0;fill-opacity:1;stroke-width:0.0153973" />
    <path
       d="m 388.78198,531.42809 c 0.0378,-0.025 0.0575,-0.0295 0.0923,-0.0546 -0.0287,0.0106 -0.12707,0.0562 -0.17245,0.0675 -0.0469,0.044 -0.0923,0.0866 -0.13765,0.13005 0.0197,-0.0106 0.0393,-0.0235 0.062,-0.036 0.056,-0.0326 0.0877,-0.0691 0.15581,-0.10653 z"
       id="path56-4-2"
       style="fill:#f0f0f0;fill-opacity:1;stroke-width:0.0153973" />
    <path
       d="m 389.11176,531.09738 c -0.0182,0.0145 -0.0348,0.0265 -0.0529,0.041 0.0348,-0.0175 0.0696,-0.0395 0.0847,-0.0531 -0.008,0.003 -0.0197,0.008 -0.0318,0.0123 z"
       id="path58-4-0"
       style="fill:#f0f0f0;fill-opacity:1;stroke-width:0.0153973" />
    <path
       d="m 388.94233,531.24157 c 0.004,-0.008 -0.001,-0.004 -0.0136,9.9e-4 -0.0197,0.016 -0.0378,0.0326 -0.0575,0.0471 0.0106,-0.004 0.0196,-0.009 0.0303,-0.0122 0.0272,-0.016 0.0348,-0.022 0.0409,-0.0361 z"
       id="path60-4-2"
       style="fill:#f0f0f0;fill-opacity:1;stroke-width:0.0153973" />
    <path
       d="m 388.87426,531.35911 c 0.0212,-0.008 0.0499,-0.022 0.059,-0.0326 0.0121,-0.0343 -0.0272,-0.0326 -0.0711,-0.0265 -0.0257,0.022 -0.0514,0.0455 -0.0756,0.0675 0.0227,-0.001 0.0167,0.0205 0.0877,-0.008 z"
       id="path62-7-3"
       style="fill:#f0f0f0;fill-opacity:1;stroke-width:0.0153973" />
    <path
       d="m 389.26605,531.01429 c -0.0136,0.003 -0.0227,0.006 -0.0348,0.0129 0,-0.006 0.004,-0.004 0.004,-0.0106 -0.0121,0.004 -0.0212,0.008 -0.0318,0.0122 -0.0106,0.008 -0.0212,0.0145 -0.0302,0.0235 0,0.004 0.006,0.004 0.0197,10e-4 0.0227,-0.0145 0.0605,-0.0346 0.0726,-0.0395 z"
       id="path64-6-7"
       style="fill:#f0f0f0;fill-opacity:1;stroke-width:0.0153973" />
    <path
       d="m 391.53058,533.2962 c -0.0514,-0.008 -0.0711,0.022 -0.11647,0.022 -0.0469,0 -0.0741,-0.0342 -0.14825,-0.004 0,0.006 -10e-4,0.016 0,0.022 0.009,0.009 0.0393,0.0106 0.0469,0.0122 0.0544,0.016 0.0938,0.0596 0.1543,0.0721 -0.004,0.006 0.0197,0.0126 0.0272,0.0106 0.008,0 0.0197,-0.0145 0.0212,-0.0206 -0.001,-0.019 -0.0151,-0.0265 -0.0151,-0.0471 0,-0.009 0.0182,-0.0326 0.0182,-0.0326 0,-0.009 0.008,-0.0265 0.0121,-0.0341 z"
       id="path66-3-5"
       style="fill:#f0f0f0;fill-opacity:1;stroke-width:0.0153973" />
    <path
       d="m 391.01021,532.88248 c -0.008,0 -0.0106,-0.019 -0.0106,-0.0295 -0.0121,0.004 -0.0318,0.028 -0.0529,0.0311 -0.006,0.003 -0.0166,0.003 -0.0227,0.008 0.0136,0.0174 0.0212,0.10017 0.053,0.10501 0.004,-0.016 0.0227,-0.0781 0.0333,-0.11443 z"
       id="path68-1-9"
       style="fill:#f0f0f0;fill-opacity:1;stroke-width:0.0153973" />
    <path
       d="m 390.92247,533.11446 c -0.003,0.016 -0.0166,0.0361 -0.0227,0.0576 -10e-4,0.0205 -0.004,0.0591 0.0303,0.0591 0.0212,-0.003 0.0877,-0.044 0.0908,-0.0847 10e-4,-0.0471 0.0106,-0.0706 -0.0151,-0.11597 -0.008,-10e-4 -0.0197,-0.016 -0.0423,-0.0144 -0.0227,0.003 -0.0333,0.028 -0.0711,0.0395 10e-4,0.019 0.0302,0.0343 0.0302,0.0576 z"
       id="path70-7-2"
       style="fill:#f0f0f0;fill-opacity:1;stroke-width:0.0153973" />
    <path
       d="m 390.41722,533.17555 c -0.0136,0.004 -0.0318,0.0126 -0.0514,0.0235 0.003,0 0.0287,0.0235 0.0393,0.022 0.008,0 0.0242,-0.009 0.0257,-0.016 0.003,-0.006 -0.0136,-0.025 -0.0136,-0.0295 z"
       id="path72-5-2"
       style="fill:#f0f0f0;fill-opacity:1;stroke-width:0.0153973" />
    <path
       d="m 391.22048,531.84811 c 10e-4,-0.0122 -0.0136,-0.009 -0.0121,-0.025 -0.0106,0 -0.0287,10e-4 -0.0393,0.003 -0.001,0.003 -0.001,0.008 -0.001,0.0106 -10e-4,0.013 0.0227,0.0175 0.0469,0.013 0,0.003 0,0.006 0,0.009 10e-4,-10e-4 0.004,0 0.006,-0.0106 z"
       id="path74-9-8"
       style="fill:#f0f0f0;fill-opacity:1;stroke-width:0.0153973" />
    <path
       d="m 391.24165,531.85592 c -10e-4,10e-4 -0.008,0.006 -0.0106,0.008 0.001,0 0.0166,0.006 0.0287,0.006 0.0484,0 0.0318,-0.0455 0.0681,-0.0547 -0.009,-0.0204 -0.0106,-0.031 -0.0529,-0.0295 -0.0106,10e-4 -0.0409,0.0341 -0.0409,0.0395 0,0.008 0.0211,0.0159 0.0423,0.0174 0,0.006 -0.0181,0.0144 -0.0302,0.0189 -0.003,-0.003 -0.004,-0.003 -0.004,-0.004 z"
       id="path76-6-9"
       style="fill:#f0f0f0;fill-opacity:1;stroke-width:0.0153973" />
    <path
       d="m 391.89515,531.66007 c 0.008,-9.9e-4 0.0378,-0.009 0.0378,-0.0145 0,-0.004 0,-0.009 0,-0.0145 0.003,0 0.0136,-0.0106 0.0166,-0.0159 -0.006,-0.003 -0.0166,-0.008 -0.0227,-0.0106 0,0 -0.0212,0.006 -0.0197,0.0124 -10e-4,0.004 0.009,0.009 0.0136,0.0145 -0.0136,0.003 -0.0333,0.009 -0.0469,0.0106 -10e-4,0.006 0.006,0.0175 0.0212,0.0175 z"
       id="path78-2-7"
       style="fill:#f0f0f0;fill-opacity:1;stroke-width:0.0153973" />
    <path
       d="m 392.59402,533.57053 c -0.0605,-0.016 -0.13916,-0.031 -0.21783,-0.019 0.0408,0.0175 0.10287,0.0235 0.13161,0.025 0.0182,-9.9e-4 0.0393,0.016 0.0862,-0.006 z"
       id="path80-1-3"
       style="fill:#f0f0f0;fill-opacity:1;stroke-width:0.0153973" />
    <path
       d="m 393.35643,533.58456 c 0.004,-0.008 -10e-4,-0.0265 0.008,-0.0295 0.0151,-0.006 0.0363,0.003 0.0424,-0.025 -0.0575,0.006 -0.14371,0.0341 -0.19666,0.0546 10e-4,0.004 0.0121,0.0145 0.0166,0.0145 0,0.008 0.0167,0.016 0.0242,0.016 0.0318,0 0.0953,-0.016 0.10589,-0.0295 z"
       id="path82-7-6"
       style="fill:#f0f0f0;fill-opacity:1;stroke-width:0.0153973" />
    <path
       d="m 395.25488,535.88999 c 0.0197,0 0.0514,-0.0341 0.0545,-0.0456 -0.0409,0 -0.062,0.008 -0.0892,0.019 10e-4,0.0145 0.0272,0.0265 0.0348,0.0265 z"
       id="path84-8-1"
       style="fill:#f0f0f0;fill-opacity:1;stroke-width:0.0153973" />
    <path
       d="m 394.43802,530.97513 c -0.004,-0.001 -0.0318,0.0109 -0.0302,0.0176 0.003,0.0129 0.0166,0.016 0.0499,0.0206 0.0454,0.0127 0.0756,0.006 0.11043,9.9e-4 0.003,-0.004 0,-0.008 -10e-4,-0.0125 -0.0393,-0.0106 -0.059,-0.025 -0.0968,-0.031 -0.0136,-10e-4 -0.0197,0.004 -0.0318,0.004 z"
       id="path86-5-2"
       style="fill:#f0f0f0;fill-opacity:1;stroke-width:0.0153973" />
    <path
       d="m 395.17017,531.08486 c 0,0.016 0.062,0.038 0.0908,0.0456 0,0 0.0318,0.0126 0.0302,0.003 -0.0136,-0.022 -0.12707,-0.066 -0.12101,-0.0486 z"
       id="path88-7-9"
       style="fill:#f0f0f0;fill-opacity:1;stroke-width:0.0153973" />
    <path
       class="st1"
       d="m 392.81517,530.05571 c -2.80692,0 -5.07056,2.34521 -5.07056,5.25331 0,2.9081 2.26364,5.25331 5.07056,5.25331 2.80691,0 5.07056,-2.34521 5.07056,-5.25331 h 0.36218 c 0,2.17639 -0.76058,4.09006 -2.44473,5.14074 -0.86924,0.54412 -1.90147,0.86308 -2.98801,0.86308 -3.20532,0 -5.79492,-2.68295 -5.79492,-6.00382 0,-2.25141 1.21331,-4.22142 2.988,-5.25331 0.83302,-0.46901 1.79281,-0.37521 2.80692,-0.37521 z"
       id="path6-3-4-3"
       sodipodi:nodetypes="csscccssccc"
       style="clip-rule:evenodd;fill:#f0f0f0;fill-opacity:1;fill-rule:evenodd;stroke-width:0.184327" />
    <path
       class="st2"
       d="m 389.9177,530.11196 c 1.32197,-0.80675 2.91557,-1.01314 4.40052,-0.60038 1.48495,0.41277 2.75259,1.4259 3.51317,2.79554 0.76059,1.36963 0.9779,3.02068 0.57949,4.55915 -0.3984,1.53847 -1.37629,2.85177 -2.69825,3.63975 l -0.36219,-0.65663 c 1.15899,-0.69425 2.01012,-1.83865 2.35419,-3.1895 0.34407,-1.35087 0.18109,-2.77676 -0.50706,-3.97757 -0.67003,-1.20073 -1.77469,-2.08249 -3.07855,-2.43901 -1.28575,-0.3752 -2.68015,-0.1876 -3.83913,0.52535 z"
       id="path8-6-1-1"
       style="clip-rule:evenodd;fill:#263740;fill-opacity:1;fill-rule:evenodd;stroke-width:0.184327" />
  </g>
</svg>
