<?xml version="1.0" encoding="UTF-8" standalone="no"?>
<svg
   height="32"
   width="32"
   version="1.1"
   id="svg25"
   sodipodi:docname="folder-games.svg"
   inkscape:version="1.1.1 (3bf5ae0d25, 2021-09-20)"
   xmlns:inkscape="http://www.inkscape.org/namespaces/inkscape"
   xmlns:sodipodi="http://sodipodi.sourceforge.net/DTD/sodipodi-0.dtd"
   xmlns:xlink="http://www.w3.org/1999/xlink"
   xmlns="http://www.w3.org/2000/svg"
   xmlns:svg="http://www.w3.org/2000/svg"
   xmlns:rdf="http://www.w3.org/1999/02/22-rdf-syntax-ns#"
   xmlns:cc="http://creativecommons.org/ns#"
   xmlns:dc="http://purl.org/dc/elements/1.1/">
  <metadata
     id="metadata31">
    <rdf:RDF>
      <cc:Work
         rdf:about="">
        <dc:format>image/svg+xml</dc:format>
        <dc:type
           rdf:resource="http://purl.org/dc/dcmitype/StillImage" />
      </cc:Work>
    </rdf:RDF>
  </metadata>
  <defs
     id="defs29">
    <linearGradient
       inkscape:collect="always"
       xlink:href="#linearGradient847"
       id="linearGradient858"
       x1="210.75999"
       y1="89.093002"
       x2="362.40799"
       y2="89.093002"
       gradientUnits="userSpaceOnUse"
       gradientTransform="matrix(0.05859377,0,0,0.06178775,1,0.13148202)" />
    <linearGradient
       inkscape:collect="always"
       id="linearGradient847">
      <stop
         style="stop-color:#7192c1;stop-opacity:1"
         offset="0"
         id="stop843" />
      <stop
         style="stop-color:#3b5a87;stop-opacity:1"
         offset="1"
         id="stop845" />
    </linearGradient>
    <linearGradient
       inkscape:collect="always"
       xlink:href="#linearGradient847"
       id="linearGradient859"
       x1="0"
       y1="256.82327"
       x2="512"
       y2="256.82327"
       gradientUnits="userSpaceOnUse"
       gradientTransform="matrix(0.05859377,0,0,0.06178775,1,0.13148202)" />
    <linearGradient
       inkscape:collect="always"
       xlink:href="#linearGradient847"
       id="linearGradient862"
       x1="476.689"
       y1="163.60085"
       x2="319.6994"
       y2="162.04736"
       gradientUnits="userSpaceOnUse"
       gradientTransform="matrix(0.05859377,0,0,0.06178775,1,0.13148202)" />
  </defs>
  <sodipodi:namedview
     pagecolor="#ffffff"
     bordercolor="#666666"
     borderopacity="1"
     objecttolerance="10"
     gridtolerance="10"
     guidetolerance="10"
     inkscape:pageopacity="0"
     inkscape:pageshadow="2"
     inkscape:window-width="1920"
     inkscape:window-height="1007"
     id="namedview27"
     showgrid="false"
     inkscape:zoom="9.8125"
     inkscape:cx="-8.4585987"
     inkscape:cy="11.159236"
     inkscape:window-x="0"
     inkscape:window-y="0"
     inkscape:window-maximized="1"
     inkscape:current-layer="svg25"
     inkscape:pagecheckerboard="0" />
  <linearGradient
     id="a"
     gradientUnits="userSpaceOnUse"
     x2="0"
     y1="29"
     y2="8">
    <stop
       offset="0"
       stop-color="#3daee9"
       id="stop2" />
    <stop
       offset="1"
       stop-color="#6cc1ef"
       id="stop4" />
  </linearGradient>
  <path
     style="fill:url(#linearGradient858);fill-opacity:1;stroke-width:0.0601699"
     d="m 16.796182,6.4852 c 0.484068,0.504506 1.137281,0.787423 1.817944,0.787423 h 1.006594 2.614131 c -0.680663,0 -1.333857,-0.282917 -1.817944,-0.787423 L 18.787912,4.787499 C 18.303694,4.282912 17.650563,4 16.969991,4 h -3.620743 c 0.680571,0 1.333784,0.282912 1.817944,0.787499 z"
     id="path2" />
  <path
     style="fill:#3b5a87;fill-opacity:1;stroke-width:0.0601699"
     d="M 11.54638,4.787499 13.175462,6.4852 c 0.484064,0.504506 1.137257,0.787423 1.81792,0.787423 H 16 18.614126 c -0.680663,0 -1.333876,-0.282917 -1.817944,-0.787423 L 15.167192,4.787499 C 14.682974,4.282912 14.029819,4 13.349248,4 h -3.5561561 -0.06459 c 0.6806631,0 1.3337891,0.282975 1.8178811,0.787499 z"
     id="path4" />
  <path
     style="fill:url(#linearGradient859);fill-opacity:1;stroke-width:0.0564455"
     d="M 29.448251,6.880015 H 23.241343 22.234721 19.620599 18.614006 16 14.993382 c -0.680663,0 -1.333856,-0.248968 -1.81792,-0.692992 L 11.54638,4.692983 C 11.06223,4.248968 10.409099,4 9.7284459,4 h -3.55604 -3.620657 C 1.6947749,4 1,4.644697 1,5.44001 V 8.320021 8.800041 26.55999 C 1,27.355302 1.694775,28 2.5517489,28 H 29.448251 C 30.305225,28 31,27.355302 31,26.55999 V 8.320021 C 31,7.524654 30.305225,6.880015 29.448251,6.880015 Z m -9.827594,2.879963 z m 9.31043,0.480014 c 0,0.530146 -0.463138,0.959986 -1.034522,0.959986 h -7.241381 c -0.571384,0 -1.034527,-0.42984 -1.034527,-0.959986 V 9.759978 c 0,-0.530145 0.463143,-0.959986 1.034527,-0.959986 h 7.241318 c 0.571389,0 1.034522,0.429841 1.034522,0.959986 v 0.480014 z"
     id="path6"
     sodipodi:nodetypes="scccccsccscssccssssssccccccccccssssssscc" />
  <path
     style="fill:url(#linearGradient862);fill-opacity:1;stroke-width:0.0601699"
     d="m 27.896502,8.632615 h -7.241318 c -0.571384,0 -1.046233,0.488375 -1.046233,1.090815 v 0.545506 c 0,0.602427 0.474849,1.090817 1.046233,1.090817 h 7.241318 c 0.571389,0 1.109436,-0.488551 1.122412,-1.090817 l 0.01169,-0.545506 c 5.8e-5,-0.60244 -0.562676,-1.090815 -1.134118,-1.090815 z"
     id="path8"
     sodipodi:nodetypes="ssssssscs" />
  <path
     id="Game"
     class="st0"
     d="m 4.3805689,17.509294 v 0.80055 h -0.772701 v 0.800551 h 0.772701 v 0.800551 h 0.772701 v -0.800551 h 0.772702 v -0.800551 h -0.772702 v -0.80055 z m 7.3406641,1.400964 c 0,0.340233 -0.251128,0.600413 -0.579526,0.600413 -0.328398,0 -0.579526,-0.26018 -0.579526,-0.600413 0,-0.340235 0.251128,-0.600414 0.579526,-0.600414 0.328398,0 0.579526,0.260179 0.579526,0.600414 z m 1.738578,0.600413 c 0.328399,0 0.579527,-0.26018 0.579527,-0.600413 0,-0.340235 -0.251128,-0.600414 -0.579527,-0.600414 -0.328398,0 -0.579526,0.260179 -0.579526,0.600414 0,0.340233 0.251128,0.600413 0.579526,0.600413 z m -0.579526,0.600412 c 0,0.340235 -0.251128,0.600414 -0.579526,0.600414 -0.328398,0 -0.579526,-0.260179 -0.579526,-0.600414 0,-0.340234 0.251128,-0.600412 0.579526,-0.600412 0.328398,0 0.579526,0.260178 0.579526,0.600412 z m 0,-2.401652 c 0,0.340235 -0.251128,0.600413 -0.579526,0.600413 -0.328398,0 -0.579526,-0.260178 -0.579526,-0.600413 0,-0.340234 0.251128,-0.600413 0.579526,-0.600413 0.328398,0 0.579526,0.260179 0.579526,0.600413 z M 2.4488149,18.309844 v 5.20358 c 0,0.660454 0.521574,1.200826 1.159053,1.200826 h 0.347715 c 0.734067,0 1.41018,-0.420289 1.719261,-1.100757 l 1.023829,-2.101446 h 3.8635081 l 1.197687,2.461694 c 0.212493,0.440303 0.656796,0.740509 1.139735,0.740509 1.062464,0 1.912436,-0.880606 1.912436,-1.981363 v -4.823318 c 0,-1.100758 -0.869289,-2.001377 -1.931754,-2.001377 h -1.545403 l -0.772701,0.800551 H 6.6986729 l -0.772701,-0.800551 h -1.159052 c -1.274958,0 -2.318105,1.080744 -2.318105,2.401652 z"
     style="clip-rule:evenodd;fill:#f2f2f2;fill-opacity:1;fill-rule:evenodd;stroke-width:0.196626" />
  <path
     id="Game-s"
     class="st1"
     d="m 11.334882,13.50654 v 0.400275 c 0,0.660455 -0.521573,1.200826 -1.159052,1.200826 H 9.4031289 c -0.212493,0 -0.386351,0.180125 -0.386351,0.400276 v 0.400275 h -0.772702 v -0.400275 c 0,-0.660454 0.521574,-1.200826 1.159053,-1.200826 H 10.17583 c 0.212493,0 0.386351,-0.180124 0.386351,-0.400276 V 13.50654 Z m 1.545403,11.20771 v 0.800551 c 1.062465,0 1.931754,-0.90062 1.931754,-2.001377 v -2.801927 h -0.772701 v 2.801927 c 0,0.660454 -0.521574,1.200826 -1.159053,1.200826 z M 10.369006,21.111772 H 6.0805119 l -1.41018,2.942024 c -0.193175,0.400275 -0.598844,0.660454 -1.043147,0.660454 h -0.01932 v 0.800551 h 0.01932 c 0.734066,0 1.41018,-0.420289 1.719261,-1.100757 l 1.197687,-2.501721 h 4.2112231 z"
     style="fill:#1f222d;fill-opacity:1;stroke-width:0.196626" />
</svg>
