<?xml version="1.0" encoding="UTF-8" standalone="no"?>
<svg
   width="32"
   version="1.1"
   height="32"
   viewBox="0 0 32 32"
   id="svg15"
   sodipodi:docname="folder-KDE.svg"
   inkscape:version="1.1.1 (3bf5ae0d25, 2021-09-20)"
   xmlns:inkscape="http://www.inkscape.org/namespaces/inkscape"
   xmlns:sodipodi="http://sodipodi.sourceforge.net/DTD/sodipodi-0.dtd"
   xmlns:xlink="http://www.w3.org/1999/xlink"
   xmlns="http://www.w3.org/2000/svg"
   xmlns:svg="http://www.w3.org/2000/svg"
   xmlns:rdf="http://www.w3.org/1999/02/22-rdf-syntax-ns#"
   xmlns:cc="http://creativecommons.org/ns#"
   xmlns:dc="http://purl.org/dc/elements/1.1/">
  <sodipodi:namedview
     pagecolor="#ffffff"
     bordercolor="#666666"
     borderopacity="1"
     objecttolerance="10"
     gridtolerance="10"
     guidetolerance="10"
     inkscape:pageopacity="0"
     inkscape:pageshadow="2"
     inkscape:window-width="1920"
     inkscape:window-height="1007"
     id="namedview17"
     showgrid="false"
     inkscape:zoom="9.8125"
     inkscape:cx="-11.210191"
     inkscape:cy="8.7133758"
     inkscape:window-x="0"
     inkscape:window-y="0"
     inkscape:window-maximized="1"
     inkscape:current-layer="layer1"
     inkscape:document-rotation="0"
     inkscape:pagecheckerboard="0"
     showguides="false" />
  <defs
     id="defs5455">
    <linearGradient
       inkscape:collect="always"
       xlink:href="#linearGradient847"
       id="linearGradient858"
       x1="210.75999"
       y1="89.093002"
       x2="362.40799"
       y2="89.093002"
       gradientUnits="userSpaceOnUse"
       gradientTransform="matrix(0.05859377,0,0,0.06178774,385.57143,515.9295)" />
    <linearGradient
       inkscape:collect="always"
       id="linearGradient847">
      <stop
         style="stop-color:#7192c1;stop-opacity:1"
         offset="0"
         id="stop843" />
      <stop
         style="stop-color:#3b5a87;stop-opacity:1"
         offset="1"
         id="stop845" />
    </linearGradient>
    <linearGradient
       inkscape:collect="always"
       xlink:href="#linearGradient847"
       id="linearGradient859"
       x1="0"
       y1="256.82327"
       x2="512"
       y2="256.82327"
       gradientUnits="userSpaceOnUse"
       gradientTransform="matrix(0.05859377,0,0,0.06178774,385.57143,515.9295)" />
    <linearGradient
       inkscape:collect="always"
       xlink:href="#linearGradient847"
       id="linearGradient862"
       x1="476.689"
       y1="163.60085"
       x2="319.6994"
       y2="162.04736"
       gradientUnits="userSpaceOnUse"
       gradientTransform="matrix(0.05859377,0,0,0.06178774,385.57143,515.9295)" />
  </defs>
  <metadata
     id="metadata5458">
    <rdf:RDF>
      <cc:Work
         rdf:about="">
        <dc:format>image/svg+xml</dc:format>
        <dc:type
           rdf:resource="http://purl.org/dc/dcmitype/StillImage" />
      </cc:Work>
    </rdf:RDF>
  </metadata>
  <g
     inkscape:label="Capa 1"
     inkscape:groupmode="layer"
     id="layer1"
     transform="translate(-384.57143,-515.798)">
    <path
       style="fill:url(#linearGradient858);fill-opacity:1;stroke-width:0.0601699"
       d="m 401.36761,522.28316 c 0.48407,0.50456 1.13728,0.78749 1.81795,0.78749 h 1.00659 2.61413 c -0.68066,0 -1.33386,-0.28293 -1.81794,-0.78749 l -1.629,-1.69766 c -0.48422,-0.50458 -1.13735,-0.7875 -1.81792,-0.7875 h -3.62074 c 0.68057,0 1.33378,0.28292 1.81794,0.7875 z"
       id="path2" />
    <path
       style="fill:#3b5a87;fill-opacity:1;stroke-width:0.0601699"
       d="m 396.11781,520.5855 1.62908,1.69766 c 0.48407,0.50456 1.13726,0.78749 1.81792,0.78749 h 1.00662 2.61413 c -0.68067,0 -1.33388,-0.28293 -1.81795,-0.78749 l -1.62899,-1.69766 c -0.48422,-0.50458 -1.13737,-0.7875 -1.81794,-0.7875 h -3.55616 -0.0646 c 0.68066,0 1.33379,0.28298 1.81788,0.7875 z"
       id="path4" />
    <path
       style="fill:url(#linearGradient859);fill-opacity:1;stroke-width:0.0564455"
       d="m 414.01968,522.67802 h -6.20691 -1.00662 -2.61412 -1.00659 -2.61401 -1.00662 c -0.68066,0 -1.33385,-0.249 -1.81792,-0.69302 l -1.62908,-1.494 c -0.48415,-0.444 -1.13728,-0.693 -1.81793,-0.693 h -3.55604 -3.62066 c -0.85698,0 -1.55175,0.64472 -1.55175,1.44001 v 2.88001 0.48002 17.75995 c 0,0.79529 0.69477,1.44001 1.55175,1.44001 h 26.8965 c 0.85698,0 1.55175,-0.64472 1.55175,-1.44001 v -18.23997 c 0,-0.79534 -0.69477,-1.44 -1.55175,-1.44 z m -9.82759,2.87996 z m 9.31043,0.48001 c 0,0.53015 -0.46314,0.95999 -1.03452,0.95999 h -7.24139 c -0.57138,0 -1.03452,-0.42984 -1.03452,-0.95999 v -0.48001 c 0,-0.53015 0.46314,-0.95999 1.03452,-0.95999 h 7.24132 c 0.57139,0 1.03452,0.42984 1.03452,0.95999 v 0.48001 z"
       id="path6"
       sodipodi:nodetypes="scccccsccscssccssssssccccccccccssssssscc" />
    <path
       style="fill:url(#linearGradient862);fill-opacity:1;stroke-width:0.0601699"
       d="m 412.46793,524.43058 h -7.24132 c -0.57138,0 -1.04623,0.48844 -1.04623,1.09086 v 0.54548 c 0,0.60243 0.47485,1.09086 1.04623,1.09086 h 7.24132 c 0.57139,0 1.10944,-0.48858 1.12241,-1.09086 l 0.0117,-0.54548 c 6e-5,-0.60242 -0.56268,-1.09086 -1.13412,-1.09086 z"
       id="path8"
       sodipodi:nodetypes="ssssssscs" />
    <path
       style="fill:#f2f2f2;fill-opacity:1;stroke-width:0.508302"
       d="m 393.01293,529.30453 -1.99749,0.31329 v 7.48577 l 1.99749,-0.55581 v -2.89203 l 1.99753,3.40944 1.99748,-0.77614 -2.49687,-3.10421 2.49785,-3.36191 -1.938,-0.5184 -2.05799,3.39327 z m -4.06719,2.03011 c -0.0472,0 -0.0944,0.0192 -0.1307,0.0563 l -0.78514,0.81344 c -0.0724,0.075 -0.055,0.1823 0,0.27187 l 0.81247,1.32169 c -0.0602,0.12946 -0.11233,0.26283 -0.15607,0.39923 -0.002,0.005 -0.005,0.0109 -0.007,0.0173 l -1.47373,0.33949 c -0.1,0.0231 -0.18531,0.0863 -0.18531,0.19197 v 0.50832 0.50828 c 0,0.10611 0.0853,0.16896 0.18531,0.192 l 1.47373,0.3395 c 0.003,0.0104 0.009,0.0196 0.0117,0.0289 0.0427,0.13252 0.0931,0.26212 0.1512,0.38804 l -0.81246,1.32071 c -0.055,0.0897 -0.0725,0.19677 0,0.27186 l 0.78513,0.81349 c 0.0725,0.0749 0.18895,0.0749 0.26142,0 l 1.2738,-0.8408 c 0.12522,0.0634 0.25422,0.11778 0.38622,0.1637 0.009,0.003 0.0165,0.008 0.0253,0.0111 l 0.32674,1.5259 c 0,0.1061 0.0829,0.19199 0.18532,0.19199 h 1.10897 c 0.10244,0 0.16307,-0.0887 0.18528,-0.19199 l 0.32675,-1.57234 c 0.15013,-0.0583 0.29587,-0.12841 0.43599,-0.20917 l 1.24355,0.92161 c 0.0725,0.0749 0.18895,0.0749 0.26141,0 l 0.78514,-0.81348 c 0.0725,-0.0749 0.055,-0.18228 0,-0.27187 l -0.47304,-0.74371 -0.0497,0.0195 c -0.11248,0.0441 -0.2391,-10e-4 -0.30138,-0.10812 l -0.49742,-0.84884 c -0.41442,1.02709 -1.39322,1.74916 -2.53491,1.74916 -1.5169,0 -2.74659,-1.27402 -2.74659,-2.84556 0,-1.20594 0.7255,-2.23423 1.74782,-2.64855 v -0.56689 l -0.004,0.0186 c -0.0111,0.003 -0.0213,0.01 -0.0323,0.0145 -0.13024,0.0451 -0.25762,0.098 -0.38136,0.15961 l -1.27184,-0.83964 c -0.0362,-0.0379 -0.0835,-0.0563 -0.13071,-0.0563 z"
       class="ColorScheme-Text"
       id="path10-7-7" />
    <path
       id="Power-s-5"
       class="st1"
       d="m 398.00671,535.88036 v 0 h -0.74908 v 0 c 0,2.58041 -2.50311,4.65638 -4.99376,4.65638 v 0.7761 c 2.90261,0 5.74284,-2.42525 5.74284,-5.43248 z"
       style="fill:#1f222d;fill-opacity:1;stroke-width:0.190611"
       sodipodi:nodetypes="ccccccc" />
  </g>
</svg>
