<?xml version="1.0" encoding="UTF-8" standalone="no"?>
<svg
   width="32"
   version="1.1"
   height="32"
   viewBox="0 0 32 32"
   id="svg15"
   sodipodi:docname="folder-language.svg"
   inkscape:version="1.1.1 (3bf5ae0d25, 2021-09-20)"
   xmlns:inkscape="http://www.inkscape.org/namespaces/inkscape"
   xmlns:sodipodi="http://sodipodi.sourceforge.net/DTD/sodipodi-0.dtd"
   xmlns:xlink="http://www.w3.org/1999/xlink"
   xmlns="http://www.w3.org/2000/svg"
   xmlns:svg="http://www.w3.org/2000/svg"
   xmlns:rdf="http://www.w3.org/1999/02/22-rdf-syntax-ns#"
   xmlns:cc="http://creativecommons.org/ns#"
   xmlns:dc="http://purl.org/dc/elements/1.1/">
  <sodipodi:namedview
     pagecolor="#ffffff"
     bordercolor="#666666"
     borderopacity="1"
     objecttolerance="10"
     gridtolerance="10"
     guidetolerance="10"
     inkscape:pageopacity="0"
     inkscape:pageshadow="2"
     inkscape:window-width="1920"
     inkscape:window-height="1007"
     id="namedview17"
     showgrid="true"
     inkscape:zoom="9.8125"
     inkscape:cx="-9.477707"
     inkscape:cy="18.089172"
     inkscape:window-x="0"
     inkscape:window-y="0"
     inkscape:window-maximized="1"
     inkscape:current-layer="layer1"
     inkscape:pagecheckerboard="0">
    <inkscape:grid
       type="xygrid"
       id="grid862" />
  </sodipodi:namedview>
  <defs
     id="defs5455">
    <linearGradient
       inkscape:collect="always"
       id="linearGradient1257">
      <stop
         style="stop-color:#263740;stop-opacity:1"
         offset="0"
         id="stop1253" />
      <stop
         style="stop-color:#263740;stop-opacity:1"
         offset="0.19817896"
         id="stop1645" />
      <stop
         style="stop-color:#f0f0f0;stop-opacity:1"
         offset="0.18181825"
         id="stop2096" />
      <stop
         style="stop-color:#f2f2f2;stop-opacity:1"
         offset="1"
         id="stop1255" />
    </linearGradient>
    <linearGradient
       inkscape:collect="always"
       xlink:href="#linearGradient847"
       id="linearGradient858"
       x1="210.75999"
       y1="89.093002"
       x2="362.40799"
       y2="89.093002"
       gradientUnits="userSpaceOnUse"
       gradientTransform="matrix(0.05859377,0,0,0.05963829,385.57143,516.06406)" />
    <linearGradient
       inkscape:collect="always"
       id="linearGradient847">
      <stop
         style="stop-color:#7192c1;stop-opacity:1"
         offset="0"
         id="stop843" />
      <stop
         style="stop-color:#3b5a87;stop-opacity:1"
         offset="1"
         id="stop845" />
    </linearGradient>
    <linearGradient
       inkscape:collect="always"
       xlink:href="#linearGradient847"
       id="linearGradient859"
       x1="0"
       y1="256.82327"
       x2="512"
       y2="256.82327"
       gradientUnits="userSpaceOnUse"
       gradientTransform="matrix(0.05859377,0,0,0.05963829,385.57143,516.06406)" />
    <linearGradient
       inkscape:collect="always"
       xlink:href="#linearGradient847"
       id="linearGradient862"
       x1="476.689"
       y1="163.60085"
       x2="319.6994"
       y2="162.04736"
       gradientUnits="userSpaceOnUse"
       gradientTransform="matrix(0.05859377,0,0,0.05963829,385.57143,516.06406)" />
    <linearGradient
       inkscape:collect="always"
       xlink:href="#linearGradient1257"
       id="linearGradient1259-6"
       x1="423.57144"
       y1="511.798"
       x2="423.57144"
       y2="533.79797"
       gradientUnits="userSpaceOnUse" />
  </defs>
  <metadata
     id="metadata5458">
    <rdf:RDF>
      <cc:Work
         rdf:about="">
        <dc:format>image/svg+xml</dc:format>
        <dc:type
           rdf:resource="http://purl.org/dc/dcmitype/StillImage" />
      </cc:Work>
    </rdf:RDF>
  </metadata>
  <g
     inkscape:label="Capa 1"
     inkscape:groupmode="layer"
     id="layer1"
     transform="translate(-384.57143,-515.798)">
    <path
       style="fill:url(#linearGradient858);fill-opacity:1;stroke-width:0.0591141"
       d="m 401.36761,522.19675 c 0.48407,0.48695 1.13728,0.76002 1.81795,0.76002 h 1.00659 2.61413 c -0.68066,0 -1.33386,-0.27307 -1.81794,-0.76002 l -1.629,-1.63864 c -0.48422,-0.48704 -1.13735,-0.76011 -1.81792,-0.76011 h -3.62074 c 0.68057,0 1.33378,0.27307 1.81794,0.76011 z"
       id="path2" />
    <path
       style="fill:#3b5a87;fill-opacity:1;stroke-width:0.0591141"
       d="m 396.11781,520.55811 1.62908,1.63864 c 0.48407,0.48695 1.13726,0.76002 1.81792,0.76002 h 1.00662 2.61413 c -0.68067,0 -1.33388,-0.27307 -1.81795,-0.76002 l -1.62899,-1.63864 c -0.48422,-0.48704 -1.13737,-0.76011 -1.81794,-0.76011 h -3.55616 -0.0646 c 0.68066,0 1.33379,0.27313 1.81788,0.76011 z"
       id="path4" />
    <path
       style="fill:url(#linearGradient859);fill-opacity:1;stroke-width:0.0554549"
       d="m 414.01968,522.57783 h -6.20691 -1.00662 -2.61412 -1.00659 -2.61401 -1.00662 c -0.68066,0 -1.33385,-0.24031 -1.81792,-0.66889 l -1.62908,-1.44206 c -0.48415,-0.42857 -1.13728,-0.66888 -1.81793,-0.66888 h -3.55604 -3.62066 c -0.85698,0 -1.55175,0.62227 -1.55175,1.38992 v 2.77982 0.46332 17.14212 c 0,0.76765 0.69477,1.38992 1.55175,1.38992 h 26.8965 c 0.85698,0 1.55175,-0.62227 1.55175,-1.38992 v -17.60544 c 0,-0.7677 -0.69477,-1.38991 -1.55175,-1.38991 z m -9.82759,2.77977 z m 9.31043,0.46332 c 0,0.5117 -0.46314,0.92659 -1.03452,0.92659 h -7.24139 c -0.57138,0 -1.03452,-0.41489 -1.03452,-0.92659 v -0.46332 c 0,-0.5117 0.46314,-0.92659 1.03452,-0.92659 h 7.24132 c 0.57139,0 1.03452,0.41489 1.03452,0.92659 v 0.46332 z"
       id="path6"
       sodipodi:nodetypes="scccccsccscssccssssssccccccccccssssssscc" />
    <path
       style="fill:url(#linearGradient862);fill-opacity:1;stroke-width:0.0591141"
       d="m 412.46793,524.26945 h -7.24132 c -0.57138,0 -1.04623,0.4714 -1.04623,1.05287 v 0.52653 c 0,0.58147 0.47485,1.05287 1.04623,1.05287 h 7.24132 c 0.57139,0 1.10944,-0.47155 1.12241,-1.05287 l 0.0117,-0.52653 c 6e-5,-0.58147 -0.56268,-1.05287 -1.13412,-1.05287 z"
       id="path8"
       sodipodi:nodetypes="ssssssscs" />
    <g
       id="g878"
       transform="matrix(0.48293843,0,0,0.48293843,186.68559,282.65231)">
      <path
         style="color:#232629;fill:url(#linearGradient1259-6);fill-opacity:0.96;stroke:none;stroke-width:1.125"
         d="m 428.21238,526.17246 -2.8125,-2.8305 0.0333,-0.0332 c 1.91126,-2.08575 3.19376,-4.56075 4.01625,-7.26075 h 3.42 V 513.798 h -7.8975 v -2.25054 h -2.2725 v 2.24999 h -7.875 v 2.25001 h 12.375 c -0.7875,2.1375 -1.6875,4.1625 -3.375,5.9625 -1.0125,-1.125 -1.9125,-2.475 -2.5875,-3.825 h -2.25 c 0.8235,1.8 1.95075,3.6 3.375,5.14125 l -5.7375,5.65875 1.575,1.575 5.63625,-5.63625 3.4875,3.4875 z m 6.4125,-5.7375 h -2.25 l -5.13675,13.6125 h 2.25 l 1.26343,-3.38625 h 5.40002 l 1.1733,3.38625 h 2.24999 z m -2.925,7.8975 1.8,-4.8825 1.8,4.8825 z"
         class="ColorScheme-Text"
         id="path12-7" />
    </g>
  </g>
</svg>
