<?xml version="1.0" encoding="UTF-8" standalone="no"?>
<svg
   width="32"
   version="1.1"
   height="32"
   viewBox="0 0 32 32"
   id="svg15"
   sodipodi:docname="folder-blender.svg"
   inkscape:version="1.1.1 (3bf5ae0d25, 2021-09-20)"
   xmlns:inkscape="http://www.inkscape.org/namespaces/inkscape"
   xmlns:sodipodi="http://sodipodi.sourceforge.net/DTD/sodipodi-0.dtd"
   xmlns:xlink="http://www.w3.org/1999/xlink"
   xmlns="http://www.w3.org/2000/svg"
   xmlns:svg="http://www.w3.org/2000/svg"
   xmlns:rdf="http://www.w3.org/1999/02/22-rdf-syntax-ns#"
   xmlns:cc="http://creativecommons.org/ns#"
   xmlns:dc="http://purl.org/dc/elements/1.1/">
  <sodipodi:namedview
     pagecolor="#ffffff"
     bordercolor="#666666"
     borderopacity="1"
     objecttolerance="10"
     gridtolerance="10"
     guidetolerance="10"
     inkscape:pageopacity="0"
     inkscape:pageshadow="2"
     inkscape:window-width="1920"
     inkscape:window-height="1007"
     id="namedview17"
     showgrid="true"
     inkscape:zoom="9.8125"
     inkscape:cx="-9.477707"
     inkscape:cy="18.089172"
     inkscape:window-x="0"
     inkscape:window-y="0"
     inkscape:window-maximized="1"
     inkscape:current-layer="layer1"
     inkscape:pagecheckerboard="0">
    <inkscape:grid
       type="xygrid"
       id="grid862" />
  </sodipodi:namedview>
  <defs
     id="defs5455">
    <linearGradient
       inkscape:collect="always"
       xlink:href="#linearGradient847"
       id="linearGradient858"
       x1="210.75999"
       y1="89.093002"
       x2="362.40799"
       y2="89.093002"
       gradientUnits="userSpaceOnUse"
       gradientTransform="matrix(0.05859377,0,0,0.06178774,385.57143,515.9295)" />
    <linearGradient
       inkscape:collect="always"
       id="linearGradient847">
      <stop
         style="stop-color:#7192c1;stop-opacity:1"
         offset="0"
         id="stop843" />
      <stop
         style="stop-color:#3b5a87;stop-opacity:1"
         offset="1"
         id="stop845" />
    </linearGradient>
    <linearGradient
       inkscape:collect="always"
       xlink:href="#linearGradient847"
       id="linearGradient859"
       x1="0"
       y1="256.82327"
       x2="512"
       y2="256.82327"
       gradientUnits="userSpaceOnUse"
       gradientTransform="matrix(0.05859377,0,0,0.06178774,385.57143,515.9295)" />
    <linearGradient
       inkscape:collect="always"
       xlink:href="#linearGradient847"
       id="linearGradient862"
       x1="476.689"
       y1="163.60085"
       x2="319.6994"
       y2="162.04736"
       gradientUnits="userSpaceOnUse"
       gradientTransform="matrix(0.05859377,0,0,0.06178774,385.57143,515.9295)" />
  </defs>
  <metadata
     id="metadata5458">
    <rdf:RDF>
      <cc:Work
         rdf:about="">
        <dc:format>image/svg+xml</dc:format>
        <dc:type
           rdf:resource="http://purl.org/dc/dcmitype/StillImage" />
      </cc:Work>
    </rdf:RDF>
  </metadata>
  <g
     inkscape:label="Capa 1"
     inkscape:groupmode="layer"
     id="layer1"
     transform="translate(-384.57143,-515.798)">
    <path
       style="fill:url(#linearGradient858);fill-opacity:1;stroke-width:0.0601699"
       d="m 401.36761,522.28316 c 0.48407,0.50456 1.13728,0.78749 1.81795,0.78749 h 1.00659 2.61413 c -0.68066,0 -1.33386,-0.28293 -1.81794,-0.78749 l -1.629,-1.69766 c -0.48422,-0.50458 -1.13735,-0.7875 -1.81792,-0.7875 h -3.62074 c 0.68057,0 1.33378,0.28292 1.81794,0.7875 z"
       id="path2" />
    <path
       style="fill:#3b5a87;fill-opacity:1;stroke-width:0.0601699"
       d="m 396.11781,520.5855 1.62908,1.69766 c 0.48407,0.50456 1.13726,0.78749 1.81792,0.78749 h 1.00662 2.61413 c -0.68067,0 -1.33388,-0.28293 -1.81795,-0.78749 l -1.62899,-1.69766 c -0.48422,-0.50458 -1.13737,-0.7875 -1.81794,-0.7875 h -3.55616 -0.0646 c 0.68066,0 1.33379,0.28298 1.81788,0.7875 z"
       id="path4" />
    <path
       style="fill:url(#linearGradient859);fill-opacity:1;stroke-width:0.0564455"
       d="m 414.01968,522.67802 h -6.20691 -1.00662 -2.61412 -1.00659 -2.61401 -1.00662 c -0.68066,0 -1.33385,-0.249 -1.81792,-0.69302 l -1.62908,-1.494 c -0.48415,-0.444 -1.13728,-0.693 -1.81793,-0.693 h -3.55604 -3.62066 c -0.85698,0 -1.55175,0.64472 -1.55175,1.44001 v 2.88001 0.48002 17.75995 c 0,0.79529 0.69477,1.44001 1.55175,1.44001 h 26.8965 c 0.85698,0 1.55175,-0.64472 1.55175,-1.44001 v -18.23997 c 0,-0.79534 -0.69477,-1.44 -1.55175,-1.44 z m -9.82759,2.87996 z m 9.31043,0.48001 c 0,0.53015 -0.46314,0.95999 -1.03452,0.95999 h -7.24139 c -0.57138,0 -1.03452,-0.42984 -1.03452,-0.95999 v -0.48001 c 0,-0.53015 0.46314,-0.95999 1.03452,-0.95999 h 7.24132 c 0.57139,0 1.03452,0.42984 1.03452,0.95999 v 0.48001 z"
       id="path6"
       sodipodi:nodetypes="scccccsccscssccssssssccccccccccssssssscc" />
    <path
       style="fill:url(#linearGradient862);fill-opacity:1;stroke-width:0.0601699"
       d="m 412.46793,524.43058 h -7.24132 c -0.57138,0 -1.04623,0.48844 -1.04623,1.09086 v 0.54548 c 0,0.60243 0.47485,1.09086 1.04623,1.09086 h 7.24132 c 0.57139,0 1.10944,-0.48858 1.12241,-1.09086 l 0.0117,-0.54548 c 6e-5,-0.60242 -0.56268,-1.09086 -1.13412,-1.09086 z"
       id="path8"
       sodipodi:nodetypes="ssssssscs" />
    <path
       style="color:#232629;fill:#f0f0f0;fill-opacity:0.990601;stroke:none;stroke-width:0.536297"
       d="m 392.61798,529.30453 a 0.79026306,0.81874518 0 0 0 -0.79028,0.81876 0.79026306,0.81874518 0 0 0 0.25026,0.54582 h -0.0527 l 1.84395,1.91041 h -6.05865 a 0.79026306,0.81874518 0 0 0 -0.79028,0.81876 0.79026306,0.81874518 0 0 0 0.79028,0.81875 h 2.89763 l -3.37178,3.49326 a 0.79026306,0.81874518 0 0 0 -0.31613,0.65495 0.79026306,0.81874518 0 0 0 0.79028,0.81883 0.79026306,0.81874518 0 0 0 0.57952,-0.2729 c 0,0 0,0 0,0 l 1.79122,-1.85577 a 4.2147341,4.3666383 0 0 0 4.2148,4.25744 4.2147341,4.3666383 0 0 0 4.2147,-4.36665 4.2147341,4.3666383 0 0 0 -1.58056,-3.43878 l -3.84593,-3.92997 a 0.79026306,0.81874518 0 0 0 -0.5663,-0.27291 z m 1.77809,4.9125 a 2.6342089,2.7291496 0 0 1 1.58046,0.54574 l 0.47415,0.49136 v 0 a 2.6342089,2.7291496 0 0 1 0.57953,1.69206 2.6342089,2.7291496 0 0 1 -2.63414,2.72907 2.6342089,2.7291496 0 0 1 -2.63424,-2.72907 2.6342089,2.7291496 0 0 1 2.63424,-2.72916 z m 0,1.6375 a 1.0536838,1.09166 0 0 0 -1.05368,1.09166 1.0536838,1.09166 0 0 0 1.05368,1.09166 1.0536838,1.09166 0 0 0 1.05367,-1.09166 1.0536838,1.09166 0 0 0 -1.05367,-1.09166 z"
       class="ColorScheme-Text"
       id="path12-3" />
    <path
       d="m 394.42078,538.0574 c 0.5755,0 1.04205,-0.48333 1.04205,-1.07964 0,-0.59616 -0.46655,-1.07956 -1.04205,-1.07956 -0.57548,0 -1.04202,0.4834 -1.04202,1.07956 0,0.59631 0.46654,1.07964 1.04202,1.07964 z m 0.18081,-0.34725 c 0.19533,-0.0515 0.36305,-0.18668 0.45997,-0.37126 0.009,-0.0177 0.027,-0.0277 0.0458,-0.0277 0.008,0 0.0165,0.002 0.0249,0.007 0.0251,0.015 0.0342,0.0471 0.0213,0.0732 -0.11081,0.21053 -0.30253,0.3652 -0.52583,0.4241 -0.0283,0.008 -0.0563,-0.01 -0.0633,-0.0397 -0.007,-0.0285 0.01,-0.0578 0.038,-0.0657 z"
       id="path2-6"
       style="fill:#1f222d;fill-opacity:1;stroke:#1f222d;stroke-width:0.0907472;stroke-opacity:1" />
  </g>
</svg>
