<?xml version="1.0" encoding="UTF-8" standalone="no"?>
<svg
   id="svg2"
   viewBox="0 0 32 32"
   height="32"
   version="1.1"
   width="32"
   sodipodi:docname="folder-unlocked.svg"
   inkscape:version="1.1.1 (3bf5ae0d25, 2021-09-20)"
   xmlns:inkscape="http://www.inkscape.org/namespaces/inkscape"
   xmlns:sodipodi="http://sodipodi.sourceforge.net/DTD/sodipodi-0.dtd"
   xmlns:xlink="http://www.w3.org/1999/xlink"
   xmlns="http://www.w3.org/2000/svg"
   xmlns:svg="http://www.w3.org/2000/svg"
   xmlns:rdf="http://www.w3.org/1999/02/22-rdf-syntax-ns#"
   xmlns:cc="http://creativecommons.org/ns#"
   xmlns:dc="http://purl.org/dc/elements/1.1/">
  <sodipodi:namedview
     pagecolor="#ffffff"
     bordercolor="#666666"
     borderopacity="1"
     objecttolerance="10"
     gridtolerance="10"
     guidetolerance="10"
     inkscape:pageopacity="0"
     inkscape:pageshadow="2"
     inkscape:window-width="1920"
     inkscape:window-height="1007"
     id="namedview18"
     showgrid="false"
     inkscape:zoom="9.8125"
     inkscape:cx="-7.9490446"
     inkscape:cy="2.9044586"
     inkscape:window-x="0"
     inkscape:window-y="0"
     inkscape:window-maximized="1"
     inkscape:current-layer="svg2"
     inkscape:pagecheckerboard="0" />
  <defs
     id="defs5455">
    <linearGradient
       id="linearGradient4172-5">
      <stop
         id="stop4174-6"
         style="stop-color:#3daee9" />
      <stop
         id="stop4176-6"
         style="stop-color:#6cc1ef"
         offset="1" />
    </linearGradient>
    <linearGradient
       x2="0"
       gradientUnits="userSpaceOnUse"
       y2="8"
       y1="29"
       xlink:href="#linearGradient4172-5"
       id="linearGradient4342" />
    <linearGradient
       inkscape:collect="always"
       xlink:href="#linearGradient847"
       id="linearGradient858"
       x1="210.75999"
       y1="89.093002"
       x2="362.40799"
       y2="89.093002"
       gradientUnits="userSpaceOnUse"
       gradientTransform="matrix(0.05859377,0,0,0.06178775,1,0.13148296)" />
    <linearGradient
       inkscape:collect="always"
       id="linearGradient847">
      <stop
         style="stop-color:#7192c1;stop-opacity:1"
         offset="0"
         id="stop843" />
      <stop
         style="stop-color:#3b5a87;stop-opacity:1"
         offset="1"
         id="stop845" />
    </linearGradient>
    <linearGradient
       inkscape:collect="always"
       xlink:href="#linearGradient847"
       id="linearGradient859"
       x1="0"
       y1="256.82327"
       x2="512"
       y2="256.82327"
       gradientUnits="userSpaceOnUse"
       gradientTransform="matrix(0.05859377,0,0,0.06178775,1,0.13148296)" />
    <linearGradient
       inkscape:collect="always"
       xlink:href="#linearGradient847"
       id="linearGradient862"
       x1="476.689"
       y1="163.60085"
       x2="319.6994"
       y2="162.04736"
       gradientUnits="userSpaceOnUse"
       gradientTransform="matrix(0.05859377,0,0,0.06178775,1,0.13148296)" />
  </defs>
  <metadata
     id="metadata5458">
    <rdf:RDF>
      <cc:Work
         rdf:about="">
        <dc:format>image/svg+xml</dc:format>
        <dc:type
           rdf:resource="http://purl.org/dc/dcmitype/StillImage" />
      </cc:Work>
    </rdf:RDF>
  </metadata>
  <path
     style="fill:url(#linearGradient858);fill-opacity:1;stroke-width:0.0601699"
     d="m 16.796182,6.4852 c 0.484068,0.504506 1.137281,0.787423 1.817944,0.787423 h 1.006594 2.614131 c -0.680663,0 -1.333857,-0.282917 -1.817944,-0.787423 L 18.787912,4.787499 C 18.303694,4.282912 17.650563,4 16.969991,4 h -3.620743 c 0.680571,0 1.333784,0.282912 1.817944,0.787499 z"
     id="path2" />
  <path
     style="fill:#3b5a87;fill-opacity:1;stroke-width:0.0601699"
     d="M 11.54638,4.787499 13.175462,6.4852 c 0.484064,0.504506 1.137257,0.787423 1.81792,0.787423 H 16 18.614126 c -0.680663,0 -1.333876,-0.282917 -1.817944,-0.787423 L 15.167192,4.787499 C 14.682974,4.282912 14.029819,4 13.349248,4 H 9.793092 9.728502 c 0.680663,0 1.333789,0.282975 1.817881,0.787499 z"
     id="path4" />
  <path
     style="fill:url(#linearGradient859);fill-opacity:1;stroke-width:0.0564455"
     d="M 29.448251,6.880015 H 23.241343 22.234721 19.620599 18.614006 16 14.993382 c -0.680663,0 -1.333856,-0.248968 -1.81792,-0.692992 L 11.54638,4.692983 C 11.06223,4.248968 10.409099,4 9.728446,4 H 6.172406 2.551749 C 1.694775,4 1,4.644697 1,5.44001 v 2.880011 0.48002 17.759948 C 1,27.355301 1.694775,28 2.551749,28 H 29.448251 C 30.305225,28 31,27.355301 31,26.559989 V 8.320021 C 31,7.524654 30.305225,6.880015 29.448251,6.880015 Z m -9.827594,2.8799629 z m 9.31043,0.4800151 c 0,0.530145 -0.463138,0.959985 -1.034522,0.959985 h -7.241381 c -0.571384,0 -1.034527,-0.42984 -1.034527,-0.959985 V 9.7599779 c 0,-0.5301449 0.463143,-0.9599859 1.034527,-0.9599859 h 7.241318 c 0.571389,0 1.034522,0.429841 1.034522,0.9599859 v 0.4800151 z"
     id="path6"
     sodipodi:nodetypes="scccccsccscssccssssssccccccccccssssssscc" />
  <path
     style="fill:url(#linearGradient862);fill-opacity:1;stroke-width:0.0601699"
     d="m 27.896502,8.632615 h -7.241318 c -0.571384,0 -1.046233,0.488375 -1.046233,1.090815 v 0.545503 c 0,0.60243 0.474849,1.090819 1.046233,1.090819 h 7.241318 c 0.571389,0 1.109436,-0.48855 1.122412,-1.09082 l 0.01169,-0.545502 c 5.8e-5,-0.60244 -0.562676,-1.090815 -1.134118,-1.090815 z"
     id="path8"
     sodipodi:nodetypes="ssssssscs" />
  <path
     id="Lock-7-3"
     class="st0"
     d="m 7.223869,21.864214 c 0,0.24845 -0.13643,0.463778 -0.341075,0.579723 v 0.745364 c 0,0.1822 -0.153483,0.331272 -0.341076,0.331272 -0.187592,0 -0.341075,-0.149072 -0.341075,-0.331272 V 22.443937 C 5.995998,22.327992 5.859568,22.112664 5.859568,21.864214 c 0,-0.3644 0.30697,-0.662546 0.68215,-0.662546 0.375186,0 0.682151,0.298146 0.682151,0.662546 z m 1.705376,-2.981447 h 0.682151 v 0.662541 h 1.023226 v 3.643993 c 0,0.910996 -0.767418,1.656358 -1.705377,1.656358 h -6.48043 v -5.300351 h 6.48043 z"
     style="clip-rule:evenodd;fill:#f0f0f0;fill-opacity:1;fill-rule:evenodd;stroke-width:0.16807" />
  <path
     id="Lock-s-5-6"
     class="st1"
     d="M 4.154192,17.994126 H 3.472041 v -0.105177 c 0,-1.639793 1.381354,-2.981446 3.069677,-2.981446 1.688324,0 3.069678,1.341653 3.069678,2.981446 v 0.993818 H 8.929245 v -0.993818 c 0,-1.275397 -1.074388,-2.318901 -2.387527,-2.318901 -1.313138,0 -2.387526,1.043504 -2.387526,2.318901 z m 6.48043,1.551182 H 8.929245 v 0.662546 h 1.023226 v 3.312719 c 0,0.728798 -0.613935,1.325086 -1.364301,1.325086 H 3.130966 V 25.5082 H 8.58817 c 1.125551,0 2.046452,-0.89443 2.046452,-1.987627 z"
     style="fill:#263740;fill-opacity:1;stroke-width:0.16807"
     sodipodi:nodetypes="ccsssccssscccccssccssc" />
</svg>
