<?xml version="1.0" encoding="UTF-8" standalone="no"?>
<svg
   width="32"
   version="1.1"
   height="32"
   viewBox="0 0 32 32"
   id="svg15"
   sodipodi:docname="folder-Neon.svg"
   inkscape:version="1.1.1 (3bf5ae0d25, 2021-09-20)"
   xmlns:inkscape="http://www.inkscape.org/namespaces/inkscape"
   xmlns:sodipodi="http://sodipodi.sourceforge.net/DTD/sodipodi-0.dtd"
   xmlns:xlink="http://www.w3.org/1999/xlink"
   xmlns="http://www.w3.org/2000/svg"
   xmlns:svg="http://www.w3.org/2000/svg"
   xmlns:rdf="http://www.w3.org/1999/02/22-rdf-syntax-ns#"
   xmlns:cc="http://creativecommons.org/ns#"
   xmlns:dc="http://purl.org/dc/elements/1.1/">
  <sodipodi:namedview
     pagecolor="#ffffff"
     bordercolor="#666666"
     borderopacity="1"
     objecttolerance="10"
     gridtolerance="10"
     guidetolerance="10"
     inkscape:pageopacity="0"
     inkscape:pageshadow="2"
     inkscape:window-width="1920"
     inkscape:window-height="1007"
     id="namedview17"
     showgrid="false"
     inkscape:zoom="9.8125"
     inkscape:cx="-26.292994"
     inkscape:cy="8.7133758"
     inkscape:window-x="0"
     inkscape:window-y="0"
     inkscape:window-maximized="1"
     inkscape:current-layer="layer1"
     inkscape:document-rotation="0"
     inkscape:pagecheckerboard="0" />
  <defs
     id="defs5455">
    <linearGradient
       inkscape:collect="always"
       xlink:href="#linearGradient847"
       id="linearGradient858"
       x1="210.75999"
       y1="89.093002"
       x2="362.40799"
       y2="89.093002"
       gradientUnits="userSpaceOnUse"
       gradientTransform="matrix(0.05859377,0,0,0.06178774,385.57143,515.92952)" />
    <linearGradient
       inkscape:collect="always"
       id="linearGradient847">
      <stop
         style="stop-color:#7192c1;stop-opacity:1"
         offset="0"
         id="stop843" />
      <stop
         style="stop-color:#3b5a87;stop-opacity:1"
         offset="1"
         id="stop845" />
    </linearGradient>
    <linearGradient
       inkscape:collect="always"
       xlink:href="#linearGradient847"
       id="linearGradient859"
       x1="0"
       y1="256.82327"
       x2="512"
       y2="256.82327"
       gradientUnits="userSpaceOnUse"
       gradientTransform="matrix(0.05859377,0,0,0.06178774,385.57143,515.92952)" />
    <linearGradient
       inkscape:collect="always"
       xlink:href="#linearGradient847"
       id="linearGradient862"
       x1="476.689"
       y1="163.60085"
       x2="319.6994"
       y2="162.04736"
       gradientUnits="userSpaceOnUse"
       gradientTransform="matrix(0.05859377,0,0,0.06178774,385.57143,515.92952)" />
  </defs>
  <metadata
     id="metadata5458">
    <rdf:RDF>
      <cc:Work
         rdf:about="">
        <dc:format>image/svg+xml</dc:format>
        <dc:type
           rdf:resource="http://purl.org/dc/dcmitype/StillImage" />
      </cc:Work>
    </rdf:RDF>
  </metadata>
  <g
     inkscape:label="Capa 1"
     inkscape:groupmode="layer"
     id="layer1"
     transform="translate(-384.57143,-515.798)">
    <path
       style="fill:url(#linearGradient858);fill-opacity:1;stroke-width:0.0601699"
       d="m 401.36761,522.28316 c 0.48407,0.50456 1.13728,0.78749 1.81795,0.78749 h 1.00659 2.61413 c -0.68066,0 -1.33386,-0.28293 -1.81794,-0.78749 l -1.629,-1.69766 c -0.48422,-0.50458 -1.13735,-0.7875 -1.81792,-0.7875 h -3.62074 c 0.68057,0 1.33378,0.28292 1.81794,0.7875 z"
       id="path2" />
    <path
       style="fill:#3b5a87;fill-opacity:1;stroke-width:0.0601699"
       d="m 396.11781,520.5855 1.62908,1.69766 c 0.48407,0.50456 1.13726,0.78749 1.81792,0.78749 h 1.00662 2.61413 c -0.68067,0 -1.33388,-0.28293 -1.81795,-0.78749 l -1.62899,-1.69766 c -0.48422,-0.50458 -1.13737,-0.7875 -1.81794,-0.7875 h -3.55616 -0.0646 c 0.68066,0 1.33379,0.28298 1.81788,0.7875 z"
       id="path4" />
    <path
       style="fill:url(#linearGradient859);fill-opacity:1;stroke-width:0.0564455"
       d="m 414.01968,522.67802 h -6.20691 -1.00662 -2.61412 -1.00659 -2.61401 -1.00662 c -0.68066,0 -1.33385,-0.249 -1.81792,-0.69302 l -1.62908,-1.494 c -0.48415,-0.444 -1.13728,-0.693 -1.81793,-0.693 h -3.55604 -3.62066 c -0.85698,0 -1.55175,0.64472 -1.55175,1.44001 v 2.88001 0.48002 17.75995 c 0,0.79529 0.69477,1.44001 1.55175,1.44001 h 26.8965 c 0.85698,0 1.55175,-0.64472 1.55175,-1.44001 v -18.23997 c 0,-0.79534 -0.69477,-1.44 -1.55175,-1.44 z m -9.82759,2.87996 z m 9.31043,0.48001 c 0,0.53015 -0.46314,0.95999 -1.03452,0.95999 h -7.24139 c -0.57138,0 -1.03452,-0.42984 -1.03452,-0.95999 v -0.48001 c 0,-0.53015 0.46314,-0.95999 1.03452,-0.95999 h 7.24132 c 0.57139,0 1.03452,0.42984 1.03452,0.95999 v 0.48001 z"
       id="path6"
       sodipodi:nodetypes="scccccsccscssccssssssccccccccccssssssscc" />
    <path
       style="fill:url(#linearGradient862);fill-opacity:1;stroke-width:0.0601699"
       d="m 412.46793,524.43058 h -7.24132 c -0.57138,0 -1.04623,0.48844 -1.04623,1.09086 v 0.54548 c 0,0.60243 0.47485,1.09086 1.04623,1.09086 h 7.24132 c 0.57139,0 1.10944,-0.48858 1.12241,-1.09086 l 0.0117,-0.54548 c 6e-5,-0.60242 -0.56268,-1.09086 -1.13412,-1.09086 z"
       id="path8"
       sodipodi:nodetypes="ssssssscs" />
    <path
       d="m 392.81589,536.86835 c 0.83124,0 1.50512,-0.69818 1.50512,-1.55942 0,-0.86118 -0.67388,-1.55936 -1.50512,-1.55936 -0.83123,0 -1.50512,0.69818 -1.50512,1.55936 0,0.86124 0.67389,1.55942 1.50512,1.55942 z m 0.26116,-0.50153 c 0.28214,-0.0745 0.52437,-0.26979 0.66436,-0.53635 0.0133,-0.0254 0.0388,-0.0402 0.0662,-0.0402 0.0121,0 0.0242,0.002 0.0357,0.01 0.0362,0.0213 0.0496,0.0682 0.0309,0.10579 -0.16005,0.30418 -0.43696,0.52755 -0.75952,0.61262 -0.0409,0.0113 -0.0813,-0.0145 -0.0914,-0.0561 -0.0105,-0.0419 0.0137,-0.0843 0.0546,-0.0947 z"
       id="path2-6"
       style="fill:#1f222d;fill-opacity:1;stroke:#1f222d;stroke-width:0.131073;stroke-opacity:1" />
    <path
       d="m 393.34104,531.78318 c -0.009,-0.29336 -0.23968,-0.52871 -0.52515,-0.52871 -0.28551,0 -0.51627,0.23535 -0.52516,0.52871 -1.65023,0.26291 -2.91791,1.74368 -2.91791,3.52579 0,1.78198 1.2678,3.26274 2.91791,3.52573 0.009,0.29339 0.23965,0.52876 0.52516,0.52876 0.28547,0 0.51623,-0.23537 0.52515,-0.52876 1.65027,-0.26299 2.91795,-1.74375 2.91795,-3.52573 0,-1.78211 -1.26768,-3.26288 -2.91795,-3.52579 z m -0.009,6.93428 c -0.0457,-0.25351 -0.25926,-0.44562 -0.5172,-0.44562 -0.25794,0 -0.47159,0.19195 -0.51716,0.44562 -1.59151,-0.25848 -2.81293,-1.68807 -2.81293,-3.40849 0,-1.72042 1.22142,-3.15012 2.81307,-3.40849 0.0457,0.25345 0.25923,0.44556 0.51713,0.44556 0.25794,0 0.47159,-0.19199 0.5172,-0.44556 1.59139,0.25837 2.81284,1.68807 2.81284,3.40849 0,1.72042 -1.22145,3.15001 -2.81295,3.40849 z"
       id="path4-3"
       style="fill:#f2f2f2;fill-opacity:1;stroke-width:0.131073" />
    <path
       d="m 398.61078,535.30897 c 0,-0.29071 -0.21971,-0.52591 -0.4963,-0.54259 -0.10548,-1.11462 -0.53254,-2.13269 -1.1832,-2.95362 0.18578,-0.21423 0.18114,-0.54283 -0.0184,-0.74909 -0.19894,-0.20614 -0.51624,-0.21108 -0.72294,-0.0193 -0.79222,-0.67425 -1.77503,-1.11643 -2.85068,-1.22585 -0.0155,-0.28623 -0.24326,-0.51418 -0.52389,-0.51418 -0.28057,0 -0.50764,0.22795 -0.5237,0.51418 -1.07568,0.10931 -2.05837,0.5516 -2.85069,1.22585 -0.20673,-0.19263 -0.52411,-0.18768 -0.72322,0.0193 -0.19893,0.20626 -0.20369,0.53511 -0.018,0.74924 -0.6508,0.82078 -1.07762,1.83898 -1.1832,2.95347 -0.27662,0.0163 -0.4963,0.25188 -0.4963,0.54259 0,0.29068 0.21968,0.52592 0.4963,0.5426 0.10548,1.11438 0.5324,2.13236 1.18308,2.95318 -0.18597,0.2144 -0.1812,0.54325 0.0182,0.74953 0.1991,0.20608 0.51639,0.21101 0.72335,0.0188 0.79222,0.67441 1.77502,1.11644 2.85072,1.22578 0.0154,0.28632 0.2431,0.51425 0.5237,0.51425 0.28059,0 0.50766,-0.22793 0.52371,-0.51425 1.07569,-0.10923 2.05838,-0.55137 2.85068,-1.22578 0.207,0.19263 0.52417,0.18768 0.72323,-0.0188 0.19893,-0.20628 0.2037,-0.53513 0.0182,-0.74928 0.651,-0.82075 1.07761,-1.83905 1.1832,-2.95343 0.27667,-0.0163 0.4963,-0.25192 0.4963,-0.5426 z m -0.60913,0.53726 c -0.10403,1.08635 -0.52025,2.07902 -1.15419,2.88029 -0.20593,-0.15345 -0.49357,-0.13606 -0.67874,0.0558 -0.18524,0.19199 -0.20226,0.49 -0.0542,0.70322 -0.77328,0.65682 -1.7315,1.08805 -2.78037,1.19577 -0.0388,-0.26065 -0.25548,-0.46032 -0.51831,-0.46032 -0.26284,0 -0.47881,0.19967 -0.51835,0.46032 -1.04886,-0.10772 -2.00707,-0.53895 -2.78037,-1.19577 0.14822,-0.21349 0.13134,-0.51168 -0.0542,-0.70333 -0.18518,-0.1919 -0.47298,-0.20965 -0.6789,-0.0559 -0.63396,-0.80106 -1.05028,-1.79373 -1.15433,-2.88007 0.25163,-0.0408 0.44439,-0.26499 0.44439,-0.53727 0,-0.27237 -0.19276,-0.4961 -0.44439,-0.53727 0.10405,-1.08645 0.52023,-2.0789 1.15409,-2.88021 0.20603,0.15369 0.49396,0.13614 0.67901,-0.0558 0.18519,-0.19184 0.20207,-0.49022 0.0542,-0.70357 0.77341,-0.6566 1.73138,-1.08785 2.78024,-1.19566 0.0388,0.26071 0.2555,0.46041 0.51833,0.46041 0.26282,0 0.4788,-0.1997 0.51834,-0.46041 1.04885,0.10781 2.00693,0.53906 2.78027,1.19566 -0.14814,0.21347 -0.13142,0.51158 0.0541,0.70344 0.18515,0.19178 0.47301,0.20933 0.67892,0.0558 0.6339,0.80119 1.05012,1.79388 1.15422,2.88033 -0.25164,0.0408 -0.44437,0.2649 -0.44437,0.53727 0,0.27228 0.19285,0.49607 0.44459,0.53727 z"
       id="path6-6"
       style="fill:#f2f2f2;fill-opacity:1;stroke-width:0.131073" />
  </g>
</svg>
