<?xml version="1.0" encoding="UTF-8" standalone="no"?>
<svg
   width="32"
   version="1.1"
   height="32"
   viewBox="0 0 32 32"
   id="svg17"
   sodipodi:docname="certificate-server.svg"
   inkscape:version="1.1.1 (3bf5ae0d25, 2021-09-20)"
   xmlns:inkscape="http://www.inkscape.org/namespaces/inkscape"
   xmlns:sodipodi="http://sodipodi.sourceforge.net/DTD/sodipodi-0.dtd"
   xmlns:xlink="http://www.w3.org/1999/xlink"
   xmlns="http://www.w3.org/2000/svg"
   xmlns:svg="http://www.w3.org/2000/svg"
   xmlns:rdf="http://www.w3.org/1999/02/22-rdf-syntax-ns#"
   xmlns:cc="http://creativecommons.org/ns#"
   xmlns:dc="http://purl.org/dc/elements/1.1/">
  <sodipodi:namedview
     pagecolor="#ffffff"
     bordercolor="#666666"
     borderopacity="1"
     objecttolerance="10"
     gridtolerance="10"
     guidetolerance="10"
     inkscape:pageopacity="0"
     inkscape:pageshadow="2"
     inkscape:window-width="1920"
     inkscape:window-height="1007"
     id="namedview19"
     showgrid="true"
     inkscape:zoom="13.876971"
     inkscape:cx="5.1163903"
     inkscape:cy="10.629121"
     inkscape:window-x="0"
     inkscape:window-y="0"
     inkscape:window-maximized="1"
     inkscape:current-layer="layer1"
     inkscape:document-rotation="0"
     inkscape:pagecheckerboard="0">
    <inkscape:grid
       type="xygrid"
       id="grid904" />
  </sodipodi:namedview>
  <defs
     id="defs5455">
    <linearGradient
       inkscape:collect="always"
       xlink:href="#linearGradient847"
       id="linearGradient858"
       x1="210.75999"
       y1="89.093002"
       x2="362.40799"
       y2="89.093002"
       gradientUnits="userSpaceOnUse"
       gradientTransform="matrix(0.05859377,0,0,0.06178773,385.57143,515.92949)" />
    <linearGradient
       inkscape:collect="always"
       id="linearGradient847">
      <stop
         style="stop-color:#7192c1;stop-opacity:1"
         offset="0"
         id="stop843" />
      <stop
         style="stop-color:#3b5a87;stop-opacity:1"
         offset="1"
         id="stop845" />
    </linearGradient>
    <linearGradient
       inkscape:collect="always"
       xlink:href="#linearGradient847"
       id="linearGradient859"
       x1="0"
       y1="256.82327"
       x2="512"
       y2="256.82327"
       gradientUnits="userSpaceOnUse"
       gradientTransform="matrix(0.05859377,0,0,0.06178773,385.57143,515.92949)" />
    <linearGradient
       inkscape:collect="always"
       xlink:href="#linearGradient847"
       id="linearGradient862"
       x1="476.689"
       y1="163.60085"
       x2="319.6994"
       y2="162.04736"
       gradientUnits="userSpaceOnUse"
       gradientTransform="matrix(0.05859377,0,0,0.06178773,385.57143,515.92949)" />
  </defs>
  <metadata
     id="metadata5458">
    <rdf:RDF>
      <cc:Work
         rdf:about="">
        <dc:format>image/svg+xml</dc:format>
        <dc:type
           rdf:resource="http://purl.org/dc/dcmitype/StillImage" />
      </cc:Work>
    </rdf:RDF>
  </metadata>
  <g
     inkscape:label="Capa 1"
     inkscape:groupmode="layer"
     id="layer1"
     transform="translate(-384.57143,-515.798)">
    <path
       style="fill:url(#linearGradient858);fill-opacity:1;stroke-width:0.0601699"
       d="m 401.36761,522.2832 c 0.48407,0.5045 1.13728,0.78742 1.81795,0.78742 h 1.00659 2.61413 c -0.68066,0 -1.33386,-0.28292 -1.81794,-0.78742 l -1.629,-1.69769 c -0.48422,-0.5046 -1.13735,-0.78751 -1.81792,-0.78751 h -3.62074 c 0.68057,0 1.33378,0.28291 1.81794,0.78751 z"
       id="path2" />
    <path
       style="fill:#3b5a87;fill-opacity:1;stroke-width:0.0601699"
       d="m 396.11781,520.58551 1.62908,1.69769 c 0.48407,0.5045 1.13726,0.78742 1.81792,0.78742 h 1.00662 2.61413 c -0.68067,0 -1.33388,-0.28292 -1.81795,-0.78742 l -1.62899,-1.69769 c -0.48422,-0.5046 -1.13737,-0.78751 -1.81794,-0.78751 h -3.55616 -0.0646 c 0.68066,0 1.33379,0.28297 1.81788,0.78751 z"
       id="path4" />
    <path
       style="fill:url(#linearGradient859);fill-opacity:1;stroke-width:0.0564454"
       d="m 414.01968,522.67802 h -6.20691 -1.00662 -2.61412 -1.00659 -2.61401 -1.00662 c -0.68066,0 -1.33385,-0.24897 -1.81792,-0.693 l -1.62908,-1.49403 c -0.48415,-0.44402 -1.13728,-0.69299 -1.81793,-0.69299 h -3.55604 -3.62066 c -0.85698,0 -1.55175,0.6447 -1.55175,1.44001 v 2.88001 0.48002 17.75995 c 0,0.79531 0.69477,1.44001 1.55175,1.44001 h 26.8965 c 0.85698,0 1.55175,-0.6447 1.55175,-1.44001 v -18.23997 c 0,-0.79537 -0.69477,-1.44 -1.55175,-1.44 z m -9.82759,2.87996 z m 9.31043,0.48001 c 0,0.53015 -0.46314,0.95999 -1.03452,0.95999 h -7.24139 c -0.57138,0 -1.03452,-0.42984 -1.03452,-0.95999 v -0.48001 c 0,-0.53015 0.46314,-0.95999 1.03452,-0.95999 h 7.24132 c 0.57139,0 1.03452,0.42984 1.03452,0.95999 v 0.48001 z"
       id="path6"
       sodipodi:nodetypes="scccccsccscssccssssssccccccccccssssssscc" />
    <path
       style="fill:url(#linearGradient862);fill-opacity:1;stroke-width:0.0601699"
       d="m 412.46793,524.43061 h -7.24132 c -0.57138,0 -1.04623,0.48839 -1.04623,1.09081 v 0.54551 c 0,0.60243 0.47485,1.09082 1.04623,1.09082 h 7.24132 c 0.57139,0 1.10944,-0.48855 1.12241,-1.09082 l 0.0117,-0.54551 c 6e-5,-0.60242 -0.56268,-1.09081 -1.13412,-1.09081 z"
       id="path8"
       sodipodi:nodetypes="ssssssscs" />
    <path
       id="Lock-7-6"
       class="st0"
       d="m 392.0911,537.18496 c 0,0.28144 -0.14485,0.52537 -0.3622,0.6567 v 0.84434 c 0,0.20639 -0.16299,0.37525 -0.3622,0.37525 -0.19922,0 -0.36221,-0.16886 -0.36221,-0.37525 v -0.84434 c -0.21732,-0.13133 -0.3622,-0.37526 -0.3622,-0.6567 0,-0.41278 0.32599,-0.75052 0.72441,-0.75052 0.39842,0 0.7244,0.33774 0.7244,0.75052 z m 1.81103,-3.37732 h 0.72441 v 0.75051 h 1.08663 v 4.12785 c 0,1.03196 -0.81499,1.87628 -1.81104,1.87628 h -6.88188 v -6.00413 h 6.88188 z"
       style="clip-rule:evenodd;fill:#f0f0f0;fill-opacity:1;fill-rule:evenodd;stroke-width:0.184337" />
    <path
       id="Lock-s-5-2"
       class="st1"
       d="m 388.83126,534.55815 h -0.7244 v -1.87629 c 0,-1.85752 1.46692,-3.37732 3.25984,-3.37732 1.79293,0 3.25984,1.5198 3.25984,3.37732 v 1.12578 h -0.72441 v -1.12578 c 0,-1.44474 -1.14095,-2.6268 -2.53543,-2.6268 -1.39449,0 -2.53544,1.18206 -2.53544,2.6268 z m 6.88191,0 h -1.81104 v 0.75052 h 1.08661 v 3.75258 c 0,0.82557 -0.65198,1.50103 -1.44882,1.50103 h -5.79527 v 0.75052 h 5.79527 c 1.1953,0 2.17325,-1.0132 2.17325,-2.25155 z"
       style="fill:#263740;fill-opacity:1;stroke-width:0.184337" />
  </g>
</svg>
