<?xml version="1.0" encoding="UTF-8" standalone="no"?>
<svg
   width="32"
   version="1.1"
   height="32"
   viewBox="0 0 32 32"
   id="svg15"
   sodipodi:docname="folder-design.svg"
   inkscape:version="1.1.1 (3bf5ae0d25, 2021-09-20)"
   xmlns:inkscape="http://www.inkscape.org/namespaces/inkscape"
   xmlns:sodipodi="http://sodipodi.sourceforge.net/DTD/sodipodi-0.dtd"
   xmlns:xlink="http://www.w3.org/1999/xlink"
   xmlns="http://www.w3.org/2000/svg"
   xmlns:svg="http://www.w3.org/2000/svg"
   xmlns:rdf="http://www.w3.org/1999/02/22-rdf-syntax-ns#"
   xmlns:cc="http://creativecommons.org/ns#"
   xmlns:dc="http://purl.org/dc/elements/1.1/">
  <sodipodi:namedview
     pagecolor="#ffffff"
     bordercolor="#666666"
     borderopacity="1"
     objecttolerance="10"
     gridtolerance="10"
     guidetolerance="10"
     inkscape:pageopacity="0"
     inkscape:pageshadow="2"
     inkscape:window-width="1920"
     inkscape:window-height="1007"
     id="namedview17"
     showgrid="true"
     inkscape:zoom="9.8125"
     inkscape:cx="-9.477707"
     inkscape:cy="18.089172"
     inkscape:window-x="0"
     inkscape:window-y="0"
     inkscape:window-maximized="1"
     inkscape:current-layer="layer1"
     inkscape:pagecheckerboard="0">
    <inkscape:grid
       type="xygrid"
       id="grid862" />
  </sodipodi:namedview>
  <defs
     id="defs5455">
    <linearGradient
       inkscape:collect="always"
       id="linearGradient975">
      <stop
         style="stop-color:#263740;stop-opacity:1"
         offset="0"
         id="stop971" />
      <stop
         style="stop-color:#263740;stop-opacity:1"
         offset="0.32845557"
         id="stop1397" />
      <stop
         style="stop-color:#f2f2f2;stop-opacity:1"
         offset="0.33189607"
         id="stop1527" />
      <stop
         style="stop-color:#f0f0f0;stop-opacity:1"
         offset="1"
         id="stop973" />
    </linearGradient>
    <linearGradient
       inkscape:collect="always"
       xlink:href="#linearGradient847"
       id="linearGradient858"
       x1="210.75999"
       y1="89.093002"
       x2="362.40799"
       y2="89.093002"
       gradientUnits="userSpaceOnUse"
       gradientTransform="matrix(0.05859377,0,0,0.06178774,385.57143,515.92951)" />
    <linearGradient
       inkscape:collect="always"
       id="linearGradient847">
      <stop
         style="stop-color:#7192c1;stop-opacity:1"
         offset="0"
         id="stop843" />
      <stop
         style="stop-color:#3b5a87;stop-opacity:1"
         offset="1"
         id="stop845" />
    </linearGradient>
    <linearGradient
       inkscape:collect="always"
       xlink:href="#linearGradient847"
       id="linearGradient859"
       x1="0"
       y1="256.82327"
       x2="512"
       y2="256.82327"
       gradientUnits="userSpaceOnUse"
       gradientTransform="matrix(0.05859377,0,0,0.06178774,385.57143,515.92951)" />
    <linearGradient
       inkscape:collect="always"
       xlink:href="#linearGradient847"
       id="linearGradient862"
       x1="476.689"
       y1="163.60085"
       x2="319.6994"
       y2="162.04736"
       gradientUnits="userSpaceOnUse"
       gradientTransform="matrix(0.05859377,0,0,0.06178774,385.57143,515.92951)" />
    <linearGradient
       inkscape:collect="always"
       xlink:href="#linearGradient975"
       id="linearGradient977-3"
       x1="429.92029"
       y1="510.79843"
       x2="429.57144"
       y2="533.79797"
       gradientUnits="userSpaceOnUse"
       gradientTransform="matrix(0.48293843,0,0,0.50034415,183.90667,274.07998)" />
  </defs>
  <metadata
     id="metadata5458">
    <rdf:RDF>
      <cc:Work
         rdf:about="">
        <dc:format>image/svg+xml</dc:format>
        <dc:type
           rdf:resource="http://purl.org/dc/dcmitype/StillImage" />
      </cc:Work>
    </rdf:RDF>
  </metadata>
  <g
     inkscape:label="Capa 1"
     inkscape:groupmode="layer"
     id="layer1"
     transform="translate(-384.57143,-515.798)">
    <path
       style="fill:url(#linearGradient858);fill-opacity:1;stroke-width:0.0601699"
       d="m 401.36761,522.28316 c 0.48407,0.50456 1.13728,0.78749 1.81795,0.78749 h 1.00659 2.61413 c -0.68066,0 -1.33386,-0.28293 -1.81794,-0.78749 l -1.629,-1.69766 c -0.48422,-0.50458 -1.13735,-0.7875 -1.81792,-0.7875 h -3.62074 c 0.68057,0 1.33378,0.28292 1.81794,0.7875 z"
       id="path2" />
    <path
       style="fill:#3b5a87;fill-opacity:1;stroke-width:0.0601699"
       d="m 396.11781,520.5855 1.62908,1.69766 c 0.48407,0.50456 1.13726,0.78749 1.81792,0.78749 h 1.00662 2.61413 c -0.68067,0 -1.33388,-0.28293 -1.81795,-0.78749 l -1.62899,-1.69766 c -0.48422,-0.50458 -1.13737,-0.7875 -1.81794,-0.7875 h -3.55616 -0.0646 c 0.68066,0 1.33379,0.28298 1.81788,0.7875 z"
       id="path4" />
    <path
       style="fill:url(#linearGradient859);fill-opacity:1;stroke-width:0.0564455"
       d="m 414.01968,522.67802 h -6.20691 -1.00662 -2.61412 -1.00659 -2.61401 -1.00662 c -0.68066,0 -1.33385,-0.249 -1.81792,-0.69302 l -1.62908,-1.494 c -0.48415,-0.444 -1.13728,-0.693 -1.81793,-0.693 h -3.55604 -3.62066 c -0.85698,0 -1.55175,0.64472 -1.55175,1.44001 v 2.88001 0.48002 17.75995 c 0,0.79529 0.69477,1.44001 1.55175,1.44001 h 26.8965 c 0.85698,0 1.55175,-0.64472 1.55175,-1.44001 v -18.23997 c 0,-0.79534 -0.69477,-1.44 -1.55175,-1.44 z m -9.82759,2.87996 z m 9.31043,0.48001 c 0,0.53015 -0.46314,0.95999 -1.03452,0.95999 h -7.24139 c -0.57138,0 -1.03452,-0.42984 -1.03452,-0.95999 v -0.48001 c 0,-0.53015 0.46314,-0.95999 1.03452,-0.95999 h 7.24132 c 0.57139,0 1.03452,0.42984 1.03452,0.95999 v 0.48001 z"
       id="path6"
       sodipodi:nodetypes="scccccsccscssccssssssccccccccccssssssscc" />
    <path
       style="fill:url(#linearGradient862);fill-opacity:1;stroke-width:0.0601699"
       d="m 412.46793,524.43058 h -7.24132 c -0.57138,0 -1.04623,0.48844 -1.04623,1.09086 v 0.54548 c 0,0.60243 0.47485,1.09086 1.04623,1.09086 h 7.24132 c 0.57139,0 1.10944,-0.48858 1.12241,-1.09086 l 0.0117,-0.54548 c 6e-5,-0.60242 -0.56268,-1.09086 -1.13412,-1.09086 z"
       id="path8"
       sodipodi:nodetypes="ssssssscs" />
    <path
       style="color:#232629;fill:url(#linearGradient977-3);fill-opacity:1;stroke:none;stroke-width:0.412658"
       d="m 391.5316,529.65478 c -0.21369,0 -0.38864,0.16528 -0.38864,0.36999 v 0.33845 c -0.68861,0.16944 -1.18405,0.75462 -1.18405,1.45795 0,0.49232 0.24533,0.93044 0.62826,1.2062 0.0408,0.0462 0.0659,0.10456 0.0659,0.16963 0,0.0191 2e-5,0.0379 -0.002,0.0549 l -1.70197,3.45622 h -0.70401 c -0.11488,0 -0.20914,0.0891 -0.20914,0.19882 v 9.7e-4 c 0,0.11008 0.0943,0.19882 0.20914,0.19882 h 0.50804 l -1.31415,2.66889 c -0.0828,0.16929 -0.0416,0.36487 0.0881,0.49151 l -0.50639,0.98531 0.80034,-0.83071 c 0.21246,0.0531 0.43969,-0.044 0.53603,-0.239 l 1.51506,-3.076 h 1.33144 v 0.26428 c 0,0.16805 0.14284,0.30376 0.31948,0.30376 h 0.0173 c 0.17664,0 0.3203,-0.13571 0.3203,-0.30376 v -0.26428 h 1.36191 l 1.51423,3.076 c 0.0951,0.19648 0.32399,0.29228 0.53521,0.239 l 0.80035,0.83071 -0.50475,-0.98531 c 0.12847,-0.12664 0.17005,-0.32108 0.0873,-0.49151 l -1.31415,-2.66889 h 0.47675 c 0.11611,0 0.20914,-0.089 0.20914,-0.19882 0,-0.11008 -0.093,-0.19836 -0.20914,-0.19958 h -0.67272 l -1.70115,-3.45623 c -0.002,-0.018 -0.002,-0.036 -0.002,-0.055 0,-0.0642 0.0247,-0.12343 0.0642,-0.16964 0.38292,-0.27576 0.6299,-0.71388 0.6299,-1.2062 0,-0.71295 -0.51874,-1.30535 -1.21534,-1.46581 v -0.33059 c 0,-0.20471 -0.17289,-0.36999 -0.38782,-0.36999 z m 0.36971,1.36485 c 0.32765,0.13187 0.55744,0.44084 0.55744,0.80154 0,0.48049 -0.40752,0.87012 -0.9115,0.87012 -0.50645,0 -0.91151,-0.38963 -0.91151,-0.87012 0,-0.34902 0.21652,-0.64802 0.52863,-0.78657 0.0463,0.15426 0.18953,0.26978 0.36723,0.26978 0.18231,0 0.32854,-0.12249 0.36971,-0.28475 z m -0.36147,2.88979 h 0.007 0.007 c 0.0494,0 0.0931,0.0221 0.12022,0.055 l 1.3512,2.74381 h -1.16593 v -0.3211 c 0,-0.1692 -0.14367,-0.30529 -0.32031,-0.30529 h -0.0173 c -0.17664,0 -0.31948,0.13724 -0.31948,0.30529 v 0.3211 h -1.13547 l 1.3512,-2.74381 c 0.0284,-0.0342 0.0716,-0.055 0.12105,-0.055 z"
       class="ColorScheme-Text"
       id="path12-5" />
  </g>
</svg>
