<?xml version="1.0" encoding="UTF-8" standalone="no"?>
<svg
   width="32"
   version="1.1"
   height="32"
   viewBox="0 0 32 32"
   id="svg15"
   sodipodi:docname="folder-build.svg"
   inkscape:version="1.1.1 (3bf5ae0d25, 2021-09-20)"
   xmlns:inkscape="http://www.inkscape.org/namespaces/inkscape"
   xmlns:sodipodi="http://sodipodi.sourceforge.net/DTD/sodipodi-0.dtd"
   xmlns:xlink="http://www.w3.org/1999/xlink"
   xmlns="http://www.w3.org/2000/svg"
   xmlns:svg="http://www.w3.org/2000/svg"
   xmlns:rdf="http://www.w3.org/1999/02/22-rdf-syntax-ns#"
   xmlns:cc="http://creativecommons.org/ns#"
   xmlns:dc="http://purl.org/dc/elements/1.1/">
  <sodipodi:namedview
     pagecolor="#ffffff"
     bordercolor="#666666"
     borderopacity="1"
     objecttolerance="10"
     gridtolerance="10"
     guidetolerance="10"
     inkscape:pageopacity="0"
     inkscape:pageshadow="2"
     inkscape:window-width="1920"
     inkscape:window-height="1007"
     id="namedview17"
     showgrid="true"
     inkscape:zoom="9.8125"
     inkscape:cx="-9.477707"
     inkscape:cy="18.089172"
     inkscape:window-x="0"
     inkscape:window-y="0"
     inkscape:window-maximized="1"
     inkscape:current-layer="layer1"
     inkscape:pagecheckerboard="0">
    <inkscape:grid
       type="xygrid"
       id="grid862" />
  </sodipodi:namedview>
  <defs
     id="defs5455">
    <linearGradient
       inkscape:collect="always"
       id="linearGradient1154">
      <stop
         style="stop-color:#ffffff;stop-opacity:1"
         offset="0"
         id="stop1150" />
      <stop
         style="stop-color:#1a1a1a;stop-opacity:1"
         offset="0.06666645"
         id="stop1768" />
      <stop
         style="stop-color:#232629;stop-opacity:1"
         offset="1"
         id="stop1152" />
    </linearGradient>
    <linearGradient
       inkscape:collect="always"
       xlink:href="#linearGradient847"
       id="linearGradient858"
       x1="210.75999"
       y1="89.093002"
       x2="362.40799"
       y2="89.093002"
       gradientUnits="userSpaceOnUse"
       gradientTransform="matrix(0.05859377,0,0,0.06178774,385.57143,515.9295)" />
    <linearGradient
       inkscape:collect="always"
       id="linearGradient847">
      <stop
         style="stop-color:#7192c1;stop-opacity:1"
         offset="0"
         id="stop843" />
      <stop
         style="stop-color:#3b5a87;stop-opacity:1"
         offset="1"
         id="stop845" />
    </linearGradient>
    <linearGradient
       inkscape:collect="always"
       xlink:href="#linearGradient847"
       id="linearGradient859"
       x1="0"
       y1="256.82327"
       x2="512"
       y2="256.82327"
       gradientUnits="userSpaceOnUse"
       gradientTransform="matrix(0.05859377,0,0,0.06178774,385.57143,515.9295)" />
    <linearGradient
       inkscape:collect="always"
       xlink:href="#linearGradient847"
       id="linearGradient862"
       x1="476.689"
       y1="163.60085"
       x2="319.6994"
       y2="162.04736"
       gradientUnits="userSpaceOnUse"
       gradientTransform="matrix(0.05859377,0,0,0.06178774,385.57143,515.9295)" />
    <linearGradient
       inkscape:collect="always"
       xlink:href="#linearGradient1154"
       id="linearGradient1156-3"
       x1="425.57144"
       y1="522.79797"
       x2="431.57144"
       y2="524.79797"
       gradientUnits="userSpaceOnUse"
       gradientTransform="matrix(0.48293843,0,0,0.50034415,187.12187,273.74829)" />
  </defs>
  <metadata
     id="metadata5458">
    <rdf:RDF>
      <cc:Work
         rdf:about="">
        <dc:format>image/svg+xml</dc:format>
        <dc:type
           rdf:resource="http://purl.org/dc/dcmitype/StillImage" />
      </cc:Work>
    </rdf:RDF>
  </metadata>
  <g
     inkscape:label="Capa 1"
     inkscape:groupmode="layer"
     id="layer1"
     transform="translate(-384.57143,-515.798)">
    <path
       style="fill:url(#linearGradient858);fill-opacity:1;stroke-width:0.0601699"
       d="m 401.36761,522.28316 c 0.48407,0.50456 1.13728,0.78749 1.81795,0.78749 h 1.00659 2.61413 c -0.68066,0 -1.33386,-0.28293 -1.81794,-0.78749 l -1.629,-1.69766 c -0.48422,-0.50458 -1.13735,-0.7875 -1.81792,-0.7875 h -3.62074 c 0.68057,0 1.33378,0.28292 1.81794,0.7875 z"
       id="path2" />
    <path
       style="fill:#3b5a87;fill-opacity:1;stroke-width:0.0601699"
       d="m 396.11781,520.5855 1.62908,1.69766 c 0.48407,0.50456 1.13726,0.78749 1.81792,0.78749 h 1.00662 2.61413 c -0.68067,0 -1.33388,-0.28293 -1.81795,-0.78749 l -1.62899,-1.69766 c -0.48422,-0.50458 -1.13737,-0.7875 -1.81794,-0.7875 h -3.55616 -0.0646 c 0.68066,0 1.33379,0.28298 1.81788,0.7875 z"
       id="path4" />
    <path
       style="fill:url(#linearGradient859);fill-opacity:1;stroke-width:0.0564455"
       d="m 414.01968,522.67802 h -6.20691 -1.00662 -2.61412 -1.00659 -2.61401 -1.00662 c -0.68066,0 -1.33385,-0.249 -1.81792,-0.69302 l -1.62908,-1.494 c -0.48415,-0.444 -1.13728,-0.693 -1.81793,-0.693 h -3.55604 -3.62066 c -0.85698,0 -1.55175,0.64472 -1.55175,1.44001 v 2.88001 0.48002 17.75995 c 0,0.79529 0.69477,1.44001 1.55175,1.44001 h 26.8965 c 0.85698,0 1.55175,-0.64472 1.55175,-1.44001 v -18.23997 c 0,-0.79534 -0.69477,-1.44 -1.55175,-1.44 z m -9.82759,2.87996 z m 9.31043,0.48001 c 0,0.53015 -0.46314,0.95999 -1.03452,0.95999 h -7.24139 c -0.57138,0 -1.03452,-0.42984 -1.03452,-0.95999 v -0.48001 c 0,-0.53015 0.46314,-0.95999 1.03452,-0.95999 h 7.24132 c 0.57139,0 1.03452,0.42984 1.03452,0.95999 v 0.48001 z"
       id="path6"
       sodipodi:nodetypes="scccccsccscssccssssssccccccccccssssssscc" />
    <path
       style="fill:url(#linearGradient862);fill-opacity:1;stroke-width:0.0601699"
       d="m 412.46793,524.43058 h -7.24132 c -0.57138,0 -1.04623,0.48844 -1.04623,1.09086 v 0.54548 c 0,0.60243 0.47485,1.09086 1.04623,1.09086 h 7.24132 c 0.57139,0 1.10944,-0.48858 1.12241,-1.09086 l 0.0117,-0.54548 c 6e-5,-0.60242 -0.56268,-1.09086 -1.13412,-1.09086 z"
       id="path8"
       sodipodi:nodetypes="ssssssscs" />
    <path
       style="color:#232629;fill:url(#linearGradient1156-3);fill-opacity:1;stroke:none;stroke-width:0.491564"
       d="m 397.06385,529.30453 -0.14997,0.53064 c -0.30715,-0.0264 -0.61658,0.008 -0.91117,0.10253 l -0.25562,-0.48472 -0.84797,0.47983 0.25562,0.48471 c -0.23616,0.20615 -0.43144,0.45657 -0.57632,0.73881 l -0.51029,-0.15445 -0.27165,0.95964 0.51217,0.15541 c -0.0256,0.31816 0.007,0.63972 0.0981,0.945 l -0.46785,0.2648 0.46313,0.87853 0.46785,-0.26583 c 0.19897,0.24468 0.44166,0.448 0.71403,0.59805 l -0.14997,0.52875 0.9272,0.28143 0.14998,-0.53064 c 0.30714,0.0264 0.61657,-0.008 0.91117,-0.10253 l 0.25656,0.48472 0.84703,-0.47983 -0.25562,-0.48472 c 0.23615,-0.20615 0.43144,-0.45657 0.57632,-0.7388 l 0.51029,0.15445 0.27165,-0.95965 -0.51218,-0.1554 c 0.0256,-0.31818 -0.007,-0.63972 -0.0981,-0.945 l 0.46784,-0.26481 -0.46313,-0.87852 -0.46785,0.26582 c -0.19897,-0.24468 -0.44165,-0.44799 -0.71403,-0.59805 l 0.14998,-0.52875 z m -0.47728,1.02512 c 0.0958,-0.006 0.19257,-0.005 0.28864,0.003 0.12809,0.0113 0.25586,0.0356 0.38107,0.0732 0.48197,0.14659 0.89028,0.48191 1.13754,0.93524 0.25693,0.47032 0.31943,1.02901 0.17261,1.54794 -0.1415,0.49933 -0.46513,0.92234 -0.90268,1.17853 -0.45396,0.2662 -0.99328,0.33096 -1.49409,0.1788 -0.48197,-0.14659 -0.89122,-0.48192 -1.13849,-0.93516 -0.25692,-0.47033 -0.31942,-1.0291 -0.17261,-1.54794 0.1415,-0.4994 0.46514,-0.92243 0.90268,-1.1786 0.25536,-0.14972 0.53779,-0.23567 0.82533,-0.25505 z m -6.4376,1.46192 -0.96116,0.0976 0.0519,0.55017 c -0.2946,0.0942 -0.56882,0.24552 -0.80836,0.44659 l -0.41314,-0.35081 -0.61311,0.77299 0.4122,0.35081 c -0.14488,0.2827 -0.23504,0.59163 -0.26788,0.90988 l -0.52915,0.0536 0.0943,0.99581 0.53104,-0.0535 c 0.0908,0.30527 0.23692,0.58935 0.43106,0.83748 l -0.33862,0.42809 0.7461,0.63515 0.33862,-0.42706 c 0.27286,0.15015 0.57101,0.24357 0.87816,0.27758 l 0.0519,0.54826 0.96116,-0.0976 -0.0519,-0.55017 c 0.29459,-0.0941 0.56882,-0.24552 0.80836,-0.4466 l 0.41313,0.35081 0.61311,-0.77297 -0.41219,-0.35089 c 0.14488,-0.28264 0.23503,-0.59156 0.26787,-0.9098 l 0.52916,-0.0536 -0.0943,-0.99582 -0.53105,0.0536 c -0.0908,-0.30519 -0.23691,-0.58926 -0.43105,-0.83748 l 0.33862,-0.428 -0.7461,-0.63523 -0.33863,0.42705 c -0.27286,-0.15005 -0.571,-0.24347 -0.87815,-0.27748 z m -0.0132,1.0437 c 0.36995,0.0373 0.72481,0.1845 1.01964,0.42808 0.40809,0.33719 0.6671,0.83072 0.71781,1.36907 0.0493,0.51837 -0.0988,1.03612 -0.4122,1.44334 -0.3255,0.42287 -0.80278,0.69114 -1.32242,0.74369 -0.50032,0.051 -0.99911,-0.10226 -1.39222,-0.42706 -0.40808,-0.33719 -0.66709,-0.83167 -0.7178,-1.37009 -0.0493,-0.51836 0.0988,-1.0351 0.41219,-1.4424 0.32551,-0.42277 0.80184,-0.69114 1.32148,-0.74361 0.12508,-0.0133 0.25021,-0.0137 0.37352,-10e-4 z m 4.16157,1.99256 v 0.55316 c -0.30231,0.0643 -0.58962,0.1874 -0.84703,0.36349 l -0.37729,-0.39082 -0.68291,0.70745 0.3773,0.39091 c -0.17048,0.26666 -0.29047,0.56433 -0.35277,0.87759 h -0.53199 v 1.00069 h 0.53388 c 0.0618,0.31316 0.18089,0.61082 0.35088,0.8775 l -0.3773,0.3909 0.68291,0.70755 0.37729,-0.39091 c 0.25741,0.17665 0.54472,0.30098 0.84703,0.36554 v 0.5511 h 0.96588 v -0.55308 c 0.30232,-0.0643 0.58962,-0.1874 0.84703,-0.36356 l 0.37729,0.39091 0.68291,-0.70755 -0.37729,-0.3909 c 0.17047,-0.26668 0.29046,-0.56434 0.35276,-0.8775 h 0.53199 v -1.00069 h -0.53387 c -0.0618,-0.31326 -0.18089,-0.61093 -0.35088,-0.87759 l 0.37729,-0.39091 -0.68291,-0.70745 -0.37729,0.39082 c -0.25741,-0.17657 -0.54471,-0.30091 -0.84703,-0.36546 v -0.55119 z m 0.48294,1.00069 c 0.50274,0 0.98525,0.2031 1.34601,0.56584 0.37427,0.37676 0.58575,0.89471 0.58575,1.43555 0,0.52086 -0.19601,1.02081 -0.54614,1.39451 -0.36365,0.38781 -0.86356,0.60687 -1.38562,0.60687 -0.50274,0 -0.98524,-0.20302 -1.346,-0.56584 -0.37428,-0.37675 -0.58575,-0.89462 -0.58575,-1.43554 0,-0.52086 0.196,-1.02073 0.54614,-1.39452 0.36365,-0.38771 0.86356,-0.60687 1.38561,-0.60687 z"
       class="ColorScheme-Text"
       id="path12-3" />
  </g>
</svg>
