<?xml version="1.0" encoding="UTF-8" standalone="no"?>
<svg
   width="32"
   version="1.1"
   height="32"
   viewBox="0 0 32 32"
   id="svg15"
   sodipodi:docname="folder-crash.svg"
   inkscape:version="1.1.1 (3bf5ae0d25, 2021-09-20)"
   xmlns:inkscape="http://www.inkscape.org/namespaces/inkscape"
   xmlns:sodipodi="http://sodipodi.sourceforge.net/DTD/sodipodi-0.dtd"
   xmlns:xlink="http://www.w3.org/1999/xlink"
   xmlns="http://www.w3.org/2000/svg"
   xmlns:svg="http://www.w3.org/2000/svg"
   xmlns:rdf="http://www.w3.org/1999/02/22-rdf-syntax-ns#"
   xmlns:cc="http://creativecommons.org/ns#"
   xmlns:dc="http://purl.org/dc/elements/1.1/">
  <sodipodi:namedview
     pagecolor="#ffffff"
     bordercolor="#666666"
     borderopacity="1"
     objecttolerance="10"
     gridtolerance="10"
     guidetolerance="10"
     inkscape:pageopacity="0"
     inkscape:pageshadow="2"
     inkscape:window-width="1920"
     inkscape:window-height="1007"
     id="namedview17"
     showgrid="false"
     inkscape:zoom="9.8125"
     inkscape:cx="-14.063694"
     inkscape:cy="8.1019108"
     inkscape:window-x="0"
     inkscape:window-y="0"
     inkscape:window-maximized="1"
     inkscape:current-layer="g4261"
     inkscape:pagecheckerboard="0" />
  <defs
     id="defs5455">
    <linearGradient
       inkscape:collect="always"
       xlink:href="#linearGradient847"
       id="linearGradient858"
       x1="210.75999"
       y1="89.093002"
       x2="362.40799"
       y2="89.093002"
       gradientUnits="userSpaceOnUse"
       gradientTransform="matrix(0.05859377,0,0,0.06178774,385.57143,515.92951)" />
    <linearGradient
       inkscape:collect="always"
       id="linearGradient847">
      <stop
         style="stop-color:#7192c1;stop-opacity:1"
         offset="0"
         id="stop843" />
      <stop
         style="stop-color:#3b5a87;stop-opacity:1"
         offset="1"
         id="stop845" />
    </linearGradient>
    <linearGradient
       inkscape:collect="always"
       xlink:href="#linearGradient847"
       id="linearGradient906"
       x1="385.57144"
       y1="515.78149"
       x2="447.69116"
       y2="515.78149"
       gradientUnits="userSpaceOnUse"
       gradientTransform="matrix(0.48293843,0,0,0.50034415,199.36417,273.72973)" />
    <linearGradient
       inkscape:collect="always"
       xlink:href="#linearGradient847"
       id="linearGradient862"
       x1="476.689"
       y1="163.60085"
       x2="319.6994"
       y2="162.04736"
       gradientUnits="userSpaceOnUse"
       gradientTransform="matrix(0.05859377,0,0,0.06178774,385.57143,515.92951)" />
    <linearGradient
       inkscape:collect="always"
       xlink:href="#linearGradient1869"
       id="linearGradient2063"
       gradientUnits="userSpaceOnUse"
       x1="426.47894"
       y1="520.06909"
       x2="428.97894"
       y2="520.06909"
       gradientTransform="matrix(0.56320516,0,0,0.50034415,149.05402,274.23011)" />
    <linearGradient
       inkscape:collect="always"
       id="linearGradient1869">
      <stop
         style="stop-color:#ff0000;stop-opacity:0.75300235"
         offset="0"
         id="stop1865" />
      <stop
         style="stop-color:#ff00ff;stop-opacity:1"
         offset="1"
         id="stop1867" />
    </linearGradient>
    <linearGradient
       inkscape:collect="always"
       xlink:href="#linearGradient1869"
       id="linearGradient1612"
       x1="430.27118"
       y1="522.54797"
       x2="432.77118"
       y2="522.54797"
       gradientUnits="userSpaceOnUse"
       gradientTransform="matrix(0.56320516,0,0,0.50034415,149.05402,274.23011)" />
    <linearGradient
       inkscape:collect="always"
       xlink:href="#linearGradient1869"
       id="linearGradient1614"
       x1="426.16644"
       y1="527.56909"
       x2="428.66644"
       y2="527.56909"
       gradientUnits="userSpaceOnUse"
       gradientTransform="matrix(0.56320516,0,0,0.50034415,149.05402,274.23011)" />
    <linearGradient
       inkscape:collect="always"
       xlink:href="#linearGradient1869"
       id="linearGradient1616"
       x1="434.37592"
       y1="527.56909"
       x2="436.87592"
       y2="527.56909"
       gradientUnits="userSpaceOnUse"
       gradientTransform="matrix(0.56320516,0,0,0.50034415,149.05402,274.23011)" />
    <linearGradient
       inkscape:collect="always"
       xlink:href="#linearGradient1869"
       id="linearGradient1618"
       x1="428.83325"
       y1="526.23682"
       x2="431.33325"
       y2="526.23682"
       gradientUnits="userSpaceOnUse"
       gradientTransform="matrix(0.56320516,0,0,0.50034415,149.05402,274.23011)" />
    <linearGradient
       inkscape:collect="always"
       xlink:href="#linearGradient1869"
       id="linearGradient1620"
       x1="431.70911"
       y1="526.23682"
       x2="434.20911"
       y2="526.23682"
       gradientUnits="userSpaceOnUse"
       gradientTransform="matrix(0.56320516,0,0,0.50034415,149.05402,274.23011)" />
    <linearGradient
       inkscape:collect="always"
       xlink:href="#linearGradient1869"
       id="linearGradient1622"
       x1="433.97894"
       y1="520.06909"
       x2="436.47894"
       y2="520.06909"
       gradientUnits="userSpaceOnUse"
       gradientTransform="matrix(0.56320516,0,0,0.50034415,149.05402,274.23011)" />
  </defs>
  <metadata
     id="metadata5458">
    <rdf:RDF>
      <cc:Work
         rdf:about="">
        <dc:format>image/svg+xml</dc:format>
        <dc:type
           rdf:resource="http://purl.org/dc/dcmitype/StillImage" />
      </cc:Work>
    </rdf:RDF>
  </metadata>
  <g
     inkscape:label="Capa 1"
     inkscape:groupmode="layer"
     id="g4261"
     transform="translate(-384.57143,-515.798)">
    <path
       style="fill:url(#linearGradient858);fill-opacity:1;stroke-width:0.0601699"
       d="m 401.36761,522.28316 c 0.48407,0.50456 1.13728,0.78749 1.81795,0.78749 h 1.00659 2.61413 c -0.68066,0 -1.33386,-0.28293 -1.81794,-0.78749 l -1.629,-1.69766 c -0.48422,-0.50458 -1.13735,-0.7875 -1.81792,-0.7875 h -3.62074 c 0.68057,0 1.33378,0.28292 1.81794,0.7875 z"
       id="path2" />
    <path
       style="fill:#3b5a87;fill-opacity:1;stroke-width:0.0601699"
       d="m 396.11781,520.5855 1.62908,1.69766 c 0.48407,0.50456 1.13726,0.78749 1.81792,0.78749 h 1.00662 2.61413 c -0.68067,0 -1.33388,-0.28293 -1.81795,-0.78749 l -1.62899,-1.69766 c -0.48422,-0.50458 -1.13737,-0.7875 -1.81794,-0.7875 h -3.55616 -0.0646 c 0.68066,0 1.33379,0.28298 1.81788,0.7875 z"
       id="path4" />
    <path
       style="fill:url(#linearGradient906);fill-opacity:1;stroke-width:0.0564455"
       d="m 414.01968,522.67802 h -6.20691 -1.00662 -2.61412 -1.00659 -2.61401 -1.00662 c -0.68066,0 -1.33385,-0.249 -1.81792,-0.69302 l -1.62908,-1.494 c -0.48415,-0.444 -1.13728,-0.693 -1.81793,-0.693 h -3.55604 -3.62066 c -0.85698,0 -1.55175,0.64472 -1.55175,1.44001 v 2.88001 0.48002 17.75995 c 0,0.79529 0.69477,1.44001 1.55175,1.44001 h 26.8965 c 0.85698,0 1.55175,-0.64472 1.55175,-1.44001 v -18.23997 c 0,-0.79534 -0.69477,-1.44 -1.55175,-1.44 z m -9.82759,2.87996 z m 9.31043,0.48001 c 0,0.53015 -0.46314,0.95999 -1.03452,0.95999 h -7.24139 c -0.57138,0 -1.03452,-0.42984 -1.03452,-0.95999 v -0.48001 c 0,-0.53015 0.46314,-0.95999 1.03452,-0.95999 h 7.24132 c 0.57139,0 1.03452,0.42984 1.03452,0.95999 v 0.48001 z"
       id="path6"
       sodipodi:nodetypes="scccccsccscssccssssssccccccccccssssssscc" />
    <path
       style="fill:url(#linearGradient862);fill-opacity:1;stroke-width:0.0601699"
       d="m 412.46793,524.43058 h -7.24132 c -0.57138,0 -1.04623,0.48844 -1.04623,1.09086 v 0.54548 c 0,0.60243 0.47485,1.09086 1.04623,1.09086 h 7.24132 c 0.57139,0 1.10944,-0.48858 1.12241,-1.09086 l 0.0117,-0.54548 c 6e-5,-0.60242 -0.56268,-1.09086 -1.13412,-1.09086 z"
       id="path8"
       sodipodi:nodetypes="ssssssscs" />
    <g
       id="Book_1_"
       transform="matrix(0.21178863,0,0,0.16417539,385.32594,530.80554)">
      <path
         id="Book-s"
         class="st1"
         d="m 16,4 c -2.2,0 -4,1.8 -4,4 0,2.2 1.8,4 4,4 H 12 C 9.8,12 8,10.2 8,8 8,3.6 11.6,0 16,0 h 40 v 4 z m 36,8 v 40 c 0,4.4 -3.6,8 -8,8 H 12 v 4 h 32 c 6.6,0 12,-5.4 12,-12 V 12 Z"
         style="fill:#f0f0f0;fill-opacity:1" />
    </g>
    <rect
       x="389.24899"
       y="533.81799"
       width="1.4080158"
       height="1.2508628"
       id="rect6"
       style="fill:url(#linearGradient2063);fill-opacity:1;stroke-width:0.112086" />
    <rect
       x="391.38504"
       y="535.05847"
       width="1.4080158"
       height="1.2508628"
       id="rect8"
       style="fill:url(#linearGradient1612);fill-opacity:1;stroke-width:0.112086" />
    <rect
       x="389.07333"
       y="537.5705"
       width="1.4080158"
       height="1.2508628"
       id="rect10"
       style="fill:url(#linearGradient1614);fill-opacity:1;stroke-width:0.112086" />
    <rect
       x="393.69678"
       y="537.5705"
       width="1.4080158"
       height="1.2508628"
       id="rect12"
       style="fill:url(#linearGradient1616);fill-opacity:1;stroke-width:0.112086" />
    <rect
       x="390.57523"
       y="536.90417"
       width="1.4080158"
       height="1.2508628"
       id="rect14"
       style="fill:url(#linearGradient1618);fill-opacity:1;stroke-width:0.112086" />
    <rect
       x="392.19489"
       y="536.90417"
       width="1.4080158"
       height="1.2508628"
       id="rect16"
       style="fill:url(#linearGradient1620);fill-opacity:1;stroke-width:0.112086" />
    <rect
       x="393.47324"
       y="533.81799"
       width="1.4080158"
       height="1.2508628"
       id="rect18"
       style="fill:url(#linearGradient1622);fill-opacity:1;stroke-width:0.112086" />
  </g>
</svg>
