<?xml version="1.0" encoding="UTF-8" standalone="no"?>
<svg
   width="32"
   version="1.1"
   height="32"
   viewBox="0 0 32 32"
   id="svg15"
   sodipodi:docname="folder-Reddit.svg"
   inkscape:version="1.1.1 (3bf5ae0d25, 2021-09-20)"
   xmlns:inkscape="http://www.inkscape.org/namespaces/inkscape"
   xmlns:sodipodi="http://sodipodi.sourceforge.net/DTD/sodipodi-0.dtd"
   xmlns:xlink="http://www.w3.org/1999/xlink"
   xmlns="http://www.w3.org/2000/svg"
   xmlns:svg="http://www.w3.org/2000/svg"
   xmlns:rdf="http://www.w3.org/1999/02/22-rdf-syntax-ns#"
   xmlns:cc="http://creativecommons.org/ns#"
   xmlns:dc="http://purl.org/dc/elements/1.1/">
  <sodipodi:namedview
     pagecolor="#ffffff"
     bordercolor="#666666"
     borderopacity="1"
     objecttolerance="10"
     gridtolerance="10"
     guidetolerance="10"
     inkscape:pageopacity="0"
     inkscape:pageshadow="2"
     inkscape:window-width="1920"
     inkscape:window-height="1007"
     id="namedview17"
     showgrid="true"
     inkscape:zoom="9.8125"
     inkscape:cx="-18.751592"
     inkscape:cy="8.7133758"
     inkscape:window-x="0"
     inkscape:window-y="0"
     inkscape:window-maximized="1"
     inkscape:current-layer="layer1"
     inkscape:document-rotation="0"
     inkscape:pagecheckerboard="0">
    <inkscape:grid
       type="xygrid"
       id="grid847" />
  </sodipodi:namedview>
  <defs
     id="defs5455">
    <linearGradient
       inkscape:collect="always"
       xlink:href="#linearGradient847"
       id="linearGradient858"
       x1="210.75999"
       y1="89.093002"
       x2="362.40799"
       y2="89.093002"
       gradientUnits="userSpaceOnUse"
       gradientTransform="matrix(0.05859377,0,0,0.06178774,385.57143,515.9295)" />
    <linearGradient
       inkscape:collect="always"
       id="linearGradient847">
      <stop
         style="stop-color:#7192c1;stop-opacity:1"
         offset="0"
         id="stop843" />
      <stop
         style="stop-color:#3b5a87;stop-opacity:1"
         offset="1"
         id="stop845" />
    </linearGradient>
    <linearGradient
       inkscape:collect="always"
       xlink:href="#linearGradient847"
       id="linearGradient859"
       x1="0"
       y1="256.82327"
       x2="512"
       y2="256.82327"
       gradientUnits="userSpaceOnUse"
       gradientTransform="matrix(0.05859377,0,0,0.06178774,385.57143,515.9295)" />
    <linearGradient
       inkscape:collect="always"
       xlink:href="#linearGradient847"
       id="linearGradient862"
       x1="476.689"
       y1="163.60085"
       x2="319.6994"
       y2="162.04736"
       gradientUnits="userSpaceOnUse"
       gradientTransform="matrix(0.05859377,0,0,0.06178774,385.57143,515.9295)" />
  </defs>
  <metadata
     id="metadata5458">
    <rdf:RDF>
      <cc:Work
         rdf:about="">
        <dc:format>image/svg+xml</dc:format>
        <dc:type
           rdf:resource="http://purl.org/dc/dcmitype/StillImage" />
      </cc:Work>
    </rdf:RDF>
  </metadata>
  <g
     inkscape:label="Capa 1"
     inkscape:groupmode="layer"
     id="layer1"
     transform="translate(-384.57143,-515.798)">
    <path
       style="fill:url(#linearGradient858);fill-opacity:1;stroke-width:0.0601699"
       d="m 401.36761,522.28316 c 0.48407,0.50456 1.13728,0.78749 1.81795,0.78749 h 1.00659 2.61413 c -0.68066,0 -1.33386,-0.28293 -1.81794,-0.78749 l -1.629,-1.69766 c -0.48422,-0.50458 -1.13735,-0.7875 -1.81792,-0.7875 h -3.62074 c 0.68057,0 1.33378,0.28292 1.81794,0.7875 z"
       id="path2" />
    <path
       style="fill:#3b5a87;fill-opacity:1;stroke-width:0.0601699"
       d="m 396.11781,520.5855 1.62908,1.69766 c 0.48407,0.50456 1.13726,0.78749 1.81792,0.78749 h 1.00662 2.61413 c -0.68067,0 -1.33388,-0.28293 -1.81795,-0.78749 l -1.62899,-1.69766 c -0.48422,-0.50458 -1.13737,-0.7875 -1.81794,-0.7875 h -3.55616 -0.0646 c 0.68066,0 1.33379,0.28298 1.81788,0.7875 z"
       id="path4" />
    <path
       style="fill:url(#linearGradient859);fill-opacity:1;stroke-width:0.0564455"
       d="m 414.01968,522.67802 h -6.20691 -1.00662 -2.61412 -1.00659 -2.61401 -1.00662 c -0.68066,0 -1.33385,-0.249 -1.81792,-0.69302 l -1.62908,-1.494 c -0.48415,-0.444 -1.13728,-0.693 -1.81793,-0.693 h -3.55604 -3.62066 c -0.85698,0 -1.55175,0.64472 -1.55175,1.44001 v 2.88001 0.48002 17.75995 c 0,0.79529 0.69477,1.44001 1.55175,1.44001 h 26.8965 c 0.85698,0 1.55175,-0.64472 1.55175,-1.44001 v -18.23997 c 0,-0.79534 -0.69477,-1.44 -1.55175,-1.44 z m -9.82759,2.87996 z m 9.31043,0.48001 c 0,0.53015 -0.46314,0.95999 -1.03452,0.95999 h -7.24139 c -0.57138,0 -1.03452,-0.42984 -1.03452,-0.95999 v -0.48001 c 0,-0.53015 0.46314,-0.95999 1.03452,-0.95999 h 7.24132 c 0.57139,0 1.03452,0.42984 1.03452,0.95999 v 0.48001 z"
       id="path6"
       sodipodi:nodetypes="scccccsccscssccssssssccccccccccssssssscc" />
    <path
       style="fill:url(#linearGradient862);fill-opacity:1;stroke-width:0.0601699"
       d="m 412.46793,524.43058 h -7.24132 c -0.57138,0 -1.04623,0.48844 -1.04623,1.09086 v 0.54548 c 0,0.60243 0.47485,1.09086 1.04623,1.09086 h 7.24132 c 0.57139,0 1.10944,-0.48858 1.12241,-1.09086 l 0.0117,-0.54548 c 6e-5,-0.60242 -0.56268,-1.09086 -1.13412,-1.09086 z"
       id="path8"
       sodipodi:nodetypes="ssssssscs" />
    <path
       class="st1"
       d="m 392.81517,530.05571 c -2.80692,0 -5.07056,2.34521 -5.07056,5.25331 0,2.9081 2.26364,5.25331 5.07056,5.25331 2.80691,0 5.07056,-2.34521 5.07056,-5.25331 h 0.36218 c 0,2.17639 -0.76058,4.09006 -2.44473,5.14074 -0.86924,0.54412 -1.90146,0.86308 -2.98801,0.86308 -3.20532,0 -5.79492,-2.68295 -5.79492,-6.00382 0,-2.25141 1.21331,-4.22142 2.988,-5.25331 0.83302,-0.46901 1.79281,-0.37521 2.80692,-0.37521 z"
       id="path6-3"
       sodipodi:nodetypes="csscccssccc"
       style="clip-rule:evenodd;fill:#1f222d;fill-opacity:1;fill-rule:evenodd;stroke-width:0.184327" />
    <path
       class="st2"
       d="m 389.91771,530.11196 c 1.32196,-0.80675 2.91557,-1.01314 4.40052,-0.60038 1.48495,0.41277 2.75259,1.4259 3.51317,2.79554 0.76058,1.36963 0.97789,3.02068 0.57949,4.55915 -0.3984,1.53847 -1.37629,2.85177 -2.69826,3.63975 l -0.36218,-0.65663 c 1.15898,-0.69425 2.01011,-1.83865 2.35419,-3.1895 0.34407,-1.35087 0.18109,-2.77676 -0.50706,-3.97757 -0.67004,-1.20073 -1.7747,-2.08249 -3.07856,-2.43901 -1.28574,-0.3752 -2.68014,-0.1876 -3.83913,0.52535 z"
       id="path8-6"
       style="clip-rule:evenodd;fill:#f0f0f0;fill-opacity:1;fill-rule:evenodd;stroke-width:0.184327" />
    <path
       class="st3"
       d="m 391.42077,537.50419 c 0.0905,-0.13136 0.25352,-0.16892 0.38029,-0.0749 0.23541,0.1689 0.56138,0.31895 1.03222,0.31895 0.47083,0 0.77869,-0.16883 1.03222,-0.31895 0.12676,-0.094 0.28975,-0.056 0.38029,0.0749 0.0906,0.13127 0.0543,0.30017 -0.0724,0.39398 -0.32597,0.20638 -0.74248,0.41276 -1.35819,0.41276 -0.61571,0 -1.03222,-0.20638 -1.32197,-0.43154 -0.12676,-0.0749 -0.16298,-0.24393 -0.0724,-0.3752 z m 2.75259,-0.88186 c 0.34406,0 0.63381,-0.30018 0.63381,-0.65661 0,-0.35652 -0.28975,-0.6567 -0.63381,-0.6567 -0.34408,0 -0.63383,0.30018 -0.63383,0.6567 0,0.35643 0.28975,0.65661 0.63383,0.65661 z m -2.71638,0 c 0.34408,0 0.63382,-0.30018 0.63382,-0.65661 0,-0.35652 -0.28974,-0.6567 -0.63382,-0.6567 -0.34407,0 -0.63382,0.30018 -0.63382,0.6567 0,0.35643 0.28975,0.65661 0.63382,0.65661 z m 1.79281,-5.06571 c -0.0906,-0.0189 -0.1992,0 -0.27164,0.0559 -0.0724,0.0559 -0.12676,0.15005 -0.14487,0.24385 l -0.34408,1.95125 c -0.94167,0.056 -1.7928,0.39405 -2.3904,0.88184 -0.12677,-0.094 -0.28975,-0.13137 -0.45273,-0.13137 -0.45273,0 -0.81491,0.37525 -0.81491,0.84431 0,0.30017 0.16298,0.56282 0.38029,0.71294 -0.0181,0.11258 -0.0181,0.20638 -0.0181,0.31896 0,1.44466 1.62982,2.62662 3.62183,2.62662 1.992,0 3.62182,-1.18196 3.62182,-2.62662 0,-0.11258 0,-0.20638 -0.0181,-0.31896 0.23542,-0.15012 0.3803,-0.41277 0.3803,-0.71294 0,-0.46906 -0.36219,-0.84431 -0.81491,-0.84431 -0.16299,0 -0.32597,0.0559 -0.45273,0.13137 -0.57949,-0.48779 -1.3944,-0.80676 -2.31797,-0.88184 l 0.25353,-1.44465 0.83302,0.16888 c 0.0905,0.30018 0.36218,0.50655 0.68815,0.50655 0.3984,0 0.72436,-0.33772 0.72436,-0.75049 0,-0.41276 -0.32596,-0.75042 -0.72436,-0.75042 -0.21732,0 -0.41651,0.0939 -0.54328,0.26263 z"
       id="path10"
       style="clip-rule:evenodd;fill:#f0f0f0;fill-opacity:1;fill-rule:evenodd;stroke-width:0.184327" />
  </g>
</svg>
