<?xml version="1.0" encoding="UTF-8" standalone="no"?>
<svg
   width="32"
   height="32"
   version="1.1"
   id="svg12"
   sodipodi:docname="choqok.svg"
   inkscape:version="1.1.1 (3bf5ae0d25, 2021-09-20)"
   xmlns:inkscape="http://www.inkscape.org/namespaces/inkscape"
   xmlns:sodipodi="http://sodipodi.sourceforge.net/DTD/sodipodi-0.dtd"
   xmlns="http://www.w3.org/2000/svg"
   xmlns:svg="http://www.w3.org/2000/svg"
   xmlns:rdf="http://www.w3.org/1999/02/22-rdf-syntax-ns#"
   xmlns:cc="http://creativecommons.org/ns#"
   xmlns:dc="http://purl.org/dc/elements/1.1/">
  <g
     id="22-22-choqok"
     transform="translate(32,10)">
    <rect
       style="opacity:0.00100002"
       width="22"
       height="22"
       x="0"
       y="0"
       id="rect2" />
    <path
       fill="none"
       stroke-width="0.69438"
       stroke-linecap="round"
       stroke-linejoin="round"
       stroke-miterlimit="10"
       d="m 19.074754,4.457625 v 9.293014 c 0,0.613282 -0.497166,1.110422 -1.110441,1.110422 h -7.70667 L 6.139041,18.652854 V 14.861061 H 4.057629 c -0.613271,0 -1.110439,-0.49714 -1.110439,-1.110422 V 4.457625 c 0,-0.613276 0.497168,-1.110435 1.110439,-1.110435 h 13.906684 c 0.613275,0 1.110441,0.497159 1.110441,1.110435 z"
       id="path2-67"
       style="stroke:#eff0f1;stroke-opacity:1" />
    <path
       style="color:#d5c289;isolation:isolate;fill:#eff0f1;fill-opacity:1;stroke-width:0.848879"
       class="ColorScheme-Text"
       fill-rule="evenodd"
       d="m 9.2108394,12.013855 c 0.5110243,0.685892 1.3200046,1.098448 2.1875556,1.100145 0.867554,0 1.676533,-0.414253 2.187557,-1.100145 l 0.292864,-0.05177 c 0.367564,0 0.505082,-0.81407 0.244475,-1.089104 L 11.691259,8.5945793 c -0.07725,-0.082342 -0.183358,-0.1273317 -0.292864,-0.1273317 -0.109506,0 -0.214765,0.045838 -0.292861,0.1273317 L 8.6735,10.872966 c -0.2606054,0.275037 -0.1230872,1.089109 0.2444768,1.089109 z M 6.3942643,5.6082263 C 5.2100804,5.6082263 4.25,6.5683066 4.25,7.7524906 4.2508474,7.9341503 4.274618,8.1149613 4.3204562,8.2906788 4.564084,7.3441805 5.4172055,6.6812072 6.3942634,6.6803582 c 0.9770582,8.478e-4 1.829331,0.6612756 2.0746563,1.6060761 0.045839,-0.1740198 0.068761,-0.3539818 0.070456,-0.5339437 0,-1.184184 -0.9600803,-2.1442643 -2.1451114,-2.1442643 z m 8.5787537,1.0721319 c 0,-0.7894559 0.640054,-1.4303582 1.42951,-1.4303582 0.788608,0 1.429508,0.6409023 1.429508,1.4303582 0,0.7886071 -0.6409,1.4295096 -1.429508,1.4295096 -0.789457,0 -1.42951,-0.6409025 -1.42951,-1.4295096 z"
       id="path58-5" />
  </g>
  <g
     id="choqok">
    <rect
       style="opacity:0.00100002"
       width="32"
       height="32"
       x="0"
       y="0"
       id="rect7" />
    <path
       fill="none"
       stroke-width="1.04158"
       stroke-linecap="round"
       stroke-linejoin="round"
       stroke-miterlimit="10"
       d="m 28.062129,6.186443 v 13.939515 c 0,0.919917 -0.74574,1.665648 -1.665654,1.665648 H 14.836457 l -6.177896,5.687673 v -5.687673 h -3.12212 c -0.919911,0 -1.665651,-0.745731 -1.665651,-1.665648 V 6.186443 c 0,-0.919915 0.74574,-1.665653 1.665651,-1.665653 h 20.860034 c 0.919914,0 1.665654,0.745738 1.665654,1.665653 z"
       id="path2-3"
       style="stroke:#eff0f1;stroke-opacity:1" />
    <path
       style="color:#d5c289;isolation:isolate;fill:#eff0f1;fill-opacity:1;stroke-width:1.30217"
       class="ColorScheme-Text"
       fill-rule="evenodd"
       d="m 13.142277,17.586285 c 0.783944,1.052216 2.024985,1.685104 3.355876,1.687715 1.330896,0 2.571937,-0.635499 3.355899,-1.687715 l 0.449272,-0.07948 c 0.563872,0 0.774826,-1.248851 0.375052,-1.670784 L 16.94743,12.340846 c -0.118485,-0.126317 -0.281273,-0.195336 -0.449277,-0.195336 -0.167976,0 -0.329468,0.07032 -0.449272,0.195336 l -3.730928,3.495233 c -0.399792,0.421921 -0.18882,1.670777 0.375052,1.670777 z M 8.8214286,7.7595479 c -1.816629,0 -3.289476,1.4728385 -3.289476,3.2894711 10e-4,0.27868 0.03773,0.556058 0.10811,0.825623 0.373745,-1.452003 1.682507,-2.469056 3.181387,-2.4703584 1.4988794,0.00128 2.8063374,1.0144494 3.1826964,2.4638474 0.07026,-0.26696 0.105438,-0.543037 0.10809,-0.819112 0,-1.8166326 -1.472845,-3.2894711 -3.2907764,-3.2894711 z M 21.981921,9.4042836 C 21.981921,8.1931949 22.963813,7.21 24.1749,7.21 c 1.209789,0 2.192984,0.9831949 2.192984,2.1942836 0,1.2097864 -0.983195,2.1929814 -2.192984,2.1929814 -1.211087,0 -2.192979,-0.983195 -2.192979,-2.1929814 z"
       id="path58" />
  </g>
  <metadata
     id="metadata18">
    <rdf:RDF>
      <cc:Work
         rdf:about="">
        <dc:format>image/svg+xml</dc:format>
        <dc:type
           rdf:resource="http://purl.org/dc/dcmitype/StillImage" />
      </cc:Work>
    </rdf:RDF>
  </metadata>
  <defs
     id="defs16">
    <linearGradient
       id="oomox"
       x1="0"
       x2="0"
       y1="4.426218"
       y2="16.600946"
       gradientTransform="matrix(1.7114077,0,0,0.99090516,5.5319556,2.8240382)"
       gradientUnits="userSpaceOnUse">
      <stop
         offset="0%"
         style="stop-color:#303b3d; stop-opacity:1"
         id="stop18" />
      <stop
         offset="100%"
         style="stop-color:#bc985d; stop-opacity:1"
         id="stop20" />
    </linearGradient>
    <linearGradient
       id="oomox-3"
       x1="0"
       x2="0"
       y1="4.426218"
       y2="16.600946"
       gradientTransform="matrix(1.1155928,0,0,0.64592825,4.2500004,2.3909811)"
       gradientUnits="userSpaceOnUse">
      <stop
         offset="0%"
         style="stop-color:#303b3d; stop-opacity:1"
         id="stop18-6" />
      <stop
         offset="100%"
         style="stop-color:#bc985d; stop-opacity:1"
         id="stop20-7" />
    </linearGradient>
  </defs>
  <sodipodi:namedview
     pagecolor="#ffffff"
     bordercolor="#000000"
     borderopacity="1"
     objecttolerance="10"
     gridtolerance="10"
     guidetolerance="10"
     inkscape:pageopacity="0"
     inkscape:pageshadow="2"
     inkscape:window-width="1920"
     inkscape:window-height="1007"
     id="namedview14"
     showgrid="false"
     inkscape:zoom="9.8125"
     inkscape:cx="30.165605"
     inkscape:cy="27.464968"
     inkscape:window-x="0"
     inkscape:window-y="0"
     inkscape:window-maximized="1"
     inkscape:current-layer="svg12"
     inkscape:document-rotation="0"
     inkscape:lockguides="false"
     inkscape:showpageshadow="false"
     inkscape:pagecheckerboard="0">
    <inkscape:grid
       type="xygrid"
       id="grid941"
       originx="0"
       originy="0" />
  </sodipodi:namedview>
</svg>
