<?xml version="1.0" encoding="UTF-8" standalone="no"?>
<svg
   width="32"
   height="32"
   version="1.1"
   id="svg12"
   sodipodi:docname="drive.svg"
   inkscape:version="1.1.1 (3bf5ae0d25, 2021-09-20)"
   xmlns:inkscape="http://www.inkscape.org/namespaces/inkscape"
   xmlns:sodipodi="http://sodipodi.sourceforge.net/DTD/sodipodi-0.dtd"
   xmlns="http://www.w3.org/2000/svg"
   xmlns:svg="http://www.w3.org/2000/svg"
   xmlns:rdf="http://www.w3.org/1999/02/22-rdf-syntax-ns#"
   xmlns:cc="http://creativecommons.org/ns#"
   xmlns:dc="http://purl.org/dc/elements/1.1/">
  <g
     id="22-22-drive-harddisk"
     transform="translate(32,10.000001)">
    <rect
       style="opacity:0.00100002"
       width="22"
       height="22"
       x="0"
       y="-4.6325681e-08"
       id="rect2" />
    <path
       d="m 10.962151,8.799613 a 1.9555556,1.9555556 0 1 0 1.95556,1.955556 1.9555556,1.9555556 0 0 0 -1.95556,-1.955556 z m 0,2.933333 a 0.97777773,0.97777773 0 1 1 0.977783,-0.977777 0.97777773,0.97777773 0 0 1 -0.977783,0.977777 z"
       id="path6-36"
       style="fill:#eff0f1;fill-opacity:1;stroke-width:0.488889" />
    <path
       d="m 10.993127,13.510869 c -1.563109,0 -2.834749,-1.271634 -2.834749,-2.834751 0,-0.562675 0.166771,-1.105925 0.475983,-1.568666 H 8.371909 c -0.117863,0 -0.213531,-0.09567 -0.213531,-0.213542 V 5.853294 c 0,-0.117867 0.09567,-0.213533 0.213531,-0.213533 h 5.242004 c 0.118093,0 0.213542,0.09567 0.213542,0.213533 v 3.040398 c 0,0.117873 -0.09545,0.213543 -0.213542,0.213543 h -0.262441 c 0.309211,0.462958 0.475983,1.006208 0.475983,1.568674 0,1.563326 -1.27142,2.83496 -2.834328,2.83496 z M 8.585453,8.680149 h 0.489444 c 0.08498,0 0.161851,0.05039 0.195811,0.128348 0.03392,0.07793 0.01835,0.168478 -0.03952,0.230828 -0.416409,0.447803 -0.645749,1.029054 -0.645749,1.636793 0,1.327582 1.080089,2.407675 2.407672,2.407675 1.327372,0 2.407245,-1.080303 2.407245,-2.407675 0,-0.607307 -0.229341,-1.188573 -0.645534,-1.636999 -0.05789,-0.06235 -0.07325,-0.152904 -0.03953,-0.230622 0.03392,-0.07793 0.111036,-0.128348 0.195807,-0.128348 h 0.489225 V 6.066835 H 8.585455 Z"
       id="path4-7"
       style="fill:#eff0f1;fill-opacity:1;stroke-width:0.213537" />
    <path
       d="m 11.599691,16.243102 h -1.225698 c -0.05041,0 -0.09133,-0.109511 -0.09133,-0.244444 0,-0.134933 0.04091,-0.244439 0.09133,-0.244439 h 1.225698 c 0.0505,0 0.09133,0.109506 0.09133,0.244439 0,0.134933 -0.04083,0.244444 -0.09133,0.244444 z"
       id="path6-3-5"
       style="fill:#eff0f1;fill-opacity:1;stroke-width:0.149413" />
    <path
       d="m 11.050989,6.557113 c -0.391463,0 -0.709989,0.318452 -0.709989,0.709988 0,0.162752 0.05703,0.322052 0.160388,0.448539 l 0.01683,0.02625 0.532762,1.355592 0.542664,-1.373478 0.0076,-0.0092 C 11.704144,7.588915 11.76088,7.429876 11.76088,7.267126 11.760918,6.875553 11.442393,6.5571 11.050966,6.5571 Z m 0,1.088666 c -0.208838,0 -0.378751,-0.169914 -0.378751,-0.378714 0,-0.208876 0.169876,-0.378788 0.378751,-0.378788 0.2088,0 0.378714,0.169912 0.378714,0.378788 0,0.208837 -0.169914,0.378714 -0.378714,0.378714 z"
       id="path4-6-3"
       style="fill:#eff0f1;fill-opacity:1;stroke-width:0.0375001" />
    <path
       d="M 15.724011,3 H 6.21865 C 5.548399,3 5,3.6 5,4.333333 V 17.666665 C 5,18.4 5.548399,19 6.21865,19 h 9.505361 c 0.67025,0 1.218634,-0.6 1.218634,-1.333335 V 4.333333 C 16.942645,3.6 16.394261,3 15.724011,3 Z m 0.609322,14.666665 c 0,0.366663 -0.27421,0.666663 -0.609322,0.666663 H 6.21865 c -0.33514,0 -0.609323,-0.3 -0.609323,-0.666663 V 4.333333 c 0,-0.366666 0.274183,-0.666666 0.609323,-0.666666 h 9.505361 c 0.335112,0 0.609322,0.3 0.609322,0.666666 z"
       id="path2-5"
       style="fill:#eff0f1;fill-opacity:1;stroke-width:0.318673" />
  </g>
  <metadata
     id="metadata18">
    <rdf:RDF>
      <cc:Work
         rdf:about="">
        <dc:format>image/svg+xml</dc:format>
        <dc:type
           rdf:resource="http://purl.org/dc/dcmitype/StillImage" />
      </cc:Work>
    </rdf:RDF>
  </metadata>
  <defs
     id="defs16" />
  <sodipodi:namedview
     pagecolor="#ffffff"
     bordercolor="#000000"
     borderopacity="1"
     objecttolerance="10"
     gridtolerance="10"
     guidetolerance="10"
     inkscape:pageopacity="0"
     inkscape:pageshadow="2"
     inkscape:window-width="1920"
     inkscape:window-height="1007"
     id="namedview14"
     showgrid="false"
     inkscape:zoom="8.0000004"
     inkscape:cx="18.749999"
     inkscape:cy="11.562499"
     inkscape:window-x="0"
     inkscape:window-y="0"
     inkscape:window-maximized="1"
     inkscape:current-layer="svg12"
     inkscape:document-rotation="0"
     inkscape:lockguides="true"
     inkscape:showpageshadow="false"
     inkscape:pagecheckerboard="0">
    <inkscape:grid
       type="xygrid"
       id="grid875"
       originx="0"
       originy="-4.6325681e-08" />
  </sodipodi:namedview>
  <g
     id="drive-harddisk">
    <rect
       style="opacity:0.00100002"
       width="32"
       height="32"
       x="0"
       y="4.6325681e-08"
       id="rect7" />
    <path
       d="m 15.943226,12.699419 a 2.9333334,2.9333334 0 1 0 2.933341,2.933334 2.9333334,2.9333334 0 0 0 -2.933341,-2.933334 z m 0,4.4 a 1.4666666,1.4666666 0 1 1 1.466675,-1.466666 1.4666666,1.4666666 0 0 1 -1.466675,1.466666 z"
       id="path6"
       style="fill:#eff0f1;fill-opacity:1;stroke-width:0.733334" />
    <path
       d="m 15.989691,19.766304 c -2.344664,0 -4.252124,-1.907451 -4.252124,-4.252127 0,-0.844013 0.250157,-1.658887 0.713975,-2.352999 h -0.393678 c -0.176795,0 -0.320297,-0.143508 -0.320297,-0.320313 V 8.2799413 c 0,-0.1768003 0.143502,-0.3203 0.320297,-0.3203 h 7.863005 c 0.17714,0 0.320313,0.1434997 0.320313,0.3203 v 4.5605967 c 0,0.17681 -0.143173,0.320314 -0.320313,0.320314 h -0.393661 c 0.463817,0.694438 0.713974,1.509312 0.713974,2.353011 0,2.34499 -1.90713,4.252441 -4.251491,4.252441 z m -3.611512,-7.246081 h 0.734166 c 0.127474,0 0.242777,0.07559 0.293717,0.192523 0.05088,0.116896 0.02753,0.252716 -0.05928,0.346242 -0.624614,0.671704 -0.968624,1.543581 -0.968624,2.455189 0,1.991373 1.620134,3.611512 3.611509,3.611512 1.991058,0 3.610867,-1.620454 3.610867,-3.611512 0,-0.910961 -0.344011,-1.782859 -0.968301,-2.455499 -0.08684,-0.09352 -0.109878,-0.229356 -0.05929,-0.345932 0.05088,-0.116895 0.166553,-0.192523 0.29371,-0.192523 h 0.733838 v -3.91997 h -7.222304 z"
       id="path4"
       style="fill:#eff0f1;fill-opacity:1;stroke-width:0.320306" />
    <path
       d="M 16.899536,23.864653 H 15.06099 c -0.07562,0 -0.13699,-0.164266 -0.13699,-0.366666 0,-0.2024 0.06137,-0.366659 0.13699,-0.366659 h 1.838546 c 0.07575,0 0.13699,0.164259 0.13699,0.366659 0,0.2024 -0.06124,0.366666 -0.13699,0.366666 z"
       id="path6-3"
       style="fill:#eff0f1;fill-opacity:1;stroke-width:0.224119" />
    <path
       d="m 16.076483,9.3356694 c -0.587194,0 -1.064983,0.4776776 -1.064983,1.0649826 0,0.244127 0.08555,0.483078 0.240582,0.672808 l 0.02525,0.03938 0.799143,2.033388 0.813996,-2.060217 0.01142,-0.01378 c 0.15435,-0.188834 0.239455,-0.427392 0.239455,-0.671517 5.6e-5,-0.58736 -0.477731,-1.0650388 -1.064871,-1.0650388 z m 0,1.6329986 c -0.313257,0 -0.568126,-0.25487 -0.568126,-0.568071 0,-0.313314 0.254814,-0.5681819 0.568126,-0.5681819 0.3132,0 0.568071,0.2548679 0.568071,0.5681819 0,0.313256 -0.254871,0.568072 -0.568071,0.568071 z"
       id="path4-6"
       style="fill:#eff0f1;fill-opacity:1;stroke-width:0.0562501" />
    <path
       d="M 23.086016,4 H 8.8279755 C 7.8225992,4 7,4.9 7,5.999999 V 25.999998 C 7,27.1 7.8225992,28 8.8279755,28 H 23.086016 c 1.005376,0 1.827951,-0.9 1.827951,-2.000002 V 5.999999 C 24.913967,4.9 24.091392,4 23.086016,4 Z M 24,25.999998 c 0,0.549994 -0.411316,0.999994 -0.913984,0.999994 H 8.8279755 c -0.5027109,0 -0.9139852,-0.45 -0.9139852,-0.999994 V 5.999999 C 7.9139903,5.45 8.3252646,5 8.8279755,5 H 23.086016 C 23.588684,5 24,5.45 24,5.999999 Z"
       id="path2"
       style="fill:#eff0f1;fill-opacity:1;stroke-width:0.478009" />
  </g>
</svg>
