<?xml version="1.0" encoding="UTF-8" standalone="no"?>
<svg
   width="32"
   height="32"
   version="1.1"
   id="svg12"
   sodipodi:docname="keyboard.svg"
   inkscape:version="1.1.1 (3bf5ae0d25, 2021-09-20)"
   xmlns:inkscape="http://www.inkscape.org/namespaces/inkscape"
   xmlns:sodipodi="http://sodipodi.sourceforge.net/DTD/sodipodi-0.dtd"
   xmlns="http://www.w3.org/2000/svg"
   xmlns:svg="http://www.w3.org/2000/svg"
   xmlns:rdf="http://www.w3.org/1999/02/22-rdf-syntax-ns#"
   xmlns:cc="http://creativecommons.org/ns#"
   xmlns:dc="http://purl.org/dc/elements/1.1/">
  <g
     id="22-22-keyboard-layout"
     transform="translate(32,10)">
    <rect
       style="opacity:0.00100002"
       width="22"
       height="22"
       x="0"
       y="0"
       id="rect2" />
    <path
       style="fill:#eff0f1;fill-opacity:1;stroke-width:1.26448"
       class="ColorScheme-Text"
       fill-rule="evenodd"
       d="m 5.000002,7.966667 v 1.2 h 1.332445 v -1.2 z m 2.664886,0 v 1.2 h 1.332449 v -1.2 z m 2.664897,0 v 1.2 h 1.332448 v -1.2 z m 2.664886,0 v 1.2 h 1.332448 v -1.2 z m 2.664896,0 v 1.2 h 1.332438 v -1.2 z m -9.329785,2.4 0.0055,1.2 H 7.6649 v -1.2 z m 2.667555,0 v 1.2 h 1.332448 v -1.2 z m 2.664896,0 v 1.2 h 1.332438 v -1.2 z m 2.664886,0 v 1.2 h 1.332448 v -1.2 z m -9.327117,2.4 v 1.2 h 1.332445 v -1.2 z m 2.664886,0 v 1.2 h 6.662231 v -1.2 z m 7.994679,0 0.01595,1.2 h 1.324481 l -0.01595,-1.2 z"
       font-family="sans-serif"
       font-weight="400"
       overflow="visible"
       id="path60-5-3" />
    <path
       d="M 19,15.476874 V 6.456475 C 19,5.82042 18.4,5.3 17.666667,5.3 H 4.333335 C 3.6,5.3 3,5.82042 3,6.456475 v 9.020399 c 0,0.636054 0.6,1.156459 1.333335,1.156459 H 17.666667 C 18.4,16.633333 19,16.112928 19,15.476874 Z M 4.333335,16.055109 c -0.366663,0 -0.666663,-0.26022 -0.666663,-0.578235 V 6.456475 c 0,-0.318041 0.3,-0.578236 0.666663,-0.578236 h 13.333332 c 0.366666,0 0.666666,0.260195 0.666666,0.578236 v 9.020399 c 0,0.318015 -0.3,0.578235 -0.666666,0.578235 z"
       id="path2-6"
       style="fill:#eff0f1;fill-opacity:1;stroke-width:0.310438" />
  </g>
  <metadata
     id="metadata18">
    <rdf:RDF>
      <cc:Work
         rdf:about="">
        <dc:format>image/svg+xml</dc:format>
        <dc:type
           rdf:resource="http://purl.org/dc/dcmitype/StillImage" />
      </cc:Work>
    </rdf:RDF>
  </metadata>
  <defs
     id="defs16">
    <linearGradient
       id="oomox"
       x1="0"
       x2="0"
       y1="0"
       y2="1">
      <stop
         offset="0%"
         style="stop-color:#303b3d; stop-opacity:1"
         id="stop18" />
      <stop
         offset="100%"
         style="stop-color:#bc985d; stop-opacity:1"
         id="stop20" />
    </linearGradient>
  </defs>
  <sodipodi:namedview
     pagecolor="#ffffff"
     bordercolor="#000000"
     borderopacity="1"
     objecttolerance="10"
     gridtolerance="10"
     guidetolerance="10"
     inkscape:pageopacity="0"
     inkscape:pageshadow="2"
     inkscape:window-width="1920"
     inkscape:window-height="1007"
     id="namedview14"
     showgrid="false"
     inkscape:zoom="9.8125003"
     inkscape:cx="22.21656"
     inkscape:cy="17.273885"
     inkscape:window-x="0"
     inkscape:window-y="0"
     inkscape:window-maximized="1"
     inkscape:current-layer="svg12"
     inkscape:document-rotation="0"
     inkscape:lockguides="true"
     inkscape:showpageshadow="false"
     inkscape:pagecheckerboard="0">
    <inkscape:grid
       type="xygrid"
       id="grid950"
       originx="0"
       originy="0" />
  </sodipodi:namedview>
  <g
     id="keyboard-layout">
    <rect
       style="opacity:0.00100002"
       width="32"
       height="32"
       x="0"
       y="0"
       id="rect7" />
    <path
       style="fill:#eff0f1;fill-opacity:1;stroke-width:1.89672"
       class="ColorScheme-Text"
       fill-rule="evenodd"
       d="m 7,11.5 v 1.8 h 1.9986677 v -1.8 z m 3.997329,0 v 1.8 h 1.998673 v -1.8 z m 3.997345,0 v 1.8 h 1.998673 v -1.8 z m 3.997329,0 v 1.8 h 1.998672 v -1.8 z m 3.997345,0 v 1.8 h 1.998656 v -1.8 z m -13.9946775,3.6 0.00829,1.8 h 1.9944265 v -1.8 z m 4.0013315,0 v 1.8 h 1.998672 v -1.8 z m 3.997345,0 v 1.8 h 1.998656 v -1.8 z m 3.997328,0 v 1.8 h 1.998673 V 15.1 Z M 7,18.7 v 1.8 h 1.9986677 v -1.8 z m 3.997329,0 v 1.8 h 9.993346 v -1.8 z m 11.992019,0 0.02393,1.8 H 25 l -0.02392,-1.8 z"
       font-family="sans-serif"
       font-weight="400"
       overflow="visible"
       id="path60-5" />
    <path
       d="M 27.999997,22.765311 V 9.234712 C 27.999997,8.2806295 27.099997,7.5 25.999998,7.5 H 6 C 4.899997,7.5 3.999997,8.2806295 3.999997,9.234712 V 22.765311 C 3.999997,23.719392 4.899997,24.5 6,24.5 h 19.999998 c 1.099999,0 1.999999,-0.780608 1.999999,-1.734689 z M 6,23.632663 c -0.549995,0 -0.999995,-0.39033 -0.999995,-0.867352 V 9.234712 c 0,-0.4770615 0.45,-0.8673535 0.999995,-0.8673535 h 19.999998 c 0.549999,0 0.999999,0.390292 0.999999,0.8673535 v 13.530599 c 0,0.477022 -0.45,0.867352 -0.999999,0.867352 z"
       id="path2"
       style="fill:#eff0f1;fill-opacity:1;stroke-width:0.465657" />
  </g>
</svg>
