<?xml version="1.0" encoding="UTF-8" standalone="no"?>
<svg
   width="32"
   height="32"
   version="1"
   id="svg12"
   sodipodi:docname="klipper.svg"
   inkscape:version="1.1.2 (0a00cf5339, 2022-02-04)"
   xmlns:inkscape="http://www.inkscape.org/namespaces/inkscape"
   xmlns:sodipodi="http://sodipodi.sourceforge.net/DTD/sodipodi-0.dtd"
   xmlns="http://www.w3.org/2000/svg"
   xmlns:svg="http://www.w3.org/2000/svg"
   xmlns:rdf="http://www.w3.org/1999/02/22-rdf-syntax-ns#"
   xmlns:cc="http://creativecommons.org/ns#"
   xmlns:dc="http://purl.org/dc/elements/1.1/">
  <g
     id="22-22-klipper"
     transform="translate(32,10)">
    <rect
       style="opacity:0.00100002"
       width="22"
       height="22"
       x="0"
       y="0"
       id="rect2" />
    <path
       d="m 14.181819,4.6 h -2.23091 A 0.82090907,0.80266667 0 0 0 11.181819,4.066667 0.27272728,0.26666667 0 0 1 10.909091,3.8 0.82063627,0.8024 0 0 0 10.090909,3 H 7.909091 A 0.82063627,0.8024 0 0 0 7.090909,3.8 0.27272728,0.26666667 0 0 1 6.818181,4.066667 0.82090907,0.80266667 0 0 0 6.049091,4.6 H 3.818182 A 0.82063627,0.8024 0 0 0 3,5.4 V 18.2 A 0.82063627,0.8024 0 0 0 3.818182,19 H 14.181819 A 0.82063627,0.8024 0 0 0 15,18.2 V 5.4 A 0.82063627,0.8024 0 0 0 14.181819,4.6 Z M 6.545455,4.866667 A 0.27272728,0.26666667 0 0 1 6.818181,4.6 0.82063627,0.8024 0 0 0 7.636363,3.8 0.27272728,0.26666667 0 0 1 7.909091,3.533333 h 2.181818 A 0.27272728,0.26666667 0 0 1 10.363637,3.8 0.82063627,0.8024 0 0 0 11.181819,4.6 0.27272728,0.26666667 0 0 1 11.454547,4.866667 V 5.933333 A 0.27272728,0.26666667 0 0 1 11.181819,6.2 H 6.818181 A 0.27272728,0.26666667 0 0 1 6.545455,5.933333 Z m 0.272726,1.866666 h 4.363638 A 0.82090907,0.80266667 0 0 0 11.950909,6.2 h 1.412728 v 9.066667 h -1.90909 a 0.27272728,0.26666667 0 0 0 -0.272728,0.266666 V 17.4 H 4.636364 V 6.2 h 1.412727 a 0.82090907,0.80266667 0 0 0 0.76909,0.533333 z M 12.979091,15.8 11.727272,17.024 V 15.8 Z m 1.475456,2.4 a 0.27272728,0.26666667 0 0 1 -0.272728,0.266667 H 3.818182 A 0.27272728,0.26666667 0 0 1 3.545455,18.2 V 5.4 A 0.27272728,0.26666667 0 0 1 3.818182,5.133333 H 6 V 5.666667 H 4.363636 A 0.27272728,0.26666667 0 0 0 4.090909,5.933333 v 11.733334 a 0.27272728,0.26666667 0 0 0 0.272727,0.266666 h 7.090911 A 0.28172728,0.27546667 0 0 0 11.648181,17.856 L 13.83,15.722667 a 0.28172728,0.27546667 0 0 0 0.07909,-0.189334 v -9.6 A 0.27272728,0.26666667 0 0 0 13.636362,5.666667 H 12 V 5.133333 h 2.181819 A 0.27272728,0.26666667 0 0 1 14.454547,5.4 Z"
       id="path2-3"
       style="fill:#eff0f1;fill-opacity:1;stroke-width:0.26968" />
    <path
       d="m 8.094667,4.080667 h 1.6 V 4.614 h -1.6 z"
       id="path4-3-6"
       style="fill:#eff0f1;fill-opacity:1;stroke-width:0.266667" />
    <path
       d="M 18.722227,6.2 H 17.888909 V 4.866667 A 0.27777252,0.26666667 0 0 0 17.611137,4.6 V 3.8 a 0.83331767,0.80000007 0 0 0 -1.666635,0 V 4.6 A 0.27777252,0.26666667 0 0 0 15.666729,4.866667 V 15.8 a 0.2072183,0.19893333 0 0 0 0.01111,0.06933 l 0.833318,2.933334 a 0.27582811,0.2648 0 0 0 0.533323,0 L 17.877798,15.86933 A 0.2072183,0.19893333 0 0 0 17.888898,15.8 V 6.733333 h 0.555546 V 10.2 H 19 V 6.466667 A 0.27777252,0.26666667 0 0 0 18.722227,6.2 Z m -2.22218,-2.4 a 0.27777267,0.26666681 0 0 1 0.555545,0 v 0.8 h -0.555545 z m 0.277772,13.92 -0.469436,-1.653333 h 0.938872 z m 0.555546,-2.186667 h -1.111091 v -8.8 h 1.111091 z m 0,-9.333333 H 16.222274 V 5.133333 h 1.111091 z"
       id="path6-6-7"
       style="fill:#eff0f1;fill-opacity:1;stroke-width:0.272163" />
  </g>
  <metadata
     id="metadata18">
    <rdf:RDF>
      <cc:Work
         rdf:about="">
        <dc:format>image/svg+xml</dc:format>
        <dc:type
           rdf:resource="http://purl.org/dc/dcmitype/StillImage" />
      </cc:Work>
    </rdf:RDF>
  </metadata>
  <defs
     id="defs16" />
  <sodipodi:namedview
     pagecolor="#ffffff"
     bordercolor="#666666"
     borderopacity="1"
     objecttolerance="10"
     gridtolerance="10"
     guidetolerance="10"
     inkscape:pageopacity="0"
     inkscape:pageshadow="2"
     inkscape:window-width="1920"
     inkscape:window-height="1009"
     id="namedview14"
     showgrid="false"
     inkscape:zoom="10.483688"
     inkscape:cx="32.288255"
     inkscape:cy="15.643349"
     inkscape:window-x="0"
     inkscape:window-y="0"
     inkscape:window-maximized="1"
     inkscape:current-layer="svg12"
     inkscape:document-rotation="0"
     inkscape:pagecheckerboard="0"
     inkscape:lockguides="true">
    <inkscape:grid
       type="xygrid"
       id="grid855"
       originx="0"
       originy="0" />
  </sodipodi:namedview>
  <g
     id="klipper">
    <rect
       style="opacity:0.00100002"
       width="32"
       height="32"
       x="0"
       y="0"
       id="rect7" />
    <path
       d="M 20.772728,6.4 H 17.426364 A 1.2313636,1.204 0 0 0 16.272728,5.6 0.40909092,0.4 0 0 1 15.863636,5.2 1.2309544,1.2036 0 0 0 14.636364,4 H 11.363636 A 1.2309544,1.2036 0 0 0 10.136364,5.2 0.40909092,0.4 0 0 1 9.727272,5.6 1.2313636,1.204 0 0 0 8.5736364,6.4 H 5.2272728 A 1.2309544,1.2036 0 0 0 4,7.6 V 26.8 A 1.2309544,1.2036 0 0 0 5.2272728,28 H 20.772728 A 1.2309544,1.2036 0 0 0 22,26.8 V 7.6 A 1.2309544,1.2036 0 0 0 20.772728,6.4 Z M 9.318182,6.8 a 0.40909092,0.4 0 0 1 0.40909,-0.4 1.2309544,1.2036 0 0 0 1.227272,-1.2 0.40909092,0.4 0 0 1 0.409092,-0.4 h 3.272728 a 0.40909092,0.4 0 0 1 0.409092,0.4 1.2309544,1.2036 0 0 0 1.227272,1.2 0.40909092,0.4 0 0 1 0.409092,0.4 V 8.4 A 0.40909092,0.4 0 0 1 16.272728,8.8 H 9.727272 A 0.40909092,0.4 0 0 1 9.318182,8.4 Z m 0.40909,2.8 h 6.545456 a 1.2313636,1.204 0 0 0 1.153636,-0.8 h 2.119092 V 22.4 H 16.68182 a 0.40909092,0.4 0 0 0 -0.409092,0.4 v 2.8 H 6.4545456 V 8.8 H 8.5736364 A 1.2313636,1.204 0 0 0 9.727272,9.6 Z m 9.241364,13.6 -1.877728,1.836 V 23.2 Z m 2.213184,3.6 a 0.40909092,0.4 0 0 1 -0.409092,0.4 H 5.2272728 A 0.40909092,0.4 0 0 1 4.818182,26.8 V 7.6 A 0.40909092,0.4 0 0 1 5.2272728,7.2 H 8.5 V 8 H 6.0454544 A 0.40909092,0.4 0 0 0 5.6363636,8.4 V 26 a 0.40909092,0.4 0 0 0 0.4090908,0.4 H 16.68182 a 0.42259092,0.4132 0 0 0 0.290452,-0.116 L 20.245,23.084 A 0.42259092,0.4132 0 0 0 20.363636,22.8 V 8.4 A 0.40909092,0.4 0 0 0 19.954544,8 H 17.5 V 7.2 h 3.272728 a 0.40909092,0.4 0 0 1 0.409092,0.4 z"
       id="path2"
       style="fill:#eff0f1;fill-opacity:1;stroke-width:0.40452" />
    <path
       d="m 11.642,5.621 h 2.4 v 0.8 h -2.4 z"
       id="path4-3"
       style="fill:#eff0f1;fill-opacity:1;stroke-width:0.4" />
    <path
       d="m 27.583341,8.8 h -1.249977 v -2 A 0.41665878,0.4 0 0 0 25.916706,6.4 V 5.2 a 1.2499765,1.2000001 0 0 0 -2.499953,0 v 1.2 a 0.41665878,0.4 0 0 0 -0.416659,0.4 v 16.4 a 0.31082745,0.2984 0 0 0 0.01666,0.104 l 1.249977,4.4 a 0.41374217,0.3972 0 0 0 0.799984,0 l 1.249977,-4.4 A 0.31082745,0.2984 0 0 0 26.333352,23.2 V 9.6 h 0.833318 v 5.2 H 28 V 9.2 A 0.41665878,0.4 0 0 0 27.583341,8.8 Z M 24.25007,5.2 a 0.416659,0.40000021 0 0 1 0.833318,0 V 6.4 H 24.25007 Z m 0.416659,20.88 -0.704154,-2.48 h 1.408308 z M 25.500047,22.8 H 23.833411 V 9.6 h 1.666636 z m 0,-14 H 23.833411 V 7.2 h 1.666636 z"
       id="path6-6"
       style="fill:#eff0f1;fill-opacity:1;stroke-width:0.408244" />
  </g>
</svg>
