<?xml version="1.0" encoding="UTF-8" standalone="no"?>
<svg
   width="32"
   height="32"
   version="1.1"
   id="svg12"
   sodipodi:docname="kopete.svg"
   inkscape:version="1.1.1 (3bf5ae0d25, 2021-09-20)"
   xmlns:inkscape="http://www.inkscape.org/namespaces/inkscape"
   xmlns:sodipodi="http://sodipodi.sourceforge.net/DTD/sodipodi-0.dtd"
   xmlns="http://www.w3.org/2000/svg"
   xmlns:svg="http://www.w3.org/2000/svg"
   xmlns:rdf="http://www.w3.org/1999/02/22-rdf-syntax-ns#"
   xmlns:cc="http://creativecommons.org/ns#"
   xmlns:dc="http://purl.org/dc/elements/1.1/">
  <g
     id="22-22-kopete"
     transform="translate(32,10)">
    <rect
       style="opacity:0.00100002"
       width="22"
       height="22"
       x="0"
       y="0"
       id="rect2" />
    <path
       style="fill:#eff0f1;fill-opacity:1;stroke-width:0.592593"
       d="m 11.296296,6.37037 a 2.962963,3.2592593 0 0 0 -0.586805,0.06713 2.962963,3.2592593 0 0 1 2.364583,3.19213 2.962963,3.2592593 0 0 1 -2.376158,3.192129 2.962963,3.2592593 0 0 0 0.59838,0.06713 A 2.962963,3.2592593 0 0 0 14.259259,9.62963 2.962963,3.2592593 0 0 0 11.296296,6.37037 Z M 8.333333,7.259259 A 0.59259259,0.59259259 0 0 0 7.740741,7.851852 0.59259259,0.59259259 0 0 0 8.333333,8.444444 0.59259259,0.59259259 0 0 0 8.925926,7.851852 0.59259259,0.59259259 0 0 0 8.333333,7.259259 Z m 1.185186,1.777778 c -0.328297,0 -0.592593,0.264296 -0.592593,0.592593 0,0.328296 0.264296,0.592592 0.592593,0.592592 h 1.777777 c 0.328297,0 0.592593,-0.264296 0.592593,-0.592592 0,-0.328297 -0.264296,-0.592593 -0.592593,-0.592593 z m -1.185186,1.777778 c -0.327289,0 -0.592592,0.265312 -0.592592,0.592592 0,0.32728 0.265312,0.592593 0.592592,0.592593 0.209473,0 0.296297,0.592593 0.296297,0.592593 0,0 0.296296,-1.067378 0.296296,-1.185186 0,-0.327288 -0.265313,-0.592592 -0.592593,-0.592592 z"
       id="path12-3" />
    <path
       style="fill:#eff0f1;fill-opacity:1;stroke-width:1.01588"
       class="ColorScheme-Text"
       d="M 7.444444,17.807323 11,15.26764 10.492063,14.759704 H 4.396825 L 3.888889,15.26764 Z"
       font-family="Ubuntu"
       font-size="15px"
       font-weight="400"
       letter-spacing="0"
       text-anchor="middle"
       word-spacing="0"
       id="path60-6" />
    <path
       d="M 19,14.176874 V 5.156475 C 19,4.52042 18.4,4 17.666667,4 H 4.333335 C 3.6,4 3,4.52042 3,5.156475 v 9.020399 c 0,0.636054 0.6,1.156459 1.333335,1.156459 H 17.666667 C 18.4,15.333333 19,14.812928 19,14.176874 Z M 4.333335,14.755109 c -0.366663,0 -0.666663,-0.26022 -0.666663,-0.578235 V 5.156475 c 0,-0.318041 0.3,-0.578236 0.666663,-0.578236 h 13.333332 c 0.366666,0 0.666666,0.260195 0.666666,0.578236 v 9.020399 c 0,0.318015 -0.3,0.578235 -0.666666,0.578235 z"
       id="path2-75"
       style="fill:#eff0f1;fill-opacity:1;stroke-width:0.310438" />
  </g>
  <metadata
     id="metadata18">
    <rdf:RDF>
      <cc:Work
         rdf:about="">
        <dc:format>image/svg+xml</dc:format>
        <dc:type
           rdf:resource="http://purl.org/dc/dcmitype/StillImage" />
      </cc:Work>
    </rdf:RDF>
  </metadata>
  <defs
     id="defs16">
    <linearGradient
       id="oomox"
       x1="0"
       x2="0"
       y1="0"
       y2="1">
      <stop
         offset="0%"
         style="stop-color:#303b3d; stop-opacity:1"
         id="stop18" />
      <stop
         offset="100%"
         style="stop-color:#bc985d; stop-opacity:1"
         id="stop20" />
    </linearGradient>
  </defs>
  <sodipodi:namedview
     pagecolor="#ffffff"
     bordercolor="#000000"
     borderopacity="1"
     objecttolerance="10"
     gridtolerance="10"
     guidetolerance="10"
     inkscape:pageopacity="0"
     inkscape:pageshadow="2"
     inkscape:window-width="1920"
     inkscape:window-height="1007"
     id="namedview14"
     showgrid="false"
     inkscape:zoom="6.9384853"
     inkscape:cx="28.536488"
     inkscape:cy="21.402366"
     inkscape:window-x="0"
     inkscape:window-y="0"
     inkscape:window-maximized="1"
     inkscape:current-layer="22-22-kopete"
     inkscape:lockguides="true"
     inkscape:document-rotation="0"
     inkscape:showpageshadow="false"
     inkscape:pagecheckerboard="0">
    <inkscape:grid
       type="xygrid"
       id="grid863"
       originx="0"
       originy="0" />
  </sodipodi:namedview>
  <g
     id="kopete">
    <rect
       style="opacity:0.00100002"
       width="32"
       height="32"
       x="0"
       y="0"
       id="rect7" />
    <path
       style="fill:#eff0f1;fill-opacity:1"
       d="M 16.5,8 A 5,5.5 0 0 0 15.509766,8.1132812 5,5.5 0 0 1 19.5,13.5 5,5.5 0 0 1 15.490234,18.886719 5,5.5 0 0 0 16.5,19 a 5,5.5 0 0 0 5,-5.5 5,5.5 0 0 0 -5,-5.5 z m -5,1.5 a 1,1 0 0 0 -1,1 1,1 0 0 0 1,1 1,1 0 0 0 1,-1 1,1 0 0 0 -1,-1 z m 2,3 c -0.554,0 -1,0.446 -1,1 0,0.554 0.446,1 1,1 h 3 c 0.554,0 1,-0.446 1,-1 0,-0.554 -0.446,-1 -1,-1 z m -2,3 c -0.5523,0 -1,0.447715 -1,1 0,0.552285 0.447715,1 1,1 0.353485,0 0.5,1 0.5,1 0,0 0.5,-1.8012 0.5,-2 0,-0.5523 -0.447715,-1 -1,-1 z"
       id="path12" />
    <path
       style="fill:#eff0f1;fill-opacity:1;stroke-width:1.71429"
       class="ColorScheme-Text"
       d="M 10,27.299857 16,23.014142 15.142857,22.157 H 4.8571429 L 4,23.014142 Z"
       font-family="Ubuntu"
       font-size="15px"
       font-weight="400"
       letter-spacing="0"
       text-anchor="middle"
       word-spacing="0"
       id="path60" />
    <path
       d="M 29.5,21.173475 V 5.951551 C 29.5,4.878209 28.4875,4 27.250001,4 H 4.750003 C 3.5125,4 2.5,4.878209 2.5,5.951551 V 21.173475 C 2.5,22.246816 3.5125,23.125 4.750003,23.125 H 27.250001 C 28.4875,23.125 29.5,22.246816 29.5,21.173475 Z M 4.750003,22.149246 c -0.618744,0 -1.124994,-0.439121 -1.124994,-0.975771 V 5.951551 c 0,-0.536694 0.50625,-0.975772 1.124994,-0.975772 h 22.499998 c 0.618749,0 1.124999,0.439078 1.124999,0.975772 v 15.221924 c 0,0.53665 -0.50625,0.975771 -1.124999,0.975771 z"
       id="path2"
       style="fill:#eff0f1;fill-opacity:1;stroke-width:0.523864" />
  </g>
</svg>
