<?xml version="1.0" encoding="UTF-8" standalone="no"?>
<svg
   width="32"
   height="32"
   version="1.1"
   id="svg22"
   sodipodi:docname="mail.svg"
   inkscape:version="1.2 (dc2aedaf03, 2022-05-15)"
   xmlns:inkscape="http://www.inkscape.org/namespaces/inkscape"
   xmlns:sodipodi="http://sodipodi.sourceforge.net/DTD/sodipodi-0.dtd"
   xmlns="http://www.w3.org/2000/svg"
   xmlns:svg="http://www.w3.org/2000/svg"
   xmlns:rdf="http://www.w3.org/1999/02/22-rdf-syntax-ns#"
   xmlns:cc="http://creativecommons.org/ns#"
   xmlns:dc="http://purl.org/dc/elements/1.1/">
  <g
     id="22-22-mail-unread-new"
     transform="translate(32,-22)">
    <rect
       style="opacity:0.00100002"
       width="22"
       height="22"
       x="0"
       y="0"
       id="rect2" />
    <path
       d="m 1.5000529,5.1796237 c 0,0.1228114 0.049468,0.2456227 0.1235325,0.319312 l 4.3235001,4.7408163 c 0.1729411,0.196528 0.494109,0.221093 0.6917535,0.02453 C 6.8364914,10.092338 6.8611947,9.7729951 6.663493,9.5764894 L 2.3647076,4.8602234 C 2.1917655,4.6637207 1.8705895,4.6391622 1.6729391,4.8357106 1.5494246,4.9094079 1.5,5.0567727 1.5,5.1796079 Z"
       id="path8-7-7-3-2-8"
       style="fill:#4b8bd4;fill-opacity:1;stroke-width:0.246349" />
    <path
       inkscape:connector-curvature="0"
       id="path4252-3-3-0-5-5-7-7"
       style="font-style:normal;font-variant:normal;font-weight:normal;font-stretch:normal;font-size:18.5263px;line-height:125%;font-family:'Product Sans';-inkscape-font-specification:'Product Sans';letter-spacing:0px;word-spacing:0px;fill:#4b8bd4;fill-opacity:1;stroke:none;stroke-width:0.28105;stroke-linecap:butt;stroke-linejoin:miter;stroke-miterlimit:4;stroke-dasharray:none;stroke-opacity:0.85"
       d="M 11.023101,7 Q 12.915406,7 14.207712,8.31732 15.5,9.634728 15.5,11.499947 q 0,1.049283 -0.449975,1.73708 -0.438461,0.687859 -1.280765,0.687859 -0.865455,0 -1.292324,-0.851052 -0.565427,0.851052 -1.615392,0.851052 -0.946198,0 -1.592294,-0.664495 -0.6461848,-0.676193 -0.6461848,-1.713735 0,-1.025883 0.6461848,-1.702148 0.646096,-0.676121 1.546123,-0.676121 0.888486,0 1.476945,0.687858 h 0.04614 V 9.331634 h 0.830764 v 3.042741 q 0,0.303085 0.161543,0.547879 0.173044,0.244796 0.519257,0.244796 0.819218,0 0.819218,-1.667103 0,-1.538833 -1.061546,-2.59969 -1.061569,-1.0608936 -2.584616,-1.0608936 -1.523063,0 -2.5846703,1.0608936 -1.0615033,1.060857 -1.0615033,2.59969 0,1.538929 1.0615033,2.599812 1.0616073,1.060814 2.5846703,1.060814 0.819197,0 1.465345,-0.326382 l 0.323111,0.792746 Q 12.003815,16 11.023082,16 9.1077206,16 7.803819,14.694267 6.5,13.376942 6.5,11.499947 6.5,9.634728 7.8038244,8.31732 9.119249,7 11.023132,7 Z m -1.0731,5.630835 q 0.41541,0.408041 0.992315,0.408041 0.57692,0 0.980773,-0.408041 0.415409,-0.408041 0.415409,-1.084179 0,-0.676219 -0.415409,-1.084206 -0.403853,-0.40804 -0.980773,-0.40804 -0.576905,0 -0.992315,0.40804 -0.40385,0.407987 -0.40385,1.084206 0,0.676138 0.40385,1.084179 z" />
    <path
       d="M 20.534891,4 H 1.4651199 C 1.2092992,4 1,4.217238 1,4.482761 V 17.51724 C 1,17.782761 1.2092992,18 1.4651199,18 H 20.534891 C 20.790729,18 21,17.782761 21,17.51724 V 4.482761 C 21,4.217238 20.790729,4 20.534891,4 Z M 20,17 H 2 V 5 h 18 z"
       id="path2-1-3-6-9-9"
       style="fill:#4b8bd4;fill-opacity:1;stroke-width:0.236938"
       sodipodi:nodetypes="sssssssssccccc" />
    <path
       d="m 15.423125,10.27352 c 0.197178,0.172535 0.517619,0.172535 0.690152,-0.0246 L 20.42677,5.5166058 C 20.50072,5.4180118 20.55,5.2947709 20.55,5.1961864 c 0,-0.1232366 -0.04936,-0.2711202 -0.172539,-0.3697067 -0.197188,-0.1725348 -0.517622,-0.1725348 -0.690152,0.0246 l -4.313493,4.7323114 c -0.172542,0.1971759 -0.172542,0.4929609 0.04937,0.6901379 z"
       id="path6-2-6-2-1-2"
       style="fill:#4b8bd4;fill-opacity:1;stroke-width:0.246483" />
  </g>
  <g
     id="mail-unread-new"
     transform="translate(0,-32)">
    <rect
       style="opacity:0.00100002"
       width="32"
       height="32"
       x="0"
       y="0"
       id="rect7-5" />
    <path
       d="m 2.000005,7.6730838 c 0,0.1723788 0.070855,0.3447577 0.1771376,0.4481866 l 6.1997856,6.6538276 c 0.2479926,0.275806 0.7085474,0.310285 0.9919666,0.03449 0.2834191,-0.24133 0.3188457,-0.68952 0.035423,-0.96532 L 3.2399573,7.224898 C 2.9919666,6.9490912 2.5314109,6.9146161 2.2479917,7.1904269 2.070855,7.2938537 2,7.5007086 2,7.6730867 Z"
       id="path8-7-7-0"
       style="fill:#4b8bd4;fill-opacity:1;stroke-width:0.349485" />
    <path
       inkscape:connector-curvature="0"
       id="path4252-3-3-0-5-9"
       style="font-style:normal;font-variant:normal;font-weight:normal;font-stretch:normal;font-size:18.5263px;line-height:125%;font-family:'Product Sans';-inkscape-font-specification:'Product Sans';letter-spacing:0px;word-spacing:0px;fill:#4b8bd4;fill-opacity:1;stroke:none;stroke-width:0.412214;stroke-linecap:butt;stroke-linejoin:miter;stroke-miterlimit:4;stroke-dasharray:none;stroke-opacity:0.85"
       d="m 16.033802,10.2 q 2.775387,0 4.670828,1.932081 1.89537,1.932204 1.89537,4.667868 0,1.53893 -0.659969,2.547701 -0.643074,1.008834 -1.878493,1.008834 -1.269332,0 -1.895432,-1.248187 -0.829277,1.248187 -2.369278,1.248187 -1.387767,0 -2.335382,-0.974583 -0.947761,-0.991775 -0.947761,-2.513474 0,-1.50464 0.947761,-2.496482 0.947615,-0.99165 2.267678,-0.99165 1.303125,0 2.166209,1.008866 h 0.06789 v -0.769425 h 1.218463 v 4.462666 q 0,0.444551 0.236932,0.803579 0.253799,0.359012 0.761589,0.359012 1.201533,0 1.201533,-2.445044 0,-2.256964 -1.556956,-3.812914 -1.556993,-1.555951 -3.790825,-1.555951 -2.23386,0 -3.790909,1.555951 -1.556886,1.55595 -1.556886,3.812914 0,2.257073 1.556886,3.813018 1.557049,1.555865 3.790909,1.555865 1.201515,0 2.149202,-0.478709 l 0.473906,1.162689 Q 17.472388,23.4 16.033967,23.4 13.22472,23.4 11.312311,21.484931 9.4,19.552847 9.4,16.799949 9.4,14.064285 11.312311,12.132081 13.24157,10.2 16.033966,10.2 Z m -1.573909,8.258569 q 0.609284,0.598453 1.455408,0.598453 0.846159,0 1.438492,-0.598453 0.609263,-0.598488 0.609263,-1.590142 0,-0.991805 -0.609263,-1.590173 -0.592333,-0.598449 -1.438492,-0.598449 -0.846124,0 -1.455408,0.598449 -0.592334,0.598368 -0.592334,1.590173 0,0.991654 0.592334,1.590142 z" />
    <path
       d="M 30.302329,6 H 1.6976768 C 1.3139518,6 1,6.310343 1,6.6896561 V 25.310344 C 1,25.689655 1.3139518,26 1.6976768,26 H 30.302329 C 30.686092,26 31,25.689655 31,25.310344 V 6.6896561 C 31,6.310343 30.686092,6 30.302329,6 Z M 30,25 H 2 V 7 h 28 z"
       id="path2-1-3-3"
       style="fill:#4b8bd4;fill-opacity:1;stroke-width:0.346831"
       sodipodi:nodetypes="sssssssssccccc" />
    <path
       d="m 22.698246,14.822495 c 0.282756,0.242147 0.74224,0.242147 0.98965,-0.03459 l 6.18535,-6.6418012 c 0.10603,-0.1383707 0.17673,-0.3113361 0.17673,-0.4497067 0,-0.1729636 -0.0707,-0.38052 -0.24742,-0.5188906 -0.28276,-0.2421542 -0.74225,-0.2421542 -0.98966,0.034588 L 22.627552,13.85389 c -0.247413,0.276745 -0.247413,0.691857 0.07071,0.9686 z"
       id="path6-2-6-6"
       style="fill:#4b8bd4;fill-opacity:1;stroke-width:0.349669" />
  </g>
  <metadata
     id="metadata28">
    <rdf:RDF>
      <cc:Work
         rdf:about="">
        <dc:format>image/svg+xml</dc:format>
        <dc:type
           rdf:resource="http://purl.org/dc/dcmitype/StillImage" />
      </cc:Work>
    </rdf:RDF>
  </metadata>
  <defs
     id="defs26" />
  <sodipodi:namedview
     pagecolor="#ffffff"
     bordercolor="#666666"
     borderopacity="1"
     objecttolerance="10"
     gridtolerance="10"
     guidetolerance="10"
     inkscape:pageopacity="0"
     inkscape:pageshadow="2"
     inkscape:window-width="1920"
     inkscape:window-height="1002"
     id="namedview24"
     showgrid="false"
     inkscape:zoom="6.9384853"
     inkscape:cx="38.264836"
     inkscape:cy="15.637419"
     inkscape:window-x="0"
     inkscape:window-y="0"
     inkscape:window-maximized="1"
     inkscape:current-layer="svg22"
     inkscape:document-rotation="0"
     inkscape:lockguides="true"
     inkscape:pagecheckerboard="0"
     inkscape:showpageshadow="2"
     inkscape:deskcolor="#d1d1d1">
    <inkscape:grid
       type="xygrid"
       id="grid880"
       originx="0"
       originy="0" />
  </sodipodi:namedview>
  <g
     id="mail-unread"
     transform="translate(32,10)">
    <rect
       style="opacity:0.00100002"
       width="32"
       height="32"
       x="-32"
       y="-10"
       id="rect7-3" />
    <path
       d="M -1.6976697,-4 H -30.302322 C -30.686047,-4 -31,-3.689657 -31,-3.310344 V 15.310345 C -31,15.689656 -30.686047,16 -30.302322,16 H -1.6976697 C -1.3139085,16 -1,15.689656 -1,15.310345 V -3.310344 C -1,-3.689657 -1.3139085,-4 -1.6976697,-4 Z M -2,15 H -30 V -3 h 28 z"
       id="path2-1"
       style="fill:#eff0f1;fill-opacity:1;stroke-width:0.346829"
       sodipodi:nodetypes="sssssssssccccc" />
    <path
       d="m -9.251754,4.9535369 c 0.282756,0.2421474 0.74224,0.2421474 0.98965,-0.034588 l 6.18535,-6.6418025 c 0.10603,-0.1383707 0.17673,-0.3113361 0.17673,-0.4497068 0,-0.1729636 -0.0707,-0.3805201 -0.24742,-0.5188908 -0.28276,-0.2421542 -0.74225,-0.2421542 -0.98966,0.034588 l -6.185344,6.6417966 c -0.247413,0.2767453 -0.247413,0.6918572 0.07071,0.9686005 z"
       id="path6-2"
       style="fill:#eff0f1;fill-opacity:1;stroke-width:0.34967" />
    <path
       d="m -29.999995,-2.1958813 c 0,0.172379 0.07085,0.3447579 0.177138,0.4481868 l 6.199786,6.6538279 c 0.247992,0.2758058 0.708547,0.3102848 0.991966,0.03449 0.28342,-0.2413308 0.318846,-0.6895203 0.03542,-0.9653214 l -6.16436,-6.6193694 c -0.247992,-0.2758068 -0.708548,-0.3102819 -0.991967,-0.034471 C -29.929144,-2.5751111 -30,-2.3682563 -30,-2.1958783 Z"
       id="path8-7"
       style="fill:#eff0f1;fill-opacity:1;stroke-width:0.349485" />
    <path
       inkscape:connector-curvature="0"
       id="path4252-3-3-0"
       style="font-style:normal;font-variant:normal;font-weight:normal;font-stretch:normal;font-size:18.5263px;line-height:125%;font-family:'Product Sans';-inkscape-font-specification:'Product Sans';letter-spacing:0px;word-spacing:0px;fill:#eff0f1;fill-opacity:1;stroke:none;stroke-width:0.405968;stroke-linecap:butt;stroke-linejoin:miter;stroke-miterlimit:4;stroke-dasharray:none;stroke-opacity:0.85"
       d="m -15.966718,0 q 2.733346,0 4.600066,1.9028059 Q -9.5,3.8057328 -9.5,6.4999462 q 0,1.515621 -0.649967,2.5091028 -0.633329,0.993549 -1.850033,0.993549 -1.250097,0 -1.866716,-1.2292738 -0.816709,1.2292738 -2.333386,1.2292738 -1.366743,0 -2.300001,-0.9598177 -0.93341,-0.9767436 -0.93341,-2.4753856 0,-1.4818507 0.93341,-2.4586641 0.933258,-0.9766183 2.233323,-0.9766183 1.283383,0 2.133396,0.9935786 h 0.06688 V 3.3679247 h 1.200009 v 4.3950521 q 0,0.4378099 0.233343,0.7913966 0.249954,0.3535747 0.750051,0.3535747 1.183329,0 1.183329,-2.4080019 0,-2.2227593 -1.533368,-3.7551424 -1.533404,-1.532369 -3.733394,-1.532369 -2.200017,0 -3.733477,1.532369 -1.533303,1.5323831 -1.533303,3.7551424 0,2.222877 1.533303,3.7552498 1.53346,1.53229 3.733477,1.53229 1.183311,0 2.116642,-0.471457 l 0.466728,1.145075 Q -14.549905,13 -15.966534,13 -18.733222,13 -20.616658,11.113948 -22.5,9.2111372 -22.5,6.4999462 -22.5,3.8057328 -20.616658,1.9028059 -18.716623,0 -15.966528,0 Z m -1.550066,8.1334368 q 0.600053,0.5893864 1.433361,0.5893864 0.833345,0 1.416696,-0.5893864 0.600036,-0.5894201 0.600036,-1.5660421 0,-0.9767843 -0.600036,-1.5660883 -0.583351,-0.5893802 -1.416696,-0.5893802 -0.833308,0 -1.433361,0.5893802 -0.583358,0.589304 -0.583358,1.5660883 0,0.976622 0.583358,1.5660421 z" />
  </g>
  <g
     id="22-22-mail-unread"
     transform="translate(32,10)">
    <rect
       style="opacity:0.00100002"
       width="22"
       height="22"
       x="0"
       y="0"
       id="rect2-6" />
    <path
       d="M 20.534891,4 H 1.4651199 C 1.2092992,4 1,4.217238 1,4.482761 V 17.51724 C 1,17.782761 1.2092992,18 1.4651199,18 H 20.534891 C 20.790729,18 21,17.782761 21,17.51724 V 4.482761 C 21,4.217238 20.790729,4 20.534891,4 Z M 20,17 H 2 V 5 h 18 z"
       id="path2-1-3-6-0"
       style="fill:#eff0f1;fill-opacity:1;stroke-width:0.236938"
       sodipodi:nodetypes="sssssssssccccc" />
    <path
       d="m 15.473125,10.365296 c 0.197178,0.172535 0.517619,0.172535 0.690152,-0.0246 L 20.47677,5.6083813 C 20.55072,5.5097873 20.6,5.3865464 20.6,5.2879619 20.6,5.1647253 20.55064,5.0168417 20.427461,4.9182552 20.230273,4.7457204 19.909839,4.7457204 19.737309,4.9428552 l -4.313493,4.7323114 c -0.172542,0.1971759 -0.172542,0.4929614 0.04937,0.6901384 z"
       id="path6-2-6-2-6"
       style="fill:#eff0f1;fill-opacity:1;stroke-width:0.246483" />
    <path
       d="m 1.5164589,5.2713033 c 0,0.1228113 0.049469,0.2456226 0.1235325,0.319312 l 4.3235001,4.7408167 c 0.1729411,0.196527 0.494109,0.221093 0.6917535,0.02453 C 6.8528974,10.184015 6.8776007,9.8646725 6.679899,9.6681669 L 2.3811136,4.9519029 C 2.2081715,4.7554002 1.8869955,4.7308417 1.6893451,4.9273901 1.5658306,5.0010874 1.516406,5.1484523 1.516406,5.2712874 Z"
       id="path8-7-7-3-26"
       style="fill:#eff0f1;fill-opacity:1;stroke-width:0.24635" />
    <path
       inkscape:connector-curvature="0"
       id="path4252-3-3-0-5-5-1"
       style="font-style:normal;font-variant:normal;font-weight:normal;font-stretch:normal;font-size:18.5263px;line-height:125%;font-family:'Product Sans';-inkscape-font-specification:'Product Sans';letter-spacing:0px;word-spacing:0px;fill:#eff0f1;fill-opacity:1;stroke:none;stroke-width:0.281051;stroke-linecap:butt;stroke-linejoin:miter;stroke-miterlimit:4;stroke-dasharray:none;stroke-opacity:0.85"
       d="M 11.073092,7 Q 12.965399,7 14.257708,8.31732 15.55,9.634727 15.55,11.499948 q 0,1.049282 -0.449981,1.73708 -0.438458,0.687858 -1.280767,0.687858 -0.865454,0 -1.292323,-0.851052 -0.565428,0.851052 -1.615398,0.851052 -0.946197,0 -1.592294,-0.664495 -0.6461869,-0.676194 -0.6461869,-1.713734 0,-1.025885 0.6461869,-1.70215 0.646097,-0.67612 1.546124,-0.67612 0.88849,0 1.476948,0.687858 h 0.04616 V 9.331634 h 0.830765 v 3.042742 q 0,0.303084 0.161543,0.547878 0.173044,0.244796 0.519259,0.244796 0.819219,0 0.819219,-1.667102 0,-1.538833 -1.061548,-2.599691 -1.061572,-1.0608937 -2.584622,-1.0608937 -1.523065,0 -2.5846755,1.0608937 -1.0615054,1.060858 -1.0615054,2.599691 0,1.538927 1.0615054,2.599811 1.0616105,1.060814 2.5846755,1.060814 0.8192,0 1.465348,-0.326383 l 0.323112,0.792747 Q 12.053823,16 11.073089,16 9.157724,16 7.8538198,14.694267 6.55,13.376942 6.55,11.499948 6.55,9.634727 7.853827,8.31732 9.16924,7 11.073124,7 Z m -1.073103,5.630835 q 0.41541,0.40804 0.992317,0.40804 0.57692,0 0.980775,-0.40804 0.415406,-0.408041 0.415406,-1.084178 0,-0.67622 -0.415406,-1.084208 -0.403855,-0.408039 -0.980775,-0.408039 -0.576907,0 -0.992317,0.408039 -0.403851,0.407988 -0.403851,1.084208 0,0.676137 0.403851,1.084178 z" />
  </g>
</svg>
