<?xml version="1.0" encoding="UTF-8" standalone="no"?>
<svg
   width="32"
   height="32"
   version="1"
   id="svg12"
   sodipodi:docname="manjaro.svg"
   inkscape:version="1.2.1 (9c6d41e410, 2022-07-14)"
   xmlns:inkscape="http://www.inkscape.org/namespaces/inkscape"
   xmlns:sodipodi="http://sodipodi.sourceforge.net/DTD/sodipodi-0.dtd"
   xmlns:xlink="http://www.w3.org/1999/xlink"
   xmlns="http://www.w3.org/2000/svg"
   xmlns:svg="http://www.w3.org/2000/svg"
   xmlns:rdf="http://www.w3.org/1999/02/22-rdf-syntax-ns#"
   xmlns:cc="http://creativecommons.org/ns#"
   xmlns:dc="http://purl.org/dc/elements/1.1/">
  <metadata
     id="metadata18">
    <rdf:RDF>
      <cc:Work
         rdf:about="">
        <dc:format>image/svg+xml</dc:format>
        <dc:type
           rdf:resource="http://purl.org/dc/dcmitype/StillImage" />
      </cc:Work>
    </rdf:RDF>
  </metadata>
  <defs
     id="defs16">
    <linearGradient
       inkscape:collect="always"
       id="linearGradient858">
      <stop
         style="stop-color:#4b8bd4;stop-opacity:1"
         offset="0"
         id="stop852" />
      <stop
         style="stop-color:#3b6ca7;stop-opacity:1"
         offset="1"
         id="stop854" />
    </linearGradient>
    <linearGradient
       inkscape:collect="always"
       xlink:href="#linearGradient858"
       id="linearGradient848"
       x1="3.3"
       y1="15.999909"
       x2="20.623528"
       y2="15.999909"
       gradientUnits="userSpaceOnUse"
       gradientTransform="matrix(1.0138234,0,0,1,-0.3456174,0)" />
    <linearGradient
       inkscape:collect="always"
       xlink:href="#linearGradient858"
       id="linearGradient857"
       x1="23.300999"
       y1="16.000113"
       x2="28.800251"
       y2="16.000113"
       gradientUnits="userSpaceOnUse"
       gradientTransform="matrix(1.2634893,0,0,1,-7.3888089,0)" />
    <linearGradient
       inkscape:collect="always"
       xlink:href="#linearGradient858"
       id="linearGradient848-3"
       x1="3.3"
       y1="15.999909"
       x2="20.623528"
       y2="15.999909"
       gradientUnits="userSpaceOnUse"
       gradientTransform="matrix(0.66666661,0,0,0.66666661,-33.263771,10.3353)" />
    <linearGradient
       inkscape:collect="always"
       xlink:href="#linearGradient858"
       id="linearGradient857-6"
       x1="23.300999"
       y1="16.000113"
       x2="28.800251"
       y2="16.000113"
       gradientUnits="userSpaceOnUse"
       gradientTransform="matrix(0.82613571,0,0,0.66666661,-37.856519,10.3353)" />
    <linearGradient
       inkscape:collect="always"
       xlink:href="#linearGradient858"
       id="linearGradient856"
       x1="46.363777"
       y1="11.014531"
       x2="54.04493"
       y2="11.014531"
       gradientUnits="userSpaceOnUse"
       gradientTransform="matrix(1.0195979,0,0,1,-34.48427,10.001957)" />
    <linearGradient
       inkscape:collect="always"
       xlink:href="#linearGradient858"
       id="linearGradient864"
       x1="-24.663778"
       y1="24.346197"
       x2="-19.543009"
       y2="24.346197"
       gradientUnits="userSpaceOnUse" />
  </defs>
  <sodipodi:namedview
     pagecolor="#ffffff"
     bordercolor="#000000"
     borderopacity="1"
     objecttolerance="10"
     gridtolerance="10"
     guidetolerance="10"
     inkscape:pageopacity="0"
     inkscape:pageshadow="2"
     inkscape:window-width="1920"
     inkscape:window-height="1002"
     id="namedview14"
     showgrid="false"
     inkscape:zoom="9.8125"
     inkscape:cx="4.2292994"
     inkscape:cy="12.840764"
     inkscape:window-x="0"
     inkscape:window-y="0"
     inkscape:window-maximized="1"
     inkscape:current-layer="svg12"
     inkscape:document-rotation="0"
     inkscape:lockguides="false"
     inkscape:showpageshadow="2"
     inkscape:pagecheckerboard="0"
     inkscape:deskcolor="#d1d1d1">
    <inkscape:grid
       type="xygrid"
       id="grid358" />
  </sodipodi:namedview>
  <rect
     style="opacity:0.00100002"
     width="32"
     height="32"
     x="4.494629e-07"
     y="6.0302739e-08"
     id="rect7" />
  <path
     d="m 20.563,4.4999961 v 6.9999469 c 0,0.275998 -0.207059,0.499996 -0.462184,0.499996 h -8.214655 c -0.574914,0 -0.655942,-0.03159 -0.655942,0.499997 v 14.999887 c 0,0.275998 -0.0044,0.499996 -0.259539,0.499996 H 3.462184 C 3.2070583,27.999819 3,27.775821 3,27.499823 V 4.6000251 c 0,-0.275998 0.2070583,-0.600025 0.462184,-0.600025 h 16.638632 c 0.255125,0 0.462184,0.223998 0.462184,0.499996 z M 19.63863,10.999947 V 4.9999921 H 3.9243686 V 26.999826 h 6.3812444 l 0.01299,-13.949935 c 0.0021,-2.340374 -0.243425,-2.049944 2.398901,-2.049944 z"
     id="path2"
     sodipodi:nodetypes="ssssssssssssscccccssc"
     style="fill:url(#linearGradient848);fill-opacity:1;stroke-width:0.961439" />
  <path
     class="fil0"
     d="M 20.619824,15.255897 V 27.999976 H 18.345055 15.095393 12.788141 V 14.05041 c 0,0 1.039881,-0.01741 2.307252,-0.01741 h 5.489193 c 0,0 0.03518,0.559041 0.03518,1.222903 z m -0.933085,0 v 11.565169 0.254379 h -6.012567 v -0.254379 l 10e-4,-11.821088 h 1.419996 4.591555 l -0.001,0.255925 z"
     id="path6"
     style="fill:url(#linearGradient856);fill-opacity:1;fill-rule:evenodd;stroke-width:0.0238268;image-rendering:optimizeQuality;shape-rendering:geometricPrecision;text-rendering:geometricPrecision"
     sodipodi:nodetypes="scssccscssscccscsccs" />
  <path
     class="fil0"
     d="M 29,6.1111671 V 27.60232 c 0,0.256141 -0.284109,0.397679 -0.645145,0.397679 h -6.276493 c 0,0 -0.0266,-0.96882 -0.0266,-2.132701 V 6.1111691 c 0,-1.134037 0.0057,-2.09977 0.0057,-2.09977 l 6.311087,-0.01117 c 0.382108,-6.75e-4 0.634363,0.197738 0.631323,0.407662 z m -1.011679,-0.08615 -0.01148,20.9746039 H 26.96406 23.086089 l -5.07e-4,-1.132322 V 6.1111651 c 0,-0.56702 5.07e-4,-1.11079 5.07e-4,-1.11079 h 4.893267 v 0 z"
     id="path6-7"
     style="fill:url(#linearGradient857);fill-opacity:1;fill-rule:evenodd;stroke-width:0.0292805;image-rendering:optimizeQuality;shape-rendering:geometricPrecision;text-rendering:geometricPrecision"
     sodipodi:nodetypes="ssscsscsssscsccscccs" />
  <g
     id="22-22-manjaro-settings-manager">
    <rect
       style="opacity:0.00100002"
       width="22"
       height="22"
       x="-33.463779"
       y="10.001957"
       id="rect2" />
    <path
       d="m -19.514765,13.335285 v 4.666638 c 0,0.183997 -0.136157,0.333329 -0.303913,0.333329 h -5.401763 c -0.378051,0 -0.431338,-0.02103 -0.431338,0.333323 v 9.999928 c 0,0.184002 -0.0024,0.333326 -0.170669,0.333326 h -4.937398 c -0.167777,0 -0.303933,-0.149324 -0.303933,-0.333326 V 13.401972 c 0,-0.184 0.136156,-0.400015 0.303933,-0.400015 h 10.941168 c 0.167756,0 0.303913,0.149329 0.303913,0.333328 z m -0.607842,4.3333 v -3.999962 h -10.333328 v 14.666563 h 4.196157 l 0.0096,-9.299965 c 0.0013,-1.560256 -0.160067,-1.366636 1.577458,-1.366636 z"
       id="path2-2"
       sodipodi:nodetypes="ssssssssssssscccccssc"
       style="fill:url(#linearGradient848-3);fill-opacity:1.0;stroke-width:0.63658" />
    <path
       class="fil0"
       d="m -19.543009,20.505893 v 8.496051 h -1.487361 -2.1248 -1.508608 v -9.299712 c 0,0 0.679933,-0.01178 1.508608,-0.01178 h 3.589123 c 0,0 0.02294,0.372691 0.02294,0.815258 z m -0.6101,0 v 7.710115 0.169587 h -3.93133 v -0.169587 l 6.61e-4,-7.880737 h 0.928467 3.002202 l -6.8e-4,0.170628 z"
       id="path6-9"
       style="fill:url(#linearGradient864);fill-opacity:1.0;fill-rule:evenodd;stroke-width:0.0157306;image-rendering:optimizeQuality;shape-rendering:geometricPrecision;text-rendering:geometricPrecision"
       sodipodi:nodetypes="scssccscssscccscsccs" />
    <path
       class="fil0"
       d="m -14.063609,14.409387 v 14.327451 c 0,0.170752 -0.185765,0.265119 -0.421824,0.265119 h -4.103912 c 0,0 -0.01744,-0.645887 -0.01744,-1.421793 V 14.409387 c 0,-0.756014 0.0032,-1.399842 0.0032,-1.399842 l 4.126522,-0.0066 c 0.249843,-4.51e-4 0.41478,0.131826 0.412791,0.271772 z m -0.661481,-0.05746 -0.0093,13.983081 h -0.662207 -2.535617 l -3.29e-4,-0.754882 V 14.409359 c 0,-0.378002 3.29e-4,-0.74052 3.29e-4,-0.74052 h 3.199473 v 0 z"
       id="path6-7-1"
       style="fill:url(#linearGradient857-6);fill-opacity:1.0;fill-rule:evenodd;stroke-width:0.0193313;image-rendering:optimizeQuality;shape-rendering:geometricPrecision;text-rendering:geometricPrecision"
       sodipodi:nodetypes="ssscsscsssscsccscccs" />
  </g>
</svg>
