<?xml version="1.0" encoding="UTF-8" standalone="no"?>
<svg
   sodipodi:docname="phone.svg"
   inkscape:version="1.2 (dc2aedaf03, 2022-05-15)"
   id="svg"
   viewBox="0 0 32.000015 31.999973"
   height="31.999973"
   width="32.000015"
   version="1.1"
   xmlns:inkscape="http://www.inkscape.org/namespaces/inkscape"
   xmlns:sodipodi="http://sodipodi.sourceforge.net/DTD/sodipodi-0.dtd"
   xmlns="http://www.w3.org/2000/svg"
   xmlns:svg="http://www.w3.org/2000/svg"
   xmlns:rdf="http://www.w3.org/1999/02/22-rdf-syntax-ns#"
   xmlns:cc="http://creativecommons.org/ns#"
   xmlns:dc="http://purl.org/dc/elements/1.1/">
  <g
     id="22-22-phone-battery"
     transform="translate(56.062478,39.000003)">
    <rect
       y="0"
       x="0"
       height="22"
       width="22"
       id="rect3054"
       style="fill:#000000;fill-opacity:0;stroke:none;stroke-width:1" />
    <path
       class="ColorScheme-Text"
       style="color:#7b7c7e;fill:#bf616a;fill-opacity:1;fill-rule:evenodd;stroke:none;stroke-width:0.712505"
       d="M 11.100024,7 8.5,10.872694 h 1.2999751 v 3.227305 L 12.4,10.227235 h -1.299976 z"
       id="path3072"
       inkscape:connector-curvature="0"
       sodipodi:nodetypes="ccccccc" />
    <path
       d="M 4.499994,6.999999 C 4.218747,6.999999 4,7.134615 4,7.30769 v 6.384617 c 0,0.153845 0.187497,0.26923 0.406242,0.307692 0.03127,0 0.0625,0 0.09377,0 0.281243,0 0.499989,-0.134616 0.499989,-0.307692 V 7.30769 c 0,-0.173075 -0.249995,-0.307691 -0.499986,-0.307691 z"
       id="path2-5-7-6-5"
       style="fill:#eff0f1;fill-opacity:1;stroke-width:0.245145" />
    <path
       d="M 2.499992,8.001687 C 2.218747,8.001687 2,8.141082 2,8.320305 v 4.361077 c 0,0.159308 0.187497,0.278789 0.406242,0.318617 0.03127,0 0.0625,0 0.09377,0 0.281243,0 0.499989,-0.139396 0.499989,-0.318617 V 8.320305 c 0,-0.179223 -0.249995,-0.338531 -0.499988,-0.318618 z"
       id="path4-3-0-1-6"
       style="fill:#eff0f1;fill-opacity:1;stroke-width:0.249458" />
    <path
       d="m 16.531229,6.999999 c -0.28124,0 -0.49999,0.134616 -0.49999,0.307691 v 6.384617 c 0,0.153845 0.1875,0.26923 0.40624,0.307692 0.0313,0 0.0625,0 0.0938,0 0.28125,0 0.49999,-0.134616 0.49999,-0.307692 V 7.30769 c 0,-0.173075 -0.21874,-0.307691 -0.49999,-0.307691 z"
       id="path6-5-9-8-2"
       style="fill:#eff0f1;fill-opacity:1;stroke-width:0.245145" />
    <path
       d="M 19.000019,8.318725 C 19.000019,8.139439 18.781249,8 18.500019,8 c -0.28124,0 -0.5,0.139439 -0.5,0.318725 v 4.36255 c 0,0.159357 0.1875,0.278889 0.40625,0.318725 0.0312,0 0.0625,0 0.0937,0 0.28124,0 0.5,-0.139439 0.5,-0.318725 z"
       id="path8-6-3-7-91"
       style="fill:#eff0f1;fill-opacity:1;stroke-width:0.249501" />
    <path
       d="M 13.789239,3 H 7.273238 C 6.589239,3 6.031239,3.522655 6.031239,4.16333 v 13.67334 c 0,0.640674 0.558,1.163329 1.241999,1.163329 h 6.516001 c 0.684,0 1.242,-0.522655 1.242,-1.163329 V 4.16333 C 15.031239,3.522655 14.473239,3 13.789239,3 Z M 8.875238,3.927292 h 3.276001 c 0.126,0 0.216,0.0843 0.216,0.202318 0,0.118019 -0.09,0.202318 -0.216,0.202318 H 8.875238 c -0.126,0 -0.215999,-0.0843 -0.215999,-0.202318 0,-0.101159 0.09,-0.202318 0.215999,-0.202318 z m 1.638001,14.061116 c -0.36,0 -0.648,-0.269757 -0.648,-0.606954 0,-0.337197 0.288,-0.606955 0.648,-0.606955 0.36,0 0.648,0.269758 0.648,0.606955 -0.018,0.337197 -0.306,0.606954 -0.648,0.606954 z m 3.48676,-1.988409 H 7 l 1e-6,-11 h 6.999998 z"
       id="path10-2-6-9-27"
       style="fill:#eff0f1;fill-opacity:1;stroke-width:0.174207"
       sodipodi:nodetypes="ssssssssssssssssssscsccccc" />
  </g>
  <g
     id="phone-battery"
     transform="translate(52)">
    <rect
       style="opacity:0.01;fill:#eff0f1;fill-opacity:0;stroke:none"
       id="rect3038"
       y="1.4697265e-07"
       x="-4.3444825e-08"
       ry="0"
       rx="0"
       height="31.999973"
       width="32.000015" />
    <path
       sodipodi:nodetypes="ccccccc"
       inkscape:connector-curvature="0"
       id="path4444"
       d="M 17.166708,9 12.5,15.5454 h 2.333291 V 21 L 19.5,14.45448 h -2.333292 z"
       style="color:#7b7c7e;fill:#bf616a;fill-opacity:1;fill-rule:evenodd;stroke:none;stroke-width:1.03415"
       class="ColorScheme-Text" />
    <path
       d="m 7.5,9.999997 c -0.28125,0 -0.5,0.192308 -0.5,0.439564 v 9.120873 c 0,0.219781 0.1875,0.384621 0.40625,0.439563 0.03125,0 0.0625,0 0.09375,0 0.28125,0 0.5,-0.192307 0.5,-0.439563 V 10.439561 C 8,10.192305 7.75,9.999997 7.5,9.999997 Z"
       id="path2-3"
       style="fill:#eff0f1;fill-opacity:1;stroke-width:0.293004" />
    <path
       d="m 5.5,12.002022 c -0.28125,0 -0.5,0.167274 -0.5,0.382342 v 5.233293 c 0,0.19117 0.1875,0.334549 0.40625,0.38234 0.03125,0 0.0625,0 0.09375,0 0.28125,0 0.5,-0.167273 0.5,-0.38234 V 12.384364 C 6,12.169296 5.75,11.978127 5.5,12.002022 Z"
       id="path4-6"
       style="fill:#eff0f1;fill-opacity:1;stroke-width:0.273269" />
    <path
       d="m 24.5,9.999997 c -0.28125,0 -0.5,0.192308 -0.5,0.439564 v 9.120873 c 0,0.219782 0.1875,0.38462 0.40625,0.439563 0.0312,0 0.0625,0 0.0937,0 0.28125,0 0.5,-0.192307 0.5,-0.439563 V 10.439561 C 25,10.192305 24.78125,9.999997 24.5,9.999997 Z"
       id="path6-7"
       style="fill:#eff0f1;fill-opacity:1;stroke-width:0.293006" />
    <path
       d="m 27,12.382467 c 0,-0.21514 -0.21875,-0.38247 -0.5,-0.38247 -0.28125,0 -0.5,0.16733 -0.5,0.38247 v 5.23506 c 0,0.191234 0.1875,0.334661 0.40625,0.38247 0.0313,0 0.0625,0 0.0937,0 0.28125,0 0.5,-0.167331 0.5,-0.38247 z"
       id="path8-5"
       style="fill:#eff0f1;fill-opacity:1;stroke-width:0.273315" />
    <path
       d="M 21.068,4 H 10.932 C 9.868,4 9,4.783983 9,5.744994 V 26.255005 C 9,27.216017 9.868,28 10.932,28 H 21.068 C 22.131999,28 23,27.216017 23,26.255005 V 5.744994 C 23,4.783983 22.131999,4 21.068,4 Z m -7.644,1.390938 h 5.096 c 0.195999,0 0.336,0.126449 0.336,0.303477 0,0.177028 -0.140001,0.303477 -0.336,0.303477 h -5.096 c -0.196,0 -0.336,-0.126449 -0.336,-0.303477 0,-0.151739 0.14,-0.303477 0.336,-0.303477 z m 2.548,21.091675 c -0.560001,0 -1.008,-0.404636 -1.008,-0.910432 0,-0.505795 0.447999,-0.910432 1.008,-0.910432 0.56,0 1.008,0.404637 1.008,0.910432 -0.028,0.505796 -0.476,0.910432 -1.008,0.910432 z M 22,22.999997 H 10 v -16 h 12 z"
       id="path10-3"
       style="fill:#eff0f1;fill-opacity:1;stroke-width:0.266104"
       sodipodi:nodetypes="ssssssssssssssssssscsccccc" />
  </g>
  <sodipodi:namedview
     inkscape:document-rotation="0"
     fit-margin-bottom="0"
     fit-margin-right="0"
     fit-margin-left="0"
     fit-margin-top="0"
     inkscape:snap-bbox-midpoints="true"
     inkscape:snap-bbox="true"
     inkscape:current-layer="svg"
     inkscape:window-maximized="1"
     inkscape:window-y="0"
     inkscape:window-x="0"
     inkscape:cy="31.112698"
     inkscape:cx="51.176853"
     inkscape:zoom="5.6568542"
     showgrid="false"
     id="namedview10"
     inkscape:window-height="1002"
     inkscape:window-width="1920"
     inkscape:pageshadow="2"
     inkscape:pageopacity="0"
     guidetolerance="10"
     gridtolerance="10"
     objecttolerance="10"
     borderopacity="1"
     bordercolor="#000000"
     pagecolor="#ffffff"
     showguides="true"
     inkscape:lockguides="false"
     inkscape:showpageshadow="2"
     inkscape:pagecheckerboard="0"
     inkscape:deskcolor="#d1d1d1">
    <inkscape:grid
       type="xygrid"
       id="grid963"
       originx="1.2971191e-06"
       originy="3.03833e-06" />
  </sodipodi:namedview>
  <defs
     id="defs81">
    <style
       id="current-color-scheme"
       type="text/css" />
  </defs>
  <metadata
     id="metadata34">
    <rdf:RDF>
      <cc:Work
         rdf:about="">
        <dc:format>image/svg+xml</dc:format>
        <dc:type
           rdf:resource="http://purl.org/dc/dcmitype/StillImage" />
      </cc:Work>
    </rdf:RDF>
  </metadata>
  <g
     id="phone">
    <rect
       width="32.000015"
       height="31.999973"
       rx="0"
       ry="0"
       x="-2.9711913e-07"
       y="-3.8330079e-08"
       id="rect3860"
       style="opacity:0.01;fill:#eff0f1;fill-opacity:0;stroke:none" />
    <path
       d="M 7.5000003,10 C 7.2187501,10 7,10.192308 7,10.439564 v 9.120873 C 7,19.780218 7.1875002,19.945058 7.4062503,20 c 0.031251,0 0.0625,0 0.093749,0 C 7.7812499,20 8,19.807693 8,19.560437 V 10.439564 C 8,10.192308 7.7499998,10 7.5000003,10 Z"
       id="path2"
       style="fill:#eff0f1;fill-opacity:1;stroke-width:0.293004" />
    <path
       d="M 5.5000004,12.002025 C 5.2187502,12.002025 5,12.169299 5,12.384367 V 17.61766 C 5,17.80883 5.1875002,17.952209 5.4062503,18 c 0.031251,0 0.0625,0 0.093749,0 C 5.7812498,18 6,17.832727 6,17.61766 V 12.384367 C 6,12.169299 5.7499998,11.97813 5.5000004,12.002025 Z"
       id="path4"
       style="fill:#eff0f1;fill-opacity:1;stroke-width:0.273269" />
    <path
       d="M 24.500001,10 C 24.218751,10 24,10.192308 24,10.439564 v 9.120873 c 0,0.219782 0.187501,0.38462 0.406253,0.439563 0.03125,0 0.0625,0 0.09375,0 0.28125,0 0.5,-0.192307 0.5,-0.439563 V 10.439564 C 25.000003,10.192308 24.781253,10 24.5,10 Z"
       id="path6"
       style="fill:#eff0f1;fill-opacity:1;stroke-width:0.293006" />
    <path
       d="M 26.999995,12.38247 C 26.999995,12.16733 26.781247,12 26.499999,12 26.218749,12 26,12.16733 26,12.38247 v 5.23506 c 0,0.191234 0.1875,0.334661 0.406248,0.38247 0.03126,0 0.0625,0 0.09375,0 C 26.781252,18 27,17.832669 27,17.61753 Z"
       id="path8"
       style="fill:#eff0f1;fill-opacity:1;stroke-width:0.273315" />
    <path
       d="M 21.068,4.0000028 H 10.932 C 9.868,4.0000028 9,4.7839859 9,5.7449975 V 26.255008 c 0,0.961012 0.868,1.744995 1.932,1.744995 h 10.136 c 1.063999,0 1.932,-0.783983 1.932,-1.744995 V 5.7449975 C 23,4.7839859 22.131999,4.0000028 21.068,4.0000028 Z m -7.644,1.3909378 h 5.096 c 0.195999,0 0.336,0.1264489 0.336,0.3034774 0,0.1770284 -0.140001,0.3034773 -0.336,0.3034773 h -5.096 c -0.196,0 -0.336,-0.1264489 -0.336,-0.3034773 0,-0.1517387 0.14,-0.3034774 0.336,-0.3034774 z m 2.548,21.0916754 c -0.560001,0 -1.008,-0.404636 -1.008,-0.910432 0,-0.505795 0.447999,-0.910432 1.008,-0.910432 0.56,0 1.008,0.404637 1.008,0.910432 -0.028,0.505796 -0.476,0.910432 -1.008,0.910432 z M 22,23 H 10 V 7 h 12 z"
       id="path10"
       style="fill:#eff0f1;fill-opacity:1;stroke-width:0.266104"
       sodipodi:nodetypes="ssssssssssssssssssscsccccc" />
  </g>
  <g
     id="22-22-phone"
     transform="translate(60.031235,73.500004)">
    <rect
       style="fill:#000000;fill-opacity:0;stroke:none"
       id="rect3841"
       width="22"
       height="22"
       x="-54.999996"
       y="-34.5" />
    <path
       d="m -50.531241,-27.500001 c -0.281247,0 -0.499994,0.134616 -0.499994,0.307691 v 6.384617 c 0,0.153845 0.187497,0.26923 0.406242,0.307692 0.03127,0 0.0625,0 0.09377,0 0.281243,0 0.499989,-0.134616 0.499989,-0.307692 v -6.384617 c 0,-0.173075 -0.249995,-0.307691 -0.499986,-0.307691 z"
       id="path2-5-7-6"
       style="fill:#eff0f1;fill-opacity:1;stroke-width:0.245145" />
    <path
       d="m -52.531243,-26.498313 c -0.281245,0 -0.499992,0.139395 -0.499992,0.318618 v 4.361077 c 0,0.159308 0.187497,0.278789 0.406242,0.318617 0.03127,0 0.0625,0 0.09377,0 0.281243,0 0.499989,-0.139396 0.499989,-0.318617 v -4.361077 c 0,-0.179223 -0.249995,-0.338531 -0.499988,-0.318618 z"
       id="path4-3-0-1"
       style="fill:#eff0f1;fill-opacity:1;stroke-width:0.249458" />
    <path
       d="m -38.500008,-27.500001 c -0.281242,0 -0.499988,0.134616 -0.499988,0.307691 v 6.384617 c 0,0.153845 0.187497,0.26923 0.406242,0.307692 0.03126,0 0.0625,0 0.09377,0 0.281243,0 0.499989,-0.134616 0.499989,-0.307692 v -6.384617 c 0,-0.173075 -0.218745,-0.307691 -0.49999,-0.307691 z"
       id="path6-5-9-8"
       style="fill:#eff0f1;fill-opacity:1;stroke-width:0.245145" />
    <path
       d="m -36.031215,-26.181275 c 0,-0.179286 -0.21877,-0.318725 -0.5,-0.318725 -0.281238,0 -0.5,0.139439 -0.5,0.318725 v 4.36255 c 0,0.159357 0.1875,0.278889 0.40625,0.318725 0.03121,0 0.0625,0 0.09371,0 0.281234,0 0.5,-0.139439 0.5,-0.318725 z"
       id="path8-6-3-7"
       style="fill:#eff0f1;fill-opacity:1;stroke-width:0.249501" />
    <path
       d="m -41.241996,-31.5 h -6.516001 c -0.683999,0 -1.241999,0.522655 -1.241999,1.16333 v 13.67334 c 0,0.640674 0.558,1.163329 1.241999,1.163329 h 6.516001 c 0.683999,0 1.242,-0.522655 1.242,-1.163329 v -13.67334 c 0,-0.640675 -0.558001,-1.16333 -1.242,-1.16333 z m -4.914001,0.927292 h 3.276 c 0.126,0 0.216,0.0843 0.216,0.202318 0,0.118019 -0.09,0.202318 -0.216,0.202318 h -3.276 c -0.126,0 -0.215999,-0.0843 -0.215999,-0.202318 0,-0.101159 0.09,-0.202318 0.215999,-0.202318 z m 1.638001,14.061116 c -0.36,0 -0.648,-0.269757 -0.648,-0.606954 0,-0.337197 0.288,-0.606955 0.648,-0.606955 0.36,0 0.647999,0.269758 0.647999,0.606955 -0.018,0.337197 -0.305999,0.606954 -0.647999,0.606954 z m 3.486761,-1.988409 h -7 l 1e-6,-11 h 6.999999 z"
       id="path10-2-6-9"
       style="fill:#eff0f1;fill-opacity:1;stroke-width:0.174207"
       sodipodi:nodetypes="ssssssssssssssssssscsccccc" />
  </g>
</svg>
