<?xml version="1.0" encoding="UTF-8" standalone="no"?>
<svg
   xmlns:dc="http://purl.org/dc/elements/1.1/"
   xmlns:cc="http://creativecommons.org/ns#"
   xmlns:rdf="http://www.w3.org/1999/02/22-rdf-syntax-ns#"
   xmlns:svg="http://www.w3.org/2000/svg"
   xmlns="http://www.w3.org/2000/svg"
   xmlns:sodipodi="http://sodipodi.sourceforge.net/DTD/sodipodi-0.dtd"
   xmlns:inkscape="http://www.inkscape.org/namespaces/inkscape"
   width="32"
   height="32"
   version="1.1"
   id="svg12"
   sodipodi:docname="plasmavault_error.svg"
   inkscape:version="1.0.2 (e86c870879, 2021-01-15)">
  <metadata
     id="metadata18">
    <rdf:RDF>
      <cc:Work
         rdf:about="">
        <dc:format>image/svg+xml</dc:format>
        <dc:type
           rdf:resource="http://purl.org/dc/dcmitype/StillImage" />
        <dc:title></dc:title>
      </cc:Work>
    </rdf:RDF>
  </metadata>
  <defs
     id="defs16">
    <linearGradient
       id="oomox"
       x1="895.72339"
       x2="895.72339"
       y1="-131.54958"
       y2="-118.90034"
       gradientTransform="matrix(1.2648997,0,0,0.79057653,-1125.0002,116.5)"
       gradientUnits="userSpaceOnUse">
      <stop
         offset="0%"
         style="stop-color:#303b3d; stop-opacity:1"
         id="stop18" />
      <stop
         offset="100%"
         style="stop-color:#bc985d; stop-opacity:1"
         id="stop20" />
    </linearGradient>
  </defs>
  <sodipodi:namedview
     pagecolor="#ffffff"
     bordercolor="#000000"
     borderopacity="1"
     objecttolerance="10"
     gridtolerance="10"
     guidetolerance="10"
     inkscape:pageopacity="0"
     inkscape:pageshadow="2"
     inkscape:window-width="1920"
     inkscape:window-height="1002"
     id="namedview14"
     showgrid="false"
     inkscape:zoom="9.8125"
     inkscape:cx="37.618217"
     inkscape:cy="17.968494"
     inkscape:window-x="0"
     inkscape:window-y="0"
     inkscape:window-maximized="1"
     inkscape:current-layer="svg12"
     inkscape:document-rotation="0"
     inkscape:lockguides="false"
     inkscape:showpageshadow="false">
    <inkscape:grid
       type="xygrid"
       id="grid868"
       originx="0"
       originy="0" />
  </sodipodi:namedview>
  <g
     id="plasmavault_error">
    <rect
       style="opacity:0.00100002"
       width="32"
       height="32"
       x="0"
       y="0"
       id="rect7" />
    <path
       style="color:#000000;font-style:normal;font-variant:normal;font-weight:normal;font-stretch:normal;font-size:medium;line-height:normal;font-family:Sans;-inkscape-font-specification:Sans;text-indent:0;text-align:start;text-decoration:none;text-decoration-line:none;letter-spacing:normal;word-spacing:normal;text-transform:none;writing-mode:lr-tb;direction:ltr;baseline-shift:baseline;text-anchor:start;display:inline;overflow:visible;visibility:visible;fill:#bf616a;fill-opacity:1;fill-rule:nonzero;stroke:none;stroke-width:1.10299;marker:none;enable-background:accumulate"
       d="M 6.062371,6.2000779 C 4.950251,6.2000779 4,6.9974747 4,8.0559528 V 23.674302 c 0,0.659374 0.233219,1.083036 0.686009,1.467441 0.45279,0.384405 0.922706,0.575506 1.522321,0.575506 H 25.271292 C 25.728956,25.725349 25.71594,24.896663 25.2714,24.89 L 6.181959,24.879 c -0.54775,-3.16e-4 -0.890945,-0.314758 -0.890945,-0.314758 0,0 -0.441014,-0.282587 -0.441014,-0.889996 V 8.055897 C 4.85,8 5.018,7.1684447 6.012613,7.168 l 6.710162,-0.003 3.199778,2.752 c 0.09669,0.087242 0.22048,0.212212 0.349405,0.215 l 9.304184,-0.004 c 0.474407,-0.0028 0.459415,-0.85342 -0.015,-0.8610317 H 16.467958 L 13.076122,6.3306952 C 12.978232,6.2466122 12.854563,6.2003539 12.726715,6.1999998 Z m 10.82319,0.8103116 c -0.432935,-0.00112 -0.4338,0.9442563 0.01082,0.9506105 L 25.194697,7.95 C 26.035553,7.94889 26.352955,8.0820874 26.632929,8.3432744 26.912906,8.6044617 27.185,9.183212 27.185,9.842112 v 15.317503 c 0.0025,0.518349 0.813181,0.535412 0.815002,0.01785 L 27.998322,9.8420287 C 27.998236,8.9469122 27.705581,8.1974775 27.18019,7.7073425 26.654804,7.2172075 25.939508,7.0103002 25.19452,7.0103002 h -8.25801 c -0.01704,-8.364e-4 -0.03409,-8.364e-4 -0.05113,0 z"
       id="path2-3"
       sodipodi:nodetypes="sssssccscscsccccccccsccsssccsssccc" />
    <path
       style="color:#d5c289;fill:#bf616a;fill-opacity:1"
       class="ColorScheme-Text"
       d="m 10.4453,12.5 c -0.5204,0 -0.9408,0.0477 -1.3047,0.19141 -0.3638,0.14368 -0.6621,0.41047 -0.832,0.73437 C 7.9688,14.07358 8.0113,14.82836 8,15.85742 v 0.004 3.27734 0.004 c 0.012,1.029019 -0.031,1.783849 0.3086,2.431639 0.1698,0.323891 0.4682,0.590681 0.832,0.734371 0.3639,0.143699 0.7843,0.191409 1.3047,0.191409 h 3.1113 c 0.5204,0 0.9409,-0.0477 1.3047,-0.191409 0.3639,-0.143681 0.6602,-0.410471 0.8301,-0.734371 0.2954,-0.56311 0.2967,-1.24151 0.3008,-2.07617 l 1.9453,-0.004 0.5625,-0.49414 0.5,0.5 0.5,-0.5 0.5,0.5 0.5,-0.5 1,1 2.5,-2.5 -2,-2 -6.0078,0.002 c 0,-0.83464 -0.01,-1.51307 -0.3008,-2.07617 -0.1698,-0.3239 -0.4682,-0.59068 -0.832,-0.73437 C 14.4955,12.54771 14.077,12.5 13.5566,12.5 Z m 0,1 h 3.1113 c 0.4518,0 0.7562,0.0522 0.9356,0.12305 0.1794,0.0709 0.2441,0.13346 0.3144,0.26757 0.1407,0.26824 0.1819,0.94434 0.1934,1.97852 v 0.63281 l 6.5859,-0.002 1,1 -1.0859,1.08594 -1,-1 -0.5,0.5 -0.5,-0.5 -0.5,0.5 -0.4551,-0.45508 -0.9844,0.86328 L 15,18.49999 v 0.63086 c -0.011,1.034141 -0.053,1.71031 -0.1934,1.97852 -0.07,0.1341 -0.1349,0.1967 -0.3144,0.26757 -0.1795,0.0709 -0.4838,0.12305 -0.9356,0.12305 h -3.1113 c -0.4518,0 -0.7581,-0.0522 -0.9375,-0.12305 C 9.3284,21.30604 9.2656,21.24348 9.1953,21.10937 9.0551,20.84193 9.0117,20.16576 9,19.13671 v -0.006 -3.26172 -0.006 c 0.012,-1.02902 0.055,-1.70523 0.1953,-1.97266 0.07,-0.13409 0.1331,-0.1967 0.3125,-0.26757 0.1795,-0.0709 0.4857,-0.12305 0.9375,-0.12305 z M 11,16.5 a 1,1 0 0 0 -1,1 1,1 0 0 0 1,1 1,1 0 0 0 1,-1 1,1 0 0 0 -1,-1 z"
       id="path58" />
  </g>
  <g
     id="22-22-plasmavault_error"
     transform="translate(32,10)">
    <rect
       style="opacity:0.00100002"
       width="22"
       height="22"
       x="0"
       y="0"
       id="rect2" />
    <path
       style="color:#000000;font-style:normal;font-variant:normal;font-weight:normal;font-stretch:normal;font-size:medium;line-height:normal;font-family:Sans;-inkscape-font-specification:Sans;text-indent:0;text-align:start;text-decoration:none;text-decoration-line:none;letter-spacing:normal;word-spacing:normal;text-transform:none;writing-mode:lr-tb;direction:ltr;baseline-shift:baseline;text-anchor:start;display:inline;overflow:visible;visibility:visible;fill:#bf616a;fill-opacity:1;fill-rule:nonzero;stroke:none;stroke-width:0.735326;marker:none;enable-background:accumulate"
       d="m 4.3749141,4.500052 c -0.7414135,0 -1.374914,0.5315978 -1.374914,1.2372499 V 16.149534 c 0,0.439583 0.1554796,0.722024 0.4573394,0.978294 0.3018596,0.25627 0.6151369,0.383671 1.0148806,0.383671 H 17.180861 c 0.305109,0.0054 0.296432,-0.614057 7.2e-5,-0.618499 L 4.4546392,16.886 c -0.2664566,-1.47e-4 -0.5521543,-0.205323 -0.5521543,-0.205323 0,0 -0.2694849,-0.190166 -0.2694849,-0.531144 V 5.7372647 C 3.633,5.5680235 3.9058164,5.1451949 4.3417418,5.145 L 8.8151834,5.143 10.948369,7.045 c 0.06446,0.058161 0.146986,0.1411412 0.232936,0.143 l 6.202789,-0.003 c 0.316271,-0.00186 0.306277,-0.63528 -0.01,-0.6403545 H 11.311972 L 9.0507483,4.5871302 C 8.9854884,4.531075 8.9030423,4.500236 8.8178098,4.4999999 Z m 7.2154599,0.5402077 c -0.288624,-7.435e-4 -0.2892,0.6965041 0.0072,0.7007403 l 5.53221,-0.008 c 0.560571,-8.106e-4 0.748137,0.103318 0.934787,0.2774427 C 18.251222,6.1845676 18.39,6.488812 18.39,6.9280787 V 17.139743 c 0.0017,0.345566 0.608774,0.356941 0.609988,0.0119 L 18.998884,6.9280191 C 18.998827,6.3312748 18.803724,5.8316517 18.453463,5.504895 18.103206,5.1781384 17.626341,5.0402002 17.129683,5.0402002 h -5.50534 c -0.01136,-5.576e-4 -0.02273,-5.576e-4 -0.03409,0 z"
       id="path2-3-6"
       sodipodi:nodetypes="sssssccscsssccccccccsccsssccsssccc" />
    <path
       style="color:#d5c289;fill:#bf616a;stroke-width:0.599893;fill-opacity:1"
       class="ColorScheme-Text"
       d="M 7.6669296,9 C 7.3547435,9 7.1025434,9.028617 6.8842423,9.1148255 6.6659982,9.201018 6.4870496,9.3610636 6.3851273,9.5553686 6.1812833,9.943979 6.206779,10.396766 6.2,11.014093 v 0.0027 1.966053 0.0031 c 0.0072,0.617301 -0.018599,1.070119 0.1851273,1.458727 0.1018624,0.194293 0.2808709,0.354341 0.499115,0.44054 0.2183011,0.08615 0.4705012,0.114807 0.7826873,0.114807 h 1.8664581 c 0.3121875,0 0.5644453,-0.02856 0.7826883,-0.114822 0.2183,-0.08618 0.396049,-0.246243 0.497971,-0.440546 0.177209,-0.337807 0.177989,-0.74477 0.180449,-1.245478 l 1.166981,-0.0031 0.337443,-0.296431 0.299947,0.299946 0.299949,-0.299946 0.299949,0.299946 0.299949,-0.299946 0.599896,0.599891 1.499744,-1.499732 -1.199794,-1.19979 -3.604064,0.0012 c 0,-0.500695 -0.006,-0.9076802 -0.180449,-1.2454797 C 10.712185,9.3611467 10.533176,9.2011073 10.314936,9.1149088 10.096633,9.0286203 9.8455752,9 9.5333877,9 Z m 0,0.5998926 h 1.8664581 c 0.2710348,0 0.453643,0.031317 0.5612653,0.073819 0.107623,0.042531 0.146437,0.080059 0.188608,0.1605136 0.0844,0.1609148 0.109121,0.5665028 0.11602,1.1868968 v 0.379621 l 3.950863,-0.0016 0.599897,0.599889 -0.651431,0.651444 -0.599896,-0.599888 -0.299949,0.299946 -0.299949,-0.299946 -0.299949,0.299946 -0.27301,-0.272998 -0.59054,0.517874 -1.536036,0.003 v 0.378512 c -0.0068,0.620375 -0.0318,1.026005 -0.11602,1.186898 -0.042,0.08047 -0.08092,0.118004 -0.188608,0.160516 -0.1076823,0.0425 -0.2902305,0.07384 -0.5612653,0.07384 H 7.6669296 c -0.271033,0 -0.4547847,-0.03138 -0.5624066,-0.07384 -0.1076207,-0.0418 -0.1452939,-0.07936 -0.1874663,-0.1598 C 6.8329507,14.0041 6.8069156,13.598471 6.7998972,12.98115 v -0.003 -1.956682 -0.0033 c 0.0072,-0.617558 0.032994,-1.023212 0.1171595,-1.1836407 0.041994,-0.080439 0.079845,-0.1179991 0.1874663,-0.1605132 0.1076819,-0.042532 0.2913736,-0.073818 0.5624066,-0.073818 z m 0.3327645,1.7996764 a 0.59989709,0.59989269 0 0 0 -0.599898,0.599895 0.59989709,0.59989269 0 0 0 0.599898,0.599893 0.59989709,0.59989269 0 0 0 0.5998928,-0.599893 0.59989709,0.59989269 0 0 0 -0.5998928,-0.599895 z"
       id="path58-7" />
  </g>
</svg>
