<?xml version="1.0" encoding="UTF-8" standalone="no"?>
<svg
   xmlns:dc="http://purl.org/dc/elements/1.1/"
   xmlns:cc="http://creativecommons.org/ns#"
   xmlns:rdf="http://www.w3.org/1999/02/22-rdf-syntax-ns#"
   xmlns:svg="http://www.w3.org/2000/svg"
   xmlns="http://www.w3.org/2000/svg"
   xmlns:sodipodi="http://sodipodi.sourceforge.net/DTD/sodipodi-0.dtd"
   xmlns:inkscape="http://www.inkscape.org/namespaces/inkscape"
   width="32"
   height="32"
   version="1.1"
   id="svg12"
   sodipodi:docname="plasmavault.svg"
   inkscape:version="1.0.2 (e86c870879, 2021-01-15)">
  <metadata
     id="metadata18">
    <rdf:RDF>
      <cc:Work
         rdf:about="">
        <dc:format>image/svg+xml</dc:format>
        <dc:type
           rdf:resource="http://purl.org/dc/dcmitype/StillImage" />
        <dc:title></dc:title>
      </cc:Work>
    </rdf:RDF>
  </metadata>
  <defs
     id="defs16">
    <linearGradient
       id="oomox"
       x1="895.72339"
       x2="895.72339"
       y1="-131.54958"
       y2="-118.90034"
       gradientTransform="matrix(1.2648997,0,0,0.79057653,-1125.0002,116.5)"
       gradientUnits="userSpaceOnUse">
      <stop
         offset="0%"
         style="stop-color:#303b3d; stop-opacity:1"
         id="stop18" />
      <stop
         offset="100%"
         style="stop-color:#bc985d; stop-opacity:1"
         id="stop20" />
    </linearGradient>
  </defs>
  <sodipodi:namedview
     pagecolor="#ffffff"
     bordercolor="#000000"
     borderopacity="1"
     objecttolerance="10"
     gridtolerance="10"
     guidetolerance="10"
     inkscape:pageopacity="0"
     inkscape:pageshadow="2"
     inkscape:window-width="1920"
     inkscape:window-height="1002"
     id="namedview14"
     showgrid="false"
     inkscape:zoom="9.8125"
     inkscape:cx="37.618217"
     inkscape:cy="17.968494"
     inkscape:window-x="0"
     inkscape:window-y="0"
     inkscape:window-maximized="1"
     inkscape:current-layer="svg12"
     inkscape:document-rotation="0"
     inkscape:lockguides="false"
     inkscape:showpageshadow="false">
    <inkscape:grid
       type="xygrid"
       id="grid868"
       originx="0"
       originy="0" />
  </sodipodi:namedview>
  <g
     id="plasmavault">
    <rect
       style="opacity:0.00100002"
       width="32"
       height="32"
       x="0"
       y="0"
       id="rect7" />
    <path
       style="color:#000000;font-style:normal;font-variant:normal;font-weight:normal;font-stretch:normal;font-size:medium;line-height:normal;font-family:Sans;-inkscape-font-specification:Sans;text-indent:0;text-align:start;text-decoration:none;text-decoration-line:none;letter-spacing:normal;word-spacing:normal;text-transform:none;writing-mode:lr-tb;direction:ltr;baseline-shift:baseline;text-anchor:start;display:inline;overflow:visible;visibility:visible;fill:#eff0f1;fill-opacity:1;fill-rule:nonzero;stroke:none;stroke-width:1.10299;marker:none;enable-background:accumulate"
       d="M 6.062371,6.2000779 C 4.950251,6.2000779 4,6.9974747 4,8.0559528 V 23.674302 c 0,0.659374 0.233219,1.083036 0.686009,1.467441 0.45279,0.384405 0.922706,0.575506 1.522321,0.575506 H 25.271292 C 25.728956,25.725349 25.71594,24.896663 25.2714,24.89 L 6.181959,24.879 c -0.54775,-3.16e-4 -0.890945,-0.314758 -0.890945,-0.314758 0,0 -0.441014,-0.282587 -0.441014,-0.889996 V 8.055897 C 4.85,8 5.018,7.1684447 6.012613,7.168 l 6.710162,-0.003 3.199778,2.752 c 0.09669,0.087242 0.22048,0.212212 0.349405,0.215 l 9.304184,-0.004 c 0.474407,-0.0028 0.459415,-0.85342 -0.015,-0.8610317 H 16.467958 L 13.076122,6.3306952 C 12.978232,6.2466122 12.854563,6.2003539 12.726715,6.1999998 Z m 10.82319,0.8103116 c -0.432935,-0.00112 -0.4338,0.9442563 0.01082,0.9506105 L 25.194697,7.95 C 26.035553,7.94889 26.352955,8.0820874 26.632929,8.3432744 26.912906,8.6044617 27.185,9.183212 27.185,9.842112 v 15.317503 c 0.0025,0.518349 0.813181,0.535412 0.815002,0.01785 L 27.998322,9.8420287 C 27.998236,8.9469122 27.705581,8.1974775 27.18019,7.7073425 26.654804,7.2172075 25.939508,7.0103002 25.19452,7.0103002 h -8.25801 c -0.01704,-8.364e-4 -0.03409,-8.364e-4 -0.05113,0 z"
       id="path2-3"
       sodipodi:nodetypes="sssssccscscsccccccccsccsssccsssccc" />
    <path
       style="color:#d5c289;fill:#eff0f1;fill-opacity:1"
       class="ColorScheme-Text"
       d="m 10.4453,12.5 c -0.5204,0 -0.9408,0.0477 -1.3047,0.19141 -0.3638,0.14368 -0.6621,0.41047 -0.832,0.73437 C 7.9688,14.07358 8.0113,14.82836 8,15.85742 v 0.004 3.27734 0.004 c 0.012,1.029019 -0.031,1.783849 0.3086,2.431639 0.1698,0.323891 0.4682,0.590681 0.832,0.734371 0.3639,0.143699 0.7843,0.191409 1.3047,0.191409 h 3.1113 c 0.5204,0 0.9409,-0.0477 1.3047,-0.191409 0.3639,-0.143681 0.6602,-0.410471 0.8301,-0.734371 0.2954,-0.56311 0.2967,-1.24151 0.3008,-2.07617 l 1.9453,-0.004 0.5625,-0.49414 0.5,0.5 0.5,-0.5 0.5,0.5 0.5,-0.5 1,1 2.5,-2.5 -2,-2 -6.0078,0.002 c 0,-0.83464 -0.01,-1.51307 -0.3008,-2.07617 -0.1698,-0.3239 -0.4682,-0.59068 -0.832,-0.73437 C 14.4955,12.54771 14.077,12.5 13.5566,12.5 Z m 0,1 h 3.1113 c 0.4518,0 0.7562,0.0522 0.9356,0.12305 0.1794,0.0709 0.2441,0.13346 0.3144,0.26757 0.1407,0.26824 0.1819,0.94434 0.1934,1.97852 v 0.63281 l 6.5859,-0.002 1,1 -1.0859,1.08594 -1,-1 -0.5,0.5 -0.5,-0.5 -0.5,0.5 -0.4551,-0.45508 -0.9844,0.86328 L 15,18.49999 v 0.63086 c -0.011,1.034141 -0.053,1.71031 -0.1934,1.97852 -0.07,0.1341 -0.1349,0.1967 -0.3144,0.26757 -0.1795,0.0709 -0.4838,0.12305 -0.9356,0.12305 h -3.1113 c -0.4518,0 -0.7581,-0.0522 -0.9375,-0.12305 C 9.3284,21.30604 9.2656,21.24348 9.1953,21.10937 9.0551,20.84193 9.0117,20.16576 9,19.13671 v -0.006 -3.26172 -0.006 c 0.012,-1.02902 0.055,-1.70523 0.1953,-1.97266 0.07,-0.13409 0.1331,-0.1967 0.3125,-0.26757 0.1795,-0.0709 0.4857,-0.12305 0.9375,-0.12305 z M 11,16.5 a 1,1 0 0 0 -1,1 1,1 0 0 0 1,1 1,1 0 0 0 1,-1 1,1 0 0 0 -1,-1 z"
       id="path58" />
  </g>
  <g
     id="22-22-plasmavault">
    <rect
       style="opacity:0.00100002"
       width="22"
       height="22"
       x="32"
       y="10"
       id="rect2" />
    <path
       style="color:#000000;font-style:normal;font-variant:normal;font-weight:normal;font-stretch:normal;font-size:medium;line-height:normal;font-family:Sans;-inkscape-font-specification:Sans;text-indent:0;text-align:start;text-decoration:none;text-decoration-line:none;letter-spacing:normal;word-spacing:normal;text-transform:none;writing-mode:lr-tb;direction:ltr;baseline-shift:baseline;text-anchor:start;display:inline;overflow:visible;visibility:visible;fill:#eff0f1;fill-opacity:1;fill-rule:nonzero;stroke:none;stroke-width:0.735326;marker:none;enable-background:accumulate"
       d="M 36.374914,14.500052 C 35.633501,14.500052 35,15.03165 35,15.737302 v 10.412232 c 0,0.439583 0.15548,0.722024 0.45734,0.978294 0.301859,0.25627 0.615136,0.383671 1.01488,0.383671 h 12.708641 c 0.305109,0.0054 0.296432,-0.614057 7.2e-5,-0.618499 L 36.454639,26.886 c -0.266456,-1.47e-4 -0.552154,-0.205323 -0.552154,-0.205323 0,0 -0.269485,-0.190166 -0.269485,-0.531144 V 15.737265 c 0,-0.169242 0.272816,-0.59207 0.708742,-0.592265 l 4.473441,-0.002 2.133186,1.902 c 0.06446,0.05816 0.146986,0.141141 0.232936,0.143 l 6.202789,-0.003 c 0.316271,-0.0019 0.306277,-0.63528 -0.01,-0.640354 H 43.311972 L 41.050748,14.58713 C 40.985488,14.531075 40.903042,14.500236 40.81781,14.5 Z m 7.21546,0.540208 c -0.288624,-7.44e-4 -0.2892,0.696504 0.0072,0.70074 l 5.53221,-0.008 c 0.560571,-8.11e-4 0.748137,0.103318 0.934787,0.277443 0.186651,0.174125 0.325429,0.478369 0.325429,0.917636 v 10.211664 c 0.0017,0.345566 0.608774,0.356941 0.609988,0.0119 l -0.0011,-10.223624 c -5.7e-5,-0.596744 -0.19516,-1.096367 -0.545421,-1.423124 C 50.103206,15.178138 49.626341,15.0402 49.129683,15.0402 h -5.50534 c -0.01136,-5.57e-4 -0.02273,-5.57e-4 -0.03409,0 z"
       id="path2-3-6"
       sodipodi:nodetypes="sssssccscsssccccccccsccsssccsssccc" />
    <path
       style="color:#d5c289;fill:#eff0f1;stroke-width:0.599893;fill-opacity:1"
       class="ColorScheme-Text"
       d="m 39.66693,19 c -0.312187,0 -0.564387,0.02862 -0.782688,0.114826 -0.218244,0.08619 -0.397192,0.246238 -0.499115,0.440543 -0.203844,0.38861 -0.178348,0.841397 -0.185127,1.458724 v 0.0027 1.966053 0.0031 c 0.0072,0.617301 -0.0186,1.070119 0.185127,1.458727 0.101863,0.194293 0.280871,0.354341 0.499115,0.44054 0.218301,0.08615 0.470501,0.114807 0.782688,0.114807 h 1.866458 c 0.312187,0 0.564445,-0.02856 0.782688,-0.114822 0.2183,-0.08618 0.396049,-0.246243 0.497971,-0.440546 0.177209,-0.337807 0.177989,-0.74477 0.180449,-1.245478 l 1.166981,-0.0031 0.337443,-0.296431 0.299947,0.299946 0.299949,-0.299946 0.299949,0.299946 0.299949,-0.299946 0.599896,0.599891 1.499744,-1.499732 -1.199794,-1.19979 -3.604064,0.0012 c 0,-0.500695 -0.006,-0.90768 -0.180449,-1.24548 C 42.712185,19.361147 42.533176,19.201107 42.314936,19.114909 42.096633,19.02862 41.845575,19 41.533388,19 Z m 0,0.599893 h 1.866458 c 0.271034,0 0.453643,0.03132 0.561265,0.07382 0.107623,0.04253 0.146437,0.08006 0.188608,0.160513 0.0844,0.160915 0.109121,0.566503 0.11602,1.186897 v 0.379621 l 3.950863,-0.0016 0.599897,0.599889 -0.651431,0.651444 -0.599896,-0.599888 -0.299949,0.299946 -0.299949,-0.299946 -0.299949,0.299946 -0.27301,-0.272998 -0.59054,0.517874 -1.536036,0.003 v 0.378512 c -0.0068,0.620375 -0.0318,1.026005 -0.11602,1.186898 -0.042,0.08047 -0.08092,0.118004 -0.188608,0.160516 -0.107682,0.0425 -0.290231,0.07384 -0.561265,0.07384 H 39.66693 c -0.271033,0 -0.454785,-0.03138 -0.562407,-0.07384 -0.107621,-0.0418 -0.145294,-0.07936 -0.187466,-0.1598 -0.08411,-0.160436 -0.110141,-0.566065 -0.11716,-1.183386 v -0.003 -1.956682 -0.0033 c 0.0072,-0.617558 0.03299,-1.023212 0.11716,-1.183641 0.04199,-0.08044 0.07984,-0.117999 0.187466,-0.160513 0.107682,-0.04253 0.291374,-0.07382 0.562407,-0.07382 z m 0.332764,1.799676 a 0.59989709,0.59989269 0 0 0 -0.599898,0.599895 0.59989709,0.59989269 0 0 0 0.599898,0.599893 0.59989709,0.59989269 0 0 0 0.599893,-0.599893 0.59989709,0.59989269 0 0 0 -0.599893,-0.599895 z"
       id="path58-7" />
  </g>
</svg>
