<?xml version="1.0" encoding="UTF-8" standalone="no"?>
<svg
   id="svg12"
   width="32"
   height="32"
   version="1.1"
   sodipodi:docname="start.svg"
   inkscape:version="1.1.1 (3bf5ae0d25, 2021-09-20)"
   xmlns:inkscape="http://www.inkscape.org/namespaces/inkscape"
   xmlns:sodipodi="http://sodipodi.sourceforge.net/DTD/sodipodi-0.dtd"
   xmlns:xlink="http://www.w3.org/1999/xlink"
   xmlns="http://www.w3.org/2000/svg"
   xmlns:svg="http://www.w3.org/2000/svg"
   xmlns:rdf="http://www.w3.org/1999/02/22-rdf-syntax-ns#"
   xmlns:cc="http://creativecommons.org/ns#"
   xmlns:dc="http://purl.org/dc/elements/1.1/">
  <g
     id="start-here-kde">
    <rect
       id="rect7"
       style="opacity:0.00100002"
       width="32"
       height="32"
       x="0"
       y="0" />
    <path
       id="rect4328"
       d="M 5.794649,1 H 26.20535 c 2.656235,0 4.794649,2.1677066 4.794649,4.8603289 V 26.139671 C 30.999999,28.832295 28.861585,31 26.20535,31 H 5.794649 C 3.138413,31 1,28.832295 1,26.139671 V 5.8603289 C 1,3.1677066 3.138413,1 5.794649,1 Z"
       style="opacity:0.5;fill:url(#linearGradient3060);fill-opacity:1;fill-rule:nonzero;stroke:none;stroke-width:0;stroke-linecap:round;stroke-linejoin:round;stroke-miterlimit:4;stroke-dasharray:none;stroke-opacity:1"
       inkscape:connector-curvature="0" />
    <path
       id="path3360"
       d="m 12.501568,7.249999 c -0.541143,-0.0026 -1.090029,0.109628 -1.618067,0.347664 -3.18e-4,1.3e-4 -7.29e-4,2.59e-4 -0.0011,4.54e-4 -0.04315,0.01947 -0.08616,0.03983 -0.129013,0.06099 -0.907016,0.43999 -1.683669,1.222148 -2.142939,2.291788 l -3.44425,8.021625 c -1.014255,2.362229 -0.111056,5.189784 2.017268,6.315511 1.889019,0.999149 4.107418,0.320864 5.291765,-1.495709 1.184347,1.816573 3.402747,2.494858 5.291763,1.495709 0.706247,-0.373552 1.276572,-0.935171 1.687719,-1.604325 1.165415,1.8985 3.435322,2.623295 5.361817,1.604325 2.128324,-1.125727 3.031525,-3.953282 2.01727,-6.315511 L 23.389509,9.950885 c -0.729,-1.697848 -2.250187,-2.693289 -3.838405,-2.700886 -0.621478,-0.003 -1.253167,0.145312 -1.851757,0.461924 -0.706403,0.373633 -1.27682,0.935421 -1.687985,1.604772 C 15.208047,8.008007 13.88027,7.256594 12.501568,7.249999 Z m -0.0078,2.41302 c 0.779561,0.0038 1.526148,0.492295 1.883975,1.325665 l 3.451506,8.039733 c 0.485587,1.155805 0.04193,2.532082 -0.997335,3.081784 -1.044668,0.552541 -2.295102,0.06054 -2.792944,-1.098931 L 10.5947,12.989641 C 10.09686,11.830171 10.54016,10.442313 11.584819,9.88975 11.878631,9.734349 12.18874,9.661561 12.493786,9.663019 Z m 7.049534,0 c 0.779562,0.0038 1.526152,0.492295 1.883978,1.325665 l 3.444285,8.021631 c 0.497829,1.159476 0.05454,2.54733 -0.990116,3.099886 -1.044667,0.552541 -2.295099,0.06054 -2.792941,-1.098931 l -3.450972,-8.03825 c -0.486565,-1.156094 -0.04287,-2.533333 0.99682,-3.08327 0.293813,-0.155401 0.603922,-0.228189 0.908965,-0.226731 z M 8.950168,14.767278 11.271314,20.1732 10.911418,21.01127 C 10.41357,22.170737 9.163136,22.662742 8.118471,22.110201 7.073792,21.557645 6.630504,20.169791 7.128334,19.010315 Z m 8.816798,9.520753 z m -5.291763,-1.495709 v 0 0 l 0.0024,-0.01025 -0.0024,0.01025 v 0 0 0 l 0.0024,-0.01025 -0.0024,0.01025 v 0 0 0 0 0 0 0 0 0 0 0 c -0.01456,0.0033 0.0084,-0.01521 0.0024,-0.01025 z m 6.979482,-0.108612 z m 5.361819,1.604325 z m 0,0 z"
       style="fill:#d5e5ff;fill-opacity:1;fill-rule:nonzero;stroke:none;stroke-width:0;stroke-linecap:round;stroke-linejoin:round;stroke-miterlimit:4;stroke-dasharray:none;stroke-opacity:1"
       inkscape:connector-curvature="0"
       sodipodi:nodetypes="scccccccscsccsscssccccccsscccccssccccccccccccccccccccccccccccccccccccccccccccccccscccccccccccccccccccccccccccccccccccccccccc" />
  </g>
  <metadata
     id="metadata19">
    <rdf:RDF>
      <cc:Work
         rdf:about="">
        <dc:format>image/svg+xml</dc:format>
        <dc:type
           rdf:resource="http://purl.org/dc/dcmitype/StillImage" />
      </cc:Work>
    </rdf:RDF>
  </metadata>
  <defs
     id="g17">
    <linearGradient
       inkscape:collect="always"
       id="linearGradient3058">
      <stop
         style="stop-color:#83a0c9;stop-opacity:1"
         offset="0"
         id="stop3054" />
      <stop
         style="stop-color:#466ba0;stop-opacity:1"
         offset="1"
         id="stop3056" />
    </linearGradient>
    <linearGradient
       id="linearGradient865"
       x1="0"
       x2="0"
       y1="0"
       y2="1">
      <stop
         offset="0%"
         style="stop-color:#096b83;stop-opacity:1"
         id="stop861" />
      <stop
         offset="100%"
         style="stop-color:#11c3ee;stop-opacity:1"
         id="stop863" />
    </linearGradient>
    <clipPath
       id="_clipPath_gNaW6PK2HuleaAjec1GHnM0Z84ZMay60">
      <rect
         width="16"
         height="16"
         id="rect56"
         x="0"
         y="0" />
    </clipPath>
    <linearGradient
       id="oomox"
       x1="0"
       x2="0"
       y1="0"
       y2="1">
      <stop
         offset="0%"
         style="stop-color:#303b3d; stop-opacity:1"
         id="stop18" />
      <stop
         offset="100%"
         style="stop-color:#bc985d; stop-opacity:1"
         id="stop20" />
    </linearGradient>
    <linearGradient
       id="oomox-3"
       x1="15.097227"
       x2="0"
       y1="0.76177037"
       y2="16.018156"
       gradientTransform="matrix(1.874518,0,0,1.7041711,1.699976,1.701813)"
       gradientUnits="userSpaceOnUse"
       spreadMethod="pad">
      <stop
         offset="0%"
         style="stop-color:#303b3d; stop-opacity:1"
         id="stop18-6" />
      <stop
         offset="100%"
         style="stop-color:#bc985d; stop-opacity:1"
         id="stop20-7" />
    </linearGradient>
    <linearGradient
       inkscape:collect="always"
       xlink:href="#linearGradient3058"
       id="linearGradient3060"
       x1="220.08484"
       y1="782.08289"
       x2="220.08484"
       y2="319.15131"
       gradientUnits="userSpaceOnUse"
       gradientTransform="matrix(0.06392865,0,0,0.06480439,0.930273,-19.682406)" />
    <linearGradient
       inkscape:collect="always"
       xlink:href="#linearGradient3058"
       id="linearGradient1859"
       gradientUnits="userSpaceOnUse"
       gradientTransform="matrix(0.0426191,0,0,0.04320293,0.953515,-12.788271)"
       x1="220.08484"
       y1="782.08289"
       x2="220.08484"
       y2="319.15131" />
  </defs>
  <sodipodi:namedview
     pagecolor="#ffffff"
     bordercolor="#000000"
     borderopacity="1"
     objecttolerance="10"
     gridtolerance="10"
     guidetolerance="10"
     inkscape:pageopacity="0"
     inkscape:pageshadow="2"
     inkscape:window-width="1920"
     inkscape:window-height="1011"
     id="namedview15"
     showgrid="false"
     inkscape:zoom="7.1363635"
     inkscape:cx="10.929937"
     inkscape:cy="20.388535"
     inkscape:window-x="0"
     inkscape:window-y="0"
     inkscape:window-maximized="1"
     inkscape:current-layer="svg12"
     inkscape:document-rotation="0"
     inkscape:lockguides="false"
     inkscape:pagecheckerboard="0"
     inkscape:showpageshadow="false">
    <inkscape:grid
       type="xygrid"
       id="grid1122"
       originx="0"
       originy="0" />
  </sodipodi:namedview>
  <g
     id="g16"
     transform="matrix(0.046875,0,0,0.046875,-59.692605,-9.860676)">
    <g
       id="g857" />
  </g>
  <g
     id="22-22-start-here-kde"
     transform="translate(-22,10)">
    <rect
       id="rect2"
       style="opacity:0.00100002"
       width="22"
       height="22"
       x="0"
       y="0" />
    <path
       id="rect4328-6"
       d="m 4.196433,1 h 13.607134 c 1.770823,0 3.196432,1.445138 3.196432,3.240219 V 17.759781 C 20.999999,19.554863 19.57439,21 17.803567,21 H 4.196433 C 2.425609,21 1,19.554863 1,17.759781 V 4.240219 C 1,2.445138 2.425609,1 4.196433,1 Z"
       style="opacity:0.5;fill:url(#linearGradient1859);fill-opacity:1;fill-rule:nonzero;stroke:none;stroke-width:0;stroke-linecap:round;stroke-linejoin:round;stroke-miterlimit:4;stroke-dasharray:none;stroke-opacity:1"
       inkscape:connector-curvature="0" />
    <path
       id="path3360-2"
       d="m 8.667712,5.166666 c -0.360762,-0.0017 -0.726686,0.07308 -1.078711,0.231776 -2.12e-4,8.7e-5 -4.86e-4,1.73e-4 -7.34e-4,3.03e-4 -0.02877,0.01298 -0.05744,0.02655 -0.08601,0.04066 C 6.897579,5.732731 6.379811,6.25417 6.073631,6.967263 l -2.296167,5.34775 c -0.67617,1.57482 -0.07404,3.459856 1.344845,4.210341 1.259346,0.666099 2.738279,0.213909 3.527844,-0.997139 0.789564,1.211048 2.268498,1.663238 3.527842,0.997139 0.470831,-0.249035 0.851048,-0.623447 1.125146,-1.06955 0.776943,1.265667 2.290214,1.748863 3.574544,1.06955 1.418883,-0.750485 2.021017,-2.635521 1.344847,-4.210341 L 15.926337,6.967257 c -0.486,-1.131899 -1.500124,-1.795526 -2.558936,-1.800591 -0.414319,-0.002 -0.835445,0.09688 -1.234505,0.307949 C 11.661961,5.723704 11.281683,6.098229 11.007573,6.544463 10.472029,5.672005 9.586845,5.171063 8.66771,5.166666 Z m -0.0052,1.60868 c 0.519707,0.0025 1.017432,0.328197 1.255983,0.883777 l 2.301004,5.359822 c 0.323725,0.770536 0.02795,1.688054 -0.66489,2.054522 -0.696445,0.368361 -1.530068,0.04036 -1.861962,-0.73262 L 7.396467,8.993094 C 7.064573,8.220114 7.360107,7.294875 8.056546,6.9265 8.252421,6.822899 8.45916,6.774374 8.662524,6.775346 Z m 4.699689,0 c 0.519708,0.0025 1.017435,0.328197 1.255986,0.883777 l 2.29619,5.347754 c 0.331886,0.772984 0.03636,1.69822 -0.660078,2.06659 -0.696444,0.368361 -1.530066,0.04036 -1.86196,-0.73262 L 12.091691,8.982013 C 11.767314,8.211284 12.063111,7.293125 12.756237,6.9265 12.952113,6.822899 13.158852,6.774374 13.362214,6.775346 Z m -7.062089,3.402839 1.547431,3.603948 -0.239931,0.558714 c -0.331899,0.772978 -1.165521,1.100981 -1.861965,0.73262 -0.696452,-0.36837 -0.991978,-1.293606 -0.660091,-2.06659 z m 5.877865,6.347169 z M 8.650135,15.528215 v 0 0 l 0.0016,-0.0068 -0.0016,0.0068 v 0 0 0 l 0.0016,-0.0068 -0.0016,0.0068 v 0 0 0 0 0 0 0 0 0 0 0 c -0.0097,0.0022 0.0056,-0.01014 0.0016,-0.0068 z m 4.652988,-0.07241 z m 3.574546,1.06955 z m 0,0 z"
       style="fill:#d5e5ff;fill-opacity:1;fill-rule:nonzero;stroke:none;stroke-width:0;stroke-linecap:round;stroke-linejoin:round;stroke-miterlimit:4;stroke-dasharray:none;stroke-opacity:1"
       inkscape:connector-curvature="0"
       sodipodi:nodetypes="scccccccscsccsscssccccccsscccccssccccccccccccccccccccccccccccccccccccccccccccccccscccccccccccccccccccccccccccccccccccccccccc" />
  </g>
</svg>
