<?xml version="1.0" encoding="UTF-8" standalone="no"?>
<svg
   version="1.0"
   width="82"
   height="74"
   id="svg7229"
   sodipodi:docname="action-overlays.svg"
   inkscape:version="1.1.1 (3bf5ae0d25, 2021-09-20)"
   xmlns:inkscape="http://www.inkscape.org/namespaces/inkscape"
   xmlns:sodipodi="http://sodipodi.sourceforge.net/DTD/sodipodi-0.dtd"
   xmlns:xlink="http://www.w3.org/1999/xlink"
   xmlns="http://www.w3.org/2000/svg"
   xmlns:svg="http://www.w3.org/2000/svg"
   xmlns:rdf="http://www.w3.org/1999/02/22-rdf-syntax-ns#"
   xmlns:cc="http://creativecommons.org/ns#"
   xmlns:dc="http://purl.org/dc/elements/1.1/">
  <g
     id="add-pressed"
     transform="translate(60)">
    <rect
       width="22"
       height="22"
       rx="36.30043"
       ry="0"
       x="0"
       y="0"
       id="rect20208"
       style="opacity:0;fill:#b5b5b5;fill-opacity:1;stroke:none" />
    <rect
       width="15.05156"
       height="15.051559"
       rx="0.93017018"
       ry="1.0292102"
       x="3.4742203"
       y="3.4742196"
       id="rect20210"
       style="fill:none;stroke:#4f77b2;stroke-width:0.94844;stroke-miterlimit:4;stroke-dasharray:none;stroke-opacity:1" />
    <path
       id="path3879"
       d="m 9.78125,5.0059988 a 1.0001,1.0001 0 0 0 -0.78125,1 v 3 H 6 A 1.0001,1.0001 0 0 0 5,10.005999 v 2 a 1.0001,1.0001 0 0 0 1,1 h 3 v 3 a 1.0001,1.0001 0 0 0 1,1 h 2 a 1.0001,1.0001 0 0 0 1,-1 v -3 h 3 a 1.0001,1.0001 0 0 0 1,-1 v -2 A 1.0001,1.0001 0 0 0 16,9.0059988 h -3 v -3 a 1.0001,1.0001 0 0 0 -1,-1 h -2 a 1.0001,1.0001 0 0 0 -0.21875,0 z m 0.21875,1 h 2 v 4.0000002 h 4 v 2 h -4 v 4 h -2 v -4 H 6 v -2 h 4 z"
       style="color:#000000;font-style:normal;font-variant:normal;font-weight:normal;font-stretch:normal;font-size:medium;line-height:normal;font-family:Sans;-inkscape-font-specification:Sans;text-indent:0;text-align:start;text-decoration:none;text-decoration-line:none;letter-spacing:normal;word-spacing:normal;text-transform:none;writing-mode:lr-tb;direction:ltr;baseline-shift:baseline;text-anchor:start;display:inline;overflow:visible;visibility:visible;fill:#ffffff;fill-opacity:1;fill-rule:nonzero;stroke:none;stroke-width:2;marker:none;enable-background:accumulate"
       inkscape:connector-curvature="0" />
    <path
       style="fill:#00d4aa;fill-opacity:0.99998;stroke:none"
       d="M 10,6.0059988 V 10.005999 H 6 v 2 h 4 v 4 h 2 v -4 h 4 v -2 H 12 V 6.0059988 Z"
       id="path1267"
       inkscape:connector-curvature="0" />
  </g>
  <g
     id="add-hover"
     transform="translate(60)">
    <rect
       width="22"
       height="22"
       rx="36.30043"
       ry="0"
       x="-31"
       y="0"
       id="rect20196"
       style="opacity:0;fill:#b5b5b5;fill-opacity:1;stroke:none" />
    <rect
       width="15.051559"
       height="15.051559"
       rx="0.93017012"
       ry="1.0292102"
       x="-27.52578"
       y="3.4742193"
       id="rect20198"
       style="fill:none;stroke:#4f77b2;stroke-width:0.94844;stroke-miterlimit:4;stroke-dasharray:none;stroke-opacity:1" />
    <path
       inkscape:connector-curvature="0"
       style="color:#000000;font-style:normal;font-variant:normal;font-weight:normal;font-stretch:normal;font-size:medium;line-height:normal;font-family:Sans;-inkscape-font-specification:Sans;text-indent:0;text-align:start;text-decoration:none;text-decoration-line:none;letter-spacing:normal;word-spacing:normal;text-transform:none;writing-mode:lr-tb;direction:ltr;baseline-shift:baseline;text-anchor:start;display:inline;overflow:visible;visibility:visible;fill:#d1dbeb;fill-opacity:0.901961;fill-rule:nonzero;stroke:none;stroke-width:2;marker:none;enable-background:accumulate"
       d="m -21.21875,5.0059988 a 1.0001,1.0001 0 0 0 -0.78125,1 v 3 h -3 a 1.0001,1.0001 0 0 0 -1,1.0000002 v 2 a 1.0001,1.0001 0 0 0 1,1 h 3 v 3 a 1.0001,1.0001 0 0 0 1,1 h 2 a 1.0001,1.0001 0 0 0 1,-1 v -3 h 3 a 1.0001,1.0001 0 0 0 1,-1 v -2 a 1.0001,1.0001 0 0 0 -1,-1.0000002 h -3 v -3 a 1.0001,1.0001 0 0 0 -1,-1 h -2 a 1.0001,1.0001 0 0 0 -0.21875,0 z m 0.21875,1 h 2 v 4.0000002 h 4 v 2 h -4 v 4 h -2 v -4 h -4 v -2 h 4 z"
       id="path9988" />
    <path
       inkscape:connector-curvature="0"
       id="path5674"
       d="m -21,6.0059988 v 4.0000002 h -4 v 2 h 4 v 4 h 2 v -4 h 4 v -2 h -4 V 6.0059988 Z"
       style="fill:#1f222d;fill-opacity:1;stroke:none" />
  </g>
  <sodipodi:namedview
     pagecolor="#ffffff"
     bordercolor="#000000"
     borderopacity="1"
     objecttolerance="10"
     gridtolerance="10"
     guidetolerance="10"
     inkscape:pageopacity="0"
     inkscape:pageshadow="2"
     inkscape:window-width="1920"
     inkscape:window-height="1007"
     id="namedview79"
     showgrid="false"
     inkscape:zoom="2.775394"
     inkscape:cx="55.487617"
     inkscape:cy="25.04149"
     inkscape:window-x="0"
     inkscape:window-y="0"
     inkscape:window-maximized="1"
     inkscape:current-layer="svg7229"
     inkscape:document-rotation="0"
     inkscape:lockguides="false"
     inkscape:showpageshadow="true"
     inkscape:pagecheckerboard="0">
    <inkscape:grid
       type="xygrid"
       id="grid1023"
       originx="-9.014635"
       originy="-3.0197298" />
  </sodipodi:namedview>
  <defs
     id="defs7231">
    <linearGradient
       id="linearGradient12803">
      <stop
         id="stop12805"
         style="stop-color:#b4b4b4;stop-opacity:1"
         offset="0" />
      <stop
         id="stop12807"
         style="stop-color:#d6d6d6;stop-opacity:1"
         offset="1" />
    </linearGradient>
    <linearGradient
       id="linearGradient20883">
      <stop
         id="stop20885"
         style="stop-color:#ffffff;stop-opacity:1"
         offset="0" />
      <stop
         id="stop20887"
         style="stop-color:#ffffff;stop-opacity:0"
         offset="1" />
    </linearGradient>
    <linearGradient
       id="linearGradient20871">
      <stop
         id="stop20873"
         style="stop-color:#899cb6;stop-opacity:1"
         offset="0" />
      <stop
         id="stop20875"
         style="stop-color:#4d5f7a;stop-opacity:1"
         offset="1" />
    </linearGradient>
    <linearGradient
       id="linearGradient20865">
      <stop
         id="stop20867"
         style="stop-color:#c6c6c6;stop-opacity:1"
         offset="0" />
      <stop
         id="stop20869"
         style="stop-color:#ebebeb;stop-opacity:1"
         offset="1" />
    </linearGradient>
    <linearGradient
       id="linearGradient3241-6">
      <stop
         id="stop3243-5"
         style="stop-color:#000000;stop-opacity:1"
         offset="0" />
      <stop
         id="stop3247-6"
         style="stop-color:#000000;stop-opacity:0.61864406"
         offset="0.765625" />
      <stop
         id="stop3263-3"
         style="stop-color:#000000;stop-opacity:0.27966103"
         offset="0.84985352" />
      <stop
         id="stop3265-9"
         style="stop-color:#000000;stop-opacity:0.08474576"
         offset="0.92258072" />
      <stop
         id="stop3245-4"
         style="stop-color:#000000;stop-opacity:0"
         offset="1" />
    </linearGradient>
    <radialGradient
       cx="67.159492"
       cy="70.287331"
       r="1.8405055"
       fx="67.159492"
       fy="70.287331"
       id="radialGradient13217"
       xlink:href="#linearGradient3241-6"
       gradientUnits="userSpaceOnUse"
       gradientTransform="matrix(5.5045167,0,0,5.580419,-390.70522,-381.60774)" />
    <linearGradient
       x1="229.11082"
       y1="386.07828"
       x2="229.11923"
       y2="400.80069"
       id="linearGradient13219"
       xlink:href="#linearGradient12803"
       gradientUnits="userSpaceOnUse"
       gradientTransform="matrix(1.222307,0,0,1.171324,-300.411,-451.36069)" />
    <linearGradient
       x1="67.386024"
       y1="68.20668"
       x2="67.448029"
       y2="72.231934"
       id="linearGradient13221"
       xlink:href="#linearGradient20865"
       gradientUnits="userSpaceOnUse"
       gradientTransform="matrix(4.6939378,0,0,3.7272005,-336.31265,-252.04847)" />
    <linearGradient
       x1="229.30588"
       y1="400.16855"
       x2="229.13878"
       y2="393.46921"
       id="linearGradient13223"
       xlink:href="#linearGradient20883"
       gradientUnits="userSpaceOnUse"
       gradientTransform="matrix(1.192731,0,0,1.1630936,-293.62331,-448.05869)" />
    <linearGradient
       x1="-18.37994"
       y1="39.548519"
       x2="-20.87994"
       y2="39.532383"
       id="linearGradient13225"
       xlink:href="#linearGradient20871"
       gradientUnits="userSpaceOnUse"
       gradientTransform="translate(-6.3955915,-22.844223)" />
  </defs>
  <metadata
     id="metadata7234">
    <rdf:RDF>
      <cc:Work
         rdf:about="">
        <dc:format>image/svg+xml</dc:format>
        <dc:type
           rdf:resource="http://purl.org/dc/dcmitype/StillImage" />
      </cc:Work>
    </rdf:RDF>
  </metadata>
  <g
     id="open-hover"
     transform="translate(0,52)">
    <rect
       width="22"
       height="22"
       rx="36.30043"
       ry="0"
       x="29.030224"
       y="-0.034567762"
       id="rect18715"
       style="opacity:0;fill:#b5b5b5;fill-opacity:1;stroke:none;stroke-width:1.37385" />
    <rect
       width="15.05156"
       height="15.051559"
       rx="0.93017018"
       ry="1.0292102"
       x="32.504444"
       y="3.4396513"
       id="rect18719"
       style="fill:none;stroke:#4f77b2;stroke-width:0.94844;stroke-miterlimit:4;stroke-dasharray:none;stroke-opacity:1" />
    <path
       style="color:#000000;font-style:normal;font-variant:normal;font-weight:normal;font-stretch:normal;font-size:medium;line-height:normal;font-family:Sans;-inkscape-font-specification:Sans;text-indent:0;text-align:start;text-decoration:none;text-decoration-line:none;letter-spacing:normal;word-spacing:normal;text-transform:none;writing-mode:lr-tb;direction:ltr;baseline-shift:baseline;text-anchor:start;display:inline;overflow:visible;visibility:visible;fill:#d1dbeb;fill-opacity:0.901961;fill-rule:nonzero;stroke:none;stroke-width:2.32726;marker:none;enable-background:accumulate"
       d="m 39.904861,4.4703355 a 1.1462696,1.1814901 0 0 0 -0.787977,0.4430147 l -4.835345,6.2760348 a 1.1462696,1.1814901 0 0 0 0.89543,1.919731 h 2.507221 v 3.174947 a 1.1462696,1.1814901 0 0 0 1.146151,1.181369 h 2.399767 a 1.1462696,1.1814901 0 0 0 1.146151,-1.181369 v -3.174947 h 2.507212 A 1.1462696,1.1814901 0 0 0 45.77891,11.189385 L 40.907742,4.9133502 A 1.1462696,1.1814901 0 0 0 39.904861,4.4703355 Z m 0.143276,1.1813724 4.871155,6.2391231 h -3.653371 v 4.393232 h -2.43558 v -4.393232 h -3.653372 z"
       id="path8765"
       inkscape:connector-curvature="0" />
    <path
       sodipodi:nodetypes="ccccccccc"
       inkscape:connector-curvature="0"
       d="m 38.816659,11.903571 h 2.427168 v 4.378036 h -2.427168 z m 1.213566,-6.2543204 -4.854308,6.2543404 h 9.708624 z"
       style="fill:#1f222d;fill-opacity:1;stroke:none;stroke-width:1.16364"
       id="path1221" />
  </g>
  <g
     id="open-normal"
     transform="translate(0,52)">
    <g
       id="g6352">
      <rect
         width="22"
         height="22"
         rx="36.30043"
         ry="0"
         x="0"
         y="0"
         id="rect20929"
         style="opacity:0;fill:#b5b5b5;fill-opacity:1;stroke:none;stroke-width:1.37385" />
      <rect
         width="15.051559"
         height="15.051559"
         rx="0.93017012"
         ry="1.0292102"
         x="3.47422"
         y="3.4742191"
         id="rect18564"
         style="fill:none;stroke:#4f77b2;stroke-width:0.94844;stroke-miterlimit:4;stroke-dasharray:none;stroke-opacity:1" />
      <path
         inkscape:connector-curvature="0"
         id="path9871"
         d="M 10.874639,4.5049035 A 1.1462688,1.1814909 0 0 0 10.086652,4.9479181 L 5.2513216,11.223952 a 1.1462688,1.1814909 0 0 0 0.8954306,1.919742 h 2.5072081 v 3.174938 A 1.1462688,1.1814909 0 0 0 9.8001147,17.5 h 2.3997603 a 1.1462688,1.1814909 0 0 0 1.146156,-1.181368 v -3.174938 h 2.507218 a 1.1462688,1.1814909 0 0 0 0.89543,-1.919742 L 11.877524,4.9479181 A 1.1462688,1.1814909 0 0 0 10.874639,4.5049035 Z m 0.14327,1.1813723 4.871154,6.2391232 h -3.653371 v 4.393233 H 9.8001147 V 11.925399 H 6.1467522 Z"
         style="color:#000000;font-style:normal;font-variant:normal;font-weight:normal;font-stretch:normal;font-size:medium;line-height:normal;font-family:Sans;-inkscape-font-specification:Sans;text-indent:0;text-align:start;text-decoration:none;text-decoration-line:none;letter-spacing:normal;word-spacing:normal;text-transform:none;writing-mode:lr-tb;direction:ltr;baseline-shift:baseline;text-anchor:start;display:inline;overflow:visible;visibility:visible;fill:#1f222d;fill-opacity:0.40000001;fill-rule:nonzero;stroke:none;stroke-width:2.32727;marker:none;enable-background:accumulate" />
      <path
         id="path3322"
         style="fill:#d1dbeb;fill-opacity:0.90196079;stroke:none;stroke-width:1.16363"
         d="m 9.7864344,11.938138 h 2.4271606 v 4.378033 H 9.7864344 Z M 11,5.6838184 6.1456977,11.938154 h 9.7086153 z"
         inkscape:connector-curvature="0"
         sodipodi:nodetypes="ccccccccc" />
    </g>
  </g>
  <g
     id="open-pressed"
     transform="translate(60,52)">
    <rect
       width="22"
       height="22"
       rx="36.30043"
       ry="0"
       x="0"
       y="0"
       id="rect18727"
       style="opacity:0;fill:#b5b5b5;fill-opacity:1;stroke:none;stroke-width:1.37385" />
    <rect
       width="15.05156"
       height="15.051559"
       rx="0.93017018"
       ry="1.0292102"
       x="3.4742203"
       y="3.4742179"
       id="rect18731"
       style="fill:none;stroke:#4f77b2;stroke-width:0.94844;stroke-miterlimit:4;stroke-dasharray:none;stroke-opacity:1" />
    <path
       inkscape:connector-curvature="0"
       id="path3245"
       d="M 10.874639,4.5049033 A 1.1462696,1.1814903 0 0 0 10.08666,4.947918 l -4.8353449,6.276035 a 1.1462696,1.1814903 0 0 0 0.895432,1.919731 h 2.507219 V 16.31863 A 1.1462696,1.1814903 0 0 0 9.8001211,17.5 h 2.3997669 a 1.1462696,1.1814903 0 0 0 1.146145,-1.18137 v -3.174946 h 2.507219 a 1.1462696,1.1814903 0 0 0 0.895433,-1.919731 L 11.877523,4.947918 A 1.1462696,1.1814903 0 0 0 10.874639,4.5049033 Z m 0.14327,1.1813723 4.871158,6.2391234 H 12.235702 V 16.31863 H 9.8001211 v -4.393231 h -3.653374 z"
       style="color:#000000;font-style:normal;font-variant:normal;font-weight:normal;font-stretch:normal;font-size:medium;line-height:normal;font-family:Sans;-inkscape-font-specification:Sans;text-indent:0;text-align:start;text-decoration:none;text-decoration-line:none;letter-spacing:normal;word-spacing:normal;text-transform:none;writing-mode:lr-tb;direction:ltr;baseline-shift:baseline;text-anchor:start;display:inline;overflow:visible;visibility:visible;fill:#ffffff;fill-opacity:1;fill-rule:nonzero;stroke:none;stroke-width:2.32726;marker:none;enable-background:accumulate" />
    <path
       id="path9073"
       style="fill:#0066ff;fill-opacity:0.99107599;stroke:none;stroke-width:1.16363"
       d="M 9.7864321,11.938139 H 12.213604 V 16.31617 H 9.7864321 Z M 11.00001,5.6838183 6.1456921,11.938154 h 9.7086239 z"
       inkscape:connector-curvature="0"
       sodipodi:nodetypes="ccccccccc" />
  </g>
  <g
     id="remove-normal"
     transform="translate(0,25.999998)">
    <rect
       width="22"
       height="22"
       rx="36.30043"
       ry="0"
       x="0"
       y="0"
       id="rect20095"
       style="opacity:0;fill:#b5b5b5;fill-opacity:1;stroke:none" />
    <rect
       width="15.051558"
       height="15.051558"
       rx="0.93017012"
       ry="1.0292102"
       x="3.4742205"
       y="3.4742193"
       id="rect20097"
       style="fill:none;stroke:#4f77b2;stroke-width:0.948441;stroke-miterlimit:4;stroke-dasharray:none;stroke-opacity:1" />
    <path
       inkscape:connector-curvature="0"
       id="rect3911"
       d="m 6.2815398,9.0059988 a 1.0001,1.0000999 0 0 0 -0.78125,1.0000002 v 2 a 1.0001,1.0000999 0 0 0 1,1 H 15.50029 a 1.0001,1.0000999 0 0 0 1,-1 v -2 a 1.0001,1.0000999 0 0 0 -1,-1.0000002 H 6.5002898 a 1.0001,1.0000999 0 0 0 -0.21875,0 z"
       style="color:#000000;font-style:normal;font-variant:normal;font-weight:normal;font-stretch:normal;font-size:medium;line-height:normal;font-family:Sans;-inkscape-font-specification:Sans;text-indent:0;text-align:start;text-decoration:none;text-decoration-line:none;letter-spacing:normal;word-spacing:normal;text-transform:none;writing-mode:lr-tb;direction:ltr;baseline-shift:baseline;text-anchor:start;display:inline;overflow:visible;visibility:visible;fill:#1f222d;fill-opacity:0.40000001;fill-rule:nonzero;stroke:none;stroke-width:2;marker:none;enable-background:accumulate" />
    <rect
       y="10"
       x="6.5"
       height="2"
       width="9"
       id="rect3907"
       style="fill:#d1dbeb;fill-opacity:0.90196079;stroke:none" />
  </g>
  <g
     id="remove-hover"
     transform="translate(29,25.999998)">
    <rect
       width="22"
       height="22"
       rx="36.30043"
       ry="0"
       x="-2.1777343e-07"
       y="-2.5805664e-07"
       id="rect20111"
       style="opacity:0;fill:#b5b5b5;fill-opacity:1;stroke:none" />
    <rect
       width="15.05156"
       height="15.051559"
       rx="0.93017018"
       ry="1.0292102"
       x="3.47422"
       y="3.47422"
       id="rect20113"
       style="fill:none;stroke:#4f77b2;stroke-width:0.94844;stroke-miterlimit:4;stroke-dasharray:none;stroke-opacity:1" />
    <path
       style="color:#000000;font-style:normal;font-variant:normal;font-weight:normal;font-stretch:normal;font-size:medium;line-height:normal;font-family:Sans;-inkscape-font-specification:Sans;text-indent:0;text-align:start;text-decoration:none;text-decoration-line:none;letter-spacing:normal;word-spacing:normal;text-transform:none;writing-mode:lr-tb;direction:ltr;baseline-shift:baseline;text-anchor:start;display:inline;overflow:visible;visibility:visible;fill:#d1dbeb;fill-opacity:0.901961;fill-rule:nonzero;stroke:none;stroke-width:2;marker:none;enable-background:accumulate"
       d="m 6.2815398,9.0059988 a 1.0001,1.0001 0 0 0 -0.78125,1.0000002 v 2 a 1.0001,1.0001 0 0 0 1,1 h 8.9999992 a 1.0001,1.0001 0 0 0 1,-1 v -2 a 1.0001,1.0001 0 0 0 -1,-1.0000002 H 6.5002898 a 1.0001,1.0001 0 0 0 -0.21875,0 z"
       id="path3931"
       inkscape:connector-curvature="0" />
    <rect
       style="fill:#1f222d;fill-opacity:1;stroke:none"
       id="rect3933"
       width="9"
       height="2"
       x="6.5001478"
       y="10" />
  </g>
  <g
     id="remove-pressed"
     transform="translate(60,25.999998)">
    <rect
       width="22"
       height="22"
       rx="36.30043"
       ry="0"
       x="-2.1777343e-07"
       y="-2.5805664e-07"
       id="rect20121"
       style="opacity:0;fill:#b5b5b5;fill-opacity:1;stroke:none" />
    <rect
       width="15.05156"
       height="15.051559"
       rx="0.93017018"
       ry="1.0292102"
       x="3.47422"
       y="3.47422"
       id="rect20123"
       style="fill:none;stroke:#4f77b2;stroke-width:0.94844;stroke-miterlimit:4;stroke-dasharray:none;stroke-opacity:1" />
    <path
       id="path3939"
       d="m 6.2815398,9.0059988 a 1.0001,1.0001 0 0 0 -0.78125,1.0000002 v 2 a 1.0001,1.0001 0 0 0 1,1 h 8.9999992 a 1.0001,1.0001 0 0 0 1,-1 v -2 a 1.0001,1.0001 0 0 0 -1,-1.0000002 H 6.5002898 a 1.0001,1.0001 0 0 0 -0.21875,0 z m 0.21875,1.0000002 h 8.9999992 v 2 H 6.5002898 Z"
       style="color:#000000;font-style:normal;font-variant:normal;font-weight:normal;font-stretch:normal;font-size:medium;line-height:normal;font-family:Sans;-inkscape-font-specification:Sans;text-indent:0;text-align:start;text-decoration:none;text-decoration-line:none;letter-spacing:normal;word-spacing:normal;text-transform:none;writing-mode:lr-tb;direction:ltr;baseline-shift:baseline;text-anchor:start;display:inline;overflow:visible;visibility:visible;fill:#ffffff;fill-opacity:1;fill-rule:nonzero;stroke:none;stroke-width:2;marker:none;enable-background:accumulate"
       inkscape:connector-curvature="0" />
    <rect
       style="fill:#ff0000;fill-opacity:0.996786;stroke:none"
       id="rect3948"
       width="9"
       height="2"
       x="6.5002885"
       y="10.005995" />
  </g>
  <g
     id="add-normal">
    <rect
       width="22"
       height="22"
       rx="36.30043"
       ry="0"
       x="0"
       y="0"
       id="rect20035"
       style="opacity:0;fill:#b5b5b5;fill-opacity:1;stroke:none" />
    <rect
       width="15.05156"
       height="15.051559"
       rx="0.93017018"
       ry="1.0292102"
       x="3.4742203"
       y="3.4742196"
       id="rect20039"
       style="fill:none;stroke:#4f77b2;stroke-width:0.94844;stroke-miterlimit:4;stroke-dasharray:none;stroke-opacity:1" />
    <path
       id="path9992"
       d="m 9.78125,5.0059988 a 1.0001,1.0001 0 0 0 -0.78125,1 v 3 H 6 A 1.0001,1.0001 0 0 0 5,10.005999 v 2 a 1.0001,1.0001 0 0 0 1,1 h 3 v 3 a 1.0001,1.0001 0 0 0 1,1 h 2 a 1.0001,1.0001 0 0 0 1,-1 v -3 h 3 a 1.0001,1.0001 0 0 0 1,-1 v -2 A 1.0001,1.0001 0 0 0 16,9.0059988 h -3 v -3 a 1.0001,1.0001 0 0 0 -1,-1 h -2 a 1.0001,1.0001 0 0 0 -0.21875,0 z m 0.21875,1 h 2 v 4.0000002 h 4 v 2 h -4 v 4 h -2 v -4 H 6 v -2 h 4 z"
       style="color:#000000;font-style:normal;font-variant:normal;font-weight:normal;font-stretch:normal;font-size:medium;line-height:normal;font-family:Sans;-inkscape-font-specification:Sans;text-indent:0;text-align:start;text-decoration:none;text-decoration-line:none;letter-spacing:normal;word-spacing:normal;text-transform:none;writing-mode:lr-tb;direction:ltr;baseline-shift:baseline;text-anchor:start;display:inline;overflow:visible;visibility:visible;fill:#1f222d;fill-opacity:0.40000001;fill-rule:nonzero;stroke:none;stroke-width:2;marker:none;enable-background:accumulate"
       inkscape:connector-curvature="0" />
    <path
       style="fill:#d1dbeb;fill-opacity:0.90196079;stroke:none"
       d="M 10,6.0059988 V 10.005999 H 6 v 2 h 4 v 4 h 2 v -4 h 4 v -2 H 12 V 6.0059988 Z"
       id="path9911"
       inkscape:connector-curvature="0" />
  </g>
</svg>
