<?xml version="1.0" encoding="UTF-8" standalone="no"?>
<svg
   width="86"
   height="86"
   version="1"
   id="svg46"
   sodipodi:docname="clock.svg"
   inkscape:version="1.1.1 (3bf5ae0d25, 2021-09-20)"
   xmlns:inkscape="http://www.inkscape.org/namespaces/inkscape"
   xmlns:sodipodi="http://sodipodi.sourceforge.net/DTD/sodipodi-0.dtd"
   xmlns="http://www.w3.org/2000/svg"
   xmlns:svg="http://www.w3.org/2000/svg"
   xmlns:rdf="http://www.w3.org/1999/02/22-rdf-syntax-ns#"
   xmlns:cc="http://creativecommons.org/ns#"
   xmlns:dc="http://purl.org/dc/elements/1.1/">
  <metadata
     id="metadata52">
    <rdf:RDF>
      <cc:Work
         rdf:about="">
        <dc:format>image/svg+xml</dc:format>
        <dc:type
           rdf:resource="http://purl.org/dc/dcmitype/StillImage" />
      </cc:Work>
    </rdf:RDF>
  </metadata>
  <defs
     id="defs50">
    <linearGradient
       id="linearGradient1199">
      <stop
         style="stop-color:#b4b4b4;stop-opacity:1;"
         offset="0"
         id="stop1195" />
      <stop
         style="stop-color:#ffffff;stop-opacity:1"
         offset="1"
         id="stop1197" />
    </linearGradient>
    <linearGradient
       id="linearGradient3815">
      <stop
         style="stop-color:#b4b4b4;stop-opacity:1;"
         offset="0"
         id="stop3817" />
      <stop
         style="stop-color:#fafafa;stop-opacity:1;"
         offset="1"
         id="stop3819" />
    </linearGradient>
  </defs>
  <sodipodi:namedview
     pagecolor="#ffffff"
     bordercolor="#000000"
     borderopacity="1"
     objecttolerance="10"
     gridtolerance="10"
     guidetolerance="10"
     inkscape:pageopacity="0"
     inkscape:pageshadow="2"
     inkscape:window-width="1920"
     inkscape:window-height="1007"
     id="namedview48"
     showgrid="false"
     inkscape:zoom="3.6511628"
     inkscape:cx="47.656051"
     inkscape:cy="50.531847"
     inkscape:window-x="0"
     inkscape:window-y="0"
     inkscape:window-maximized="1"
     inkscape:current-layer="svg46"
     inkscape:document-rotation="0"
     inkscape:showpageshadow="false"
     inkscape:lockguides="true"
     inkscape:snap-intersection-paths="true"
     inkscape:pagecheckerboard="0">
    <inkscape:grid
       type="xygrid"
       id="grid1134" />
  </sodipodi:namedview>
  <g
     id="MinuteHand"
     transform="translate(-53.5)">
    <path
       style="opacity:0.00100002"
       d="m 39.5,39.5 h 7 V 86 h -7 z"
       id="path25" />
    <path
       style="opacity:1;fill:#f1f2f3;fill-opacity:1;stroke-width:0.972161"
       d="m 43.579,41.978676 -0.01066,29.292591 c 0,0 -0.03759,0.706829 -0.614156,0.706829 -0.576563,0 -0.588184,-0.707408 -0.588184,-0.707408 l 0.01066,-29.292592 z"
       id="path27" />
    <circle
       style="opacity:1;fill:#3b5a87;fill-opacity:1"
       cx="15.554"
       cy="-58.731998"
       r="1.835"
       transform="rotate(120.21865)"
       id="circle29" />
  </g>
  <g
     id="SecondHand"
     transform="translate(-46.5)">
    <path
       style="opacity:0.00100002"
       d="m 39.5,39.5 h 7 V 86 h -7 z"
       id="path32" />
    <path
       style="fill:#3b5a87;fill-opacity:1"
       d="m 42.483496,44.037905 c -0.46273,-0.267603 -0.62092,-0.859662 -0.35332,-1.322395 0.2676,-0.462746 0.85966,-0.620935 1.3224,-0.353332 0.46274,0.267603 0.62093,0.859662 0.35332,1.322408 -0.2676,0.462733 -0.85966,0.620922 -1.3224,0.353319 z"
       id="path34" />
    <path
       style="opacity:1;fill:#3b5a87;fill-opacity:1;stroke-width:0.947552"
       d="m 43.42,42.631836 -4.73e-4,33.598709 c 0,0 0.03162,0.40075 -0.420527,0.40075 -0.452146,0 -0.445523,-0.401328 -0.445523,-0.401328 L 42.553,42.631295 Z"
       id="path36"
       sodipodi:nodetypes="ccsccc" />
  </g>
  <g
     id="HourHand"
     transform="translate(-60.5)">
    <path
       style="opacity:0.00100002"
       d="m 39.5,39.499996 h 7 V 86 h -7 z"
       id="path39" />
    <path
       style="opacity:1;fill:#f1f2f3;fill-opacity:1;stroke-width:0.849726"
       d="m 41.951506,62.448878 c 0,0 -0.07224,1.751122 0.7839,1.751122 0.856002,0 0.761503,-1.751122 0.761503,-1.751122 V 42 h -1.545403 z"
       id="path41"
       sodipodi:nodetypes="cscccc" />
    <circle
       style="opacity:0.01;fill:#f1f2f3;fill-opacity:1;stroke-width:0.923075"
       cx="-60.020153"
       cy="8.3588982"
       transform="rotate(-126.87095)"
       id="circle43"
       r="3" />
  </g>
  <g
     id="g1576">
    <g
       id="g1500">
      <g
         id="g1425">
        <g
           id="g6319">
          <g
             id="ClockFace">
            <rect
               style="opacity:0.00100002"
               width="86"
               height="86"
               x="0"
               y="0"
               id="rect2" />
            <path
               style="opacity:0.03"
               d="M 43,5.5 C 63.775,5.5 80.5,22.225 80.5,43 80.5,63.775 63.775,80.5 43,80.5 22.225,80.5 5.5,63.775 5.5,43 5.5,22.225 22.225,5.5 43,5.5 Z m 0,0 C 21.671,5.5 4.5,22.671 4.5,44 4.5,65.329 21.671,82.5 43,82.5 64.329,82.5 81.5,65.329 81.5,44 81.5,22.671 64.329,5.5 43,5.5 Z"
               id="path4" />
            <path
               style="opacity:0.03"
               d="M 17.678711,15.297852 C 9.7454975,22.296477 4.75,32.540636 4.75,44 4.75,65.1905 21.8095,82.25 43,82.25 64.1905,82.25 81.25,65.1905 81.25,44 81.25,32.540636 76.2545,22.296477 68.32129,15.297852 75.812555,22.145196 80.5,32.004201 80.5,43 80.5,63.775 63.775,80.5 43,80.5 22.225,80.5 5.5,63.775 5.5,43 5.5,32.004201 10.187445,22.145196 17.678711,15.297852 Z"
               id="path6" />
            <path
               style="opacity:0.03"
               d="M 10.513672,24.223633 C 7.0137655,29.978085 5,36.745062 5,44 5,65.052 21.948,82 43,82 64.052,82 81,65.052 81,44 81,36.745062 78.986235,29.978085 75.48633,24.223633 78.67125,29.740354 80.5,36.146894 80.5,43 80.5,63.775 63.775,80.5 43,80.5 22.225,80.5 5.5,63.775 5.5,43 5.5,36.146894 7.328751,29.740354 10.513672,24.223633 Z"
               id="path8" />
            <path
               style="opacity:0.03"
               d="M 6.5771485,34.038086 C 5.71711,37.21054 5.25,40.54801 5.25,44 5.25,64.9135 22.0865,81.75 43,81.75 63.9135,81.75 80.75,64.9135 80.75,44 80.75,40.54801 80.28289,37.21054 79.42285,34.038086 80.121965,36.908768 80.5,39.908127 80.5,43 80.5,63.775 63.775,80.5 43,80.5 22.225,80.5 5.5,63.775 5.5,43 c 0,-3.091873 0.378034,-6.091233 1.0771485,-8.961914 z"
               id="path10" />
            <path
               style="opacity:0.03"
               d="M 7.6152345,30.535156 C 6.0880255,34.645049 5.25,39.095576 5.25,43.75 5.25,64.6635 22.0865,81.5 43,81.5 63.9135,81.5 80.75,64.6635 80.75,43.75 80.75,39.095576 79.911975,34.645049 78.384765,30.535156 79.74997,34.432738 80.5,38.624769 80.5,43 80.5,63.775 63.775,80.5 43,80.5 22.225,80.5 5.5,63.775 5.5,43 5.5,38.624769 6.2500305,34.432738 7.6152345,30.535156 Z"
               id="path12" />
            <path
               style="opacity:0.03"
               d="M 10.713867,23.875 C 7.2450465,29.586946 5.25,36.301828 5.25,43.5 5.25,64.4135 22.0865,81.25 43,81.25 63.9135,81.25 80.75,64.4135 80.75,43.5 80.75,36.301828 78.754955,29.586946 75.286135,23.875 78.59647,29.469083 80.5,36.002744 80.5,43 80.5,63.775 63.775,80.5 43,80.5 22.225,80.5 5.5,63.775 5.5,43 5.5,36.002744 7.403529,29.469083 10.713867,23.875 Z"
               id="path14" />
            <path
               style="opacity:0.03"
               d="M 41.051758,5.548828 C 21.050725,6.5561545 5.25,22.990047 5.25,43.25 5.25,64.1635 22.0865,81 43,81 63.9135,81 80.75,64.1635 80.75,43.25 80.75,22.985791 64.942545,6.549883 44.935547,5.548828 64.80412,6.5494835 80.5,22.874219 80.5,43 80.5,63.775 63.775,80.5 43,80.5 22.225,80.5 5.5,63.775 5.5,43 5.5,22.874219 21.195878,6.5494835 41.064453,5.548828 c -0.0042,2.105e-4 -0.0085,-2.115e-4 -0.0127,0 z"
               id="path16" />
            <path
               style="opacity:0.03"
               d="M 43,5.25 C 22.0865,5.25 5.25,22.0865 5.25,43 5.25,63.9135 22.0865,80.75 43,80.75 63.9135,80.75 80.75,63.9135 80.75,43 80.75,22.0865 63.9135,5.25 43,5.25 Z M 43,5.5 C 63.775,5.5 80.5,22.225 80.5,43 80.5,63.775 63.775,80.5 43,80.5 22.225,80.5 5.5,63.775 5.5,43 5.5,22.225 22.225,5.5 43,5.5 Z"
               id="path18" />
            <rect
               style="opacity:0.9;fill:#1f222d;fill-opacity:1"
               width="75.5"
               height="75.5"
               x="-80.699997"
               y="-80.5"
               rx="37.5"
               ry="37.75"
               transform="matrix(0,-1,-1,0,0,0)"
               id="rect20" />
            <rect
               y="70.705124"
               x="-44.13929"
               height="5.0894694"
               width="2.0577474"
               id="rect4655-3"
               style="fill:#6085ba;fill-opacity:1;stroke:#ffffff;stroke-width:0.276861;stroke-opacity:1"
               ry="1.0005463"
               transform="rotate(-90)"
               rx="1.0005463" />
            <rect
               y="-48.939388"
               x="57.572636"
               height="3.1412961"
               width="2.1141376"
               id="rect4392-6"
               style="fill:#ffffff;fill-opacity:1;stroke:#ffffff;stroke-width:0.22047;stroke-opacity:1"
               ry="1.0005463"
               transform="rotate(59.999999)"
               rx="1.0005463" />
            <rect
               transform="rotate(59.999999)"
               ry="1.0005463"
               style="fill:#ffffff;fill-opacity:1;stroke:#ffffff;stroke-width:0.22047;stroke-opacity:1"
               id="rect4394-0"
               width="2.1141376"
               height="3.1412964"
               x="57.572636"
               y="14.698833"
               rx="1.0005463" />
            <rect
               rx="1.0005463"
               transform="rotate(29.999999)"
               ry="1.0005463"
               style="fill:#ffffff;fill-opacity:1;stroke:#ffffff;stroke-width:0.22047;stroke-opacity:1"
               id="rect4408-6"
               width="2.1141376"
               height="3.1412959"
               x="57.492554"
               y="-17.541283" />
            <rect
               rx="1.0005463"
               y="46.096943"
               x="57.492554"
               height="3.1412964"
               width="2.1141376"
               id="rect4410-2"
               style="fill:#ffffff;fill-opacity:1;stroke:#ffffff;stroke-width:0.22047;stroke-opacity:1"
               ry="1.0005463"
               transform="rotate(29.999999)" />
            <rect
               y="-76.361572"
               x="-43.810097"
               height="5.0894694"
               width="2.0577474"
               id="rect4657-6"
               style="fill:#5f85b9;fill-opacity:1;stroke:#ffffff;stroke-width:0.276861;stroke-opacity:1"
               ry="1.0005463"
               transform="scale(-1)"
               rx="1.0005463" />
            <rect
               transform="rotate(-90)"
               ry="1.0005463"
               style="fill:#5f83b9;fill-opacity:1;stroke:#ffffff;stroke-width:0.276861;stroke-opacity:1"
               id="rect4653-1"
               width="2.0577474"
               height="5.0894694"
               x="-44.13929"
               y="9.6384258"
               rx="1.0005463" />
            <rect
               transform="scale(-1)"
               ry="1.0005463"
               style="fill:#5f84b9;fill-opacity:1;stroke:#ffffff;stroke-width:0.276861;stroke-opacity:1"
               id="rect4659-8"
               width="2.0577474"
               height="5.0894699"
               x="-43.810097"
               y="-14.727901"
               rx="1.0005463" />
            <rect
               y="-92.019463"
               x="-16.606695"
               height="3.1412959"
               width="2.1141376"
               id="rect4356-7"
               style="fill:#ffffff;fill-opacity:1;stroke:#ffffff;stroke-width:0.22047;stroke-opacity:1"
               ry="1.0005463"
               transform="rotate(150)"
               rx="1.0005463" />
            <rect
               transform="rotate(150)"
               ry="1.0005463"
               style="fill:#ffffff;fill-opacity:1;stroke:#ffffff;stroke-width:0.22047;stroke-opacity:1"
               id="rect4358-9"
               width="2.1141376"
               height="3.1412964"
               x="-16.606695"
               y="-28.381231"
               rx="1.0005463" />
            <rect
               rx="1.0005463"
               transform="rotate(120)"
               ry="1.0005463"
               style="fill:#ffffff;fill-opacity:1;stroke:#ffffff;stroke-width:0.22047;stroke-opacity:1"
               id="rect4376-2"
               width="2.1141376"
               height="3.1412959"
               x="14.791409"
               y="-91.939392" />
            <rect
               rx="1.0005463"
               y="-28.301163"
               x="14.791409"
               height="3.1412964"
               width="2.1141376"
               id="rect4378-0"
               style="fill:#ffffff;fill-opacity:1;stroke:#fefefe;stroke-width:0.22047;stroke-opacity:1"
               ry="1.0005463"
               transform="rotate(120)" />
            <circle
               transform="rotate(-5.9999995)"
               id="path4424-2"
               style="opacity:0.4;fill:#ffffff;fill-opacity:1;fill-rule:nonzero;stroke:none;stroke-width:0.184118"
               cx="38.052799"
               cy="14.445452"
               r="0.66703093" />
            <circle
               style="opacity:0.4;fill:#ffffff;fill-opacity:1;fill-rule:nonzero;stroke:none;stroke-width:0.184118"
               id="path4426-3"
               transform="rotate(-5.9999995)"
               cx="38.052799"
               cy="80.014587"
               r="0.66703093" />
            <circle
               style="opacity:0.4;fill:#ffffff;fill-opacity:1;fill-rule:nonzero;stroke:none;stroke-width:0.184118"
               id="path4464-7"
               transform="rotate(-11.999999)"
               cx="32.907459"
               cy="18.16432"
               r="0.66703087" />
            <circle
               transform="rotate(-11.999999)"
               id="path4466-5"
               style="opacity:0.4;fill:#ffffff;fill-opacity:1;fill-rule:nonzero;stroke:none;stroke-width:0.184118"
               cx="32.907459"
               cy="83.733459"
               r="0.66703087" />
            <circle
               transform="rotate(-18)"
               id="path4470-9"
               style="opacity:0.4;fill:#ffffff;fill-opacity:1;fill-rule:nonzero;stroke:none;stroke-width:0.184118"
               cx="27.401581"
               cy="21.324984"
               r="0.66703093" />
            <circle
               style="opacity:0.4;fill:#ffffff;fill-opacity:1;fill-rule:nonzero;stroke:none;stroke-width:0.184118"
               id="path4472-2"
               transform="rotate(-18)"
               cx="27.401579"
               cy="86.894119"
               r="0.66703093" />
            <circle
               style="opacity:0.4;fill:#ffffff;fill-opacity:1;fill-rule:nonzero;stroke:none;stroke-width:0.184118"
               id="path4476-2"
               transform="rotate(-23.999999)"
               cx="21.595486"
               cy="23.892811"
               r="0.66703087" />
            <circle
               transform="rotate(-23.999999)"
               id="path4478-8"
               style="opacity:0.4;fill:#ffffff;fill-opacity:1;fill-rule:nonzero;stroke:none;stroke-width:0.184118"
               cx="21.595484"
               cy="89.461952"
               r="0.66703087" />
            <ellipse
               transform="rotate(-35.999998)"
               id="path4482-9"
               style="opacity:0.4;fill:#ffffff;fill-opacity:1;fill-rule:nonzero;stroke:none;stroke-width:0.184118"
               cx="9.3396797"
               cy="27.144228"
               rx="0.66703087"
               ry="0.66703093" />
            <ellipse
               style="opacity:0.4;fill:#ffffff;fill-opacity:1;fill-rule:nonzero;stroke:none;stroke-width:0.184118"
               id="path4484-7"
               transform="rotate(-35.999998)"
               cx="9.3396816"
               cy="92.713364"
               rx="0.66703087"
               ry="0.66703093" />
            <ellipse
               style="opacity:0.4;fill:#ffffff;fill-opacity:1;fill-rule:nonzero;stroke:none;stroke-width:0.184118"
               id="path4488-3"
               transform="rotate(-42)"
               cx="3.024251"
               cy="27.792192"
               rx="0.66703087"
               ry="0.66703093" />
            <ellipse
               transform="rotate(-42)"
               id="path4490-6"
               style="opacity:0.4;fill:#ffffff;fill-opacity:1;fill-rule:nonzero;stroke:none;stroke-width:0.184118"
               cx="3.0242522"
               cy="93.361328"
               rx="0.66703087"
               ry="0.66703093" />
            <ellipse
               transform="rotate(-48)"
               id="path4494-1"
               style="opacity:0.4;fill:#ffffff;fill-opacity:1;fill-rule:nonzero;stroke:none;stroke-width:0.184118"
               cx="-3.324312"
               cy="27.776468"
               rx="0.66703087"
               ry="0.66703093" />
            <ellipse
               style="opacity:0.4;fill:#ffffff;fill-opacity:1;fill-rule:nonzero;stroke:none;stroke-width:0.184118"
               id="path4496-2"
               transform="rotate(-48)"
               cx="-3.3243122"
               cy="93.345604"
               rx="0.66703087"
               ry="0.66703093" />
            <ellipse
               style="opacity:0.4;fill:#ffffff;fill-opacity:1;fill-rule:nonzero;stroke:none;stroke-width:0.184118"
               id="path4500-9"
               transform="rotate(-53.999999)"
               cx="-9.6364517"
               cy="27.097223"
               rx="0.66703093"
               ry="0.66703087" />
            <ellipse
               transform="rotate(-53.999999)"
               id="path4502-3"
               style="opacity:0.4;fill:#ffffff;fill-opacity:1;fill-rule:nonzero;stroke:none;stroke-width:0.184118"
               cx="-9.6364508"
               cy="92.666359"
               rx="0.66703093"
               ry="0.66703087" />
            <circle
               transform="rotate(-65.999999)"
               id="path4506-1"
               style="opacity:0.4;fill:#ffffff;fill-opacity:1;fill-rule:nonzero;stroke:none;stroke-width:0.184118"
               cx="-21.875994"
               cy="23.785133"
               r="0.66703093" />
            <circle
               style="opacity:0.4;fill:#ffffff;fill-opacity:1;fill-rule:nonzero;stroke:none;stroke-width:0.184118"
               id="path4508-9"
               transform="rotate(-65.999999)"
               cx="-21.875992"
               cy="89.354271"
               r="0.66703093" />
            <circle
               style="opacity:0.4;fill:#ffffff;fill-opacity:1;fill-rule:nonzero;stroke:none;stroke-width:0.184118"
               id="path4512-4"
               transform="rotate(-72)"
               cx="-27.6693"
               cy="21.188572"
               r="0.66703093" />
            <circle
               transform="rotate(-72)"
               id="path4514-7"
               style="opacity:0.4;fill:#ffffff;fill-opacity:1;fill-rule:nonzero;stroke:none;stroke-width:0.184118"
               cx="-27.669304"
               cy="86.757713"
               r="0.66703093" />
            <circle
               transform="rotate(-77.999999)"
               id="path4518-8"
               style="opacity:0.4;fill:#ffffff;fill-opacity:1;fill-rule:nonzero;stroke:none;stroke-width:0.184118"
               cx="-33.159454"
               cy="18.000673"
               r="0.66703093" />
            <circle
               style="opacity:0.4;fill:#ffffff;fill-opacity:1;fill-rule:nonzero;stroke:none;stroke-width:0.184118"
               id="path4520-4"
               transform="rotate(-77.999999)"
               cx="-33.159454"
               cy="83.569809"
               r="0.66703093" />
            <circle
               style="opacity:0.4;fill:#ffffff;fill-opacity:1;fill-rule:nonzero;stroke:none;stroke-width:0.184118"
               id="path4524-5"
               transform="rotate(-84)"
               cx="-38.286308"
               cy="14.256359"
               r="0.66703093" />
            <circle
               transform="rotate(-84)"
               id="path4526-0"
               style="opacity:0.4;fill:#ffffff;fill-opacity:1;fill-rule:nonzero;stroke:none;stroke-width:0.184118"
               cx="-38.286308"
               cy="79.825493"
               r="0.66703093" />
            <circle
               transform="rotate(-96)"
               id="path4530-3"
               style="opacity:0.4;fill:#ffffff;fill-opacity:1;fill-rule:nonzero;stroke:none;stroke-width:0.184118"
               cx="-47.230019"
               cy="5.2682295"
               r="0.66703093" />
            <circle
               style="opacity:0.4;fill:#ffffff;fill-opacity:1;fill-rule:nonzero;stroke:none;stroke-width:0.184118"
               id="path4532-6"
               transform="rotate(-96)"
               cx="-47.230022"
               cy="70.837364"
               r="0.66703093" />
            <circle
               style="opacity:0.4;fill:#ffffff;fill-opacity:1;fill-rule:nonzero;stroke:none;stroke-width:0.184118"
               id="path4536-1"
               transform="rotate(-102)"
               cx="-50.948891"
               cy="0.1228913"
               r="0.66703087" />
            <circle
               transform="rotate(-102)"
               id="path4538-0"
               style="opacity:0.4;fill:#ffffff;fill-opacity:1;fill-rule:nonzero;stroke:none;stroke-width:0.184118"
               cx="-50.948891"
               cy="65.692024"
               r="0.66703087" />
            <circle
               transform="rotate(-108)"
               id="path4542-6"
               style="opacity:0.4;fill:#ffffff;fill-opacity:1;fill-rule:nonzero;stroke:none;stroke-width:0.184118"
               cx="-54.109554"
               cy="-5.3829885"
               r="0.66703093" />
            <circle
               style="opacity:0.4;fill:#ffffff;fill-opacity:1;fill-rule:nonzero;stroke:none;stroke-width:0.184118"
               id="path4544-3"
               transform="rotate(-108)"
               cx="-54.109554"
               cy="60.18615"
               r="0.66703093" />
            <circle
               style="opacity:0.4;fill:#ffffff;fill-opacity:1;fill-rule:nonzero;stroke:none;stroke-width:0.184118"
               id="path4548-2"
               transform="rotate(-114)"
               cx="-56.67738"
               cy="-11.189084"
               r="0.66703087" />
            <circle
               transform="rotate(-114)"
               id="path4550-0"
               style="opacity:0.4;fill:#ffffff;fill-opacity:1;fill-rule:nonzero;stroke:none;stroke-width:0.184118"
               cx="-56.67738"
               cy="54.380054"
               r="0.66703087" />
            <ellipse
               transform="rotate(-126)"
               id="path4554-6"
               style="opacity:0.4;fill:#ffffff;fill-opacity:1;fill-rule:nonzero;stroke:none;stroke-width:0.184118"
               cx="-59.928795"
               cy="-23.444885"
               rx="0.66703087"
               ry="0.66703093" />
            <ellipse
               style="opacity:0.4;fill:#ffffff;fill-opacity:1;fill-rule:nonzero;stroke:none;stroke-width:0.184118"
               id="path4556-1"
               transform="rotate(-126)"
               cx="-59.928791"
               cy="42.124249"
               rx="0.66703087"
               ry="0.66703093" />
            <ellipse
               style="opacity:0.4;fill:#ffffff;fill-opacity:1;fill-rule:nonzero;stroke:none;stroke-width:0.184118"
               id="path4560-5"
               transform="rotate(-132)"
               cx="-60.576763"
               cy="-29.760317"
               rx="0.66703087"
               ry="0.66703093" />
            <ellipse
               transform="rotate(-132)"
               id="path4562-5"
               style="opacity:0.4;fill:#ffffff;fill-opacity:1;fill-rule:nonzero;stroke:none;stroke-width:0.184118"
               cx="-60.576763"
               cy="35.808819"
               rx="0.66703087"
               ry="0.66703093" />
            <ellipse
               transform="rotate(-138)"
               id="path4566-4"
               style="opacity:0.4;fill:#ffffff;fill-opacity:1;fill-rule:nonzero;stroke:none;stroke-width:0.184118"
               cx="-60.561039"
               cy="-36.108879"
               rx="0.66703087"
               ry="0.66703093" />
            <ellipse
               style="opacity:0.4;fill:#ffffff;fill-opacity:1;fill-rule:nonzero;stroke:none;stroke-width:0.184118"
               id="path4568-7"
               transform="rotate(-138)"
               cx="-60.561039"
               cy="29.460257"
               rx="0.66703087"
               ry="0.66703093" />
            <ellipse
               style="opacity:0.4;fill:#ffffff;fill-opacity:1;fill-rule:nonzero;stroke:none;stroke-width:0.184118"
               id="path4572-6"
               transform="rotate(-144)"
               cx="-59.881794"
               cy="-42.421024"
               rx="0.66703093"
               ry="0.66703087" />
            <ellipse
               transform="rotate(-144)"
               id="path4574-5"
               style="opacity:0.4;fill:#ffffff;fill-opacity:1;fill-rule:nonzero;stroke:none;stroke-width:0.184118"
               cx="-59.881794"
               cy="23.148115"
               rx="0.66703093"
               ry="0.66703087" />
            <circle
               transform="rotate(-156)"
               id="path4578-6"
               style="opacity:0.4;fill:#ffffff;fill-opacity:1;fill-rule:nonzero;stroke:none;stroke-width:0.184118"
               cx="-56.569698"
               cy="-54.660568"
               r="0.66703093" />
            <circle
               style="opacity:0.4;fill:#ffffff;fill-opacity:1;fill-rule:nonzero;stroke:none;stroke-width:0.184118"
               id="path4580-9"
               transform="rotate(-156)"
               cx="-56.569698"
               cy="10.908568"
               r="0.66703093" />
            <circle
               style="opacity:0.4;fill:#ffffff;fill-opacity:1;fill-rule:nonzero;stroke:none;stroke-width:0.184118"
               id="path4584-3"
               transform="rotate(-162)"
               cx="-53.973141"
               cy="-60.453876"
               r="0.66703093" />
            <circle
               transform="rotate(-162)"
               id="path4586-7"
               style="opacity:0.4;fill:#ffffff;fill-opacity:1;fill-rule:nonzero;stroke:none;stroke-width:0.184118"
               cx="-53.973141"
               cy="5.1152625"
               r="0.66703093" />
            <circle
               transform="rotate(-168)"
               id="path4590-4"
               style="opacity:0.4;fill:#ffffff;fill-opacity:1;fill-rule:nonzero;stroke:none;stroke-width:0.184118"
               cx="-50.785236"
               cy="-65.944031"
               r="0.66703093" />
            <circle
               style="opacity:0.4;fill:#ffffff;fill-opacity:1;fill-rule:nonzero;stroke:none;stroke-width:0.184118"
               id="path4592-5"
               transform="rotate(-168)"
               cx="-50.78524"
               cy="-0.37489101"
               r="0.66703093" />
            <circle
               style="opacity:0.4;fill:#ffffff;fill-opacity:1;fill-rule:nonzero;stroke:none;stroke-width:0.184118"
               id="path4596-2"
               transform="rotate(-174)"
               cx="-47.040928"
               cy="-71.070877"
               r="0.66703093" />
            <circle
               transform="rotate(-174)"
               id="path4598-5"
               style="opacity:0.4;fill:#ffffff;fill-opacity:1;fill-rule:nonzero;stroke:none;stroke-width:0.184118"
               cx="-47.040924"
               cy="-5.5017438"
               r="0.66703093" />
            <path
               id="path3360-3"
               d="m 41.02191,57.500066 c -0.245863,-10e-4 -0.495226,0.04492 -0.735133,0.142243 -1.58e-4,8e-5 -3.3e-4,1.11e-4 -4.82e-4,1.9e-4 -0.01977,0.0088 -0.03908,0.01623 -0.05878,0.02498 -0.412082,0.180105 -0.764924,0.500248 -0.973593,0.938117 l -1.564821,3.283586 c -0.460804,0.966953 -0.05052,2.124396 0.916503,2.585201 0.858222,0.408991 1.866106,0.131274 2.404197,-0.612261 0.538086,0.743598 1.545965,1.021252 2.404195,0.612261 0.320874,-0.152923 0.579988,-0.382803 0.766784,-0.656714 0.529477,0.777131 1.560759,1.073818 2.43602,0.656714 0.966959,-0.460805 1.377308,-1.618248 0.916505,-2.585201 l -1.564812,-3.283577 c -0.331204,-0.695001 -1.022323,-1.102487 -1.743894,-1.105593 -0.282361,-10e-4 -0.56935,0.05965 -0.841304,0.18909 -0.320941,0.152964 -0.580096,0.382905 -0.766901,0.656902 -0.36497,-0.535701 -0.968209,-0.843293 -1.594589,-0.845992 z m -0.0021,0.98774 c 0.35418,9.99e-4 0.693372,0.201512 0.855943,0.542661 l 1.568117,3.290988 c 0.220615,0.473123 0.01903,1.036479 -0.453118,1.261503 -0.47462,0.226172 -1.042727,0.02487 -1.268913,-0.449845 l -1.56511,-3.283595 c -0.226184,-0.474613 -0.02487,-1.042716 0.449838,-1.268904 0.133443,-0.06377 0.274382,-0.09324 0.412968,-0.09289 z m 3.202805,0 c 0.354174,9.99e-4 0.693372,0.201512 0.855945,0.542661 l 1.564838,3.283576 c 0.226175,0.474631 0.02487,1.042737 -0.449841,1.268915 -0.474622,0.226172 -1.042729,0.02487 -1.268913,-0.449845 l -1.568125,-3.290397 c -0.221064,-0.473225 -0.01968,-1.036994 0.452879,-1.262102 0.133401,-0.06377 0.274378,-0.09324 0.412966,-0.09289 z m -4.81277,2.089389 1.054562,2.212872 -0.163499,0.343046 c -0.226256,0.474618 -0.794367,0.676017 -1.268983,0.449845 -0.474622,-0.226178 -0.676017,-0.794284 -0.449836,-1.268915 z m 4.411222,4.995291 c -0.56766,5e-6 -1.027834,0.431495 -1.02784,0.963755 6e-6,0.532265 0.46018,0.963751 1.02784,0.963759 0.294595,-3.63e-4 0.569889,-0.119894 0.758942,-0.323259 0.03009,-0.03228 0.0645,-0.07507 0.06524,-0.112903 v -0.440722 c 0,-0.02186 -0.02423,-0.0461 -0.0461,-0.0461 H 44.10957 c -0.02186,0 -0.0461,0.02423 -0.0461,0.0461 v 0.276361 c -0.06983,0.04105 -0.150986,0.06395 -0.235489,0.06401 -0.247748,-5e-6 -0.448575,-0.191317 -0.448564,-0.427302 -1.1e-5,-0.235985 0.200816,-0.427297 0.448564,-0.427305 0.10423,1.58e-4 0.206168,0.03389 0.285416,0.09813 l 0.01,0.0089 c 0.01327,0.011 0.04181,0.011 0.05506,-9.78e-4 l 0.326417,-0.305881 c 0.02179,-0.02017 0.02291,-0.07005 0,-0.08899 l -0.01328,-0.01122 c -0.185055,-0.152903 -0.42406,-0.234732 -0.670342,-0.23541 z m -5.112156,0.03917 c -0.02186,0 -0.04609,0.02423 -0.04609,0.04609 v 1.74007 c 0,0.02186 0.02423,0.04609 0.04609,0.04609 h 0.466419 c 0.02186,0 0.04609,-0.02423 0.04609,-0.04609 v -0.640065 l 0.411386,0.499097 c 0.01696,0.02032 0.06289,0.02032 0.07982,0 l 0.411392,-0.499097 v 0.640075 c 0,0.02186 0.02423,0.04609 0.0461,0.04609 h 0.46642 c 0.02186,0 0.04609,-0.02423 0.04609,-0.04609 v -1.740064 c 0,-0.02186 -0.02423,-0.04609 -0.04609,-0.04609 h -0.359143 c -0.02915,0 -0.05917,0.02116 -0.07478,0.04609 l -0.490299,0.793757 c -0.01302,0.02276 -0.06584,0.02276 -0.07982,0 l -0.490272,-0.793741 c -0.01581,-0.02494 -0.04529,-0.04609 -0.07483,-0.04609 z m 2.51304,0 c -0.02187,0 -0.04609,0.02423 -0.04609,0.04609 v 1.74007 c 0,0.02186 0.02423,0.04609 0.04609,0.04609 h 1.339627 c 0.02187,0 0.04613,-0.02423 0.04613,-0.04609 l -6.3e-5,-0.348159 c -10e-7,-0.02186 -0.02423,-0.04609 -0.04609,-0.04609 h -0.78097 c -0.02186,0 -0.0461,-0.02423 -0.0461,-0.04609 v -0.149318 c 0,-0.02186 0.02423,-0.0461 0.0461,-0.0461 h 0.371641 c 0.02187,0 0.0461,-0.02423 0.0461,-0.04609 V 66.34734 c -1e-6,-0.02186 -0.02423,-0.0461 -0.0461,-0.0461 h -0.371662 c -0.02186,0 -0.0461,-0.02423 -0.0461,-0.04609 v -0.135753 c -2e-6,-0.02186 0.02423,-0.0461 0.0461,-0.0461 h 0.746809 c 0.02186,0 0.04609,-0.02423 0.04609,-0.04609 v -0.368962 c 0,-0.02186 -0.02423,-0.04609 -0.04609,-0.04609 h -1.305697 z m 4.271338,0 c -0.02242,0 -0.03811,0.02595 -0.04609,0.04609 l -0.686843,1.74007 c -0.0088,0.02015 0.02427,0.04609 0.04613,0.04609 h 0.508937 c 0.02186,0 0.03914,-0.02567 0.04609,-0.04609 l 0.08215,-0.245444 h 0.646936 l 0.08218,0.245451 c 0.0082,0.02079 0.02423,0.04609 0.0461,0.04609 h 0.508999 c 0.02186,0 0.05409,-0.02595 0.0461,-0.04609 l -0.686926,-1.740057 c -0.0088,-0.02015 -0.02381,-0.04609 -0.0461,-0.04609 z m 0.274057,0.576115 0.182769,0.545015 h -0.36565 z"
               style="fill:#b8c8e0;fill-opacity:1;fill-rule:nonzero;stroke:none;stroke-width:0;stroke-linecap:round;stroke-linejoin:round;stroke-miterlimit:4;stroke-dasharray:none;stroke-opacity:1"
               inkscape:connector-curvature="0" />
          </g>
        </g>
      </g>
    </g>
  </g>
</svg>
