<?xml version="1.0" encoding="UTF-8" standalone="no"?>
<svg
   width="64"
   version="1.1"
   height="64"
   id="svg15"
   sodipodi:docname="folder-mega.svg"
   inkscape:version="1.1.1 (3bf5ae0d25, 2021-09-20)"
   xmlns:inkscape="http://www.inkscape.org/namespaces/inkscape"
   xmlns:sodipodi="http://sodipodi.sourceforge.net/DTD/sodipodi-0.dtd"
   xmlns:xlink="http://www.w3.org/1999/xlink"
   xmlns="http://www.w3.org/2000/svg"
   xmlns:svg="http://www.w3.org/2000/svg"
   xmlns:rdf="http://www.w3.org/1999/02/22-rdf-syntax-ns#"
   xmlns:cc="http://creativecommons.org/ns#"
   xmlns:dc="http://purl.org/dc/elements/1.1/">
  <sodipodi:namedview
     pagecolor="#ffffff"
     bordercolor="#666666"
     borderopacity="1"
     objecttolerance="10"
     gridtolerance="10"
     guidetolerance="10"
     inkscape:pageopacity="0"
     inkscape:pageshadow="2"
     inkscape:window-width="1920"
     inkscape:window-height="1007"
     id="namedview17"
     showgrid="true"
     inkscape:zoom="9.8125"
     inkscape:cx="17.019108"
     inkscape:cy="42.038217"
     inkscape:window-x="0"
     inkscape:window-y="0"
     inkscape:window-maximized="1"
     inkscape:current-layer="layer1"
     inkscape:document-rotation="0"
     showguides="false"
     inkscape:pagecheckerboard="0">
    <inkscape:grid
       type="xygrid"
       id="grid919" />
  </sodipodi:namedview>
  <defs
     id="defs5455">
    <linearGradient
       inkscape:collect="always"
       xlink:href="#linearGradient847"
       id="linearGradient858"
       x1="210.75999"
       y1="89.093002"
       x2="362.40799"
       y2="89.093002"
       gradientUnits="userSpaceOnUse"
       gradientTransform="matrix(0.12132762,0,0,0.12349046,385.57143,484.06629)" />
    <linearGradient
       inkscape:collect="always"
       xlink:href="#linearGradient847"
       id="linearGradient859"
       x1="0"
       y1="256.82327"
       x2="512"
       y2="256.82327"
       gradientUnits="userSpaceOnUse"
       gradientTransform="matrix(0.12132762,0,0,0.12349046,385.57143,484.06629)" />
    <linearGradient
       inkscape:collect="always"
       id="linearGradient847">
      <stop
         style="stop-color:#7192c1;stop-opacity:1"
         offset="0"
         id="stop843" />
      <stop
         style="stop-color:#3b5a87;stop-opacity:1"
         offset="1"
         id="stop845" />
    </linearGradient>
    <linearGradient
       inkscape:collect="always"
       xlink:href="#linearGradient847"
       id="linearGradient862"
       x1="476.689"
       y1="163.60085"
       x2="319.6994"
       y2="162.04736"
       gradientUnits="userSpaceOnUse"
       gradientTransform="matrix(0.12132762,0,0,0.12349046,385.57143,484.06629)" />
  </defs>
  <metadata
     id="metadata5458">
    <rdf:RDF>
      <cc:Work
         rdf:about="">
        <dc:format>image/svg+xml</dc:format>
        <dc:type
           rdf:resource="http://purl.org/dc/dcmitype/StillImage" />
      </cc:Work>
    </rdf:RDF>
  </metadata>
  <g
     inkscape:label="Capa 1"
     inkscape:groupmode="layer"
     id="layer1"
     transform="translate(-384.57143,-483.798)">
    <path
       style="fill:url(#linearGradient858);fill-opacity:1;stroke-width:0.122405"
       d="m 418.27991,496.76498 c 1.00234,1.00832 2.35492,1.57376 3.76434,1.57376 h 2.08431 5.41297 c -1.40942,0 -2.76196,-0.56544 -3.76434,-1.57376 l -3.37309,-3.39306 c -1.00265,-1.00849 -2.35506,-1.57392 -3.76429,-1.57392 h -7.49732 c 1.40923,0 2.76181,0.56543 3.76434,1.57392 z"
       id="path2" />
    <path
       style="fill:#3b5a87;fill-opacity:1;stroke-width:0.122405"
       d="m 407.40937,493.37192 3.37327,3.39306 c 1.00233,1.00832 2.35487,1.57376 3.76429,1.57376 h 2.08436 5.41296 c -1.40942,0 -2.762,-0.56544 -3.76434,-1.57376 l -3.37308,-3.39306 c -1.00265,-1.00849 -2.35511,-1.57392 -3.76434,-1.57392 h -7.36358 -0.13375 c 1.40942,0 2.76182,0.56556 3.76421,1.57392 z"
       id="path4" />
    <path
       style="fill:url(#linearGradient859);fill-opacity:1;stroke-width:0.114828"
       d="m 444.47801,497.55407 h -12.85238 -2.08437 -5.41295 -2.08431 -5.41271 -2.08436 c -1.40942,0 -2.76196,-0.4976 -3.76429,-1.38504 l -3.37327,-2.98601 c -1.00251,-0.88742 -2.35492,-1.38502 -3.76432,-1.38502 h -7.36334 -7.49714 c -1.7745,0 -3.21314,1.28851 -3.21314,2.87804 v 5.75606 0.95938 35.49546 c 0,1.58953 1.43864,2.87804 3.21314,2.87804 h 55.69344 c 1.7745,0 3.21314,-1.28851 3.21314,-2.87804 V 500.4321 c 0,-1.58964 -1.43864,-2.87803 -3.21314,-2.87803 z m -20.34958,5.75596 z m 19.27871,0.95937 c 0,1.05956 -0.959,1.91865 -2.14214,1.91865 h -14.99442 c -1.18314,0 -2.14215,-0.85909 -2.14215,-1.91865 v -0.95937 c 0,-1.05956 0.95901,-1.91865 2.14215,-1.91865 h 14.99429 c 1.18315,0 2.14214,0.85909 2.14214,1.91865 v 0.95937 z"
       id="path6"
       sodipodi:nodetypes="scccccsccscssccssssssccccccccccssssssscc" />
    <path
       style="fill:url(#linearGradient862);fill-opacity:1;stroke-width:0.122405"
       d="m 441.26487,501.05685 h -14.99429 c -1.18314,0 -2.16639,0.97609 -2.16639,2.18013 v 1.09026 c 0,1.20403 0.98325,2.18014 2.16639,2.18014 h 14.99429 c 1.18315,0 2.29726,-0.97643 2.32413,-2.18014 l 0.0242,-1.09026 c 1.2e-4,-1.20404 -1.16511,-2.18013 -2.34837,-2.18013 z"
       id="path8"
       sodipodi:nodetypes="ssssssscs" />
    <rect
       class="st0"
       height="21.75"
       width="21.75"
       x="389.69635"
       y="511.9231"
       id="rect4"
       style="fill:#ff5555;stroke-width:0.375" />
    <path
       class="st1"
       d="m 391.57143,510.798 c -1.65,0 -3,1.35 -3,3 v 18 c 0,1.65 1.35,3 3,3 h 16.5 l 3.375,-1.125 v -15.375 h -0.375 c 0,4.575 -2.8875,8.55 -7.125,10.575 -1.3125,0.8625 -3.675,1.425 -6.375,1.425 -4.125,0 -7.5,-1.35 -7.5,-3 v -13.5 c 0,-0.825 0.675,-1.5 1.5,-1.5 h 4.5 v -1.5 z"
       id="path6-3"
       style="fill:#ff8080;stroke-width:0.375" />
    <path
       class="st2"
       d="m 394.57143,510.798 h 15 c 1.65,0 3,1.35 3,3 v 18 c 0,1.65 -1.35,3 -3,3 h -3 v -1.5 h 3 c 0.825,0 1.5,-0.675 1.5,-1.5 v -18 c 0,-0.825 -0.675,-1.5 -1.5,-1.5 h -15 z"
       id="path8-6"
       style="clip-rule:evenodd;fill:#263740;fill-opacity:1;fill-rule:evenodd;stroke-width:0.375" />
    <path
       id="path3360-3-6"
       d="m 397.31861,515.49846 c -0.44529,-0.002 -0.89694,0.0902 -1.33144,0.28608 -2.7e-4,1.1e-4 -6e-4,2.2e-4 -8.2e-4,3.7e-4 -0.0355,0.0161 -0.0709,0.0328 -0.1062,0.0502 -0.74634,0.36205 -1.38541,1.00565 -1.76333,1.8858 l -2.83412,6.60065 c -0.83459,1.94378 -0.0913,4.27045 1.65992,5.19676 1.5544,0.82215 3.37983,0.26402 4.35436,-1.23075 0.97455,1.49477 2.79997,2.0529 4.35437,1.23075 0.58113,-0.30737 1.05043,-0.7695 1.38874,-1.32012 0.95897,1.56219 2.82678,2.15859 4.41201,1.32012 1.7513,-0.92631 2.49451,-3.25298 1.65992,-5.19676 l -2.83416,-6.60065 c -0.59985,-1.39707 -1.85157,-2.21618 -3.15846,-2.22243 -0.51138,-0.002 -1.03117,0.11952 -1.52372,0.38008 -0.58127,0.30746 -1.05064,0.76972 -1.38898,1.32051 -0.66101,-1.07686 -1.75357,-1.69517 -2.88805,-1.70059 z m -0.006,1.98557 c 0.64148,0.004 1.2558,0.40508 1.55024,1.09082 l 2.8401,6.61555 c 0.39957,0.95106 0.0344,2.08354 -0.82067,2.53587 -0.85961,0.45465 -1.88854,0.0498 -2.29819,-0.90426 l -2.83414,-6.60065 c -0.40964,-0.95407 -0.0449,-2.09609 0.81473,-2.55077 0.24176,-0.12787 0.49694,-0.18776 0.74795,-0.18656 z m 5.80076,0 c 0.64146,0.004 1.2558,0.40508 1.55024,1.09082 l 2.83415,6.60065 c 0.40964,0.95408 0.0449,2.09609 -0.81472,2.55077 -0.85962,0.45465 -1.88855,0.0498 -2.29819,-0.90426 l -2.83966,-6.61433 c -0.40038,-0.95129 -0.0353,-2.08457 0.82025,-2.53709 0.24175,-0.12787 0.49693,-0.18776 0.74794,-0.18656 z m -8.71662,4.20007 1.90995,4.44829 -0.29613,0.68962 c -0.40966,0.95407 -1.43859,1.35891 -2.2982,0.90426 -0.85962,-0.45468 -1.22438,-1.59669 -0.81474,-2.55077 z m 7.25494,7.83421 z m -4.35435,-1.23075 v 0 0 l 10e-4,-0.008 -10e-4,0.008 v 0 0 0 l 10e-4,-0.008 -10e-4,0.008 v 0 0 0 0 0 0 0 0 0 0 0 c -0.012,0.002 0.006,-0.0125 10e-4,-0.008 z m 5.7431,-0.0894 z m 4.41201,1.32013 z m 0,0 z"
       style="fill:#fdfeff;fill-opacity:1;fill-rule:nonzero;stroke:none;stroke-width:0;stroke-linecap:round;stroke-linejoin:round;stroke-miterlimit:4;stroke-dasharray:none;stroke-opacity:1"
       inkscape:connector-curvature="0"
       sodipodi:nodetypes="scccccccscsccsscssccccccsscccccssccccccccccccccccccccccccccccccccccccccccccccccccscccccccccccccccccccccccccccccccccccccccccc" />
  </g>
</svg>
