<?xml version="1.0" encoding="UTF-8" standalone="no"?>
<svg
   width="64"
   version="1.1"
   height="64"
   id="svg15"
   sodipodi:docname="folder-android.svg"
   inkscape:version="1.1.1 (3bf5ae0d25, 2021-09-20)"
   xmlns:inkscape="http://www.inkscape.org/namespaces/inkscape"
   xmlns:sodipodi="http://sodipodi.sourceforge.net/DTD/sodipodi-0.dtd"
   xmlns:xlink="http://www.w3.org/1999/xlink"
   xmlns="http://www.w3.org/2000/svg"
   xmlns:svg="http://www.w3.org/2000/svg"
   xmlns:rdf="http://www.w3.org/1999/02/22-rdf-syntax-ns#"
   xmlns:cc="http://creativecommons.org/ns#"
   xmlns:dc="http://purl.org/dc/elements/1.1/">
  <sodipodi:namedview
     pagecolor="#ffffff"
     bordercolor="#666666"
     borderopacity="1"
     objecttolerance="10"
     gridtolerance="10"
     guidetolerance="10"
     inkscape:pageopacity="0"
     inkscape:pageshadow="2"
     inkscape:window-width="1920"
     inkscape:window-height="1007"
     id="namedview17"
     showgrid="true"
     inkscape:zoom="9.8125"
     inkscape:cx="16.407643"
     inkscape:cy="30.420382"
     inkscape:window-x="0"
     inkscape:window-y="0"
     inkscape:window-maximized="1"
     inkscape:current-layer="layer1"
     inkscape:document-rotation="0"
     showguides="false"
     inkscape:pagecheckerboard="0">
    <inkscape:grid
       type="xygrid"
       id="grid919" />
  </sodipodi:namedview>
  <defs
     id="defs5455">
    <linearGradient
       inkscape:collect="always"
       xlink:href="#linearGradient847"
       id="linearGradient858"
       x1="210.75999"
       y1="89.093002"
       x2="362.40799"
       y2="89.093002"
       gradientUnits="userSpaceOnUse"
       gradientTransform="matrix(0.12132762,0,0,0.12349046,385.57143,484.06629)" />
    <linearGradient
       inkscape:collect="always"
       xlink:href="#linearGradient847"
       id="linearGradient859"
       x1="0"
       y1="256.82327"
       x2="512"
       y2="256.82327"
       gradientUnits="userSpaceOnUse"
       gradientTransform="matrix(0.12132762,0,0,0.12349046,385.57143,484.06629)" />
    <linearGradient
       inkscape:collect="always"
       id="linearGradient847">
      <stop
         style="stop-color:#7192c1;stop-opacity:1"
         offset="0"
         id="stop843" />
      <stop
         style="stop-color:#3b5a87;stop-opacity:1"
         offset="1"
         id="stop845" />
    </linearGradient>
    <linearGradient
       inkscape:collect="always"
       xlink:href="#linearGradient847"
       id="linearGradient862"
       x1="476.689"
       y1="163.60085"
       x2="319.6994"
       y2="162.04736"
       gradientUnits="userSpaceOnUse"
       gradientTransform="matrix(0.12132762,0,0,0.12349046,385.57143,484.06629)" />
  </defs>
  <metadata
     id="metadata5458">
    <rdf:RDF>
      <cc:Work
         rdf:about="">
        <dc:format>image/svg+xml</dc:format>
        <dc:type
           rdf:resource="http://purl.org/dc/dcmitype/StillImage" />
      </cc:Work>
    </rdf:RDF>
  </metadata>
  <g
     inkscape:label="Capa 1"
     inkscape:groupmode="layer"
     id="layer1"
     transform="translate(-384.57143,-483.798)">
    <path
       style="fill:url(#linearGradient858);fill-opacity:1;stroke-width:0.122405"
       d="m 418.27991,496.76498 c 1.00234,1.00832 2.35492,1.57376 3.76434,1.57376 h 2.08431 5.41297 c -1.40942,0 -2.76196,-0.56544 -3.76434,-1.57376 l -3.37309,-3.39306 c -1.00265,-1.00849 -2.35506,-1.57392 -3.76429,-1.57392 h -7.49732 c 1.40923,0 2.76181,0.56543 3.76434,1.57392 z"
       id="path2" />
    <path
       style="fill:#3b5a87;fill-opacity:1;stroke-width:0.122405"
       d="m 407.40937,493.37192 3.37327,3.39306 c 1.00233,1.00832 2.35487,1.57376 3.76429,1.57376 h 2.08436 5.41296 c -1.40942,0 -2.762,-0.56544 -3.76434,-1.57376 l -3.37308,-3.39306 c -1.00265,-1.00849 -2.35511,-1.57392 -3.76434,-1.57392 h -7.36358 -0.13375 c 1.40942,0 2.76182,0.56556 3.76421,1.57392 z"
       id="path4" />
    <path
       style="fill:url(#linearGradient859);fill-opacity:1;stroke-width:0.114828"
       d="m 444.47801,497.55407 h -12.85238 -2.08437 -5.41295 -2.08431 -5.41271 -2.08436 c -1.40942,0 -2.76196,-0.4976 -3.76429,-1.38504 l -3.37327,-2.98601 c -1.00251,-0.88742 -2.35492,-1.38502 -3.76432,-1.38502 h -7.36334 -7.49714 c -1.7745,0 -3.21314,1.28851 -3.21314,2.87804 v 5.75606 0.95938 35.49546 c 0,1.58953 1.43864,2.87804 3.21314,2.87804 h 55.69344 c 1.7745,0 3.21314,-1.28851 3.21314,-2.87804 V 500.4321 c 0,-1.58964 -1.43864,-2.87803 -3.21314,-2.87803 z m -20.34958,5.75596 v 0 0 0 z m 19.27871,0.95937 c 0,1.05956 -0.959,1.91865 -2.14214,1.91865 h -14.99442 c -1.18314,0 -2.14215,-0.85909 -2.14215,-1.91865 v -0.95937 c 0,-1.05956 0.95901,-1.91865 2.14215,-1.91865 h 14.99429 c 1.18315,0 2.14214,0.85909 2.14214,1.91865 v 0.95937 z"
       id="path6"
       sodipodi:nodetypes="scccccsccscssccssssssccccccccccssssssscc" />
    <path
       style="fill:url(#linearGradient862);fill-opacity:1;stroke-width:0.122405"
       d="m 441.26487,501.05685 h -14.99429 c -1.18314,0 -2.16639,0.97609 -2.16639,2.18013 v 1.09026 c 0,1.20403 0.98325,2.18014 2.16639,2.18014 h 14.99429 c 1.18315,0 2.29726,-0.97643 2.32413,-2.18014 l 0.0242,-1.09026 c 1.2e-4,-1.20404 -1.16511,-2.18013 -2.34837,-2.18013 z"
       id="path8"
       sodipodi:nodetypes="ssssssscs" />
    <path
       class="st0"
       d="m 405.44643,529.39608 c 0.6375,0 1.125,-0.58522 1.125,-1.35053 0,-0.7653 -0.4875,-1.35053 -1.125,-1.35053 -0.6375,0 -1.125,0.58523 -1.125,1.35053 0,0.76531 0.4875,1.35053 1.125,1.35053 z m -9.75,0 c 0.6375,0 1.125,-0.58522 1.125,-1.35053 0,-0.7653 -0.4875,-1.35053 -1.125,-1.35053 -0.6375,0 -1.125,0.58523 -1.125,1.35053 0,0.76531 0.4875,1.35053 1.125,1.35053 z m 16.125,4.50163 c -0.375,-7.02264 -5.2875,-12.60464 -11.25,-12.60464 -5.9625,0 -10.875,5.582 -11.25,12.60464 z"
       id="path4-3"
       style="clip-rule:evenodd;fill:#a1cd32;fill-opacity:1;fill-rule:evenodd;stroke-width:0.410867" />
    <path
       class="st1"
       d="m 391.98393,516.92642 c 0.375,-0.27008 0.825,-0.09 1.0125,0.31509 l 2.325,4.63673 0.825,1.48566 -0.7125,0.49526 c -1.425,0.9903 -2.625,2.34071 -3.5625,3.96129 -0.075,0.18007 -0.1125,0.36017 -0.1125,0.54024 0,1.57563 2.625,2.83601 5.8875,2.83601 5.8125,0 10.5,-1.98069 10.5,-4.45667 0,-0.6752 -0.3375,-1.30539 -0.975,-1.84556 h 1.35 l 3.75,8.55305 h -4.875 v 1.35048 h -18.825 l 0.0375,-0.94531 c 0.2625,-4.63668 2.325,-8.64312 5.3625,-11.07408 l -2.25001,-4.6365 c -0.18749,-0.40509 -0.075,-0.99062 0.26251,-1.21569 z"
       id="path6-6"
       style="fill:#f0f0f0;fill-opacity:1;stroke-width:0.410867" />
    <path
       class="st2"
       d="m 406.53393,534.798 h 6.0375 l -0.0375,-0.94531 c -0.2625,-4.63668 -2.325,-8.64312 -5.3625,-11.07408 l 2.25,-4.6365 c 0.225,-0.4501 0.075,-0.99062 -0.2625,-1.21569 -0.33748,-0.22507 -0.825,-0.13504 -1.04999,0.31509 l -2.28751,4.63673 c -1.575,-0.94528 -3.375,-1.48545 -5.2875,-1.48545 -1.9125,0 -3.7125,0.54017 -5.325,1.48545 l 0.75,1.53067 v 0.0457 c 1.3875,-0.81024 2.925,-1.26042 4.575,-1.26042 5.2875,0 9.675,4.68167 10.3875,10.80386 h -4.38751 z"
       id="path8-7"
       style="fill:#263740;fill-opacity:1;stroke-width:0.410867" />
    <path
       class="fil1"
       d="m 395.80226,525.83 c 1.057,0 1.86529,0.87047 1.86529,1.86529 0,1.05699 -0.80829,1.86528 -1.86529,1.86528 -1.05699,0 -1.86528,-0.87047 -1.86528,-1.86528 0,-1.057 0.80829,-1.86529 1.86528,-1.86529 z m 1.11917,1.36788 c 0.24871,0 0.49741,0.18652 0.49741,0.49741 0,0.2487 -0.18652,0.49741 -0.49741,0.49741 -0.2487,0 -0.4974,-0.18653 -0.4974,-0.49741 0,-0.24871 0.18652,-0.49741 0.4974,-0.49741 z"
       id="path12"
       style="fill:#263740;fill-opacity:1;stroke-width:0.0621762;image-rendering:optimizeQuality;shape-rendering:geometricPrecision;text-rendering:geometricPrecision" />
    <path
       class="fil1"
       d="m 404.80226,525.73 c 1.057,0 1.86529,0.87047 1.86529,1.86528 0,1.057 -0.80829,1.86529 -1.86529,1.86529 -1.05699,0 -1.86528,-0.87047 -1.86528,-1.86529 0,-1.05699 0.80829,-1.86528 1.86528,-1.86528 z m 1.11917,1.36788 c 0.24871,0 0.49741,0.18652 0.49741,0.4974 0,0.24871 -0.18652,0.49742 -0.49741,0.49742 -0.2487,0 -0.4974,-0.18653 -0.4974,-0.49742 0,-0.2487 0.18652,-0.4974 0.4974,-0.4974 z"
       id="path12-3"
       style="fill:#263740;fill-opacity:1;stroke-width:0.0621762;image-rendering:optimizeQuality;shape-rendering:geometricPrecision;text-rendering:geometricPrecision" />
  </g>
</svg>
