<?xml version="1.0" encoding="UTF-8" standalone="no"?>
<svg
   width="64"
   version="1.1"
   height="64"
   id="svg15"
   sodipodi:docname="folder-openSUSE.svg"
   inkscape:version="1.1.1 (3bf5ae0d25, 2021-09-20)"
   xmlns:inkscape="http://www.inkscape.org/namespaces/inkscape"
   xmlns:sodipodi="http://sodipodi.sourceforge.net/DTD/sodipodi-0.dtd"
   xmlns:xlink="http://www.w3.org/1999/xlink"
   xmlns="http://www.w3.org/2000/svg"
   xmlns:svg="http://www.w3.org/2000/svg"
   xmlns:rdf="http://www.w3.org/1999/02/22-rdf-syntax-ns#"
   xmlns:cc="http://creativecommons.org/ns#"
   xmlns:dc="http://purl.org/dc/elements/1.1/">
  <sodipodi:namedview
     pagecolor="#ffffff"
     bordercolor="#666666"
     borderopacity="1"
     objecttolerance="10"
     gridtolerance="10"
     guidetolerance="10"
     inkscape:pageopacity="0"
     inkscape:pageshadow="2"
     inkscape:window-width="1920"
     inkscape:window-height="1007"
     id="namedview17"
     showgrid="true"
     inkscape:zoom="4.90625"
     inkscape:cx="23.43949"
     inkscape:cy="63.898089"
     inkscape:window-x="0"
     inkscape:window-y="0"
     inkscape:window-maximized="1"
     inkscape:current-layer="layer1"
     inkscape:document-rotation="0"
     showguides="false"
     inkscape:pagecheckerboard="0">
    <inkscape:grid
       type="xygrid"
       id="grid919" />
  </sodipodi:namedview>
  <defs
     id="defs5455">
    <linearGradient
       inkscape:collect="always"
       xlink:href="#linearGradient847"
       id="linearGradient858"
       x1="210.75999"
       y1="89.093002"
       x2="362.40799"
       y2="89.093002"
       gradientUnits="userSpaceOnUse"
       gradientTransform="matrix(0.12132762,0,0,0.12349046,385.57143,484.06629)" />
    <linearGradient
       inkscape:collect="always"
       xlink:href="#linearGradient847"
       id="linearGradient859"
       x1="0"
       y1="256.82327"
       x2="512"
       y2="256.82327"
       gradientUnits="userSpaceOnUse"
       gradientTransform="matrix(0.12132762,0,0,0.12349046,385.57143,484.06629)" />
    <linearGradient
       inkscape:collect="always"
       id="linearGradient847">
      <stop
         style="stop-color:#7192c1;stop-opacity:1"
         offset="0"
         id="stop843" />
      <stop
         style="stop-color:#3b5a87;stop-opacity:1"
         offset="1"
         id="stop845" />
    </linearGradient>
    <linearGradient
       inkscape:collect="always"
       xlink:href="#linearGradient847"
       id="linearGradient862"
       x1="476.689"
       y1="163.60085"
       x2="319.6994"
       y2="162.04736"
       gradientUnits="userSpaceOnUse"
       gradientTransform="matrix(0.12132762,0,0,0.12349046,385.57143,484.06629)" />
  </defs>
  <metadata
     id="metadata5458">
    <rdf:RDF>
      <cc:Work
         rdf:about="">
        <dc:format>image/svg+xml</dc:format>
        <dc:type
           rdf:resource="http://purl.org/dc/dcmitype/StillImage" />
      </cc:Work>
    </rdf:RDF>
  </metadata>
  <g
     inkscape:label="Capa 1"
     inkscape:groupmode="layer"
     id="layer1"
     transform="translate(-384.57143,-483.798)">
    <path
       style="fill:url(#linearGradient858);fill-opacity:1;stroke-width:0.122405"
       d="m 418.27991,496.76498 c 1.00234,1.00832 2.35492,1.57376 3.76434,1.57376 h 2.08431 5.41297 c -1.40942,0 -2.76196,-0.56544 -3.76434,-1.57376 l -3.37309,-3.39306 c -1.00265,-1.00849 -2.35506,-1.57392 -3.76429,-1.57392 h -7.49732 c 1.40923,0 2.76181,0.56543 3.76434,1.57392 z"
       id="path2" />
    <path
       style="fill:#3b5a87;fill-opacity:1;stroke-width:0.122405"
       d="m 407.40937,493.37192 3.37327,3.39306 c 1.00233,1.00832 2.35487,1.57376 3.76429,1.57376 h 2.08436 5.41296 c -1.40942,0 -2.762,-0.56544 -3.76434,-1.57376 l -3.37308,-3.39306 c -1.00265,-1.00849 -2.35511,-1.57392 -3.76434,-1.57392 h -7.36358 -0.13375 c 1.40942,0 2.76182,0.56556 3.76421,1.57392 z"
       id="path4" />
    <path
       style="fill:url(#linearGradient859);fill-opacity:1;stroke-width:0.114828"
       d="m 444.47801,497.55407 h -12.85238 -2.08437 -5.41295 -2.08431 -5.41271 -2.08436 c -1.40942,0 -2.76196,-0.4976 -3.76429,-1.38504 l -3.37327,-2.98601 c -1.00251,-0.88742 -2.35492,-1.38502 -3.76432,-1.38502 h -7.36334 -7.49714 c -1.7745,0 -3.21314,1.28851 -3.21314,2.87804 v 5.75606 0.95938 35.49546 c 0,1.58953 1.43864,2.87804 3.21314,2.87804 h 55.69344 c 1.7745,0 3.21314,-1.28851 3.21314,-2.87804 V 500.4321 c 0,-1.58964 -1.43864,-2.87803 -3.21314,-2.87803 z m -20.34958,5.75596 v 0 0 0 z m 19.27871,0.95937 c 0,1.05956 -0.959,1.91865 -2.14214,1.91865 h -14.99442 c -1.18314,0 -2.14215,-0.85909 -2.14215,-1.91865 v -0.95937 c 0,-1.05956 0.95901,-1.91865 2.14215,-1.91865 h 14.99429 c 1.18315,0 2.14214,0.85909 2.14214,1.91865 v 0.95937 z"
       id="path6"
       sodipodi:nodetypes="scccccsccscssccssssssccccccccccssssssscc" />
    <path
       style="fill:url(#linearGradient862);fill-opacity:1;stroke-width:0.122405"
       d="m 441.26487,501.05685 h -14.99429 c -1.18314,0 -2.16639,0.97609 -2.16639,2.18013 v 1.09026 c 0,1.20403 0.98325,2.18014 2.16639,2.18014 h 14.99429 c 1.18315,0 2.29726,-0.97643 2.32413,-2.18014 l 0.0242,-1.09026 c 1.2e-4,-1.20404 -1.16511,-2.18013 -2.34837,-2.18013 z"
       id="path8"
       sodipodi:nodetypes="ssssssscs" />
    <path
       style="color:#4d4d4d;font-size:20.4884px;font-family:TrebuchetMS-Bold;fill:#f2f2f2;fill-opacity:1;fill-rule:evenodd;stroke:none;stroke-width:0.171819;stroke-miterlimit:4"
       d="m 400.57143,510.798 c -6.62682,0 -12,5.37266 -12,12 0,6.62734 5.37318,12 12,12 6.62683,0 12,-5.37266 12,-12 0,-6.62734 -5.37317,-12 -12,-12 z m 0.0559,1.66169 c 5.70999,0 10.34253,4.62895 10.34253,10.33831 0,5.70986 -4.63324,10.33831 -10.34253,10.33831 -3.08313,0 -5.84976,-1.35126 -7.74369,-3.49176 0.77879,-0.60447 2.08164,-0.45719 3.68622,-0.27437 0.76893,0.0888 1.64557,0.18789 2.5503,0.20791 2.52773,0.0162 5.24735,-0.44661 6.92595,-1.18023 1.08522,-0.4758 1.77998,-0.78939 2.21432,-1.1843 0.15663,-0.12869 0.2389,-0.3431 0.32271,-0.56585 l 0.0559,-0.15044 c 0.0706,-0.17987 0.17127,-0.56678 0.21653,-0.77785 0.0208,-0.093 0.0292,-0.19176 -0.0358,-0.24298 l -0.23424,0.0448 c -0.73652,0.44171 -2.57668,1.28277 -4.30055,1.31691 -2.13618,0.0453 -6.4416,-2.15045 -6.89061,-2.38206 l -0.0448,-0.0522 c -0.10704,-0.25694 -0.75196,-1.78662 -0.8884,-2.10842 3.09903,2.04086 5.66842,3.17028 7.63758,3.34591 2.18942,0.19454 3.89721,-1.00081 4.62762,-1.51155 0.14254,-0.0971 0.25145,-0.17365 0.29614,-0.19013 l 0.0485,-0.0783 c -0.12109,-0.76958 -1.26981,-4.49348 -2.13479,-5.38784 -0.2398,-0.24531 -0.4305,-0.48406 -0.81769,-0.7116 -3.13088,-1.82482 -10.56464,-2.92383 -10.91272,-2.9746 l -0.0559,0.0187 -0.0224,0.0485 c 0,0 -0.0273,1.5436 -0.0298,1.7149 -0.25522,-0.0854 -1.04609,-0.34339 -2.17903,-0.65412 1.47824,-1.82908 3.74361,-3.45194 7.70817,-3.45194 z m 2.73157,5.47187 c 0.052,-6.7e-4 0.10466,-10e-4 0.15903,0 1.75393,0.0645 3.1318,1.54029 3.07184,3.29281 -0.03,0.84815 -0.38869,1.63137 -1.00778,2.21002 -0.6209,0.582 -1.42793,0.88508 -2.28054,0.85735 -1.75091,-0.0665 -3.12886,-1.54234 -3.07186,-3.29281 0.029,-0.84877 0.38931,-1.63739 1.01212,-2.21411 0.58154,-0.54529 1.32578,-0.84138 2.11719,-0.85326 z m -0.0843,0.93724 c -0.51081,0.0299 -0.99286,0.23832 -1.37018,0.59236 -0.43005,0.40365 -0.6838,0.95038 -0.70278,1.54224 -0.0417,1.22356 0.91694,2.25317 2.1392,2.29848 0.59403,0.0193 1.15748,-0.18971 1.59117,-0.59234 0.43253,-0.40558 0.68445,-0.95732 0.70273,-1.54674 0.0421,-1.22548 -0.92076,-2.25112 -2.14359,-2.294 -0.0737,-0.002 -0.14367,-0.003 -0.21655,0 z m 0.58341,1.10929 c 0.54315,0 0.98122,0.29519 0.98122,0.6584 0,0.36169 -0.43807,0.6588 -0.98122,0.6588 -0.54504,0 -0.98571,-0.29763 -0.98571,-0.6588 0,-0.36321 0.44067,-0.6584 0.98571,-0.6584 z"
       id="path2445"
       class="ColorScheme-Text"
       inkscape:connector-curvature="0" />
    <path
       class="st2"
       d="m 394.57143,512.398 c 2.73734,-1.6124 6.03715,-2.02495 9.11197,-1.2 3.07482,0.82496 5.80013,2.94971 7.37503,5.68705 1.57491,2.73734 1.92443,6.03715 1.09947,9.11197 -0.82495,3.07482 -2.84983,5.69966 -5.58717,7.27457 l -0.9503,-1.41259 c 2.39986,-1.38742 4.16254,-3.57462 4.875,-6.27446 0.71246,-2.69984 0.47492,-5.54968 -0.95,-7.94954 -1.38742,-2.39986 -3.57467,-4.06254 -6.27451,-4.775 -2.66234,-0.74996 -5.54967,-0.47469 -7.94953,0.95023 z"
       id="path8-3"
       style="clip-rule:evenodd;fill:#1f222d;fill-opacity:1;fill-rule:evenodd;stroke-width:0.374978"
       sodipodi:nodetypes="cccsccscccc" />
  </g>
</svg>
