<?xml version="1.0" encoding="UTF-8" standalone="no"?>
<svg
   width="64"
   version="1.1"
   height="64"
   id="svg15"
   sodipodi:docname="folder-Reddit.svg"
   inkscape:version="1.1.1 (3bf5ae0d25, 2021-09-20)"
   xmlns:inkscape="http://www.inkscape.org/namespaces/inkscape"
   xmlns:sodipodi="http://sodipodi.sourceforge.net/DTD/sodipodi-0.dtd"
   xmlns:xlink="http://www.w3.org/1999/xlink"
   xmlns="http://www.w3.org/2000/svg"
   xmlns:svg="http://www.w3.org/2000/svg"
   xmlns:rdf="http://www.w3.org/1999/02/22-rdf-syntax-ns#"
   xmlns:cc="http://creativecommons.org/ns#"
   xmlns:dc="http://purl.org/dc/elements/1.1/">
  <sodipodi:namedview
     pagecolor="#ffffff"
     bordercolor="#666666"
     borderopacity="1"
     objecttolerance="10"
     gridtolerance="10"
     guidetolerance="10"
     inkscape:pageopacity="0"
     inkscape:pageshadow="2"
     inkscape:window-width="1920"
     inkscape:window-height="1007"
     id="namedview17"
     showgrid="true"
     inkscape:zoom="9.8125"
     inkscape:cx="12.433121"
     inkscape:cy="52.33121"
     inkscape:window-x="0"
     inkscape:window-y="0"
     inkscape:window-maximized="1"
     inkscape:current-layer="layer1"
     inkscape:document-rotation="0"
     showguides="false"
     inkscape:pagecheckerboard="0">
    <inkscape:grid
       type="xygrid"
       id="grid919" />
  </sodipodi:namedview>
  <defs
     id="defs5455">
    <linearGradient
       inkscape:collect="always"
       xlink:href="#linearGradient847"
       id="linearGradient858"
       x1="210.75999"
       y1="89.093002"
       x2="362.40799"
       y2="89.093002"
       gradientUnits="userSpaceOnUse"
       gradientTransform="matrix(0.12132762,0,0,0.12349046,385.57143,484.06629)" />
    <linearGradient
       inkscape:collect="always"
       xlink:href="#linearGradient847"
       id="linearGradient859"
       x1="0"
       y1="256.82327"
       x2="512"
       y2="256.82327"
       gradientUnits="userSpaceOnUse"
       gradientTransform="matrix(0.12132762,0,0,0.12349046,385.57143,484.06629)" />
    <linearGradient
       inkscape:collect="always"
       id="linearGradient847">
      <stop
         style="stop-color:#7192c1;stop-opacity:1"
         offset="0"
         id="stop843" />
      <stop
         style="stop-color:#3b5a87;stop-opacity:1"
         offset="1"
         id="stop845" />
    </linearGradient>
    <linearGradient
       inkscape:collect="always"
       xlink:href="#linearGradient847"
       id="linearGradient862"
       x1="476.689"
       y1="163.60085"
       x2="319.6994"
       y2="162.04736"
       gradientUnits="userSpaceOnUse"
       gradientTransform="matrix(0.12132762,0,0,0.12349046,385.57143,484.06629)" />
  </defs>
  <metadata
     id="metadata5458">
    <rdf:RDF>
      <cc:Work
         rdf:about="">
        <dc:format>image/svg+xml</dc:format>
        <dc:type
           rdf:resource="http://purl.org/dc/dcmitype/StillImage" />
      </cc:Work>
    </rdf:RDF>
  </metadata>
  <g
     inkscape:label="Capa 1"
     inkscape:groupmode="layer"
     id="layer1"
     transform="translate(-384.57143,-483.798)">
    <path
       style="fill:url(#linearGradient858);fill-opacity:1;stroke-width:0.122405"
       d="m 418.27991,496.76498 c 1.00234,1.00832 2.35492,1.57376 3.76434,1.57376 h 2.08431 5.41297 c -1.40942,0 -2.76196,-0.56544 -3.76434,-1.57376 l -3.37309,-3.39306 c -1.00265,-1.00849 -2.35506,-1.57392 -3.76429,-1.57392 h -7.49732 c 1.40923,0 2.76181,0.56543 3.76434,1.57392 z"
       id="path2" />
    <path
       style="fill:#3b5a87;fill-opacity:1;stroke-width:0.122405"
       d="m 407.40937,493.37192 3.37327,3.39306 c 1.00233,1.00832 2.35487,1.57376 3.76429,1.57376 h 2.08436 5.41296 c -1.40942,0 -2.762,-0.56544 -3.76434,-1.57376 l -3.37308,-3.39306 c -1.00265,-1.00849 -2.35511,-1.57392 -3.76434,-1.57392 h -7.36358 -0.13375 c 1.40942,0 2.76182,0.56556 3.76421,1.57392 z"
       id="path4" />
    <path
       style="fill:url(#linearGradient859);fill-opacity:1;stroke-width:0.114828"
       d="m 444.47801,497.55407 h -12.85238 -2.08437 -5.41295 -2.08431 -5.41271 -2.08436 c -1.40942,0 -2.76196,-0.4976 -3.76429,-1.38504 l -3.37327,-2.98601 c -1.00251,-0.88742 -2.35492,-1.38502 -3.76432,-1.38502 h -7.36334 -7.49714 c -1.7745,0 -3.21314,1.28851 -3.21314,2.87804 v 5.75606 0.95938 35.49546 c 0,1.58953 1.43864,2.87804 3.21314,2.87804 h 55.69344 c 1.7745,0 3.21314,-1.28851 3.21314,-2.87804 V 500.4321 c 0,-1.58964 -1.43864,-2.87803 -3.21314,-2.87803 z m -20.34958,5.75596 v 0 0 z m 19.27871,0.95937 c 0,1.05956 -0.959,1.91865 -2.14214,1.91865 h -14.99442 c -1.18314,0 -2.14215,-0.85909 -2.14215,-1.91865 v -0.95937 c 0,-1.05956 0.95901,-1.91865 2.14215,-1.91865 h 14.99429 c 1.18315,0 2.14214,0.85909 2.14214,1.91865 v 0.95937 z"
       id="path6"
       sodipodi:nodetypes="scccccsccscssccssssssccccccccccssssssscc" />
    <path
       style="fill:url(#linearGradient862);fill-opacity:1;stroke-width:0.122405"
       d="m 441.26487,501.05685 h -14.99429 c -1.18314,0 -2.16639,0.97609 -2.16639,2.18013 v 1.09026 c 0,1.20403 0.98325,2.18014 2.16639,2.18014 h 14.99429 c 1.18315,0 2.29726,-0.97643 2.32413,-2.18014 l 0.0242,-1.09026 c 1.2e-4,-1.20404 -1.16511,-2.18013 -2.34837,-2.18013 z"
       id="path8"
       sodipodi:nodetypes="ssssssscs" />
    <path
       class="st1"
       d="m 400.57073,512.29931 c -5.81216,0 -10.49939,4.68723 -10.49939,10.49939 0,5.81216 4.68723,10.49938 10.49939,10.49938 5.81216,0 10.49939,-4.68722 10.49939,-10.49938 h 0.74995 c 0,4.34974 -1.5749,8.17452 -5.0622,10.2744 -1.7999,1.08744 -3.93727,1.7249 -6.18714,1.7249 -6.63711,0 -11.9993,-5.36219 -11.9993,-11.9993 0,-4.49974 2.51235,-8.43701 6.18714,-10.49939 1.7249,-0.93745 3.71228,-0.74996 5.81216,-0.74996 z"
       id="path6-3"
       sodipodi:nodetypes="csscccssccc"
       style="clip-rule:evenodd;fill:#1f222d;fill-opacity:1;fill-rule:evenodd;stroke-width:0.374978" />
    <path
       class="st2"
       d="m 394.57108,512.4118 c 2.73734,-1.6124 6.03715,-2.02488 9.11197,-1.19993 3.07482,0.82496 5.69967,2.84984 7.27457,5.58718 1.57491,2.73734 2.02489,6.03715 1.19993,9.11197 -0.82495,3.07482 -2.84983,5.69966 -5.58717,7.27457 l -0.74996,-1.31242 c 2.39986,-1.38742 4.16226,-3.67479 4.87472,-6.37463 0.71246,-2.69984 0.37498,-5.54968 -1.04994,-7.94954 -1.38742,-2.39986 -3.67479,-4.16225 -6.37463,-4.87471 -2.66234,-0.74996 -5.54967,-0.37498 -7.94953,1.04994 z"
       id="path8-6"
       style="clip-rule:evenodd;fill:#f0f0f0;fill-opacity:1;fill-rule:evenodd;stroke-width:0.374978" />
    <path
       class="st3"
       d="m 397.6834,527.18594 c 0.18749,-0.26248 0.52497,-0.33748 0.78745,-0.14999 0.48747,0.33748 1.16243,0.63746 2.13738,0.63746 0.97494,0 1.6124,-0.33748 2.13737,-0.63746 0.26249,-0.18749 0.59997,-0.11249 0.78746,0.14999 0.18749,0.26249 0.11249,0.59997 -0.14999,0.78746 -0.67496,0.41247 -1.53741,0.82495 -2.81234,0.82495 -1.27492,0 -2.13738,-0.41248 -2.73734,-0.86245 -0.26248,-0.14999 -0.33748,-0.48747 -0.14999,-0.74996 z m 5.69967,-1.76239 c 0.71245,0 1.31242,-0.59997 1.31242,-1.31243 0,-0.71246 -0.59997,-1.31242 -1.31242,-1.31242 -0.71246,0 -1.31243,0.59996 -1.31243,1.31242 0,0.71246 0.59997,1.31243 1.31243,1.31243 z m -5.62468,0 c 0.71246,0 1.31243,-0.59997 1.31243,-1.31243 0,-0.71246 -0.59997,-1.31242 -1.31243,-1.31242 -0.71245,0 -1.31242,0.59996 -1.31242,1.31242 0,0.71246 0.59997,1.31243 1.31242,1.31243 z m 3.71229,-10.12441 c -0.18749,-0.0375 -0.41248,0 -0.56247,0.11249 -0.14999,0.11249 -0.26248,0.29998 -0.29998,0.48747 l -0.71246,3.89977 c -1.94989,0.1125 -3.71228,0.78746 -4.94971,1.7624 -0.26249,-0.18749 -0.59997,-0.26249 -0.93745,-0.26249 -0.93744,0 -1.6874,0.74996 -1.6874,1.68741 0,0.59996 0.33748,1.12493 0.78746,1.42491 -0.0375,0.22499 -0.0375,0.41248 -0.0375,0.63747 0,2.88733 3.3748,5.24969 7.49956,5.24969 4.12476,0 7.49956,-2.36236 7.49956,-5.24969 0,-0.22499 0,-0.41248 -0.0375,-0.63747 0.48747,-0.29998 0.78746,-0.82495 0.78746,-1.42491 0,-0.93745 -0.74996,-1.68741 -1.6874,-1.68741 -0.33749,0 -0.67496,0.1125 -0.93745,0.26249 -1.19993,-0.97494 -2.88733,-1.61241 -4.79972,-1.7624 l 0.52497,-2.88733 1.7249,0.33748 c 0.18749,0.59997 0.74996,1.01244 1.42492,1.01244 0.82495,0 1.49991,-0.67496 1.49991,-1.49991 0,-0.82495 -0.67496,-1.49991 -1.49991,-1.49991 -0.44998,0 -0.86245,0.18749 -1.12494,0.52497 z"
       id="path10"
       style="clip-rule:evenodd;fill:#f0f0f0;fill-opacity:1;fill-rule:evenodd;stroke-width:0.374978" />
  </g>
</svg>
