<?xml version="1.0" encoding="UTF-8" standalone="no"?>
<svg
   width="64"
   version="1.1"
   height="64"
   id="svg15"
   sodipodi:docname="folder-KDE.svg"
   inkscape:version="1.1.1 (3bf5ae0d25, 2021-09-20)"
   xmlns:inkscape="http://www.inkscape.org/namespaces/inkscape"
   xmlns:sodipodi="http://sodipodi.sourceforge.net/DTD/sodipodi-0.dtd"
   xmlns:xlink="http://www.w3.org/1999/xlink"
   xmlns="http://www.w3.org/2000/svg"
   xmlns:svg="http://www.w3.org/2000/svg"
   xmlns:rdf="http://www.w3.org/1999/02/22-rdf-syntax-ns#"
   xmlns:cc="http://creativecommons.org/ns#"
   xmlns:dc="http://purl.org/dc/elements/1.1/">
  <sodipodi:namedview
     pagecolor="#ffffff"
     bordercolor="#666666"
     borderopacity="1"
     objecttolerance="10"
     gridtolerance="10"
     guidetolerance="10"
     inkscape:pageopacity="0"
     inkscape:pageshadow="2"
     inkscape:window-width="1920"
     inkscape:window-height="1007"
     id="namedview17"
     showgrid="true"
     inkscape:zoom="13.876971"
     inkscape:cx="8.7915442"
     inkscape:cy="34.769837"
     inkscape:window-x="0"
     inkscape:window-y="0"
     inkscape:window-maximized="1"
     inkscape:current-layer="layer1"
     inkscape:document-rotation="0"
     showguides="false"
     inkscape:pagecheckerboard="0">
    <inkscape:grid
       type="xygrid"
       id="grid919" />
  </sodipodi:namedview>
  <defs
     id="defs5455">
    <linearGradient
       inkscape:collect="always"
       xlink:href="#linearGradient847"
       id="linearGradient858"
       x1="210.75999"
       y1="89.093002"
       x2="362.40799"
       y2="89.093002"
       gradientUnits="userSpaceOnUse"
       gradientTransform="matrix(0.12132762,0,0,0.12349046,385.57143,484.06629)" />
    <linearGradient
       inkscape:collect="always"
       xlink:href="#linearGradient847"
       id="linearGradient859"
       x1="0"
       y1="256.82327"
       x2="512"
       y2="256.82327"
       gradientUnits="userSpaceOnUse"
       gradientTransform="matrix(0.12132762,0,0,0.12349046,385.57143,484.06629)" />
    <linearGradient
       inkscape:collect="always"
       id="linearGradient847">
      <stop
         style="stop-color:#7192c1;stop-opacity:1"
         offset="0"
         id="stop843" />
      <stop
         style="stop-color:#3b5a87;stop-opacity:1"
         offset="1"
         id="stop845" />
    </linearGradient>
    <linearGradient
       inkscape:collect="always"
       xlink:href="#linearGradient847"
       id="linearGradient862"
       x1="476.689"
       y1="163.60085"
       x2="319.6994"
       y2="162.04736"
       gradientUnits="userSpaceOnUse"
       gradientTransform="matrix(0.12132762,0,0,0.12349046,385.57143,484.06629)" />
  </defs>
  <metadata
     id="metadata5458">
    <rdf:RDF>
      <cc:Work
         rdf:about="">
        <dc:format>image/svg+xml</dc:format>
        <dc:type
           rdf:resource="http://purl.org/dc/dcmitype/StillImage" />
      </cc:Work>
    </rdf:RDF>
  </metadata>
  <g
     inkscape:label="Capa 1"
     inkscape:groupmode="layer"
     id="layer1"
     transform="translate(-384.57143,-483.798)">
    <path
       style="fill:url(#linearGradient858);fill-opacity:1;stroke-width:0.122405"
       d="m 418.27991,496.76498 c 1.00234,1.00832 2.35492,1.57376 3.76434,1.57376 h 2.08431 5.41297 c -1.40942,0 -2.76196,-0.56544 -3.76434,-1.57376 l -3.37309,-3.39306 c -1.00265,-1.00849 -2.35506,-1.57392 -3.76429,-1.57392 h -7.49732 c 1.40923,0 2.76181,0.56543 3.76434,1.57392 z"
       id="path2" />
    <path
       style="fill:#3b5a87;fill-opacity:1;stroke-width:0.122405"
       d="m 407.40937,493.37192 3.37327,3.39306 c 1.00233,1.00832 2.35487,1.57376 3.76429,1.57376 h 2.08436 5.41296 c -1.40942,0 -2.762,-0.56544 -3.76434,-1.57376 l -3.37308,-3.39306 c -1.00265,-1.00849 -2.35511,-1.57392 -3.76434,-1.57392 h -7.36358 -0.13375 c 1.40942,0 2.76182,0.56556 3.76421,1.57392 z"
       id="path4" />
    <path
       style="fill:url(#linearGradient859);fill-opacity:1;stroke-width:0.114828"
       d="m 444.47801,497.55407 h -12.85238 -2.08437 -5.41295 -2.08431 -5.41271 -2.08436 c -1.40942,0 -2.76196,-0.4976 -3.76429,-1.38504 l -3.37327,-2.98601 c -1.00251,-0.88742 -2.35492,-1.38502 -3.76432,-1.38502 h -7.36334 -7.49714 c -1.7745,0 -3.21314,1.28851 -3.21314,2.87804 v 5.75606 0.95938 35.49546 c 0,1.58953 1.43864,2.87804 3.21314,2.87804 h 55.69344 c 1.7745,0 3.21314,-1.28851 3.21314,-2.87804 V 500.4321 c 0,-1.58964 -1.43864,-2.87803 -3.21314,-2.87803 z m -20.34958,5.75596 v 0 0 0 z m 19.27871,0.95937 c 0,1.05956 -0.959,1.91865 -2.14214,1.91865 h -14.99442 c -1.18314,0 -2.14215,-0.85909 -2.14215,-1.91865 v -0.95937 c 0,-1.05956 0.95901,-1.91865 2.14215,-1.91865 h 14.99429 c 1.18315,0 2.14214,0.85909 2.14214,1.91865 v 0.95937 z"
       id="path6"
       sodipodi:nodetypes="scccccsccscssccssssssccccccccccssssssscc" />
    <path
       style="fill:url(#linearGradient862);fill-opacity:1;stroke-width:0.122405"
       d="m 441.26487,501.05685 h -14.99429 c -1.18314,0 -2.16639,0.97609 -2.16639,2.18013 v 1.09026 c 0,1.20403 0.98325,2.18014 2.16639,2.18014 h 14.99429 c 1.18315,0 2.29726,-0.97643 2.32413,-2.18014 l 0.0242,-1.09026 c 1.2e-4,-1.20404 -1.16511,-2.18013 -2.34837,-2.18013 z"
       id="path8"
       sodipodi:nodetypes="ssssssscs" />
    <path
       style="fill:#f2f2f2;fill-opacity:1;stroke-width:1.03405"
       d="m 400.98022,510.798 -4.13612,0.62609 v 14.96124 l 4.13612,-1.1108 v -5.78007 l 4.1362,6.81412 4.13611,-1.55112 -5.17016,-6.20421 5.17219,-6.71917 -4.01295,-1.03608 -4.26139,6.78184 z m -8.42174,4.05742 c -0.0978,0 -0.19559,0.0379 -0.27065,0.11308 l -1.62575,1.62575 c -0.14999,0.15005 -0.11385,0.36432 0,0.54325 l 1.68234,2.64167 c -0.12465,0.25875 -0.2326,0.52521 -0.32317,0.79779 -0.004,0.0113 -0.01,0.0226 -0.0145,0.034 l -3.05159,0.6786 c -0.20706,0.0461 -0.38373,0.17156 -0.38373,0.38367 v 1.01592 1.01583 c 0,0.21211 0.17667,0.33773 0.38373,0.38374 l 3.05159,0.67861 c 0.006,0.0202 0.0176,0.0389 0.0242,0.0582 0.0885,0.26472 0.19275,0.52374 0.31309,0.77551 l -1.68234,2.63963 c -0.11393,0.17897 -0.15004,0.39328 0,0.54325 l 1.62575,1.62583 c 0.15005,0.14996 0.39125,0.14996 0.5413,0 l 2.6376,-1.68032 c 0.25929,0.12608 0.5264,0.23539 0.79974,0.32716 0.0182,0.006 0.0342,0.0163 0.0524,0.0223 l 0.67657,3.04963 c 0,0.21211 0.17155,0.38373 0.38374,0.38373 h 2.2963 c 0.21211,0 0.33765,-0.17666 0.38365,-0.38373 l 0.67658,-3.14253 c 0.31087,-0.11682 0.61265,-0.25657 0.90278,-0.41806 l 2.57497,1.84192 c 0.15005,0.14997 0.39125,0.14997 0.5413,0 l 1.62574,-1.62582 c 0.15005,-0.14997 0.11394,-0.36428 0,-0.54325 l -0.97949,-1.48641 -0.103,0.0387 c -0.23291,0.0878 -0.4951,-0.003 -0.62406,-0.2161 l -1.02998,-1.69648 c -0.85813,2.05275 -2.88489,3.49589 -5.24894,3.49589 -3.14098,0 -5.68723,-2.54625 -5.68723,-5.68715 0,-2.41032 1.50225,-4.46537 3.61913,-5.29342 v -1.13299 l -0.008,0.0366 c -0.0229,0.007 -0.044,0.0204 -0.0668,0.0281 -0.26967,0.0898 -0.53343,0.19615 -0.78966,0.31909 l -2.63355,-1.67827 c -0.0749,-0.0749 -0.17282,-0.11312 -0.27065,-0.11312 z"
       class="ColorScheme-Text"
       id="path10-7-7" />
    <path
       id="Power-s-5"
       class="st1"
       d="m 411.32063,523.9406 v 0 h -1.55109 v 0 c 0,5.15728 -5.18308,9.30637 -10.34035,9.30637 v 1.55103 c 6.01031,0 11.89144,-4.84708 11.89144,-10.8574 z"
       style="fill:#1f222d;fill-opacity:1;stroke-width:0.387766"
       sodipodi:nodetypes="ccccccc" />
  </g>
</svg>
