<?xml version="1.0" encoding="UTF-8" standalone="no"?>
<svg
   width="64"
   version="1.1"
   height="64"
   id="svg15"
   sodipodi:docname="folder-build.svg"
   inkscape:version="1.1.1 (3bf5ae0d25, 2021-09-20)"
   xmlns:inkscape="http://www.inkscape.org/namespaces/inkscape"
   xmlns:sodipodi="http://sodipodi.sourceforge.net/DTD/sodipodi-0.dtd"
   xmlns:xlink="http://www.w3.org/1999/xlink"
   xmlns="http://www.w3.org/2000/svg"
   xmlns:svg="http://www.w3.org/2000/svg"
   xmlns:rdf="http://www.w3.org/1999/02/22-rdf-syntax-ns#"
   xmlns:cc="http://creativecommons.org/ns#"
   xmlns:dc="http://purl.org/dc/elements/1.1/">
  <sodipodi:namedview
     pagecolor="#ffffff"
     bordercolor="#666666"
     borderopacity="1"
     objecttolerance="10"
     gridtolerance="10"
     guidetolerance="10"
     inkscape:pageopacity="0"
     inkscape:pageshadow="2"
     inkscape:window-width="1920"
     inkscape:window-height="1007"
     id="namedview17"
     showgrid="true"
     inkscape:zoom="9.8125"
     inkscape:cx="13.757962"
     inkscape:cy="45.605096"
     inkscape:window-x="0"
     inkscape:window-y="0"
     inkscape:window-maximized="1"
     inkscape:current-layer="layer1"
     inkscape:document-rotation="0"
     showguides="false"
     inkscape:pagecheckerboard="0">
    <inkscape:grid
       type="xygrid"
       id="grid919" />
  </sodipodi:namedview>
  <defs
     id="defs5455">
    <linearGradient
       inkscape:collect="always"
       xlink:href="#linearGradient847"
       id="linearGradient858"
       x1="210.75999"
       y1="89.093002"
       x2="362.40799"
       y2="89.093002"
       gradientUnits="userSpaceOnUse"
       gradientTransform="matrix(0.12132762,0,0,0.12349046,385.57143,484.06629)" />
    <linearGradient
       inkscape:collect="always"
       xlink:href="#linearGradient847"
       id="linearGradient859"
       x1="0"
       y1="256.82327"
       x2="512"
       y2="256.82327"
       gradientUnits="userSpaceOnUse"
       gradientTransform="matrix(0.12132762,0,0,0.12349046,385.57143,484.06629)" />
    <linearGradient
       inkscape:collect="always"
       id="linearGradient847">
      <stop
         style="stop-color:#7192c1;stop-opacity:1"
         offset="0"
         id="stop843" />
      <stop
         style="stop-color:#3b5a87;stop-opacity:1"
         offset="1"
         id="stop845" />
    </linearGradient>
    <linearGradient
       inkscape:collect="always"
       xlink:href="#linearGradient847"
       id="linearGradient862"
       x1="476.689"
       y1="163.60085"
       x2="319.6994"
       y2="162.04736"
       gradientUnits="userSpaceOnUse"
       gradientTransform="matrix(0.12132762,0,0,0.12349046,385.57143,484.06629)" />
    <linearGradient
       inkscape:collect="always"
       xlink:href="#linearGradient1154"
       id="linearGradient1156"
       x1="425.57144"
       y1="522.79797"
       x2="431.57144"
       y2="524.79797"
       gradientUnits="userSpaceOnUse"
       gradientTransform="translate(-25.34961,0.03711)" />
    <linearGradient
       inkscape:collect="always"
       id="linearGradient1154">
      <stop
         style="stop-color:#ffffff;stop-opacity:1"
         offset="0"
         id="stop1150" />
      <stop
         style="stop-color:#1a1a1a;stop-opacity:1"
         offset="0.06666645"
         id="stop1768" />
      <stop
         style="stop-color:#232629;stop-opacity:1"
         offset="1"
         id="stop1152" />
    </linearGradient>
  </defs>
  <metadata
     id="metadata5458">
    <rdf:RDF>
      <cc:Work
         rdf:about="">
        <dc:format>image/svg+xml</dc:format>
        <dc:type
           rdf:resource="http://purl.org/dc/dcmitype/StillImage" />
      </cc:Work>
    </rdf:RDF>
  </metadata>
  <g
     inkscape:label="Capa 1"
     inkscape:groupmode="layer"
     id="layer1"
     transform="translate(-384.57143,-483.798)">
    <path
       style="fill:url(#linearGradient858);fill-opacity:1;stroke-width:0.122405"
       d="m 418.27991,496.76498 c 1.00234,1.00832 2.35492,1.57376 3.76434,1.57376 h 2.08431 5.41297 c -1.40942,0 -2.76196,-0.56544 -3.76434,-1.57376 l -3.37309,-3.39306 c -1.00265,-1.00849 -2.35506,-1.57392 -3.76429,-1.57392 h -7.49732 c 1.40923,0 2.76181,0.56543 3.76434,1.57392 z"
       id="path2" />
    <path
       style="fill:#3b5a87;fill-opacity:1;stroke-width:0.122405"
       d="m 407.40937,493.37192 3.37327,3.39306 c 1.00233,1.00832 2.35487,1.57376 3.76429,1.57376 h 2.08436 5.41296 c -1.40942,0 -2.762,-0.56544 -3.76434,-1.57376 l -3.37308,-3.39306 c -1.00265,-1.00849 -2.35511,-1.57392 -3.76434,-1.57392 h -7.36358 -0.13375 c 1.40942,0 2.76182,0.56556 3.76421,1.57392 z"
       id="path4" />
    <path
       style="fill:url(#linearGradient859);fill-opacity:1;stroke-width:0.114828"
       d="m 444.47801,497.55407 h -12.85238 -2.08437 -5.41295 -2.08431 -5.41271 -2.08436 c -1.40942,0 -2.76196,-0.4976 -3.76429,-1.38504 l -3.37327,-2.98601 c -1.00251,-0.88742 -2.35492,-1.38502 -3.76432,-1.38502 h -7.36334 -7.49714 c -1.7745,0 -3.21314,1.28851 -3.21314,2.87804 v 5.75606 0.95938 35.49546 c 0,1.58953 1.43864,2.87804 3.21314,2.87804 h 55.69344 c 1.7745,0 3.21314,-1.28851 3.21314,-2.87804 V 500.4321 c 0,-1.58964 -1.43864,-2.87803 -3.21314,-2.87803 z m -20.34958,5.75596 v 0 0 0 z m 19.27871,0.95937 c 0,1.05956 -0.959,1.91865 -2.14214,1.91865 h -14.99442 c -1.18314,0 -2.14215,-0.85909 -2.14215,-1.91865 v -0.95937 c 0,-1.05956 0.95901,-1.91865 2.14215,-1.91865 h 14.99429 c 1.18315,0 2.14214,0.85909 2.14214,1.91865 v 0.95937 z"
       id="path6"
       sodipodi:nodetypes="scccccsccscssccssssssccccccccccssssssscc" />
    <path
       style="fill:url(#linearGradient862);fill-opacity:1;stroke-width:0.122405"
       d="m 441.26487,501.05685 h -14.99429 c -1.18314,0 -2.16639,0.97609 -2.16639,2.18013 v 1.09026 c 0,1.20403 0.98325,2.18014 2.16639,2.18014 h 14.99429 c 1.18315,0 2.29726,-0.97643 2.32413,-2.18014 l 0.0242,-1.09026 c 1.2e-4,-1.20404 -1.16511,-2.18013 -2.34837,-2.18013 z"
       id="path8"
       sodipodi:nodetypes="ssssssscs" />
    <path
       style="color:#232629;fill:url(#linearGradient1156);fill-opacity:1;stroke:none"
       d="m 409.3683,510.798 -0.31054,1.06054 c -0.636,-0.053 -1.27672,0.0171 -1.88672,0.20508 l -0.5293,-0.96875 -1.75586,0.95899 0.5293,0.96875 c -0.489,0.412 -0.89336,0.91256 -1.19336,1.47656 l -1.05664,-0.30859 -0.5625,1.91796 1.06054,0.31055 c -0.053,0.636 0.0151,1.27867 0.20313,1.88867 l -0.96875,0.5293 0.95898,1.75586 0.96875,-0.53125 c 0.412,0.489 0.91452,0.89531 1.47852,1.19531 l -0.31055,1.05664 1.91992,0.5625 0.31055,-1.06054 c 0.636,0.053 1.27672,-0.0171 1.88672,-0.20508 l 0.53125,0.96875 1.75391,-0.95899 -0.5293,-0.96875 c 0.489,-0.412 0.89336,-0.91256 1.19336,-1.47656 l 1.05664,0.30859 0.5625,-1.91796 -1.06055,-0.31055 c 0.053,-0.636 -0.0151,-1.27867 -0.20312,-1.88867 l 0.96875,-0.5293 -0.95899,-1.75586 -0.96875,0.53125 c -0.412,-0.489 -0.91451,-0.89531 -1.47851,-1.19531 l 0.31054,-1.05664 z m -0.98828,2.04883 c 0.19847,-0.0129 0.39873,-0.0109 0.59766,0.006 0.26523,0.0223 0.52981,0.0705 0.78906,0.14648 0.998,0.293 1.84347,0.96314 2.35547,1.86914 0.532,0.94 0.66142,2.05675 0.35742,3.09375 -0.293,0.998 -0.96314,1.84347 -1.86914,2.35547 -0.94,0.532 -2.05675,0.66142 -3.09375,0.35742 -0.998,-0.293 -1.84542,-0.96314 -2.35742,-1.86914 -0.532,-0.94 -0.66142,-2.05675 -0.35742,-3.09375 0.293,-0.998 0.96314,-1.84347 1.86914,-2.35547 0.52875,-0.29925 1.11358,-0.47098 1.70898,-0.50976 z m -13.33008,2.92187 -1.99023,0.19531 0.10742,1.09961 c -0.61,0.188 -1.17783,0.49058 -1.67383,0.89258 l -0.85547,-0.70117 -1.26953,1.54492 0.85352,0.70117 c -0.3,0.565 -0.48669,1.18236 -0.55469,1.81836 l -1.0957,0.10742 0.19531,1.99024 1.09961,-0.10742 c 0.188,0.61 0.49058,1.17782 0.89258,1.67382 l -0.70117,0.85547 1.54492,1.26953 0.70117,-0.85351 c 0.565,0.3 1.18236,0.48669 1.81836,0.55469 l 0.10742,1.0957 1.99024,-0.19531 -0.10743,-1.09961 c 0.61,-0.188 1.17783,-0.49058 1.67383,-0.89258 l 0.85547,0.70117 1.26953,-1.54492 -0.85351,-0.70117 c 0.3,-0.565 0.48668,-1.18236 0.55468,-1.81836 l 1.09571,-0.10742 -0.19532,-1.99024 -1.09961,0.10742 c -0.188,-0.61 -0.49057,-1.17782 -0.89257,-1.67382 l 0.70117,-0.85547 -1.54492,-1.26953 -0.70118,0.85351 c -0.565,-0.3 -1.18235,-0.48669 -1.81835,-0.55469 z m -0.0273,2.08594 c 0.76604,0.0737 1.50083,0.36872 2.11133,0.85547 0.845,0.674 1.38133,1.66032 1.48633,2.73632 0.102,1.03601 -0.20452,2.07077 -0.85352,2.88477 -0.674,0.845 -1.66228,1.38133 -2.73828,1.48633 -1.036,0.102 -2.06881,-0.20452 -2.88281,-0.85352 -0.845,-0.674 -1.38133,-1.66228 -1.48633,-2.73828 -0.102,-1.036 0.20452,-2.06881 0.85352,-2.88281 0.674,-0.845 1.66033,-1.38133 2.73633,-1.48633 0.259,-0.0256 0.51809,-0.0265 0.77343,-0.002 z m 8.61719,3.98242 v 1.10547 c -0.626,0.128 -1.22091,0.37456 -1.75391,0.72656 l -0.78125,-0.78125 -1.41406,1.41406 0.78125,0.78125 c -0.353,0.533 -0.60147,1.12791 -0.73047,1.75391 h -1.10156 v 2 h 1.10547 c 0.128,0.626 0.37456,1.22091 0.72656,1.75391 l -0.78125,0.78125 1.41406,1.41406 0.78125,-0.78125 c 0.533,0.353 1.12791,0.60147 1.75391,0.73047 v 1.10156 h 2 v -1.10547 c 0.626,-0.128 1.2209,-0.37456 1.7539,-0.72656 l 0.78125,0.78125 1.41407,-1.41406 -0.78125,-0.78125 c 0.353,-0.533 0.60146,-1.12791 0.73046,-1.75391 h 1.10157 v -2 h -1.10547 c -0.128,-0.626 -0.37456,-1.22091 -0.72656,-1.75391 l 0.78125,-0.78125 -1.41407,-1.41406 -0.78125,0.78125 c -0.533,-0.353 -1.1279,-0.60147 -1.7539,-0.73047 v -1.10156 z m 1,2 c 1.041,0 2.04011,0.40586 2.78711,1.13086 0.775,0.753 1.21289,1.78814 1.21289,2.86914 0,1.041 -0.40586,2.04011 -1.13086,2.78711 -0.753,0.775 -1.78814,1.21289 -2.86914,1.21289 -1.041,0 -2.04011,-0.40586 -2.78711,-1.13086 -0.775,-0.753 -1.21289,-1.78814 -1.21289,-2.86914 0,-1.041 0.40586,-2.04011 1.13086,-2.78711 0.753,-0.775 1.78814,-1.21289 2.86914,-1.21289 z"
       class="ColorScheme-Text"
       id="path12" />
  </g>
</svg>
