<?xml version="1.0" encoding="UTF-8" standalone="no"?>
<svg
   width="64"
   version="1.1"
   height="64"
   id="svg15"
   sodipodi:docname="folder-development.svg"
   inkscape:version="1.1.1 (3bf5ae0d25, 2021-09-20)"
   xmlns:inkscape="http://www.inkscape.org/namespaces/inkscape"
   xmlns:sodipodi="http://sodipodi.sourceforge.net/DTD/sodipodi-0.dtd"
   xmlns:xlink="http://www.w3.org/1999/xlink"
   xmlns="http://www.w3.org/2000/svg"
   xmlns:svg="http://www.w3.org/2000/svg"
   xmlns:rdf="http://www.w3.org/1999/02/22-rdf-syntax-ns#"
   xmlns:cc="http://creativecommons.org/ns#"
   xmlns:dc="http://purl.org/dc/elements/1.1/">
  <sodipodi:namedview
     pagecolor="#ffffff"
     bordercolor="#666666"
     borderopacity="1"
     objecttolerance="10"
     gridtolerance="10"
     guidetolerance="10"
     inkscape:pageopacity="0"
     inkscape:pageshadow="2"
     inkscape:window-width="1920"
     inkscape:window-height="1007"
     id="namedview17"
     showgrid="true"
     inkscape:zoom="9.8125"
     inkscape:cx="12.840764"
     inkscape:cy="31.133758"
     inkscape:window-x="0"
     inkscape:window-y="0"
     inkscape:window-maximized="1"
     inkscape:current-layer="layer1"
     inkscape:document-rotation="0"
     showguides="false"
     inkscape:pagecheckerboard="0">
    <inkscape:grid
       type="xygrid"
       id="grid919" />
  </sodipodi:namedview>
  <defs
     id="defs5455">
    <linearGradient
       inkscape:collect="always"
       xlink:href="#linearGradient847"
       id="linearGradient858"
       x1="210.75999"
       y1="89.093002"
       x2="362.40799"
       y2="89.093002"
       gradientUnits="userSpaceOnUse"
       gradientTransform="matrix(0.12132762,0,0,0.12349046,385.57143,484.06629)" />
    <linearGradient
       inkscape:collect="always"
       xlink:href="#linearGradient847"
       id="linearGradient859"
       x1="0"
       y1="256.82327"
       x2="512"
       y2="256.82327"
       gradientUnits="userSpaceOnUse"
       gradientTransform="matrix(0.12132762,0,0,0.12349046,385.57143,484.06629)" />
    <linearGradient
       inkscape:collect="always"
       id="linearGradient847">
      <stop
         style="stop-color:#7192c1;stop-opacity:1"
         offset="0"
         id="stop843" />
      <stop
         style="stop-color:#3b5a87;stop-opacity:1"
         offset="1"
         id="stop845" />
    </linearGradient>
    <linearGradient
       inkscape:collect="always"
       xlink:href="#linearGradient847"
       id="linearGradient862"
       x1="476.689"
       y1="163.60085"
       x2="319.6994"
       y2="162.04736"
       gradientUnits="userSpaceOnUse"
       gradientTransform="matrix(0.12132762,0,0,0.12349046,385.57143,484.06629)" />
  </defs>
  <metadata
     id="metadata5458">
    <rdf:RDF>
      <cc:Work
         rdf:about="">
        <dc:format>image/svg+xml</dc:format>
        <dc:type
           rdf:resource="http://purl.org/dc/dcmitype/StillImage" />
      </cc:Work>
    </rdf:RDF>
  </metadata>
  <g
     inkscape:label="Capa 1"
     inkscape:groupmode="layer"
     id="layer1"
     transform="translate(-384.57143,-483.798)">
    <path
       style="fill:url(#linearGradient858);fill-opacity:1;stroke-width:0.122405"
       d="m 418.27991,496.76498 c 1.00234,1.00832 2.35492,1.57376 3.76434,1.57376 h 2.08431 5.41297 c -1.40942,0 -2.76196,-0.56544 -3.76434,-1.57376 l -3.37309,-3.39306 c -1.00265,-1.00849 -2.35506,-1.57392 -3.76429,-1.57392 h -7.49732 c 1.40923,0 2.76181,0.56543 3.76434,1.57392 z"
       id="path2" />
    <path
       style="fill:#3b5a87;fill-opacity:1;stroke-width:0.122405"
       d="m 407.40937,493.37192 3.37327,3.39306 c 1.00233,1.00832 2.35487,1.57376 3.76429,1.57376 h 2.08436 5.41296 c -1.40942,0 -2.762,-0.56544 -3.76434,-1.57376 l -3.37308,-3.39306 c -1.00265,-1.00849 -2.35511,-1.57392 -3.76434,-1.57392 h -7.36358 -0.13375 c 1.40942,0 2.76182,0.56556 3.76421,1.57392 z"
       id="path4" />
    <path
       style="fill:url(#linearGradient859);fill-opacity:1;stroke-width:0.114828"
       d="m 444.47801,497.55407 h -12.85238 -2.08437 -5.41295 -2.08431 -5.41271 -2.08436 c -1.40942,0 -2.76196,-0.4976 -3.76429,-1.38504 l -3.37327,-2.98601 c -1.00251,-0.88742 -2.35492,-1.38502 -3.76432,-1.38502 h -7.36334 -7.49714 c -1.7745,0 -3.21314,1.28851 -3.21314,2.87804 v 5.75606 0.95938 35.49546 c 0,1.58953 1.43864,2.87804 3.21314,2.87804 h 55.69344 c 1.7745,0 3.21314,-1.28851 3.21314,-2.87804 V 500.4321 c 0,-1.58964 -1.43864,-2.87803 -3.21314,-2.87803 z m -20.34958,5.75596 v 0 0 0 z m 19.27871,0.95937 c 0,1.05956 -0.959,1.91865 -2.14214,1.91865 h -14.99442 c -1.18314,0 -2.14215,-0.85909 -2.14215,-1.91865 v -0.95937 c 0,-1.05956 0.95901,-1.91865 2.14215,-1.91865 h 14.99429 c 1.18315,0 2.14214,0.85909 2.14214,1.91865 v 0.95937 z"
       id="path6"
       sodipodi:nodetypes="scccccsccscssccssssssccccccccccssssssscc" />
    <path
       style="fill:url(#linearGradient862);fill-opacity:1;stroke-width:0.122405"
       d="m 441.26487,501.05685 h -14.99429 c -1.18314,0 -2.16639,0.97609 -2.16639,2.18013 v 1.09026 c 0,1.20403 0.98325,2.18014 2.16639,2.18014 h 14.99429 c 1.18315,0 2.29726,-0.97643 2.32413,-2.18014 l 0.0242,-1.09026 c 1.2e-4,-1.20404 -1.16511,-2.18013 -2.34837,-2.18013 z"
       id="path8"
       sodipodi:nodetypes="ssssssscs" />
    <g
       id="Computer_1_"
       transform="matrix(0.42857143,0,0,0.42857143,388.57143,512.58371)">
      <path
         id="Computer"
         class="st0"
         d="m 60,4 h 4 v 36 c 0,4.4 -3.6,8 -8,8 H 0 V 40 H 60 Z M 32,52 Z"
         style="fill:#f2f2f2;fill-opacity:1"
         sodipodi:nodetypes="ccssccccccccc" />
      <path
         id="Computer-s"
         class="st1"
         d="M 4,40 H 0 V 12 C 0,7.6 3.6,4 8,4 H 64 V 8 H 8 C 5.8,8 4,9.8 4,12 Z m 56,0 c 0,4.4 -3.6,8 -8,8 H 32 v 4 h 4 v 0 0 0 0 h 16 c 6.6,0 12,-5.4 12,-12 z"
         style="fill:#1f222d;fill-opacity:1"
         sodipodi:nodetypes="ccssccssccscccccccscc" />
    </g>
    <g
       id="g8"
       style="image-rendering:optimizeQuality;shape-rendering:geometricPrecision;text-rendering:geometricPrecision"
       transform="translate(396.17143,516.898)">
      <path
         class="fil0"
         d="M 7.3777778,1.7333333 C 7.6,1.8222222 7.8222222,1.9111111 8.0444444,2 L 9.1111111,1.2 C 9.3333333,1.0666667 9.6,1.1111111 9.7333333,1.2444444 L 10.711111,2.2222222 C 10.888889,2.4 10.888889,2.6666667 10.755556,2.8444444 L 10,3.9555556 C 10.088889,4.1777778 10.177778,4.4 10.266667,4.6222222 L 11.6,4.8444444 c 0.222222,0 0.4,0.2222223 0.4,0.4444445 v 1.3777778 c 0,0.2222222 -0.177778,0.4444444 -0.4,0.4888889 L 10.266667,7.3777778 C 10.177778,7.6 10.088889,7.8222222 10,8.0444444 l 0.8,1.0666667 C 10.933333,9.3333333 10.888889,9.6 10.755556,9.7333333 L 9.7777778,10.711111 C 9.6,10.888889 9.3333333,10.888889 9.1555556,10.755556 L 8.0444444,10 C 7.8222222,10.088889 7.6,10.177778 7.3777778,10.266667 L 7.1555556,11.6 C 7.1111111,11.822222 6.8888889,12 6.6666667,12 H 5.2888889 C 5.0666667,12 4.8444444,11.822222 4.8444444,11.6 L 4.6222222,10.266667 C 4.4,10.177778 4.1777778,10.088889 3.9555556,10 L 2.8444444,10.755556 C 2.6666667,10.888889 2.4,10.888889 2.2222222,10.711111 L 1.2444444,9.7333333 C 1.1111111,9.6 1.0666667,9.3333333 1.2,9.1555556 L 2,8.0444444 C 1.8666667,7.8222222 1.7777778,7.6 1.7333333,7.3777778 L 0.4,7.1555556 C 0.17777778,7.1111111 0,6.8888889 0,6.6666667 V 5.2888889 C 0,5.0666667 0.17777778,4.8444444 0.4,4.8444444 L 1.7333333,4.6222222 C 1.7777778,4.3555556 1.8666667,4.1777778 2,3.9555556 L 1.2,2.8444444 C 1.0666667,2.6666667 1.1111111,2.4 1.2888889,2.2222222 L 2.2666667,1.2444444 C 2.4,1.1111111 2.6666667,1.0666667 2.8444444,1.2 L 3.9555556,2 C 4.1777778,1.9111111 4.4,1.8222222 4.6222222,1.7333333 L 4.8444444,0.4 c 0,-0.22222222 0.2222223,-0.4 0.4444445,-0.4 H 6.6666667 C 6.8888889,0 7.1111111,0.17777778 7.1555556,0.4 Z M 6,3.4666667 C 4.6222222,3.4666667 3.4666667,4.6222222 3.4666667,6 3.4666667,7.3777778 4.6222222,8.5333333 6,8.5333333 7.3777778,8.5333333 8.5333333,7.3777778 8.5333333,6 8.5333333,4.6222222 7.3777778,3.4666667 6,3.4666667 Z"
         id="path6-6"
         style="fill:#f2f2f2;fill-opacity:1;stroke-width:0.0444444" />
    </g>
  </g>
</svg>
