<?xml version="1.0" encoding="UTF-8" standalone="no"?>
<svg
   width="64"
   version="1.1"
   height="64"
   id="svg15"
   sodipodi:docname="folder-chart.svg"
   inkscape:version="1.1.1 (3bf5ae0d25, 2021-09-20)"
   xmlns:inkscape="http://www.inkscape.org/namespaces/inkscape"
   xmlns:sodipodi="http://sodipodi.sourceforge.net/DTD/sodipodi-0.dtd"
   xmlns:xlink="http://www.w3.org/1999/xlink"
   xmlns="http://www.w3.org/2000/svg"
   xmlns:svg="http://www.w3.org/2000/svg"
   xmlns:rdf="http://www.w3.org/1999/02/22-rdf-syntax-ns#"
   xmlns:cc="http://creativecommons.org/ns#"
   xmlns:dc="http://purl.org/dc/elements/1.1/">
  <sodipodi:namedview
     pagecolor="#ffffff"
     bordercolor="#666666"
     borderopacity="1"
     objecttolerance="10"
     gridtolerance="10"
     guidetolerance="10"
     inkscape:pageopacity="0"
     inkscape:pageshadow="2"
     inkscape:window-width="1920"
     inkscape:window-height="1007"
     id="namedview17"
     showgrid="true"
     inkscape:zoom="9.8125"
     inkscape:cx="15.490446"
     inkscape:cy="52.942675"
     inkscape:window-x="0"
     inkscape:window-y="0"
     inkscape:window-maximized="1"
     inkscape:current-layer="layer1"
     inkscape:document-rotation="0"
     showguides="false"
     inkscape:pagecheckerboard="0">
    <inkscape:grid
       type="xygrid"
       id="grid919" />
  </sodipodi:namedview>
  <defs
     id="defs5455">
    <linearGradient
       inkscape:collect="always"
       xlink:href="#linearGradient847"
       id="linearGradient858"
       x1="210.75999"
       y1="89.093002"
       x2="362.40799"
       y2="89.093002"
       gradientUnits="userSpaceOnUse"
       gradientTransform="matrix(0.12132762,0,0,0.12349046,385.57143,484.06629)" />
    <linearGradient
       inkscape:collect="always"
       xlink:href="#linearGradient847"
       id="linearGradient859"
       x1="0"
       y1="256.82327"
       x2="512"
       y2="256.82327"
       gradientUnits="userSpaceOnUse"
       gradientTransform="matrix(0.12132762,0,0,0.12349046,385.57143,484.06629)" />
    <linearGradient
       inkscape:collect="always"
       id="linearGradient847">
      <stop
         style="stop-color:#7192c1;stop-opacity:1"
         offset="0"
         id="stop843" />
      <stop
         style="stop-color:#3b5a87;stop-opacity:1"
         offset="1"
         id="stop845" />
    </linearGradient>
    <linearGradient
       inkscape:collect="always"
       xlink:href="#linearGradient847"
       id="linearGradient862"
       x1="476.689"
       y1="163.60085"
       x2="319.6994"
       y2="162.04736"
       gradientUnits="userSpaceOnUse"
       gradientTransform="matrix(0.12132762,0,0,0.12349046,385.57143,484.06629)" />
  </defs>
  <metadata
     id="metadata5458">
    <rdf:RDF>
      <cc:Work
         rdf:about="">
        <dc:format>image/svg+xml</dc:format>
        <dc:type
           rdf:resource="http://purl.org/dc/dcmitype/StillImage" />
      </cc:Work>
    </rdf:RDF>
  </metadata>
  <g
     inkscape:label="Capa 1"
     inkscape:groupmode="layer"
     id="layer1"
     transform="translate(-384.57143,-483.798)">
    <path
       style="fill:url(#linearGradient858);fill-opacity:1;stroke-width:0.122405"
       d="m 418.27991,496.76498 c 1.00234,1.00832 2.35492,1.57376 3.76434,1.57376 h 2.08431 5.41297 c -1.40942,0 -2.76196,-0.56544 -3.76434,-1.57376 l -3.37309,-3.39306 c -1.00265,-1.00849 -2.35506,-1.57392 -3.76429,-1.57392 h -7.49732 c 1.40923,0 2.76181,0.56543 3.76434,1.57392 z"
       id="path2" />
    <path
       style="fill:#3b5a87;fill-opacity:1;stroke-width:0.122405"
       d="m 407.40937,493.37192 3.37327,3.39306 c 1.00233,1.00832 2.35487,1.57376 3.76429,1.57376 h 2.08436 5.41296 c -1.40942,0 -2.762,-0.56544 -3.76434,-1.57376 l -3.37308,-3.39306 c -1.00265,-1.00849 -2.35511,-1.57392 -3.76434,-1.57392 h -7.36358 -0.13375 c 1.40942,0 2.76182,0.56556 3.76421,1.57392 z"
       id="path4" />
    <path
       style="fill:url(#linearGradient859);fill-opacity:1;stroke-width:0.114828"
       d="m 444.47801,497.55407 h -12.85238 -2.08437 -5.41295 -2.08431 -5.41271 -2.08436 c -1.40942,0 -2.76196,-0.4976 -3.76429,-1.38504 l -3.37327,-2.98601 c -1.00251,-0.88742 -2.35492,-1.38502 -3.76432,-1.38502 h -7.36334 -7.49714 c -1.7745,0 -3.21314,1.28851 -3.21314,2.87804 v 5.75606 0.95938 35.49546 c 0,1.58953 1.43864,2.87804 3.21314,2.87804 h 55.69344 c 1.7745,0 3.21314,-1.28851 3.21314,-2.87804 V 500.4321 c 0,-1.58964 -1.43864,-2.87803 -3.21314,-2.87803 z m -20.34958,5.75596 v 0 0 0 z m 19.27871,0.95937 c 0,1.05956 -0.959,1.91865 -2.14214,1.91865 h -14.99442 c -1.18314,0 -2.14215,-0.85909 -2.14215,-1.91865 v -0.95937 c 0,-1.05956 0.95901,-1.91865 2.14215,-1.91865 h 14.99429 c 1.18315,0 2.14214,0.85909 2.14214,1.91865 v 0.95937 z"
       id="path6"
       sodipodi:nodetypes="scccccsccscssccssssssccccccccccssssssscc" />
    <path
       style="fill:url(#linearGradient862);fill-opacity:1;stroke-width:0.122405"
       d="m 441.26487,501.05685 h -14.99429 c -1.18314,0 -2.16639,0.97609 -2.16639,2.18013 v 1.09026 c 0,1.20403 0.98325,2.18014 2.16639,2.18014 h 14.99429 c 1.18315,0 2.29726,-0.97643 2.32413,-2.18014 l 0.0242,-1.09026 c 1.2e-4,-1.20404 -1.16511,-2.18013 -2.34837,-2.18013 z"
       id="path8"
       sodipodi:nodetypes="ssssssscs" />
    <path
       id="Chart"
       class="st0"
       d="m 410,533.08371 h -19.71428 v -2.57142 H 392 l 0.85714,-3.42858 4.28572,-6 h 2.57143 l 0.85714,-0.85714 3.42857,1.71429 v 2.57143 h 3.42857 v -3.85715 l 4.71429,-6 2.14286,0.42857 V 528.798 c 0,2.35714 -1.92858,4.28571 -4.28572,4.28571 z"
       style="fill:#f0f0f0;fill-opacity:1;stroke-width:0.428571" />
    <path
       id="Chart-s"
       class="st1"
       d="m 413.42857,515.94086 c 1.41429,0 2.57143,-1.15715 2.57143,-2.57143 0,-1.41429 -1.15714,-2.57143 -2.57143,-2.57143 -1.41428,0 -2.57143,1.15714 -2.57143,2.57143 0,0.47143 0.12858,0.94286 0.38572,1.32857 l -4.67143,5.7 c -0.25714,-0.0857 -0.55714,-0.17143 -0.85714,-0.17143 -0.68572,0 -1.32857,0.25714 -1.8,0.72857 l -2.48572,-1.28571 c 0,-0.0857 0,-0.21429 0,-0.3 0,-1.41429 -1.15714,-2.57143 -2.57143,-2.57143 -1.41428,0 -2.57142,1.15714 -2.57142,2.57143 0,0.47143 0.12857,0.94286 0.38571,1.32857 L 392,526.398 c -0.25714,-0.12857 -0.55714,-0.17143 -0.85714,-0.17143 -1.41429,0 -2.57143,1.15714 -2.57143,2.57143 0,1.41429 1.15714,2.57143 2.57143,2.57143 1.41428,0 2.57143,-1.15714 2.57143,-2.57143 0,-0.47143 -0.12857,-0.94286 -0.38572,-1.32857 l 4.67143,-5.7 c 0.25714,0.0857 0.55714,0.17143 0.85714,0.17143 0.68572,0 1.32858,-0.25715 1.8,-0.72857 l 2.52858,1.24285 c 0,0.0857 0,0.21429 0,0.3 0,1.41429 1.15714,2.57143 2.57142,2.57143 1.41429,0 2.57143,-1.15714 2.57143,-2.57143 0,-0.47143 -0.12857,-0.94285 -0.38571,-1.32857 l 4.62857,-5.65714 c 0.25714,0.12857 0.55714,0.17143 0.85714,0.17143 z m 0,-1.71429 c 0.47143,0 0.85715,-0.38571 0.85715,-0.85714 0,-0.47143 -0.38572,-0.85714 -0.85715,-0.85714 -0.47143,0 -0.85714,0.38571 -0.85714,0.85714 0,0.47143 0.38571,0.85714 0.85714,0.85714 z m -6.85714,8.57143 c 0,0.47143 -0.38571,0.85714 -0.85714,0.85714 -0.47143,0 -0.85715,-0.38571 -0.85715,-0.85714 0,-0.47143 0.38572,-0.85714 0.85715,-0.85714 0.47143,0 0.85714,0.38571 0.85714,0.85714 z m -7.71429,-2.57143 c 0.47143,0 0.85715,-0.38571 0.85715,-0.85714 0,-0.47143 -0.38572,-0.85714 -0.85715,-0.85714 -0.47142,0 -0.85714,0.38571 -0.85714,0.85714 0,0.47143 0.38572,0.85714 0.85714,0.85714 z M 392,528.798 c 0,0.47143 -0.38571,0.85714 -0.85714,0.85714 -0.47143,0 -0.85714,-0.38571 -0.85714,-0.85714 0,-0.47143 0.38571,-0.85714 0.85714,-0.85714 0.47143,0 0.85714,0.38571 0.85714,0.85714 z m 20.57143,-0.85714 h 1.71429 v 1.71428 c 0,2.82857 -2.31429,5.14286 -5.14286,5.14286 H 392 v -1.71429 h 17.14286 c 1.88571,0 3.42857,-1.54285 3.42857,-3.42857 z"
       style="clip-rule:evenodd;fill:#263740;fill-opacity:1;fill-rule:evenodd;stroke-width:0.428571" />
  </g>
</svg>
