<?xml version="1.0" encoding="UTF-8" standalone="no"?>
<svg
   width="64"
   version="1.1"
   height="64"
   id="svg15"
   sodipodi:docname="folderGithub.svg"
   inkscape:version="1.1.1 (3bf5ae0d25, 2021-09-20)"
   xmlns:inkscape="http://www.inkscape.org/namespaces/inkscape"
   xmlns:sodipodi="http://sodipodi.sourceforge.net/DTD/sodipodi-0.dtd"
   xmlns:xlink="http://www.w3.org/1999/xlink"
   xmlns="http://www.w3.org/2000/svg"
   xmlns:svg="http://www.w3.org/2000/svg"
   xmlns:rdf="http://www.w3.org/1999/02/22-rdf-syntax-ns#"
   xmlns:cc="http://creativecommons.org/ns#"
   xmlns:dc="http://purl.org/dc/elements/1.1/">
  <sodipodi:namedview
     pagecolor="#ffffff"
     bordercolor="#666666"
     borderopacity="1"
     objecttolerance="10"
     gridtolerance="10"
     guidetolerance="10"
     inkscape:pageopacity="0"
     inkscape:pageshadow="2"
     inkscape:window-width="1920"
     inkscape:window-height="1007"
     id="namedview17"
     showgrid="true"
     inkscape:zoom="9.8125"
     inkscape:cx="14.77707"
     inkscape:cy="45.095541"
     inkscape:window-x="0"
     inkscape:window-y="0"
     inkscape:window-maximized="1"
     inkscape:current-layer="layer1"
     inkscape:document-rotation="0"
     showguides="false"
     inkscape:pagecheckerboard="0">
    <inkscape:grid
       type="xygrid"
       id="grid919" />
  </sodipodi:namedview>
  <defs
     id="defs5455">
    <linearGradient
       inkscape:collect="always"
       xlink:href="#linearGradient847"
       id="linearGradient858"
       x1="210.75999"
       y1="89.093002"
       x2="362.40799"
       y2="89.093002"
       gradientUnits="userSpaceOnUse"
       gradientTransform="matrix(0.12132762,0,0,0.12349046,385.57143,484.06629)" />
    <linearGradient
       inkscape:collect="always"
       xlink:href="#linearGradient847"
       id="linearGradient859"
       x1="0"
       y1="256.82327"
       x2="512"
       y2="256.82327"
       gradientUnits="userSpaceOnUse"
       gradientTransform="matrix(0.12132762,0,0,0.12349046,385.57143,484.06629)" />
    <linearGradient
       inkscape:collect="always"
       id="linearGradient847">
      <stop
         style="stop-color:#7192c1;stop-opacity:1"
         offset="0"
         id="stop843" />
      <stop
         style="stop-color:#3b5a87;stop-opacity:1"
         offset="1"
         id="stop845" />
    </linearGradient>
    <linearGradient
       inkscape:collect="always"
       xlink:href="#linearGradient847"
       id="linearGradient862"
       x1="476.689"
       y1="163.60085"
       x2="319.6994"
       y2="162.04736"
       gradientUnits="userSpaceOnUse"
       gradientTransform="matrix(0.12132762,0,0,0.12349046,385.57143,484.06629)" />
  </defs>
  <metadata
     id="metadata5458">
    <rdf:RDF>
      <cc:Work
         rdf:about="">
        <dc:format>image/svg+xml</dc:format>
        <dc:type
           rdf:resource="http://purl.org/dc/dcmitype/StillImage" />
      </cc:Work>
    </rdf:RDF>
  </metadata>
  <g
     inkscape:label="Capa 1"
     inkscape:groupmode="layer"
     id="layer1"
     transform="translate(-384.57143,-483.798)">
    <path
       style="fill:url(#linearGradient858);fill-opacity:1;stroke-width:0.122405"
       d="m 418.27991,496.76498 c 1.00234,1.00832 2.35492,1.57376 3.76434,1.57376 h 2.08431 5.41297 c -1.40942,0 -2.76196,-0.56544 -3.76434,-1.57376 l -3.37309,-3.39306 c -1.00265,-1.00849 -2.35506,-1.57392 -3.76429,-1.57392 h -7.49732 c 1.40923,0 2.76181,0.56543 3.76434,1.57392 z"
       id="path2" />
    <path
       style="fill:#3b5a87;fill-opacity:1;stroke-width:0.122405"
       d="m 407.40937,493.37192 3.37327,3.39306 c 1.00233,1.00832 2.35487,1.57376 3.76429,1.57376 h 2.08436 5.41296 c -1.40942,0 -2.762,-0.56544 -3.76434,-1.57376 l -3.37308,-3.39306 c -1.00265,-1.00849 -2.35511,-1.57392 -3.76434,-1.57392 h -7.36358 -0.13375 c 1.40942,0 2.76182,0.56556 3.76421,1.57392 z"
       id="path4" />
    <path
       style="fill:url(#linearGradient859);fill-opacity:1;stroke-width:0.114828"
       d="m 444.47801,497.55407 h -12.85238 -2.08437 -5.41295 -2.08431 -5.41271 -2.08436 c -1.40942,0 -2.76196,-0.4976 -3.76429,-1.38504 l -3.37327,-2.98601 c -1.00251,-0.88742 -2.35492,-1.38502 -3.76432,-1.38502 h -7.36334 -7.49714 c -1.7745,0 -3.21314,1.28851 -3.21314,2.87804 v 5.75606 0.95938 35.49546 c 0,1.58953 1.43864,2.87804 3.21314,2.87804 h 55.69344 c 1.7745,0 3.21314,-1.28851 3.21314,-2.87804 V 500.4321 c 0,-1.58964 -1.43864,-2.87803 -3.21314,-2.87803 z m -20.34958,5.75596 v 0 0 0 z m 19.27871,0.95937 c 0,1.05956 -0.959,1.91865 -2.14214,1.91865 h -14.99442 c -1.18314,0 -2.14215,-0.85909 -2.14215,-1.91865 v -0.95937 c 0,-1.05956 0.95901,-1.91865 2.14215,-1.91865 h 14.99429 c 1.18315,0 2.14214,0.85909 2.14214,1.91865 v 0.95937 z"
       id="path6"
       sodipodi:nodetypes="scccccsccscssccssssssccccccccccssssssscc" />
    <path
       style="fill:url(#linearGradient862);fill-opacity:1;stroke-width:0.122405"
       d="m 441.26487,501.05685 h -14.99429 c -1.18314,0 -2.16639,0.97609 -2.16639,2.18013 v 1.09026 c 0,1.20403 0.98325,2.18014 2.16639,2.18014 h 14.99429 c 1.18315,0 2.29726,-0.97643 2.32413,-2.18014 l 0.0242,-1.09026 c 1.2e-4,-1.20404 -1.16511,-2.18013 -2.34837,-2.18013 z"
       id="path8"
       sodipodi:nodetypes="ssssssscs" />
    <path
       class="st0"
       d="m 412.56206,522.79331 c 0,5.32293 -3.44865,9.82117 -8.24678,11.39555 h -7.49707 c -4.79813,-1.57438 -8.24678,-6.07262 -8.24678,-11.39555 0,-6.6349 5.36041,-11.99531 11.99531,-11.99531 6.63491,0 11.99532,5.36041 11.99532,11.99531 z"
       id="path4-3"
       style="fill:#1f222d;fill-opacity:1;stroke-width:0.374854" />
    <path
       class="st2"
       d="m 405.06499,527.66641 c 1.12456,-0.37485 2.99883,-1.49941 2.99883,-4.8731 0,-1.31198 -0.33737,-2.51151 -1.08708,-3.48613 0.82468,-1.98673 -0.075,-3.26123 -0.41234,-3.26123 -0.29988,0 -1.57438,0.22491 -2.73643,1.16205 -0.93713,-0.2624 -2.02421,-0.41234 -3.26123,-0.41234 -1.23701,0 -2.32409,0.14994 -3.26122,0.41234 -1.16205,-0.93714 -2.43655,-1.16205 -2.73643,-1.16205 -0.33737,0 -1.23702,1.2745 -0.41234,3.26123 -0.74971,0.97462 -1.08708,2.17415 -1.08708,3.48613 0,3.37369 1.87427,4.49825 2.99883,4.8731 0.89965,0.29988 1.87427,0.48731 2.24912,0.56228 -0.22491,0.22491 -0.59976,0.82468 -0.71222,1.64936 -0.29988,0.22491 -0.74971,0.41234 -1.34947,0.41234 -1.12456,0 -1.68684,-0.74971 -2.24912,-1.49942 -0.56228,-0.74971 -1.31199,-1.12456 -1.68684,-1.12456 -0.37486,0 -0.74971,0.18743 -0.37486,0.56228 0.37486,0.37485 0.86217,0.075 1.87427,1.87427 0.74971,1.34947 1.68684,1.31199 2.43655,1.31199 0.67473,0 1.31199,-0.37486 1.31199,-0.37486 h 5.6228 l 0.37485,-0.7497 c 0,-1.04959 -0.48731,-1.7993 -0.7497,-2.0617 0.37485,-0.075 1.34947,-0.2624 2.24912,-0.56228 z"
       id="path8-6"
       style="fill:#f2f2f2;fill-opacity:1;stroke-width:0.374854" />
    <path
       class="st3"
       d="m 391.94511,528.22869 c -0.22491,-0.22491 -0.18742,-0.37485 -0.0375,-0.44982 0.67473,0.67473 1.5369,1.19953 2.549,1.57438 0.44983,0.5248 0.97462,0.93714 1.7993,0.93714 0.37485,0 0.71222,-0.11246 1.0121,-0.22492 1.04959,0.14994 2.17415,0.22492 3.29871,0.22492 1.04959,0 2.0617,-0.0375 2.99883,-0.18743 0,0.075 0,0.11245 0,0.18743 v 2.99882 l 0.86217,0.86217 c -2.51152,0.86216 -5.21047,0.86216 -7.72199,0 l 0.86217,-0.86217 v -1.79929 c -0.29989,0.11245 -0.82468,0.29988 -1.31199,0.29988 -0.74971,0 -1.87427,-0.14994 -2.62398,-1.49941 -0.7497,-1.38696 -1.12456,-1.64936 -1.42444,-1.83679 -0.075,-0.075 -0.18743,-0.14994 -0.2624,-0.22491 z"
       id="path10"
       style="clip-rule:evenodd;fill:#f2f2f2;fill-opacity:1;fill-rule:evenodd;stroke-width:0.374854" />
  </g>
</svg>
