<?xml version="1.0" encoding="UTF-8" standalone="no"?>
<svg
   width="64"
   version="1.1"
   height="64"
   id="svg15"
   sodipodi:docname="folder-mac.svg"
   inkscape:version="1.1.1 (3bf5ae0d25, 2021-09-20)"
   xmlns:inkscape="http://www.inkscape.org/namespaces/inkscape"
   xmlns:sodipodi="http://sodipodi.sourceforge.net/DTD/sodipodi-0.dtd"
   xmlns:xlink="http://www.w3.org/1999/xlink"
   xmlns="http://www.w3.org/2000/svg"
   xmlns:svg="http://www.w3.org/2000/svg"
   xmlns:rdf="http://www.w3.org/1999/02/22-rdf-syntax-ns#"
   xmlns:cc="http://creativecommons.org/ns#"
   xmlns:dc="http://purl.org/dc/elements/1.1/">
  <sodipodi:namedview
     pagecolor="#ffffff"
     bordercolor="#666666"
     borderopacity="1"
     objecttolerance="10"
     gridtolerance="10"
     guidetolerance="10"
     inkscape:pageopacity="0"
     inkscape:pageshadow="2"
     inkscape:window-width="1920"
     inkscape:window-height="1007"
     id="namedview17"
     showgrid="true"
     inkscape:zoom="9.8125"
     inkscape:cx="17.019108"
     inkscape:cy="42.038217"
     inkscape:window-x="0"
     inkscape:window-y="0"
     inkscape:window-maximized="1"
     inkscape:current-layer="layer1"
     inkscape:document-rotation="0"
     showguides="false"
     inkscape:pagecheckerboard="0">
    <inkscape:grid
       type="xygrid"
       id="grid919" />
  </sodipodi:namedview>
  <defs
     id="defs5455">
    <linearGradient
       inkscape:collect="always"
       xlink:href="#linearGradient847"
       id="linearGradient858"
       x1="210.75999"
       y1="89.093002"
       x2="362.40799"
       y2="89.093002"
       gradientUnits="userSpaceOnUse"
       gradientTransform="matrix(0.12132762,0,0,0.12349046,385.57143,484.06629)" />
    <linearGradient
       inkscape:collect="always"
       xlink:href="#linearGradient847"
       id="linearGradient859"
       x1="0"
       y1="256.82327"
       x2="512"
       y2="256.82327"
       gradientUnits="userSpaceOnUse"
       gradientTransform="matrix(0.12132762,0,0,0.12349046,385.57143,484.06629)" />
    <linearGradient
       inkscape:collect="always"
       id="linearGradient847">
      <stop
         style="stop-color:#7192c1;stop-opacity:1"
         offset="0"
         id="stop843" />
      <stop
         style="stop-color:#3b5a87;stop-opacity:1"
         offset="1"
         id="stop845" />
    </linearGradient>
    <linearGradient
       inkscape:collect="always"
       xlink:href="#linearGradient847"
       id="linearGradient862"
       x1="476.689"
       y1="163.60085"
       x2="319.6994"
       y2="162.04736"
       gradientUnits="userSpaceOnUse"
       gradientTransform="matrix(0.12132762,0,0,0.12349046,385.57143,484.06629)" />
    <linearGradient
       inkscape:collect="always"
       xlink:href="#linearGradient1581"
       id="linearGradient1583"
       x1="429.57144"
       y1="509.798"
       x2="429.57144"
       y2="533.79797"
       gradientUnits="userSpaceOnUse"
       gradientTransform="translate(-30.162,0.95)" />
    <linearGradient
       inkscape:collect="always"
       id="linearGradient1581">
      <stop
         style="stop-color:#263740;stop-opacity:1"
         offset="0"
         id="stop1577" />
      <stop
         style="stop-color:#263740;stop-opacity:1"
         offset="0.25000015"
         id="stop1898" />
      <stop
         style="stop-color:#ffffff;stop-opacity:1"
         offset="0.25000015"
         id="stop2412" />
      <stop
         style="stop-color:#f0f0f0;stop-opacity:1"
         offset="1"
         id="stop1579" />
    </linearGradient>
  </defs>
  <metadata
     id="metadata5458">
    <rdf:RDF>
      <cc:Work
         rdf:about="">
        <dc:format>image/svg+xml</dc:format>
        <dc:type
           rdf:resource="http://purl.org/dc/dcmitype/StillImage" />
      </cc:Work>
    </rdf:RDF>
  </metadata>
  <g
     inkscape:label="Capa 1"
     inkscape:groupmode="layer"
     id="layer1"
     transform="translate(-384.57143,-483.798)">
    <path
       style="fill:url(#linearGradient858);fill-opacity:1;stroke-width:0.122405"
       d="m 418.27991,496.76498 c 1.00234,1.00832 2.35492,1.57376 3.76434,1.57376 h 2.08431 5.41297 c -1.40942,0 -2.76196,-0.56544 -3.76434,-1.57376 l -3.37309,-3.39306 c -1.00265,-1.00849 -2.35506,-1.57392 -3.76429,-1.57392 h -7.49732 c 1.40923,0 2.76181,0.56543 3.76434,1.57392 z"
       id="path2" />
    <path
       style="fill:#3b5a87;fill-opacity:1;stroke-width:0.122405"
       d="m 407.40937,493.37192 3.37327,3.39306 c 1.00233,1.00832 2.35487,1.57376 3.76429,1.57376 h 2.08436 5.41296 c -1.40942,0 -2.762,-0.56544 -3.76434,-1.57376 l -3.37308,-3.39306 c -1.00265,-1.00849 -2.35511,-1.57392 -3.76434,-1.57392 h -7.36358 -0.13375 c 1.40942,0 2.76182,0.56556 3.76421,1.57392 z"
       id="path4" />
    <path
       style="fill:url(#linearGradient859);fill-opacity:1;stroke-width:0.114828"
       d="m 444.47801,497.55407 h -12.85238 -2.08437 -5.41295 -2.08431 -5.41271 -2.08436 c -1.40942,0 -2.76196,-0.4976 -3.76429,-1.38504 l -3.37327,-2.98601 c -1.00251,-0.88742 -2.35492,-1.38502 -3.76432,-1.38502 h -7.36334 -7.49714 c -1.7745,0 -3.21314,1.28851 -3.21314,2.87804 v 5.75606 0.95938 35.49546 c 0,1.58953 1.43864,2.87804 3.21314,2.87804 h 55.69344 c 1.7745,0 3.21314,-1.28851 3.21314,-2.87804 V 500.4321 c 0,-1.58964 -1.43864,-2.87803 -3.21314,-2.87803 z m -20.34958,5.75596 z m 19.27871,0.95937 c 0,1.05956 -0.959,1.91865 -2.14214,1.91865 h -14.99442 c -1.18314,0 -2.14215,-0.85909 -2.14215,-1.91865 v -0.95937 c 0,-1.05956 0.95901,-1.91865 2.14215,-1.91865 h 14.99429 c 1.18315,0 2.14214,0.85909 2.14214,1.91865 v 0.95937 z"
       id="path6"
       sodipodi:nodetypes="scccccsccscssccssssssccccccccccssssssscc" />
    <path
       style="fill:url(#linearGradient862);fill-opacity:1;stroke-width:0.122405"
       d="m 441.26487,501.05685 h -14.99429 c -1.18314,0 -2.16639,0.97609 -2.16639,2.18013 v 1.09026 c 0,1.20403 0.98325,2.18014 2.16639,2.18014 h 14.99429 c 1.18315,0 2.29726,-0.97643 2.32413,-2.18014 l 0.0242,-1.09026 c 1.2e-4,-1.20404 -1.16511,-2.18013 -2.34837,-2.18013 z"
       id="path8"
       sodipodi:nodetypes="ssssssscs" />
    <polygon
       class="st0"
       points="54,19.5 48,49 10,49 5,36 12,19.5 "
       id="polygon4"
       transform="matrix(0.375,0,0,0.375,387.07143,510.798)"
       style="fill:#fcfcfc;fill-opacity:1" />
    <path
       class="st1"
       d="m 407.69643,517.923 c -1.425,-0.975 -2.925,-1.125 -3.525,-1.125 -1.1625,0 -2.1,0.375 -2.925,0.675 -0.675,0.225 -1.2375,0.45 -1.8,0.45 -0.5625,0 -1.0875,-0.225 -1.6875,-0.4875 -0.75,-0.3 -1.575,-0.6375 -2.5875,-0.6375 -1.2,0 -6.6,0.5625 -6.6,7.275 0,5.3625 4.4625,10.725 6.525,10.725 0.825,0 1.5375,-0.225 2.25,-0.4875 0.7125,-0.225 1.425,-0.4875 2.25,-0.4875 0.825,0 1.5375,0.225 2.25,0.4875 0.7125,0.2625 1.425,0.4875 2.25,0.4875 1.275,0 3.45,-2.1 4.9125,-5.025 0.1125,-0.2625 0.2625,-0.525 0.375,-0.7875 0.075,-0.1875 0.15,-0.375 0.225,-0.6 -1.9875,-0.825 -3,-2.6625 -3,-4.875 0,-1.3875 0.3375,-2.625 1.125,-3.6 0.3,-0.375 0.675,-0.7125 1.125,-0.975 -0.375,-0.375 -0.7875,-0.75 -1.1625,-1.0125 z m -2.625,5.625 c 0,2.0625 -2.025,3.825 -4.9875,4.6875 -1.0125,0.3375 -2.4375,0.5625 -4.0125,0.5625 -2.6625,0 -4.9125,-0.6 -5.4,-1.3875 -0.375,-1.0875 -0.6,-2.2125 -0.6,-3.3375 0,-2.8875 1.125,-4.2 2.175,-4.9125 1.1625,-0.75 2.475,-0.8625 2.9625,-0.8625 0.6,0 1.125,0.1875 1.8,0.45 0.075,0.0375 0.1125,0.0375 0.1875,0.075 0.525,0.225 1.3875,0.6 2.25,0.6 0.525,0 1.0125,-0.1125 1.425,-0.2625 0.3,-0.075 0.6,-0.225 0.9,-0.3375 0.075,-0.0375 0.1875,-0.075 0.2625,-0.075 0.7125,-0.2625 1.3875,-0.4875 2.1375,-0.4875 0.4125,0 1.425,0.1125 2.4,0.675 -1.0875,1.35 -1.5,3 -1.5,4.6125 z m -6,-7.5 c 0,-2.8875 2.325,-5.2125 5.2125,-5.25 0.0375,0.2625 0.0375,0.4875 0.0375,0.75 0,2.8875 -2.325,5.2125 -5.2125,5.25 -0.0375,-0.2625 -0.0375,-0.4875 -0.0375,-0.75 z"
       id="path6-3"
       style="clip-rule:evenodd;fill:url(#linearGradient1583);fill-opacity:1;fill-rule:evenodd;stroke-width:0.375" />
  </g>
</svg>
