<?xml version="1.0" encoding="UTF-8" standalone="no"?>
<svg
   width="64"
   version="1.1"
   height="64"
   id="svg15"
   sodipodi:docname="folder-script.svg"
   inkscape:version="1.1.1 (3bf5ae0d25, 2021-09-20)"
   xmlns:inkscape="http://www.inkscape.org/namespaces/inkscape"
   xmlns:sodipodi="http://sodipodi.sourceforge.net/DTD/sodipodi-0.dtd"
   xmlns:xlink="http://www.w3.org/1999/xlink"
   xmlns="http://www.w3.org/2000/svg"
   xmlns:svg="http://www.w3.org/2000/svg"
   xmlns:rdf="http://www.w3.org/1999/02/22-rdf-syntax-ns#"
   xmlns:cc="http://creativecommons.org/ns#"
   xmlns:dc="http://purl.org/dc/elements/1.1/">
  <sodipodi:namedview
     pagecolor="#ffffff"
     bordercolor="#666666"
     borderopacity="1"
     objecttolerance="10"
     gridtolerance="10"
     guidetolerance="10"
     inkscape:pageopacity="0"
     inkscape:pageshadow="2"
     inkscape:window-width="1920"
     inkscape:window-height="1007"
     id="namedview17"
     showgrid="true"
     inkscape:zoom="9.8125"
     inkscape:cx="17.019108"
     inkscape:cy="42.038217"
     inkscape:window-x="0"
     inkscape:window-y="0"
     inkscape:window-maximized="1"
     inkscape:current-layer="layer1"
     inkscape:document-rotation="0"
     showguides="false"
     inkscape:pagecheckerboard="0">
    <inkscape:grid
       type="xygrid"
       id="grid919" />
  </sodipodi:namedview>
  <defs
     id="defs5455">
    <linearGradient
       inkscape:collect="always"
       xlink:href="#linearGradient847"
       id="linearGradient858"
       x1="210.75999"
       y1="89.093002"
       x2="362.40799"
       y2="89.093002"
       gradientUnits="userSpaceOnUse"
       gradientTransform="matrix(0.12132762,0,0,0.12349046,385.57143,484.06629)" />
    <linearGradient
       inkscape:collect="always"
       xlink:href="#linearGradient847"
       id="linearGradient859"
       x1="0"
       y1="256.82327"
       x2="512"
       y2="256.82327"
       gradientUnits="userSpaceOnUse"
       gradientTransform="matrix(0.12132762,0,0,0.12349046,385.57143,484.06629)" />
    <linearGradient
       inkscape:collect="always"
       id="linearGradient847">
      <stop
         style="stop-color:#7192c1;stop-opacity:1"
         offset="0"
         id="stop843" />
      <stop
         style="stop-color:#3b5a87;stop-opacity:1"
         offset="1"
         id="stop845" />
    </linearGradient>
    <linearGradient
       inkscape:collect="always"
       xlink:href="#linearGradient847"
       id="linearGradient862"
       x1="476.689"
       y1="163.60085"
       x2="319.6994"
       y2="162.04736"
       gradientUnits="userSpaceOnUse"
       gradientTransform="matrix(0.12132762,0,0,0.12349046,385.57143,484.06629)" />
  </defs>
  <metadata
     id="metadata5458">
    <rdf:RDF>
      <cc:Work
         rdf:about="">
        <dc:format>image/svg+xml</dc:format>
        <dc:type
           rdf:resource="http://purl.org/dc/dcmitype/StillImage" />
      </cc:Work>
    </rdf:RDF>
  </metadata>
  <g
     inkscape:label="Capa 1"
     inkscape:groupmode="layer"
     id="layer1"
     transform="translate(-384.57143,-483.798)">
    <path
       style="fill:url(#linearGradient858);fill-opacity:1;stroke-width:0.122405"
       d="m 418.27991,496.76498 c 1.00234,1.00832 2.35492,1.57376 3.76434,1.57376 h 2.08431 5.41297 c -1.40942,0 -2.76196,-0.56544 -3.76434,-1.57376 l -3.37309,-3.39306 c -1.00265,-1.00849 -2.35506,-1.57392 -3.76429,-1.57392 h -7.49732 c 1.40923,0 2.76181,0.56543 3.76434,1.57392 z"
       id="path2" />
    <path
       style="fill:#3b5a87;fill-opacity:1;stroke-width:0.122405"
       d="m 407.40937,493.37192 3.37327,3.39306 c 1.00233,1.00832 2.35487,1.57376 3.76429,1.57376 h 2.08436 5.41296 c -1.40942,0 -2.762,-0.56544 -3.76434,-1.57376 l -3.37308,-3.39306 c -1.00265,-1.00849 -2.35511,-1.57392 -3.76434,-1.57392 h -7.36358 -0.13375 c 1.40942,0 2.76182,0.56556 3.76421,1.57392 z"
       id="path4" />
    <path
       style="fill:url(#linearGradient859);fill-opacity:1;stroke-width:0.114828"
       d="m 444.47801,497.55407 h -12.85238 -2.08437 -5.41295 -2.08431 -5.41271 -2.08436 c -1.40942,0 -2.76196,-0.4976 -3.76429,-1.38504 l -3.37327,-2.98601 c -1.00251,-0.88742 -2.35492,-1.38502 -3.76432,-1.38502 h -7.36334 -7.49714 c -1.7745,0 -3.21314,1.28851 -3.21314,2.87804 v 5.75606 0.95938 35.49546 c 0,1.58953 1.43864,2.87804 3.21314,2.87804 h 55.69344 c 1.7745,0 3.21314,-1.28851 3.21314,-2.87804 V 500.4321 c 0,-1.58964 -1.43864,-2.87803 -3.21314,-2.87803 z m -20.34958,5.75596 z m 19.27871,0.95937 c 0,1.05956 -0.959,1.91865 -2.14214,1.91865 h -14.99442 c -1.18314,0 -2.14215,-0.85909 -2.14215,-1.91865 v -0.95937 c 0,-1.05956 0.95901,-1.91865 2.14215,-1.91865 h 14.99429 c 1.18315,0 2.14214,0.85909 2.14214,1.91865 v 0.95937 z"
       id="path6"
       sodipodi:nodetypes="scccccsccscssccssssssccccccccccssssssscc" />
    <path
       style="fill:url(#linearGradient862);fill-opacity:1;stroke-width:0.122405"
       d="m 441.26487,501.05685 h -14.99429 c -1.18314,0 -2.16639,0.97609 -2.16639,2.18013 v 1.09026 c 0,1.20403 0.98325,2.18014 2.16639,2.18014 h 14.99429 c 1.18315,0 2.29726,-0.97643 2.32413,-2.18014 l 0.0242,-1.09026 c 1.2e-4,-1.20404 -1.16511,-2.18013 -2.34837,-2.18013 z"
       id="path8"
       sodipodi:nodetypes="ssssssscs" />
    <path
       id="Read-7"
       class="st0"
       d="m 393.4723,525.56723 h 3.26758 v 1.84615 h -3.26758 z m 5.71785,-3.69231 h -5.71785 v 1.84616 h 5.71785 z m 4.90119,3.69231 h 3.26725 v 1.84615 h -3.26725 z m 5.71772,-3.69231 h -5.71772 v 1.84616 h 5.71772 z m -5.71772,-3.6923 h 5.71772 v 1.84615 h -5.71772 z m -4.90119,0 h -5.71785 v 1.84615 h 5.71785 z m 4.90119,-3.69231 h 5.71772 v 1.84615 h -5.71772 z m -10.61904,0 h 5.71785 v 1.84615 h -5.71785 z m -3.26725,-3.69231 h 8.78087 c 1.10293,0 2.12386,0.69231 2.65483,1.84615 0.49,-1.15384 1.51114,-1.84615 2.65466,-1.84615 h 8.78104 v 18.46154 c 0,1.01538 -0.73521,1.84615 -1.63363,1.84615 h -7.14741 c -1.1028,0 -2.12369,0.69231 -2.65466,1.84616 -0.49025,-1.15385 -1.51114,-1.84616 -2.65483,-1.84616 h -8.78087 z"
       style="clip-rule:evenodd;fill:#f0f0f0;fill-opacity:1;fill-rule:evenodd;stroke-width:0.434165" />
    <path
       id="Read-s-5"
       class="st1"
       d="m 388.57143,531.10569 v -18.46154 h 1.63362 v 18.46154 z m 24.50502,-18.46154 v 16.61539 c 0,1.01538 -0.73521,1.84615 -1.63363,1.84615 h -7.35148 c -1.0212,0 -1.91962,0.64616 -2.36882,1.66154 l -0.0821,0.18462 -0.0821,-0.18462 c -0.4492,-1.01538 -1.34761,-1.66154 -2.36882,-1.66154 h -7.35146 v 1.84616 h 7.35148 c 0,1.01538 0.7352,1.84615 1.63382,1.84615 h 1.63375 c 0.89841,0 1.63362,-0.83077 1.63362,-1.84615 h 7.35147 c 1.79683,0 3.26725,-1.66154 3.26725,-3.69231 v -16.61539 z"
       style="fill:#263740;fill-opacity:1;stroke-width:0.434165" />
  </g>
</svg>
