<?xml version="1.0" encoding="UTF-8" standalone="no"?>
<svg
   width="64"
   version="1.1"
   height="64"
   id="svg15"
   sodipodi:docname="folder-design.svg"
   inkscape:version="1.1.1 (3bf5ae0d25, 2021-09-20)"
   xmlns:inkscape="http://www.inkscape.org/namespaces/inkscape"
   xmlns:sodipodi="http://sodipodi.sourceforge.net/DTD/sodipodi-0.dtd"
   xmlns:xlink="http://www.w3.org/1999/xlink"
   xmlns="http://www.w3.org/2000/svg"
   xmlns:svg="http://www.w3.org/2000/svg"
   xmlns:rdf="http://www.w3.org/1999/02/22-rdf-syntax-ns#"
   xmlns:cc="http://creativecommons.org/ns#"
   xmlns:dc="http://purl.org/dc/elements/1.1/">
  <sodipodi:namedview
     pagecolor="#ffffff"
     bordercolor="#666666"
     borderopacity="1"
     objecttolerance="10"
     gridtolerance="10"
     guidetolerance="10"
     inkscape:pageopacity="0"
     inkscape:pageshadow="2"
     inkscape:window-width="1920"
     inkscape:window-height="1007"
     id="namedview17"
     showgrid="true"
     inkscape:zoom="9.8125"
     inkscape:cx="8.1528662"
     inkscape:cy="42.853503"
     inkscape:window-x="0"
     inkscape:window-y="0"
     inkscape:window-maximized="1"
     inkscape:current-layer="layer1"
     inkscape:document-rotation="0"
     showguides="false"
     inkscape:pagecheckerboard="0">
    <inkscape:grid
       type="xygrid"
       id="grid919" />
  </sodipodi:namedview>
  <defs
     id="defs5455">
    <linearGradient
       inkscape:collect="always"
       xlink:href="#linearGradient847"
       id="linearGradient858"
       x1="210.75999"
       y1="89.093002"
       x2="362.40799"
       y2="89.093002"
       gradientUnits="userSpaceOnUse"
       gradientTransform="matrix(0.12132762,0,0,0.12349046,385.57143,484.06629)" />
    <linearGradient
       inkscape:collect="always"
       xlink:href="#linearGradient847"
       id="linearGradient859"
       x1="0"
       y1="256.82327"
       x2="512"
       y2="256.82327"
       gradientUnits="userSpaceOnUse"
       gradientTransform="matrix(0.12132762,0,0,0.12349046,385.57143,484.06629)" />
    <linearGradient
       inkscape:collect="always"
       id="linearGradient847">
      <stop
         style="stop-color:#7192c1;stop-opacity:1"
         offset="0"
         id="stop843" />
      <stop
         style="stop-color:#3b5a87;stop-opacity:1"
         offset="1"
         id="stop845" />
    </linearGradient>
    <linearGradient
       inkscape:collect="always"
       xlink:href="#linearGradient847"
       id="linearGradient862"
       x1="476.689"
       y1="163.60085"
       x2="319.6994"
       y2="162.04736"
       gradientUnits="userSpaceOnUse"
       gradientTransform="matrix(0.12132762,0,0,0.12349046,385.57143,484.06629)" />
    <linearGradient
       inkscape:collect="always"
       xlink:href="#linearGradient975"
       id="linearGradient977"
       x1="429.92029"
       y1="510.79843"
       x2="429.57144"
       y2="533.79797"
       gradientUnits="userSpaceOnUse"
       gradientTransform="translate(-32.00717,0.7)" />
    <linearGradient
       inkscape:collect="always"
       id="linearGradient975">
      <stop
         style="stop-color:#263740;stop-opacity:1"
         offset="0"
         id="stop971" />
      <stop
         style="stop-color:#263740;stop-opacity:1"
         offset="0.32845557"
         id="stop1397" />
      <stop
         style="stop-color:#f2f2f2;stop-opacity:1"
         offset="0.33189607"
         id="stop1527" />
      <stop
         style="stop-color:#f0f0f0;stop-opacity:1"
         offset="1"
         id="stop973" />
    </linearGradient>
  </defs>
  <metadata
     id="metadata5458">
    <rdf:RDF>
      <cc:Work
         rdf:about="">
        <dc:format>image/svg+xml</dc:format>
        <dc:type
           rdf:resource="http://purl.org/dc/dcmitype/StillImage" />
      </cc:Work>
    </rdf:RDF>
  </metadata>
  <g
     inkscape:label="Capa 1"
     inkscape:groupmode="layer"
     id="layer1"
     transform="translate(-384.57143,-483.798)">
    <path
       style="fill:url(#linearGradient858);fill-opacity:1;stroke-width:0.122405"
       d="m 418.27991,496.76498 c 1.00234,1.00832 2.35492,1.57376 3.76434,1.57376 h 2.08431 5.41297 c -1.40942,0 -2.76196,-0.56544 -3.76434,-1.57376 l -3.37309,-3.39306 c -1.00265,-1.00849 -2.35506,-1.57392 -3.76429,-1.57392 h -7.49732 c 1.40923,0 2.76181,0.56543 3.76434,1.57392 z"
       id="path2" />
    <path
       style="fill:#3b5a87;fill-opacity:1;stroke-width:0.122405"
       d="m 407.40937,493.37192 3.37327,3.39306 c 1.00233,1.00832 2.35487,1.57376 3.76429,1.57376 h 2.08436 5.41296 c -1.40942,0 -2.762,-0.56544 -3.76434,-1.57376 l -3.37308,-3.39306 c -1.00265,-1.00849 -2.35511,-1.57392 -3.76434,-1.57392 h -7.36358 -0.13375 c 1.40942,0 2.76182,0.56556 3.76421,1.57392 z"
       id="path4" />
    <path
       style="fill:url(#linearGradient859);fill-opacity:1;stroke-width:0.114828"
       d="m 444.47801,497.55407 h -12.85238 -2.08437 -5.41295 -2.08431 -5.41271 -2.08436 c -1.40942,0 -2.76196,-0.4976 -3.76429,-1.38504 l -3.37327,-2.98601 c -1.00251,-0.88742 -2.35492,-1.38502 -3.76432,-1.38502 h -7.36334 -7.49714 c -1.7745,0 -3.21314,1.28851 -3.21314,2.87804 v 5.75606 0.95938 35.49546 c 0,1.58953 1.43864,2.87804 3.21314,2.87804 h 55.69344 c 1.7745,0 3.21314,-1.28851 3.21314,-2.87804 V 500.4321 c 0,-1.58964 -1.43864,-2.87803 -3.21314,-2.87803 z m -20.34958,5.75596 v 0 0 0 z m 19.27871,0.95937 c 0,1.05956 -0.959,1.91865 -2.14214,1.91865 h -14.99442 c -1.18314,0 -2.14215,-0.85909 -2.14215,-1.91865 v -0.95937 c 0,-1.05956 0.95901,-1.91865 2.14215,-1.91865 h 14.99429 c 1.18315,0 2.14214,0.85909 2.14214,1.91865 v 0.95937 z"
       id="path6"
       sodipodi:nodetypes="scccccsccscssccssssssccccccccccssssssscc" />
    <path
       style="fill:url(#linearGradient862);fill-opacity:1;stroke-width:0.122405"
       d="m 441.26487,501.05685 h -14.99429 c -1.18314,0 -2.16639,0.97609 -2.16639,2.18013 v 1.09026 c 0,1.20403 0.98325,2.18014 2.16639,2.18014 h 14.99429 c 1.18315,0 2.29726,-0.97643 2.32413,-2.18014 l 0.0242,-1.09026 c 1.2e-4,-1.20404 -1.16511,-2.18013 -2.34837,-2.18013 z"
       id="path8"
       sodipodi:nodetypes="ssssssscs" />
    <path
       style="color:#232629;fill:url(#linearGradient977);fill-opacity:1;stroke:none;stroke-width:0.839479"
       d="m 397.91291,511.498 c -0.44249,0 -0.80475,0.33029 -0.80475,0.7395 v 0.67642 c -1.42587,0.3386 -2.45176,1.50812 -2.45176,2.91381 0,0.984 0.508,1.85971 1.3009,2.41084 0.0844,0.0922 0.13639,0.20891 0.13639,0.339 0,0.0379 4e-5,0.0749 -0.005,0.11038 l -3.5242,6.9077 h -1.45776 c -0.23787,0 -0.43306,0.17737 -0.43306,0.39734 v 0.002 c 0,0.21998 0.19519,0.39734 0.43306,0.39734 h 1.05198 l -2.72115,5.33412 c -0.17137,0.33825 -0.0862,0.72922 0.18243,0.98231 l -1.04856,1.96935 1.65724,-1.66031 c 0.43993,0.10644 0.91044,-0.0875 1.10994,-0.47775 l 3.13717,-6.14772 h 2.75695 v 0.52821 c 0,0.33588 0.29577,0.60704 0.66153,0.60704 h 0.0358 c 0.36576,0 0.66324,-0.27116 0.66324,-0.60704 v -0.52821 h 2.82004 l 3.13546,6.14772 c 0.19695,0.39265 0.67086,0.58419 1.10824,0.47775 l 1.65724,1.66031 -1.04515,-1.96935 c 0.26601,-0.25309 0.3521,-0.6417 0.18073,-0.98231 l -2.72115,-5.33412 h 0.98718 c 0.24043,0 0.43306,-0.17736 0.43306,-0.39734 0,-0.21998 -0.19263,-0.39658 -0.43306,-0.39892 h -1.39297 l -3.52249,-6.9077 c -0.005,-0.0355 -0.005,-0.0725 -0.005,-0.11038 0,-0.12773 0.0512,-0.24675 0.13299,-0.339 0.7929,-0.55113 1.30431,-1.42684 1.30431,-2.41084 0,-1.42492 -1.07413,-2.60887 -2.51655,-2.92958 v -0.66065 c 0,-0.40921 -0.358,-0.7395 -0.80305,-0.7395 z m 0.76554,2.72777 c 0.67844,0.26355 1.15427,0.88119 1.15427,1.60196 0,0.96034 -0.84385,1.73915 -1.88741,1.73915 -1.04868,0 -1.88742,-0.77881 -1.88742,-1.73915 0,-0.69743 0.44832,-1.29514 1.0946,-1.572 0.0958,0.30837 0.39245,0.53924 0.76042,0.53924 0.37749,0 0.68029,-0.24482 0.76554,-0.5692 z m -0.74849,5.77561 h 0.0154 0.0154 c 0.10231,0 0.19266,0.0442 0.24893,0.11037 l 2.79787,5.4839 h -2.41425 v -0.64173 c 0,-0.33825 -0.29748,-0.6102 -0.66324,-0.6102 h -0.0358 c -0.36576,0 -0.66153,0.27432 -0.66153,0.6102 v 0.64173 h -2.35117 l 2.79787,-5.4839 c 0.0588,-0.0686 0.14833,-0.11037 0.25064,-0.11037 z"
       class="ColorScheme-Text"
       id="path12" />
  </g>
</svg>
