<?xml version="1.0" encoding="UTF-8" standalone="no"?>
<svg
   width="64"
   version="1.1"
   height="64"
   id="svg15"
   sodipodi:docname="folder-Neon.svg"
   inkscape:version="1.1.1 (3bf5ae0d25, 2021-09-20)"
   xmlns:inkscape="http://www.inkscape.org/namespaces/inkscape"
   xmlns:sodipodi="http://sodipodi.sourceforge.net/DTD/sodipodi-0.dtd"
   xmlns:xlink="http://www.w3.org/1999/xlink"
   xmlns="http://www.w3.org/2000/svg"
   xmlns:svg="http://www.w3.org/2000/svg"
   xmlns:rdf="http://www.w3.org/1999/02/22-rdf-syntax-ns#"
   xmlns:cc="http://creativecommons.org/ns#"
   xmlns:dc="http://purl.org/dc/elements/1.1/">
  <sodipodi:namedview
     pagecolor="#ffffff"
     bordercolor="#666666"
     borderopacity="1"
     objecttolerance="10"
     gridtolerance="10"
     guidetolerance="10"
     inkscape:pageopacity="0"
     inkscape:pageshadow="2"
     inkscape:window-width="1920"
     inkscape:window-height="1007"
     id="namedview17"
     showgrid="true"
     inkscape:zoom="9.8125"
     inkscape:cx="20.687898"
     inkscape:cy="41.019108"
     inkscape:window-x="0"
     inkscape:window-y="0"
     inkscape:window-maximized="1"
     inkscape:current-layer="layer1"
     inkscape:document-rotation="0"
     showguides="false"
     inkscape:pagecheckerboard="0">
    <inkscape:grid
       type="xygrid"
       id="grid919" />
  </sodipodi:namedview>
  <defs
     id="defs5455">
    <linearGradient
       inkscape:collect="always"
       xlink:href="#linearGradient847"
       id="linearGradient858"
       x1="210.75999"
       y1="89.093002"
       x2="362.40799"
       y2="89.093002"
       gradientUnits="userSpaceOnUse"
       gradientTransform="matrix(0.12132762,0,0,0.12349046,385.57143,484.06629)" />
    <linearGradient
       inkscape:collect="always"
       xlink:href="#linearGradient847"
       id="linearGradient859"
       x1="0"
       y1="256.82327"
       x2="512"
       y2="256.82327"
       gradientUnits="userSpaceOnUse"
       gradientTransform="matrix(0.12132762,0,0,0.12349046,385.57143,484.06629)" />
    <linearGradient
       inkscape:collect="always"
       id="linearGradient847">
      <stop
         style="stop-color:#7192c1;stop-opacity:1"
         offset="0"
         id="stop843" />
      <stop
         style="stop-color:#3b5a87;stop-opacity:1"
         offset="1"
         id="stop845" />
    </linearGradient>
    <linearGradient
       inkscape:collect="always"
       xlink:href="#linearGradient847"
       id="linearGradient862"
       x1="476.689"
       y1="163.60085"
       x2="319.6994"
       y2="162.04736"
       gradientUnits="userSpaceOnUse"
       gradientTransform="matrix(0.12132762,0,0,0.12349046,385.57143,484.06629)" />
  </defs>
  <metadata
     id="metadata5458">
    <rdf:RDF>
      <cc:Work
         rdf:about="">
        <dc:format>image/svg+xml</dc:format>
        <dc:type
           rdf:resource="http://purl.org/dc/dcmitype/StillImage" />
      </cc:Work>
    </rdf:RDF>
  </metadata>
  <g
     inkscape:label="Capa 1"
     inkscape:groupmode="layer"
     id="layer1"
     transform="translate(-384.57143,-483.798)">
    <path
       style="fill:url(#linearGradient858);fill-opacity:1;stroke-width:0.122405"
       d="m 418.27991,496.76498 c 1.00234,1.00832 2.35492,1.57376 3.76434,1.57376 h 2.08431 5.41297 c -1.40942,0 -2.76196,-0.56544 -3.76434,-1.57376 l -3.37309,-3.39306 c -1.00265,-1.00849 -2.35506,-1.57392 -3.76429,-1.57392 h -7.49732 c 1.40923,0 2.76181,0.56543 3.76434,1.57392 z"
       id="path2" />
    <path
       style="fill:#3b5a87;fill-opacity:1;stroke-width:0.122405"
       d="m 407.40937,493.37192 3.37327,3.39306 c 1.00233,1.00832 2.35487,1.57376 3.76429,1.57376 h 2.08436 5.41296 c -1.40942,0 -2.762,-0.56544 -3.76434,-1.57376 l -3.37308,-3.39306 c -1.00265,-1.00849 -2.35511,-1.57392 -3.76434,-1.57392 h -7.36358 -0.13375 c 1.40942,0 2.76182,0.56556 3.76421,1.57392 z"
       id="path4" />
    <path
       style="fill:url(#linearGradient859);fill-opacity:1;stroke-width:0.114828"
       d="m 444.47801,497.55407 h -12.85238 -2.08437 -5.41295 -2.08431 -5.41271 -2.08436 c -1.40942,0 -2.76196,-0.4976 -3.76429,-1.38504 l -3.37327,-2.98601 c -1.00251,-0.88742 -2.35492,-1.38502 -3.76432,-1.38502 h -7.36334 -7.49714 c -1.7745,0 -3.21314,1.28851 -3.21314,2.87804 v 5.75606 0.95938 35.49546 c 0,1.58953 1.43864,2.87804 3.21314,2.87804 h 55.69344 c 1.7745,0 3.21314,-1.28851 3.21314,-2.87804 V 500.4321 c 0,-1.58964 -1.43864,-2.87803 -3.21314,-2.87803 z m -20.34958,5.75596 v 0 0 0 z m 19.27871,0.95937 c 0,1.05956 -0.959,1.91865 -2.14214,1.91865 h -14.99442 c -1.18314,0 -2.14215,-0.85909 -2.14215,-1.91865 v -0.95937 c 0,-1.05956 0.95901,-1.91865 2.14215,-1.91865 h 14.99429 c 1.18315,0 2.14214,0.85909 2.14214,1.91865 v 0.95937 z"
       id="path6"
       sodipodi:nodetypes="scccccsccscssccssssssccccccccccssssssscc" />
    <path
       style="fill:url(#linearGradient862);fill-opacity:1;stroke-width:0.122405"
       d="m 441.26487,501.05685 h -14.99429 c -1.18314,0 -2.16639,0.97609 -2.16639,2.18013 v 1.09026 c 0,1.20403 0.98325,2.18014 2.16639,2.18014 h 14.99429 c 1.18315,0 2.29726,-0.97643 2.32413,-2.18014 l 0.0242,-1.09026 c 1.2e-4,-1.20404 -1.16511,-2.18013 -2.34837,-2.18013 z"
       id="path8"
       sodipodi:nodetypes="ssssssscs" />
    <path
       d="m 400.57222,525.91514 c 1.72121,0 3.11659,-1.39538 3.11659,-3.11662 0,-1.72115 -1.39538,-3.11654 -3.11659,-3.11654 -1.72119,0 -3.11658,1.39539 -3.11658,3.11654 0,1.72124 1.39539,3.11662 3.11658,3.11662 z m 0.54078,-1.00237 c 0.58422,-0.14902 1.08578,-0.53908 1.37566,-1.07187 0.0276,-0.0509 0.0804,-0.0798 0.13705,-0.0798 0.0251,0 0.0502,0.005 0.074,0.0198 0.0749,0.0424 0.10271,0.13597 0.064,0.21145 -0.33142,0.60793 -0.9048,1.05432 -1.57271,1.22445 -0.0847,0.0227 -0.16827,-0.0282 -0.18934,-0.11297 -0.0218,-0.0833 0.0284,-0.16798 0.11295,-0.18909 z"
       id="path2-6"
       style="fill:#1f222d;fill-opacity:1;stroke:#1f222d;stroke-width:0.266644;stroke-opacity:1" />
    <path
       d="m 401.65962,515.75184 c -0.0193,-0.58634 -0.49628,-1.05674 -1.0874,-1.05674 -0.59119,0 -1.06901,0.4704 -1.08742,1.05674 -3.41706,0.52555 -6.042,3.48504 -6.042,7.04676 0,3.56159 2.62518,6.52106 6.042,7.04661 0.0193,0.58641 0.49623,1.05684 1.08742,1.05684 0.59112,0 1.06895,-0.47043 1.0874,-1.05684 3.41715,-0.52555 6.04208,-3.48502 6.04208,-7.04661 0,-3.56172 -2.62493,-6.52121 -6.04208,-7.04676 z m -0.0178,13.85907 c -0.0947,-0.50662 -0.53684,-0.89058 -1.07094,-0.89058 -0.53411,0 -0.97651,0.38362 -1.07087,0.89058 -3.29546,-0.51656 -5.82461,-3.37389 -5.82461,-6.81231 0,-3.43845 2.52915,-6.29584 5.8249,-6.81235 0.0947,0.50665 0.53679,0.89062 1.0708,0.89062 0.53412,0 0.9765,-0.38371 1.07096,-0.89062 3.29521,0.51651 5.82441,3.3739 5.82441,6.81235 0,3.43842 -2.5292,6.29575 -5.82465,6.81231 z"
       id="path4-3"
       style="fill:#f2f2f2;fill-opacity:1;stroke-width:0.266644" />
    <path
       d="m 412.57145,522.7986 c 0,-0.58104 -0.45493,-1.05116 -1.02767,-1.08446 -0.2184,-2.22762 -1.10269,-4.2624 -2.45,-5.90311 0.38469,-0.42822 0.37509,-1.08496 -0.0381,-1.49717 -0.41194,-0.412 -1.06894,-0.42187 -1.49696,-0.0382 -1.64042,-1.34757 -3.67547,-2.23136 -5.90278,-2.44998 -0.032,-0.57212 -0.50371,-1.02768 -1.0848,-1.02768 -0.58096,0 -1.05114,0.45556 -1.0844,1.02768 -2.22736,0.2184 -4.26217,1.10241 -5.90279,2.44998 -0.42807,-0.38504 -1.08526,-0.37514 -1.49755,0.0382 -0.41191,0.41221 -0.42177,1.06947 -0.0373,1.49747 -1.34757,1.64041 -2.23137,3.67545 -2.44999,5.90281 -0.57278,0.0318 -1.02768,0.50342 -1.02768,1.08446 0,0.58098 0.4549,1.05113 1.02768,1.08446 0.2184,2.22728 1.10242,4.26185 2.44974,5.90238 -0.38508,0.42839 -0.37519,1.08564 0.0378,1.4979 0.41227,0.41185 1.06926,0.42173 1.49782,0.037 1.6404,1.34787 3.67545,2.23136 5.90285,2.44999 0.0318,0.57211 0.50338,1.02767 1.08441,1.02767 0.58101,0 1.05119,-0.45556 1.08442,-1.02767 2.22739,-0.2184 4.2622,-1.10212 5.90279,-2.44999 0.42862,0.38504 1.08536,0.37514 1.49756,-0.037 0.41191,-0.41226 0.42178,-1.06951 0.0377,-1.49756 1.348,-1.64038 2.23137,-3.67544 2.45,-5.90272 0.57289,-0.0318 1.02767,-0.50348 1.02767,-1.08446 z m -1.2613,1.07374 c -0.2154,2.17133 -1.07725,4.15523 -2.38993,5.75664 -0.4264,-0.30667 -1.02202,-0.27187 -1.40544,0.11229 -0.38356,0.3837 -0.4188,0.97934 -0.11229,1.40546 -1.60119,1.31268 -3.58533,2.1745 -5.75719,2.3899 -0.0804,-0.52102 -0.52901,-0.92012 -1.07324,-0.92012 -0.54425,0 -0.99145,0.3991 -1.07333,0.92012 -2.17182,-0.2154 -4.15596,-1.07722 -5.75719,-2.3899 0.30692,-0.42668 0.27197,-1.02271 -0.11218,-1.40569 -0.38346,-0.38354 -0.97939,-0.41909 -1.40578,-0.11249 -1.31271,-1.60096 -2.17477,-3.58485 -2.39022,-5.75617 0.52104,-0.081 0.92018,-0.52952 0.92018,-1.07376 0,-0.5443 -0.39914,-0.99147 -0.92018,-1.0738 0.21545,-2.17136 1.07722,-4.15496 2.38972,-5.75647 0.42662,0.30718 1.02282,0.27205 1.406,-0.11214 0.38347,-0.38341 0.41842,-0.97966 0.11224,-1.40606 1.60146,-1.31235 3.58509,-2.17422 5.75692,-2.38968 0.0804,0.52099 0.52905,0.92016 1.07329,0.92016 0.5442,0 0.99142,-0.39917 1.07329,-0.92016 2.17182,0.21546 4.15567,1.07733 5.757,2.38968 -0.30675,0.42666 -0.27213,1.02233 0.11211,1.4058 0.38339,0.3834 0.97944,0.4184 1.40582,0.11215 1.31259,1.60126 2.17444,3.58536 2.38999,5.75672 -0.52105,0.0809 -0.92014,0.5295 -0.92014,1.0738 0,0.54424 0.39934,0.99138 0.92059,1.07376 z"
       id="path6-6"
       style="fill:#f2f2f2;fill-opacity:1;stroke-width:0.266644" />
  </g>
</svg>
