<?xml version="1.0" encoding="UTF-8" standalone="no"?>
<svg
   width="64"
   version="1.1"
   height="64"
   id="svg15"
   sodipodi:docname="folder-rpm.svg"
   inkscape:version="1.1.1 (3bf5ae0d25, 2021-09-20)"
   xmlns:inkscape="http://www.inkscape.org/namespaces/inkscape"
   xmlns:sodipodi="http://sodipodi.sourceforge.net/DTD/sodipodi-0.dtd"
   xmlns:xlink="http://www.w3.org/1999/xlink"
   xmlns="http://www.w3.org/2000/svg"
   xmlns:svg="http://www.w3.org/2000/svg"
   xmlns:rdf="http://www.w3.org/1999/02/22-rdf-syntax-ns#"
   xmlns:cc="http://creativecommons.org/ns#"
   xmlns:dc="http://purl.org/dc/elements/1.1/">
  <sodipodi:namedview
     pagecolor="#ffffff"
     bordercolor="#666666"
     borderopacity="1"
     objecttolerance="10"
     gridtolerance="10"
     guidetolerance="10"
     inkscape:pageopacity="0"
     inkscape:pageshadow="2"
     inkscape:window-width="1920"
     inkscape:window-height="1007"
     id="namedview17"
     showgrid="true"
     inkscape:zoom="9.8125"
     inkscape:cx="17.019108"
     inkscape:cy="42.038217"
     inkscape:window-x="0"
     inkscape:window-y="0"
     inkscape:window-maximized="1"
     inkscape:current-layer="layer1"
     inkscape:document-rotation="0"
     showguides="false"
     inkscape:pagecheckerboard="0">
    <inkscape:grid
       type="xygrid"
       id="grid919" />
  </sodipodi:namedview>
  <defs
     id="defs5455">
    <linearGradient
       inkscape:collect="always"
       xlink:href="#linearGradient847"
       id="linearGradient858"
       x1="210.75999"
       y1="89.093002"
       x2="362.40799"
       y2="89.093002"
       gradientUnits="userSpaceOnUse"
       gradientTransform="matrix(0.12132762,0,0,0.12349046,385.57143,484.06629)" />
    <linearGradient
       inkscape:collect="always"
       xlink:href="#linearGradient847"
       id="linearGradient859"
       x1="0"
       y1="256.82327"
       x2="512"
       y2="256.82327"
       gradientUnits="userSpaceOnUse"
       gradientTransform="matrix(0.12132762,0,0,0.12349046,385.57143,484.06629)" />
    <linearGradient
       inkscape:collect="always"
       id="linearGradient847">
      <stop
         style="stop-color:#7192c1;stop-opacity:1"
         offset="0"
         id="stop843" />
      <stop
         style="stop-color:#3b5a87;stop-opacity:1"
         offset="1"
         id="stop845" />
    </linearGradient>
    <linearGradient
       inkscape:collect="always"
       xlink:href="#linearGradient847"
       id="linearGradient862"
       x1="476.689"
       y1="163.60085"
       x2="319.6994"
       y2="162.04736"
       gradientUnits="userSpaceOnUse"
       gradientTransform="matrix(0.12132762,0,0,0.12349046,385.57143,484.06629)" />
    <linearGradient
       inkscape:collect="always"
       xlink:href="#linearGradient1243"
       id="linearGradient1245"
       x1="0"
       y1="30"
       x2="64"
       y2="30"
       gradientUnits="userSpaceOnUse" />
    <linearGradient
       inkscape:collect="always"
       id="linearGradient1243">
      <stop
         style="stop-color:#d40000;stop-opacity:1"
         offset="0"
         id="stop1239" />
      <stop
         style="stop-color:#ffaaaa;stop-opacity:1"
         offset="1"
         id="stop1241" />
    </linearGradient>
  </defs>
  <metadata
     id="metadata5458">
    <rdf:RDF>
      <cc:Work
         rdf:about="">
        <dc:format>image/svg+xml</dc:format>
        <dc:type
           rdf:resource="http://purl.org/dc/dcmitype/StillImage" />
      </cc:Work>
    </rdf:RDF>
  </metadata>
  <g
     inkscape:label="Capa 1"
     inkscape:groupmode="layer"
     id="layer1"
     transform="translate(-384.57143,-483.798)">
    <path
       style="fill:url(#linearGradient858);fill-opacity:1;stroke-width:0.122405"
       d="m 418.27991,496.76498 c 1.00234,1.00832 2.35492,1.57376 3.76434,1.57376 h 2.08431 5.41297 c -1.40942,0 -2.76196,-0.56544 -3.76434,-1.57376 l -3.37309,-3.39306 c -1.00265,-1.00849 -2.35506,-1.57392 -3.76429,-1.57392 h -7.49732 c 1.40923,0 2.76181,0.56543 3.76434,1.57392 z"
       id="path2" />
    <path
       style="fill:#3b5a87;fill-opacity:1;stroke-width:0.122405"
       d="m 407.40937,493.37192 3.37327,3.39306 c 1.00233,1.00832 2.35487,1.57376 3.76429,1.57376 h 2.08436 5.41296 c -1.40942,0 -2.762,-0.56544 -3.76434,-1.57376 l -3.37308,-3.39306 c -1.00265,-1.00849 -2.35511,-1.57392 -3.76434,-1.57392 h -7.36358 -0.13375 c 1.40942,0 2.76182,0.56556 3.76421,1.57392 z"
       id="path4" />
    <path
       style="fill:url(#linearGradient859);fill-opacity:1;stroke-width:0.114828"
       d="m 444.47801,497.55407 h -12.85238 -2.08437 -5.41295 -2.08431 -5.41271 -2.08436 c -1.40942,0 -2.76196,-0.4976 -3.76429,-1.38504 l -3.37327,-2.98601 c -1.00251,-0.88742 -2.35492,-1.38502 -3.76432,-1.38502 h -7.36334 -7.49714 c -1.7745,0 -3.21314,1.28851 -3.21314,2.87804 v 5.75606 0.95938 35.49546 c 0,1.58953 1.43864,2.87804 3.21314,2.87804 h 55.69344 c 1.7745,0 3.21314,-1.28851 3.21314,-2.87804 V 500.4321 c 0,-1.58964 -1.43864,-2.87803 -3.21314,-2.87803 z m -20.34958,5.75596 z m 19.27871,0.95937 c 0,1.05956 -0.959,1.91865 -2.14214,1.91865 h -14.99442 c -1.18314,0 -2.14215,-0.85909 -2.14215,-1.91865 v -0.95937 c 0,-1.05956 0.95901,-1.91865 2.14215,-1.91865 h 14.99429 c 1.18315,0 2.14214,0.85909 2.14214,1.91865 v 0.95937 z"
       id="path6"
       sodipodi:nodetypes="scccccsccscssccssssssccccccccccssssssscc" />
    <path
       style="fill:url(#linearGradient862);fill-opacity:1;stroke-width:0.122405"
       d="m 441.26487,501.05685 h -14.99429 c -1.18314,0 -2.16639,0.97609 -2.16639,2.18013 v 1.09026 c 0,1.20403 0.98325,2.18014 2.16639,2.18014 h 14.99429 c 1.18315,0 2.29726,-0.97643 2.32413,-2.18014 l 0.0242,-1.09026 c 1.2e-4,-1.20404 -1.16511,-2.18013 -2.34837,-2.18013 z"
       id="path8"
       sodipodi:nodetypes="ssssssscs" />
    <g
       id="Dashboard_1_"
       transform="matrix(0.35714286,0,0,0.35714286,388.57143,513.36943)">
      <path
         id="Dashboard"
         class="st0"
         d="M 58.8,44 C 59.6,41.5 60,38.8 60,36 60,20.5 47.5,8 32,8 16.5,8 4,20.5 4,36 c 0,2.8 0.4,5.5 1.2,8 H 20 c 0,-6.6 5.4,-12 12,-12 6.6,0 12,5.4 12,12 z M 64,36 c 0,6 -1.6,11.5 -4.5,16.3 L 54,56 H 7 C 2.6,50.5 0,43.6 0,36 0,18.3 14.3,4 32,4 49.7,4 64,18.3 64,36 Z"
         style="fill:url(#linearGradient1245);fill-opacity:1" />
      <path
         id="Dashboard-s"
         class="st1"
         d="m 22.1,14.2 c 2.2,-1 4.5,-1.6 6.8,-1.9 l 0.5,4 c -2,0.3 -3.9,0.8 -5.7,1.6 -2.2,1 -4.2,2.4 -5.9,4.1 L 15,19 c 2.1,-2 4.4,-3.7 7.1,-4.8 z m 13,-2 -0.5,4 c 1.9,0.3 3.8,0.8 5.6,1.6 2.5,1.1 4.7,2.7 6.5,4.7 L 29.6,39.6 32.4,42.4 52,22.8 v 0 c -0.6,-0.9 -1.3,-1.8 -2,-2.6 -2.3,-2.6 -5,-4.6 -8.1,-6 -2.2,-1 -4.5,-1.7 -6.8,-2 z M 9,29.1 C 8,32.4 7.7,35.8 8.2,39.2 l 4,-0.5 c -0.4,-2.8 -0.1,-5.7 0.7,-8.4 0.4,-1.5 1.1,-2.9 1.8,-4.2 l -3.5,-2 c -0.9,1.5 -1.6,3.2 -2.2,5 z m 45,-2.6 -3.1,3.1 c 0.1,0.2 0.1,0.4 0.2,0.6 0.8,2.7 1.1,5.6 0.7,8.4 l 4,0.5 C 56.2,35.7 56,32.3 55,29 54.7,28.1 54.4,27.3 54,26.5 Z M 58.8,44 c -0.3,1.1 -0.7,2.2 -1.2,3.2 -1.1,2.4 -2.4,4.7 -4.1,6.7 -1.1,1.4 -3,2.1 -5.1,2.1 H 12 v 4 h 36.5 c 3,0 6.1,-1.1 8.1,-3.6 1.9,-2.3 3.5,-4.9 4.7,-7.6 C 62,47.2 62.5,45.6 63,44 Z"
         style="fill:#f0f0f0;fill-opacity:1" />
    </g>
  </g>
</svg>
