<?xml version="1.0" encoding="UTF-8" standalone="no"?>
<svg
   width="64"
   version="1.1"
   height="64"
   id="svg15"
   sodipodi:docname="folder-podcast.svg"
   inkscape:version="1.1.1 (3bf5ae0d25, 2021-09-20)"
   xmlns:inkscape="http://www.inkscape.org/namespaces/inkscape"
   xmlns:sodipodi="http://sodipodi.sourceforge.net/DTD/sodipodi-0.dtd"
   xmlns:xlink="http://www.w3.org/1999/xlink"
   xmlns="http://www.w3.org/2000/svg"
   xmlns:svg="http://www.w3.org/2000/svg"
   xmlns:rdf="http://www.w3.org/1999/02/22-rdf-syntax-ns#"
   xmlns:cc="http://creativecommons.org/ns#"
   xmlns:dc="http://purl.org/dc/elements/1.1/">
  <sodipodi:namedview
     pagecolor="#ffffff"
     bordercolor="#666666"
     borderopacity="1"
     objecttolerance="10"
     gridtolerance="10"
     guidetolerance="10"
     inkscape:pageopacity="0"
     inkscape:pageshadow="2"
     inkscape:window-width="1920"
     inkscape:window-height="1007"
     id="namedview17"
     showgrid="true"
     inkscape:zoom="9.8125"
     inkscape:cx="17.019108"
     inkscape:cy="42.038217"
     inkscape:window-x="0"
     inkscape:window-y="0"
     inkscape:window-maximized="1"
     inkscape:current-layer="layer1"
     inkscape:document-rotation="0"
     showguides="false"
     inkscape:pagecheckerboard="0">
    <inkscape:grid
       type="xygrid"
       id="grid919" />
  </sodipodi:namedview>
  <defs
     id="defs5455">
    <linearGradient
       inkscape:collect="always"
       xlink:href="#linearGradient847"
       id="linearGradient858"
       x1="210.75999"
       y1="89.093002"
       x2="362.40799"
       y2="89.093002"
       gradientUnits="userSpaceOnUse"
       gradientTransform="matrix(0.12132762,0,0,0.12349046,385.57143,484.06629)" />
    <linearGradient
       inkscape:collect="always"
       xlink:href="#linearGradient847"
       id="linearGradient859"
       x1="0"
       y1="256.82327"
       x2="512"
       y2="256.82327"
       gradientUnits="userSpaceOnUse"
       gradientTransform="matrix(0.12132762,0,0,0.12349046,385.57143,484.06629)" />
    <linearGradient
       inkscape:collect="always"
       id="linearGradient847">
      <stop
         style="stop-color:#7192c1;stop-opacity:1"
         offset="0"
         id="stop843" />
      <stop
         style="stop-color:#3b5a87;stop-opacity:1"
         offset="1"
         id="stop845" />
    </linearGradient>
    <linearGradient
       inkscape:collect="always"
       xlink:href="#linearGradient847"
       id="linearGradient862"
       x1="476.689"
       y1="163.60085"
       x2="319.6994"
       y2="162.04736"
       gradientUnits="userSpaceOnUse"
       gradientTransform="matrix(0.12132762,0,0,0.12349046,385.57143,484.06629)" />
    <linearGradient
       inkscape:collect="always"
       xlink:href="#linearGradient4172-0"
       id="linearGradient988"
       x1="0"
       y1="31.973534"
       x2="64"
       y2="31.973534"
       gradientUnits="userSpaceOnUse" />
    <linearGradient
       id="linearGradient4172-0">
      <stop
         style="stop-color:#f89406"
         id="stop4174-4" />
      <stop
         offset="1"
         style="stop-color:#faa938"
         id="stop4176-5" />
    </linearGradient>
    <linearGradient
       inkscape:collect="always"
       xlink:href="#linearGradient4172-0"
       id="linearGradient857"
       gradientUnits="userSpaceOnUse"
       x1="0"
       y1="31.973534"
       x2="64"
       y2="31.973534" />
  </defs>
  <metadata
     id="metadata5458">
    <rdf:RDF>
      <cc:Work
         rdf:about="">
        <dc:format>image/svg+xml</dc:format>
        <dc:type
           rdf:resource="http://purl.org/dc/dcmitype/StillImage" />
      </cc:Work>
    </rdf:RDF>
  </metadata>
  <g
     inkscape:label="Capa 1"
     inkscape:groupmode="layer"
     id="layer1"
     transform="translate(-384.57143,-483.798)">
    <path
       style="fill:url(#linearGradient858);fill-opacity:1;stroke-width:0.122405"
       d="m 418.27991,496.76498 c 1.00234,1.00832 2.35492,1.57376 3.76434,1.57376 h 2.08431 5.41297 c -1.40942,0 -2.76196,-0.56544 -3.76434,-1.57376 l -3.37309,-3.39306 c -1.00265,-1.00849 -2.35506,-1.57392 -3.76429,-1.57392 h -7.49732 c 1.40923,0 2.76181,0.56543 3.76434,1.57392 z"
       id="path2" />
    <path
       style="fill:#3b5a87;fill-opacity:1;stroke-width:0.122405"
       d="m 407.40937,493.37192 3.37327,3.39306 c 1.00233,1.00832 2.35487,1.57376 3.76429,1.57376 h 2.08436 5.41296 c -1.40942,0 -2.762,-0.56544 -3.76434,-1.57376 l -3.37308,-3.39306 c -1.00265,-1.00849 -2.35511,-1.57392 -3.76434,-1.57392 h -7.36358 -0.13375 c 1.40942,0 2.76182,0.56556 3.76421,1.57392 z"
       id="path4" />
    <path
       style="fill:url(#linearGradient859);fill-opacity:1;stroke-width:0.114828"
       d="m 444.47801,497.55407 h -12.85238 -2.08437 -5.41295 -2.08431 -5.41271 -2.08436 c -1.40942,0 -2.76196,-0.4976 -3.76429,-1.38504 l -3.37327,-2.98601 c -1.00251,-0.88742 -2.35492,-1.38502 -3.76432,-1.38502 h -7.36334 -7.49714 c -1.7745,0 -3.21314,1.28851 -3.21314,2.87804 v 5.75606 0.95938 35.49546 c 0,1.58953 1.43864,2.87804 3.21314,2.87804 h 55.69344 c 1.7745,0 3.21314,-1.28851 3.21314,-2.87804 V 500.4321 c 0,-1.58964 -1.43864,-2.87803 -3.21314,-2.87803 z m -20.34958,5.75596 z m 19.27871,0.95937 c 0,1.05956 -0.959,1.91865 -2.14214,1.91865 h -14.99442 c -1.18314,0 -2.14215,-0.85909 -2.14215,-1.91865 v -0.95937 c 0,-1.05956 0.95901,-1.91865 2.14215,-1.91865 h 14.99429 c 1.18315,0 2.14214,0.85909 2.14214,1.91865 v 0.95937 z"
       id="path6"
       sodipodi:nodetypes="scccccsccscssccssssssccccccccccssssssscc" />
    <path
       style="fill:url(#linearGradient862);fill-opacity:1;stroke-width:0.122405"
       d="m 441.26487,501.05685 h -14.99429 c -1.18314,0 -2.16639,0.97609 -2.16639,2.18013 v 1.09026 c 0,1.20403 0.98325,2.18014 2.16639,2.18014 h 14.99429 c 1.18315,0 2.29726,-0.97643 2.32413,-2.18014 l 0.0242,-1.09026 c 1.2e-4,-1.20404 -1.16511,-2.18013 -2.34837,-2.18013 z"
       id="path8"
       sodipodi:nodetypes="ssssssscs" />
    <g
       id="g1408"
       transform="matrix(0.37500001,0,0,0.37469011,388.57143,510.81783)"
       style="fill:url(#linearGradient988);fill-opacity:1">
      <path
         class="st1"
         d="m 0,20.000001 h 2.031746 c 5.5873016,0 11.174602,1.099998 16.355556,3.199998 5.180952,2.100001 9.853968,5.200003 13.815873,9.100002 3.961905,3.9 7.111111,8.499999 9.244443,13.6 2.133334,5.1 3.250794,10.599999 3.250794,16.1 V 64 H 28.444445 v -1.999999 c 0,-14.400001 -11.784128,-26 -26.412699,-26 H 0 Z m 31.288888,28 c 2.234922,0 4.063493,-1.8 4.063493,-4.000001 0,-0.599999 -0.101589,-1.199999 -0.40635,-1.699999 -1.625396,-2.600001 -3.453967,-5 -5.688887,-7.099999 -3.555557,-3.500001 -7.822224,-6.300003 -12.49524,-8.2 C 12.698412,25.3 8.431746,24.399999 4.063492,24.200002 v 7.999997 c 10.260318,0.7 19.098413,6.300002 24.177778,14.500002 0.711111,0.799999 1.828571,1.3 3.047618,1.3 z M 10.15873,44 C 4.5714285,44 0,48.500001 0,54 c 0,5.500001 4.5714285,10 10.15873,10 5.587301,0 10.15873,-4.499999 10.15873,-10 0,-5.499999 -4.571429,-10 -10.15873,-10 z M 4.063492,54 c 0,-3.3 2.7428572,-5.999999 6.095238,-5.999999 3.35238,0 6.095239,2.699999 6.095239,5.999999 0,3.300001 -2.742859,6.200001 -6.095239,6.200001 -3.3523808,0 -6.095238,-2.9 -6.095238,-6.200001 z M 3.9707326,-0.05293123 C 1.2639211,-0.03687541 0,1.7268151 0,5.3333333 V 16 h 2.031746 c 25.803175,0 46.730159,20.600001 46.730159,46.000001 L 64,61.000001 53.84127,30 h -2.641271 c 0.304762,0.600001 0.507937,1.199999 0.507937,2.000001 0,2.2 -1.828571,4 -4.063491,4 -1.219049,0 -2.234922,-0.5 -3.04762,-1.300002 C 35.860317,21.600001 21.028571,12.700001 4.063492,12.000002 V 4 C 4.6730159,4 5.2825397,4.1000001 5.9936507,4.1000001 L 6.2984127,0.09999999 C 4.8761905,0 3.9707326,-0.05293123 3.9707326,-0.05293123 Z"
         id="path6-3"
         sodipodi:nodetypes="csssssccssccssccccccssssssssssssccsccccsscccccs"
         style="fill:url(#linearGradient857);fill-opacity:1;stroke-width:1.00789" />
      <path
         class="st2"
         d="M 4,4 C 34.4,5 58.9,29.499361 60,59.999361 L 55.712365,60 H 48 v 4 H 58.757973 C 63.999998,64 64,59.996692 64,59.996692 L 63.97753,58.767219 C 63.439154,29.309317 37.3,1.1 4,0 Z"
         id="path8-6"
         style="fill:#263740;fill-opacity:1"
         sodipodi:nodetypes="cccccccscc" />
    </g>
  </g>
</svg>
