<?xml version="1.0" encoding="UTF-8" standalone="no"?>
<svg
   width="64"
   version="1.1"
   height="64"
   id="svg15"
   sodipodi:docname="folder-html.svg"
   inkscape:version="1.1.1 (3bf5ae0d25, 2021-09-20)"
   xmlns:inkscape="http://www.inkscape.org/namespaces/inkscape"
   xmlns:sodipodi="http://sodipodi.sourceforge.net/DTD/sodipodi-0.dtd"
   xmlns:xlink="http://www.w3.org/1999/xlink"
   xmlns="http://www.w3.org/2000/svg"
   xmlns:svg="http://www.w3.org/2000/svg"
   xmlns:rdf="http://www.w3.org/1999/02/22-rdf-syntax-ns#"
   xmlns:cc="http://creativecommons.org/ns#"
   xmlns:dc="http://purl.org/dc/elements/1.1/">
  <sodipodi:namedview
     pagecolor="#ffffff"
     bordercolor="#666666"
     borderopacity="1"
     objecttolerance="10"
     gridtolerance="10"
     guidetolerance="10"
     inkscape:pageopacity="0"
     inkscape:pageshadow="2"
     inkscape:window-width="1920"
     inkscape:window-height="1007"
     id="namedview17"
     showgrid="true"
     inkscape:zoom="9.8125"
     inkscape:cx="17.019108"
     inkscape:cy="42.038217"
     inkscape:window-x="0"
     inkscape:window-y="0"
     inkscape:window-maximized="1"
     inkscape:current-layer="layer1"
     inkscape:document-rotation="0"
     showguides="false"
     inkscape:pagecheckerboard="0">
    <inkscape:grid
       type="xygrid"
       id="grid919" />
  </sodipodi:namedview>
  <defs
     id="defs5455">
    <linearGradient
       inkscape:collect="always"
       xlink:href="#linearGradient847"
       id="linearGradient858"
       x1="210.75999"
       y1="89.093002"
       x2="362.40799"
       y2="89.093002"
       gradientUnits="userSpaceOnUse"
       gradientTransform="matrix(0.12132762,0,0,0.12349046,385.57143,484.06629)" />
    <linearGradient
       inkscape:collect="always"
       xlink:href="#linearGradient847"
       id="linearGradient859"
       x1="0"
       y1="256.82327"
       x2="512"
       y2="256.82327"
       gradientUnits="userSpaceOnUse"
       gradientTransform="matrix(0.12132762,0,0,0.12349046,385.57143,484.06629)" />
    <linearGradient
       inkscape:collect="always"
       id="linearGradient847">
      <stop
         style="stop-color:#7192c1;stop-opacity:1"
         offset="0"
         id="stop843" />
      <stop
         style="stop-color:#3b5a87;stop-opacity:1"
         offset="1"
         id="stop845" />
    </linearGradient>
    <linearGradient
       inkscape:collect="always"
       xlink:href="#linearGradient847"
       id="linearGradient862"
       x1="476.689"
       y1="163.60085"
       x2="319.6994"
       y2="162.04736"
       gradientUnits="userSpaceOnUse"
       gradientTransform="matrix(0.12132762,0,0,0.12349046,385.57143,484.06629)" />
  </defs>
  <metadata
     id="metadata5458">
    <rdf:RDF>
      <cc:Work
         rdf:about="">
        <dc:format>image/svg+xml</dc:format>
        <dc:type
           rdf:resource="http://purl.org/dc/dcmitype/StillImage" />
      </cc:Work>
    </rdf:RDF>
  </metadata>
  <g
     inkscape:label="Capa 1"
     inkscape:groupmode="layer"
     id="layer1"
     transform="translate(-384.57143,-483.798)">
    <path
       style="fill:url(#linearGradient858);fill-opacity:1;stroke-width:0.122405"
       d="m 418.27991,496.76498 c 1.00234,1.00832 2.35492,1.57376 3.76434,1.57376 h 2.08431 5.41297 c -1.40942,0 -2.76196,-0.56544 -3.76434,-1.57376 l -3.37309,-3.39306 c -1.00265,-1.00849 -2.35506,-1.57392 -3.76429,-1.57392 h -7.49732 c 1.40923,0 2.76181,0.56543 3.76434,1.57392 z"
       id="path2" />
    <path
       style="fill:#3b5a87;fill-opacity:1;stroke-width:0.122405"
       d="m 407.40937,493.37192 3.37327,3.39306 c 1.00233,1.00832 2.35487,1.57376 3.76429,1.57376 h 2.08436 5.41296 c -1.40942,0 -2.762,-0.56544 -3.76434,-1.57376 l -3.37308,-3.39306 c -1.00265,-1.00849 -2.35511,-1.57392 -3.76434,-1.57392 h -7.36358 -0.13375 c 1.40942,0 2.76182,0.56556 3.76421,1.57392 z"
       id="path4" />
    <path
       style="fill:url(#linearGradient859);fill-opacity:1;stroke-width:0.114828"
       d="m 444.47801,497.55407 h -12.85238 -2.08437 -5.41295 -2.08431 -5.41271 -2.08436 c -1.40942,0 -2.76196,-0.4976 -3.76429,-1.38504 l -3.37327,-2.98601 c -1.00251,-0.88742 -2.35492,-1.38502 -3.76432,-1.38502 h -7.36334 -7.49714 c -1.7745,0 -3.21314,1.28851 -3.21314,2.87804 v 5.75606 0.95938 35.49546 c 0,1.58953 1.43864,2.87804 3.21314,2.87804 h 55.69344 c 1.7745,0 3.21314,-1.28851 3.21314,-2.87804 V 500.4321 c 0,-1.58964 -1.43864,-2.87803 -3.21314,-2.87803 z m -20.34958,5.75596 z m 19.27871,0.95937 c 0,1.05956 -0.959,1.91865 -2.14214,1.91865 h -14.99442 c -1.18314,0 -2.14215,-0.85909 -2.14215,-1.91865 v -0.95937 c 0,-1.05956 0.95901,-1.91865 2.14215,-1.91865 h 14.99429 c 1.18315,0 2.14214,0.85909 2.14214,1.91865 v 0.95937 z"
       id="path6"
       sodipodi:nodetypes="scccccsccscssccssssssccccccccccssssssscc" />
    <path
       style="fill:url(#linearGradient862);fill-opacity:1;stroke-width:0.122405"
       d="m 441.26487,501.05685 h -14.99429 c -1.18314,0 -2.16639,0.97609 -2.16639,2.18013 v 1.09026 c 0,1.20403 0.98325,2.18014 2.16639,2.18014 h 14.99429 c 1.18315,0 2.29726,-0.97643 2.32413,-2.18014 l 0.0242,-1.09026 c 1.2e-4,-1.20404 -1.16511,-2.18013 -2.34837,-2.18013 z"
       id="path8"
       sodipodi:nodetypes="ssssssscs" />
    <path
       d="m 404.72045,513.22542 c 0,0 0.003,0 0.003,0.003 0,0 0.006,0 0.009,0 -0.006,-0.003 -0.009,-0.003 -0.0125,-0.003 z"
       id="path6-39"
       style="fill:#f0f0f0;fill-opacity:1;stroke-width:0.0313231" />
    <path
       d="m 404.56696,528.72723 c -0.0219,0.0439 -0.0219,0.15348 -0.0501,0.18794 -0.10963,0.10649 -0.32263,0.34455 -0.47298,0.44165 -0.19734,0.11276 -0.41973,0.11276 -0.44479,0.4072 -0.006,0.10024 0.0783,0.23493 0.0752,0.3007 0.003,0.0125 -0.14722,0.26938 -0.14722,0.26938 -0.009,0.003 -0.13156,0.1065 -0.13783,0.1253 -0.006,0.0846 -0.0125,0.1754 0.0595,0.22239 0.003,0.0344 -0.0219,0.0658 -0.0219,0.14095 -0.009,0.14722 0.1065,0.28504 0.26312,0.27878 0.37901,-0.0407 0.46984,-0.3978 0.60453,-0.66718 0.16915,-0.33829 0.33203,-0.62647 0.37275,-1.07439 0.009,0 0.0752,0.0157 0.10336,0.0219 0.003,-0.0251 0.009,-0.0627 0.009,-0.0877 -0.0439,-0.16288 0,-0.55129 -0.213,-0.56695 z"
       id="path8-0"
       style="fill:#f0f0f0;fill-opacity:1;stroke-width:0.0313231" />
    <path
       d="m 409.54734,524.90268 c -0.003,0.0908 0.0438,0.1754 0.10336,0.1754 0.0877,-0.009 0.14722,-0.15661 0.15349,-0.27877 0.0125,-0.20987 -0.11903,-0.28504 -0.17541,-0.44166 -0.009,0.2036 -0.0752,0.34769 -0.0814,0.54503 z"
       id="path10-8"
       style="fill:#f0f0f0;fill-opacity:1;stroke-width:0.0313231" />
    <path
       d="m 411.22939,525.2347 c -0.0219,-0.003 -0.0219,0.006 -0.0219,-0.0219 -0.0125,-0.0783 -0.0219,-0.15661 -0.0658,-0.18793 -0.0564,0.0125 -0.0188,-0.003 -0.072,0.0125 -0.0219,-0.0439 0.006,-0.0501 -0.0439,-0.0439 -0.0125,0 -0.0157,-0.006 -0.0157,0.003 -0.003,0.0157 -0.003,0.0313 -0.003,0.0439 0.009,0.0564 0.009,0.1942 0.0532,0.20673 0.0439,0.0219 0.0439,-0.009 0.047,0.0407 0,0.0532 0.0125,0.10023 0.0219,0.15348 0.006,0.072 0.0501,0.0407 0.0626,0.15662 0,0.0439 -0.006,0.14722 0.009,0.17541 0.0125,0.0157 0.0282,0.006 0.0282,0.0188 0.006,0.0157 -0.006,0.0439 -0.003,0.0439 0.0251,-0.14095 0.0501,-0.2819 0.0689,-0.42599 -0.003,-0.0157 -0.003,-0.0251 -0.0125,-0.0439 -0.0188,-0.0501 -0.0282,-0.10963 -0.0532,-0.13156 z"
       id="path12-8"
       style="fill:#f0f0f0;fill-opacity:1;stroke-width:0.0313231" />
    <path
       d="m 411.16361,525.952 c -0.0125,0.009 -0.003,0.006 -0.0157,0.006 0,0.006 -0.003,0.0157 -0.003,0.0219 -0.006,0.0376 -0.006,0.1065 0.0219,0.10963 0.009,-0.0533 0,-0.0814 -0.003,-0.10963 -0.003,-0.009 -0.003,-0.0188 0,-0.0282 z"
       id="path14-5"
       style="fill:#f0f0f0;fill-opacity:1;stroke-width:0.0313231" />
    <path
       d="m 411.11663,525.65443 c 0,0.0125 -0.003,0.009 -0.0125,0.0125 0.003,0 0.003,0 0.003,0 -0.003,0.0313 0.006,0.10023 0.0251,0.1065 0.0344,-0.0219 0.003,-0.0846 -0.0157,-0.11903 z"
       id="path16-0"
       style="fill:#f0f0f0;fill-opacity:1;stroke-width:0.0313231" />
    <path
       d="m 404.62335,514.06801 c 0.0908,0.0282 0.0501,0.0501 0.0971,0.0814 0.009,0.0157 0.094,0.0188 0.13155,0.0282 0.0188,0 0.0282,0.0125 0.0407,0.0219 0.13469,0.0282 0.26625,0.0595 0.40407,0.0908 -0.006,-0.003 -0.009,-0.006 -0.0188,-0.0125 -0.12529,-0.0658 -0.29444,-0.12216 -0.3195,-0.18794 -0.0313,-0.12529 0.27565,-0.15349 0.5137,-0.1065 0.0846,0.0157 0.0908,-0.0157 0.20987,0.0188 0.0501,0.0157 0.0532,-0.006 0.0877,-0.006 0.14409,0.0251 0.25998,0.0689 0.40407,0.0971 0.0313,0.006 0.0846,0.0219 0.14095,0.0407 -0.0626,-0.0439 -0.12529,-0.0846 -0.1848,-0.12529 -0.10963,-0.0219 -0.2224,-0.0376 -0.36648,-0.0783 -0.0532,-0.0157 -0.094,-0.047 -0.15035,-0.0627 -0.0877,-0.0282 -0.0783,-0.006 -0.14096,-0.025 -0.17854,-0.0501 -0.28504,-0.009 -0.4072,-0.0407 -0.0814,-0.0188 -0.11589,-0.0188 -0.1942,-0.0376 -0.0313,-0.0157 -0.0564,0 -0.047,0.006 0,0.0157 0.0376,0.0188 0.047,0.0376 0.0157,0.0439 -0.23806,0.0125 -0.23806,0.0439 0.0125,0.0188 0.0689,0.0313 0.0908,0.0564 -0.0814,-0.006 -0.24119,-0.0344 -0.23806,0 0.006,0.0125 0.009,0.0125 0.009,0.0282 0.0125,0.047 -0.15035,-0.003 -0.14095,0.0439 0.0157,0.0282 0.1065,0.0564 0.1065,0.0564 0,0 0.15035,0.0282 0.16288,0.0313 z"
       id="path18-9"
       style="fill:#f0f0f0;fill-opacity:1;stroke-width:0.0313231" />
    <polygon
       points="675.4,197.6 675.5,197.7 675.6,197.7 "
       id="polygon20-6"
       style="fill:#f0f0f0;fill-opacity:1"
       transform="matrix(0.03132311,0,0,0.03132311,384.12237,508.08843)" />
    <path
       d="m 407.49881,515.133 c 0.0282,0.0157 0.0814,0.0251 0.13782,0.0501 -0.0658,-0.0626 -0.13469,-0.12529 -0.20047,-0.18167 -0.003,0.009 -0.009,0.0188 -0.0313,0.0219 -0.009,0.006 0.0439,0.0814 0.094,0.10963 z"
       id="path22-3"
       style="fill:#f0f0f0;fill-opacity:1;stroke-width:0.0313231" />
    <path
       d="m 407.68361,515.22383 c -0.0658,-0.0313 -0.12529,-0.0595 -0.12842,-0.0532 0.0344,0.0658 0.11276,0.16601 0.0344,0.13782 -0.003,-0.003 -0.0219,0.0157 -0.0532,0.0282 -0.0877,0.0282 -0.14095,0 -0.1754,-0.006 -0.0501,0 -0.0251,-0.0783 -0.0345,-0.0877 -0.0251,-0.003 0.1159,-0.0188 0.1065,-0.0407 -0.006,-0.0219 0.0251,-0.0282 0.009,-0.0501 -0.0251,-0.0251 -0.10024,-0.0689 -0.12216,-0.0971 -0.0345,-0.0658 -0.0345,-0.10963 -0.0658,-0.15975 -0.0439,-0.0689 -0.0908,-0.0877 -0.10963,-0.11276 -0.003,-0.009 0,-0.0188 0.009,-0.0219 -0.0689,-0.0564 -0.14095,-0.11276 -0.20986,-0.16914 0,0 -0.003,0 -0.003,0 h 0.003 c -0.0251,-0.0219 -0.0564,-0.0438 -0.0814,-0.0626 -0.0188,-0.003 -0.0219,0 -0.0157,0.0157 0,0.003 -0.003,0.009 0,0.0125 -0.0313,-0.0125 -0.0626,-0.0188 -0.0783,-0.0219 -0.0627,-0.006 -0.0595,0.0564 -0.10963,0.0595 -0.0595,0.003 -0.10337,-0.0188 -0.13469,-0.003 -0.047,0.0219 0.0752,0.0564 0.0877,0.0814 0.0345,0.0564 -0.0345,0.047 0.0188,0.0783 0.0595,0.0282 0.13155,0.0626 0.20046,0.10336 0.1159,0.1065 0.11277,0.13156 0.0188,0.0971 -0.0595,-0.0188 -0.15662,-0.0877 -0.24432,-0.13155 -0.16288,-0.0783 -0.33203,-0.15349 -0.42913,-0.20047 -0.69224,-0.26625 -0.35708,-0.0251 -0.37588,-0.0188 -0.30383,0.003 -0.16601,-0.0877 -0.25998,-0.11902 -0.16288,-0.0282 -0.50117,0.0125 -0.77055,-0.0908 -0.0157,-0.0188 0.13469,-0.0282 0.10337,-0.0407 -0.12842,-0.0345 -0.37588,-0.0282 -0.63899,0 -0.10337,0.009 -0.19107,-0.0251 -0.28504,-0.0157 -0.14409,0.0219 -0.0219,0.12842 -0.31323,0.0689 -0.0689,-0.0157 -0.24432,-0.0846 -0.21926,-0.11903 0.0157,-0.0219 0.27564,0.0439 0.27251,0.0125 -0.0219,-0.0846 -0.39154,-0.23806 -0.50117,-0.15035 -0.0345,0.0251 0.11589,0.0439 0.0125,0.14095 -0.0251,0.0157 0.11276,0.0564 0.11902,0.10337 0,0.0345 -0.20046,0.0188 -0.25371,0.006 -0.0251,-0.009 0.006,-0.0626 -0.0564,-0.0626 -0.13469,0.003 -0.36335,0.0846 -0.43853,0.0814 -0.0846,0.0157 0.0846,0.0971 0.0438,0.12842 -0.0438,0.0219 -0.28504,-0.0313 -0.66718,-0.12216 0.0251,0.0376 0.0595,0.0783 0.094,0.11277 0.0783,0.0188 0.14722,0.0376 0.22553,0.0595 -0.14722,-0.006 -0.22553,0.0313 -0.33829,-0.0157 -0.0595,-0.0219 -0.14096,-0.0282 -0.18481,-0.0658 -0.0407,-0.0219 0.003,-0.0595 -0.0282,-0.0971 -0.0627,-0.0689 -0.18167,-0.14096 -0.21613,-0.16601 0.26938,0.0188 0.41033,0.0219 0.67971,0.0689 0.35395,0.0564 1.03053,-0.0689 -0.047,-0.30071 -0.31323,-0.0626 -0.51057,-0.12529 -0.74549,-0.14408 -0.0188,0 -0.15975,-0.0501 -0.32889,-0.0501 -0.0157,-0.003 -0.16288,-0.009 -0.23493,-0.0188 0.003,-0.0157 -0.0501,-0.0125 -0.11903,-0.0345 0.16288,-0.0157 0.21927,0.006 0.27878,-0.0407 -0.0564,-0.0157 -0.21926,-0.0407 -0.24745,-0.0439 -0.0595,-0.006 -0.0814,0.009 -0.10337,0.0251 -0.0783,-0.006 -0.0626,-0.0125 -0.072,-0.047 -0.10963,0.0125 -0.16288,0.0219 -0.26312,0.0501 -0.009,-0.0125 -0.009,-0.0251 -0.0376,-0.0376 -0.11903,0.0125 -0.15975,0.0595 -0.30384,0.0595 0.0313,-0.0282 0.14409,-0.0251 0.14722,-0.0658 0,-0.0345 -0.26938,0.0219 -0.37588,0.0219 -0.0658,0 -0.10336,-0.0188 -0.14722,-0.0282 -0.0219,0.006 -0.14408,0.0188 -0.15035,0.0313 0,0.0188 0.047,0.0188 0.10337,0.0219 -0.12842,0.0188 -0.24119,0.009 -0.34142,0.0627 0,-0.0157 0.003,-0.0188 0,-0.0345 -0.14722,0.003 -0.17228,0.0533 -0.26312,0.0658 0,-0.0125 0,-0.0157 0,-0.0251 -0.10963,0.009 -0.22865,0.0157 -0.30696,0.0376 0.0157,0.009 0.0407,0.0125 0.0564,0.0125 -0.0439,0.0125 -0.18481,0.0219 -0.23179,0.0219 -0.0658,0 -0.11276,0.0313 -0.14722,0.047 0.047,0 0.0532,-0.003 0.0971,0 -0.009,0 -0.0908,0.0376 -0.11903,0.0439 -0.0814,0.003 -0.0251,0 -0.12842,0 0.0219,-0.0125 -0.0125,0 -0.047,-0.009 -0.0157,0.0125 -0.0439,0.0219 -0.0564,0.0344 -0.0157,-0.003 -0.0344,-0.006 -0.0501,-0.003 -0.0439,0 -0.0814,0.0157 -0.0971,0.0439 0,0 -0.0407,0.0282 -0.0125,0.0219 -0.0219,0.003 -0.0908,0.0313 -0.12529,0.047 0.15035,0 0.34142,-0.0344 0.50117,-0.0564 -0.0344,0.047 -0.21613,0.14722 -0.35082,0.17854 -0.13469,0.0251 -0.22239,0.0689 -0.30383,0.1253 -0.003,0 -0.0689,0.0658 -0.0689,0.0658 -0.0438,0.003 -0.047,0.0814 -0.12216,0.11277 -0.19734,0.0783 -0.31637,0.14722 -0.59827,0.20673 0.0532,0 0.0783,0.003 0.14722,0.003 -0.2224,0.0157 -0.2318,0.0783 -0.35082,0.10024 -0.13783,0.0251 -0.20987,0.0689 -0.28818,0.12529 -0.0376,0.0219 -0.10336,0.0532 -0.10963,0.0971 -0.0125,0.0814 0.047,0.19107 0.13469,0.23806 -0.0282,0.0188 -0.10336,0.0626 -0.10963,0.0846 0.047,-0.009 0.10963,-0.0188 0.16601,-0.0313 0,0.0157 0,0.0282 -0.006,0.0439 -0.0219,0.009 -0.1065,0.0313 -0.10963,0.0564 -0.003,0.0125 0.23492,0.0595 0.27564,0.0564 0.26625,-0.0251 0.5231,-0.13782 0.66405,-0.23805 0.0407,0.0219 0.0532,0.0439 0.12216,0.0626 -0.0125,0.009 -0.0344,0.0282 -0.0344,0.0439 -0.006,0.0533 0.0908,0.0564 0.12529,0.10024 0.0407,0.0626 0.0219,0.1065 0.13156,0.15348 0,0.009 -0.009,0.0219 -0.0157,0.0313 0,0.0157 0.047,0.16602 0.10337,0.17228 0.16601,-0.0157 0.20047,-0.15348 0.31323,-0.16288 0.0438,-0.003 0.15035,0 0.24432,-0.003 0.0282,-0.0595 0.17541,-0.0752 0.20673,-0.15348 -0.0313,-0.006 -0.0971,-0.0157 -0.0971,-0.0501 0,-0.0626 -0.0157,-0.17854 0.11903,-0.18481 0.0658,-0.003 0.26625,-0.0783 0.26625,-0.12842 0.003,-0.0564 -0.0219,-0.13156 -0.14409,-0.13469 0.003,-0.0219 -0.0188,-0.0438 -0.0501,-0.0501 -0.0282,-0.0282 -0.0626,-0.0501 -0.10023,-0.0752 0.10337,-0.0251 0.0438,-0.0752 0.0908,-0.1159 0.0689,-0.0501 0.16601,-0.0689 0.27877,-0.10337 0.13782,-0.0313 0.44166,-0.12842 0.44792,-0.1942 0.0188,-0.0157 0,-0.0251 0.003,-0.0595 0.003,-0.0783 0.15974,-0.13783 0.379,-0.14096 0.15975,-0.003 0.36962,0.009 0.37275,0.0783 -0.003,0.0501 -0.27564,0.14722 -0.36648,0.16915 -0.16915,0.0501 -0.12529,0.13155 -0.40094,0.13468 0.0125,0.0219 -0.0188,0.12216 -0.0219,0.14096 0.003,0.0344 0.0125,0.072 0.0783,0.0814 -0.0188,0.0125 -0.0908,0.0344 -0.094,0.0658 0,0.0626 0.14408,0.094 0.2819,0.094 0.003,0.0313 0.0282,0.0344 0.1159,0.0407 0.11903,-0.003 0.19107,0.0125 0.32576,0 0.12842,0.009 0.25685,-0.0188 0.32263,-0.0783 0.0532,0.0313 0.33516,0.0376 0.3884,0.0877 -0.0814,0.0251 -0.15035,0.10024 -0.23805,0.10024 -0.1159,0 -0.34769,-0.0501 -0.49804,-0.0533 -0.14722,0.006 -0.55442,0.14408 -0.45418,0.1942 0.11902,0.0501 0.20986,-0.0439 0.32889,0.0501 0.0877,0.0689 -0.0439,0.14095 -0.094,0.14408 -0.13469,0.003 -0.15348,-0.0689 -0.26938,-0.0752 -0.11589,0.009 -0.23179,0.20047 -0.23805,0.27877 0,0.11903 -0.23806,0.0846 -0.25685,0.19734 -0.0814,0.009 -0.15975,0.0125 -0.24432,0.0125 0.0125,-0.0125 0.0219,-0.0251 0.0282,-0.0345 -0.0407,-0.009 -0.13783,-0.006 -0.22866,-0.006 -0.0814,0.009 -0.18481,0.0564 -0.25059,0.0689 -0.0971,0.0282 -0.16601,-0.003 -0.28191,0.0313 -0.0282,0.009 -0.0407,0.0345 -0.11589,0.0376 0,0 -0.1065,-0.0376 -0.10963,-0.0439 0,-0.009 0.0344,-0.0251 0.0407,-0.0407 -0.15349,0.003 -0.27878,0.0783 -0.46045,0.094 -0.0188,-0.003 -0.16915,-0.13469 -0.18168,-0.15035 -0.0501,0.006 0.0501,0.0971 -0.0219,0.1065 0,-0.0125 0.003,-0.0251 0.003,-0.0376 -0.0313,0 -0.0689,-0.0219 -0.0658,-0.0564 0.006,-0.0689 0.0877,-0.0908 0.15349,-0.13469 0.0157,-0.003 0.0783,-0.0219 0.0783,-0.0376 0,-0.009 0,-0.0188 0.003,-0.0282 -0.0439,0.006 -0.1253,0.006 -0.12216,-0.0282 0.003,-0.0345 0.0125,-0.0501 0.047,-0.0908 0.003,-0.0125 0.003,-0.0251 0.003,-0.0407 -0.16601,0.072 -0.41346,0.0971 -0.43226,0.24119 -0.006,0.0783 0.0908,0.10023 0.11277,0.19107 0,0.003 0.0407,0.0658 0.0376,0.0846 -0.0125,0.0219 -0.10963,0.0626 -0.15035,0.0689 -0.0564,0.003 -0.10963,-0.003 -0.15974,0.0219 -0.0125,0.003 -0.0407,0.0251 -0.0564,0.0188 -0.0376,0.009 -0.006,-0.003 -0.0908,0.006 -0.14722,0.009 -0.39154,0.17854 -0.48864,0.24745 -0.006,0.003 -0.0689,0.0345 -0.0689,0.0533 -0.006,0.047 0.006,0.10023 -0.0439,0.13782 -0.0219,0.0157 -0.28817,0.10963 -0.32889,0.12216 -0.0251,0.006 -0.0564,0.0125 -0.0877,0.0188 -0.047,0.10649 0.006,0.13468 -0.18481,0.15661 -0.0188,0.0282 -0.0658,0.0658 -0.11276,0.0752 -0.0783,0.009 -0.13469,-0.006 -0.18168,-0.0345 -0.0188,0.003 -0.047,0.006 -0.0626,0.009 -0.006,0.006 -0.003,0.0219 -0.003,0.0344 0.009,0.009 -0.0219,0.0752 0.0219,0.0814 0,0.009 -0.003,0.0219 -0.003,0.0313 -0.0219,0.003 -0.094,0.0282 -0.14722,0.0376 -0.0438,0 -0.14722,0 -0.15975,-0.025 -0.0658,0.0219 -0.23492,0.0658 -0.24119,0.10336 0,0.003 0.003,0.009 0.003,0.0157 0,0.0658 0.25371,0.0689 0.35395,0.0783 0.0282,0.006 0.0313,0.0188 0.072,0.0219 -0.006,0.0658 0.0564,0.22552 0.18481,0.21613 0,0.0313 0.0313,0.0219 0.0313,0.0658 -0.003,0.0125 -0.0188,0.0532 -0.0313,0.0689 0.003,-0.003 0.009,-0.006 0.0125,-0.009 0,0.0251 -0.006,0.10963 -0.006,0.12529 -0.006,0.0877 -0.11903,0.0908 -0.12842,0.18481 -0.0157,0.003 -0.11277,0.0313 -0.15975,0.0376 -0.0627,0.006 -0.10024,-0.0219 -0.17228,-0.003 -0.10023,0.0125 -0.19733,0.0219 -0.29757,0.0282 -0.0282,0 -0.0783,0 -0.10023,-0.0157 -0.0971,0.009 -0.17854,0.0219 -0.27251,0.0282 -0.0313,0.0157 -0.0689,-0.009 -0.0877,-0.006 -0.0313,0.003 -0.24119,0.12529 -0.25058,0.15035 -0.003,0.0345 0.0532,0.094 0.047,0.16288 -0.0157,0.1159 -0.0783,0.24119 -0.0877,0.35708 -0.006,0.0282 -0.0689,0.0533 -0.0752,0.11277 -0.006,0.0313 0.0407,0.0595 0.0877,0.0564 -0.009,0.0908 -0.0157,0.18794 -0.0251,0.28504 -0.003,0.0157 0.006,0.0439 0.0439,0.0439 0.10023,-0.006 0.15348,-0.0564 0.26311,-0.0658 0.13469,-0.0125 0.12843,0.20673 0.2224,0.2036 0.13469,-0.0157 0.22552,-0.13782 0.37588,-0.15348 0.0282,0 0.14721,-0.0345 0.20046,-0.0282 0.003,0 0,-0.003 0,-0.006 0.12843,0.0282 0.14722,-0.12216 0.22866,-0.16914 0.13782,-0.0752 0.19107,-0.19734 0.27878,-0.30697 -0.0251,-0.003 -0.0595,-0.0251 -0.0595,-0.0564 0.0125,-0.10023 0.20674,-0.30697 0.3289,-0.33829 0.14095,-0.0282 0.2819,-0.0752 0.33202,-0.17228 -0.0125,-0.0282 -0.0219,-0.0689 -0.0313,-0.10023 0.009,-0.0627 0.10963,-0.11903 0.21613,-0.12842 0.12529,-0.0125 0.0908,0.0439 0.23805,0.0344 0.15349,-0.006 0.23806,-0.0908 0.36962,-0.14722 0.0626,-0.0188 0.0689,-0.0783 0.1942,-0.0877 0.25685,-0.0125 0.41033,0.10023 0.4072,0.27877 0.009,0.0251 0.11276,0.0501 0.15975,0.0783 0.11589,0.0752 0.15661,0.11903 0.37587,0.14096 0,0.0219 0.10964,0.0501 0.13156,0.047 0.009,0.0219 0.32889,0.25372 0.34456,0.25998 0.0125,0.0345 0.0689,0.0626 0.0689,0.13469 0,0.047 -0.0345,0.13469 -0.1253,0.13469 0,0.0157 0.0282,0.0376 0.0752,0.0313 0.10023,-0.003 0.10023,-0.10963 0.16914,-0.15348 0,0 0.0658,-0.0533 0.0658,-0.0752 0.006,-0.0595 -0.0658,-0.0313 -0.0626,-0.094 0,-0.0407 0.009,-0.1253 0.0971,-0.1253 0.0877,0 0.12216,0.0595 0.22553,0.0689 0.0219,-0.10336 -0.17855,-0.17854 -0.3195,-0.22552 -0.0345,-0.006 -0.20673,-0.0313 -0.17854,-0.0908 0.003,-0.009 0.0125,-0.0251 0.0125,-0.0376 -0.10337,0 -0.17228,0.0251 -0.27878,0 -0.0438,-0.0125 -0.11276,-0.13469 -0.13782,-0.19733 -0.0188,-0.0345 -0.0689,-0.11277 -0.17541,-0.14096 -0.0814,-0.0157 -0.14095,-0.0407 -0.13782,-0.10963 -0.003,-0.0219 0.0188,-0.0626 0.0313,-0.0846 -0.009,0 -0.0313,-0.0188 -0.0345,-0.0251 0.003,-0.0438 0.15035,-0.0564 0.23179,-0.0908 0.0313,0.0251 -0.006,0.1253 0.0846,0.11903 0.072,0 0.13782,-0.006 0.20986,-0.006 0.003,0.11276 0.20674,0.2913 0.36335,0.29443 0.0251,0 0.072,-0.003 0.0971,-0.003 0,0.0658 0.10964,0.0689 0.20987,0.10024 0.0971,0.0344 0.25058,0.12842 0.25058,0.19733 0,0.0345 -0.003,0.0846 -0.003,0.12529 -0.003,0.0971 -0.0344,0.10964 0.0532,0.17228 0.0658,0.0439 0.1159,0.0908 0.14722,0.15348 0,0.009 0.0188,0.0533 0.0407,0.0564 0.0282,-0.006 0.0908,-0.003 0.12216,-0.003 -0.0125,0.0188 -0.094,0.10964 -0.094,0.15036 0,0.11276 0.15348,0.25058 0.26938,0.25058 0.0251,0.003 0.0752,0 0.10023,0 -0.0752,-0.0251 0,-0.11276 0,-0.14722 0.003,-0.0407 -0.0251,-0.15035 -0.0407,-0.17228 0,-0.009 0,-0.0282 0,-0.0407 0.0282,0.0188 0.10337,0.13156 0.18481,0.15036 0.003,0 0.009,0 0.0157,0 0.009,-0.0345 0.094,-0.094 0.12216,-0.1065 -0.003,-0.0125 -0.0188,-0.0345 -0.0282,-0.0439 -0.0438,-0.003 -0.24745,-0.12529 -0.25058,-0.13782 0,-0.0125 0.0219,-0.0344 0.0282,-0.0595 -0.0313,-0.0282 -0.0877,-0.0689 -0.13469,-0.1065 0,-0.0188 0.0532,-0.0564 0.0783,-0.0532 0.0689,0.003 0.0752,0.0752 0.18481,0.072 0.009,-0.0313 0.0125,-0.072 0,-0.10649 0.0908,-0.0219 0.11903,-0.0595 0.23492,-0.0658 0.13156,0 0.13156,0.0501 0.24432,0.0564 0.0908,0.006 0.14409,0.009 0.23493,-0.0219 0.0658,-0.0157 0.19733,-0.0157 0.25998,-0.0282 0.0251,-0.009 0.0689,-0.003 0.0908,-0.0188 -0.0439,-0.047 -0.23179,-0.11277 -0.23493,-0.20673 0,-0.0658 0.12843,-0.16602 0.19734,-0.20674 0,-0.0344 0,-0.0877 -0.003,-0.12216 0.0157,-0.0219 0.0188,0.0125 0.0438,-0.0689 0,-0.0376 0.072,-0.0658 0.14409,-0.0752 -0.003,-0.0219 -0.003,-0.0501 -0.009,-0.072 0.15348,-0.0219 0.16914,-0.19733 0.32576,-0.19733 0.0407,0.003 0.20986,0.0783 0.41033,0.0971 0.0219,0 -0.14408,0.0595 -0.12842,0.0752 0.11276,0.0877 0.22239,0.18168 0.27251,0.18481 0.0971,-0.003 0.41973,-0.0846 0.47611,-0.12529 -0.009,0.003 -0.1942,-0.0251 -0.1942,-0.0251 -0.0219,0 -0.1159,-0.0157 -0.12216,-0.072 0.006,-0.0313 0.49177,-0.14409 0.67657,-0.17541 0,0 -0.0908,0.0658 -0.11902,0.072 0.0125,0.0219 0.20673,0.15348 -0.19734,0.20987 0.19734,0.27564 0.94283,0.31949 0.98041,0.70477 0.009,0 0.0219,0 0.0282,-0.003 v 0 c -0.10964,0.0282 -0.19108,0.0971 -0.3289,0.0908 -0.13155,0.003 -0.25685,-0.0125 -0.39154,-0.0188 -0.0814,-0.003 -0.34142,-0.0501 -0.35081,-0.1065 -0.15975,-0.009 -0.15036,-0.0752 -0.34143,-0.0846 -0.12216,-0.003 -0.31323,-0.003 -0.40406,0.0313 -0.0783,0.0251 -0.20047,0.0908 -0.28818,0.0908 -0.0689,0 -0.14408,-0.006 -0.21926,-0.003 -0.0251,0 -0.16601,-0.0282 -0.16914,0.0219 -0.003,0.0282 0.0407,0.0157 0.0595,0.0595 -0.13156,0.0376 -0.73923,-0.0439 -0.75489,0.1065 0.003,0.0219 0.072,0.0251 0.12216,0.0251 -0.009,0.0219 0,0.0313 0,0.0595 -0.003,0.0971 -0.0752,0.0877 -0.15035,0.13156 0.10337,0.0439 0.17854,0.0846 0.24432,0.16915 -0.0658,0.0658 0.13469,0.15974 0.18168,0.19733 -0.006,0.009 -0.0439,0.0313 -0.0595,0.0376 0.0188,0.003 0.0626,0.003 0.0783,0 0.14095,-0.0533 0.20673,0.11276 0.34769,0.11903 0.12842,0.003 0.0971,-0.14409 0.24745,-0.14409 0.15348,0.009 0.29444,0.17541 0.44479,0.18481 0.20986,0.003 0.24119,-0.0752 0.35395,-0.15035 0.0219,0.0219 0.072,0.0501 0.14409,0.0533 0.0439,0 0.0783,-0.0407 0.13155,-0.0533 0.003,0.0188 0.003,0.047 0.003,0.0658 -0.0125,0.009 -0.047,0.0313 -0.047,0.0626 0.006,0.0752 0.0376,0.16601 0.0438,0.27878 0,0.15035 -0.13469,0.17227 -0.17541,0.30383 -0.0407,0.13156 -0.0595,0.19734 -0.1065,0.34455 -0.006,0.0188 -0.0564,0.0219 -0.0595,0.0689 0.0157,0.0251 0.0345,0.0783 0.0501,0.10336 -0.006,-0.0157 -0.0282,-0.047 -0.0313,-0.0626 -0.10023,0.025 -0.10649,0.006 -0.21926,0.009 -0.15975,-0.003 -0.30383,-0.072 -0.44792,-0.0689 -0.22552,-0.006 -0.10023,0.0564 -0.33516,0.0626 -0.25684,-0.009 -0.57634,-0.10337 -0.81753,-0.18168 -0.11903,-0.0439 -0.28191,0.009 -0.34769,-0.0658 -0.0219,-0.0313 -0.10963,-0.0564 -0.10963,-0.15036 -0.0376,-0.003 -0.10336,0.003 -0.15974,0 -0.006,0 -0.0157,-0.009 -0.0219,-0.0125 -0.22866,0.0689 -0.39467,0.0626 -0.40094,0.27877 0,0.0345 0,0.0908 0,0.13469 0,0.0251 -0.0783,0.094 -0.14721,0.10023 -0.54189,0 -0.8238,-0.41659 -1.29678,-0.42286 -0.0658,0.006 -0.13156,0.003 -0.19734,0.006 -0.13782,-0.003 -0.3101,-0.13469 -0.3101,-0.29444 0.006,-0.10023 0.094,-0.15035 0.0971,-0.24745 0,-0.047 -0.0814,-0.0752 -0.0846,-0.13782 0.009,-0.0814 0.0971,-0.0689 0.10963,-0.16915 -0.0313,0.006 -0.072,0.0407 -0.10336,0.0407 -0.11276,0.003 -0.0689,-0.10337 -0.2036,-0.10337 -0.13156,0.009 -0.14096,0.10024 -0.28191,0.10337 -0.0752,0.009 -0.11276,-0.0344 -0.2036,-0.0344 -0.10337,0.0125 -0.213,0.10336 -0.29131,0.10963 -0.0439,0.003 -0.14095,-0.0564 -0.23492,-0.0532 -0.30696,0.0188 -0.72983,0.18167 -0.99607,0.31323 -0.0846,0.0407 -0.21613,0.11903 -0.35082,0.12529 -0.22553,0.0125 -0.28817,-0.0125 -0.43853,-0.11589 -0.0689,0.0564 -0.0971,0.20986 -0.15348,0.27877 -0.0313,0.0125 -0.0689,0.047 -0.10963,0.0689 -0.16601,0.2036 -0.32889,0.23806 -0.5043,0.45419 -0.0783,0.1065 -0.10963,0.30383 -0.0971,0.39154 -0.0689,0.10023 -0.17541,0.25371 -0.26312,0.31323 -0.11276,0.072 -0.3101,0.15974 -0.3978,0.2819 -0.15348,0.21613 -0.25998,0.45419 -0.34142,0.70477 -0.0439,0.10337 -0.16288,0.17855 -0.16915,0.30697 -0.006,0.25685 0.10337,0.44479 0.10024,0.7267 0,0.16288 -0.10024,0.46358 -0.21613,0.53875 0.0438,0.0908 0.13155,0.20987 0.13155,0.30071 0,0.0438 0.0219,0.1065 0.0282,0.2036 -0.006,0 -0.0125,0 -0.0157,0 0.0188,0.0344 0.0407,0.0501 0.0689,0.0877 0.003,0.0219 0.28818,0.32889 0.32576,0.36335 0.13469,0.13469 0.17228,0.28191 0.28504,0.47298 0.12843,0.20673 0.36962,0.17228 0.62647,0.58261 0.0157,0.0188 0.1065,0.0532 0.17541,0.0595 0.23492,0.006 0.3884,-0.11589 0.64525,-0.10963 0.12843,0.003 0.29444,0.10337 0.39154,0.10963 0.1065,0 0.12529,-0.0814 0.22866,-0.11276 0.25058,-0.072 0.62333,-0.24432 0.97102,-0.24119 0.2913,0.009 0.0595,0.41973 0.26624,0.43852 0.0658,0 0.3007,-0.0282 0.42913,-0.025 0.24745,0.003 0.36648,0.14095 0.45105,0.28817 -0.072,0.0595 -0.0658,0.25372 -0.0658,0.33829 0,0.0188 -0.0282,0.0439 0.003,0.10023 -0.0376,0.0219 -0.15662,0.19107 -0.15662,0.26312 0.009,0.31949 0.39154,0.63899 0.59201,0.85825 0.094,0.11903 0.072,0.25685 0.13155,0.39467 0.0783,0.15662 0.13469,0.25372 0.19107,0.53876 0.0282,0.13782 0.094,0.2036 0.10024,0.36648 0.003,0.32889 -0.36961,0.48551 -0.35708,0.90837 0.0188,0.39467 0.22865,0.6108 0.43852,0.89584 0.0595,0.0752 0.13782,0.11276 0.14409,0.1942 0,0.047 0.006,0.10024 0.006,0.15035 0.0219,0.50117 0.2036,0.68285 0.43852,0.86139 0.0501,0.0407 0.18481,0.29444 0.32576,0.46671 0.0345,0.0533 0.0407,0.11277 -0.0125,0.15662 0.0564,0.0407 0.0564,0.11276 0.0564,0.21613 0.0125,0 0.0251,-0.0188 0.0658,-0.0219 0.0376,0.0595 0.10024,0.0971 0.213,0.10024 0.25059,0.006 0.3101,-0.14096 0.59514,-0.14409 0.072,0 0.10963,0.047 0.18167,0.047 0.0627,0 0.11277,-0.0251 0.20047,-0.0345 0.0219,-0.0877 0.24432,-0.0407 0.36335,-0.0752 0.27878,-0.10336 0.36335,-0.24432 0.53876,-0.41659 0.11276,-0.10024 0.20047,-0.1065 0.35708,-0.2224 0.0783,-0.0689 0.20987,-0.1942 0.21613,-0.34768 0.003,-0.0439 -0.0344,-0.0846 -0.094,-0.10963 0.0846,-0.14096 -0.0313,-0.11903 0.22866,-0.20987 0.0783,-0.0282 0.20987,-0.0219 0.27564,-0.0846 0.0658,-0.0627 0.10024,-0.29131 0.10337,-0.40407 0.006,-0.21926 -0.15975,-0.16601 -0.15662,-0.32263 0.003,-0.0814 0.10964,-0.17228 0.20987,-0.18794 0.10337,-0.39467 0.95222,-0.35395 0.99921,-0.83319 -0.003,-0.0407 -0.0125,-0.0846 -0.0501,-0.11903 0.006,-0.12842 0.0125,-0.25685 0.0188,-0.3978 0.006,-0.0407 0.0188,-0.094 0.0282,-0.14722 0.009,-0.006 0.0532,-0.0658 0.0532,-0.094 0.003,-0.11903 -0.25371,-0.25685 -0.25371,-0.48238 0.009,-0.18794 -0.10963,-0.35708 -0.1065,-0.56381 0.0125,-0.17854 0.1848,-0.23179 0.24432,-0.40094 0.0846,-0.25685 0.26938,-0.23492 0.44165,-0.38214 0.0658,-0.0595 0.0846,-0.30697 0.15662,-0.36335 0.17854,-0.12529 0.36961,-0.23805 0.55755,-0.38527 0.26312,-0.20047 0.33516,-0.37588 0.55129,-0.65466 0.16914,-0.23492 0.48551,-0.79247 0.49804,-1.18088 0,-0.0313 -0.0251,-0.0595 -0.047,-0.10023 -0.24119,0.0658 -0.42913,0.17541 -0.69224,0.22239 -0.10337,0.0125 -0.17228,-0.0313 -0.27564,0.003 -0.0908,0.0282 -0.0971,0.11276 -0.20674,0.11589 -0.11902,-0.003 -0.21299,-0.21613 -0.3007,-0.28817 0.0689,-0.0846 0.006,-0.0971 0.006,-0.21613 -0.23493,-0.003 -0.29444,-0.27878 -0.4072,-0.36648 -0.13156,-0.0877 -0.20047,-0.0971 -0.3195,-0.20673 -0.12842,-0.12843 -0.0564,-0.29444 -0.18167,-0.46672 -0.11277,-0.13782 -0.26938,-0.29444 -0.34456,-0.48237 -0.003,-0.12216 -0.003,-0.23806 -0.003,-0.36335 -0.10963,-0.0814 -0.3101,-0.2224 -0.27564,-0.36961 -0.22553,-0.40094 -0.43853,-0.78308 -0.66719,-1.17462 0,-0.0282 -0.003,-0.0814 -0.003,-0.11276 0.12216,0.12529 0.24745,0.41033 0.40407,0.44165 0.0219,-0.0689 0.0908,-0.22553 0.12529,-0.32889 -0.0157,0.0846 -0.0344,0.16288 -0.0344,0.20986 0,0.0157 0.10336,0.14096 0.12529,0.16288 0.0783,0.12216 0.15035,0.18481 0.24119,0.30384 0.0219,0.0282 0.0783,0.0971 0.10336,0.16288 0.009,0.0313 0.006,0.13782 0.047,0.18167 0.0188,0.0125 0.12216,0.0188 0.14722,0.0345 0.0125,0.0188 0.0564,0.0595 0.0908,0.0877 0.0345,0.12843 0.13783,0.15975 0.14409,0.3195 0.009,0.25998 0.0595,0.39467 0.31323,0.45732 0.003,0.16601 0.16288,0.379 0.24432,0.46358 0.0752,0.0783 0.23493,0.15661 0.2036,0.3101 -0.009,0.047 -0.072,0.19107 0.009,0.20046 0.006,0.13156 -0.009,0.27251 0.0564,0.38215 0.047,0.0689 -0.003,0.0689 0.006,0.0752 0.0157,0.009 0.2036,0.0908 0.21926,0.094 0.0125,-0.003 0.0313,-0.0188 0.0439,-0.0251 0.14095,0 0.16914,-0.10963 0.28504,-0.1942 0.094,0.006 0.17228,0.0125 0.25998,0.0219 0.0814,-0.0439 0.33516,-0.23805 0.42286,-0.26311 0.15349,-0.0407 0.31323,-0.0908 0.46359,-0.16288 -0.009,-0.0125 -0.0282,-0.0439 -0.0251,-0.0626 0.003,-0.14721 0.35395,-0.16288 0.53562,-0.19733 0,-0.0783 0.1159,-0.18481 0.17228,-0.18794 0.0971,0.003 0.0846,-0.18481 0.17854,-0.18794 0.0689,0 0.0626,-0.1065 0.0877,-0.1848 0.0157,-0.0752 0.0814,-0.10024 0.17541,-0.0971 0,-0.15974 0.24118,-0.21299 0.23805,-0.36334 -0.006,-0.047 -0.0877,-0.047 -0.11903,-0.1065 0.003,0 0.003,0.003 0,0.003 -0.0376,-0.0219 -0.0564,-0.13469 -0.11902,-0.15975 -0.18168,-0.0658 -0.29444,-0.0971 -0.39154,-0.29444 -0.003,-0.0783 -0.009,-0.15348 -0.009,-0.23805 -0.22553,0.16601 -0.22553,0.42286 -0.66718,0.41346 -0.10337,-0.006 -0.26312,-0.0532 -0.27251,-0.14722 0,-0.0814 0.0407,-0.13155 0.0376,-0.20986 -0.003,-0.0157 -0.009,-0.0532 -0.009,-0.072 -0.072,0.0125 -0.0501,0.094 -0.12843,0.11276 -0.006,-0.047 -0.0439,-0.0783 -0.0501,-0.15348 -0.15036,-0.0439 -0.35082,-0.32576 -0.39781,-0.48238 -0.0125,-0.0407 -0.0125,-0.0908 -0.0188,-0.15035 0,-0.10023 0.0282,-0.2036 0.12529,-0.2036 0.19107,0.009 0.33829,0.21613 0.4166,0.36335 0.0125,0.0188 0,0.0752 0.0344,0.11589 0.0783,0.0752 0.17541,0.0439 0.25998,0.1253 0.0689,0.0689 0.12216,0.15035 0.22553,0.19107 0.1065,0.006 0.20987,0.006 0.31636,0.0157 0.0282,-0.0345 0.0532,-0.0908 0.12843,-0.0908 0.13156,0.009 0.14095,0.19734 0.20047,0.26625 0.003,0.006 0.18794,0.0658 0.21613,0.0689 0.16601,0.009 0.42286,0.0971 0.53875,0.1065 0.009,-0.003 0.0188,0 0.0282,0 0.0345,0.006 0.0783,0.0157 0.11903,0.0251 0.006,-0.0125 0.0282,-0.0251 0.0501,-0.0407 0.0439,0.0157 0.094,0.0344 0.14722,0.0532 0.0564,0 0.12216,-0.025 0.1942,-0.0219 0.0595,0.006 0.10337,-0.003 0.16288,0.0188 0.072,0.0313 0.1065,0.17228 0.15349,0.25685 0.0626,0.0971 0.21612,0.22866 0.31949,0.23493 0.0439,0.003 0.0752,0.009 0.11903,0.0219 -0.0188,0.0251 -0.0219,0.0752 -0.0627,0.0877 -0.047,0.0157 -0.0814,-0.0188 -0.12842,0.0157 0.0814,0.10336 0.15035,0.28817 0.30696,0.3007 0.13156,0.003 0.14096,-0.13782 0.2036,-0.213 0.0157,-0.003 0.0251,0 0.0376,0.003 0.003,0.0188 -0.0282,0.0689 -0.0251,0.0814 0.006,0.0846 0.0564,0.15661 0.0595,0.25371 0,0.0783 -0.0219,0.0877 -0.0219,0.17228 0,0 -0.003,-0.003 -0.003,-0.003 0,0.0157 0.009,0.072 0.009,0.0877 -0.003,0.1159 0.0564,0.23179 0.0877,0.35709 0.0313,0.13782 0.0814,0.32262 0.10337,0.41346 0.0251,0.0783 0.0219,0.11903 0.0595,0.19734 0.0345,0.072 0.0157,0.15035 0.0501,0.24745 0.0219,0.0407 0.0846,0.1065 0.10023,0.1942 0.0313,0.13156 0.0814,0.24119 0.10963,0.38528 0.003,0.0157 0.0125,0.0564 0.0376,0.0595 0.006,0.0345 0.0282,0.0658 0.0658,0.0564 0.0439,0.003 0.047,-0.072 0.0595,-0.12529 0.0282,-0.0627 0.0282,-0.0345 0.0846,-0.072 0.0407,-0.0251 0.0251,-0.17541 0.0846,-0.2036 0.0157,-0.006 0.0438,-0.009 0.0438,-0.0251 0.006,-0.003 0.0125,0 0.0219,-0.006 -0.006,-0.0438 -0.0157,-0.10023 -0.0219,-0.15348 0.006,-0.10963 0.0532,-0.2036 0.0532,-0.35708 0,-0.0908 -0.0313,-0.22866 -0.0313,-0.33203 0,-0.12529 0.0877,-0.0908 0.15974,-0.13156 0.0376,-0.009 0.0689,-0.0814 0.10337,-0.13469 0.0689,-0.11276 0.13782,-0.23492 0.20673,-0.35395 0.0532,-0.094 0.15975,-0.11902 0.21926,-0.21926 0.0313,-0.0564 0.0188,-0.11589 0.0282,-0.20047 0.0188,-0.0532 0.0783,0.0188 0.10023,-0.0658 0.0251,0.0439 0.0251,0.0595 0.0814,0.0689 0.0783,0.006 0.15975,-0.0157 0.15348,-0.18794 0.0407,0.0219 0.0971,0.0626 0.11277,0.14722 0.0219,0.0626 0.0125,0.15661 0.0407,0.23179 0.0219,0.072 0.0626,0.12529 0.0971,0.1942 0.0407,0.094 0.0439,0.1065 0.072,0.22239 0.003,0.0251 0.0188,0.0439 0.0188,0.0689 -0.003,0.0595 -0.0125,0.0877 -0.006,0.15661 0.003,0.0752 -0.003,0.11903 0.0345,0.12216 0.0689,-0.003 0.0908,-0.13156 0.12842,-0.22239 0.0188,0.0407 0.0125,0.0501 0.0219,0.0846 0.0125,0.006 0.025,-0.003 0.0282,0.0282 0.0251,0.0814 -0.0501,0.22239 0.0188,0.23492 0.003,0.16602 0.0438,0.40094 0.0438,0.63586 -0.003,0.0533 -0.0313,0.15349 -0.006,0.19734 0.006,0 0,0 -0.006,0 0,0 0,0 -0.006,0 -0.0125,0.0689 -0.0219,0.13782 -0.0282,0.20986 0,0.0125 0.009,0.0313 0,0.0313 0,0.003 0.003,0.006 0.006,0.009 0.003,-0.006 0.009,-0.009 0.0219,-0.0125 0.0877,0.006 0.0438,0.17228 0.0501,0.24432 0.0125,0.10963 0.0157,0.21927 0.0157,0.36022 0.003,0.0219 0.003,0.0439 0.006,0.0595 0.0188,-0.15035 0.0345,-0.30696 0.047,-0.46045 -0.009,-0.0157 -0.0219,-0.0344 -0.0282,-0.0533 -0.006,-0.0501 -0.006,-0.12216 -0.0125,-0.15974 0.003,0 0,0 0.003,0 0,-0.15035 -0.0501,-0.094 -0.047,-0.25059 0.006,-0.14722 0.0345,-0.20047 0.0407,-0.36648 0.003,-0.0439 0.0219,-0.10963 0.0219,-0.15661 0,-0.0251 -0.0282,-0.0595 0.0125,-0.0595 0.0564,0 0.0407,0.009 0.047,0.0689 0,0 0,0.0689 0.009,0.0689 0.003,0.003 0.003,0.003 0.003,0.003 0,-0.0407 0.003,-0.0752 0.003,-0.11277 0.006,-3.36723 -1.42834,-6.39931 -3.71806,-8.52302 z m -2.34297,3.24821 c -0.047,-0.003 -0.094,0.0877 -0.10023,0.15662 0.13156,0.0313 0.20047,0.0877 0.20987,0.17854 0,0.0313 0.006,0.0814 0.006,0.11276 0.003,0.0345 0.006,0.12843 0.0125,0.13782 0.003,0.0282 0.003,0.0783 0.006,0.10963 -0.0846,0.0157 -0.17541,0.0188 -0.28817,0.0157 -0.0783,-0.009 -0.24119,-0.006 -0.29444,-0.0595 -0.0313,-0.0313 -0.0595,-0.0971 -0.11589,-0.11903 -0.0752,-0.0125 -0.15348,-0.0689 -0.1942,-0.12529 -0.0376,-0.0626 0.0125,-0.094 -0.0439,-0.15348 -0.0282,-0.0282 -0.0846,-0.0407 -0.0877,-0.0877 0.0251,0 0.0658,0.0125 0.0908,0.0157 0.0752,-0.0783 0.0658,-0.18168 0.15974,-0.213 -0.17854,-0.0877 -0.45105,-0.38214 -0.47298,-0.54189 0,-0.0407 -0.15035,-0.12216 -0.15348,-0.19421 -0.003,-0.0219 0.10337,-0.17854 0.13469,-0.20673 0.0219,0.0157 0.21613,-0.0439 0.23492,-0.047 0.15975,-0.0345 0.23179,-0.0658 0.44166,-0.0533 0.32889,0.0439 0.40094,0.17854 0.54502,0.32576 -0.0908,0.0407 -0.20673,-0.0188 -0.31949,-0.0313 -0.15662,-0.0157 -0.40407,0.072 -0.41973,0.072 0.0157,0.094 0.10963,0.0971 0.15348,0.15035 0.13469,0.16288 0.31636,0.213 0.33829,0.3978 0.0439,-0.0125 0.15348,-0.047 0.2036,-0.0501 0.009,0.0783 0.12842,0.15035 0.13156,0.22552 -0.0532,-0.006 -0.11277,-0.009 -0.17855,-0.0157 z"
       id="path24-8"
       style="fill:#f0f0f0;fill-opacity:1;stroke-width:0.0313231" />
    <path
       d="m 403.90918,513.0782 c -0.0125,0.003 -0.0188,0 -0.0313,0 0,0.003 0,0.003 0.003,0.006 0.006,-0.009 0.0157,0.003 0.0282,-0.006 z"
       id="path26-5"
       style="fill:#f0f0f0;fill-opacity:1;stroke-width:0.0313231" />
    <path
       d="m 403.35476,512.94664 c 0.047,0.009 0.072,0.0219 0.12529,0.0345 -0.0251,-0.003 -0.047,-0.003 -0.072,-0.003 0.0282,0.009 0.0627,0.0157 0.094,0.0188 -0.0345,0.003 -0.0689,-0.006 -0.1065,-0.006 0.0219,0.0157 0.0658,0.0282 0.14722,0.0439 0.0188,0.009 0.0344,0.0219 0.0626,0.0251 0.047,0.009 0.047,-0.0125 0.094,-0.0125 0.0689,0.003 0.11277,0.0219 0.17855,0.0313 0.006,0 0.003,-0.009 -0.006,-0.009 0.0188,-0.003 0.0345,0.003 0.0532,0.009 0.0564,-0.003 0.12842,0.0532 0.12842,0.003 -0.0345,-0.006 -0.094,-0.0313 -0.15974,-0.047 -0.0721,-0.0188 -0.10337,-0.006 -0.18168,-0.0188 -0.0971,-0.0188 -0.16914,-0.0501 -0.3101,-0.0752 -0.10963,-0.0219 -0.36021,-0.0533 -0.40093,-0.0439 0.0439,0.0125 0.0752,0.0188 0.12216,0.0251 0.0783,0.0125 0.16914,0.0157 0.23179,0.025 z"
       id="path28-6"
       style="fill:#f0f0f0;fill-opacity:1;stroke-width:0.0313231" />
    <path
       d="m 404.72045,513.29433 c 0.009,0 0.0251,0.0157 0.0532,0.0219 0.047,0.0157 0.0564,0.0313 0.0658,0.006 0.0313,0.0157 0.0752,0.0313 0.10337,0.0407 0.0501,0.0125 0.0564,0.006 0.0908,0.009 -0.0251,-0.0125 -0.0595,-0.0282 -0.0846,-0.0439 -0.0532,-0.0125 -0.23806,-0.0689 -0.22866,-0.0345 z"
       id="path30-1"
       style="fill:#f0f0f0;fill-opacity:1;stroke-width:0.0313231" />
    <path
       d="m 404.852,513.28493 c -0.0407,-0.0219 -0.0846,-0.0407 -0.12529,-0.0595 -0.0658,-0.0157 -0.12842,-0.0376 -0.1942,-0.0532 -0.0251,-0.003 -0.0313,-0.003 -0.0595,0 0.009,-0.003 0.2224,0.0783 0.25372,0.0877 0.0438,0.0125 0.0846,0.0188 0.12529,0.0251 z"
       id="path32-1"
       style="fill:#f0f0f0;fill-opacity:1;stroke-width:0.0313231" />
    <path
       d="m 404.67346,513.20349 c -0.0125,-0.006 -0.0219,-0.009 -0.0282,-0.0157 0,0.006 0.003,0.003 0.006,0.0157 0.009,0 0.0157,0 0.0219,0 z"
       id="path34-5"
       style="fill:#f0f0f0;fill-opacity:1;stroke-width:0.0313231" />
    <path
       d="m 397.76985,512.91219 c -0.0345,0.0313 0.0532,0.0344 0.15348,0.0407 -0.0157,0.003 -0.0313,0.003 -0.047,0.006 0.0313,0.0157 0.0846,0.0219 0.17854,0.009 0.11903,-0.0125 0.12842,-0.0439 0.17541,-0.0564 0.0125,0.006 0.0344,0 0.047,-0.003 0.0219,0.006 0.0752,0.0125 0.0846,0.009 0.0439,-0.006 0.0971,-0.009 0.15035,-0.009 -0.0689,0.0219 -0.2224,0.047 -0.30071,0.0595 -0.0282,-0.003 -0.15974,0.006 -0.16601,0.0282 0,0.0626 0.14722,0.0125 0.21926,0.003 0.0376,-0.003 0.22553,-0.0125 0.25999,-0.006 -0.0689,0.006 -0.13156,0.009 -0.19421,0.0251 0,0 -0.12842,0.003 -0.21299,0.0125 0.003,0.0564 0.30383,0.0595 0.44478,0.0783 0.0877,-0.0282 0.0752,-0.0752 0.17855,-0.10023 0.0282,-0.003 0.072,-0.009 0.0908,-0.0188 0.0658,-0.047 0.12529,-0.10963 0.3289,-0.1253 0,0 0.0439,0.0188 0.14095,0.0188 -0.0251,0 -0.0564,0.003 -0.0814,0.006 0.0282,0.009 0.072,0.0407 0.11589,0.0439 -0.0219,0.0344 -0.072,0.0157 -0.0908,0.0501 0.0783,0.003 0.19733,0 0.26938,0 -0.0188,0.006 -0.0188,0.009 -0.006,0.0282 0.15348,-0.0125 0.213,-0.0344 0.37275,-0.0564 -0.0564,-0.0157 -0.21613,-0.006 -0.2224,-0.0595 -0.0626,0 -0.12216,0 -0.1848,0 0.0157,-0.006 0.0125,-0.0125 0,-0.0251 -0.0376,0.006 -0.0595,0 -0.1065,0 0.0157,0 0.0407,0 0.0595,-0.003 -0.0564,-0.0188 -0.36648,-0.0564 -0.46358,-0.0532 -0.0157,0 -0.0407,0 -0.0564,0 0.0188,-0.0125 0.0251,-0.0376 -0.0658,-0.0345 -0.0407,0.003 -0.0595,0.0125 -0.10337,0.0219 -0.003,-0.0188 0.009,-0.0157 0.0188,-0.0313 -0.003,-0.025 -0.15035,-0.0157 -0.22553,-0.0188 -0.0783,0.003 -0.11276,-0.009 -0.11903,0.0282 -0.006,0.0501 0.0282,0.0439 0.0627,0.0658 -0.14722,-0.006 -0.094,-0.0564 -0.25059,-0.0533 -0.047,0 -0.094,0.009 -0.10023,0.0313 0.009,0.006 0.0125,0.006 0.0188,0.0157 -0.0344,-0.009 -0.0846,-0.003 -0.13469,-0.009 0.0188,-0.0125 0.0439,-0.0188 0.072,-0.0282 -0.12843,0.006 -0.18794,0.0125 -0.28191,0.0157 -0.0564,0.003 -0.17854,0.047 -0.2036,0.0564 0.0407,0.009 0.0908,0.0251 0.13469,0.0219 0.0125,0.009 0.0251,0.0125 0.0407,0.0157 z"
       id="path36-9"
       style="fill:#f0f0f0;fill-opacity:1;stroke-width:0.0313231" />
    <path
       d="m 399.06976,512.75871 c 0.009,0 0.25058,-0.003 0.27251,-0.003 -0.0251,0.006 -0.0877,0.003 -0.14409,0.0125 -0.009,0 -0.0752,0.003 -0.11589,0.003 0.0157,0.0157 0.0219,0.0219 0.0752,0.0219 0.11277,0 0.21613,-0.009 0.3289,-0.006 0.0439,0.0219 0.10023,0.0282 0.2036,0.0251 0.16914,-0.003 0.45418,-0.0501 0.59513,-0.0752 -0.0439,-0.009 -0.14095,-0.047 -0.25998,-0.0438 -0.0626,0 -0.12216,0 -0.18794,0 -0.0877,0 -0.12216,0.0157 -0.17227,0.0157 -0.0188,-0.009 -0.006,-0.003 0,-0.0376 -0.0219,0 -0.0501,0 -0.0689,0 -0.0282,0.009 -0.072,0.0345 -0.14409,0.0376 -0.0251,0 -0.19734,-0.0157 -0.22866,-0.0251 -0.0564,0.003 -0.10336,0.006 -0.16288,0.006 0.0125,0.003 0.0188,0.009 0.0282,0.0157 -0.0313,0 -0.0689,0 -0.10023,0.003 0.006,0 0.006,0.009 0,0.009 -0.0313,0 -0.0814,0 -0.11277,0 -0.025,0 -0.0595,0 -0.0846,0.003 0.003,0.0282 0.0376,0.0219 0.0846,0.0313 -0.0282,0.0533 0.0908,0.009 0.19421,0.006 z"
       id="path38-8"
       style="fill:#f0f0f0;fill-opacity:1;stroke-width:0.0313231" />
    <path
       d="m 397.59444,512.94351 c 0,-0.003 0.003,-0.003 0,-0.003 0,0 -0.006,0 -0.009,0 0.003,0.003 0.006,0.003 0.009,0.003 -0.003,0 -0.006,0 -0.009,-0.003 -0.0908,0.0219 0.0658,0.0501 0.17854,0.0501 -0.0438,-0.0439 -0.10336,-0.0313 -0.16914,-0.047 z"
       id="path40-4"
       style="fill:#f0f0f0;fill-opacity:1;stroke-width:0.0313231" />
    <path
       d="m 393.6446,516.83384 c 0.0313,0 0.0846,-0.0188 0.11276,-0.0313 0.0439,-0.0282 0.12842,-0.10337 0.22553,-0.11903 0.0532,-0.0125 0.12216,-0.0125 0.15661,-0.0439 0.0564,-0.0345 0.0188,-0.0783 0.0219,-0.10963 0.003,-0.0438 0.0125,-0.0846 0.0219,-0.13156 0.009,-0.0282 0.10337,-0.0439 0.11277,-0.0752 0,-0.0689 -0.0376,-0.14409 -0.17541,-0.1253 -0.0313,0.006 -0.0689,0.009 -0.0971,0.0157 -0.0564,0.006 -0.17855,0.072 -0.18481,0.10024 0,0.0188 0.003,0.0219 0.0251,0.0438 -0.0345,0.0219 -0.14409,0.0658 -0.17541,0.072 -0.0157,0.006 -0.0595,0 -0.0689,0.0533 -0.003,0.0407 0.0407,0.0564 0.094,0.0626 -0.0439,0.0971 -0.18168,0.12529 -0.20047,0.22553 -0.003,0.0407 0.0626,0.0752 0.13156,0.0626 z"
       id="path42-8"
       style="fill:#f0f0f0;fill-opacity:1;stroke-width:0.0313231" />
    <path
       d="m 394.30865,515.70934 c -0.0407,0.0125 -0.14096,0.0439 -0.15036,0.0626 0,0.0157 0.009,0.0407 0.0251,0.0376 0.0626,-0.0125 0.11903,-0.0564 0.1253,-0.10024 z"
       id="path44-1"
       style="fill:#f0f0f0;fill-opacity:1;stroke-width:0.0313231" />
    <path
       d="m 394.3525,515.88788 c 0,0.0125 0,0.0219 -0.006,0.0282 0.003,0 -0.047,0.0344 -0.0501,0.0532 -0.003,0.0157 0.0501,0.0188 0.0846,0.0157 0,0.0125 -0.003,0.0219 -0.006,0.0344 -0.006,0.009 -0.0188,0.0219 -0.0282,0.0282 0,0.0188 -0.006,0.0407 -0.009,0.0626 0.0157,0 0.0313,-0.003 0.047,-0.009 -0.0125,-0.0157 -0.0251,-0.0188 0.009,-0.0564 0.0157,0.0125 0.047,0.009 0.0971,0.003 -0.0219,0.0251 -0.009,0.0313 -0.009,0.072 -0.0125,0.0282 -0.0626,0.0595 -0.0689,0.0877 0,0.0313 0.0345,0.0251 0.0908,0.0157 0.0438,-0.009 0.0814,-0.0282 0.14095,-0.0407 0.0188,0 0.0407,0 0.0532,-0.003 -0.009,0.0157 -0.047,0.0313 -0.0501,0.0595 -0.006,0.0407 0.0783,0.0345 0.14096,0.0219 -0.003,0.0188 -0.006,0.0407 -0.009,0.0595 -0.0344,0.0439 -0.17228,0.0971 -0.28504,0.10963 -0.003,0.0407 0.0439,0.0533 0.0313,0.10964 -0.006,0.0626 -0.17227,0.0814 -0.1848,0.14721 0,0.006 0.0157,0.0125 0.0251,0.0125 0.0282,0 0.0219,-0.0219 0.0658,-0.0251 0.0658,-0.0125 0.0783,0.0313 0.16288,0.0251 0.0376,-0.0125 0.0877,-0.0219 0.11589,-0.0533 0,0.009 0.003,0.0188 0.009,0.0282 -0.003,0.0627 -0.12843,0.0501 -0.21613,0.0783 -0.0157,0.006 -0.21926,0.16288 -0.23179,0.17541 -0.006,0.006 -0.006,0.0188 -0.003,0.0251 0.0125,-0.003 0.0313,-0.003 0.0439,-0.003 0.0219,-0.0188 0.047,-0.0439 0.0908,-0.0439 0.0219,-0.0125 0.0595,-0.006 0.0846,-0.0125 0.003,-0.0313 0.047,-0.072 0.10963,-0.0814 0.0376,-0.006 0.0658,0.0157 0.1065,0.009 0.094,-0.0157 0.26624,-0.0658 0.33202,-0.0752 0.0908,-0.006 0.16288,-0.0157 0.25372,-0.0251 0.072,-0.0125 0.12216,-0.0407 0.18794,-0.0783 0,-0.009 0.003,-0.0219 0.003,-0.0282 -0.0313,0.003 -0.0626,0.006 -0.12843,-0.003 0.0627,-0.0564 0.20674,-0.11276 0.2224,-0.18168 0,-0.0407 -0.0501,-0.0658 -0.12843,-0.0626 -0.0439,0.006 -0.0344,0 -0.0814,0.0251 0.006,-0.006 0.0251,-0.0125 0.0313,-0.0188 -0.0219,0.006 -0.0345,0.0219 -0.0783,0.0345 0,-0.009 0.003,-0.0188 0.003,-0.0251 0.0157,-0.003 0.0345,-0.0188 0.0345,-0.0313 0.006,-0.0313 -0.0627,-0.0439 -0.0595,-0.0783 0.0125,-0.10024 -0.14722,-0.10024 -0.23805,-0.15035 -0.072,-0.0407 -0.0345,-0.13156 -0.15035,-0.13782 -0.0439,-0.003 -0.0846,0.0157 -0.14096,0.0157 0.009,-0.0157 0.0313,-0.0345 0.0564,-0.0376 0.0125,-0.0846 0.20674,-0.14409 0.19734,-0.25059 -0.11903,0.0157 -0.23179,0.0313 -0.35708,0.0501 -0.006,-0.009 -0.0125,-0.0125 -0.0125,-0.0251 0.0219,-0.0564 0.15661,-0.0658 0.16288,-0.11902 0,-0.006 -0.0313,-0.0251 -0.0532,-0.0219 -0.0595,0.009 -0.1159,0.0219 -0.17228,0.0282 -0.0313,0.006 -0.094,0.0439 -0.10023,0.0595 -0.003,0.0219 -0.0282,0.0345 -0.0345,0.0658 -0.0376,0.009 -0.0814,0.0282 -0.0877,0.0564 0,0.009 0.0125,0.0188 0.0251,0.0188 0,0.006 -0.0188,0.0219 -0.0282,0.0251 -0.009,-0.003 -0.0376,-0.003 -0.0344,-0.0251 -0.0282,0.003 -0.0658,0.006 -0.094,0.0157 -0.0157,0.047 0.0313,0.0532 0.11903,0.047 z"
       id="path46-0"
       style="fill:#f0f0f0;fill-opacity:1;stroke-width:0.0313231" />
    <path
       d="m 394.51538,516.27942 c -0.009,-0.003 -0.0219,0.003 -0.0282,0.006 -0.0282,0.0125 -0.0501,0.0313 -0.0501,0.0532 0.0188,-0.003 0.047,-0.009 0.0658,-0.009 0.006,-0.0188 0.009,-0.0345 0.0125,-0.0501 z"
       id="path48-3"
       style="fill:#f0f0f0;fill-opacity:1;stroke-width:0.0313231" />
    <path
       d="m 393.20294,515.02337 c -0.0501,0.0188 -0.0846,0.0219 -0.0783,-0.009 -0.0219,0.009 -0.0157,0.0188 -0.0564,0.0157 -0.009,0.0157 -0.0219,0.0219 -0.0345,0.047 -0.0564,-0.0188 -0.10649,0.0344 -0.16914,0.0595 -0.047,0.0125 -0.0752,0.0188 -0.15035,0.0407 0,0.009 -0.009,0.0157 -0.009,0.0282 -0.0219,0.003 -0.0219,-0.009 -0.0595,0.003 -0.0439,0.0157 -0.0752,0.0345 -0.11903,0.0533 -0.0313,0.0125 -0.0251,0 -0.0532,-0.003 -0.0157,0.0157 -0.0125,0.006 -0.0125,0.0345 -0.0251,0.009 -0.0564,0.0376 -0.0877,0.0439 -0.0345,0.0188 -0.0595,-0.003 -0.047,-0.0282 0,-0.0219 -0.0125,-0.009 -0.0125,-0.0313 -0.0125,0.003 -0.0219,0.009 -0.0344,0.0125 -0.0439,0.0157 -0.0532,0.047 -0.0908,0.0595 0,0.009 -0.006,0.0125 -0.006,0.0219 -0.0345,0.006 -0.0407,0.009 -0.0846,0.0282 0,0.0407 0.14722,-0.003 0.20047,-0.025 0,0.009 -0.006,0.0157 0.009,0.0157 -0.0532,0.0282 -0.17228,0.0877 -0.23806,0.10963 0.0595,0.0282 0.11277,-0.0407 0.18481,-0.0595 -0.0188,0.0407 -0.0439,0.0532 -0.0532,0.0908 -0.0157,0.006 -0.0282,0.0188 -0.047,0.0282 0.10023,-0.0344 0.12216,-0.006 0.18167,-0.0219 0.12842,-0.0125 0.22866,-0.0313 0.41346,-0.0814 0.17541,-0.0501 0.26938,-0.1253 0.4072,-0.18168 0.0658,-0.0313 0.20987,-0.10963 0.26312,-0.16288 0.006,0 0.009,-0.006 0.0125,-0.006 0.0219,-0.0783 -0.17228,-0.009 -0.14722,-0.0908 0,-0.009 0.0251,-0.0219 0.0407,-0.0345 -0.0439,0.009 -0.0752,0.0313 -0.12216,0.0439 z"
       id="path50-0"
       style="fill:#f0f0f0;fill-opacity:1;stroke-width:0.0313231" />
    <path
       d="m 392.75815,514.48774 c -0.0407,0.0313 -0.0783,0.0595 -0.11903,0.0908 0.0564,-0.0282 0.11277,-0.0564 0.14722,-0.0908 -0.0157,0.003 -0.0251,0.003 -0.0282,0 z"
       id="path54-4"
       style="fill:#f0f0f0;fill-opacity:1;stroke-width:0.0313231" />
    <path
       d="m 392.21939,515.04216 c 0.0783,-0.0501 0.11903,-0.0595 0.19107,-0.10963 -0.0595,0.0219 -0.26311,0.11276 -0.35708,0.13469 -0.0971,0.0877 -0.19107,0.17228 -0.28504,0.25998 0.0407,-0.0219 0.0814,-0.047 0.12843,-0.072 0.11589,-0.0658 0.18167,-0.13782 0.32262,-0.213 z"
       id="path56-4"
       style="fill:#f0f0f0;fill-opacity:1;stroke-width:0.0313231" />
    <path
       d="m 392.90224,514.38124 c -0.0376,0.0282 -0.072,0.0532 -0.10963,0.0814 0.072,-0.0344 0.14408,-0.0783 0.17541,-0.1065 -0.0157,0.006 -0.0407,0.0157 -0.0658,0.0251 z"
       id="path58-4"
       style="fill:#f0f0f0;fill-opacity:1;stroke-width:0.0313231" />
    <path
       d="m 392.55142,514.66942 c 0.009,-0.0157 -0.003,-0.009 -0.0282,0.003 -0.0407,0.0313 -0.0783,0.0658 -0.11903,0.094 0.0219,-0.009 0.0407,-0.0188 0.0627,-0.0251 0.0564,-0.0313 0.072,-0.0438 0.0846,-0.072 z"
       id="path60-4"
       style="fill:#f0f0f0;fill-opacity:1;stroke-width:0.0313231" />
    <path
       d="m 392.41046,514.90434 c 0.0439,-0.0157 0.10337,-0.0439 0.12217,-0.0658 0.0251,-0.0689 -0.0564,-0.0658 -0.14722,-0.0533 -0.0532,0.0439 -0.1065,0.0908 -0.15662,0.13469 0.047,-0.003 0.0345,0.0407 0.18167,-0.0157 z"
       id="path62-7"
       style="fill:#f0f0f0;fill-opacity:1;stroke-width:0.0313231" />
    <path
       d="m 393.22173,514.21523 c -0.0282,0.006 -0.047,0.0125 -0.072,0.0251 0,-0.0125 0.009,-0.009 0.009,-0.0219 -0.0251,0.009 -0.0439,0.0157 -0.0658,0.0251 -0.0219,0.0157 -0.0438,0.0282 -0.0626,0.047 0,0.009 0.0125,0.009 0.0407,0.003 0.047,-0.0282 0.12529,-0.0689 0.15035,-0.0783 z"
       id="path64-6"
       style="fill:#f0f0f0;fill-opacity:1;stroke-width:0.0313231" />
    <path
       d="m 397.9108,518.77588 c -0.1065,-0.0157 -0.14722,0.0439 -0.24118,0.0439 -0.0971,0 -0.15349,-0.0689 -0.30697,-0.009 0,0.0125 -0.003,0.0313 0,0.0439 0.0188,0.0188 0.0814,0.0219 0.0971,0.0251 0.11276,0.0313 0.1942,0.11903 0.3195,0.14409 -0.009,0.0125 0.0407,0.0251 0.0564,0.0219 0.0157,0 0.0407,-0.0282 0.0439,-0.0407 -0.003,-0.0376 -0.0313,-0.0533 -0.0313,-0.094 0,-0.0188 0.0376,-0.0658 0.0376,-0.0658 0,-0.0188 0.0157,-0.0532 0.0251,-0.0689 z"
       id="path66-3"
       style="fill:#f0f0f0;fill-opacity:1;stroke-width:0.0313231" />
    <path
       d="m 396.83329,517.94895 c -0.0157,0 -0.0219,-0.0376 -0.0219,-0.0595 -0.0251,0.009 -0.0658,0.0564 -0.10963,0.0627 -0.0125,0.006 -0.0344,0.006 -0.047,0.0157 0.0282,0.0344 0.0439,0.20047 0.10963,0.20986 0.009,-0.0313 0.047,-0.15661 0.0689,-0.22865 z"
       id="path68-1"
       style="fill:#f0f0f0;fill-opacity:1;stroke-width:0.0313231" />
    <path
       d="m 396.65161,518.41253 c -0.006,0.0313 -0.0344,0.072 -0.047,0.11589 -0.003,0.0407 -0.009,0.11903 0.0627,0.11903 0.0439,-0.006 0.18167,-0.0877 0.18793,-0.16914 0.003,-0.094 0.0219,-0.14096 -0.0313,-0.2318 -0.0157,-0.003 -0.0407,-0.0313 -0.0877,-0.0282 -0.047,0.006 -0.0689,0.0564 -0.14722,0.0783 0.003,0.0376 0.0626,0.0689 0.0626,0.1159 z"
       id="path70-7"
       style="fill:#f0f0f0;fill-opacity:1;stroke-width:0.0313231" />
    <path
       d="m 395.60542,518.53469 c -0.0282,0.009 -0.0658,0.0251 -0.1065,0.047 0.006,0 0.0595,0.047 0.0814,0.0439 0.0157,0 0.0501,-0.0188 0.0532,-0.0313 0.006,-0.0125 -0.0282,-0.0501 -0.0282,-0.0595 z"
       id="path72-5"
       style="fill:#f0f0f0;fill-opacity:1;stroke-width:0.0313231" />
    <path
       d="m 397.26868,515.88162 c 0.003,-0.0251 -0.0282,-0.0188 -0.0251,-0.0501 -0.0219,0 -0.0595,0.003 -0.0814,0.006 -0.003,0.006 -0.003,0.0157 -0.003,0.0219 -0.003,0.0251 0.047,0.0345 0.0971,0.0251 0,0.006 0,0.0125 0,0.0188 0.003,-0.003 0.009,0 0.0125,-0.0219 z"
       id="path74-9"
       style="fill:#f0f0f0;fill-opacity:1;stroke-width:0.0313231" />
    <path
       d="m 397.31253,515.89728 c -0.003,0.003 -0.0157,0.0125 -0.0219,0.0157 0.003,0 0.0344,0.0125 0.0595,0.0125 0.10023,0 0.0658,-0.0908 0.14095,-0.10963 -0.0188,-0.0407 -0.0219,-0.0626 -0.10963,-0.0595 -0.0219,0.003 -0.0846,0.0689 -0.0846,0.0783 0,0.0157 0.0438,0.0313 0.0877,0.0344 0,0.0125 -0.0376,0.0282 -0.0626,0.0376 -0.006,-0.006 -0.009,-0.006 -0.009,-0.009 z"
       id="path76-6"
       style="fill:#f0f0f0;fill-opacity:1;stroke-width:0.0313231" />
    <path
       d="m 398.66569,515.50574 c 0.0157,-0.003 0.0783,-0.0188 0.0783,-0.0282 0,-0.009 0,-0.0188 0,-0.0282 0.006,0 0.0282,-0.0219 0.0344,-0.0313 -0.0125,-0.006 -0.0344,-0.0157 -0.047,-0.0219 0,0 -0.0439,0.0125 -0.0407,0.0251 -0.003,0.009 0.0188,0.0188 0.0282,0.0282 -0.0282,0.006 -0.0689,0.0188 -0.0971,0.0219 -0.003,0.0125 0.0125,0.0344 0.0438,0.0344 z"
       id="path78-2"
       style="fill:#f0f0f0;fill-opacity:1;stroke-width:0.0313231" />
    <path
       d="m 400.11282,519.32403 c -0.12529,-0.0313 -0.28817,-0.0626 -0.45106,-0.0376 0.0846,0.0345 0.213,0.047 0.27252,0.0501 0.0376,-0.003 0.0814,0.0313 0.17854,-0.0125 z"
       id="path80-1"
       style="fill:#f0f0f0;fill-opacity:1;stroke-width:0.0313231" />
    <path
       d="m 401.6915,519.35222 c 0.009,-0.0157 -0.003,-0.0532 0.0157,-0.0595 0.0313,-0.0125 0.0752,0.006 0.0877,-0.0501 -0.11903,0.0125 -0.29757,0.0689 -0.4072,0.10963 0.003,0.009 0.0251,0.0282 0.0344,0.0282 0,0.0157 0.0345,0.0313 0.0501,0.0313 0.0658,0 0.19734,-0.0313 0.21926,-0.0595 z"
       id="path82-7"
       style="fill:#f0f0f0;fill-opacity:1;stroke-width:0.0313231" />
    <path
       d="m 405.62255,523.95985 c 0.0407,0 0.1065,-0.0689 0.11277,-0.0908 -0.0846,0 -0.12843,0.0157 -0.18481,0.0376 0.003,0.0282 0.0564,0.0532 0.072,0.0532 z"
       id="path84-8"
       style="fill:#f0f0f0;fill-opacity:1;stroke-width:0.0313231" />
    <path
       d="m 403.9311,514.13692 c -0.009,-0.003 -0.0658,0.0219 -0.0626,0.0345 0.006,0.0251 0.0344,0.0313 0.10336,0.0407 0.094,0.0251 0.15662,0.0125 0.22866,0.003 0.006,-0.009 0,-0.0157 -0.003,-0.0251 -0.0814,-0.0219 -0.12216,-0.0501 -0.20047,-0.0626 -0.0282,-0.003 -0.0407,0.009 -0.0658,0.009 z"
       id="path86-5"
       style="fill:#f0f0f0;fill-opacity:1;stroke-width:0.0313231" />
    <path
       d="m 405.44714,514.35618 c 0,0.0313 0.12843,0.0752 0.18794,0.0908 0,0 0.0658,0.0251 0.0626,0.006 -0.0282,-0.0439 -0.26312,-0.13156 -0.25059,-0.0971 z"
       id="path88-7"
       style="fill:#f0f0f0;fill-opacity:1;stroke-width:0.0313231" />
    <path
       class="st1"
       d="m 400.57073,512.29931 c -5.81216,0 -10.49939,4.68723 -10.49939,10.49939 0,5.81216 4.68723,10.49938 10.49939,10.49938 5.81216,0 10.49939,-4.68722 10.49939,-10.49938 h 0.74995 c 0,4.34974 -1.5749,8.17452 -5.0622,10.2744 -1.7999,1.08744 -3.93727,1.7249 -6.18714,1.7249 -6.63711,0 -11.9993,-5.36219 -11.9993,-11.9993 0,-4.49974 2.51235,-8.43701 6.18714,-10.49939 1.7249,-0.93745 3.71228,-0.74996 5.81216,-0.74996 z"
       id="path6-3-4"
       sodipodi:nodetypes="csscccssccc"
       style="clip-rule:evenodd;fill:#f0f0f0;fill-opacity:1;fill-rule:evenodd;stroke-width:0.374978" />
    <path
       class="st2"
       d="m 394.57108,512.4118 c 2.73734,-1.6124 6.03715,-2.02488 9.11197,-1.19993 3.07482,0.82496 5.69967,2.84984 7.27457,5.58718 1.57491,2.73734 2.02489,6.03715 1.19993,9.11197 -0.82495,3.07482 -2.84983,5.69966 -5.58717,7.27457 l -0.74996,-1.31242 c 2.39986,-1.38742 4.16226,-3.67479 4.87472,-6.37463 0.71246,-2.69984 0.37498,-5.54968 -1.04994,-7.94954 -1.38742,-2.39986 -3.67479,-4.16225 -6.37463,-4.87471 -2.66234,-0.74996 -5.54967,-0.37498 -7.94953,1.04994 z"
       id="path8-6-1"
       style="clip-rule:evenodd;fill:#263740;fill-opacity:1;fill-rule:evenodd;stroke-width:0.374978" />
  </g>
</svg>
