<?xml version="1.0" encoding="UTF-8" standalone="no"?>
<svg
   width="64"
   version="1.1"
   height="64"
   id="svg15"
   sodipodi:docname="folder-sign.svg"
   inkscape:version="1.1.1 (3bf5ae0d25, 2021-09-20)"
   xmlns:inkscape="http://www.inkscape.org/namespaces/inkscape"
   xmlns:sodipodi="http://sodipodi.sourceforge.net/DTD/sodipodi-0.dtd"
   xmlns:xlink="http://www.w3.org/1999/xlink"
   xmlns="http://www.w3.org/2000/svg"
   xmlns:svg="http://www.w3.org/2000/svg"
   xmlns:rdf="http://www.w3.org/1999/02/22-rdf-syntax-ns#"
   xmlns:cc="http://creativecommons.org/ns#"
   xmlns:dc="http://purl.org/dc/elements/1.1/">
  <sodipodi:namedview
     pagecolor="#ffffff"
     bordercolor="#666666"
     borderopacity="1"
     objecttolerance="10"
     gridtolerance="10"
     guidetolerance="10"
     inkscape:pageopacity="0"
     inkscape:pageshadow="2"
     inkscape:window-width="1920"
     inkscape:window-height="1007"
     id="namedview17"
     showgrid="true"
     inkscape:zoom="9.8125"
     inkscape:cx="17.019108"
     inkscape:cy="42.038217"
     inkscape:window-x="0"
     inkscape:window-y="0"
     inkscape:window-maximized="1"
     inkscape:current-layer="layer1"
     inkscape:document-rotation="0"
     showguides="false"
     inkscape:pagecheckerboard="0">
    <inkscape:grid
       type="xygrid"
       id="grid919" />
  </sodipodi:namedview>
  <defs
     id="defs5455">
    <linearGradient
       inkscape:collect="always"
       xlink:href="#linearGradient847"
       id="linearGradient858"
       x1="210.75999"
       y1="89.093002"
       x2="362.40799"
       y2="89.093002"
       gradientUnits="userSpaceOnUse"
       gradientTransform="matrix(0.12132762,0,0,0.12349046,385.57143,484.06629)" />
    <linearGradient
       inkscape:collect="always"
       xlink:href="#linearGradient847"
       id="linearGradient859"
       x1="0"
       y1="256.82327"
       x2="512"
       y2="256.82327"
       gradientUnits="userSpaceOnUse"
       gradientTransform="matrix(0.12132762,0,0,0.12349046,385.57143,484.06629)" />
    <linearGradient
       inkscape:collect="always"
       id="linearGradient847">
      <stop
         style="stop-color:#7192c1;stop-opacity:1"
         offset="0"
         id="stop843" />
      <stop
         style="stop-color:#3b5a87;stop-opacity:1"
         offset="1"
         id="stop845" />
    </linearGradient>
    <linearGradient
       inkscape:collect="always"
       xlink:href="#linearGradient847"
       id="linearGradient862"
       x1="476.689"
       y1="163.60085"
       x2="319.6994"
       y2="162.04736"
       gradientUnits="userSpaceOnUse"
       gradientTransform="matrix(0.12132762,0,0,0.12349046,385.57143,484.06629)" />
    <linearGradient
       inkscape:collect="always"
       xlink:href="#linearGradient994"
       id="linearGradient996"
       x1="416.57144"
       y1="510.798"
       x2="428.57144"
       y2="532.79797"
       gradientUnits="userSpaceOnUse"
       gradientTransform="translate(-28.408915,1.6990545)" />
    <linearGradient
       inkscape:collect="always"
       id="linearGradient994">
      <stop
         style="stop-color:#263740;stop-opacity:1"
         offset="0"
         id="stop990" />
      <stop
         style="stop-color:#263740;stop-opacity:1"
         offset="0.73382789"
         id="stop1610" />
      <stop
         style="stop-color:#f0f0f0;stop-opacity:1"
         offset="0.77272815"
         id="stop1224" />
      <stop
         style="stop-color:#f0f0f0;stop-opacity:1"
         offset="1"
         id="stop992" />
    </linearGradient>
  </defs>
  <metadata
     id="metadata5458">
    <rdf:RDF>
      <cc:Work
         rdf:about="">
        <dc:format>image/svg+xml</dc:format>
        <dc:type
           rdf:resource="http://purl.org/dc/dcmitype/StillImage" />
      </cc:Work>
    </rdf:RDF>
  </metadata>
  <g
     inkscape:label="Capa 1"
     inkscape:groupmode="layer"
     id="layer1"
     transform="translate(-384.57143,-483.798)">
    <path
       style="fill:url(#linearGradient858);fill-opacity:1;stroke-width:0.122405"
       d="m 418.27991,496.76498 c 1.00234,1.00832 2.35492,1.57376 3.76434,1.57376 h 2.08431 5.41297 c -1.40942,0 -2.76196,-0.56544 -3.76434,-1.57376 l -3.37309,-3.39306 c -1.00265,-1.00849 -2.35506,-1.57392 -3.76429,-1.57392 h -7.49732 c 1.40923,0 2.76181,0.56543 3.76434,1.57392 z"
       id="path2" />
    <path
       style="fill:#3b5a87;fill-opacity:1;stroke-width:0.122405"
       d="m 407.40937,493.37192 3.37327,3.39306 c 1.00233,1.00832 2.35487,1.57376 3.76429,1.57376 h 2.08436 5.41296 c -1.40942,0 -2.762,-0.56544 -3.76434,-1.57376 l -3.37308,-3.39306 c -1.00265,-1.00849 -2.35511,-1.57392 -3.76434,-1.57392 h -7.36358 -0.13375 c 1.40942,0 2.76182,0.56556 3.76421,1.57392 z"
       id="path4" />
    <path
       style="fill:url(#linearGradient859);fill-opacity:1;stroke-width:0.114828"
       d="m 444.47801,497.55407 h -12.85238 -2.08437 -5.41295 -2.08431 -5.41271 -2.08436 c -1.40942,0 -2.76196,-0.4976 -3.76429,-1.38504 l -3.37327,-2.98601 c -1.00251,-0.88742 -2.35492,-1.38502 -3.76432,-1.38502 h -7.36334 -7.49714 c -1.7745,0 -3.21314,1.28851 -3.21314,2.87804 v 5.75606 0.95938 35.49546 c 0,1.58953 1.43864,2.87804 3.21314,2.87804 h 55.69344 c 1.7745,0 3.21314,-1.28851 3.21314,-2.87804 V 500.4321 c 0,-1.58964 -1.43864,-2.87803 -3.21314,-2.87803 z m -20.34958,5.75596 z m 19.27871,0.95937 c 0,1.05956 -0.959,1.91865 -2.14214,1.91865 h -14.99442 c -1.18314,0 -2.14215,-0.85909 -2.14215,-1.91865 v -0.95937 c 0,-1.05956 0.95901,-1.91865 2.14215,-1.91865 h 14.99429 c 1.18315,0 2.14214,0.85909 2.14214,1.91865 v 0.95937 z"
       id="path6"
       sodipodi:nodetypes="scccccsccscssccssssssccccccccccssssssscc" />
    <path
       style="fill:url(#linearGradient862);fill-opacity:1;stroke-width:0.122405"
       d="m 441.26487,501.05685 h -14.99429 c -1.18314,0 -2.16639,0.97609 -2.16639,2.18013 v 1.09026 c 0,1.20403 0.98325,2.18014 2.16639,2.18014 h 14.99429 c 1.18315,0 2.29726,-0.97643 2.32413,-2.18014 l 0.0242,-1.09026 c 1.2e-4,-1.20404 -1.16511,-2.18013 -2.34837,-2.18013 z"
       id="path8"
       sodipodi:nodetypes="ssssssscs" />
    <path
       style="color:#232629;fill:url(#linearGradient996);fill-opacity:1;stroke:none;stroke-width:0.85402"
       d="m 410.59875,512.8981 c -0.1492,-0.002 -0.30228,0.0258 -0.44661,0.0839 -0.0775,0.0338 -0.41189,0.29048 -0.74087,0.57071 l -0.59898,0.51457 -0.21703,-0.0948 c -0.30377,-0.12784 -0.59689,-0.15614 -0.87027,-0.0769 -0.18897,0.0545 -0.63182,0.41946 -3.53744,2.88752 -1.83371,1.55587 -3.32481,2.84105 -3.3204,2.86095 0.003,0.0157 0.74827,0.38793 1.64874,0.81984 l 1.64661,0.79062 2.16631,-1.84375 c 1.19226,-1.01434 2.18423,-1.83519 2.20801,-1.82378 0.0776,0.0358 0.21755,0.83312 0.18993,1.08922 -0.0114,0.13967 -0.0929,0.39067 -0.17741,0.55719 -0.15074,0.29777 -0.16716,0.31522 -2.85292,2.60772 -1.48537,1.26733 -2.72215,2.34374 -2.74436,2.38629 -0.0635,0.11733 0.008,0.33675 0.14607,0.46259 0.23233,0.21213 0.80699,0.2792 1.13324,0.12801 0.22539,-0.10506 5.54501,-4.67945 5.71417,-4.91795 0.4941,-0.68042 0.59642,-1.55177 0.28383,-2.40905 -0.12351,-0.34026 -0.28502,-0.66734 -0.44244,-0.89987 -0.0458,-0.0632 0.0309,-0.14475 0.52799,-0.57197 0.47017,-0.4078 0.57797,-0.52223 0.58644,-0.62788 0.0184,-0.22476 -0.0888,-0.34983 -0.43408,-0.52125 l -0.3214,-0.16003 0.63863,-0.54781 c 0.5235,-0.45332 0.63666,-0.57161 0.64486,-0.6773 0.0238,-0.33671 -0.38297,-0.58341 -0.83062,-0.58656 z m -10.75842,7.59895 c -0.0153,0.002 -1.96952,1.65988 -4.34508,3.68078 -3.82073,3.25435 -4.3642,3.73609 -4.71661,4.15013 -0.70003,0.82425 -1.46191,2.08083 -1.96802,3.22886 -0.32798,0.73632 -0.34448,0.66968 0.11272,0.51322 1.41025,-0.48653 3.25241,-1.27637 4.32421,-1.85706 1.0481,-0.56851 1.22656,-0.71305 5.6662,-4.48998 l 4.26997,-3.63688 -1.65917,-0.79591 c -0.9125,-0.43763 -1.66853,-0.79458 -1.68422,-0.79316 z m 0.48002,8.42277 c -0.20968,-0.009 -0.42559,-0.004 -0.56554,0.0135 v 0.002 c -0.66357,0.0894 -1.40246,0.45675 -1.75937,0.87995 -0.0964,0.10982 -0.24926,0.35878 -0.34432,0.5465 -0.0897,0.1912 -0.17305,0.35056 -0.1795,0.35469 -0.0516,0.0405 -1.32027,0.23539 -2.06613,0.31723 -1.75347,0.19586 -2.23212,0.26896 -2.40418,0.37058 -0.33762,0.19939 -0.0764,0.40012 0.40281,0.3107 0.12711,-0.025 0.66913,-0.0933 1.19167,-0.15066 0.52357,-0.0562 1.31982,-0.16308 1.77182,-0.228 0.45304,-0.0694 0.83645,-0.11492 0.85567,-0.10262 0.019,0.0118 -0.0567,0.24424 -0.17735,0.51721 l -0.21706,0.48931 -0.48001,0.1346 c -0.26183,0.0737 -0.63717,0.19934 -0.83479,0.28535 -0.59949,0.25256 -0.71526,0.56978 -0.29428,0.7732 0.22972,0.10994 0.86724,0.10592 1.26259,-0.005 0.35052,-0.10168 0.54771,-0.24393 0.82229,-0.61455 0.14638,-0.19179 0.26195,-0.29304 0.35061,-0.30528 0.0706,-0.0122 0.70357,-0.0938 1.40457,-0.188 0.70203,-0.0894 1.33895,-0.1757 1.42123,-0.188 0.13356,-0.0203 0.14699,-0.0115 0.10825,0.0653 -0.0258,0.0501 -0.14116,0.19239 -0.26295,0.31864 -0.12075,0.12625 -0.21705,0.27653 -0.21705,0.33731 0,0.12629 0.16696,0.25275 0.30052,0.21998 0.0516,-0.0122 0.12028,-0.0244 0.15234,-0.0244 0.0324,0 0.1731,-0.0654 0.31305,-0.14664 0.26181,-0.1509 0.89326,-0.88893 0.89326,-1.04388 0,-0.0771 0.096,-0.0967 0.15233,-0.0347 0.019,0.0203 0.16425,0.0563 0.32348,0.0813 0.22334,0.0357 0.288,0.0643 0.288,0.12928 0,0.12627 0.32616,0.31047 0.61356,0.3466 0.22333,0.025 0.51044,-0.005 0.81601,-0.0853 0.10769,-0.0298 0.11464,-0.0203 0.0777,0.0853 -0.0258,0.0655 -0.21134,0.27352 -0.40905,0.46532 -0.42099,0.3993 -0.93078,1.03462 -1.06431,1.31583 -0.10769,0.24025 -0.0639,0.41993 0.13353,0.50524 0.17844,0.0737 0.47119,0.0392 0.624,-0.0669 0.13359,-0.0935 0.86193,-1.0747 1.12906,-1.52244 0.19129,-0.31397 0.27993,-0.39976 0.71376,-0.69324 0.35688,-0.24024 0.47344,-0.29749 0.39652,-0.204 -0.12716,0.17548 -0.12118,0.30937 0.0186,0.39062 0.29918,0.17543 0.73309,0.005 1.11028,-0.43592 0.2233,-0.2608 0.3896,-0.33746 1.21879,-0.58656 l 0.432,-0.12665 -0.0437,0.15065 c -0.0258,0.0812 -0.17277,0.31393 -0.32557,0.51321 -0.30026,0.40341 -0.35584,0.66011 -0.1774,0.87987 0.12074,0.15085 0.24816,0.15575 0.83479,0.0259 0.81637,-0.17539 1.88119,-0.57982 2.15795,-0.81185 0.37611,-0.32632 0.49163,-0.63942 0.26297,-0.74528 -0.23616,-0.10984 -0.36968,-0.0652 -0.66993,0.21598 -0.40178,0.38298 -0.89871,0.68105 -1.37742,0.83192 -0.22331,0.0736 -0.42112,0.12156 -0.44035,0.10933 -0.0258,-0.0155 0.48403,-0.89222 0.75758,-1.30387 0.0579,-0.0853 0.10409,-0.19162 0.10409,-0.23592 0,-0.11399 -0.22404,-0.244 -0.4153,-0.244 -0.0897,0 -0.51189,0.10936 -0.93289,0.24799 -0.87407,0.27715 -0.81603,0.30151 -0.59271,-0.21995 0.13356,-0.32153 0.0895,-0.40751 -0.21703,-0.42793 -0.29386,-0.0203 -0.40801,0.0412 -0.67619,0.34659 -0.17204,0.20751 -0.40083,0.37914 -0.84106,0.63991 -0.5802,0.34199 -0.60624,0.35399 -0.74086,0.29326 -0.20411,-0.0935 -0.31918,-0.0811 -0.81603,0.0774 -0.48511,0.15493 -0.64517,0.17545 -0.76591,0.0812 -0.10285,-0.0771 0.0581,-0.11802 0.94538,-0.22793 0.86125,-0.10585 0.96838,-0.1353 0.96838,-0.24931 0,-0.18365 -0.23641,-0.35786 -0.65742,-0.47597 -0.72766,-0.20747 -0.80852,-0.2205 -1.12697,-0.16798 -0.34405,0.0562 -0.85508,0.3707 -0.92452,0.56666 -0.0706,0.20405 -0.288,0.1425 -0.288,-0.0813 0,-0.0935 -0.17918,-0.32969 -0.28174,-0.37062 -0.21691,-0.0935 -0.56659,0.1105 -0.83482,0.4852 l -0.21079,0.28937 -0.47163,0.0653 c -0.61227,0.0853 -2.39134,0.31321 -2.62752,0.34262 -0.15278,0.0155 -0.17814,0.009 -0.14608,-0.0503 0.0258,-0.0405 0.10183,-0.21897 0.17737,-0.4026 0.1977,-0.50509 0.25625,-0.57104 0.54264,-0.63591 0.34407,-0.0769 1.50602,-0.39564 1.80522,-0.4932 0.13999,-0.0453 0.42605,-0.18315 0.63656,-0.30532 0.64432,-0.383 0.74539,-0.73779 0.28592,-0.99858 -0.12719,-0.0694 -0.29357,-0.14215 -0.36943,-0.16261 -0.1175,-0.0298 -0.32039,-0.0492 -0.5301,-0.0554 z m -0.64278,0.47593 c 0.0884,-0.004 0.19336,-0.002 0.32557,0.005 0.33764,0.0118 0.47254,0.0327 0.56768,0.0973 0.12713,0.0812 0.12682,0.085 0.0123,0.23997 -0.0774,0.0976 -0.25457,0.21231 -0.47792,0.31057 -0.38892,0.1714 -1.60812,0.48463 -1.64659,0.42798 -0.0516,-0.0935 0.33952,-0.65237 0.58848,-0.83188 0.24846,-0.18019 0.36462,-0.23841 0.6303,-0.24796 z m -3.27446,3.41153 c 0.0488,0.002 0.0497,0.0303 0.009,0.08 -0.0829,0.10168 -0.30078,0.17525 -0.42156,0.14659 -0.13995,-0.0358 -0.10262,-0.0849 0.12105,-0.15864 0.14689,-0.0473 0.24356,-0.0706 0.29221,-0.0684 z"
       class="ColorScheme-Text"
       id="path12" />
  </g>
</svg>
