<?xml version="1.0" encoding="UTF-8" standalone="no"?>
<svg
   width="64"
   version="1.1"
   height="64"
   id="svg15"
   sodipodi:docname="folder-tar.svg"
   inkscape:version="1.1.1 (3bf5ae0d25, 2021-09-20)"
   xmlns:inkscape="http://www.inkscape.org/namespaces/inkscape"
   xmlns:sodipodi="http://sodipodi.sourceforge.net/DTD/sodipodi-0.dtd"
   xmlns:xlink="http://www.w3.org/1999/xlink"
   xmlns="http://www.w3.org/2000/svg"
   xmlns:svg="http://www.w3.org/2000/svg"
   xmlns:rdf="http://www.w3.org/1999/02/22-rdf-syntax-ns#"
   xmlns:cc="http://creativecommons.org/ns#"
   xmlns:dc="http://purl.org/dc/elements/1.1/">
  <sodipodi:namedview
     pagecolor="#ffffff"
     bordercolor="#666666"
     borderopacity="1"
     objecttolerance="10"
     gridtolerance="10"
     guidetolerance="10"
     inkscape:pageopacity="0"
     inkscape:pageshadow="2"
     inkscape:window-width="1920"
     inkscape:window-height="1007"
     id="namedview17"
     showgrid="true"
     inkscape:zoom="9.8125"
     inkscape:cx="17.019108"
     inkscape:cy="42.038217"
     inkscape:window-x="0"
     inkscape:window-y="0"
     inkscape:window-maximized="1"
     inkscape:current-layer="layer1"
     inkscape:document-rotation="0"
     showguides="false"
     inkscape:pagecheckerboard="0">
    <inkscape:grid
       type="xygrid"
       id="grid919" />
  </sodipodi:namedview>
  <defs
     id="defs5455">
    <linearGradient
       inkscape:collect="always"
       xlink:href="#linearGradient847"
       id="linearGradient858"
       x1="210.75999"
       y1="89.093002"
       x2="362.40799"
       y2="89.093002"
       gradientUnits="userSpaceOnUse"
       gradientTransform="matrix(0.12132762,0,0,0.12349046,385.57143,484.06629)" />
    <linearGradient
       inkscape:collect="always"
       xlink:href="#linearGradient847"
       id="linearGradient859"
       x1="0"
       y1="256.82327"
       x2="512"
       y2="256.82327"
       gradientUnits="userSpaceOnUse"
       gradientTransform="matrix(0.12132762,0,0,0.12349046,385.57143,484.06629)" />
    <linearGradient
       inkscape:collect="always"
       id="linearGradient847">
      <stop
         style="stop-color:#7192c1;stop-opacity:1"
         offset="0"
         id="stop843" />
      <stop
         style="stop-color:#3b5a87;stop-opacity:1"
         offset="1"
         id="stop845" />
    </linearGradient>
    <linearGradient
       inkscape:collect="always"
       xlink:href="#linearGradient847"
       id="linearGradient862"
       x1="476.689"
       y1="163.60085"
       x2="319.6994"
       y2="162.04736"
       gradientUnits="userSpaceOnUse"
       gradientTransform="matrix(0.12132762,0,0,0.12349046,385.57143,484.06629)" />
  </defs>
  <metadata
     id="metadata5458">
    <rdf:RDF>
      <cc:Work
         rdf:about="">
        <dc:format>image/svg+xml</dc:format>
        <dc:type
           rdf:resource="http://purl.org/dc/dcmitype/StillImage" />
      </cc:Work>
    </rdf:RDF>
  </metadata>
  <g
     inkscape:label="Capa 1"
     inkscape:groupmode="layer"
     id="layer1"
     transform="translate(-384.57143,-483.798)">
    <path
       style="fill:url(#linearGradient858);fill-opacity:1;stroke-width:0.122405"
       d="m 418.27991,496.76498 c 1.00234,1.00832 2.35492,1.57376 3.76434,1.57376 h 2.08431 5.41297 c -1.40942,0 -2.76196,-0.56544 -3.76434,-1.57376 l -3.37309,-3.39306 c -1.00265,-1.00849 -2.35506,-1.57392 -3.76429,-1.57392 h -7.49732 c 1.40923,0 2.76181,0.56543 3.76434,1.57392 z"
       id="path2" />
    <path
       style="fill:#3b5a87;fill-opacity:1;stroke-width:0.122405"
       d="m 407.40937,493.37192 3.37327,3.39306 c 1.00233,1.00832 2.35487,1.57376 3.76429,1.57376 h 2.08436 5.41296 c -1.40942,0 -2.762,-0.56544 -3.76434,-1.57376 l -3.37308,-3.39306 c -1.00265,-1.00849 -2.35511,-1.57392 -3.76434,-1.57392 h -7.36358 -0.13375 c 1.40942,0 2.76182,0.56556 3.76421,1.57392 z"
       id="path4" />
    <path
       style="fill:url(#linearGradient859);fill-opacity:1;stroke-width:0.114828"
       d="m 444.47801,497.55407 h -12.85238 -2.08437 -5.41295 -2.08431 -5.41271 -2.08436 c -1.40942,0 -2.76196,-0.4976 -3.76429,-1.38504 l -3.37327,-2.98601 c -1.00251,-0.88742 -2.35492,-1.38502 -3.76432,-1.38502 h -7.36334 -7.49714 c -1.7745,0 -3.21314,1.28851 -3.21314,2.87804 v 5.75606 0.95938 35.49546 c 0,1.58953 1.43864,2.87804 3.21314,2.87804 h 55.69344 c 1.7745,0 3.21314,-1.28851 3.21314,-2.87804 V 500.4321 c 0,-1.58964 -1.43864,-2.87803 -3.21314,-2.87803 z m -20.34958,5.75596 z m 19.27871,0.95937 c 0,1.05956 -0.959,1.91865 -2.14214,1.91865 h -14.99442 c -1.18314,0 -2.14215,-0.85909 -2.14215,-1.91865 v -0.95937 c 0,-1.05956 0.95901,-1.91865 2.14215,-1.91865 h 14.99429 c 1.18315,0 2.14214,0.85909 2.14214,1.91865 v 0.95937 z"
       id="path6"
       sodipodi:nodetypes="scccccsccscssccssssssccccccccccssssssscc" />
    <path
       style="fill:url(#linearGradient862);fill-opacity:1;stroke-width:0.122405"
       d="m 441.26487,501.05685 h -14.99429 c -1.18314,0 -2.16639,0.97609 -2.16639,2.18013 v 1.09026 c 0,1.20403 0.98325,2.18014 2.16639,2.18014 h 14.99429 c 1.18315,0 2.29726,-0.97643 2.32413,-2.18014 l 0.0242,-1.09026 c 1.2e-4,-1.20404 -1.16511,-2.18013 -2.34837,-2.18013 z"
       id="path8"
       sodipodi:nodetypes="ssssssscs" />
    <path
       id="Book-7"
       class="st0"
       d="m 402.07143,518.298 z m -12,-3 c -0.825,0 -1.5,-0.675 -1.5,-1.5 v 19.5 h 14.25 c 2.0625,0 3.75,-1.6875 3.75,-3.75 v -17.25 h -1.5 v 3 z"
       sodipodi:nodetypes="cccccsccsscccs"
       style="clip-rule:evenodd;fill:#f0f0f0;fill-opacity:1;fill-rule:evenodd;stroke-width:0.375" />
    <path
       id="Book-s-5"
       class="st1"
       d="m 391.57143,512.298 c -0.825,0 -1.5,0.675 -1.5,1.5 0,0.825 0.675,1.5 1.5,1.5 h -1.5 c -0.825,0 -1.5,-0.675 -1.5,-1.5 0,-1.65 1.35,-3 3,-3 h 15 v 1.5 z m 13.5,3 v 15 c 0,1.65 -1.35,3 -3,3 h -12 v 1.5 h 12 c 2.475,0 4.5,-2.025 4.5,-4.5 v -15 z"
       style="fill:#263740;fill-opacity:1;stroke-width:0.375" />
    <g
       id="g10-3-3"
       transform="matrix(0.60200437,0,0,0.52247409,390.31119,517.59789)"
       style="fill:#263740;fill-opacity:1">
      <path
         d="M 2.56,0.383 C 1.928,-0.162 0.956,-0.107 0.391,0.504 -0.174,1.117 -0.119,2.057 0.512,2.606 0.574,2.66 5.356,6.906 7.918,14.217 8.792,13.709 9.809,13.41 10.894,13.395 8.116,5.279 2.846,0.629 2.56,0.383 Z"
         id="path2-3-6-5"
         style="fill:#263740;fill-opacity:1" />
      <path
         d="m 21.585,0.504 c -0.563,-0.611 -1.539,-0.67 -2.173,-0.121 -0.286,0.246 -5.555,4.896 -8.332,13.012 1.085,0.016 2.1,0.316 2.973,0.822 C 16.615,6.906 21.399,2.66 21.46,2.605 22.093,2.059 22.15,1.119 21.585,0.504 Z"
         id="path4-7-6"
         style="fill:#263740;fill-opacity:1" />
      <path
         d="m 10.399,17.904 h 1.175 c 1.336,0 2.445,1.225 2.584,2.51 l 0.637,5.732 C 15.48,25.91 16,25.41 16,24.664 V 19.182 C 16,16.532 13.74,14.381 10.998,14.381 8.262,14.381 6,16.531 6,19.182 v 5.482 c 0,0.746 0.508,1.375 1.194,1.613 l 0.613,-5.863 c 0.142,-1.285 1.258,-2.51 2.592,-2.51 z"
         id="path6-5-2"
         style="fill:#263740;fill-opacity:1" />
      <path
         d="m 13.805,26.908 -0.668,-6.391 c -0.082,-0.773 -0.758,-1.613 -1.563,-1.613 h -1.175 c -0.805,0 -1.479,0.84 -1.563,1.613 l -0.668,6.266 c -0.084,0.771 0.175,1.606 0.711,2.183 0.538,0.578 1.302,0.94 2.104,0.94 0.808,0 1.567,-0.314 2.106,-0.893 0.541,-0.575 0.799,-1.333 0.716,-2.105 z m -2.821,1.262 c -0.974,0 -1.764,-0.766 -1.764,-1.709 0,-0.943 0.79,-1.707 1.764,-1.707 0.977,0 1.766,0.764 1.766,1.707 0,0.943 -0.789,1.709 -1.766,1.709 z"
         id="path8-3-9"
         style="fill:#263740;fill-opacity:1" />
    </g>
  </g>
</svg>
