<?xml version="1.0" encoding="UTF-8" standalone="no"?>
<svg
   width="64"
   version="1.1"
   height="64"
   id="svg15"
   sodipodi:docname="folder-decrypted.svg"
   inkscape:version="1.1.1 (3bf5ae0d25, 2021-09-20)"
   xmlns:inkscape="http://www.inkscape.org/namespaces/inkscape"
   xmlns:sodipodi="http://sodipodi.sourceforge.net/DTD/sodipodi-0.dtd"
   xmlns:xlink="http://www.w3.org/1999/xlink"
   xmlns="http://www.w3.org/2000/svg"
   xmlns:svg="http://www.w3.org/2000/svg"
   xmlns:rdf="http://www.w3.org/1999/02/22-rdf-syntax-ns#"
   xmlns:cc="http://creativecommons.org/ns#"
   xmlns:dc="http://purl.org/dc/elements/1.1/">
  <sodipodi:namedview
     pagecolor="#ffffff"
     bordercolor="#666666"
     borderopacity="1"
     objecttolerance="10"
     gridtolerance="10"
     guidetolerance="10"
     inkscape:pageopacity="0"
     inkscape:pageshadow="2"
     inkscape:window-width="1920"
     inkscape:window-height="1007"
     id="namedview17"
     showgrid="true"
     inkscape:zoom="9.8125"
     inkscape:cx="11.617834"
     inkscape:cy="43.261147"
     inkscape:window-x="0"
     inkscape:window-y="0"
     inkscape:window-maximized="1"
     inkscape:current-layer="layer1"
     inkscape:document-rotation="0"
     showguides="false"
     inkscape:pagecheckerboard="0">
    <inkscape:grid
       type="xygrid"
       id="grid919" />
  </sodipodi:namedview>
  <defs
     id="defs5455">
    <linearGradient
       inkscape:collect="always"
       xlink:href="#linearGradient847"
       id="linearGradient858"
       x1="210.75999"
       y1="89.093002"
       x2="362.40799"
       y2="89.093002"
       gradientUnits="userSpaceOnUse"
       gradientTransform="matrix(0.12132762,0,0,0.12349046,385.57143,484.06629)" />
    <linearGradient
       inkscape:collect="always"
       xlink:href="#linearGradient847"
       id="linearGradient859"
       x1="0"
       y1="256.82327"
       x2="512"
       y2="256.82327"
       gradientUnits="userSpaceOnUse"
       gradientTransform="matrix(0.12132762,0,0,0.12349046,385.57143,484.06629)" />
    <linearGradient
       inkscape:collect="always"
       id="linearGradient847">
      <stop
         style="stop-color:#7192c1;stop-opacity:1"
         offset="0"
         id="stop843" />
      <stop
         style="stop-color:#3b5a87;stop-opacity:1"
         offset="1"
         id="stop845" />
    </linearGradient>
    <linearGradient
       inkscape:collect="always"
       xlink:href="#linearGradient847"
       id="linearGradient862"
       x1="476.689"
       y1="163.60085"
       x2="319.6994"
       y2="162.04736"
       gradientUnits="userSpaceOnUse"
       gradientTransform="matrix(0.12132762,0,0,0.12349046,385.57143,484.06629)" />
  </defs>
  <metadata
     id="metadata5458">
    <rdf:RDF>
      <cc:Work
         rdf:about="">
        <dc:format>image/svg+xml</dc:format>
        <dc:type
           rdf:resource="http://purl.org/dc/dcmitype/StillImage" />
      </cc:Work>
    </rdf:RDF>
  </metadata>
  <g
     inkscape:label="Capa 1"
     inkscape:groupmode="layer"
     id="layer1"
     transform="translate(-384.57143,-483.798)">
    <path
       style="fill:url(#linearGradient858);fill-opacity:1;stroke-width:0.122405"
       d="m 418.27991,496.76498 c 1.00234,1.00832 2.35492,1.57376 3.76434,1.57376 h 2.08431 5.41297 c -1.40942,0 -2.76196,-0.56544 -3.76434,-1.57376 l -3.37309,-3.39306 c -1.00265,-1.00849 -2.35506,-1.57392 -3.76429,-1.57392 h -7.49732 c 1.40923,0 2.76181,0.56543 3.76434,1.57392 z"
       id="path2" />
    <path
       style="fill:#3b5a87;fill-opacity:1;stroke-width:0.122405"
       d="m 407.40937,493.37192 3.37327,3.39306 c 1.00233,1.00832 2.35487,1.57376 3.76429,1.57376 h 2.08436 5.41296 c -1.40942,0 -2.762,-0.56544 -3.76434,-1.57376 l -3.37308,-3.39306 c -1.00265,-1.00849 -2.35511,-1.57392 -3.76434,-1.57392 h -7.36358 -0.13375 c 1.40942,0 2.76182,0.56556 3.76421,1.57392 z"
       id="path4" />
    <path
       style="fill:url(#linearGradient859);fill-opacity:1;stroke-width:0.114828"
       d="m 444.47801,497.55407 h -12.85238 -2.08437 -5.41295 -2.08431 -5.41271 -2.08436 c -1.40942,0 -2.76196,-0.4976 -3.76429,-1.38504 l -3.37327,-2.98601 c -1.00251,-0.88742 -2.35492,-1.38502 -3.76432,-1.38502 h -7.36334 -7.49714 c -1.7745,0 -3.21314,1.28851 -3.21314,2.87804 v 5.75606 0.95938 35.49546 c 0,1.58953 1.43864,2.87804 3.21314,2.87804 h 55.69344 c 1.7745,0 3.21314,-1.28851 3.21314,-2.87804 V 500.4321 c 0,-1.58964 -1.43864,-2.87803 -3.21314,-2.87803 z m -20.34958,5.75596 v 0 0 z m 19.27871,0.95937 c 0,1.05956 -0.959,1.91865 -2.14214,1.91865 h -14.99442 c -1.18314,0 -2.14215,-0.85909 -2.14215,-1.91865 v -0.95937 c 0,-1.05956 0.95901,-1.91865 2.14215,-1.91865 h 14.99429 c 1.18315,0 2.14214,0.85909 2.14214,1.91865 v 0.95937 z"
       id="path6"
       sodipodi:nodetypes="scccccsccscssccssssssccccccccccssssssscc" />
    <path
       style="fill:url(#linearGradient862);fill-opacity:1;stroke-width:0.122405"
       d="m 441.26487,501.05685 h -14.99429 c -1.18314,0 -2.16639,0.97609 -2.16639,2.18013 v 1.09026 c 0,1.20403 0.98325,2.18014 2.16639,2.18014 h 14.99429 c 1.18315,0 2.29726,-0.97643 2.32413,-2.18014 l 0.0242,-1.09026 c 1.2e-4,-1.20404 -1.16511,-2.18013 -2.34837,-2.18013 z"
       id="path8"
       sodipodi:nodetypes="ssssssscs" />
    <path
       id="Lock-7"
       class="st0"
       d="m 398.45893,527.40185 c 0,0.49657 -0.2825,0.92692 -0.70625,1.15865 v 1.4897 c 0,0.36415 -0.31781,0.66209 -0.70625,0.66209 -0.38844,0 -0.70625,-0.29794 -0.70625,-0.66209 v -1.4897 c -0.42375,-0.23173 -0.70625,-0.66208 -0.70625,-1.15865 0,-0.7283 0.63563,-1.32418 1.4125,-1.32418 0.77688,0 1.4125,0.59588 1.4125,1.32418 z m 3.53125,-5.95879 h 1.4125 v 1.32418 h 2.11875 v 7.28296 c 0,1.82074 -1.58906,3.31044 -3.53125,3.31044 h -13.41875 v -10.5934 h 13.41875 z"
       style="clip-rule:evenodd;fill:#f0f0f0;fill-opacity:1;fill-rule:evenodd;stroke-width:0.341906"
       inkscape:transform-center-x="15.19978"
       inkscape:transform-center-y="0.38661082" />
    <path
       id="Lock-s-5"
       class="st1"
       d="m 392.10268,519.667 h -1.4125 v -0.2102 c 0,-3.27734 2.86031,-5.9588 6.35625,-5.9588 3.49594,0 6.35625,2.68146 6.35625,5.9588 v 1.98626 h -1.4125 v -1.98626 c 0,-2.54905 -2.22469,-4.63462 -4.94375,-4.63462 -2.71906,0 -4.94375,2.08557 -4.94375,4.63461 z m 13.41875,3.10024 h -3.53125 v 1.32417 h 2.11875 v 6.62088 c 0,1.45659 -1.27125,2.64835 -2.825,2.64835 h -11.3 v 1.32418 h 11.3 c 2.33063,0 4.2375,-1.78764 4.2375,-3.97253 z"
       style="fill:#263740;fill-opacity:1;stroke-width:0.341906"
       sodipodi:nodetypes="ccsssccssscccccssccssc"
       inkscape:transform-center-x="14.49353"
       inkscape:transform-center-y="-2.9238287" />
    <g
       transform="matrix(0.84624474,0,0,1,166.58861,18)"
       id="layer1-4"
       style="fill:#00cbcb;fill-opacity:1">
      <g
         transform="translate(-247.13492,64.999996)"
         id="g5881-2-5"
         style="fill:#00cbcb;fill-opacity:1">
        <g
           id="g4154-5-3-6-0"
           transform="translate(129,-60)"
           style="fill:#00cbcb;fill-opacity:1" />
        <g
           id="g4445-8-6-2-1-3"
           transform="translate(127.99999,-59.99997)"
           style="fill:#00cbcb;fill-opacity:1">
          <rect
             y="507.79797"
             x="423.57144"
             height="4"
             width="4"
             id="rect4179-5-6-2-9-9-4-4-4-0-8-4-8-6"
             style="opacity:1;fill:#263740;fill-opacity:1;stroke:none;stroke-width:2;stroke-miterlimit:4;stroke-dasharray:none;stroke-opacity:1" />
          <rect
             y="507.79797"
             x="431.57144"
             height="4"
             width="4"
             id="rect4179-5-6-2-9-1-20-5-7-3-4-0-7-7-1"
             style="opacity:1;fill:#263740;fill-opacity:1;stroke:none;stroke-width:2;stroke-miterlimit:4;stroke-dasharray:none;stroke-opacity:1" />
          <rect
             y="507.79797"
             x="439.57144"
             height="4"
             width="4"
             id="rect4179-5-6-2-9-1-2-2-0-6-0-4-4-9-9-0"
             style="opacity:1;fill:#263740;fill-opacity:1;stroke:none;stroke-width:2;stroke-miterlimit:4;stroke-dasharray:none;stroke-opacity:1" />
          <rect
             y="503.79797"
             x="419.57144"
             height="4"
             width="4"
             id="rect4179-5-6-2-9-2-6-7-8-3-6-3-2-6"
             style="opacity:1;fill:#f0f0f0;fill-opacity:1;stroke:none;stroke-width:2;stroke-miterlimit:4;stroke-dasharray:none;stroke-opacity:1" />
          <rect
             y="503.79797"
             x="427.57144"
             height="4"
             width="4"
             id="rect4179-5-6-2-9-1-8-3-4-4-1-2-0-0-3"
             style="opacity:1;fill:#f0f0f0;fill-opacity:1;stroke:none;stroke-width:2;stroke-miterlimit:4;stroke-dasharray:none;stroke-opacity:1" />
          <rect
             y="503.79797"
             x="435.57144"
             height="4"
             width="4"
             id="rect4179-5-6-2-9-1-2-9-2-5-3-7-5-1-2-2"
             style="opacity:1;fill:#f0f0f0;fill-opacity:1;stroke:none;stroke-width:2;stroke-miterlimit:4;stroke-dasharray:none;stroke-opacity:1" />
          <rect
             y="503.79797"
             x="443.57144"
             height="4"
             width="4.1666245"
             id="rect4179-5-6-2-9-1-2-7-7-0-2-1-5-4-7-3-0"
             style="opacity:1;fill:#f0f0f0;fill-opacity:1;stroke:none;stroke-width:2.35702;stroke-miterlimit:4;stroke-dasharray:none;stroke-opacity:1" />
          <rect
             y="499.79797"
             x="423.57144"
             height="4"
             width="4"
             id="rect4179-5-6-2-9-9-4-4-4-6-7-6-4-7-6"
             style="opacity:1;fill:#263740;fill-opacity:1;stroke:none;stroke-width:2;stroke-miterlimit:4;stroke-dasharray:none;stroke-opacity:1" />
          <rect
             y="499.79797"
             x="431.57144"
             height="4"
             width="4"
             id="rect4179-5-6-2-9-1-20-5-7-3-8-8-0-9-5-1"
             style="opacity:1;fill:#263740;fill-opacity:1;stroke:none;stroke-width:2;stroke-miterlimit:4;stroke-dasharray:none;stroke-opacity:1" />
          <rect
             y="499.79797"
             x="439.57144"
             height="4"
             width="4"
             id="rect4179-5-6-2-9-1-2-2-0-6-0-9-5-5-2-9-5"
             style="opacity:1;fill:#263740;fill-opacity:1;stroke:none;stroke-width:2;stroke-miterlimit:4;stroke-dasharray:none;stroke-opacity:1" />
        </g>
      </g>
    </g>
  </g>
</svg>
