<?xml version="1.0" encoding="UTF-8" standalone="no"?>
<svg
   viewBox="0 0 256 256"
   id="svg2"
   version="1.1"
   inkscape:version="1.1.1 (3bf5ae0d25, 2021-09-20)"
   sodipodi:docname="org.kde.plasma.frame.svg"
   xmlns:inkscape="http://www.inkscape.org/namespaces/inkscape"
   xmlns:sodipodi="http://sodipodi.sourceforge.net/DTD/sodipodi-0.dtd"
   xmlns:xlink="http://www.w3.org/1999/xlink"
   xmlns="http://www.w3.org/2000/svg"
   xmlns:svg="http://www.w3.org/2000/svg"
   xmlns:rdf="http://www.w3.org/1999/02/22-rdf-syntax-ns#"
   xmlns:cc="http://creativecommons.org/ns#"
   xmlns:dc="http://purl.org/dc/elements/1.1/">
  <metadata
     id="metadata10">
    <rdf:RDF>
      <cc:Work
         rdf:about="">
        <dc:format>image/svg+xml</dc:format>
        <dc:type
           rdf:resource="http://purl.org/dc/dcmitype/StillImage" />
      </cc:Work>
    </rdf:RDF>
  </metadata>
  <sodipodi:namedview
     pagecolor="#ffffff"
     bordercolor="#666666"
     borderopacity="1"
     objecttolerance="10"
     gridtolerance="10"
     guidetolerance="10"
     inkscape:pageopacity="0"
     inkscape:pageshadow="2"
     inkscape:window-width="1920"
     inkscape:window-height="1007"
     id="namedview8"
     showgrid="true"
     inkscape:object-nodes="true"
     inkscape:zoom="1.3037281"
     inkscape:cx="345.93103"
     inkscape:cy="146.11942"
     inkscape:window-x="0"
     inkscape:window-y="0"
     inkscape:window-maximized="1"
     inkscape:current-layer="svg2"
     inkscape:document-rotation="0"
     inkscape:lockguides="false"
     inkscape:pagecheckerboard="0">
    <inkscape:grid
       type="xygrid"
       id="grid4474" />
  </sodipodi:namedview>
  <defs
     id="defs4">
    <style
       id="current-color-scheme"
       type="text/css">
      .ColorScheme-Text {
        color:#f2f2f2;
      }
      .ColorScheme-Background {
        color:#31363b;
      }
      .ColorScheme-Highlight {
        color:#3daee9;
      }
      .ColorScheme-ViewText {
        color:#31363b;
      }
      .ColorScheme-ViewBackground {
        color:#314045;
      }
      .ColorScheme-ViewHover {
        color:#93cee9;
      }
      .ColorScheme-ViewFocus{
        color:#3daee9;
      }
      .ColorScheme-ButtonText {
        color:#31363b;
      }
      .ColorScheme-ButtonBackground {
        color:#31363b;
      }
      .ColorScheme-ButtonHover {
        color:#93cee9;
      }
      .ColorScheme-ButtonFocus{
        color:#3daee9;
      }
      </style>
    <linearGradient
       inkscape:collect="always"
       xlink:href="#linearGradient1148"
       id="linearGradient867"
       x1="384.57144"
       y1="536.78772"
       x2="448.53244"
       y2="536.78772"
       gradientUnits="userSpaceOnUse"
       gradientTransform="matrix(3.1362863,0,0,3.1364564,-1178.8261,-1490.9347)" />
    <linearGradient
       inkscape:collect="always"
       id="linearGradient1148">
      <stop
         style="stop-color:#3b5a87;stop-opacity:1"
         offset="0"
         id="stop1144" />
      <stop
         style="stop-color:#7192c1;stop-opacity:1"
         offset="1"
         id="stop1146" />
    </linearGradient>
    <linearGradient
       inkscape:collect="always"
       xlink:href="#linearGradient1587"
       id="linearGradient859"
       x1="384.57144"
       y1="512.23773"
       x2="448.53244"
       y2="512.23773"
       gradientUnits="userSpaceOnUse"
       gradientTransform="matrix(3.1362863,0,0,3.1364564,-1178.8261,-1490.9347)" />
    <linearGradient
       inkscape:collect="always"
       id="linearGradient1587">
      <stop
         style="stop-color:#7192c1;stop-opacity:1"
         offset="0"
         id="stop1583" />
      <stop
         style="stop-color:#3b5a87;stop-opacity:1"
         offset="1"
         id="stop1585" />
    </linearGradient>
    <linearGradient
       inkscape:collect="always"
       xlink:href="#linearGradient1148"
       id="linearGradient851"
       x1="384.57144"
       y1="508.62741"
       x2="438.09518"
       y2="508.62741"
       gradientUnits="userSpaceOnUse"
       gradientTransform="matrix(3.1362863,0,0,3.1364564,-1178.8261,-1490.9347)" />
    <linearGradient
       inkscape:collect="always"
       xlink:href="#linearGradient1587"
       id="linearGradient842"
       x1="388.57144"
       y1="503.798"
       x2="397.57144"
       y2="495.798"
       gradientUnits="userSpaceOnUse"
       gradientTransform="matrix(3.1362863,0,0,3.1364564,-1178.8261,-1490.9347)" />
    <linearGradient
       inkscape:collect="always"
       xlink:href="#linearGradient1148"
       id="linearGradient850"
       x1="389.57144"
       y1="512.79797"
       x2="406.57144"
       y2="495.798"
       gradientUnits="userSpaceOnUse"
       gradientTransform="matrix(3.1362863,0,0,3.1364564,-1178.8261,-1490.9347)" />
  </defs>
  <path
     style="fill:#000000;fill-opacity:1;stroke:none"
     d="m 16,10 224,0 c 3.324,0 6,2.676 6,6 l 0,224 c 0,3.324 -2.676,6 -6,6 l -224,0 c -3.324,0 -6,-2.676 -6,-6 L 10,16 c 0,-3.324 2.676,-6 6,-6 z"
     class="ColorScheme-ButtonText"
     id="rect4240" />
  <path
     style="fill:#2e3440;fill-opacity:1;stroke:none"
     d="m 16,12 224,0 c 2.216,0 4,1.784 4,4 l 0,224 c 0,2.216 -1.784,4 -4,4 l -224,0 c -2.216,0 -4,-1.784 -4,-4 L 12,16 c 0,-2.216 1.784,-4 4,-4 z"
     class="ColorScheme-Background"
     id="rect4238" />
  <path
     id="path4"
     d="m 227.9,181.35303 v 4.52916 C 227.9,195.88844 219.73534,204 209.6636,204 H 45.53652 C 35.46473,204 27.3,195.88844 27.3,185.88219 v -4.52916 z"
     style="fill:url(#linearGradient867);fill-opacity:1;fill-rule:nonzero;stroke-width:4.54435" />
  <path
     id="path6"
     d="M 227.9,68.11781 V 181.35303 H 27.3 V 68.11781 C 27.3,58.111566 35.46473,50 45.53652,50 H 209.6636 C 219.73534,50 227.9,58.111566 227.9,68.11781 Z"
     style="fill:url(#linearGradient859);fill-opacity:1;fill-rule:nonzero;stroke-width:4.54435" />
  <path
     id="path27"
     d="M 195.16577,50 C 194.39074,77.58419 186.22977,158.70582 27.3,158.70582 V 68.11781 C 27.3,58.111566 35.46473,50 45.53652,50 Z"
     style="fill:url(#linearGradient851);fill-opacity:1;fill-rule:nonzero;stroke-width:4.54435" />
  <path
     id="path29"
     d="m 45.53652,90.76474 c -1.844,-4.1e-4 -3.50582,-1.10403 -4.21136,-2.79609 -0.70542,-1.69249 -0.31543,-3.64017 0.98774,-4.93564 L 60.54943,64.9152 c 1.789,-1.71637 4.63228,-1.69187 6.39102,0.0552 1.75862,1.74693 1.78334,4.57207 0.0558,6.34939 L 48.7601,89.43757 c -0.8549,0.84954 -2.01428,1.32691 -3.22331,1.32719 z"
     style="fill:url(#linearGradient842);fill-opacity:1;fill-rule:nonzero;stroke-width:4.54435" />
  <path
     id="path31"
     d="m 45.53652,117.94103 c -1.844,-2.2e-4 -3.50582,-1.10384 -4.21136,-2.79599 -0.70542,-1.69234 -0.31543,-3.64026 0.98774,-4.93556 L 87.90395,64.9152 c 1.78901,-1.71637 4.63234,-1.69187 6.39105,0.0552 1.75873,1.74693 1.78335,4.57207 0.0558,6.34939 l -45.59085,45.29386 c -0.8549,0.84951 -2.01422,1.32687 -3.22329,1.32706 z"
     style="fill:url(#linearGradient850);fill-opacity:1;fill-rule:nonzero;stroke-width:4.54435" />
</svg>
