<?xml version="1.0" encoding="UTF-8" standalone="no"?>
<svg
   width="32"
   height="32"
   version="1.1"
   id="svg29"
   sodipodi:docname="application-atom+xml.svg"
   inkscape:version="1.1.2 (0a00cf5339, 2022-02-04)"
   xmlns:inkscape="http://www.inkscape.org/namespaces/inkscape"
   xmlns:sodipodi="http://sodipodi.sourceforge.net/DTD/sodipodi-0.dtd"
   xmlns:xlink="http://www.w3.org/1999/xlink"
   xmlns="http://www.w3.org/2000/svg"
   xmlns:svg="http://www.w3.org/2000/svg">
  <sodipodi:namedview
     id="namedview31"
     pagecolor="#ffffff"
     bordercolor="#666666"
     borderopacity="1.0"
     inkscape:pageshadow="2"
     inkscape:pageopacity="0.0"
     inkscape:pagecheckerboard="0"
     showgrid="false"
     inkscape:zoom="19.625"
     inkscape:cx="16"
     inkscape:cy="15.974522"
     inkscape:window-width="1920"
     inkscape:window-height="1013"
     inkscape:window-x="0"
     inkscape:window-y="0"
     inkscape:window-maximized="1"
     inkscape:current-layer="svg29" />
  <defs
     id="defs13">
    <linearGradient
       id="a"
       y1="392.36"
       y2="365.36"
       x2="0"
       gradientUnits="userSpaceOnUse"
       gradientTransform="translate(309.57 152.44)">
      <stop
         stop-color="#fff"
         stop-opacity="0"
         id="stop2" />
      <stop
         offset="1"
         stop-color="#fff"
         stop-opacity=".2"
         id="stop4" />
    </linearGradient>
    <linearGradient
       id="b"
       y1="17"
       y2="24"
       x1="47"
       x2="54"
       gradientUnits="userSpaceOnUse"
       gradientTransform="translate(-27 -8)">
      <stop
         stop-color="#060606"
         id="stop7" />
      <stop
         offset="1"
         stop-opacity="0"
         id="stop9" />
    </linearGradient>
    <linearGradient
       xlink:href="#a"
       id="c"
       x1="5"
       y1="30"
       x2="5"
       y2="2"
       gradientUnits="userSpaceOnUse"
       gradientTransform="translate(-20)" />
  </defs>
  <path
     d="M20 2H8C6.338 2 5 3.338 5 5v22c0 1.662 1.338 3 3 3h16c1.662 0 3-1.338 3-3V9z"
     fill="#fc963a"
     id="path15" />
  <path
     d="M8 2a2.99 2.99 0 00-2.123.877c-.031.031-.02.09-.05.123H20V2H8z"
     color="#000"
     opacity=".5"
     fill="#fff"
     id="path17" />
  <path
     d="M5.826 29c.03.033.02.092.051.123A2.99 2.99 0 008 30h16a2.99 2.99 0 002.123-.877c.031-.031.02-.09.05-.123H5.827z"
     color="#000"
     opacity=".25"
     id="path19" />
  <path
     d="M27 9l-7-7v7z"
     color="#000"
     opacity=".5"
     fill="#fff"
     fill-rule="evenodd"
     id="path21" />
  <path
     d="M20 9l7 7V9z"
     opacity=".1"
     fill="url(#b)"
     fill-rule="evenodd"
     id="path23" />
  <path
     d="M 20,2 H 7.9999997 c -1.662,0 -3,1.3380001 -3,3.0000001 V 27 c 0,1.662 1.338,3 3,3 H 24 c 1.662,0 3,-1.338 3,-3 V 9.0000001 Z"
     opacity="0.4"
     fill="url(#c)"
     id="path27"
     style="fill:url(#c)" />
  <path
     opacity="0.75"
     color-interpolation-filters="linearRGB"
     color="#000000"
     image-rendering="auto"
     color-rendering="auto"
     d="m 14,10 c -1.165,0.411 -2,1.507 -2,2.814 v 0.381 c 0,0.74 -0.404,1.378 -1,1.723 v 2.166 c 0.596,0.345 1,0.981 1,1.721 v 0.381 c 0,1.307 0.835,2.403 2,2.814 v -1.092 c -0.596,-0.345 -1,-0.983 -1,-1.723 v -0.381 c 0,-1.3 -0.826,-2.388 -1.98,-2.805 C 12.174,15.582 13,14.494 13,13.194 v -0.381 c 0,-0.74 0.404,-1.378 1,-1.723 z m 4,0 v 1.092 c 0.596,0.345 1,0.983 1,1.723 v 0.381 c 0,1.299 0.827,2.388 1.98,2.805 C 19.826,16.417 19,17.506 19,18.806 v 0.381 c 0,0.74 -0.404,1.378 -1,1.723 v 1.092 c 1.165,-0.411 2,-1.507 2,-2.814 v -0.381 c 0,-0.74 0.404,-1.376 1,-1.721 V 14.92 c -0.596,-0.345 -1,-0.983 -1,-1.723 v -0.381 c 0,-1.307 -0.835,-2.403 -2,-2.814"
     color-interpolation="sRGB"
     text-rendering="auto"
     fill="#ffffff"
     shape-rendering="auto"
     id="path31" />
</svg>
