<?xml version="1.0" encoding="UTF-8" standalone="no"?>
<svg
   inkscape:version="1.1.1 (3bf5ae0d25, 2021-09-20)"
   sodipodi:docname="system-suspend.svg"
   id="svg5"
   version="1.1"
   viewBox="0 0 32 32"
   xmlns:inkscape="http://www.inkscape.org/namespaces/inkscape"
   xmlns:sodipodi="http://sodipodi.sourceforge.net/DTD/sodipodi-0.dtd"
   xmlns="http://www.w3.org/2000/svg"
   xmlns:svg="http://www.w3.org/2000/svg"
   xmlns:rdf="http://www.w3.org/1999/02/22-rdf-syntax-ns#"
   xmlns:cc="http://creativecommons.org/ns#"
   xmlns:dc="http://purl.org/dc/elements/1.1/">
  <metadata
     id="metadata9">
    <rdf:RDF>
      <cc:Work
         rdf:about="">
        <dc:format>image/svg+xml</dc:format>
        <dc:type
           rdf:resource="http://purl.org/dc/dcmitype/StillImage" />
      </cc:Work>
    </rdf:RDF>
  </metadata>
  <sodipodi:namedview
     inkscape:document-rotation="0"
     inkscape:current-layer="svg5"
     inkscape:window-maximized="1"
     inkscape:window-y="0"
     inkscape:window-x="0"
     inkscape:cy="15.194783"
     inkscape:cx="-6.3458492"
     inkscape:zoom="14.182499"
     showgrid="true"
     id="namedview7"
     inkscape:window-height="1007"
     inkscape:window-width="1920"
     inkscape:pageshadow="2"
     inkscape:pageopacity="0"
     guidetolerance="10"
     gridtolerance="10"
     objecttolerance="10"
     borderopacity="1"
     bordercolor="#666666"
     pagecolor="#ffffff"
     inkscape:pagecheckerboard="0">
    <inkscape:grid
       type="xygrid"
       id="grid885" />
  </sodipodi:namedview>
  <defs
     id="defs3051">
    <style
       id="current-color-scheme"
       type="text/css">
      .ColorScheme-Text {
        color:#eff0f1;
      }
      </style>
  </defs>
  <path
     d="M 23.99952,7.057286 C 21.79714,5.085952 18.95571,4 16,4 9.3828603,4 4.0000003,9.383333 4.0000003,15.999999 c 0,6.616666 5.38286,12 11.9999997,12 2.73681,0 5.31619,-0.899906 7.45857,-2.602667 0.23047,-0.182847 0.30394,-0.501285 0.17653,-0.766905 -0.12742,-0.265623 -0.4217,-0.407739 -0.70834,-0.343752 -0.60881,0.137276 -1.22824,0.206472 -1.84076,0.206472 -4.03443,0 -7.48667,-2.875952 -8.20762,-6.838095 -0.0623,-0.34319 -0.39156,-0.570143 -0.73438,-0.50819 -0.34375,0.06287 -0.57124,0.391743 -0.50857,0.734952 0.79762,4.378714 4.48995,7.605236 8.8919,7.858571 -1.40347,0.656238 -2.93547,0.996476 -4.52695,0.996476 -5.92,0 -10.7366697,-4.816666 -10.7366697,-10.736665 C 5.2639003,10.079719 10.0799,5.263529 16.00038,5.263529 c 1.78981,0 3.53276,0.445128 5.08333,1.279761 -2.74104,7.45e-4 -5.35809,1.176524 -7.18047,3.226953 -0.23122,0.26079 -0.20778,0.659952 0.053,0.891762 0.26022,0.232328 0.65943,0.207962 0.89157,-0.05246 1.58314,-1.781238 3.85714,-2.803191 6.23857,-2.803191 0.78053,0 1.56047,0.110676 2.31734,0.329057 0.28347,0.08185 0.585,-0.04315 0.72766,-0.301338 0.14267,-0.258 0.0883,-0.579809 -0.1315,-0.776428 z"
     id="path70"
     style="fill:#eff0f1;fill-opacity:1;stroke-width:0.047619" />
  <path
     d="m 14.40667,18.425237 c 0.0976,0.236048 0.32738,0.389881 0.58295,0.389881 h 3.537 c 0.34914,0 0.63171,-0.282737 0.63171,-0.631524 0,-0.34877 -0.28292,-0.631143 -0.63171,-0.631143 h -2.0121 l 2.20553,-2.206094 c 0.18099,-0.180805 0.23493,-0.452567 0.13727,-0.688619 -0.0977,-0.236048 -0.32793,-0.389509 -0.58352,-0.389509 h -3.28462 c -0.34858,0 -0.63114,0.282923 -0.63114,0.631523 0,0.3486 0.28292,0.631524 0.63114,0.631524 h 1.75948 l -2.20591,2.205904 c -0.18062,0.180619 -0.23456,0.452009 -0.13616,0.688048 z"
     id="path72"
     style="fill:#eff0f1;fill-opacity:1;stroke-width:0.047619" />
  <path
     d="m 23.32619,19.48238 h -1.50633 l 1.73681,-1.736619 c 0.18062,-0.180805 0.23437,-0.452566 0.13672,-0.688619 -0.0977,-0.236048 -0.32794,-0.38951 -0.58353,-0.38951 l -2.81509,1.91e-4 c -0.34915,0 -0.63172,0.282925 -0.63172,0.631524 0,0.348585 0.28293,0.631523 0.63172,0.631523 h 1.29019 l -1.73681,1.737 c -0.18081,0.180248 -0.23475,0.45201 -0.13709,0.688048 0.0977,0.236048 0.32794,0.390067 0.58352,0.390067 h 3.03143 c 0.34914,0 0.63171,-0.282924 0.63171,-0.631715 0,-0.348957 -0.28236,-0.631904 -0.63152,-0.631904 z"
     id="path74"
     style="fill:#eff0f1;fill-opacity:1;stroke-width:0.047619" />
  <path
     d="m 8.0900003,16.151428 c 0.0977,0.236047 0.32794,0.389881 0.58352,0.389881 H 13.47352 c 0.34933,0 0.63205,-0.282923 0.63205,-0.631523 0,-0.349143 -0.28292,-0.631715 -0.63205,-0.631715 h -3.27476 l 3.37891,-3.378904 c 0.18062,-0.180619 0.23437,-0.452196 0.13672,-0.688238 -0.0977,-0.236047 -0.32794,-0.389881 -0.58353,-0.389881 H 8.6736203 c -0.34858,0 -0.63114,0.282923 -0.63114,0.631523 0,0.349143 0.28292,0.631715 0.63114,0.631715 H 11.60553 L 8.2275303,15.46319 c -0.18136,0.18062 -0.23512,0.45201 -0.13765,0.688238 z"
     id="path76"
     style="fill:#eff0f1;fill-opacity:1;stroke-width:0.047619" />
  <path
     sodipodi:nodetypes="cccccccccccccscscscccc"
     inkscape:connector-curvature="0"
     style="clip-rule:evenodd;fill:#eff0f1;fill-opacity:1;fill-rule:evenodd;stroke-width:0.00244847;stroke-linejoin:round;stroke-miterlimit:1.41421"
     id="path4-3-3-36"
     d="m 15.08507,4.0343239 c -5.07526,0.38703 -9.4182657,4.00295 -10.7007957,8.9187501 -0.50204,1.93489 -0.51429,4.087409 -0.0242,6.004179 1.26416,5.00662 5.6678957,8.67689 10.8156457,9.01569 2.92163,0.19339 5.75876,-0.65312 8.09974,-2.42473 0.63526,-0.477609 1.79044,-1.63256 2.26848,-2.26757 3.57501,-4.72853 3.21208,-11.289129 -0.85886,-15.5459391 -2.51044,-2.61788 -6.01297,-3.97235 -9.59997,-3.70038 z m 1.60898,1.48068 c 1.26334,0.0706 3.06459,0.46063 4.68794,1.409 1.71446,0.99744 3.03629,2.45354 4.01,4.3825601 1.43805,2.63022 1.45383,6.409569 0.348,8.9447 -0.9087,1.849579 -2.41967,3.80083 -4.34921,5.005739 -1.28894,0.804882 -3.76486,1.31818 -5.52772,1.296 -1.66692,-0.021 -3.71165,-0.447019 -4.93007,-1.20871 -2.2878897,-1.43027 -4.0953397,-3.44722 -4.9899957,-6.021239 -0.65343,-2.51605 -0.51093,-5.2156 0.464996,-7.59761 0.62227,-1.51882 1.67002,-2.7497501 3.329,-4.1851301 1.5234497,-1.15788 3.5096397,-1.82368 5.1852197,-1.95331 0.33257,-0.0301 0.90686,-0.098 0.95535,-0.098 0.0482,-0.006 0.4173,-0.004 0.81649,0.026 z" />
</svg>
