<?xml version="1.0" encoding="UTF-8" standalone="no"?>
<svg
   inkscape:version="1.1.1 (3bf5ae0d25, 2021-09-20)"
   sodipodi:docname="system-reboot.svg"
   id="svg6"
   version="1.1"
   viewBox="0 0 32 32"
   xmlns:inkscape="http://www.inkscape.org/namespaces/inkscape"
   xmlns:sodipodi="http://sodipodi.sourceforge.net/DTD/sodipodi-0.dtd"
   xmlns="http://www.w3.org/2000/svg"
   xmlns:svg="http://www.w3.org/2000/svg"
   xmlns:rdf="http://www.w3.org/1999/02/22-rdf-syntax-ns#"
   xmlns:cc="http://creativecommons.org/ns#"
   xmlns:dc="http://purl.org/dc/elements/1.1/">
  <metadata
     id="metadata10">
    <rdf:RDF>
      <cc:Work
         rdf:about="">
        <dc:format>image/svg+xml</dc:format>
        <dc:type
           rdf:resource="http://purl.org/dc/dcmitype/StillImage" />
      </cc:Work>
    </rdf:RDF>
  </metadata>
  <sodipodi:namedview
     inkscape:document-rotation="0"
     inkscape:current-layer="svg6"
     inkscape:window-maximized="1"
     inkscape:window-y="0"
     inkscape:window-x="0"
     inkscape:cy="15.40603"
     inkscape:cx="26.02572"
     inkscape:zoom="10.028541"
     showgrid="true"
     id="namedview8"
     inkscape:window-height="1007"
     inkscape:window-width="1920"
     inkscape:pageshadow="2"
     inkscape:pageopacity="0"
     guidetolerance="10"
     gridtolerance="10"
     objecttolerance="10"
     borderopacity="1"
     bordercolor="#666666"
     pagecolor="#ffffff"
     inkscape:pagecheckerboard="0">
    <inkscape:grid
       type="xygrid"
       id="grid871" />
  </sodipodi:namedview>
  <defs
     id="defs3051">
    <style
       id="current-color-scheme"
       type="text/css">
      .ColorScheme-Text {
        color:#eff0f1;
      }
      </style>
  </defs>
  <g
     id="g887" />
  <path
     style="color:#000000;overflow:visible;opacity:0;fill:#0000ff;fill-opacity:1;stroke-width:1.06667"
     id="path940"
     overflow="visible"
     d="m 60.626965,-17.595446 c -8.82859,0 -16,7.171413 -16,15.9999996 0,8.828587 7.17141,16.0000004 16,16.0000004 8.82752,0 16,-7.1714134 16,-16.0000004 0,-8.8275196 -7.17141,-15.9999996 -16,-15.9999996 z"
     inkscape:connector-curvature="0" />
  <path
     d="m 23.654516,8.150224 4.862812,2.473171 -1.469319,0.720907 c 0.605615,1.430438 0.945476,3.002495 0.945476,4.655811 C 27.993485,22.625663 22.622157,28 15.9936,28 13.870113,28 11.876947,27.442482 10.146983,26.474129 l 1.213783,-1.213493 c 1.39522,0.699968 2.964197,1.103924 4.632834,1.103924 5.723968,0 10.36191,-4.640541 10.36191,-10.362141 0,-1.535433 -0.355212,-2.982199 -0.955694,-4.29275 z m -7.825249,2.545965 z m 0,0 z m 0.166904,-5.060863 c -5.723963,0 -10.361909,4.64092 -10.361909,10.364787 0,1.535471 0.355204,2.981972 0.955698,4.292523 L 8.337815,23.849776 3.475,21.376264 4.944323,20.655508 C 4.338704,19.224655 3.998843,17.652976 3.998843,16.000113 3.996243,9.373657 9.370172,4 15.996171,4 c 2.123488,0 4.116659,0.556876 5.846623,1.525304 l -1.213788,1.214022 c -1.395215,-0.70012 -2.96675,-1.104 -4.632835,-1.104 z"
     id="path4-9"
     sodipodi:nodetypes="cccssccsscccccccccccccccccccccccccccsscccccscc"
     style="fill:#eff0f1;fill-opacity:1;stroke-width:0.0255532" />
  <path
     d="m 19.975,16 c 0,2.2102 -1.7898,4 -4,4 -2.20834,0 -4,-1.7898 -4,-4 0,-2.20834 1.79166,-4 4,-4 2.2102,0 4,1.79166 4,4 z"
     id="path72-3"
     style="fill:#eff0f1;fill-opacity:1;stroke-width:0.0476198" />
</svg>
