<?xml version="1.0" encoding="UTF-8" standalone="no"?>
<svg
   inkscape:version="1.1.1 (3bf5ae0d25, 2021-09-20)"
   sodipodi:docname="system-log-out.svg"
   id="svg6"
   version="1.1"
   viewBox="0 0 32 32"
   xmlns:inkscape="http://www.inkscape.org/namespaces/inkscape"
   xmlns:sodipodi="http://sodipodi.sourceforge.net/DTD/sodipodi-0.dtd"
   xmlns="http://www.w3.org/2000/svg"
   xmlns:svg="http://www.w3.org/2000/svg"
   xmlns:rdf="http://www.w3.org/1999/02/22-rdf-syntax-ns#"
   xmlns:cc="http://creativecommons.org/ns#"
   xmlns:dc="http://purl.org/dc/elements/1.1/">
  <metadata
     id="metadata10">
    <rdf:RDF>
      <cc:Work
         rdf:about="">
        <dc:format>image/svg+xml</dc:format>
        <dc:type
           rdf:resource="http://purl.org/dc/dcmitype/StillImage" />
      </cc:Work>
    </rdf:RDF>
  </metadata>
  <sodipodi:namedview
     inkscape:document-rotation="0"
     inkscape:lockguides="true"
     inkscape:current-layer="svg6"
     inkscape:window-maximized="1"
     inkscape:window-y="0"
     inkscape:window-x="0"
     inkscape:cy="22.585539"
     inkscape:cx="15.954464"
     inkscape:zoom="10.028541"
     showgrid="true"
     id="namedview8"
     inkscape:window-height="1007"
     inkscape:window-width="1920"
     inkscape:pageshadow="2"
     inkscape:pageopacity="0"
     guidetolerance="10"
     gridtolerance="10"
     objecttolerance="10"
     borderopacity="1"
     bordercolor="#666666"
     pagecolor="#ffffff"
     inkscape:pagecheckerboard="0">
    <inkscape:grid
       type="xygrid"
       id="grid883" />
  </sodipodi:namedview>
  <defs
     id="defs3051">
    <style
       id="current-color-scheme"
       type="text/css">
      .ColorScheme-Text {
        color:#eff0f1;
      }
      </style>
  </defs>
  <path
     sodipodi:nodetypes="cccccccccccccscscscccc"
     inkscape:connector-curvature="0"
     style="clip-rule:evenodd;fill:#eff0f1;fill-opacity:1;fill-rule:evenodd;stroke-width:0.00244847;stroke-linejoin:round;stroke-miterlimit:1.41421"
     id="path4-3-3"
     d="m 15.085074,4.0343239 c -5.07526,0.38703 -9.4182697,4.00295 -10.7007997,8.9187501 -0.50204,1.934891 -0.51429,4.087411 -0.0242,6.00418 1.26416,5.00662 5.6678997,8.67689 10.8156497,9.01569 2.92163,0.19339 5.75876,-0.65312 8.09974,-2.42473 0.63526,-0.47761 1.79044,-1.63256 2.26848,-2.26757 3.57501,-4.728529 3.21208,-11.28913 -0.85886,-15.5459401 -2.51044,-2.61788 -6.01297,-3.97235 -9.59997,-3.70038 z m 1.60898,1.48068 c 1.26334,0.0706 3.06459,0.46063 4.68794,1.409 1.71446,0.99744 3.03629,2.45354 4.01,4.3825601 1.43805,2.630221 1.45383,6.409571 0.348,8.9447 -0.9087,1.84958 -2.41967,3.80083 -4.34921,5.00574 -1.28894,0.80488 -3.76486,1.31818 -5.52772,1.296 -1.66692,-0.021 -3.71165,-0.44702 -4.93007,-1.20871 -2.2878897,-1.43027 -4.0953397,-3.44722 -4.9899997,-6.02124 -0.65343,-2.516049 -0.51093,-5.2156 0.465,-7.59761 0.62227,-1.51882 1.67002,-2.7497501 3.329,-4.1851301 1.5234497,-1.15788 3.5096397,-1.82368 5.1852197,-1.95331 0.33257,-0.0301 0.90686,-0.098 0.95535,-0.098 0.0482,-0.006 0.4173,-0.004 0.81649,0.026 z" />
  <path
     d="m 16.923974,20.929842 5.00281,-4.768506 c 0.0469,-0.04481 0.0729,-0.10536 0.0729,-0.168749 0,-0.06341 -0.0265,-0.123934 -0.0733,-0.168735 l -5.00232,-4.75423 c -0.0714,-0.06819 -0.17877,-0.08822 -0.2725,-0.0515 -0.0934,0.0372 -0.15383,0.123934 -0.15383,0.220216 v 2.621632 h -6.2479 c -0.13795,4e-6 -0.24983,0.106774 -0.24983,0.238339 v 3.813306 c 0,0.131556 0.11188,0.238335 0.24983,0.238335 h 6.2479 v 2.611621 c 0,0.09629 0.0608,0.183042 0.15458,0.220214 0.0934,0.0372 0.20032,0.01622 0.27175,-0.05197 z"
     id="path2-3"
     style="fill:#eff0f1;fill-opacity:1;stroke-width:0.0228801" />
</svg>
