<?xml version="1.0" encoding="UTF-8" standalone="no"?>
<svg
   inkscape:version="1.1.1 (3bf5ae0d25, 2021-09-20)"
   sodipodi:docname="system-suspend-hibernate.svg"
   id="svg5"
   version="1.1"
   viewBox="0 0 32 32"
   xmlns:inkscape="http://www.inkscape.org/namespaces/inkscape"
   xmlns:sodipodi="http://sodipodi.sourceforge.net/DTD/sodipodi-0.dtd"
   xmlns="http://www.w3.org/2000/svg"
   xmlns:svg="http://www.w3.org/2000/svg"
   xmlns:rdf="http://www.w3.org/1999/02/22-rdf-syntax-ns#"
   xmlns:cc="http://creativecommons.org/ns#"
   xmlns:dc="http://purl.org/dc/elements/1.1/">
  <metadata
     id="metadata9">
    <rdf:RDF>
      <cc:Work
         rdf:about="">
        <dc:format>image/svg+xml</dc:format>
        <dc:type
           rdf:resource="http://purl.org/dc/dcmitype/StillImage" />
      </cc:Work>
    </rdf:RDF>
  </metadata>
  <sodipodi:namedview
     inkscape:document-rotation="0"
     inkscape:current-layer="svg5"
     inkscape:window-maximized="1"
     inkscape:window-y="0"
     inkscape:window-x="0"
     inkscape:cy="5.0103705"
     inkscape:cx="-6.4780547"
     inkscape:zoom="9.879509"
     showgrid="true"
     id="namedview7"
     inkscape:window-height="1007"
     inkscape:window-width="1920"
     inkscape:pageshadow="2"
     inkscape:pageopacity="0"
     guidetolerance="10"
     gridtolerance="10"
     objecttolerance="10"
     borderopacity="1"
     bordercolor="#666666"
     pagecolor="#ffffff"
     inkscape:pagecheckerboard="0">
    <inkscape:grid
       type="xygrid"
       id="grid893" />
  </sodipodi:namedview>
  <defs
     id="defs3051">
    <style
       id="current-color-scheme"
       type="text/css">
      .ColorScheme-Text {
        color:#eff0f1;
      }
      </style>
  </defs>
  <rect
     x="21.047285"
     y="14.270303"
     width="1.8333776"
     height="0.51265848"
     id="rect12"
     style="fill:#eff0f1;fill-opacity:1;stroke-width:0.8638" />
  <rect
     x="21.047285"
     y="15.63708"
     width="1.8333776"
     height="0.51265848"
     id="rect14"
     style="fill:#eff0f1;fill-opacity:1;stroke-width:0.8638" />
  <polygon
     points="-776.9,579 -778.9,581 -778.9,577.4 -780.1,577.4 -780.1,581 -782.7,578.4 -783.6,579.3 -781,581.9 -784.6,581.9 -784.6,583.1 -781,583.1 -783.6,585.7 -782.7,586.5 -780.1,584 -780.1,587.6 -778.9,587.6 -778.9,584 -776.9,586 -776.9,584.3 -778,583.1 -776.9,583.1 -776.9,581.9 -778,581.9 -776.9,580.7 "
     id="polygon16"
     transform="matrix(0.87303499,0,0,0.85443114,693.98326,-483.77783)"
     style="fill:#eff0f1;fill-opacity:1" />
  <path
     d="m 20.087345,18.02978 v -7.006365 c 0,-0.854407 -0.78588,-1.6234042 -1.65889,-1.6234042 -0.87302,0 -1.65871,0.6836102 -1.65871,1.6234042 v 7.006365 c -0.69853,0.51272 -1.13494,1.281658 -1.13494,2.136071 0,1.452526 1.22224,2.734161 2.79365,2.734161 1.48419,0 2.79379,-1.196211 2.79379,-2.734161 0,-0.854413 -0.43656,-1.62335 -1.1349,-2.136071 z m -1.65889,4.101275 c -1.13488,0 -2.00789,-0.854409 -2.00789,-1.965199 0,-0.768997 0.43648,-1.45249 1.13487,-1.794295 v -7.348146 c 0,-0.51264 0.43656,-0.854407 0.87302,-0.854407 0.52385,0 0.87302,0.427243 0.87302,0.854407 v 7.348146 c 0.69853,0.341805 1.135,1.025298 1.135,1.794294 0.0871,1.110791 -0.87301,1.965199 -2.00802,1.9652 z"
     id="path6-6-3"
     style="fill:#eff0f1;fill-opacity:1;stroke-width:0.8638" />
  <rect
     x="21.047285"
     y="12.988885"
     width="1.8333776"
     height="0.51265848"
     id="rect10"
     style="fill:#eff0f1;fill-opacity:1;stroke-width:0.8638" />
  <path
     sodipodi:nodetypes="cccccccccccccscscscccc"
     inkscape:connector-curvature="0"
     style="clip-rule:evenodd;fill:#eff0f1;fill-opacity:1;fill-rule:evenodd;stroke-width:0.00244847;stroke-linejoin:round;stroke-miterlimit:1.41421"
     id="path4-3-3-3"
     d="m 15.085075,4.0343248 c -5.07526,0.38703 -9.4182707,4.00295 -10.7008007,8.9187502 -0.50204,1.93489 -0.51429,4.08741 -0.0242,6.00418 1.26416,5.006621 5.6679007,8.67689 10.8156507,9.01569 2.92163,0.19339 5.75876,-0.65312 8.09974,-2.42473 0.63526,-0.47761 1.79044,-1.63256 2.26848,-2.26757 3.57501,-4.72853 3.21208,-11.28913 -0.85886,-15.5459402 -2.51044,-2.61788 -6.01297,-3.972354 -9.59997,-3.70038 z m 1.60898,1.48068 c 1.26334,0.0706 3.06459,0.46063 4.68794,1.409 1.71446,0.99744 3.03629,2.45354 4.01,4.3825602 1.43805,2.63022 1.45383,6.40957 0.348,8.9447 -0.9087,1.84958 -2.41967,3.80083 -4.34921,5.00574 -1.28894,0.80488 -3.76486,1.31818 -5.52772,1.296 -1.66692,-0.021 -3.71165,-0.44702 -4.93007,-1.20871 -2.2878907,-1.43027 -4.0953407,-3.44722 -4.9900007,-6.02124 -0.65343,-2.51605 -0.51093,-5.2156 0.465,-7.59761 0.62227,-1.51882 1.67002,-2.7497502 3.329,-4.1851302 1.5234507,-1.15788 3.5096407,-1.82368 5.1852207,-1.95331 0.33257,-0.0301 0.90686,-0.098 0.95535,-0.098 0.0482,-0.006 0.4173,-0.004 0.81649,0.026 z" />
</svg>
