<?xml version="1.0" encoding="UTF-8" standalone="no"?>
<!-- Created with Inkscape (http://www.inkscape.org/) -->

<svg
   width="32"
   version="1.1"
   height="32"
   id="svg29"
   sodipodi:docname="preferences-desktop-filetype-association.svg"
   inkscape:version="1.1.1 (3bf5ae0d25, 2021-09-20)"
   xmlns:inkscape="http://www.inkscape.org/namespaces/inkscape"
   xmlns:sodipodi="http://sodipodi.sourceforge.net/DTD/sodipodi-0.dtd"
   xmlns:xlink="http://www.w3.org/1999/xlink"
   xmlns="http://www.w3.org/2000/svg"
   xmlns:svg="http://www.w3.org/2000/svg">
  <sodipodi:namedview
     id="namedview31"
     pagecolor="#ffffff"
     bordercolor="#666666"
     borderopacity="1.0"
     inkscape:pageshadow="2"
     inkscape:pageopacity="0.0"
     inkscape:pagecheckerboard="0"
     showgrid="true"
     inkscape:zoom="19.4375"
     inkscape:cx="16"
     inkscape:cy="15.974277"
     inkscape:window-width="1920"
     inkscape:window-height="1011"
     inkscape:window-x="0"
     inkscape:window-y="0"
     inkscape:window-maximized="1"
     inkscape:current-layer="layer1">
    <inkscape:grid
       type="xygrid"
       id="grid848" />
  </sodipodi:namedview>
  <defs
     id="defs5455">
    <linearGradient
       inkscape:collect="always"
       id="linearGradient4298">
      <stop
         style="stop-color:#42a603"
         id="stop4300" />
      <stop
         offset="1"
         style="stop-color:#78da06"
         id="stop4302" />
    </linearGradient>
    <linearGradient
       inkscape:collect="always"
       id="linearGradient4290">
      <stop
         style="stop-color:#7cbaf8"
         id="stop4292" />
      <stop
         offset="1"
         style="stop-color:#f4fcff"
         id="stop4294" />
    </linearGradient>
    <linearGradient
       inkscape:collect="always"
       id="linearGradient4303">
      <stop
         style="stop-color:#197cf1"
         id="stop4305" />
      <stop
         offset="1"
         style="stop-color:#21c9fb"
         id="stop4307" />
    </linearGradient>
    <linearGradient
       inkscape:collect="always"
       xlink:href="#linearGradient4303"
       id="linearGradient4217"
       y1="543.79797"
       y2="503.798"
       x2="0"
       gradientUnits="userSpaceOnUse"
       gradientTransform="matrix(0.70000012 0 0 0.70000031 114.57136 165.13922)" />
    <linearGradient
       inkscape:collect="always"
       xlink:href="#linearGradient4290"
       id="linearGradient4296"
       y1="22"
       y2="10.00004"
       x2="0"
       gradientUnits="userSpaceOnUse" />
    <linearGradient
       inkscape:collect="always"
       xlink:href="#linearGradient4298"
       id="linearGradient4304"
       y1="545.79797"
       y2="517.79797"
       x2="0"
       gradientUnits="userSpaceOnUse" />
    <linearGradient
       inkscape:collect="always"
       id="linearGradient4227">
      <stop
         style="stop-color:#292c2f"
         id="stop4229" />
      <stop
         offset="1"
         style="stop-opacity:0"
         id="stop4231" />
    </linearGradient>
    <linearGradient
       inkscape:collect="always"
       xlink:href="#linearGradient4227"
       id="linearGradient4385"
       y1="524.79797"
       x1="401.57144"
       y2="531.79797"
       x2="408.57147"
       gradientUnits="userSpaceOnUse" />
    <linearGradient
       inkscape:collect="always"
       xlink:href="#linearGradient4227"
       id="linearGradient4389"
       y1="524.79797"
       x1="401.57144"
       y2="531.79797"
       gradientUnits="userSpaceOnUse"
       x2="408.57147"
       gradientTransform="matrix(1 0 0 1 6 0)" />
  </defs>
  <metadata
     id="metadata5458" />
  <g
     inkscape:label="Capa 1"
     inkscape:groupmode="layer"
     id="layer1"
     transform="translate(-384.57143,-515.798)">
    <path
       inkscape:connector-curvature="0"
       style="fill:url(#linearGradient4304)"
       id="path4182"
       d="m 392.57143,517.798 v 28 h 17 c 3,0 5,-2 5,-4 l -1e-5,-17 -6.99999,-7 z"
       sodipodi:nodetypes="ccccccc" />
    <path
       inkscape:connector-curvature="0"
       style="fill:#313437;fill-rule:evenodd"
       id="path4184"
       d="m 414.57142,524.798 -6.99999,-7 v 7 z" />
    <path
       inkscape:connector-curvature="0"
       style="fill:url(#linearGradient4217)"
       id="rect4144"
       d="m 386.57143,522.798 v 18 c 0,3 2,5 5.13936,5 h 16.86063 v -21 l -6.99999,-7 h -10.08451 c -2.91549,0 -4.91549,2 -4.91549,5 z"
       sodipodi:nodetypes="cccccccc" />
    <path
       inkscape:connector-curvature="0"
       style="fill:#313437;fill-rule:evenodd"
       id="path4164"
       d="m 408.57142,524.798 -6.99999,-7 v 7 z" />
    <path
       style="fill:url(#linearGradient4296)"
       id="rect4211"
       d="m 10,10 c -0.554,0 -1,0.446 -1,1 0,0.554 0.446,1 1,1 0.554,0 1,-0.446 1,-1 0,-0.554 -0.446,-1 -1,-1 z m 5,0 -2,2 2,2 -2,2 2,2 2,-2 2,-2 -2,-2 z m -7,6 c -0.554,0 -1,0.446 -1,1 0,0.554 0.446,1 1,1 0.554,0 1,-0.446 1,-1 0,-0.554 -0.446,-1 -1,-1 z m 4,4 c -0.554,0 -1,0.446 -1,1 0,0.554 0.446,1 1,1 0.554,0 1,-0.446 1,-1 0,-0.554 -0.446,-1 -1,-1 z"
       transform="translate(384.57143,515.798)" />
    <path
       inkscape:connector-curvature="0"
       style="opacity:0.2;fill:url(#linearGradient4385);fill-rule:evenodd"
       id="path4306"
       d="m 401.57143,524.798 6.99999,7 v -7 z" />
    <path
       inkscape:connector-curvature="0"
       style="opacity:0.2;fill:url(#linearGradient4389);fill-rule:evenodd"
       id="path4387"
       d="m 407.57143,524.798 6.99999,7 v -7 z" />
  </g>
</svg>
