<?xml version="1.0" encoding="UTF-8" standalone="no"?>
<svg
   height="32"
   width="32"
   version="1.1"
   id="svg86"
   sodipodi:docname="preferences-system-startup.svg"
   inkscape:version="1.1.1 (3bf5ae0d25, 2021-09-20)"
   xmlns:inkscape="http://www.inkscape.org/namespaces/inkscape"
   xmlns:sodipodi="http://sodipodi.sourceforge.net/DTD/sodipodi-0.dtd"
   xmlns:xlink="http://www.w3.org/1999/xlink"
   xmlns="http://www.w3.org/2000/svg"
   xmlns:svg="http://www.w3.org/2000/svg">
  <defs
     id="defs90" />
  <sodipodi:namedview
     id="namedview88"
     pagecolor="#ffffff"
     bordercolor="#666666"
     borderopacity="1.0"
     inkscape:pageshadow="2"
     inkscape:pageopacity="0.0"
     inkscape:pagecheckerboard="0"
     showgrid="true"
     inkscape:zoom="19.4375"
     inkscape:cx="16"
     inkscape:cy="15.974277"
     inkscape:window-width="1920"
     inkscape:window-height="1011"
     inkscape:window-x="0"
     inkscape:window-y="0"
     inkscape:window-maximized="1"
     inkscape:current-layer="svg86">
    <inkscape:grid
       type="xygrid"
       id="grid907" />
  </sodipodi:namedview>
  <linearGradient
     id="a">
    <stop
       offset="0"
       stop-color="#c6cdd1"
       id="stop2" />
    <stop
       offset="1"
       stop-color="#e0e5e7"
       id="stop4" />
  </linearGradient>
  <linearGradient
     id="c"
     gradientTransform="matrix(1 0 0 1.21053 -3 -111.432)"
     gradientUnits="userSpaceOnUse"
     x1="403.571"
     x2="403.571"
     y1="538.798"
     y2="519.798">
    <stop
       offset="0"
       stop-color="#2a2c2f"
       id="stop7" />
    <stop
       offset="1"
       stop-color="#424649"
       id="stop9" />
  </linearGradient>
  <linearGradient
     id="d"
     gradientUnits="userSpaceOnUse"
     x1="400.571"
     x2="400.571"
     xlink:href="#a"
     y1="544.798"
     y2="540.798" />
  <linearGradient
     id="e"
     gradientTransform="matrix(1.25 0 0 1.13333 -484.714 -587.238)"
     gradientUnits="userSpaceOnUse"
     x1="400.571"
     x2="400.571"
     y1="535.798"
     y2="520.798">
    <stop
       offset="0"
       stop-color="#232629"
       id="stop13" />
    <stop
       offset="1"
       stop-color="#292c30"
       id="stop15" />
  </linearGradient>
  <linearGradient
     id="n"
     gradientUnits="userSpaceOnUse"
     x1="389.571"
     x2="389.571"
     xlink:href="#a"
     y1="534.798"
     y2="519.798" />
  <linearGradient
     id="b">
    <stop
       offset="0"
       id="stop19" />
    <stop
       offset="1"
       stop-opacity="0"
       id="stop21" />
  </linearGradient>
  <linearGradient
     id="o"
     gradientUnits="userSpaceOnUse"
     x1="386.571"
     x2="389.571"
     xlink:href="#b"
     y1="520.798"
     y2="523.798" />
  <linearGradient
     id="p"
     gradientUnits="userSpaceOnUse"
     x1="386.571"
     x2="389.571"
     xlink:href="#b"
     y1="522.798"
     y2="525.798" />
  <linearGradient
     id="q"
     gradientUnits="userSpaceOnUse"
     x1="386.571"
     x2="389.571"
     xlink:href="#b"
     y1="524.798"
     y2="527.798" />
  <linearGradient
     id="r"
     gradientUnits="userSpaceOnUse"
     x1="386.571"
     x2="389.571"
     xlink:href="#b"
     y1="526.798"
     y2="529.798" />
  <linearGradient
     id="s"
     gradientUnits="userSpaceOnUse"
     x1="386.571"
     x2="389.571"
     xlink:href="#b"
     y1="528.798"
     y2="531.798" />
  <linearGradient
     id="t"
     gradientUnits="userSpaceOnUse"
     x1="386.571"
     x2="389.571"
     xlink:href="#b"
     y1="530.798"
     y2="533.798" />
  <linearGradient
     id="u"
     gradientUnits="userSpaceOnUse"
     x1="386.571"
     x2="389.571"
     xlink:href="#b"
     y1="532.798"
     y2="535.798" />
  <linearGradient
     id="v"
     gradientUnits="userSpaceOnUse"
     x1="386.571"
     x2="389.571"
     xlink:href="#b"
     y1="534.798"
     y2="537.798" />
  <linearGradient
     id="f"
     gradientUnits="userSpaceOnUse"
     x1="390.571"
     x2="397.071"
     xlink:href="#b"
     y1="520.798"
     y2="527.298" />
  <linearGradient
     id="g"
     gradientUnits="userSpaceOnUse"
     x1="390.571"
     x2="397.071"
     xlink:href="#b"
     y1="532.798"
     y2="539.298" />
  <linearGradient
     id="h"
     gradientUnits="userSpaceOnUse"
     x1="390.571"
     x2="396.025"
     xlink:href="#b"
     y1="522.798"
     y2="528.251" />
  <linearGradient
     id="i"
     gradientUnits="userSpaceOnUse"
     x1="390.571"
     x2="396.025"
     xlink:href="#b"
     y1="526.798"
     y2="532.251" />
  <linearGradient
     id="j"
     gradientUnits="userSpaceOnUse"
     x1="390.571"
     x2="396.025"
     xlink:href="#b"
     y1="528.798"
     y2="534.251" />
  <linearGradient
     id="k"
     gradientUnits="userSpaceOnUse"
     x1="390.571"
     x2="395.071"
     xlink:href="#b"
     y1="524.798"
     y2="529.298" />
  <linearGradient
     id="l"
     gradientUnits="userSpaceOnUse"
     x1="390.571"
     x2="395.071"
     xlink:href="#b"
     y1="530.798"
     y2="535.298" />
  <linearGradient
     id="m"
     gradientUnits="userSpaceOnUse"
     x1="390.571"
     x2="395.071"
     xlink:href="#b"
     y1="534.798"
     y2="539.298" />
  <path
     d="m 384.571,520.798 c 0,-3 0.0157,-3 3,-3 h 26.02549 c 2.97451,0 2.97451,0 2.97451,3 v 17 c 0,3 0,3 -3.01913,3 h -25.99503 c -2.98584,0 -2.98584,0 -2.98584,-3 z"
     fill="url(#c)"
     transform="translate(-384.571,-515.798)"
     id="path40"
     sodipodi:nodetypes="ccccccccc" />
  <path
     d="M1 20h30v1H1z"
     fill="#333639"
     id="path42" />
  <path
     d="M397.571 540.798h6v4h-6z"
     fill="url(#d)"
     transform="translate(-384.571 -515.798)"
     id="path44" />
  <path
     d="M10 29h12v1H10z"
     fill="#9eaab6"
     id="path46" />
  <path
     d="M1 3h30v17H1z"
     fill="url(#e)"
     id="path48" />
  <path
     d="M390.571 520.798l1 1h7l2 2 2-2-2-2z"
     fill="url(#f)"
     opacity=".2"
     transform="translate(-384.571 -515.798)"
     id="path50" />
  <path
     d="M390.571 532.798l1 1h5l3 3 3-3-2-2z"
     fill="url(#g)"
     opacity=".2"
     transform="translate(-384.571 -515.798)"
     id="path52" />
  <path
     d="M390.571 522.798l1 1h5l2 2 2-2-2-2z"
     fill="url(#h)"
     opacity=".2"
     transform="translate(-384.571 -515.798)"
     id="path54" />
  <path
     d="M390.571 526.798l1 1h7l1 1 1-1-2-2z"
     fill="url(#i)"
     opacity=".2"
     transform="translate(-384.571 -515.798)"
     id="path56" />
  <path
     d="M390.571 528.798l1 1h5l2 2 2-2-2-2z"
     fill="url(#j)"
     opacity=".2"
     transform="translate(-384.571 -515.798)"
     id="path58" />
  <path
     d="M390.571 524.798l1 1h7l-2-2z"
     fill="url(#k)"
     opacity=".2"
     transform="translate(-384.571 -515.798)"
     id="path60" />
  <path
     d="M390.571 530.798l1 1h7l-2-2z"
     fill="url(#l)"
     opacity=".2"
     transform="translate(-384.571 -515.798)"
     id="path62" />
  <path
     d="M390.571 534.798l2 2h5l1-1-2-2z"
     fill="url(#m)"
     opacity=".2"
     transform="translate(-384.571 -515.798)"
     id="path64" />
  <path
     d="M389.571 519.798h5v1h-5zm0 6h4v1h-4zm0 2h4v1h-4zm0 2h3v1h-3zm0-8h4v1h-4zm0 2h3v1h-3zm0 8h5v1h-5zm0 2h3v1h-3z"
     fill="url(#n)"
     transform="matrix(2 0 0 1 -773.143 -515.798)"
     id="path66" />
  <path
     d="M386.571 520.798l1 1h2l1 1 1-1-2-2z"
     fill="url(#o)"
     opacity=".2"
     transform="translate(-384.571 -515.798)"
     id="path68" />
  <path
     d="M386.571 522.798l1 1h2l1 1 1-1-2-2z"
     fill="url(#p)"
     opacity=".2"
     transform="translate(-384.571 -515.798)"
     id="path70" />
  <path
     d="M386.571 524.798l1 1h2l1 1 1-1-2-2z"
     fill="url(#q)"
     opacity=".2"
     transform="translate(-384.571 -515.798)"
     id="path72" />
  <path
     d="M386.571 526.798l1 1h2l1 1 1-1-2-2z"
     fill="url(#r)"
     opacity=".2"
     transform="translate(-384.571 -515.798)"
     id="path74" />
  <path
     d="M386.571 528.798l1 1h2l1 1 1-1-2-2z"
     fill="url(#s)"
     opacity=".2"
     transform="translate(-384.571 -515.798)"
     id="path76" />
  <path
     d="M386.571 530.798l1 1h2l1 1 1-1-2-2z"
     fill="url(#t)"
     opacity=".2"
     transform="translate(-384.571 -515.798)"
     id="path78" />
  <path
     d="M386.571 532.798l1 1h2l1 1 1-1-2-2z"
     fill="url(#u)"
     opacity=".2"
     transform="translate(-384.571 -515.798)"
     id="path80" />
  <path
     d="M386.571 534.798l1 1 1 1h2l1-1-2-2z"
     fill="url(#v)"
     opacity=".2"
     transform="translate(-384.571 -515.798)"
     id="path82" />
  <path
     d="M2 4h3v1H2zm0 2h3v1H2zm0 2h3v1H2zm0 2h3v1H2zm0 2h3v1H2zm0 2h3v1H2zm0 2h3v1H2zm0 2h3v1H2z"
     fill="#11d116"
     id="path84" />
</svg>
